<svg width="24" height="24" viewBox="0 0 24 24" fill="none" xmlns="http://www.w3.org/2000/svg">
<g clip-path="url(#clip0_806_6784)">
<path d="M18.951 23.0008H18.918C18.407 22.9928 17.921 22.7758 17.574 22.4008L15.656 20.5198C15.272 20.1228 15.281 19.4898 15.678 19.1058C15.679 19.1048 15.68 19.1038 15.681 19.1028C16.078 18.7218 16.708 18.7328 17.091 19.1268L18.952 20.9498L22.293 17.6088C22.683 17.2188 23.317 17.2188 23.707 17.6088C24.097 17.9988 24.097 18.6328 23.707 19.0228L20.286 22.4438C19.934 22.8008 19.453 23.0018 18.951 23.0008Z" fill="#374957"/>
<path d="M14.035 20.0149C14.031 16.7179 16.7 14.0419 19.996 14.0369C21.279 14.0349 22.529 14.4469 23.559 15.2119C25.332 8.82691 21.593 2.21391 15.209 0.440912C8.82499 -1.33209 2.21299 2.40591 0.439986 8.79091C-1.33301 15.1759 2.40599 21.7899 8.78999 23.5629C10.89 24.1459 13.109 24.1459 15.209 23.5629C14.447 22.5369 14.035 21.2929 14.035 20.0149ZM13 12.0219C13 12.2879 12.894 12.5419 12.706 12.7299L9.70099 15.7359C9.30299 16.1199 8.66899 16.1089 8.28499 15.7109C7.90999 15.3229 7.90999 14.7069 8.28499 14.3189L10.997 11.6069V7.01291C10.997 6.45991 11.445 6.01091 11.999 6.01091C12.552 6.01091 13 6.45991 13 7.01291V12.0219Z" fill="#374957"/>
</g>
<defs>
<clipPath id="clip0_806_6784">
<rect width="24" height="24" fill="white"/>
</clipPath>
</defs>
</svg>
