<svg width="24" height="24" viewBox="0 0 24 24" fill="none" xmlns="http://www.w3.org/2000/svg">
<g clip-path="url(#clip0_806_6511)">
<path d="M23.954 5.54175L15.536 13.9597C14.5974 14.896 13.3257 15.4218 12 15.4218C10.6743 15.4218 9.40263 14.896 8.464 13.9597L0.046 5.54175C0.032 5.69975 0 5.84275 0 5.99975V17.9997C0.00158786 19.3253 0.528882 20.5962 1.46622 21.5335C2.40356 22.4709 3.67441 22.9982 5 22.9997H19C20.3256 22.9982 21.5964 22.4709 22.5338 21.5335C23.4711 20.5962 23.9984 19.3253 24 17.9997V5.99975C24 5.84275 23.968 5.69975 23.954 5.54175Z" fill="#374957"/>
<path d="M14.1221 12.5458L23.2561 3.41076C22.8137 2.67707 22.1896 2.06979 21.4441 1.64749C20.6986 1.22518 19.8569 1.0021 19.0001 0.999756H5.00014C4.14336 1.0021 3.30164 1.22518 2.55617 1.64749C1.81069 2.06979 1.18662 2.67707 0.744141 3.41076L9.87814 12.5458C10.4417 13.1071 11.2047 13.4222 12.0001 13.4222C12.7956 13.4222 13.5586 13.1071 14.1221 12.5458Z" fill="#374957"/>
</g>
<defs>
<clipPath id="clip0_806_6511">
<rect width="24" height="24" fill="white"/>
</clipPath>
</defs>
</svg>
