<svg width="24" height="24" viewBox="0 0 24 24" fill="none" xmlns="http://www.w3.org/2000/svg">
<g clip-path="url(#clip0_806_6556)">
<path d="M5.00007 7.99962C5.00007 6.41737 5.46926 4.87065 6.34831 3.55506C7.22736 2.23946 8.47679 1.21408 9.9386 0.608583C11.4004 0.00308233 13.0089 -0.155344 14.5608 0.153337C16.1126 0.462019 17.5381 1.22395 18.6569 2.34277C19.7757 3.46159 20.5377 4.88705 20.8464 6.4389C21.155 7.99075 20.9966 9.59928 20.3911 11.0611C19.7856 12.5229 18.7602 13.7723 17.4446 14.6514C16.129 15.5304 14.5823 15.9996 13.0001 15.9996C10.8791 15.9972 8.84562 15.1536 7.34585 13.6538C5.84607 12.1541 5.00245 10.1206 5.00007 7.99962ZM22.6461 13.3826C22.4273 13.2328 22.1579 13.176 21.8972 13.2248C21.6366 13.2735 21.4059 13.4238 21.2561 13.6426C20.4931 14.7569 19.5124 15.7052 18.373 16.4302C17.2337 17.1552 15.9593 17.6418 14.6267 17.8609C13.2941 18.0799 11.9309 18.0268 10.6194 17.7047C9.30794 17.3825 8.07528 16.7981 6.99581 15.9866C5.91633 15.1751 5.01241 14.1534 4.33855 12.9831C3.66469 11.8127 3.23487 10.518 3.07501 9.17707C2.91514 7.83609 3.02855 6.47663 3.40838 5.18068C3.78822 3.88472 4.42662 2.67913 5.28507 1.63662C5.45401 1.43214 5.53481 1.16892 5.50968 0.904867C5.48455 0.640816 5.35555 0.397563 5.15107 0.22862C4.94659 0.0596768 4.68337 -0.0211166 4.41932 0.00401331C4.15527 0.0291432 3.91201 0.158138 3.74307 0.36262C2.34923 2.05192 1.44455 4.09063 1.12713 6.2576C0.809715 8.42457 1.09169 10.6371 1.94247 12.6552C2.79325 14.6733 4.18036 16.4199 5.95335 17.7056C7.72633 18.9913 9.81751 19.767 12.0001 19.9486V21.9996H8.00007C7.73485 21.9996 7.4805 22.105 7.29296 22.2925C7.10543 22.48 7.00007 22.7344 7.00007 22.9996C7.00007 23.2648 7.10543 23.5192 7.29296 23.7067C7.4805 23.8943 7.73485 23.9996 8.00007 23.9996H18.0001C18.2653 23.9996 18.5196 23.8943 18.7072 23.7067C18.8947 23.5192 19.0001 23.2648 19.0001 22.9996C19.0001 22.7344 18.8947 22.48 18.7072 22.2925C18.5196 22.105 18.2653 21.9996 18.0001 21.9996H14.0001V19.9386C15.7752 19.793 17.4956 19.2538 19.0362 18.3602C20.5769 17.4667 21.8992 16.2411 22.9071 14.7726C22.9812 14.6642 23.0333 14.5423 23.0603 14.4137C23.0873 14.2852 23.0887 14.1526 23.0645 14.0236C23.0402 13.8945 22.9908 13.7714 22.919 13.6615C22.8472 13.5515 22.7545 13.4567 22.6461 13.3826Z" fill="#374957"/>
</g>
<defs>
<clipPath id="clip0_806_6556">
<rect width="24" height="24" fill="white"/>
</clipPath>
</defs>
</svg>
