<svg width="24" height="24" viewBox="0 0 24 24" fill="none" xmlns="http://www.w3.org/2000/svg">
<g clip-path="url(#clip0_806_6692)">
<path d="M18.5 5.00073H5.5C4.0418 5.00232 2.64377 5.58229 1.61267 6.6134C0.581561 7.64451 0.00158817 9.04253 0 10.5007L0 13.5007C0.00158817 14.9589 0.581561 16.357 1.61267 17.3881C2.64377 18.4192 4.0418 18.9991 5.5 19.0007H18.5C19.9582 18.9991 21.3562 18.4192 22.3873 17.3881C23.4184 16.357 23.9984 14.9589 24 13.5007V10.5007C23.9984 9.04253 23.4184 7.64451 22.3873 6.6134C21.3562 5.58229 19.9582 5.00232 18.5 5.00073ZM21 13.5007C21 14.1638 20.7366 14.7997 20.2678 15.2685C19.7989 15.7373 19.163 16.0007 18.5 16.0007H5.5C4.83696 16.0007 4.20107 15.7373 3.73223 15.2685C3.26339 14.7997 3 14.1638 3 13.5007V10.5007C3 9.83769 3.26339 9.20181 3.73223 8.73297C4.20107 8.26412 4.83696 8.00073 5.5 8.00073H18.5C19.163 8.00073 19.7989 8.26412 20.2678 8.73297C20.7366 9.20181 21 9.83769 21 10.5007V13.5007Z" fill="#374957"/>
</g>
<defs>
<clipPath id="clip0_806_6692">
<rect width="24" height="24" fill="white"/>
</clipPath>
</defs>
</svg>
