<svg width="24" height="24" viewBox="0 0 24 24" fill="none" xmlns="http://www.w3.org/2000/svg">
<g clip-path="url(#clip0_806_6615)">
<path d="M24 11.5005C23.9999 12.3886 23.6622 13.2434 23.0554 13.8918C22.4486 14.5402 21.618 14.9337 20.732 14.9925C19.7214 17.1069 18.0641 18.8448 16 19.9545V23.0005C16 23.2657 15.8946 23.5201 15.7071 23.7076C15.5195 23.8952 15.2652 24.0005 15 24.0005H8.99995C8.73473 24.0005 8.48038 23.8952 8.29284 23.7076C8.10531 23.5201 7.99995 23.2657 7.99995 23.0005V19.9535C6.07299 18.9044 4.49436 17.3153 3.45795 15.3815C3.33595 15.146 3.31251 14.8717 3.39277 14.6189C3.47304 14.3661 3.65044 14.1555 3.88595 14.0335C4.12146 13.9115 4.39579 13.8881 4.64859 13.9683C4.90139 14.0486 5.11195 14.226 5.23395 14.4615C6.39995 16.7175 9.09995 19.0005 12 19.0005C15.129 19.0005 18.212 16.2215 19.128 13.6245C19.2059 13.4006 19.3613 13.212 19.5662 13.0926C19.771 12.9732 20.0117 12.931 20.245 12.9735C20.3291 12.9893 20.4144 12.9983 20.5 13.0005C20.8712 12.9961 21.2275 12.8541 21.5002 12.6022C21.7728 12.3502 21.9423 12.0061 21.9759 11.6363C22.0095 11.2666 21.9048 10.8976 21.682 10.6006C21.4593 10.3036 21.1343 10.0998 20.77 10.0285C20.5573 9.98997 20.3629 9.8836 20.2158 9.72532C20.0687 9.56704 19.9768 9.36538 19.954 9.15051C19.8217 7.8856 19.3883 6.67078 18.6901 5.60775C17.9919 4.54472 17.0492 3.66441 15.941 3.04051C15.6583 3.92596 15.2801 4.77798 14.813 5.58151C13.5149 7.42165 11.8216 8.94796 9.85695 10.0485C10.1565 10.1219 10.4262 10.2858 10.6292 10.5179C10.8323 10.7501 10.9589 11.0392 10.9917 11.3458C11.0245 11.6525 10.962 11.9618 10.8127 12.2317C10.6634 12.5016 10.4345 12.7188 10.1572 12.8539C9.87996 12.989 9.56779 13.0354 9.26325 12.9866C8.9587 12.9379 8.67658 12.7965 8.4553 12.5817C8.23402 12.3668 8.08435 12.089 8.02666 11.786C7.96898 11.483 8.0061 11.1696 8.13295 10.8885C5.83378 11.8195 3.34775 12.1964 0.875952 11.9885C0.669923 11.9609 0.477621 11.8698 0.325789 11.7278C0.173956 11.5858 0.0701419 11.4001 0.028783 11.1963C-0.0125758 10.9926 0.0105769 10.7811 0.0950212 10.5911C0.179466 10.4012 0.321004 10.2423 0.499952 10.1365C1.10448 9.45062 1.55433 8.64266 1.81895 7.76751C3.12395 4.67451 5.09995 0.000512782 12 0.000512782C14.3543 -0.00470306 16.6347 0.823031 18.4375 2.33726C20.2403 3.85149 21.4495 5.95461 21.851 8.27451C22.4871 8.54071 23.0305 8.98891 23.4128 9.56285C23.7952 10.1368 23.9994 10.8109 24 11.5005ZM16 11.5005C16 11.2038 15.912 10.9138 15.7472 10.6672C15.5823 10.4205 15.3481 10.2282 15.074 10.1147C14.7999 10.0012 14.4983 9.97146 14.2073 10.0293C13.9163 10.0872 13.6491 10.2301 13.4393 10.4399C13.2295 10.6496 13.0867 10.9169 13.0288 11.2079C12.9709 11.4988 13.0006 11.8005 13.1141 12.0745C13.2277 12.3486 13.4199 12.5829 13.6666 12.7477C13.9133 12.9125 14.2033 13.0005 14.5 13.0005C14.8978 13.0005 15.2793 12.8425 15.5606 12.5612C15.8419 12.2799 16 11.8983 16 11.5005Z" fill="#374957"/>
</g>
<defs>
<clipPath id="clip0_806_6615">
<rect width="24" height="24" fill="white"/>
</clipPath>
</defs>
</svg>
