<svg width="24" height="24" viewBox="0 0 24 24" fill="none" xmlns="http://www.w3.org/2000/svg">
<path d="M16.0399 4.00073C15.3841 4.0023 14.7468 4.21807 14.2249 4.61521C13.7031 5.01234 13.3252 5.56909 13.1489 6.20073L9.09992 20.7687C9.00311 21.1199 8.79463 21.4301 8.50598 21.6524C8.21734 21.8746 7.8642 21.9969 7.49992 22.0007C7.14362 21.996 6.79729 21.8825 6.50737 21.6753C6.21746 21.4681 5.99782 21.1773 5.87792 20.8417L3.08492 13.1617C2.9029 12.6384 2.5979 12.1665 2.19558 11.7856C1.79326 11.4047 1.30537 11.1259 0.772925 10.9727C0.515135 10.9103 0.292715 10.748 0.154594 10.5215C0.0164741 10.2951 -0.0260323 10.023 0.0364261 9.76523C0.0988845 9.50744 0.261191 9.28502 0.487641 9.1469C0.714091 9.00878 0.986134 8.96627 1.24392 9.02873C2.09805 9.25763 2.88341 9.69152 3.53185 10.2927C4.18029 10.8939 4.67221 11.6443 4.96492 12.4787L7.43892 19.2787L11.2229 5.66273C11.5176 4.61108 12.1475 3.68436 13.0169 3.0234C13.8863 2.36243 14.9478 2.00336 16.0399 2.00073H22.9999C23.2651 2.00073 23.5195 2.10609 23.707 2.29363C23.8945 2.48116 23.9999 2.73552 23.9999 3.00073C23.9999 3.26595 23.8945 3.5203 23.707 3.70784C23.5195 3.89538 23.2651 4.00073 22.9999 4.00073H16.0399ZM23.5999 12.2007C23.3877 12.0416 23.121 11.9733 22.8585 12.0108C22.5959 12.0483 22.359 12.1886 22.1999 12.4007L19.9999 15.3337L17.7999 12.4007C17.6408 12.1886 17.4039 12.0483 17.1413 12.0108C16.8788 11.9733 16.6121 12.0416 16.3999 12.2007C16.1877 12.3599 16.0475 12.5968 16.01 12.8593C15.9724 13.1219 16.0408 13.3886 16.1999 13.6007L18.7499 17.0007L16.1999 20.4007C16.1211 20.5058 16.0638 20.6253 16.0312 20.7526C15.9986 20.8798 15.9914 21.0122 16.01 21.1422C16.0285 21.2722 16.0725 21.3972 16.1394 21.5102C16.2063 21.6232 16.2948 21.7219 16.3999 21.8007C16.505 21.8795 16.6245 21.9369 16.7517 21.9694C16.8789 22.002 17.0113 22.0093 17.1413 21.9907C17.2713 21.9721 17.3964 21.9281 17.5094 21.8612C17.6224 21.7943 17.7211 21.7058 17.7999 21.6007L19.9999 18.6677L22.1999 21.6007C22.2787 21.7058 22.3774 21.7943 22.4904 21.8612C22.6034 21.9281 22.7285 21.9721 22.8585 21.9907C22.9885 22.0093 23.1209 22.002 23.2481 21.9694C23.3753 21.9369 23.4948 21.8795 23.5999 21.8007C23.705 21.7219 23.7935 21.6232 23.8604 21.5102C23.9273 21.3972 23.9713 21.2722 23.9898 21.1422C24.0084 21.0122 24.0012 20.8798 23.9686 20.7526C23.936 20.6253 23.8787 20.5058 23.7999 20.4007L21.2499 17.0007L23.7999 13.6007C23.8787 13.4957 23.936 13.3761 23.9686 13.2489C24.0012 13.1217 24.0084 12.9893 23.9898 12.8593C23.9713 12.7293 23.9273 12.6042 23.8604 12.4912C23.7935 12.3782 23.705 12.2795 23.5999 12.2007Z" fill="#374957"/>
</svg>
