<svg width="24" height="24" viewBox="0 0 24 24" fill="none" xmlns="http://www.w3.org/2000/svg">
<g clip-path="url(#clip0_806_6832)">
<path d="M15.9998 22.9994C15.9998 22.8016 16.0585 22.6083 16.1683 22.4438C16.2782 22.2794 16.4344 22.1512 16.6171 22.0755C16.7999 21.9999 17.0009 21.98 17.1949 22.0186C17.3889 22.0572 17.5671 22.1525 17.7069 22.2923C17.8468 22.4322 17.942 22.6103 17.9806 22.8043C18.0192 22.9983 17.9994 23.1994 17.9237 23.3821C17.848 23.5648 17.7198 23.721 17.5554 23.8309C17.3909 23.9408 17.1976 23.9994 16.9998 23.9994C16.7346 23.9994 16.4802 23.8941 16.2927 23.7065C16.1052 23.519 15.9998 23.2646 15.9998 22.9994ZM20.5348 20.8774C20.7223 20.6899 20.8276 20.4356 20.8276 20.1704C20.8276 19.9053 20.7223 19.6509 20.5348 19.4634C19.5972 18.5261 18.3256 17.9995 16.9998 17.9995C15.674 17.9995 14.4025 18.5261 13.4648 19.4634C13.2827 19.652 13.1819 19.9046 13.1841 20.1668C13.1864 20.429 13.2916 20.6798 13.477 20.8652C13.6624 21.0506 13.9132 21.1558 14.1754 21.1581C14.4376 21.1604 14.6902 21.0596 14.8788 20.8774C15.4505 20.3325 16.21 20.0285 16.9998 20.0285C17.7896 20.0285 18.5491 20.3325 19.1208 20.8774C19.3083 21.0649 19.5627 21.1702 19.8278 21.1702C20.093 21.1702 20.3473 21.0649 20.5348 20.8774ZM23.3638 18.0494C23.5513 17.8619 23.6566 17.6076 23.6566 17.3424C23.6566 17.0773 23.5513 16.8229 23.3638 16.6354C21.6747 14.95 19.386 14.0035 16.9998 14.0035C14.6137 14.0035 12.3249 14.95 10.6358 16.6354C10.4537 16.824 10.3529 17.0766 10.3551 17.3388C10.3574 17.601 10.4626 17.8518 10.648 18.0372C10.8334 18.2226 11.0842 18.3278 11.3464 18.3301C11.6086 18.3324 11.8612 18.2316 12.0498 18.0494C13.364 16.7392 15.1441 16.0035 16.9998 16.0035C18.8556 16.0035 20.6356 16.7392 21.9498 18.0494C22.1373 18.2369 22.3917 18.3422 22.6568 18.3422C22.922 18.3422 23.1763 18.2369 23.3638 18.0494ZM9.22182 19.4634C8.94319 19.1848 8.72216 18.8541 8.57137 18.4901C8.42057 18.1261 8.34296 17.7359 8.34296 17.3419C8.34296 16.9479 8.42057 16.5578 8.57137 16.1938C8.72216 15.8297 8.94319 15.499 9.22182 15.2204C11.1548 13.2928 13.7349 12.1517 16.4615 12.0185C19.1881 11.8853 21.8671 12.7694 23.9788 14.4994C23.8843 12.8772 23.2947 11.3229 22.2895 10.0462C21.2842 8.76955 19.9116 7.83179 18.3568 7.35942C18.1853 7.30637 18.0296 7.21166 17.9036 7.08375C17.7776 6.95584 17.6853 6.79872 17.6348 6.62642C17.1057 4.92604 16.0243 3.45082 14.562 2.43446C13.0997 1.41809 11.3401 0.91868 9.56193 1.01534C7.78374 1.112 6.08864 1.7992 4.74513 2.96808C3.40163 4.13696 2.48654 5.7207 2.14482 7.46842C1.79326 9.2351 2.07657 11.0692 2.94482 12.6474C1.93326 13.1697 1.11072 13.9957 0.592733 15.0094C0.0747427 16.0232 -0.112671 17.1737 0.0568164 18.2994C0.317638 19.6071 1.01785 20.7863 2.04122 21.6413C3.06458 22.4962 4.34955 22.9754 5.68282 22.9994H12.7828C11.1158 21.3464 9.48682 19.7284 9.22182 19.4634Z" fill="#374957"/>
</g>
<defs>
<clipPath id="clip0_806_6832">
<rect width="24" height="24" fill="white"/>
</clipPath>
</defs>
</svg>
