<svg width="24" height="24" viewBox="0 0 24 24" fill="none" xmlns="http://www.w3.org/2000/svg">
<g clip-path="url(#clip0_806_6742)">
<path d="M21.835 2.16561C21.1488 1.47927 20.3342 0.934826 19.4376 0.563373C18.541 0.191919 17.58 0.000732422 16.6095 0.000732422C15.639 0.000732422 14.678 0.191919 13.7814 0.563373C12.8848 0.934826 12.0701 1.47927 11.384 2.16561L2.16496 11.3846C1.47569 12.0702 0.928456 12.885 0.554609 13.7824C0.180762 14.6798 -0.0123504 15.6421 -0.0136651 16.6142C-0.0149798 17.5864 0.175529 18.5493 0.546948 19.4477C0.918366 20.3461 1.46339 21.1623 2.15081 21.8498C2.83822 22.5372 3.65451 23.0822 4.55291 23.4536C5.45132 23.825 6.41417 24.0155 7.38632 24.0142C8.35847 24.0129 9.32081 23.8198 10.2182 23.446C11.1156 23.0721 11.9304 22.5249 12.616 21.8356L21.835 12.6166C22.5213 11.9305 23.0657 11.1158 23.4372 10.2192C23.8087 9.3226 23.9998 8.36161 23.9998 7.39111C23.9998 6.42061 23.8087 5.45961 23.4372 4.56301C23.0657 3.66641 22.5213 2.85177 21.835 2.16561ZM12.707 16.7076L9.70696 19.7076C9.51836 19.8898 9.26576 19.9906 9.00356 19.9883C8.74136 19.986 8.49055 19.8808 8.30514 19.6954C8.11974 19.51 8.01457 19.2592 8.01229 18.997C8.01001 18.7348 8.1108 18.4822 8.29296 18.2936L9.08596 17.5006L6.49996 14.9146L5.70696 15.7076C5.51836 15.8898 5.26576 15.9906 5.00356 15.9883C4.74136 15.986 4.49055 15.8808 4.30514 15.6954C4.11973 15.51 4.01457 15.2592 4.01229 14.997C4.01001 14.7348 4.1108 14.4822 4.29296 14.2936L7.29296 11.2936C7.48156 11.1115 7.73417 11.0107 7.99636 11.0129C8.25856 11.0152 8.50937 11.1204 8.69478 11.3058C8.88019 11.4912 8.98536 11.742 8.98764 12.0042C8.98991 12.2664 8.88912 12.519 8.70696 12.7076L7.91396 13.5006L10.5 16.0866L11.293 15.2936C11.4816 15.1115 11.7342 15.0107 11.9964 15.0129C12.2586 15.0152 12.5094 15.1204 12.6948 15.3058C12.8802 15.4912 12.9854 15.742 12.9876 16.0042C12.9899 16.2664 12.8891 16.519 12.707 16.7076ZM19.707 9.70761L16.707 12.7076C16.5184 12.8898 16.2658 12.9906 16.0036 12.9883C15.7414 12.986 15.4906 12.8808 15.3051 12.6954C15.1197 12.51 15.0146 12.2592 15.0123 11.997C15.01 11.7348 15.1108 11.4822 15.293 11.2936L16.086 10.5006L13.5 7.91461L12.707 8.70761C12.5184 8.88977 12.2658 8.99056 12.0036 8.98828C11.7414 8.986 11.4906 8.88083 11.3051 8.69543C11.1197 8.51002 11.0146 8.25921 11.0123 7.99701C11.01 7.73481 11.1108 7.48221 11.293 7.29361L14.293 4.29361C14.3852 4.1981 14.4956 4.12192 14.6176 4.06951C14.7396 4.0171 14.8708 3.98951 15.0036 3.98836C15.1363 3.9872 15.268 4.01251 15.3909 4.06279C15.5138 4.11307 15.6255 4.18732 15.7194 4.28121C15.8132 4.37511 15.8875 4.48676 15.9378 4.60965C15.9881 4.73255 16.0134 4.86423 16.0122 4.99701C16.0111 5.12979 15.9835 5.26101 15.9311 5.38301C15.8787 5.50502 15.8025 5.61536 15.707 5.70761L14.914 6.50061L17.5 9.08661L18.293 8.29361C18.4816 8.11145 18.7342 8.01066 18.9964 8.01293C19.2586 8.01521 19.5094 8.12038 19.6948 8.30579C19.8802 8.4912 19.9854 8.74201 19.9876 9.00421C19.9899 9.2664 19.8891 9.51901 19.707 9.70761Z" fill="#374957"/>
</g>
<defs>
<clipPath id="clip0_806_6742">
<rect width="24" height="24" fill="white"/>
</clipPath>
</defs>
</svg>
