<svg width="24" height="24" viewBox="0 0 24 24" fill="none" xmlns="http://www.w3.org/2000/svg">
<g clip-path="url(#clip0_806_6769)">
<path d="M13 19.9994C13 20.2646 12.8946 20.519 12.7071 20.7065C12.5196 20.894 12.2652 20.9994 12 20.9994C11.7348 20.9994 11.4804 20.894 11.2929 20.7065C11.1054 20.519 11 20.2646 11 19.9994V18.9994H2C2.00159 20.325 2.52888 21.5958 3.46622 22.5332C4.40356 23.4705 5.67441 23.9978 7 23.9994H17C18.3256 23.9978 19.5964 23.4705 20.5338 22.5332C21.4711 21.5958 21.9984 20.325 22 18.9994H13V19.9994Z" fill="#374957"/>
<path d="M17 0H7C5.67441 0.00158786 4.40356 0.528882 3.46622 1.46622C2.52888 2.40356 2.00159 3.67441 2 5V17H22V5C21.9984 3.67441 21.4711 2.40356 20.5338 1.46622C19.5964 0.528882 18.3256 0.00158786 17 0V0Z" fill="#374957"/>
</g>
<defs>
<clipPath id="clip0_806_6769">
<rect width="24" height="24" fill="white"/>
</clipPath>
</defs>
</svg>
