<svg width="24" height="24" viewBox="0 0 24 24" fill="none" xmlns="http://www.w3.org/2000/svg">
<g clip-path="url(#clip0_806_6678)">
<path d="M14.997 3.84697C15.0034 4.25314 15.2504 4.61677 15.6256 4.77244C18.9832 6.24978 21.1073 9.61802 20.9935 13.2845C20.9129 18.2521 16.8205 22.2138 11.8528 22.1332C6.88517 22.0527 2.92342 17.9603 3.00405 12.9926C3.00878 9.4319 5.11349 6.20916 8.37187 4.77343C8.74726 4.61682 8.9941 4.25262 9.00052 3.84599C9.00141 3.29403 8.55463 2.84589 8.00267 2.845C7.87407 2.84481 7.7466 2.8694 7.62733 2.91752C2.05674 5.3326 -0.501268 11.8063 1.91386 17.3769C4.32899 22.9475 10.8026 25.5054 16.3732 23.0903C21.9438 20.6753 24.5017 14.2016 22.0867 8.63099C20.9765 6.07031 18.9339 4.02771 16.3732 2.91752C15.8619 2.70942 15.2788 2.95518 15.0707 3.46638C15.0215 3.58725 14.9965 3.7165 14.997 3.84697Z" fill="#374957"/>
<path d="M11.9989 0C12.5509 0 12.9983 0.44744 12.9983 0.999397V6.99587C12.9983 7.54783 12.5509 7.99527 11.9989 7.99527C11.447 7.99527 10.9995 7.54783 10.9995 6.99587V0.999397C10.9995 0.44744 11.447 0 11.9989 0Z" fill="#374957"/>
</g>
<defs>
<clipPath id="clip0_806_6678">
<rect width="24" height="24" fill="white"/>
</clipPath>
</defs>
</svg>
