<svg width="24" height="24" viewBox="0 0 24 24" fill="none" xmlns="http://www.w3.org/2000/svg">
<g clip-path="url(#clip0_806_6596)">
<path d="M15.848 16.0002C15.5573 16.0002 15.2701 16.0635 15.0064 16.1858C14.7427 16.3081 14.5088 16.4864 14.321 16.7082L14.074 17.0002H9.925L9.679 16.7082C9.49111 16.4862 9.25705 16.3079 8.99315 16.1856C8.72925 16.0633 8.44185 16.0001 8.151 16.0002H2.5C1.83696 16.0002 1.20107 16.2636 0.732233 16.7325C0.263392 17.2013 0 17.8372 0 18.5002H0C0 19.1633 0.263392 19.7992 0.732233 20.268C1.20107 20.7368 1.83696 21.0002 2.5 21.0002H21.5C21.8283 21.0002 22.1534 20.9356 22.4567 20.8099C22.76 20.6843 23.0356 20.5002 23.2678 20.268C23.4999 20.0359 23.6841 19.7603 23.8097 19.4569C23.9353 19.1536 24 18.8285 24 18.5002C24 18.1719 23.9353 17.8468 23.8097 17.5435C23.6841 17.2402 23.4999 16.9646 23.2678 16.7325C23.0356 16.5003 22.76 16.3162 22.4567 16.1905C22.1534 16.0649 21.8283 16.0002 21.5 16.0002H15.848Z" fill="#374957"/>
<path d="M3 14H8.151C9.12651 13.9986 10.0688 14.3543 10.8 15H13.2C13.931 14.3553 14.8723 13.9997 15.847 14H21C21.3362 14.0023 21.6713 14.0392 22 14.11V8C21.9984 6.67441 21.4711 5.40356 20.5338 4.46622C19.5964 3.52888 18.3256 3.00159 17 3H7C5.67441 3.00159 4.40356 3.52888 3.46622 4.46622C2.52888 5.40356 2.00159 6.67441 2 8V14.11C2.32869 14.0392 2.66378 14.0023 3 14Z" fill="#374957"/>
</g>
<defs>
<clipPath id="clip0_806_6596">
<rect width="24" height="24" fill="white"/>
</clipPath>
</defs>
</svg>
