<svg width="24" height="24" viewBox="0 0 24 24" fill="none" xmlns="http://www.w3.org/2000/svg">
<g clip-path="url(#clip0_806_6648)">
<path d="M23 19.9996H14.816C14.6666 19.5814 14.4262 19.2015 14.1122 18.8875C13.7981 18.5734 13.4182 18.333 13 18.1836V14.0196C14.344 14.0196 15.52 14.0076 16.1 13.9966C16.4586 13.9896 16.8154 13.9457 17.165 13.8656C18.0657 13.6559 18.8897 13.1982 19.5436 12.5442C20.1975 11.8903 20.6553 11.0663 20.865 10.1656C21.1673 8.89901 20.9648 7.56445 20.3003 6.44454C19.6358 5.32463 18.5616 4.50731 17.305 4.16563L17.129 4.12263C16.829 4.05563 16.677 4.02263 16.541 3.69463C16.0573 2.52754 15.2176 1.54289 14.1415 0.881024C13.0654 0.219158 11.8079 -0.0861532 10.5481 0.00860519C9.2883 0.103364 8.09057 0.593355 7.12559 1.40875C6.16062 2.22414 5.47764 3.32332 5.174 4.54963C4.95775 5.44584 4.93864 6.37832 5.118 7.28263C4.45228 7.56898 3.89186 8.05492 3.51409 8.67336C3.13633 9.2918 2.95985 10.0123 3.00902 10.7353C3.05819 11.4583 3.33058 12.1482 3.78859 12.7098C4.2466 13.2715 4.86764 13.677 5.566 13.8706C5.83814 13.9454 6.11798 13.9887 6.4 13.9996C7.053 14.0176 8.949 14.0256 10.921 14.0256H11V18.1866C10.5821 18.3357 10.2024 18.5757 9.88837 18.8892C9.57434 19.2027 9.33378 19.5819 9.184 19.9996H1C0.734784 19.9996 0.48043 20.105 0.292893 20.2925C0.105357 20.4801 0 20.7344 0 20.9996C0 21.2649 0.105357 21.5192 0.292893 21.7067C0.48043 21.8943 0.734784 21.9996 1 21.9996H9.184C9.38765 22.5842 9.76816 23.0909 10.2727 23.4494C10.7773 23.8079 11.381 24.0006 12 24.0006C12.619 24.0006 13.2227 23.8079 13.7273 23.4494C14.2318 23.0909 14.6124 22.5842 14.816 21.9996H23C23.2652 21.9996 23.5196 21.8943 23.7071 21.7067C23.8946 21.5192 24 21.2649 24 20.9996C24 20.7344 23.8946 20.4801 23.7071 20.2925C23.5196 20.105 23.2652 19.9996 23 19.9996Z" fill="#374957"/>
</g>
<defs>
<clipPath id="clip0_806_6648">
<rect width="24" height="24" fill="white"/>
</clipPath>
</defs>
</svg>
