<svg width="24" height="24" viewBox="0 0 24 24" fill="none" xmlns="http://www.w3.org/2000/svg">
<g clip-path="url(#clip0_806_6731)">
<path d="M18 12C16.9464 12.0012 15.9111 11.7247 14.9984 11.1982C14.0858 10.6717 13.328 9.91396 12.8016 9.00128C12.2752 8.08859 11.9987 7.05326 12 5.99965C12.0013 4.94604 12.2803 3.91139 12.809 3H4.242L4.2 2.648C4.11382 1.9186 3.76306 1.24615 3.21419 0.758104C2.66532 0.270054 1.95647 0.000312836 1.222 0L1 0C0.734784 0 0.48043 0.105357 0.292893 0.292893C0.105357 0.48043 0 0.734784 0 1C0 1.26522 0.105357 1.51957 0.292893 1.70711C0.48043 1.89464 0.734784 2 1 2H1.222C1.46693 2.00003 1.70334 2.08996 1.88637 2.25272C2.06941 2.41547 2.18634 2.63975 2.215 2.883L3.591 14.583C3.73385 15.7998 4.31848 16.9218 5.23391 17.736C6.14934 18.5502 7.33185 19 8.557 19H19C19.2652 19 19.5196 18.8946 19.7071 18.7071C19.8946 18.5196 20 18.2652 20 18C20 17.7348 19.8946 17.4804 19.7071 17.2929C19.5196 17.1054 19.2652 17 19 17H8.557C7.93788 16.9985 7.33441 16.8054 6.82934 16.4473C6.32428 16.0893 5.94237 15.5837 5.736 15H17.657C18.8293 15.0001 19.9643 14.5882 20.8638 13.8364C21.7633 13.0846 22.37 12.0407 22.578 10.887L22.816 9.568C22.2597 10.3222 21.5341 10.9351 20.6976 11.3576C19.8611 11.78 18.9371 12 18 12Z" fill="#374957"/>
<path d="M7 24.0007C8.10456 24.0007 8.99999 23.1053 8.99999 22.0007C8.99999 20.8962 8.10456 20.0007 7 20.0007C5.89543 20.0007 5 20.8962 5 22.0007C5 23.1053 5.89543 24.0007 7 24.0007Z" fill="#374957"/>
<path d="M17 24.0007C18.1046 24.0007 19 23.1053 19 22.0007C19 20.8962 18.1046 20.0007 17 20.0007C15.8954 20.0007 15 20.8962 15 22.0007C15 23.1053 15.8954 24.0007 17 24.0007Z" fill="#374957"/>
<path d="M15 7.00073H17V9.00073C17 9.26595 17.1054 9.5203 17.2929 9.70784C17.4804 9.89538 17.7348 10.0007 18 10.0007C18.2652 10.0007 18.5196 9.89538 18.7071 9.70784C18.8946 9.5203 19 9.26595 19 9.00073V7.00073H21C21.2652 7.00073 21.5196 6.89538 21.7071 6.70784C21.8946 6.5203 22 6.26595 22 6.00073C22 5.73552 21.8946 5.48116 21.7071 5.29363C21.5196 5.10609 21.2652 5.00073 21 5.00073H19V3.00073C19 2.73552 18.8946 2.48116 18.7071 2.29363C18.5196 2.10609 18.2652 2.00073 18 2.00073C17.7348 2.00073 17.4804 2.10609 17.2929 2.29363C17.1054 2.48116 17 2.73552 17 3.00073V5.00073H15C14.7348 5.00073 14.4804 5.10609 14.2929 5.29363C14.1054 5.48116 14 5.73552 14 6.00073C14 6.26595 14.1054 6.5203 14.2929 6.70784C14.4804 6.89538 14.7348 7.00073 15 7.00073Z" fill="#374957"/>
</g>
<defs>
<clipPath id="clip0_806_6731">
<rect width="24" height="24" fill="white"/>
</clipPath>
</defs>
</svg>
