<svg width="24" height="24" viewBox="0 0 24 24" fill="none" xmlns="http://www.w3.org/2000/svg">
<g clip-path="url(#clip0_806_6668)">
<path d="M16.4236 21.9743C15.8439 22.7647 15.0422 23.3648 14.1206 23.6985C13.199 24.0322 12.1989 24.0843 11.2476 23.8483C8.59469 23.1202 6.17683 21.7145 4.23159 19.7693C2.28635 17.8241 0.88064 15.4062 0.152583 12.7533C-0.0827611 11.803 -0.0302544 10.8042 0.30343 9.88379C0.637114 8.96339 1.23691 8.16299 2.02658 7.5843C2.03688 11.3988 3.55724 15.054 6.25517 17.7507C8.9531 20.4473 12.6091 21.9659 16.4236 21.9743ZM23.8316 3.6743L17.3996 20.0003H16.9996C15.2764 20.0597 13.5594 19.7641 11.9552 19.1319C10.3511 18.4996 8.89417 17.5442 7.67495 16.3249C6.45573 15.1057 5.5003 13.6488 4.86802 12.0447C4.23575 10.4405 3.94014 8.72351 3.99958 7.0003V6.6003L20.2996 0.178303C20.7888 0.000630632 21.3184 -0.0344994 21.8268 0.076998C22.3353 0.188496 22.8016 0.442039 23.1715 0.80814C23.5415 1.17424 23.8 1.63785 23.9168 2.14506C24.0336 2.65227 24.0041 3.18223 23.8316 3.6733V3.6743ZM11.9996 10.0003C11.9996 9.46987 11.7889 8.96116 11.4138 8.58609C11.0387 8.21102 10.53 8.0003 9.99958 8.0003C9.46915 8.0003 8.96044 8.21102 8.58537 8.58609C8.2103 8.96116 7.99958 9.46987 7.99958 10.0003C7.99958 10.5307 8.2103 11.0394 8.58537 11.4145C8.96044 11.7896 9.46915 12.0003 9.99958 12.0003C10.53 12.0003 11.0387 11.7896 11.4138 11.4145C11.7889 11.0394 11.9996 10.5307 11.9996 10.0003ZM18.1216 12.7163L20.6756 6.2303C16.4156 4.7383 14.0576 10.9063 18.1216 12.7163Z" fill="#374957"/>
</g>
<defs>
<clipPath id="clip0_806_6668">
<rect width="24" height="24" fill="white"/>
</clipPath>
</defs>
</svg>
