<svg width="24" height="24" viewBox="0 0 24 24" fill="none" xmlns="http://www.w3.org/2000/svg">
<g clip-path="url(#clip0_806_6709)">
<path d="M24 15.0001C24 20.0771 17 24.0001 15 24.0001H9C7 24.0001 0 20.0771 0 15.0001C0.00842079 14.2022 0.331028 13.4398 0.897865 12.8782C1.4647 12.3166 2.23007 12.0011 3.028 12.0001H20.972C21.7698 12.0016 22.5348 12.3173 23.1016 12.8788C23.6683 13.4403 23.9911 14.2024 24 15.0001ZM19.714 3.02012C19.366 3.06812 18.987 3.13612 18.599 3.21312C18.894 2.33712 19.599 0.11312 17.999 0.000119878C17.7338 0.000119878 17.4794 0.105477 17.2919 0.293013C17.1044 0.48055 16.999 0.734904 16.999 1.00012C17.0107 1.57026 16.8997 2.13624 16.6735 2.65972C16.4473 3.1832 16.1112 3.65192 15.688 4.03412C14.8119 4.3239 14.002 4.78444 13.305 5.38912C12.7134 5.98074 12.3001 6.72689 12.1125 7.54229C11.9248 8.35768 11.9704 9.20941 12.244 10.0001H13.586L16.293 7.29312C16.4816 7.11096 16.7342 7.01017 16.9964 7.01245C17.2586 7.01472 17.5094 7.11989 17.6948 7.3053C17.8802 7.49071 17.9854 7.74152 17.9877 8.00372C17.99 8.26592 17.8892 8.51852 17.707 8.70712L16.414 10.0001H20.665C21.2857 8.48571 21.7273 6.904 21.981 5.28712C22.0243 4.9793 21.9955 4.66563 21.8969 4.37084C21.7983 4.07605 21.6325 3.80819 21.4127 3.58839C21.1929 3.36859 20.9251 3.20284 20.6303 3.10423C20.3355 3.00561 20.0218 2.97682 19.714 3.02012ZM10 10.0001C9.866 4.72312 2.133 4.72712 2 10.0001H10ZM10.5 6.06812C10.8704 5.19236 11.4239 4.40598 12.1233 3.76178C12.8227 3.11757 13.6518 2.63045 14.555 2.33312C14.8111 2.01908 14.9622 1.63259 14.987 1.22812C14.5433 0.765239 13.9952 0.41531 13.3885 0.207587C12.7819 -0.0001356 12.1343 -0.0596155 11.5 0.0341199C10.7737 0.0924209 10.0794 0.358316 9.5 0.80012C8.84525 0.30745 8.05313 0.0312905 7.234 0.0101199C6.19391 -0.090377 5.15632 0.224925 4.348 0.88712C3.81074 1.35847 3.41105 1.96643 3.19133 2.64653C2.97161 3.32664 2.94005 4.05353 3.1 4.75012C4.29911 4.09406 5.68629 3.86709 7.03196 4.10676C8.37763 4.34644 9.60114 5.0384 10.5 6.06812Z" fill="#374957"/>
</g>
<defs>
<clipPath id="clip0_806_6709">
<rect width="24" height="24" fill="white"/>
</clipPath>
</defs>
</svg>
