<svg width="24" height="24" viewBox="0 0 24 24" fill="none" xmlns="http://www.w3.org/2000/svg">
<g clip-path="url(#clip0_806_6621)">
<path d="M6.99991 23.8937C6.82198 23.8635 6.64601 23.8228 6.47291 23.7717L3.60391 22.8717C2.56642 22.5669 1.6553 21.9349 1.0065 21.0698C0.357698 20.2047 0.00600785 19.1531 0.00390625 18.0717V5.99973C0.00494608 5.17778 0.208608 4.36875 0.596865 3.64428C0.985122 2.9198 1.546 2.30221 2.22985 1.84618C2.91369 1.39015 3.69942 1.10974 4.51748 1.02978C5.33554 0.949813 6.16069 1.07276 6.91991 1.38773L6.99991 1.42473V23.8937ZM20.6799 1.16673L20.6589 1.15973L17.9439 0.259734C17.6367 0.160115 17.3206 0.0907845 16.9999 0.0527344V22.3147L19.0539 22.9067C19.6425 23.05 20.2558 23.0577 20.8478 22.9293C21.4398 22.8009 21.9948 22.5397 22.4711 22.1655C22.9474 21.7913 23.3325 21.3138 23.5974 20.769C23.8622 20.2243 23.9998 19.6265 23.9999 19.0207V5.87573C23.9984 4.84457 23.6787 3.83899 23.0846 2.99623C22.4904 2.15347 21.6506 1.51457 20.6799 1.16673ZM14.9999 0.189734C14.9999 0.189734 9.15691 1.86273 8.99991 1.87973V23.8797C9.09991 23.8587 14.9999 22.2437 14.9999 22.2437V0.189734Z" fill="#374957"/>
</g>
<defs>
<clipPath id="clip0_806_6621">
<rect width="24" height="24" fill="white"/>
</clipPath>
</defs>
</svg>
