<svg width="24" height="24" viewBox="0 0 24 24" fill="none" xmlns="http://www.w3.org/2000/svg">
<g clip-path="url(#clip0_806_6569)">
<path d="M12.9999 10.9997C12.9999 11.3952 12.8826 11.7819 12.6629 12.1108C12.4431 12.4397 12.1308 12.696 11.7653 12.8474C11.3999 12.9988 10.9977 13.0384 10.6098 12.9612C10.2218 12.8841 9.86544 12.6936 9.58573 12.4139C9.30603 12.1342 9.11555 11.7778 9.03838 11.3898C8.96121 11.0019 9.00081 10.5997 9.15219 10.2343C9.30356 9.86883 9.55991 9.55648 9.88881 9.33671C10.2177 9.11695 10.6044 8.99965 10.9999 8.99965C11.5304 8.99965 12.0391 9.21037 12.4142 9.58544C12.7892 9.96051 12.9999 10.4692 12.9999 10.9997ZM23.9999 12.9997C24.0055 13.2638 23.9576 13.5264 23.8591 13.7716C23.7606 14.0168 23.6134 14.2395 23.4266 14.4263C23.2398 14.6132 23.0171 14.7603 22.7719 14.8588C22.5267 14.9573 22.2641 15.0052 21.9999 14.9997H21.6699L21.4509 16.6547C21.2893 17.8556 20.6981 18.9574 19.7868 19.7562C18.8755 20.555 17.7058 20.9967 16.4939 20.9997H15.9999C15.9999 21.7953 15.6839 22.5584 15.1213 23.121C14.5587 23.6836 13.7956 23.9997 12.9999 23.9997H5.99995C5.2043 23.9997 4.44124 23.6836 3.87863 23.121C3.31602 22.5584 2.99995 21.7953 2.99995 20.9997V20.0287C3.01579 19.1841 2.75602 18.3574 2.25995 17.6737C1.37448 16.5232 0.725674 15.2087 0.350973 13.8061C-0.0237278 12.4035 -0.116897 10.9406 0.0768436 9.50181C0.270584 8.06302 0.747397 6.67685 1.47976 5.42333C2.21212 4.16982 3.18551 3.07378 4.34376 2.19849C5.502 1.3232 6.82215 0.686007 8.22799 0.323686C9.63382 -0.0386345 11.0975 -0.118903 12.5345 0.0875149C13.9716 0.293933 15.3535 0.782948 16.6005 1.52633C17.8475 2.26971 18.9349 3.25274 19.7999 4.41865C21.0679 5.98465 23.9999 11.5797 23.9999 12.9997ZM14.8409 9.94665L15.8339 9.37565C16.0639 9.24304 16.2317 9.02452 16.3006 8.76816C16.3694 8.5118 16.3336 8.23859 16.2009 8.00865C16.0683 7.77871 15.8498 7.61086 15.5935 7.54204C15.3371 7.47321 15.0639 7.50904 14.8339 7.64165L13.8519 8.20565C13.3427 7.68943 12.7024 7.32162 11.9999 7.14165V5.99965C11.9999 5.73444 11.8946 5.48008 11.7071 5.29255C11.5195 5.10501 11.2652 4.99965 10.9999 4.99965C10.7347 4.99965 10.4804 5.10501 10.2928 5.29255C10.1053 5.48008 9.99995 5.73444 9.99995 5.99965V7.14165C9.2964 7.32111 8.65507 7.68897 8.14495 8.20565L7.16295 7.64165C7.04909 7.57599 6.92342 7.5334 6.7931 7.51631C6.66278 7.49921 6.53038 7.50796 6.40344 7.54204C6.2765 7.57612 6.15752 7.63486 6.05329 7.71493C5.94905 7.79499 5.86161 7.8948 5.79595 8.00865C5.73029 8.12251 5.68769 8.24818 5.6706 8.3785C5.65351 8.50882 5.66225 8.64122 5.69633 8.76816C5.73041 8.8951 5.78916 9.01408 5.86922 9.11831C5.94928 9.22255 6.04909 9.30999 6.16295 9.37565L7.15595 9.94665C7.05653 10.289 7.00405 10.6432 6.99995 10.9997C7.00502 11.3562 7.05851 11.7105 7.15895 12.0527L6.16595 12.6237C5.936 12.7563 5.76816 12.9748 5.69933 13.2311C5.63051 13.4875 5.66634 13.7607 5.79895 13.9907C5.93156 14.2206 6.15008 14.3884 6.40644 14.4573C6.6628 14.5261 6.936 14.4903 7.16595 14.3577L8.14795 13.7937C8.65724 14.3099 9.29747 14.6777 9.99995 14.8577V15.9997C9.99995 16.2649 10.1053 16.5192 10.2928 16.7068C10.4804 16.8943 10.7347 16.9997 10.9999 16.9997C11.2652 16.9997 11.5195 16.8943 11.7071 16.7068C11.8946 16.5192 11.9999 16.2649 11.9999 15.9997V14.8577C12.7035 14.6782 13.3448 14.3103 13.8549 13.7937L14.8369 14.3577C14.9508 14.4233 15.0765 14.4659 15.2068 14.483C15.3371 14.5001 15.4695 14.4913 15.5965 14.4573C15.7234 14.4232 15.8424 14.3644 15.9466 14.2844C16.0508 14.2043 16.1383 14.1045 16.2039 13.9907C16.2696 13.8768 16.3122 13.7511 16.3293 13.6208C16.3464 13.4905 16.3376 13.3581 16.3036 13.2311C16.2695 13.1042 16.2107 12.9852 16.1307 12.881C16.0506 12.7768 15.9508 12.6893 15.8369 12.6237L14.8439 12.0527C14.9434 11.7103 14.9958 11.3561 14.9999 10.9997C14.9949 10.6431 14.9414 10.2888 14.8409 9.94665Z" fill="#374957"/>
</g>
<defs>
<clipPath id="clip0_806_6569">
<rect width="24" height="24" fill="white"/>
</clipPath>
</defs>
</svg>
