<svg width="24" height="24" viewBox="0 0 24 24" fill="none" xmlns="http://www.w3.org/2000/svg">
<g clip-path="url(#clip0_806_6558)">
<path d="M12 9.9995C11.315 9.9995 10.651 10.0395 10 10.0995V16.9995C10 17.2647 9.89464 17.5191 9.70711 17.7066C9.51957 17.8941 9.26522 17.9995 9 17.9995C8.73478 17.9995 8.48043 17.8941 8.29289 17.7066C8.10536 17.5191 8 17.2647 8 16.9995L7.978 8.1145L12.987 6.0385C13.2921 5.88347 13.5523 5.65273 13.7428 5.36838C13.9332 5.08402 14.0475 4.75555 14.0747 4.4144C14.1019 4.07324 14.041 3.73082 13.8981 3.41988C13.7551 3.10895 13.5347 2.83991 13.258 2.6385C13.226 2.6095 8.9 0.211502 8.9 0.211502C8.59494 0.0577793 8.25558 -0.0152431 7.91429 -0.000603776C7.573 0.0140356 7.24114 0.115849 6.95036 0.29513C6.65958 0.474411 6.41957 0.725183 6.2532 1.02354C6.08684 1.3219 5.99967 1.6579 6 1.9995V10.9215C2.392 12.1145 0 14.3605 0 16.9995C0 20.9245 5.271 23.9995 12 23.9995C18.729 23.9995 24 20.9245 24 16.9995C24 13.0745 18.729 9.9995 12 9.9995ZM16 18.9995C15.6044 18.9995 15.2178 18.8822 14.8889 18.6624C14.56 18.4427 14.3036 18.1303 14.1522 17.7649C14.0009 17.3994 13.9613 16.9973 14.0384 16.6093C14.1156 16.2214 14.3061 15.865 14.5858 15.5853C14.8655 15.3056 15.2219 15.1151 15.6098 15.0379C15.9978 14.9608 16.3999 15.0004 16.7654 15.1517C17.1308 15.3031 17.4432 15.5595 17.6629 15.8884C17.8827 16.2173 18 16.6039 18 16.9995C18 17.5299 17.7893 18.0386 17.4142 18.4137C17.0391 18.7888 16.5304 18.9995 16 18.9995Z" fill="#374957"/>
</g>
<defs>
<clipPath id="clip0_806_6558">
<rect width="24" height="24" fill="white"/>
</clipPath>
</defs>
</svg>
