<svg width="24" height="24" viewBox="0 0 24 24" fill="none" xmlns="http://www.w3.org/2000/svg">
<g clip-path="url(#clip0_806_6499)">
<path d="M11.9941 10H2.36208L2.05608 7.556C1.97821 7.12337 1.99569 6.67897 2.10731 6.2538C2.21892 5.82863 2.42197 5.43293 2.70229 5.09434C2.98262 4.75574 3.33345 4.4824 3.73032 4.29339C4.12719 4.10438 4.56052 4.00425 5.00008 4H12.6601L11.9941 10ZM12.9941 19.11C12.9796 19.2405 12.9396 19.3669 12.8763 19.482C12.813 19.5971 12.7277 19.6986 12.6252 19.7806C12.5226 19.8627 12.405 19.9238 12.2788 19.9604C12.1527 19.997 12.0206 20.0084 11.8901 19.994C11.7595 19.9796 11.6331 19.9395 11.5181 19.8762C11.403 19.8129 11.3015 19.7276 11.2194 19.6251C11.1373 19.5226 11.0763 19.4049 11.0396 19.2788C11.003 19.1526 10.9916 19.0205 11.0061 18.89L11.7721 12H2.61308L3.56808 19.622C3.72128 20.8302 4.30948 21.9411 5.22262 22.747C6.13575 23.5528 7.31123 23.9982 8.52908 24H15.4701C16.6881 23.998 17.8637 23.5524 18.777 22.7464C19.6903 21.9404 20.2787 20.8294 20.4321 19.621L21.3841 12H13.7841L12.9941 19.11ZM21.6341 10L21.9271 7.653C22.0249 7.21443 22.0229 6.75949 21.9213 6.32179C21.8198 5.88408 21.6211 5.47478 21.3402 5.12412C21.0592 4.77346 20.7031 4.49039 20.298 4.29582C19.893 4.10126 19.4494 4.00016 19.0001 4H14.6731L14.0071 10H21.6341ZM14.8001 2.89C14.8271 2.646 14.9429 2.42045 15.1255 2.25632C15.308 2.0922 15.5446 2.00097 15.7901 2H20.0001C20.2653 2 20.5196 1.89464 20.7072 1.70711C20.8947 1.51957 21.0001 1.26522 21.0001 1C21.0001 0.734784 20.8947 0.48043 20.7072 0.292893C20.5196 0.105357 20.2653 0 20.0001 0L15.7901 0C15.0519 0.000168296 14.3396 0.272519 13.7896 0.764943C13.2396 1.25737 12.8905 1.93529 12.8091 2.669L12.6611 4H14.6731L14.8001 2.89Z" fill="#374957"/>
</g>
<defs>
<clipPath id="clip0_806_6499">
<rect width="24" height="24" fill="white"/>
</clipPath>
</defs>
</svg>
