<svg width="24" height="24" viewBox="0 0 24 24" fill="none" xmlns="http://www.w3.org/2000/svg">
<g clip-path="url(#clip0_806_6432)">
<path d="M11.9671 9.73063C13.9782 8.21169 16.5792 7.70928 19.0113 8.36994C19.0283 8.17086 19.0472 7.98177 19.0472 7.78367C19.0476 3.86244 15.8692 0.68333 11.948 0.682861C8.02679 0.682393 4.84768 3.8608 4.84717 7.78199V7.78367C4.84717 7.98275 4.86611 8.18183 4.88401 8.38091C7.32667 7.70905 9.94276 8.20752 11.9671 9.73063Z" fill="#374957"/>
<path d="M11.2188 13.8356C11.7148 13.895 12.2163 13.893 12.7118 13.8296C12.517 13.3648 12.2659 12.9255 11.9643 12.5217C11.6632 12.9277 11.4128 13.3689 11.2188 13.8356Z" fill="#374957"/>
<path d="M21.0449 10.4725C20.655 10.1917 20.2376 9.95109 19.7991 9.75464C19.1751 12.2011 17.4503 14.219 15.1308 15.2162C15.1728 15.5394 15.1947 15.8648 15.1965 16.1907C15.2009 18.37 14.3204 20.4577 12.7568 21.9758C15.9334 24.2645 20.3638 23.5447 22.6525 20.3682C24.9412 17.1917 24.2215 12.7612 21.0449 10.4725Z" fill="#374957"/>
<path d="M8.74024 16.1905C8.7415 15.871 8.76245 15.5519 8.80295 15.2349C6.47186 14.2531 4.73172 12.2407 4.09684 9.79224C0.54447 11.4409 -0.998749 15.6571 0.649938 19.2095C2.29858 22.7618 6.51484 24.305 10.0672 22.6564C10.4646 22.4719 10.8441 22.251 11.2008 21.9965C9.62425 20.4769 8.73564 18.3802 8.74024 16.1905Z" fill="#374957"/>
<path d="M13.1906 15.7827C12.3807 15.9084 11.5565 15.9108 10.7459 15.7897C10.736 15.9241 10.731 16.0584 10.731 16.1879C10.7277 17.518 11.1625 18.8123 11.9682 19.8707C12.7741 18.8124 13.2089 17.5181 13.2055 16.1879C13.2055 16.0565 13.2005 15.9191 13.1906 15.7827Z" fill="#374957"/>
<path d="M9.28471 13.2802C9.58321 12.503 9.99988 11.7764 10.52 11.1262C9.28072 10.2801 7.77383 9.91877 6.28564 10.111C6.86371 11.4988 7.93082 12.6265 9.28471 13.2802Z" fill="#374957"/>
<path d="M13.4155 11.1262C13.9322 11.7713 14.3465 12.4921 14.6438 13.2633C15.9785 12.6045 17.0291 11.4841 17.601 10.11C16.1287 9.92751 14.6403 10.2889 13.4155 11.1262Z" fill="#374957"/>
</g>
<defs>
<clipPath id="clip0_806_6432">
<rect width="24" height="24" fill="white"/>
</clipPath>
</defs>
</svg>
