<svg width="24" height="24" viewBox="0 0 24 24" fill="none" xmlns="http://www.w3.org/2000/svg">
<g clip-path="url(#clip0_806_6669)">
<path d="M24 13.5003C24 13.8286 23.9353 14.1537 23.8097 14.457C23.6841 14.7603 23.4999 15.0359 23.2678 15.268C23.0356 15.5002 22.76 15.6843 22.4567 15.81C22.1534 15.9356 21.8283 16.0003 21.5 16.0003H17.464L13.238 22.4873C12.9779 22.9486 12.5993 23.3322 12.1413 23.5981C11.6833 23.8641 11.1626 24.003 10.633 24.0003C10.2081 24.0004 9.78943 23.8975 9.41295 23.7004C9.03648 23.5033 8.7134 23.2179 8.47137 22.8686C8.22934 22.5194 8.07558 22.1166 8.02327 21.6949C7.97096 21.2732 8.02165 20.8451 8.171 20.4473L10.019 16.0003H6C5.29487 16.0003 4.60226 15.814 3.99236 15.4601C3.38245 15.1063 2.87692 14.5975 2.527 13.9853L0.200002 10.1603C0.100572 9.99516 0.035227 9.8118 0.00782364 9.62102C-0.0195797 9.43024 -0.00848607 9.23591 0.0404498 9.04948C0.0893857 8.86306 0.175172 8.68833 0.292745 8.53561C0.410319 8.38288 0.557296 8.25526 0.725002 8.16027C0.991132 8.02074 1.29484 7.96974 1.59195 8.0147C1.88906 8.05967 2.16407 8.19824 2.377 8.41027L3.794 9.82827C4.54397 10.5785 5.56122 11 6.622 11.0003H21.5C21.8283 11.0003 22.1534 11.0649 22.4567 11.1906C22.76 11.3162 23.0356 11.5004 23.2678 11.7325C23.4999 11.9647 23.6841 12.2403 23.8097 12.5436C23.9353 12.8469 24 13.172 24 13.5003ZM17.731 9.00027L13.231 1.51327C12.9712 1.05228 12.5931 0.669 12.1357 0.403019C11.6783 0.137037 11.1581 -0.00199961 10.629 0.000271525C10.2041 0.000387213 9.78564 0.103429 9.40929 0.300579C9.03295 0.49773 8.70997 0.78312 8.46799 1.13233C8.22601 1.48154 8.07223 1.88418 8.01981 2.30579C7.96739 2.7274 8.0179 3.15544 8.167 3.55327L10.285 9.00027H17.731Z" fill="#374957"/>
</g>
<defs>
<clipPath id="clip0_806_6669">
<rect width="24" height="24" fill="white"/>
</clipPath>
</defs>
</svg>
