<svg width="24" height="24" viewBox="0 0 24 24" fill="none" xmlns="http://www.w3.org/2000/svg">
<g clip-path="url(#clip0_806_6438)">
<path d="M24.0001 11.5071C23.9981 10.9982 23.9309 10.4918 23.8001 10.0001H2.67307C2.29845 9.99957 1.9314 10.1055 1.61467 10.3056C1.29794 10.5056 1.04457 10.7916 0.88407 11.1301C-0.64693 14.8391 -0.53093 23.9201 4.83307 24.0001H7.76307C8.0741 23.9989 8.37706 23.901 8.63003 23.7201C8.883 23.5391 9.07347 23.284 9.17507 22.9901C9.38941 22.4137 9.77494 21.9166 10.2799 21.5657C10.7849 21.2147 11.3851 21.0266 12.0001 21.0266C12.615 21.0266 13.2153 21.2147 13.7202 21.5657C14.2252 21.9166 14.6107 22.4137 14.8251 22.9901C14.9267 23.284 15.1171 23.5391 15.3701 23.7201C15.6231 23.901 15.926 23.9989 16.2371 24.0001H18.8001C19.4716 24.0203 20.1405 23.9063 20.7674 23.6647C21.3944 23.4231 21.9668 23.0588 22.4511 22.5931C22.9354 22.1274 23.3219 21.5698 23.5879 20.9528C23.8538 20.3358 23.994 19.6719 24.0001 19.0001V11.5071ZM7.00007 17.0001C6.46964 17.0001 5.96093 16.7894 5.58586 16.4143C5.21078 16.0392 5.00007 15.5305 5.00007 15.0001C5.00007 14.4696 5.21078 13.9609 5.58586 13.5859C5.96093 13.2108 6.46964 13.0001 7.00007 13.0001C7.5305 13.0001 8.03921 13.2108 8.41428 13.5859C8.78936 13.9609 9.00007 14.4696 9.00007 15.0001C9.00007 15.5305 8.78936 16.0392 8.41428 16.4143C8.03921 16.7894 7.5305 17.0001 7.00007 17.0001ZM18.0001 19.0001C17.4696 19.0001 16.9609 18.7894 16.5859 18.4143C16.2108 18.0392 16.0001 17.5305 16.0001 17.0001C16.0001 16.4696 16.2108 15.9609 16.5859 15.5859C16.9609 15.2108 17.4696 15.0001 18.0001 15.0001C18.5305 15.0001 19.0392 15.2108 19.4143 15.5859C19.7894 15.9609 20.0001 16.4696 20.0001 17.0001C20.0001 17.5305 19.7894 18.0392 19.4143 18.4143C19.0392 18.7894 18.5305 19.0001 18.0001 19.0001ZM22.8531 8.00007H2.67307C2.49574 8.00139 2.31869 8.01442 2.14307 8.03907C3.53831 5.25651 5.55746 2.83386 8.04307 0.960066C8.86713 0.355806 9.85768 0.0207577 10.8793 0.00071102C11.901 -0.0193357 12.9039 0.276598 13.7511 0.848066L17.9511 3.98007L21.5891 6.70007C22.0742 7.06649 22.5004 7.50488 22.8531 8.00007Z" fill="#374957"/>
</g>
<defs>
<clipPath id="clip0_806_6438">
<rect width="24" height="24" fill="white"/>
</clipPath>
</defs>
</svg>
