<svg width="24" height="24" viewBox="0 0 24 24" fill="none" xmlns="http://www.w3.org/2000/svg">
<g clip-path="url(#clip0_806_6653)">
<path d="M2.7481 23.9998C2.35346 23.9987 1.96366 23.9129 1.60508 23.7481C1.24649 23.5833 0.927498 23.3434 0.669682 23.0446C0.411866 22.7459 0.221248 22.3952 0.110729 22.0163C0.000211105 21.6375 -0.0276272 21.2393 0.0290987 20.8488C0.288099 19.0428 1.1621 15.7148 2.4021 14.4748C3.34693 13.5302 4.6283 12.9997 5.96431 12.9999C7.30031 13 8.58153 13.531 9.5261 14.4758C10.4707 15.4206 11.0012 16.702 11.001 18.038C11.0008 19.374 10.4699 20.6552 9.5251 21.5998C8.2861 22.8388 4.9581 23.7128 3.1511 23.9718C3.01764 23.991 2.88294 24.0004 2.7481 23.9998ZM23.1001 0.899787C22.5164 0.343809 21.7412 0.0336914 20.9351 0.0336914C20.129 0.0336914 19.3538 0.343809 18.7701 0.899787L8.2701 11.3998C9.27447 11.7455 10.1866 12.316 10.937 13.0678C11.6874 13.8196 12.2563 14.7328 12.6001 15.7378L23.1001 5.22979C23.6728 4.65479 23.9943 3.87632 23.9943 3.06479C23.9943 2.25326 23.6728 1.47479 23.1001 0.899787Z" fill="#374957"/>
</g>
<defs>
<clipPath id="clip0_806_6653">
<rect width="24" height="24" fill="white"/>
</clipPath>
</defs>
</svg>
