<svg width="24" height="24" viewBox="0 0 24 24" fill="none" xmlns="http://www.w3.org/2000/svg">
<g clip-path="url(#clip0_806_6722)">
<path d="M18.581 2.14073L12.316 0.0517291C12.1109 -0.016592 11.8891 -0.016592 11.684 0.0517291L5.418 2.14073C4.42209 2.47178 3.55582 3.10823 2.94224 3.95967C2.32866 4.81111 1.99897 5.83424 2 6.88373V12.0007C2 19.5637 11.2 23.7407 11.594 23.9147C11.7218 23.9715 11.8601 24.0009 12 24.0009C12.1399 24.0009 12.2782 23.9715 12.406 23.9147C12.8 23.7407 22 19.5637 22 12.0007V6.88373C22.001 5.83412 21.6711 4.81089 21.0574 3.95944C20.4436 3.10799 19.5771 2.47161 18.581 2.14073ZM12 19.0007C11.8022 19.0007 11.6089 18.9421 11.4444 18.8322C11.28 18.7223 11.1518 18.5661 11.0761 18.3834C11.0004 18.2007 10.9806 17.9996 11.0192 17.8056C11.0578 17.6117 11.153 17.4335 11.2929 17.2936C11.4327 17.1538 11.6109 17.0585 11.8049 17.0199C11.9989 16.9814 12.2 17.0012 12.3827 17.0769C12.5654 17.1525 12.7216 17.2807 12.8315 17.4452C12.9414 17.6096 13 17.8029 13 18.0007C13 18.2659 12.8946 18.5203 12.7071 18.7078C12.5196 18.8954 12.2652 19.0007 12 19.0007ZM13 14.0007C13 14.2659 12.8946 14.5203 12.7071 14.7078C12.5196 14.8954 12.2652 15.0007 12 15.0007C11.7348 15.0007 11.4804 14.8954 11.2929 14.7078C11.1054 14.5203 11 14.2659 11 14.0007V6.00073C11 5.73551 11.1054 5.48116 11.2929 5.29362C11.4804 5.10609 11.7348 5.00073 12 5.00073C12.2652 5.00073 12.5196 5.10609 12.7071 5.29362C12.8946 5.48116 13 5.73551 13 6.00073V14.0007Z" fill="#374957"/>
</g>
<defs>
<clipPath id="clip0_806_6722">
<rect width="24" height="24" fill="white"/>
</clipPath>
</defs>
</svg>
