<svg width="24" height="24" viewBox="0 0 24 24" fill="none" xmlns="http://www.w3.org/2000/svg">
<g clip-path="url(#clip0_806_6458)">
<path d="M12.0001 7.94594C12.8412 7.94594 13.5231 7.26405 13.5231 6.42292C13.5231 5.58179 12.8412 4.8999 12.0001 4.8999C11.1589 4.8999 10.4771 5.58179 10.4771 6.42292C10.4771 7.26405 11.1589 7.94594 12.0001 7.94594Z" fill="#374957"/>
<path d="M20.0001 0.000732422H4.00006C1.77636 0.0183105 -0.0132387 1.83298 7.37985e-05 4.05673V16.2267C-0.0132387 18.4506 1.77621 20.2655 4.00006 20.2837H6.92304L10.671 23.4837C11.4134 24.1622 12.5479 24.1721 13.302 23.5067L17.147 20.2827H20C22.2239 20.2646 24.0133 18.4496 24 16.2257V4.05673C24.0134 1.83298 22.2238 0.0183105 20.0001 0.000732422ZM12.0001 3.04273C16.6151 3.16475 16.6141 10.0197 12.0001 10.1427C7.38509 10.0197 7.38607 3.1677 12.0001 3.04273ZM16.2491 17.2087C15.7139 17.3453 15.1694 17.0221 15.0329 16.487C15.0323 16.4846 15.0317 16.4822 15.0311 16.4797C14.5192 14.8055 12.747 13.8632 11.0728 14.375C10.065 14.6831 9.27617 15.4719 8.96806 16.4797C8.82832 17.0143 8.28167 17.3345 7.74706 17.1947C7.21245 17.055 6.89234 16.5083 7.03207 15.9737C7.80532 13.2297 10.6566 11.6321 13.4007 12.4053C15.1301 12.8927 16.4817 14.2443 16.9691 15.9737C17.1083 16.5132 16.7871 17.0641 16.2491 17.2087Z" fill="#374957"/>
</g>
<defs>
<clipPath id="clip0_806_6458">
<rect width="24" height="24" fill="white"/>
</clipPath>
</defs>
</svg>
