<svg width="24" height="24" viewBox="0 0 24 24" fill="none" xmlns="http://www.w3.org/2000/svg">
<g clip-path="url(#clip0_806_6613)">
<path d="M12.8832 15.2157L4.94824 23.1507C4.68149 23.4308 4.36141 23.6547 4.00684 23.8092C3.65226 23.9637 3.27036 24.0458 2.8836 24.0505C2.49684 24.0552 2.11305 23.9825 1.75481 23.8367C1.39658 23.6908 1.07113 23.4748 0.797633 23.2013C0.524135 22.9278 0.308111 22.6024 0.162276 22.2441C0.0164409 21.8859 -0.0562581 21.5021 -0.0515422 21.1153C-0.0468264 20.7286 0.035209 20.3467 0.189735 19.9921C0.344262 19.6375 0.568157 19.3175 0.848242 19.0507L8.78324 11.1157L12.8832 15.2157ZM17.1002 6.89971C16.5482 6.37206 15.8139 6.07761 15.0502 6.07761C14.2866 6.07761 13.5523 6.37206 13.0002 6.89971L10.2002 9.69971L14.3002 13.7997L17.1002 10.9997C17.6437 10.4559 17.949 9.71854 17.949 8.94971C17.949 8.18088 17.6437 7.44351 17.1002 6.89971ZM4.86324 5.14471L6.41324 5.58671L6.85524 7.13671C6.92645 7.38542 7.0767 7.60419 7.28328 7.75993C7.48986 7.91566 7.74154 7.9999 8.00024 7.9999C8.25895 7.9999 8.51062 7.91566 8.7172 7.75993C8.92378 7.60419 9.07404 7.38542 9.14524 7.13671L9.58724 5.58671L11.1372 5.14471C11.386 5.0735 11.6047 4.92325 11.7605 4.71667C11.9162 4.51009 12.0004 4.25841 12.0004 3.99971C12.0004 3.741 11.9162 3.48933 11.7605 3.28275C11.6047 3.07617 11.386 2.92591 11.1372 2.85471L9.58724 2.41271L9.14524 0.862707C9.07404 0.613991 8.92378 0.395224 8.7172 0.239487C8.51062 0.0837495 8.25895 -0.000488281 8.00024 -0.000488281C7.74154 -0.000488281 7.48986 0.0837495 7.28328 0.239487C7.0767 0.395224 6.92645 0.613991 6.85524 0.862707L6.41324 2.41271L4.86324 2.85471C4.61453 2.92591 4.39576 3.07617 4.24002 3.28275C4.08429 3.48933 4.00005 3.741 4.00005 3.99971C4.00005 4.25841 4.08429 4.51009 4.24002 4.71667C4.39576 4.92325 4.61453 5.0735 4.86324 5.14471ZM16.8632 17.1447L18.4132 17.5867L18.8552 19.1367C18.9264 19.3854 19.0767 19.6042 19.2833 19.7599C19.4899 19.9157 19.7415 19.9999 20.0002 19.9999C20.259 19.9999 20.5106 19.9157 20.7172 19.7599C20.9238 19.6042 21.074 19.3854 21.1452 19.1367L21.5872 17.5867L23.1372 17.1447C23.386 17.0735 23.6047 16.9232 23.7605 16.7167C23.9162 16.5101 24.0004 16.2584 24.0004 15.9997C24.0004 15.741 23.9162 15.4893 23.7605 15.2827C23.6047 15.0762 23.386 14.9259 23.1372 14.8547L21.5872 14.4127L21.1452 12.8627C21.074 12.614 20.9238 12.3952 20.7172 12.2395C20.5106 12.0838 20.259 11.9995 20.0002 11.9995C19.7415 11.9995 19.4899 12.0838 19.2833 12.2395C19.0767 12.3952 18.9264 12.614 18.8552 12.8627L18.4132 14.4127L16.8632 14.8547C16.6145 14.9259 16.3958 15.0762 16.24 15.2827C16.0843 15.4893 16 15.741 16 15.9997C16 16.2584 16.0843 16.5101 16.24 16.7167C16.3958 16.9232 16.6145 17.0735 16.8632 17.1447ZM17.7562 4.49971L19.1112 4.88671L19.5002 6.24371C19.5636 6.45989 19.6952 6.64973 19.8755 6.78479C20.0558 6.91985 20.275 6.99285 20.5002 6.99285C20.7255 6.99285 20.9447 6.91985 21.125 6.78479C21.3053 6.64973 21.4369 6.45989 21.5002 6.24371L21.8872 4.88871L23.2442 4.49971C23.4604 4.4364 23.6503 4.30473 23.7853 4.12445C23.9204 3.94417 23.9934 3.72497 23.9934 3.49971C23.9934 3.27444 23.9204 3.05525 23.7853 2.87496C23.6503 2.69468 23.4604 2.56302 23.2442 2.49971L21.8892 2.11271L21.5002 0.755707C21.4369 0.539524 21.3053 0.349679 21.125 0.21462C20.9447 0.0795608 20.7255 0.00656181 20.5002 0.00656181C20.275 0.00656181 20.0558 0.0795608 19.8755 0.21462C19.6952 0.349679 19.5636 0.539524 19.5002 0.755707L19.1132 2.11071L17.7562 2.49971C17.5401 2.56302 17.3502 2.69468 17.2152 2.87496C17.0801 3.05525 17.0071 3.27444 17.0071 3.49971C17.0071 3.72497 17.0801 3.94417 17.2152 4.12445C17.3502 4.30473 17.5401 4.4364 17.7562 4.49971Z" fill="#374957"/>
</g>
<defs>
<clipPath id="clip0_806_6613">
<rect width="24" height="24" fill="white"/>
</clipPath>
</defs>
</svg>
