<svg width="24" height="24" viewBox="0 0 24 24" fill="none" xmlns="http://www.w3.org/2000/svg">
<g clip-path="url(#clip0_806_6641)">
<path d="M15.0002 23.9998C13.3197 23.9986 11.6581 23.645 10.1227 22.9618C8.58732 22.2787 7.21222 21.2813 6.08615 20.0338C4.95159 18.785 4.09557 17.3091 3.5749 15.7042C3.05423 14.0992 2.88081 12.4019 3.06615 10.7248C3.36496 8.11486 4.50355 5.67257 6.31051 3.76569C8.11748 1.85881 10.495 0.590549 13.0852 0.151843C14.7596 -0.106782 16.4683 -0.0371555 18.1162 0.356843C18.5476 0.467702 18.9417 0.691847 19.2575 1.00608C19.5732 1.32032 19.7993 1.71323 19.9123 2.14417C20.0253 2.5751 20.0211 3.02839 19.9001 3.45715C19.7791 3.8859 19.5457 4.27454 19.2242 4.58284C14.6642 8.74884 15.0602 15.2268 20.0312 18.9928C20.3826 19.2687 20.6538 19.6337 20.8163 20.0499C20.9789 20.4661 21.0269 20.9183 20.9554 21.3593C20.884 21.8004 20.6956 22.2142 20.4099 22.5578C20.1243 22.9014 19.7518 23.1621 19.3312 23.3128C17.933 23.7697 16.4711 24.0015 15.0002 23.9998Z" fill="#374957"/>
</g>
<defs>
<clipPath id="clip0_806_6641">
<rect width="24" height="24" fill="white"/>
</clipPath>
</defs>
</svg>
