<svg width="24" height="24" viewBox="0 0 24 24" fill="none" xmlns="http://www.w3.org/2000/svg">
<g clip-path="url(#clip0_806_6658)">
<path d="M8.16363 7.99958C7.58421 7.99134 7.02581 7.78128 6.58463 7.40558C5.66341 6.56086 5.10534 5.39204 5.02763 4.14458C4.78463 1.65058 6.14463 0.180577 7.61363 0.016577C7.96759 -0.0228967 8.32587 0.00935756 8.66709 0.111414C9.00831 0.213471 9.32547 0.383237 9.59963 0.610577C10.0089 0.97934 10.3412 1.42542 10.5773 1.92313C10.8135 2.42083 10.9488 2.96034 10.9756 3.51058C11.1996 5.83358 9.96162 7.99958 8.16363 7.99958ZM2.85263 13.9996C2.32051 13.9874 1.81248 13.7753 1.42964 13.4056C0.583129 12.5242 0.0856095 11.3653 0.0296369 10.1446C-0.190363 7.65058 1.03564 6.18058 2.36063 6.01658C2.68362 5.97968 3.01077 6.01371 3.31924 6.11631C3.62772 6.2189 3.91008 6.38758 4.14663 6.61058C4.90741 7.3887 5.35002 8.42299 5.38763 9.51058C5.58863 11.8336 4.35863 13.9996 2.85263 13.9996ZM15.8356 7.99958C14.0256 7.99958 12.8016 5.83358 13.0286 3.50758C13.0554 2.95734 13.1908 2.41783 13.4269 1.92013C13.6631 1.42242 13.9954 0.97634 14.4046 0.607577C14.6785 0.381551 14.9949 0.212783 15.3352 0.111267C15.6755 0.00975084 16.0327 -0.0224481 16.3856 0.016577C17.8546 0.180577 19.2146 1.65058 18.9716 4.14458C18.8939 5.39231 18.3358 6.56143 17.4146 7.40658C16.9731 7.78162 16.4148 7.99129 15.8356 7.99958ZM21.0526 13.9996C19.1666 13.9996 18.2256 11.8336 18.4376 9.50758C18.4797 8.41304 18.9378 7.3758 19.7186 6.60758C19.9663 6.38292 20.2591 6.21372 20.5775 6.11129C20.8958 6.00885 21.2324 5.97554 21.5646 6.01358C22.9326 6.17758 24.1996 7.64758 23.9736 10.1416C23.9101 11.371 23.3931 12.5332 22.5226 13.4036C22.1222 13.7757 21.5991 13.9878 21.0526 13.9996ZM15.9996 23.9996C15.145 24.0164 14.301 23.8077 13.5526 23.3946C13.0738 23.1423 12.5408 23.0105 11.9996 23.0105C11.4584 23.0105 10.9254 23.1423 10.4466 23.3946C7.43363 25.0816 3.92163 23.2266 3.99963 18.9996C3.99963 14.3636 8.50663 9.99958 11.9996 9.99958C15.4926 9.99958 19.9996 14.3636 19.9996 18.9996C19.9996 21.9436 18.3546 23.9996 15.9996 23.9996Z" fill="#374957"/>
</g>
<defs>
<clipPath id="clip0_806_6658">
<rect width="24" height="24" fill="white"/>
</clipPath>
</defs>
</svg>
