<svg width="24" height="24" viewBox="0 0 24 24" fill="none" xmlns="http://www.w3.org/2000/svg">
<g clip-path="url(#clip0_806_6492)">
<path d="M9 0H15C15.2652 0 15.5196 0.105357 15.7071 0.292893C15.8946 0.48043 16 0.734784 16 1C16 1.26522 15.8946 1.51957 15.7071 1.70711C15.5196 1.89464 15.2652 2 15 2H13V4.056C13.6788 4.12209 14.349 4.2578 15 4.461V9.151C14.017 9.053 13.008 9 12 9C10.992 9 9.983 9.053 9 9.151V4.461C9.65102 4.2578 10.3212 4.12209 11 4.056V2H9C8.73478 2 8.48043 1.89464 8.29289 1.70711C8.10536 1.51957 8 1.26522 8 1C8 0.734784 8.10536 0.48043 8.29289 0.292893C8.48043 0.105357 8.73478 0 9 0V0ZM2 14C2 14.82 3.879 15.927 7 16.541V11.459C3.879 12.073 2 13.18 2 14ZM17 5.353V9.425C18.5518 9.66884 20.0591 10.1406 21.473 10.825C20.6951 8.51884 19.1054 6.57409 17 5.353ZM9 11.16V16.84C9.99638 16.9474 10.9978 17.0008 12 17C13.0022 17.0008 14.0036 16.9474 15 16.84V11.16C13.0057 10.9466 10.9943 10.9466 9 11.16ZM17 11.46V16.542C20.121 15.928 22 14.821 22 14.001C22 13.181 20.121 12.073 17 11.459V11.46ZM9 18.85V23.54C10.9528 24.1547 13.0472 24.1547 15 23.54V18.85C14.017 18.95 13.008 19.001 12 19.001C10.992 19.001 9.983 18.947 9 18.849V18.85ZM17 22.65C19.1046 21.4299 20.6942 19.4867 21.473 17.182C20.0587 17.864 18.5514 18.3334 17 18.575V22.65ZM7 22.65V18.575C5.44819 18.3312 3.94092 17.8594 2.527 17.175C3.30494 19.4812 4.89465 21.4259 7 22.647V22.65ZM2.527 10.821C3.94114 10.138 5.4484 9.66757 7 9.425V5.353C4.8954 6.57311 3.30578 8.51633 2.527 10.821Z" fill="#374957"/>
</g>
<defs>
<clipPath id="clip0_806_6492">
<rect width="24" height="24" fill="white"/>
</clipPath>
</defs>
</svg>
