<svg width="24" height="24" viewBox="0 0 24 24" fill="none" xmlns="http://www.w3.org/2000/svg">
<g clip-path="url(#clip0_806_6398)">
<path d="M2.44626 5.825C2.21818 5.23887 2.06822 4.62527 2.00026 4C2.00026 2.93913 2.42169 1.92172 3.17184 1.17157C3.92198 0.421427 4.9394 0 6.00027 0C7.06113 0 8.07855 0.421427 8.82869 1.17157C9.57884 1.92172 10.0003 2.93913 10.0003 4C9.93231 4.62527 9.78235 5.23887 9.55427 5.825C9.29984 6.53042 9.1143 7.25882 9.00027 8H3.00026C2.88623 7.25882 2.70069 6.53042 2.44626 5.825ZM9.51126 10H2.48926C2.27226 10.5 2.00926 11.012 1.73626 11.537C0.716651 13.1873 0.120334 15.0638 0.000264418 17C-0.0186174 18.6199 0.317954 20.2243 0.986265 21.7C1.30934 22.3881 1.82181 22.9699 2.46364 23.3773C3.10547 23.7846 3.85009 24.0006 4.61027 24H7.39027C8.15045 24.0006 8.89506 23.7846 9.53689 23.3773C10.1787 22.9699 10.6912 22.3881 11.0143 21.7C11.6826 20.2243 12.0191 18.6199 12.0003 17C11.8802 15.0638 11.2839 13.1873 10.2643 11.537C9.99127 11.012 9.72826 10.5 9.51126 10ZM24.0003 16C23.9992 17.3587 23.6524 18.6948 22.9924 19.8825C22.3324 21.0702 21.3811 22.0704 20.2278 22.7889C19.0746 23.5074 17.7575 23.9205 16.4006 23.9895C15.0436 24.0584 13.6914 23.7809 12.4713 23.183C12.6033 22.9765 12.7225 22.7621 12.8283 22.541C13.6198 20.8021 14.0199 18.9105 14.0003 17C13.8884 14.7416 13.2143 12.5469 12.0393 10.615C11.8303 10.215 11.6323 9.82 11.4543 9.434C12.6522 8.59868 14.0563 8.10805 15.5138 8.01555C16.9712 7.92304 18.4261 8.23221 19.72 8.90938C21.0139 9.58654 22.0972 10.6058 22.8519 11.856C23.6066 13.1063 24.0038 14.5396 24.0003 16ZM18.0003 15C18.0003 14.8022 17.9416 14.6089 17.8317 14.4444C17.7219 14.28 17.5657 14.1518 17.3829 14.0761C17.2002 14.0004 16.9992 13.9806 16.8052 14.0192C16.6112 14.0578 16.433 14.153 16.2932 14.2929C16.1533 14.4327 16.0581 14.6109 16.0195 14.8049C15.9809 14.9989 16.0007 15.2 16.0764 15.3827C16.1521 15.5654 16.2802 15.7216 16.4447 15.8315C16.6091 15.9414 16.8025 16 17.0003 16C17.2655 16 17.5198 15.8946 17.7074 15.7071C17.8949 15.5196 18.0003 15.2652 18.0003 15ZM20.0003 12C20.0003 11.8022 19.9416 11.6089 19.8317 11.4444C19.7219 11.28 19.5657 11.1518 19.3829 11.0761C19.2002 11.0004 18.9992 10.9806 18.8052 11.0192C18.6112 11.0578 18.433 11.153 18.2932 11.2929C18.1533 11.4327 18.0581 11.6109 18.0195 11.8049C17.9809 11.9989 18.0007 12.2 18.0764 12.3827C18.1521 12.5654 18.2802 12.7216 18.4447 12.8315C18.6091 12.9414 18.8025 13 19.0003 13C19.2655 13 19.5198 12.8946 19.7074 12.7071C19.8949 12.5196 20.0003 12.2652 20.0003 12ZM22.0003 15C22.0003 14.8022 21.9416 14.6089 21.8317 14.4444C21.7219 14.28 21.5657 14.1518 21.3829 14.0761C21.2002 14.0004 20.9992 13.9806 20.8052 14.0192C20.6112 14.0578 20.433 14.153 20.2932 14.2929C20.1533 14.4327 20.0581 14.6109 20.0195 14.8049C19.9809 14.9989 20.0007 15.2 20.0764 15.3827C20.1521 15.5654 20.2802 15.7216 20.4447 15.8315C20.6091 15.9414 20.8025 16 21.0003 16C21.2655 16 21.5198 15.8946 21.7074 15.7071C21.8949 15.5196 22.0003 15.2652 22.0003 15Z" fill="#374957"/>
</g>
<defs>
<clipPath id="clip0_806_6398">
<rect width="24" height="24" fill="white"/>
</clipPath>
</defs>
</svg>
