<svg width="24" height="24" viewBox="0 0 24 24" fill="none" xmlns="http://www.w3.org/2000/svg">
<g clip-path="url(#clip0_806_6445)">
<path d="M18.3559 7.3599C18.1846 7.30696 18.0291 7.2124 17.9032 7.08466C17.7774 6.95692 17.6852 6.79999 17.6349 6.6279C17.1058 4.92752 16.0245 3.45226 14.5623 2.43582C13.1001 1.41938 11.3405 0.919866 9.56237 1.01641C7.7842 1.11295 6.08907 1.80003 4.74549 2.9688C3.40192 4.13758 2.48672 5.72123 2.14487 7.4689C1.79342 9.23591 2.07672 11.0703 2.94487 12.6489C1.9333 13.1709 1.1107 13.9967 0.592692 15.0103C0.0746812 16.0239 -0.112705 17.1743 0.0568679 18.2999C0.31769 19.6076 1.0179 20.7868 2.04127 21.6418C3.06463 22.4967 4.3496 22.9759 5.68287 22.9999H14.7829C19.8559 22.9999 23.6349 19.9719 23.9729 15.6379C24.1239 13.8239 23.6489 12.0129 22.6268 10.5066C21.6047 9.00032 20.0974 7.88975 18.3559 7.3599ZM19.2279 14.7069L13.8129 20.1209C13.2503 20.6833 12.4874 20.9993 11.6919 20.9993C10.8964 20.9993 10.1335 20.6833 9.57087 20.1209L6.18387 16.6999C6.07717 16.6105 5.99032 16.4998 5.92887 16.3749C5.86742 16.25 5.83272 16.1136 5.827 15.9745C5.82128 15.8355 5.84466 15.6967 5.89564 15.5672C5.94662 15.4377 6.02409 15.3202 6.12308 15.2223C6.22207 15.1245 6.3404 15.0483 6.4705 14.9988C6.6006 14.9493 6.7396 14.9275 6.87861 14.9348C7.01762 14.9421 7.15358 14.9784 7.27778 15.0412C7.40197 15.1041 7.51168 15.1922 7.59987 15.2999L10.9839 18.7139C11.1743 18.8946 11.4268 18.9953 11.6894 18.9953C11.9519 18.9953 12.2044 18.8946 12.3949 18.7139L17.8089 13.2999C17.9964 13.1123 18.2507 13.0068 18.516 13.0067C18.7813 13.0066 19.0357 13.1119 19.2234 13.2994C19.411 13.4869 19.5165 13.7413 19.5166 14.0065C19.5167 14.2718 19.4114 14.5263 19.2239 14.7139L19.2279 14.7069Z" fill="#374957"/>
</g>
<defs>
<clipPath id="clip0_806_6445">
<rect width="24" height="24" fill="white"/>
</clipPath>
</defs>
</svg>
