<svg width="24" height="24" viewBox="0 0 24 24" fill="none" xmlns="http://www.w3.org/2000/svg">
<g clip-path="url(#clip0_806_6756)">
<path d="M21.7702 8.94826C21.607 8.88992 21.4579 8.79797 21.3325 8.67835C21.2071 8.55874 21.1082 8.41414 21.0422 8.25389C20.9762 8.09365 20.9446 7.92134 20.9495 7.74811C20.9543 7.57488 20.9954 7.40459 21.0702 7.24826C21.3572 6.64431 21.4502 5.96635 21.3366 5.30742C21.2229 4.64849 20.9081 4.04089 20.4353 3.56802C19.9625 3.09515 19.355 2.78018 18.6961 2.66635C18.0372 2.55252 17.3592 2.64541 16.7552 2.93226C16.5988 3.00688 16.4286 3.04789 16.2554 3.05263C16.0822 3.05737 15.91 3.02574 15.7498 2.95977C15.5895 2.89381 15.445 2.79498 15.3253 2.66966C15.2057 2.54435 15.1137 2.39534 15.0552 2.23226C14.8304 1.60334 14.4166 1.05929 13.8707 0.674629C13.3247 0.289966 12.6731 0.0834961 12.0052 0.0834961C11.3373 0.0834961 10.6857 0.289966 10.1397 0.674629C9.59374 1.05929 9.18001 1.60334 8.9552 2.23226C8.89685 2.39544 8.8049 2.54455 8.68529 2.66995C8.56568 2.79535 8.42107 2.89424 8.26083 2.96023C8.10059 3.02621 7.92827 3.05781 7.75504 3.053C7.58181 3.04818 7.41153 3.00704 7.2552 2.93226C6.65087 2.64313 5.97176 2.5485 5.31142 2.66141C4.65107 2.77432 4.04198 3.08921 3.56805 3.5627C3.09412 4.03619 2.77867 4.64499 2.66515 5.30523C2.55163 5.96547 2.64563 6.64466 2.9342 7.24926C3.00914 7.40556 3.0504 7.57587 3.0553 7.74915C3.0602 7.92242 3.02862 8.09479 2.96262 8.25508C2.89662 8.41537 2.79767 8.55999 2.67218 8.67958C2.54669 8.79917 2.39747 8.89105 2.2342 8.94926C1.60572 9.17452 1.06218 9.58843 0.677913 10.1344C0.293641 10.6803 0.0874023 11.3316 0.0874023 11.9993C0.0874023 12.6669 0.293641 13.3182 0.677913 13.8641C1.06218 14.4101 1.60572 14.824 2.2342 15.0493C2.39782 15.1071 2.54745 15.1987 2.6734 15.318C2.79934 15.4374 2.89877 15.582 2.96525 15.7423C3.03173 15.9026 3.06376 16.0751 3.05927 16.2485C3.05478 16.422 3.01387 16.5926 2.9392 16.7493C2.65203 17.3528 2.55869 18.0305 2.67198 18.6892C2.78526 19.3479 3.09963 19.9555 3.57193 20.4284C4.04423 20.9014 4.65132 21.2166 5.30989 21.3308C5.96846 21.445 6.64623 21.3526 7.2502 21.0663C7.40653 20.9915 7.57681 20.9503 7.75004 20.9455C7.92327 20.9407 8.09559 20.9723 8.25583 21.0383C8.41607 21.1043 8.56068 21.2032 8.68029 21.3286C8.7999 21.454 8.89185 21.6031 8.9502 21.7663C9.17501 22.3952 9.58874 22.9392 10.1347 23.3239C10.6807 23.7086 11.3323 23.915 12.0002 23.915C12.6681 23.915 13.3197 23.7086 13.8657 23.3239C14.4116 22.9392 14.8254 22.3952 15.0502 21.7663C15.1085 21.6031 15.2005 21.454 15.3201 21.3286C15.4397 21.2032 15.5843 21.1043 15.7446 21.0383C15.9048 20.9723 16.0771 20.9407 16.2503 20.9455C16.4236 20.9503 16.5939 20.9915 16.7502 21.0663C17.3541 21.3533 18.0321 21.4463 18.691 21.3326C19.35 21.2189 19.9576 20.9041 20.4304 20.4314C20.9033 19.9586 21.2183 19.3511 21.3321 18.6922C21.4459 18.0333 21.353 17.3553 21.0662 16.7513C20.9916 16.5949 20.9506 16.4246 20.9458 16.2515C20.9411 16.0783 20.9727 15.906 21.0387 15.7458C21.1046 15.5856 21.2035 15.441 21.3288 15.3214C21.4541 15.2018 21.6031 15.1097 21.7662 15.0513C22.3951 14.8264 22.9392 14.4127 23.3238 13.8667C23.7085 13.3207 23.915 12.6692 23.915 12.0013C23.915 11.3334 23.7085 10.6818 23.3238 10.1358C22.9392 9.58981 22.3951 9.17607 21.7662 8.95126L21.7702 8.94826Z" fill="#374957"/>
</g>
<defs>
<clipPath id="clip0_806_6756">
<rect width="24" height="24" fill="white"/>
</clipPath>
</defs>
</svg>
