<svg width="24" height="24" viewBox="0 0 24 24" fill="none" xmlns="http://www.w3.org/2000/svg">
<g clip-path="url(#clip0_806_6738)">
<path d="M22.8307 9.17117L18.9517 5.29217C18.5544 4.9085 17.9214 4.91952 17.5377 5.31678C17.1634 5.7043 17.1634 6.31869 17.5377 6.7062L21.4167 10.5852C21.532 10.7027 21.6327 10.8337 21.7167 10.9752C21.7017 10.9752 21.6897 10.9672 21.6747 10.9672L5.99071 10.9992C5.43843 10.9992 4.99072 11.4469 4.99072 11.9992C4.99072 12.5515 5.43843 12.9992 5.99071 12.9992L21.6687 12.9672C21.6967 12.9672 21.7197 12.9531 21.7467 12.9512C21.658 13.1203 21.5455 13.2759 21.4127 13.4132L17.5337 17.2922C17.1365 17.6758 17.1254 18.3089 17.5091 18.7062C17.8928 19.1034 18.5258 19.1144 18.9231 18.7308C18.9314 18.7227 18.9396 18.7145 18.9477 18.7062L22.8267 14.8272C24.3883 13.2651 24.3883 10.7331 22.8267 9.17117H22.8307Z" fill="#374957"/>
<path d="M7.00194 22H5.00192C3.34508 22 2.00192 20.6568 2.00192 19V5.00002C2.00192 3.34317 3.34508 2.00002 5.00192 2.00002H7.00194C7.55422 2.00002 8.00192 1.55231 8.00192 1.00003C8.00192 0.44775 7.55427 0 7.00194 0H5.00192C2.24192 0.00332812 0.00528125 2.23997 0.00195312 5.00002V19C0.00528125 21.76 2.24192 23.9967 5.00197 24H7.00198C7.55427 24 8.00197 23.5523 8.00197 23C8.00197 22.4477 7.55427 22 7.00194 22Z" fill="#374957"/>
</g>
<defs>
<clipPath id="clip0_806_6738">
<rect width="24" height="24" fill="white"/>
</clipPath>
</defs>
</svg>
