<svg width="24" height="24" viewBox="0 0 24 24" fill="none" xmlns="http://www.w3.org/2000/svg">
<g clip-path="url(#clip0_806_6619)">
<path d="M19.7902 3.27889C15.5427 -1.04172 8.59681 -1.10097 4.2762 3.14656C-0.044409 7.39409 -0.103659 14.34 4.14387 18.6606C4.19665 18.7143 4.25 18.7675 4.3039 18.8201L8.23634 22.4533C10.3386 24.5099 13.6964 24.5183 15.809 22.4722L19.7902 18.7932C24.0742 14.5089 24.0742 7.56307 19.7902 3.27889ZM16.0224 12.0333H13.0304V15.0252C13.0304 15.576 12.5839 16.0226 12.0331 16.0226C11.4823 16.0226 11.0358 15.576 11.0358 15.0252V12.0333H8.04387C7.49309 12.0333 7.04656 11.5868 7.04656 11.036C7.04656 10.4852 7.49309 10.0387 8.04387 10.0387H11.0358V7.04675C11.0358 6.49596 11.4823 6.04943 12.0331 6.04943C12.5839 6.04943 13.0304 6.49596 13.0304 7.04675V10.0387H16.0224C16.5732 10.0387 17.0197 10.4852 17.0197 11.036C17.0197 11.5868 16.5732 12.0333 16.0224 12.0333Z" fill="#374957"/>
</g>
<defs>
<clipPath id="clip0_806_6619">
<rect width="24" height="24" fill="white"/>
</clipPath>
</defs>
</svg>
