<svg width="24" height="24" viewBox="0 0 24 24" fill="none" xmlns="http://www.w3.org/2000/svg">
<g clip-path="url(#clip0_806_6770)">
<path d="M21.0003 13.0001C20.7351 13.0001 20.4807 12.8948 20.2932 12.7073C20.1056 12.5197 20.0003 12.2654 20.0003 12.0001C20.0003 11.7349 20.1056 11.4806 20.2932 11.293C20.4807 11.1055 20.7351 11.0001 21.0003 11.0001H23.9493C23.7099 8.17649 22.4795 5.52851 20.4757 3.52472C18.4719 1.52093 15.8239 0.290505 13.0003 0.0511475V3.03915C13.0003 3.30436 12.8949 3.55872 12.7074 3.74625C12.5198 3.93379 12.2655 4.03915 12.0003 4.03915C11.7351 4.03915 11.4807 3.93379 11.2932 3.74625C11.1056 3.55872 11.0003 3.30436 11.0003 3.03915V0.0511475C8.17661 0.290505 5.52863 1.52093 3.52484 3.52472C1.52105 5.52851 0.290627 8.17649 0.0512695 11.0001H3.00027C3.26549 11.0001 3.51984 11.1055 3.70738 11.293C3.89491 11.4806 4.00027 11.7349 4.00027 12.0001C4.00027 12.2654 3.89491 12.5197 3.70738 12.7073C3.51984 12.8948 3.26549 13.0001 3.00027 13.0001H0.0512695C0.290627 15.8238 1.52105 18.4718 3.52484 20.4756C5.52863 22.4794 8.17661 23.7098 11.0003 23.9491V21.0001C11.0003 20.7349 11.1056 20.4806 11.2932 20.293C11.4807 20.1055 11.7351 20.0001 12.0003 20.0001C12.2655 20.0001 12.5198 20.1055 12.7074 20.293C12.8949 20.4806 13.0003 20.7349 13.0003 21.0001V23.9491C15.8239 23.7098 18.4719 22.4794 20.4757 20.4756C22.4795 18.4718 23.7099 15.8238 23.9493 13.0001H21.0003ZM15.0003 13.0001H13.0003V15.0001C13.0003 15.2654 12.8949 15.5197 12.7074 15.7073C12.5198 15.8948 12.2655 16.0001 12.0003 16.0001C11.7351 16.0001 11.4807 15.8948 11.2932 15.7073C11.1056 15.5197 11.0003 15.2654 11.0003 15.0001V13.0001H9.00027C8.73505 13.0001 8.4807 12.8948 8.29316 12.7073C8.10563 12.5197 8.00027 12.2654 8.00027 12.0001C8.00027 11.7349 8.10563 11.4806 8.29316 11.293C8.4807 11.1055 8.73505 11.0001 9.00027 11.0001H11.0003V9.00015C11.0003 8.73493 11.1056 8.48058 11.2932 8.29304C11.4807 8.1055 11.7351 8.00015 12.0003 8.00015C12.2655 8.00015 12.5198 8.1055 12.7074 8.29304C12.8949 8.48058 13.0003 8.73493 13.0003 9.00015V11.0001H15.0003C15.2655 11.0001 15.5198 11.1055 15.7074 11.293C15.8949 11.4806 16.0003 11.7349 16.0003 12.0001C16.0003 12.2654 15.8949 12.5197 15.7074 12.7073C15.5198 12.8948 15.2655 13.0001 15.0003 13.0001Z" fill="#374957"/>
</g>
<defs>
<clipPath id="clip0_806_6770">
<rect width="24" height="24" fill="white"/>
</clipPath>
</defs>
</svg>
