<svg width="24" height="24" viewBox="0 0 24 24" fill="none" xmlns="http://www.w3.org/2000/svg">
<g clip-path="url(#clip0_806_6785)">
<path d="M22.7073 22.7076C22.3173 23.0976 21.6833 23.0976 21.2933 22.7076L19.8793 21.2936L18.4643 22.7076C18.0803 23.1046 17.4473 23.1156 17.0503 22.7326C16.6533 22.3486 16.6423 21.7156 17.0253 21.3186C17.0333 21.3106 17.0413 21.3016 17.0503 21.2936L18.4643 19.8796L17.0503 18.4646C16.6533 18.0806 16.6423 17.4476 17.0253 17.0506C17.4093 16.6536 18.0423 16.6426 18.4393 17.0256C18.4473 17.0336 18.4563 17.0416 18.4643 17.0506L19.8793 18.4646L21.2933 17.0506C21.6773 16.6536 22.3103 16.6426 22.7073 17.0256C23.1043 17.4096 23.1153 18.0426 22.7323 18.4396C22.7243 18.4476 22.7163 18.4566 22.7073 18.4646L21.2933 19.8796L22.7073 21.2936C23.0993 21.6826 23.1043 22.3126 22.7153 22.7046C22.7133 22.7066 22.7123 22.7086 22.7073 22.7076Z" fill="#374957"/>
<path d="M14.035 20.0149C14.031 16.7179 16.7 14.0419 19.996 14.0369C21.279 14.0349 22.529 14.4469 23.559 15.2119C25.332 8.82691 21.593 2.21391 15.209 0.440912C8.82499 -1.33209 2.21299 2.40591 0.439986 8.79091C-1.33301 15.1759 2.40599 21.7899 8.78999 23.5629C10.89 24.1459 13.109 24.1459 15.209 23.5629C14.447 22.5369 14.035 21.2929 14.035 20.0149ZM13 12.0219C13 12.2879 12.894 12.5419 12.706 12.7299L9.70099 15.7359C9.30299 16.1199 8.66899 16.1089 8.28499 15.7109C7.90999 15.3229 7.90999 14.7069 8.28499 14.3189L10.997 11.6069V7.01291C10.997 6.45991 11.445 6.01091 11.999 6.01091C12.552 6.01091 13 6.45991 13 7.01291V12.0219Z" fill="#374957"/>
</g>
<defs>
<clipPath id="clip0_806_6785">
<rect width="24" height="24" fill="white"/>
</clipPath>
</defs>
</svg>
