<svg width="24" height="24" viewBox="0 0 24 24" fill="none" xmlns="http://www.w3.org/2000/svg">
<g clip-path="url(#clip0_806_6456)">
<path d="M15.9996 10.6998C15.9996 12.1998 13.7406 14.4318 11.9996 15.7618C10.2586 14.4318 7.99964 12.2018 7.99964 10.6998C7.92364 8.6938 10.9126 8.2998 10.9996 10.4538V10.9998C10.9996 11.265 11.105 11.5194 11.2925 11.7069C11.4801 11.8944 11.7344 11.9998 11.9996 11.9998C12.2649 11.9998 12.5192 11.8944 12.7067 11.7069C12.8943 11.5194 12.9996 11.265 12.9996 10.9998V10.4538C13.0866 8.2998 16.0756 8.6938 15.9996 10.6998ZM23.9996 12.3398V18.9998C23.9978 20.3253 23.4704 21.596 22.5331 22.5333C21.5958 23.4706 20.3252 23.998 18.9996 23.9998H13.0836C6.08164 23.9998 0.469637 19.2078 0.0286368 12.8548C-0.0939973 11.1406 0.153023 9.41996 0.752982 7.80945C1.35294 6.19893 2.29184 4.73608 3.50615 3.51988C4.72046 2.30367 6.18184 1.36249 7.79142 0.760021C9.40099 0.157549 11.1212 -0.0921554 12.8356 0.0278035C15.9071 0.291441 18.7652 1.70725 20.836 3.99098C22.9067 6.2747 24.0369 9.25725 23.9996 12.3398ZM17.9996 10.6998C18.02 9.99624 17.8317 9.30239 17.4585 8.70561C17.0853 8.10883 16.5439 7.6358 15.9024 7.34607C15.2609 7.05634 14.5481 6.96287 13.8536 7.07742C13.1591 7.19197 12.5141 7.50942 11.9996 7.9898C11.4852 7.50942 10.8401 7.19197 10.1457 7.07742C9.45118 6.96287 8.73834 7.05634 8.09688 7.34607C7.45541 7.6358 6.914 8.10883 6.54081 8.70561C6.16762 9.30239 5.97932 9.99624 5.99964 10.6998C5.99964 13.9558 10.8736 17.4358 11.4296 17.8218C11.597 17.9379 11.7959 18.0002 11.9996 18.0002C12.2034 18.0002 12.4022 17.9379 12.5696 17.8218C13.1256 17.4358 17.9996 13.9558 17.9996 10.6998Z" fill="#374957"/>
</g>
<defs>
<clipPath id="clip0_806_6456">
<rect width="24" height="24" fill="white"/>
</clipPath>
</defs>
</svg>
