<svg width="24" height="24" viewBox="0 0 24 24" fill="none" xmlns="http://www.w3.org/2000/svg">
<g clip-path="url(#clip0_806_6607)">
<path d="M3.99981 22.0001C3.60556 22.0011 3.21502 21.9239 2.85078 21.7731C2.48655 21.6222 2.15584 21.4006 1.87781 21.1211L0.333807 19.7471C0.13569 19.5704 0.0158557 19.3223 0.000665257 19.0573C-0.0145252 18.7923 0.076173 18.5322 0.252807 18.3341C0.429441 18.1359 0.677543 18.0161 0.942531 18.0009C1.20752 17.9857 1.46769 18.0764 1.66581 18.2531L3.25081 19.6671C3.34154 19.769 3.45217 19.8512 3.57588 19.9087C3.6996 19.9663 3.83378 19.9979 3.97016 20.0017C4.10655 20.0054 4.24227 19.9812 4.36895 19.9305C4.49564 19.8799 4.61061 19.8038 4.70681 19.7071L8.30681 16.2761C8.40084 16.1804 8.51314 16.1047 8.63704 16.0533C8.76095 16.002 8.89391 15.9761 9.02802 15.9772C9.16214 15.9783 9.29466 16.0063 9.4177 16.0597C9.54075 16.1131 9.65181 16.1906 9.74427 16.2878C9.83672 16.3849 9.90869 16.4997 9.95589 16.6252C10.0031 16.7508 10.0246 16.8845 10.019 17.0185C10.0135 17.1525 9.98102 17.284 9.9236 17.4052C9.86619 17.5265 9.78498 17.6349 9.68481 17.7241L6.09981 21.1381C5.82358 21.4127 5.49593 21.6302 5.1356 21.7781C4.77527 21.926 4.38931 22.0014 3.99981 22.0001ZM22.9998 21.0001H12.9998C12.7346 21.0001 12.4802 20.8947 12.2927 20.7072C12.1052 20.5196 11.9998 20.2653 11.9998 20.0001C11.9998 19.7348 12.1052 19.4805 12.2927 19.2929C12.4802 19.1054 12.7346 19.0001 12.9998 19.0001H22.9998C23.265 19.0001 23.5194 19.1054 23.7069 19.2929C23.8945 19.4805 23.9998 19.7348 23.9998 20.0001C23.9998 20.2653 23.8945 20.5196 23.7069 20.7072C23.5194 20.8947 23.265 21.0001 22.9998 21.0001ZM3.99981 14.0001C3.60556 14.0011 3.21502 13.9239 2.85078 13.7731C2.48655 13.6222 2.15584 13.4006 1.87781 13.1211L0.292807 11.5361C0.110649 11.3475 0.00985468 11.0948 0.0121331 10.8327C0.0144115 10.5705 0.11958 10.3196 0.304989 10.1342C0.490397 9.94883 0.741209 9.84366 1.00341 9.84138C1.2656 9.8391 1.5182 9.9399 1.70681 10.1221L3.29281 11.7071C3.48317 11.8891 3.73642 11.9907 3.99981 11.9907C4.2632 11.9907 4.51644 11.8891 4.70681 11.7071L8.30681 8.27605C8.49882 8.09279 8.75578 7.99331 9.02114 7.9995C9.28651 8.00569 9.53854 8.11704 9.72181 8.30905C9.90507 8.50107 10.0046 8.75803 9.99836 9.02339C9.99218 9.28875 9.88082 9.54079 9.68881 9.72405L6.09981 13.1381C5.82358 13.4127 5.49593 13.6302 5.1356 13.7781C4.77527 13.926 4.38931 14.0014 3.99981 14.0001ZM22.9998 13.0001H12.9998C12.7346 13.0001 12.4802 12.8947 12.2927 12.7072C12.1052 12.5196 11.9998 12.2653 11.9998 12.0001C11.9998 11.7348 12.1052 11.4805 12.2927 11.2929C12.4802 11.1054 12.7346 11.0001 12.9998 11.0001H22.9998C23.265 11.0001 23.5194 11.1054 23.7069 11.2929C23.8945 11.4805 23.9998 11.7348 23.9998 12.0001C23.9998 12.2653 23.8945 12.5196 23.7069 12.7072C23.5194 12.8947 23.265 13.0001 22.9998 13.0001ZM3.99981 6.00005C3.60556 6.00109 3.21502 5.92393 2.85078 5.77306C2.48655 5.62218 2.15584 5.40057 1.87781 5.12105L0.333807 3.74705C0.13569 3.57042 0.0158557 3.32232 0.000665257 3.05733C-0.0145252 2.79234 0.076173 2.53217 0.252807 2.33405C0.429441 2.13594 0.677543 2.0161 0.942531 2.00091C1.20752 1.98572 1.46769 2.07642 1.66581 2.25305L3.25081 3.66705C3.34154 3.76895 3.45217 3.8512 3.57588 3.90874C3.6996 3.96629 3.83378 3.9979 3.97016 4.00165C4.10655 4.0054 4.24227 3.98119 4.36895 3.93053C4.49564 3.87987 4.61061 3.80382 4.70681 3.70705L8.31081 0.276055C8.5046 0.103525 8.75787 0.0130738 9.01711 0.0238058C9.27635 0.0345378 9.52128 0.145613 9.70015 0.33357C9.87902 0.521527 9.97783 0.771649 9.97572 1.03111C9.9736 1.29056 9.87072 1.53904 9.68881 1.72405L6.09981 5.13805C5.82358 5.41267 5.49593 5.63015 5.1356 5.77806C4.77527 5.92597 4.38931 6.0014 3.99981 6.00005ZM22.9998 5.00005H12.9998C12.7346 5.00005 12.4802 4.8947 12.2927 4.70716C12.1052 4.51963 11.9998 4.26527 11.9998 4.00005C11.9998 3.73484 12.1052 3.48048 12.2927 3.29295C12.4802 3.10541 12.7346 3.00005 12.9998 3.00005H22.9998C23.265 3.00005 23.5194 3.10541 23.7069 3.29295C23.8945 3.48048 23.9998 3.73484 23.9998 4.00005C23.9998 4.26527 23.8945 4.51963 23.7069 4.70716C23.5194 4.8947 23.265 5.00005 22.9998 5.00005Z" fill="#374957"/>
</g>
<defs>
<clipPath id="clip0_806_6607">
<rect width="24" height="24" fill="white"/>
</clipPath>
</defs>
</svg>
