<svg width="24" height="24" viewBox="0 0 24 24" fill="none" xmlns="http://www.w3.org/2000/svg">
<g clip-path="url(#clip0_806_6350)">
<path d="M11.8322 24C11.5355 24.0001 11.2453 23.9122 10.9985 23.7474C10.7517 23.5826 10.5593 23.3483 10.4458 23.0741C10.3322 22.7999 10.3025 22.4982 10.3604 22.2072C10.4183 21.9161 10.5613 21.6488 10.7712 21.439L18.4432 13.768C18.6754 13.5358 18.8596 13.2602 18.9853 12.9569C19.111 12.6535 19.1757 12.3284 19.1757 12C19.1757 11.6716 19.111 11.3465 18.9853 11.0431C18.8596 10.7398 18.6754 10.4641 18.4432 10.232L10.7712 2.56099C10.6319 2.42166 10.5214 2.25625 10.446 2.0742C10.3706 1.89215 10.3317 1.69704 10.3317 1.49999C10.3317 1.10204 10.4898 0.720387 10.7712 0.438992C11.0526 0.157598 11.4343 -0.000488281 11.8322 -0.000488281C12.0293 -0.000488281 12.2244 0.0383228 12.4064 0.113729C12.5885 0.189135 12.7539 0.29966 12.8932 0.438992L20.5642 8.11099C21.5956 9.14244 22.175 10.5413 22.175 12C22.175 13.4586 21.5956 14.8575 20.5642 15.889L12.8932 23.561C12.7539 23.7003 12.5884 23.8107 12.4064 23.886C12.2243 23.9614 12.0292 24.0001 11.8322 24Z" fill="#374957"/>
<path d="M2.28728 23.9999C1.99059 23.9998 1.70059 23.9118 1.45394 23.7469C1.2073 23.582 1.01509 23.3477 0.901626 23.0735C0.788162 22.7994 0.75854 22.4978 0.816506 22.2068C0.874472 21.9158 1.01742 21.6486 1.22728 21.4389L10.3123 12.3539C10.3588 12.3074 10.3958 12.2523 10.421 12.1915C10.4462 12.1308 10.4592 12.0657 10.4592 11.9999C10.4592 11.9341 10.4462 11.869 10.421 11.8083C10.3958 11.7475 10.3588 11.6923 10.3123 11.6459L1.22728 2.56088C0.945883 2.27962 0.787745 1.8981 0.787651 1.50024C0.787557 1.10238 0.945516 0.720778 1.22678 0.439383C1.50804 0.157988 1.88957 -0.000150331 2.28742 -0.000244099C2.68528 -0.000337867 3.06688 0.157621 3.34828 0.438883L12.4343 9.52488C13.0887 10.1821 13.4561 11.0719 13.4561 11.9994C13.4561 12.9269 13.0887 13.8166 12.4343 14.4739L3.34828 23.5609C3.20892 23.7002 3.0435 23.8106 2.86145 23.8859C2.6794 23.9613 2.48429 24 2.28728 23.9999Z" fill="#374957"/>
</g>
<defs>
<clipPath id="clip0_806_6350">
<rect width="24" height="24" fill="white"/>
</clipPath>
</defs>
</svg>
