<svg width="24" height="24" viewBox="0 0 24 24" fill="none" xmlns="http://www.w3.org/2000/svg">
<path d="M15 5.02609C15 5.82174 14.6839 6.5848 14.1213 7.14741C13.5587 7.71002 12.7956 8.02609 12 8.02609C11.2044 8.02609 10.4413 7.71002 9.87868 7.14741C9.31607 6.5848 9 5.82174 9 5.02609C9.26857 3.47493 9.86112 1.99782 10.739 0.691089C10.8749 0.480138 11.0615 0.30665 11.2818 0.18651C11.5021 0.06637 11.7491 0.00341797 12 0.00341797C12.2509 0.00341797 12.4979 0.06637 12.7182 0.18651C12.9385 0.30665 13.1251 0.480138 13.261 0.691089C14.1389 1.99782 14.7314 3.47493 15 5.02609ZM5.8 18.0001H18.2C18.0739 17.822 17.9331 17.6547 17.779 17.5001C15.856 15.6411 15.071 13.4851 15.013 10.0001H16C16.2652 10.0001 16.5196 9.89473 16.7071 9.7072C16.8946 9.51966 17 9.26531 17 9.00009C17 8.73487 16.8946 8.48052 16.7071 8.29298C16.5196 8.10545 16.2652 8.00009 16 8.00009H8C7.73478 8.00009 7.48043 8.10545 7.29289 8.29298C7.10536 8.48052 7 8.73487 7 9.00009C7 9.26531 7.10536 9.51966 7.29289 9.7072C7.48043 9.89473 7.73478 10.0001 8 10.0001H8.989C8.931 13.4871 8.146 15.6431 6.223 17.5001C6.06881 17.6551 5.92735 17.8223 5.8 18.0001ZM20 22.0001H19V20.3711C19 20.2461 18.974 20.1241 18.962 20.0001H5.038C5.026 20.1241 5 20.2461 5 20.3711V22.0001H4C3.73478 22.0001 3.48043 22.1054 3.29289 22.293C3.10536 22.4805 3 22.7349 3 23.0001C3 23.2653 3.10536 23.5197 3.29289 23.7072C3.48043 23.8947 3.73478 24.0001 4 24.0001H20C20.2652 24.0001 20.5196 23.8947 20.7071 23.7072C20.8946 23.5197 21 23.2653 21 23.0001C21 22.7349 20.8946 22.4805 20.7071 22.293C20.5196 22.1054 20.2652 22.0001 20 22.0001Z" fill="#374957"/>
</svg>
