<svg width="24" height="24" viewBox="0 0 24 24" fill="none" xmlns="http://www.w3.org/2000/svg">
<g clip-path="url(#clip0_806_6537)">
<path d="M16.3392 2.97492C16.9752 2.11592 18.9622 1.43892 20.3832 1.04692C20.5708 0.994037 20.768 0.984963 20.9596 1.02039C21.1513 1.05582 21.3322 1.13481 21.4884 1.25125C21.6447 1.3677 21.7721 1.51849 21.8609 1.69199C21.9496 1.86549 21.9973 2.05706 22.0002 2.25192C22.0282 3.74492 21.9442 5.88092 21.3002 6.74392C21.0586 7.07298 20.7539 7.35065 20.4038 7.56073C20.0537 7.77082 19.6654 7.90912 19.2613 7.96757C18.8573 8.02602 18.4456 8.00346 18.0504 7.90119C17.6551 7.79893 17.2842 7.619 16.9592 7.37192C16.3004 6.8664 15.8663 6.12247 15.7503 5.30016C15.6344 4.47786 15.8458 3.6429 16.3392 2.97492ZM16.5202 19.0529C17.4802 19.1771 18.3624 19.6458 19.0026 20.3719C19.6428 21.098 19.9973 22.0319 20.0002 22.9999C20.0002 23.2651 19.8949 23.5195 19.7073 23.707C19.5198 23.8946 19.2654 23.9999 19.0002 23.9999C18.735 23.9999 18.4807 23.8946 18.2931 23.707C18.1056 23.5195 18.0002 23.2651 18.0002 22.9999C18.0002 22.4695 17.7895 21.9608 17.4144 21.5857C17.0394 21.2106 16.5307 20.9999 16.0002 20.9999H14.3002C14.4829 21.2002 14.646 21.4175 14.7872 21.6489C14.9267 21.882 15.001 22.1482 15.0024 22.4198C15.0038 22.6914 14.9322 22.9584 14.7952 23.1929C14.6563 23.4376 14.4551 23.6412 14.212 23.7829C13.9689 23.9247 13.6926 23.9995 13.4112 23.9999H10.5892C10.3082 23.9992 10.0323 23.9241 9.78961 23.7824C9.54691 23.6407 9.34599 23.4373 9.20723 23.1929C9.07022 22.9584 8.99869 22.6914 9.0001 22.4198C9.00151 22.1482 9.0758 21.882 9.21523 21.6489C9.48197 21.2121 9.81648 20.8206 10.2062 20.4889C6.63523 19.2779 0.000228776 16.1199 0.000228776 12.0769C-0.00475075 11.671 0.0716039 11.2683 0.224789 10.8924C0.377973 10.5165 0.604886 10.1751 0.892141 9.88827C1.1794 9.60148 1.52118 9.37513 1.89732 9.22255C2.27347 9.06998 2.67636 8.99428 3.08223 8.99992H20.9182C21.3241 8.99428 21.727 9.06998 22.1031 9.22255C22.4793 9.37513 22.8211 9.60148 23.1083 9.88827C23.3956 10.1751 23.6225 10.5165 23.7757 10.8924C23.9289 11.2683 24.0052 11.671 24.0002 12.0769C24.0002 15.3359 19.9212 17.6999 16.5202 19.0529ZM16.2322 13.0289C15.9752 12.9687 15.7047 13.0127 15.4799 13.1511C15.2551 13.2895 15.0942 13.5113 15.0322 13.7679C14.4379 15.6115 13.3963 17.2791 12.0002 18.6219C10.606 17.2786 9.56607 15.611 8.97323 13.7679C8.9121 13.5097 8.7509 13.2864 8.52511 13.1471C8.29932 13.0077 8.02742 12.9638 7.76923 13.0249C7.51104 13.086 7.28771 13.2472 7.14837 13.473C7.00903 13.6988 6.9651 13.9707 7.02623 14.2289C7.05523 14.3519 7.52623 17.1209 11.1942 20.6139C11.4092 20.8333 11.6946 20.9699 12.0002 20.9999C12.4102 20.9999 13.3252 20.1289 13.3252 20.1289C14.9538 18.4492 16.1988 16.4363 16.9742 14.2289C17.0343 13.9714 16.99 13.7006 16.8509 13.4758C16.7119 13.2509 16.4894 13.0902 16.2322 13.0289ZM12.0002 7.99992C12.8709 7.99992 13.706 7.65403 14.3217 7.03835C14.9373 6.42266 15.2832 5.58762 15.2832 4.71692C15.2832 3.58792 14.0112 1.74492 13.0512 0.516915C12.9265 0.357496 12.7672 0.22856 12.5853 0.139886C12.4033 0.0512114 12.2036 0.00512695 12.0012 0.00512695C11.7988 0.00512695 11.5991 0.0512114 11.4172 0.139886C11.2353 0.22856 11.0759 0.357496 10.9512 0.516915C9.99123 1.74892 8.71923 3.59192 8.71923 4.71692C8.71923 5.58727 9.06484 6.42202 9.68009 7.03764C10.2953 7.65326 11.1299 7.99938 12.0002 7.99992ZM7.04123 7.37192C7.70094 6.86634 8.13561 6.12181 8.25159 5.29878C8.36756 4.47575 8.15554 3.64011 7.66123 2.97192C7.02523 2.11292 5.03823 1.43591 3.61723 1.04392C3.43039 0.992044 3.23416 0.983578 3.04354 1.01916C2.85292 1.05475 2.67296 1.13344 2.51742 1.24923C2.36188 1.36502 2.23487 1.51484 2.14609 1.68724C2.05732 1.85963 2.00914 2.05004 2.00523 2.24392C1.97723 3.73692 2.06123 5.87292 2.70523 6.73592C2.94624 7.06487 3.25026 7.34263 3.59961 7.55301C3.94895 7.7634 4.33664 7.90222 4.74012 7.9614C5.1436 8.02059 5.55483 7.99895 5.94987 7.89775C6.34492 7.79655 6.7159 7.6178 7.04123 7.37192Z" fill="#374957"/>
</g>
<defs>
<clipPath id="clip0_806_6537">
<rect width="24" height="24" fill="white"/>
</clipPath>
</defs>
</svg>
