<svg width="24" height="24" viewBox="0 0 24 24" fill="none" xmlns="http://www.w3.org/2000/svg">
<g clip-path="url(#clip0_806_6563)">
<path d="M14 11.0005C13.8022 11.0004 13.6089 10.9417 13.4445 10.8319C13.2801 10.722 13.152 10.5658 13.0763 10.3831C13.0006 10.2004 12.9808 9.99938 13.0194 9.80542C13.058 9.61147 13.1532 9.43331 13.293 9.29345L16.259 6.32745C15.1612 5.43592 13.7794 4.96882 12.3658 5.01141C10.9523 5.054 9.60113 5.60344 8.559 6.55945C8.39923 6.71842 8.25055 6.88815 8.114 7.06745C7.93491 7.32564 7.70445 7.54408 7.43706 7.70909C7.16966 7.87411 6.87107 7.98215 6.56 8.02645C4.8634 8.14127 3.26537 8.865 2.06 10.0645C-0.896004 13.0215 -0.640004 18.0895 2.635 21.3645C4.26505 23.0256 6.48679 23.9734 8.814 24.0005C9.7615 24.0131 10.7021 23.8376 11.5813 23.4841C12.4605 23.1307 13.2608 22.6063 13.936 21.9415C15.1354 20.7361 15.8592 19.138 15.974 17.4415C16.0183 17.1304 16.1263 16.8318 16.2914 16.5644C16.4564 16.297 16.6748 16.0665 16.933 15.8875C17.1123 15.7509 17.282 15.6022 17.441 15.4425C18.3959 14.3997 18.9445 13.0488 18.9871 11.6355C19.0297 10.2223 18.5634 8.84077 17.673 7.74245L14.707 10.7085C14.5193 10.8956 14.265 11.0007 14 11.0005ZM7.707 19.7075C7.51947 19.8949 7.26516 20.0002 7 20.0002C6.73483 20.0002 6.48052 19.8949 6.293 19.7075L4.293 17.7075C4.11084 17.5189 4.01004 17.2663 4.01232 17.0041C4.0146 16.7419 4.11977 16.491 4.30518 16.3056C4.49059 16.1202 4.7414 16.0151 5.00359 16.0128C5.26579 16.0105 5.51839 16.1113 5.707 16.2935L7.707 18.2935C7.89447 18.481 7.99978 18.7353 7.99978 19.0005C7.99978 19.2656 7.89447 19.5199 7.707 19.7075ZM10 17.0005C9.40665 17.0005 8.82663 16.8245 8.33329 16.4949C7.83994 16.1652 7.45542 15.6967 7.22836 15.1485C7.0013 14.6003 6.94188 13.9971 7.05764 13.4152C7.1734 12.8332 7.45912 12.2987 7.87868 11.8791C8.29823 11.4596 8.83278 11.1739 9.41473 11.0581C9.99667 10.9423 10.5999 11.0018 11.148 11.2288C11.6962 11.4559 12.1648 11.8404 12.4944 12.3337C12.824 12.8271 13 13.4071 13 14.0005C13 14.7961 12.6839 15.5592 12.1213 16.1218C11.5587 16.6844 10.7956 17.0005 10 17.0005ZM11 14.0005C11 14.1982 10.9413 14.3916 10.8315 14.556C10.7216 14.7205 10.5654 14.8486 10.3827 14.9243C10.2 15 9.99889 15.0198 9.80491 14.9812C9.61092 14.9427 9.43274 14.8474 9.29289 14.7076C9.15304 14.5677 9.0578 14.3895 9.01921 14.1955C8.98063 14.0016 9.00043 13.8005 9.07612 13.6178C9.1518 13.435 9.27998 13.2789 9.44443 13.169C9.60887 13.0591 9.80221 13.0005 10 13.0005C10.2652 13.0005 10.5196 13.1058 10.7071 13.2933C10.8946 13.4809 11 13.7352 11 14.0005ZM23.482 3.01845L23.268 3.23245C22.5397 3.9587 21.6378 4.48674 20.648 4.76645L17.673 7.74145C17.4785 7.46851 17.2639 7.21046 17.031 6.96945C16.79 6.73655 16.5319 6.52195 16.259 6.32745L19.234 3.35245C19.5137 2.36267 20.0418 1.4608 20.768 0.732454L20.982 0.518454C21.3153 0.195775 21.7621 0.017044 22.2261 0.0208103C22.69 0.0245766 23.1338 0.210538 23.4619 0.538587C23.7899 0.866636 23.9759 1.31048 23.9796 1.7744C23.9834 2.23831 23.8047 2.68512 23.482 3.01845Z" fill="#374957"/>
</g>
<defs>
<clipPath id="clip0_806_6563">
<rect width="24" height="24" fill="white"/>
</clipPath>
</defs>
</svg>
