<svg width="24" height="24" viewBox="0 0 24 24" fill="none" xmlns="http://www.w3.org/2000/svg">
<g clip-path="url(#clip0_806_6348)">
<path d="M16 4.01813C17.1157 4.06354 18.1967 4.4194 19.1212 5.04568C20.0456 5.67196 20.777 6.54381 21.233 7.56313L22.761 11.0001H17C16.7348 11.0001 16.4804 10.8948 16.2929 10.7072C16.1054 10.5197 16 10.2653 16 10.0001V4.01813ZM8.942 21.0001C8.97863 21.1643 8.99807 21.3319 9 21.5001C9 22.1632 8.73661 22.7991 8.26777 23.2679C7.79893 23.7367 7.16304 24.0001 6.5 24.0001C5.83696 24.0001 5.20107 23.7367 4.73223 23.2679C4.26339 22.7991 4 22.1632 4 21.5001C4.00193 21.3319 4.02137 21.1643 4.058 21.0001H8.942ZM19.942 21.0001C19.9786 21.1643 19.9981 21.3319 20 21.5001C20 22.1632 19.7366 22.7991 19.2678 23.2679C18.7989 23.7367 18.163 24.0001 17.5 24.0001C16.837 24.0001 16.2011 23.7367 15.7322 23.2679C15.2634 22.7991 15 22.1632 15 21.5001C15.0019 21.3319 15.0214 21.1643 15.058 21.0001H19.942ZM24 16.1221C24.0041 16.5116 23.9283 16.8978 23.7774 17.2569C23.6265 17.616 23.4036 17.9404 23.1225 18.2101C22.8415 18.4797 22.5081 18.6889 22.1431 18.8248C21.778 18.9607 21.389 19.0204 21 19.0001H3C2.20435 19.0001 1.44129 18.6841 0.87868 18.1215C0.31607 17.5588 0 16.7958 0 16.0001L0 9.00013C0.00158786 7.67453 0.528882 6.40369 1.46622 5.46635C2.40356 4.52901 3.67441 4.00172 5 4.00013H9.2L9.86 1.35813C9.95735 0.97038 10.1814 0.626258 10.4967 0.380385C10.8119 0.134511 11.2002 0.000976563 11.6 0.000976562C11.9998 0.000976562 12.3881 0.134511 12.7033 0.380385C13.0186 0.626258 13.2427 0.97038 13.34 1.35813L14 4.00013V10.0001C14 10.7958 14.3161 11.5588 14.8787 12.1214C15.4413 12.6841 16.2044 13.0001 17 13.0001H23.537C23.7931 14.0231 23.9482 15.0688 24 16.1221ZM10 12.0001C10 11.7349 9.89464 11.4806 9.70711 11.293C9.51957 11.1055 9.26522 11.0001 9 11.0001H8V10.0001C8 9.73491 7.89464 9.48056 7.70711 9.29302C7.51957 9.10549 7.26522 9.00013 7 9.00013C6.73478 9.00013 6.48043 9.10549 6.29289 9.29302C6.10536 9.48056 6 9.73491 6 10.0001V11.0001H5C4.73478 11.0001 4.48043 11.1055 4.29289 11.293C4.10536 11.4806 4 11.7349 4 12.0001C4 12.2653 4.10536 12.5197 4.29289 12.7072C4.48043 12.8948 4.73478 13.0001 5 13.0001H6V14.0001C6 14.2653 6.10536 14.5197 6.29289 14.7072C6.48043 14.8948 6.73478 15.0001 7 15.0001C7.26522 15.0001 7.51957 14.8948 7.70711 14.7072C7.89464 14.5197 8 14.2653 8 14.0001V13.0001H9C9.26522 13.0001 9.51957 12.8948 9.70711 12.7072C9.89464 12.5197 10 12.2653 10 12.0001Z" fill="#374957"/>
</g>
<defs>
<clipPath id="clip0_806_6348">
<rect width="24" height="24" fill="white"/>
</clipPath>
</defs>
</svg>
