<svg width="24" height="24" viewBox="0 0 24 24" fill="none" xmlns="http://www.w3.org/2000/svg">
<g clip-path="url(#clip0_806_6440)">
<path d="M24 11.5C23.9995 10.8103 23.7952 10.1362 23.4129 9.56231C23.0306 8.98837 22.4872 8.54016 21.851 8.27397C21.445 5.95633 20.2348 3.85608 18.4332 2.34264C16.6316 0.8292 14.354 -0.000488281 12.001 -0.000488281C9.64811 -0.000488281 7.37053 0.8292 5.56892 2.34264C3.7673 3.85608 2.55706 5.95633 2.15105 8.27397C1.42505 8.5794 0.823296 9.12079 0.443092 9.81057C0.0628883 10.5004 -0.0735387 11.2982 0.0558719 12.0752C0.185283 12.8521 0.572965 13.5626 1.15623 14.0919C1.73949 14.6213 2.48424 14.9384 3.27005 14.992C3.78654 16.088 4.487 17.0875 5.34105 17.947C4.08963 19.3134 3.29544 21.036 3.06905 22.875C3.05132 23.0156 3.06372 23.1585 3.1054 23.294C3.14708 23.4295 3.2171 23.5546 3.31082 23.661C3.40454 23.7674 3.5198 23.8526 3.64897 23.9111C3.77815 23.9695 3.91827 23.9998 4.06005 24H19.919C20.0608 23.9999 20.201 23.9697 20.3302 23.9114C20.4594 23.8531 20.5747 23.768 20.6685 23.6617C20.7623 23.5554 20.8325 23.4304 20.8743 23.2949C20.9161 23.1594 20.9286 23.0166 20.911 22.876C20.6863 21.0417 19.896 19.3228 18.65 17.958C19.5088 17.0959 20.2131 16.0926 20.732 14.992C21.6181 14.9331 22.4487 14.5396 23.0555 13.8912C23.6623 13.2428 24 12.388 24 11.5ZM20.248 12.973C20.0148 12.9302 19.774 12.9724 19.5691 13.0918C19.3642 13.2112 19.2088 13.4 19.131 13.624C18.215 16.222 15.13 19 12 19C8.87005 19 5.78505 16.22 4.86905 13.622C4.79108 13.3981 4.63567 13.2094 4.43084 13.0901C4.22602 12.9707 3.98527 12.9284 3.75205 12.971C3.66894 12.9873 3.58468 12.997 3.50005 13C3.12883 12.9955 2.77245 12.8536 2.49983 12.6016C2.22721 12.3496 2.05771 12.0055 2.02412 11.6358C1.99053 11.2661 2.09524 10.897 2.31799 10.6C2.54074 10.3031 2.86571 10.0992 3.23005 10.028C3.44266 9.98943 3.63707 9.88305 3.78417 9.72478C3.93127 9.5665 4.02315 9.36483 4.04605 9.14997C4.19136 7.76195 4.69877 6.43647 5.51749 5.30624C6.3362 4.17601 7.43748 3.2807 8.71105 2.70997C8.50041 3.2458 8.42388 3.82498 8.4881 4.39713C8.55233 4.96928 8.75537 5.51707 9.07957 5.99286C9.40377 6.46865 9.8393 6.85803 10.3483 7.12712C10.8573 7.39622 11.4243 7.53689 12 7.53689C12.5758 7.53689 13.1428 7.39622 13.6518 7.12712C14.1608 6.85803 14.5963 6.46865 14.9205 5.99286C15.2447 5.51707 15.4478 4.96928 15.512 4.39713C15.5762 3.82498 15.4997 3.2458 15.289 2.70997C16.5626 3.2807 17.6639 4.17601 18.4826 5.30624C19.3013 6.43647 19.8087 7.76195 19.954 9.14997C19.9769 9.36483 20.0688 9.5665 20.2159 9.72478C20.363 9.88305 20.5574 9.98943 20.77 10.028C21.1344 10.0992 21.4594 10.3031 21.6821 10.6C21.9049 10.897 22.0096 11.2661 21.976 11.6358C21.9424 12.0055 21.7729 12.3496 21.5003 12.6016C21.2276 12.8536 20.8713 12.9955 20.5 13C20.4155 12.9976 20.3312 12.9886 20.248 12.973Z" fill="#374957"/>
<path d="M9.5 13C10.3284 13 11 12.3284 11 11.5C11 10.6716 10.3284 10 9.5 10C8.67157 10 8 10.6716 8 11.5C8 12.3284 8.67157 13 9.5 13Z" fill="#374957"/>
<path d="M14.5 13C15.3284 13 16 12.3284 16 11.5C16 10.6716 15.3284 10 14.5 10C13.6716 10 13 10.6716 13 11.5C13 12.3284 13.6716 13 14.5 13Z" fill="#374957"/>
</g>
<defs>
<clipPath id="clip0_806_6440">
<rect width="24" height="24" fill="white"/>
</clipPath>
</defs>
</svg>
