<svg width="24" height="24" viewBox="0 0 24 24" fill="none" xmlns="http://www.w3.org/2000/svg">
<g clip-path="url(#clip0_806_6695)">
<path d="M17.244 3.99939C16.9643 3.71977 16.608 3.52936 16.2201 3.45223C15.8322 3.37509 15.4301 3.4147 15.0647 3.56604C14.6993 3.71738 14.387 3.97365 14.1672 4.30247C13.9474 4.63129 13.8301 5.01789 13.83 5.41339V6.99939H9C6.61386 7.00203 4.32622 7.95109 2.63896 9.63835C0.951708 11.3256 0.00264685 13.6132 0 15.9994L0 22.9994C0 23.2646 0.105357 23.5189 0.292893 23.7065C0.48043 23.894 0.734784 23.9994 1 23.9994C1.26522 23.9994 1.51957 23.894 1.70711 23.7065C1.89464 23.5189 2 23.2646 2 22.9994C2.00159 21.4086 2.63424 19.8834 3.75911 18.7585C4.88399 17.6336 6.40919 17.001 8 16.9994H13.83V18.5854C13.8301 18.9809 13.9474 19.3675 14.1672 19.6963C14.387 20.0251 14.6993 20.2814 15.0647 20.4327C15.4301 20.5841 15.8322 20.6237 16.2201 20.5465C16.608 20.4694 16.9643 20.279 17.244 19.9994L23.123 14.1204C23.6854 13.5578 24.0014 12.7949 24.0014 11.9994C24.0014 11.2039 23.6854 10.441 23.123 9.87838L17.244 3.99939Z" fill="#374957"/>
</g>
<defs>
<clipPath id="clip0_806_6695">
<rect width="24" height="24" fill="white"/>
</clipPath>
</defs>
</svg>
