<svg width="24" height="24" viewBox="0 0 24 24" fill="none" xmlns="http://www.w3.org/2000/svg">
<g clip-path="url(#clip0_806_6535)">
<path d="M15.7461 18.2544C15.7461 16.7544 14.7151 14.7044 12.8461 12.4814C12.7427 12.358 12.6131 12.259 12.4668 12.1918C12.3205 12.1245 12.1611 12.0905 12.0001 12.0924C11.8379 12.0916 11.6775 12.1262 11.53 12.1937C11.3825 12.2613 11.2515 12.3601 11.1461 12.4834C9.10009 14.8804 8.10009 17.0004 8.27309 18.6254C8.34117 19.1391 8.51736 19.6327 8.79004 20.0734C9.06273 20.5141 9.42572 20.8921 9.85509 21.1824C10.4625 21.6804 11.2153 21.9675 12.0001 22.0004C12.9933 21.9993 13.9455 21.6043 14.6477 20.902C15.35 20.1997 15.745 19.2475 15.7461 18.2544Z" fill="#374957"/>
<path d="M16.629 2.90057C15.843 2.23257 15.018 1.53257 14.178 0.768572C13.8595 0.479404 13.4817 0.263345 13.0709 0.13552C12.6601 0.00769551 12.2264 -0.0288056 11.8 0.0285721C11.3868 0.0832985 10.9907 0.228092 10.6396 0.452723C10.2884 0.677355 9.99093 0.976344 9.76804 1.32857C8.57643 3.3204 7.73366 5.50107 7.27604 7.77657C7.09701 7.51733 6.93788 7.24488 6.80004 6.96157C6.6585 6.66336 6.44535 6.40481 6.17959 6.209C5.91384 6.01319 5.60375 5.88621 5.27699 5.83937C4.95023 5.79253 4.61696 5.82731 4.3069 5.94058C3.99685 6.05386 3.71965 6.24212 3.50004 6.48857C1.82335 8.20297 0.893906 10.5117 0.915043 12.9096C0.891855 15.359 1.68847 17.7458 3.17816 19.6904C4.66784 21.6349 6.76502 23.0253 9.13604 23.6406C10.0439 23.869 10.9759 23.9872 11.912 23.9926C10.7158 23.948 9.56596 23.5179 8.63404 22.7666C7.98845 22.3122 7.44562 21.7272 7.04077 21.0494C6.63591 20.3717 6.3781 19.6164 6.28404 18.8326C6.05404 16.6226 7.17704 14.0496 9.62204 11.1856C9.91536 10.8417 10.28 10.5659 10.6906 10.3771C11.1013 10.1884 11.5481 10.0913 12 10.0926H12.01C12.4607 10.0929 12.9058 10.1915 13.3144 10.3815C13.723 10.5715 14.0853 10.8483 14.376 11.1926C15.914 13.0196 17.749 15.7276 17.749 18.2536C17.7468 19.7093 17.1925 21.1099 16.1978 22.1729C15.2032 23.2358 13.8424 23.8818 12.39 23.9806C15.2617 23.8881 17.9845 22.6813 19.9818 20.6159C21.9791 18.5505 23.0939 15.7887 23.09 12.9156C23.085 8.38557 20.093 5.84557 16.629 2.90057Z" fill="#374957"/>
</g>
<defs>
<clipPath id="clip0_806_6535">
<rect width="24" height="24" fill="white"/>
</clipPath>
</defs>
</svg>
