<svg width="24" height="24" viewBox="0 0 24 24" fill="none" xmlns="http://www.w3.org/2000/svg">
<path d="M7.38991 3.06795C7.77909 2.16846 8.42291 1.40248 9.24204 0.864372C10.0612 0.326267 11.0198 0.0395508 11.9999 0.0395508C12.98 0.0395508 13.9386 0.326267 14.7578 0.864372C15.5769 1.40248 16.2207 2.16846 16.6099 3.06795C15.6704 3.19867 14.7709 3.53344 13.9745 4.04876C13.1781 4.56409 12.5041 5.24747 11.9999 6.05095C11.4949 5.24816 10.8208 4.56529 10.0245 4.05006C9.22827 3.53483 8.32913 3.19965 7.38991 3.06795ZM10.9999 9.49995C10.7539 3.21095 1.53291 3.75695 2.03491 10.024C4.90675 10.5715 7.81833 10.8849 10.7409 10.961C10.9088 10.492 10.9964 9.99805 10.9999 9.49995ZM17.4999 4.99995C16.7845 5.00237 16.08 5.17531 15.4448 5.50445C14.8096 5.83359 14.262 6.30943 13.8475 6.8925C13.433 7.47558 13.1634 8.14908 13.0612 8.85716C12.9591 9.56523 13.0272 10.2875 13.2599 10.964C16.1825 10.8952 19.0943 10.5828 21.9649 10.03C22.0388 9.39918 21.9784 8.75992 21.7879 8.15409C21.5974 7.54826 21.2809 6.98956 20.8593 6.5146C20.4377 6.03965 19.9205 5.65918 19.3415 5.39815C18.7626 5.13712 18.135 5.00142 17.4999 4.99995ZM2.73591 12.1899C2.74991 12.219 9.01891 22.333 9.01891 22.333C9.336 22.8368 9.77567 23.252 10.2968 23.5398C10.818 23.8276 11.4036 23.9786 11.9989 23.9786C12.5942 23.9786 13.1799 23.8276 13.701 23.5398C14.2222 23.252 14.6618 22.8368 14.9789 22.333C14.9789 22.333 21.2479 12.224 21.2609 12.2C18.202 12.7275 15.104 12.9951 11.9999 13C8.89468 12.9897 5.7958 12.7188 2.73591 12.1899Z" fill="#374957"/>
</svg>
