<svg width="24" height="24" viewBox="0 0 24 24" fill="none" xmlns="http://www.w3.org/2000/svg">
<path d="M20.9997 12.4238V10.9998C20.9997 8.61281 20.0515 6.32362 18.3637 4.63579C16.6758 2.94797 14.3867 1.99976 11.9997 1.99976C9.61276 1.99976 7.32357 2.94797 5.63575 4.63579C3.94792 6.32362 2.99971 8.61281 2.99971 10.9998V12.4238C1.95087 12.8856 1.09251 13.6937 0.568328 14.7128C0.0441491 15.7319 -0.114033 16.9002 0.120264 18.022C0.354561 19.1438 0.967114 20.1511 1.85538 20.8752C2.74364 21.5993 3.85369 21.9963 4.99971 21.9998C5.53014 21.9998 6.03885 21.789 6.41392 21.414C6.78899 21.0389 6.99971 20.5302 6.99971 19.9998V13.9998C6.99971 13.4693 6.78899 12.9606 6.41392 12.5855C6.03885 12.2105 5.53014 11.9998 4.99971 11.9998V10.9998C4.99971 9.14324 5.7372 7.36276 7.04996 6.05001C8.36271 4.73725 10.1432 3.99976 11.9997 3.99976C13.8562 3.99976 15.6367 4.73725 16.9495 6.05001C18.2622 7.36276 18.9997 9.14324 18.9997 10.9998V11.9998C18.4693 11.9998 17.9606 12.2105 17.5855 12.5855C17.2104 12.9606 16.9997 13.4693 16.9997 13.9998V19.9998C16.9997 20.5302 17.2104 21.0389 17.5855 21.414C17.9606 21.789 18.4693 21.9998 18.9997 21.9998C20.1457 21.9963 21.2558 21.5993 22.144 20.8752C23.0323 20.1511 23.6449 19.1438 23.8791 18.022C24.1134 16.9002 23.9553 15.7319 23.4311 14.7128C22.9069 13.6937 22.0485 12.8856 20.9997 12.4238Z" fill="#374957"/>
</svg>
