<svg width="24" height="24" viewBox="0 0 24 24" fill="none" xmlns="http://www.w3.org/2000/svg">
<g clip-path="url(#clip0_806_6530)">
<path d="M19.0513 0H5.05127C3.72567 0.00158786 2.45483 0.528882 1.51749 1.46622C0.580151 2.40356 0.0528574 3.67441 0.0512695 5V19C0.0528574 20.3256 0.580151 21.5964 1.51749 22.5338C2.45483 23.4711 3.72567 23.9984 5.05127 24H19.0513C20.3769 23.9984 21.6477 23.4711 22.585 22.5338C23.5224 21.5964 24.0497 20.3256 24.0513 19V5C24.0497 3.67441 23.5224 2.40356 22.585 1.46622C21.6477 0.528882 20.3769 0.00158786 19.0513 0V0ZM20.0513 11H22.0513V13H20.0513V11ZM20.0513 9V7H22.0513V9H20.0513ZM4.05127 13H2.05127V11H4.05127V13ZM6.00027 13V11H18.0003V13H6.00027ZM4.05127 9H2.05127V7H4.05127V9ZM2.05127 15H4.05127V17H2.05127V15ZM20.0513 15H22.0513V17H20.0513V15ZM22.0513 5H20.0513V2.184C20.6342 2.39008 21.1392 2.77123 21.4972 3.2753C21.8552 3.77937 22.0487 4.38174 22.0513 5ZM4.05127 2.184V5H2.05127C2.05383 4.38174 2.24735 3.77937 2.60536 3.2753C2.96336 2.77123 3.46836 2.39008 4.05127 2.184ZM2.05127 19H4.05127V21.816C3.46836 21.6099 2.96336 21.2288 2.60536 20.7247C2.24735 20.2206 2.05383 19.6183 2.05127 19ZM20.0513 21.816V19H22.0513C22.0487 19.6183 21.8552 20.2206 21.4972 20.7247C21.1392 21.2288 20.6342 21.6099 20.0513 21.816Z" fill="#374957"/>
</g>
<defs>
<clipPath id="clip0_806_6530">
<rect width="24" height="24" fill="white"/>
</clipPath>
</defs>
</svg>
