<svg width="24" height="24" viewBox="0 0 24 24" fill="none" xmlns="http://www.w3.org/2000/svg">
<g clip-path="url(#clip0_806_6594)">
<path d="M12.5873 7L4.10029 15.485L7.24229 3.712C7.37858 3.20827 7.5932 2.72909 7.87829 2.292L12.5873 7ZM17.2873 13.757C17.791 13.6207 18.2702 13.4061 18.7073 13.121L14.0003 8.415L5.52029 16.9L17.2873 13.757ZM20.1293 11.715C20.692 10.8937 20.9954 9.92254 21.0003 8.927V5C21 4.02076 20.7105 3.06341 20.1683 2.248L15.4153 7L20.1293 11.715ZM16.0003 3.96908e-08H12.0733C11.0775 0.00440329 10.106 0.307469 9.28429 0.87L14.0003 5.587L18.7543 0.834C17.9388 0.290081 16.9805 -0.000123913 16.0003 3.96908e-08ZM24.0003 21.5V23C24.0003 23.2652 23.8949 23.5196 23.7074 23.7071C23.5199 23.8946 23.2655 24 23.0003 24C22.7351 24 22.4807 23.8946 22.2932 23.7071C22.1056 23.5196 22.0003 23.2652 22.0003 23V21.4C22.0161 20.5821 21.7318 19.7868 21.2012 19.1642C20.6706 18.5417 19.9303 18.135 19.1203 18.021C18.6257 17.964 18.1246 18.0221 17.6562 18.1909C17.1878 18.3597 16.7648 18.6346 16.4203 18.994C15.0508 20.5156 13.3871 21.7437 11.5296 22.6041C9.67212 23.4645 7.65947 23.9394 5.61329 24H3.62729C2.96756 24.0599 2.30461 23.9272 1.71885 23.6178C1.13309 23.3084 0.649695 22.8357 0.327286 22.257C0.0335049 21.6736 -0.0672774 21.012 0.0394906 20.3676C0.146259 19.7232 0.455052 19.1294 0.921286 18.672L3.29829 16.293C3.39118 16.1999 3.50153 16.126 3.62302 16.0756C3.74451 16.0252 3.87475 15.9992 4.00629 15.9992C4.13782 15.9992 4.26806 16.0252 4.38955 16.0756C4.51104 16.126 4.6214 16.1999 4.71429 16.293C4.90115 16.4804 5.00607 16.7343 5.00607 16.999C5.00607 17.2637 4.90115 17.5176 4.71429 17.705L2.33029 20.086C2.17338 20.2428 2.0665 20.4426 2.0232 20.6601C1.97989 20.8777 2.00209 21.1032 2.08699 21.3081C2.17189 21.513 2.31567 21.6881 2.50014 21.8113C2.68461 21.9345 2.90148 22.0001 3.12329 22H4.27429C8.35534 21.9282 12.253 20.2919 15.1623 17.429C15.6603 16.9561 16.247 16.5863 16.8885 16.3411C17.5301 16.0958 18.2138 15.9799 18.9003 16C20.288 16.1028 21.5853 16.7272 22.5314 17.7475C23.4775 18.7678 24.0023 20.1085 24.0003 21.5Z" fill="#374957"/>
</g>
<defs>
<clipPath id="clip0_806_6594">
<rect width="24" height="24" fill="white"/>
</clipPath>
</defs>
</svg>
