<svg width="24" height="24" viewBox="0 0 24 24" fill="none" xmlns="http://www.w3.org/2000/svg">
<g clip-path="url(#clip0_806_6533)">
<path d="M10.9998 5.27223C8.23575 5.48002 5.56861 6.3811 3.24485 7.89223C3.54871 6.6814 4.19226 5.58261 5.09971 4.7253C6.00716 3.86799 7.14071 3.28785 8.36685 3.05323C8.6913 2.98796 9.0263 2.99674 9.34689 3.0789C9.66748 3.16106 9.96541 3.31449 10.2185 3.52777C10.4715 3.74104 10.6732 4.00867 10.8085 4.31071C10.9438 4.61274 11.0092 4.94141 10.9998 5.27223ZM23.6538 5.24923C23.2906 4.75228 22.8299 4.33459 22.2998 4.02167C21.7697 3.70875 21.1814 3.50717 20.5708 3.42923C20.4929 2.81864 20.2913 2.23034 19.9784 1.70026C19.6655 1.17019 19.2478 0.709467 18.7508 0.346233C18.496 0.154442 18.1928 0.0373922 17.8751 0.00819164C17.5575 -0.0210089 17.238 0.0387932 16.9524 0.180901C16.6669 0.323008 16.4265 0.541809 16.2583 0.812798C16.09 1.08379 16.0005 1.39626 15.9998 1.71523V7.00023C8.48285 7.00023 4.19385 8.43723 1.96285 12.1942C4.3303 12.8127 6.48994 14.0514 8.21909 15.7826C9.94825 17.5139 11.1843 19.675 11.7998 22.0432C15.5608 19.8132 16.9998 15.5232 16.9998 8.00023H22.2848C22.6038 7.99954 22.9163 7.91006 23.1873 7.74181C23.4583 7.57357 23.6771 7.33321 23.8192 7.04764C23.9613 6.76208 24.0211 6.44259 23.9919 6.12496C23.9627 5.80733 23.8456 5.5041 23.6538 5.24923ZM19.1999 13.0002H18.7248C18.574 14.3552 18.3019 15.6939 17.9118 17.0002H18.7258C21.2128 17.0772 22.0119 13.1242 19.1999 13.0002ZM9.95085 22.9112C7.55085 23.5992 3.41385 25.0542 1.17085 22.8292C0.768045 22.4276 0.455926 21.9444 0.255491 21.4121C0.0550564 20.8798 -0.0290439 20.3108 0.0088488 19.7432C0.101606 17.8021 0.465465 15.8835 1.08985 14.0432C3.2547 14.5312 5.2366 15.6236 6.80517 17.1934C8.37375 18.7632 9.46457 20.746 9.95085 22.9112ZM4.99985 20.0002C4.99985 19.735 4.89449 19.4807 4.70696 19.2931C4.51942 19.1056 4.26507 19.0002 3.99985 19.0002C3.73463 19.0002 3.48028 19.1056 3.29274 19.2931C3.10521 19.4807 2.99985 19.735 2.99985 20.0002C2.99985 20.2654 3.10521 20.5198 3.29274 20.7073C3.48028 20.8949 3.73463 21.0002 3.99985 21.0002C4.26507 21.0002 4.51942 20.8949 4.70696 20.7073C4.89449 20.5198 4.99985 20.2654 4.99985 20.0002Z" fill="#374957"/>
</g>
<defs>
<clipPath id="clip0_806_6533">
<rect width="24" height="24" fill="white"/>
</clipPath>
</defs>
</svg>
