<svg width="24" height="24" viewBox="0 0 24 24" fill="none" xmlns="http://www.w3.org/2000/svg">
<g clip-path="url(#clip0_806_6369)">
<path d="M4.94315 5.60588L1.02415 9.52488C0.387771 10.1917 0.0327148 11.0781 0.0327148 11.9999C0.0327148 12.9217 0.387771 13.808 1.02415 14.4749L4.94315 18.3939C5.08152 18.5372 5.24703 18.6514 5.43004 18.73C5.61305 18.8087 5.80988 18.85 6.00904 18.8518C6.20821 18.8535 6.40573 18.8155 6.59008 18.7401C6.77442 18.6647 6.9419 18.5533 7.08274 18.4125C7.22358 18.2716 7.33496 18.1042 7.41038 17.9198C7.4858 17.7355 7.52375 17.538 7.52202 17.3388C7.52029 17.1396 7.47891 16.9428 7.4003 16.7598C7.32169 16.5768 7.20741 16.4113 7.06415 16.2729L4.28515 13.4919L22.5351 13.4689C22.933 13.4689 23.3145 13.3109 23.5958 13.0295C23.8771 12.7482 24.0351 12.3667 24.0351 11.9689C24.0351 11.5711 23.8771 11.1895 23.5958 10.9082C23.3145 10.6269 22.933 10.4689 22.5351 10.4689L4.30015 10.4919L7.06415 7.72688C7.33738 7.44398 7.48858 7.06508 7.48516 6.67178C7.48174 6.27849 7.32399 5.90227 7.04587 5.62415C6.76776 5.34604 6.39154 5.18829 5.99825 5.18487C5.60495 5.18145 5.22605 5.33265 4.94315 5.60588Z" fill="#374957"/>
</g>
<defs>
<clipPath id="clip0_806_6369">
<rect width="24" height="24" fill="white"/>
</clipPath>
</defs>
</svg>
