<svg width="24" height="24" viewBox="0 0 24 24" fill="none" xmlns="http://www.w3.org/2000/svg">
<g clip-path="url(#clip0_806_6697)">
<path d="M11.9999 2.00033C14.6792 2.00914 17.2436 3.08934 19.1217 5.00023H15.9997C15.4475 5.00023 14.9998 5.44792 14.9998 6.00019C14.9998 6.55245 15.4475 7.00014 15.9997 7.00014H20.1426C21.1679 6.99958 21.999 6.16851 21.9996 5.1432V1.00033C21.9996 0.448063 21.5519 0.000374387 20.9996 0.000374387C20.4473 0.000374387 19.9996 0.448063 19.9996 1.00033V3.07828C15.0829 -1.34972 7.50757 -0.953549 3.07957 3.96316C1.3467 5.88732 0.283841 8.32113 0.0502706 10.9C-0.00110281 11.4538 0.406181 11.9443 0.959945 11.9957C0.989944 11.9985 1.02008 11.9999 1.05027 12C1.55711 12.0065 1.98559 11.6261 2.03926 11.122C2.50058 5.96292 6.82022 2.00712 11.9999 2.00033Z" fill="#374957"/>
<path d="M22.9508 12.0001C22.444 11.9936 22.0155 12.374 21.9618 12.8781C21.4846 18.3723 16.6438 22.4394 11.1495 21.9622C8.77235 21.7557 6.54769 20.7048 4.87838 18.9998H8.0003C8.55257 18.9998 9.00025 18.5522 9.00025 17.9999C9.00025 17.4476 8.55257 16.9999 8.0003 16.9999H3.85743C2.8324 16.9994 2.00105 17.8299 2.00049 18.8549C2.00049 18.8555 2.00049 18.8562 2.00049 18.8569V22.9998C2.00049 23.552 2.44818 23.9997 3.00044 23.9997C3.55271 23.9997 4.00039 23.552 4.00039 22.9998V20.9218C8.9171 25.3498 16.4924 24.9536 20.9204 20.0369C22.6533 18.1128 23.7162 15.679 23.9498 13.1C24.0011 12.5463 23.5939 12.0557 23.0401 12.0043C23.0104 12.0016 22.9806 12.0002 22.9508 12.0001Z" fill="#374957"/>
</g>
<defs>
<clipPath id="clip0_806_6697">
<rect width="24" height="24" fill="white"/>
</clipPath>
</defs>
</svg>
