<svg width="24" height="24" viewBox="0 0 24 24" fill="none" xmlns="http://www.w3.org/2000/svg">
<g clip-path="url(#clip0_806_6409)">
<path d="M20.0439 1.02C24.1999 0.761 25.7099 9.091 21.4999 12.932C20.8906 13.5685 20.162 14.0787 19.3556 14.4335C18.5491 14.7884 17.6807 14.9808 16.7999 15C15.4993 15.0207 14.2076 14.7828 12.9999 14.3V5.38C15.0179 3.134 17.5119 1.02 20.0439 1.02ZM11.9999 4C12.5303 4 13.039 3.78929 13.4141 3.41421C13.7891 3.03914 13.9999 2.53043 13.9999 2C13.9999 1.46957 13.7891 0.960859 13.4141 0.585786C13.039 0.210714 12.5303 0 11.9999 0C11.4694 0 10.9607 0.210714 10.5856 0.585786C10.2106 0.960859 9.99986 1.46957 9.99986 2C9.99986 2.53043 10.2106 3.03914 10.5856 3.41421C10.9607 3.78929 11.4694 4 11.9999 4ZM16.7909 17C15.1412 17.0086 13.5084 16.6678 11.9999 16C9.89986 17.11 4.79986 17.783 1.78686 14.975C1.37072 15.7569 1.11608 16.6146 1.03809 17.4969C0.960094 18.3792 1.06034 19.2682 1.33286 20.111C1.50121 20.6837 1.79495 21.2118 2.19278 21.6568C2.59061 22.1018 3.08254 22.4527 3.63286 22.684C4.1668 22.9125 4.74492 23.0192 5.32525 22.9963C5.90557 22.9735 6.47352 22.8217 6.98786 22.552C8.4665 21.7852 9.81942 20.7971 10.9999 19.622V22C10.9999 22.2652 11.1052 22.5196 11.2928 22.7071C11.4803 22.8946 11.7346 23 11.9999 23C12.2651 23 12.5194 22.8946 12.707 22.7071C12.8945 22.5196 12.9999 22.2652 12.9999 22V19.622C14.1821 20.7976 15.5371 21.7857 17.0179 22.552C17.5322 22.8217 18.1002 22.9735 18.6805 22.9963C19.2608 23.0192 19.8389 22.9125 20.3729 22.684C20.9232 22.4527 21.4151 22.1018 21.8129 21.6568C22.2108 21.2118 22.5045 20.6837 22.6729 20.111C22.9454 19.2682 23.0456 18.3792 22.9676 17.4969C22.8896 16.6146 22.635 15.7569 22.2189 14.975C20.6994 16.2596 18.7804 16.9755 16.7909 17ZM7.20586 15C8.50432 15.0193 9.79376 14.7813 10.9999 14.3V5.373C7.51986 1.116 0.238859 -2.567 0.00585938 7.284C0.0691356 9.42131 0.966481 11.4489 2.50586 12.933C3.74339 14.208 5.42973 14.9497 7.20586 15Z" fill="#374957"/>
</g>
<defs>
<clipPath id="clip0_806_6409">
<rect width="24" height="24" fill="white"/>
</clipPath>
</defs>
</svg>
