<svg width="24" height="24" viewBox="0 0 24 24" fill="none" xmlns="http://www.w3.org/2000/svg">
<g clip-path="url(#clip0_806_6578)">
<path d="M17.0003 24H7.00534C6.42695 23.9994 5.85549 23.8741 5.32998 23.6325C4.80448 23.3908 4.3373 23.0387 3.96034 22.6C3.58951 22.1705 3.31571 21.666 3.15763 21.121C2.99955 20.576 2.96091 20.0033 3.04434 19.442C3.58083 16.5173 5.14096 13.8792 7.44534 12C5.14093 10.1202 3.58112 7.48124 3.04534 4.556C2.96207 3.99509 3.0007 3.42283 3.1586 2.8782C3.3165 2.33357 3.58996 1.82939 3.96034 1.4C4.3373 0.961326 4.80448 0.60916 5.32998 0.367548C5.85549 0.125935 6.42695 0.000566288 7.00534 0L17.0003 0C17.5786 0.000512143 18.1499 0.125862 18.6753 0.367483C19.2006 0.609104 19.6676 0.9613 20.0443 1.4C20.4152 1.82895 20.6892 2.33285 20.8476 2.87732C21.0061 3.42179 21.0452 3.99403 20.9623 4.555C20.4207 7.48095 18.8574 10.1194 16.5513 12C18.8561 13.8822 20.4175 16.5217 20.9573 19.448C21.0403 20.0091 21.0012 20.5815 20.8428 21.1262C20.6843 21.6708 20.4103 22.1749 20.0393 22.604C19.6628 23.0413 19.1964 23.3924 18.672 23.6333C18.1476 23.8742 17.5774 23.9993 17.0003 24Z" fill="#374957"/>
</g>
<defs>
<clipPath id="clip0_806_6578">
<rect width="24" height="24" fill="white"/>
</clipPath>
</defs>
</svg>
