<svg width="24" height="24" viewBox="0 0 24 24" fill="none" xmlns="http://www.w3.org/2000/svg">
<path d="M17.7918 7.21196C17.3475 5.30124 16.2165 3.62041 14.614 2.48895C13.0114 1.35748 11.049 0.854279 9.09978 1.07498C7.15052 1.29568 5.3503 2.22489 4.0413 3.686C2.7323 5.14712 2.00578 7.03826 1.99984 8.99996C1.99898 10.2784 2.30778 11.5379 2.89984 12.671C1.82097 13.2491 0.966238 14.1712 0.471458 15.2908C-0.0233229 16.4103 -0.129776 17.6631 0.16901 18.8501C0.467797 20.0371 1.15469 21.0902 2.12054 21.8421C3.0864 22.594 4.27583 23.0015 5.49984 23H15.9998C17.9589 22.9909 19.8466 22.2632 21.3049 20.955C22.7632 19.6468 23.6907 17.8489 23.9117 15.9023C24.1326 13.9557 23.6316 11.9957 22.5036 10.3939C21.3756 8.79209 19.6991 7.65989 17.7918 7.21196Z" fill="#374957"/>
</svg>
