<svg width="24" height="24" viewBox="0 0 24 24" fill="none" xmlns="http://www.w3.org/2000/svg">
<g clip-path="url(#clip0_806_6686)">
<path d="M13 23.9991C11.4092 23.9975 9.88399 23.3649 8.75911 22.24C7.63424 21.1151 7.00159 19.5899 7 17.9991C7 16.4391 8.2 13.9541 10.552 10.6111C10.8313 10.2221 11.1991 9.90522 11.6252 9.68662C12.0512 9.46802 12.5232 9.354 13.002 9.354C13.4808 9.354 13.9528 9.46802 14.3788 9.68662C14.8049 9.90522 15.1727 10.2221 15.452 10.6111C17.805 13.9541 19 16.4391 19 17.9991C18.9984 19.5899 18.3658 21.1151 17.2409 22.24C16.116 23.3649 14.5908 23.9975 13 23.9991Z" fill="#374957"/>
<path d="M5 11C3.67441 10.9984 2.40356 10.4711 1.46622 9.5338C0.528882 8.59646 0.00158786 7.32561 0 6.00002C0 4.74002 0.842 3.14502 2.574 1.12302C2.87441 0.773767 3.24669 0.493497 3.66538 0.301364C4.08408 0.109231 4.53932 0.00976563 5 0.00976562C5.46068 0.00976563 5.91592 0.109231 6.33462 0.301364C6.75331 0.493497 7.12559 0.773767 7.426 1.12302C9.158 3.14302 10 4.73802 10 6.00002C9.99841 7.32561 9.47112 8.59646 8.53378 9.5338C7.59644 10.4711 6.32559 10.9984 5 11Z" fill="#374957"/>
<path d="M19.5 9.96416C18.3069 9.96284 17.1631 9.48831 16.3195 8.64468C15.4759 7.80105 15.0013 6.65723 15 5.46416C15 4.37316 15.7 2.95816 17.146 1.13816C17.429 0.786021 17.7874 0.50186 18.1948 0.306613C18.6022 0.111367 19.0482 0.0100098 19.5 0.0100098C19.9518 0.0100098 20.3978 0.111367 20.8052 0.306613C21.2126 0.50186 21.571 0.786021 21.854 1.13816C23.3 2.95816 24 4.37316 24 5.46416C23.9987 6.65723 23.5241 7.80105 22.6805 8.64468C21.8369 9.48831 20.6931 9.96284 19.5 9.96416Z" fill="#374957"/>
</g>
<defs>
<clipPath id="clip0_806_6686">
<rect width="24" height="24" fill="white"/>
</clipPath>
</defs>
</svg>
