<svg width="24" height="24" viewBox="0 0 24 24" fill="none" xmlns="http://www.w3.org/2000/svg">
<g clip-path="url(#clip0_806_6640)">
<path d="M19 4.00024H5C3.67441 4.00183 2.40356 4.52913 1.46622 5.46646C0.528882 6.4038 0.00158786 7.67465 0 9.00024L0 15.0002C0.00158786 16.3258 0.528882 17.5967 1.46622 18.534C2.40356 19.4714 3.67441 19.9987 5 20.0002H19C20.3256 19.9987 21.5964 19.4714 22.5338 18.534C23.4711 17.5967 23.9984 16.3258 24 15.0002V9.00024C23.9984 7.67465 23.4711 6.4038 22.5338 5.46646C21.5964 4.52913 20.3256 4.00183 19 4.00024ZM4 17.0002C3.80222 17.0002 3.60888 16.9416 3.44443 16.8317C3.27998 16.7218 3.15181 16.5657 3.07612 16.3829C3.00043 16.2002 2.98063 15.9991 3.01921 15.8052C3.0578 15.6112 3.15304 15.433 3.29289 15.2931C3.43275 15.1533 3.61093 15.058 3.80491 15.0195C3.99889 14.9809 4.19996 15.0007 4.38268 15.0764C4.56541 15.1521 4.72159 15.2802 4.83147 15.4447C4.94135 15.6091 5 15.8025 5 16.0002C5 16.2655 4.89464 16.5198 4.70711 16.7074C4.51957 16.8949 4.26522 17.0002 4 17.0002ZM4 9.00024C3.80222 9.00024 3.60888 8.9416 3.44443 8.83171C3.27998 8.72183 3.15181 8.56565 3.07612 8.38293C3.00043 8.2002 2.98063 7.99913 3.01921 7.80515C3.0578 7.61117 3.15304 7.43299 3.29289 7.29314C3.43275 7.15329 3.61093 7.05804 3.80491 7.01946C3.99889 6.98087 4.19996 7.00068 4.38268 7.07636C4.56541 7.15205 4.72159 7.28022 4.83147 7.44467C4.94135 7.60912 5 7.80246 5 8.00024C5 8.26546 4.89464 8.51981 4.70711 8.70735C4.51957 8.89489 4.26522 9.00024 4 9.00024ZM12 16.0002C11.2089 16.0002 10.4355 15.7656 9.77772 15.3261C9.11992 14.8866 8.60723 14.2619 8.30448 13.531C8.00173 12.8001 7.92252 11.9958 8.07686 11.2199C8.2312 10.444 8.61216 9.73123 9.17157 9.17182C9.73098 8.61241 10.4437 8.23144 11.2196 8.0771C11.9956 7.92276 12.7998 8.00198 13.5307 8.30473C14.2616 8.60748 14.8864 9.12017 15.3259 9.77796C15.7654 10.4358 16 11.2091 16 12.0002C16 13.0611 15.5786 14.0785 14.8284 14.8287C14.0783 15.5788 13.0609 16.0002 12 16.0002ZM20 17.0002C19.8022 17.0002 19.6089 16.9416 19.4444 16.8317C19.28 16.7218 19.1518 16.5657 19.0761 16.3829C19.0004 16.2002 18.9806 15.9991 19.0192 15.8052C19.0578 15.6112 19.153 15.433 19.2929 15.2931C19.4327 15.1533 19.6109 15.058 19.8049 15.0195C19.9989 14.9809 20.2 15.0007 20.3827 15.0764C20.5654 15.1521 20.7216 15.2802 20.8315 15.4447C20.9414 15.6091 21 15.8025 21 16.0002C21 16.2655 20.8946 16.5198 20.7071 16.7074C20.5196 16.8949 20.2652 17.0002 20 17.0002ZM20 9.00024C19.8022 9.00024 19.6089 8.9416 19.4444 8.83171C19.28 8.72183 19.1518 8.56565 19.0761 8.38293C19.0004 8.2002 18.9806 7.99913 19.0192 7.80515C19.0578 7.61117 19.153 7.43299 19.2929 7.29314C19.4327 7.15329 19.6109 7.05804 19.8049 7.01946C19.9989 6.98087 20.2 7.00068 20.3827 7.07636C20.5654 7.15205 20.7216 7.28022 20.8315 7.44467C20.9414 7.60912 21 7.80246 21 8.00024C21 8.26546 20.8946 8.51981 20.7071 8.70735C20.5196 8.89489 20.2652 9.00024 20 9.00024ZM14 12.0002C14 12.3958 13.8827 12.7825 13.6629 13.1114C13.4432 13.4403 13.1308 13.6966 12.7654 13.848C12.3999 13.9994 11.9978 14.039 11.6098 13.9618C11.2219 13.8846 10.8655 13.6942 10.5858 13.4145C10.3061 13.1348 10.1156 12.7784 10.0384 12.3904C9.96126 12.0025 10.0009 11.6003 10.1522 11.2349C10.3036 10.8694 10.56 10.5571 10.8889 10.3373C11.2178 10.1175 11.6044 10.0002 12 10.0002C12.5304 10.0002 13.0391 10.211 13.4142 10.586C13.7893 10.9611 14 11.4698 14 12.0002Z" fill="#374957"/>
</g>
<defs>
<clipPath id="clip0_806_6640">
<rect width="24" height="24" fill="white"/>
</clipPath>
</defs>
</svg>
