<svg width="24" height="24" viewBox="0 0 24 24" fill="none" xmlns="http://www.w3.org/2000/svg">
<g clip-path="url(#clip0_806_6679)">
<path d="M22 12V5C21.9984 3.67441 21.4711 2.40356 20.5338 1.46622C19.5964 0.528882 18.3256 0.00158786 17 0L7 0C5.67441 0.00158786 4.40356 0.528882 3.46622 1.46622C2.52888 2.40356 2.00159 3.67441 2 5V12H22Z" fill="#374957"/>
<path d="M23 13.9998H1C0.734784 13.9998 0.48043 14.1051 0.292893 14.2926C0.105357 14.4802 0 14.7345 0 14.9998C0 15.265 0.105357 15.5193 0.292893 15.7069C0.48043 15.8944 0.734784 15.9998 1 15.9998H11V19.9997H9C8.20435 19.9997 7.44129 20.3158 6.87868 20.8784C6.31607 21.441 6 22.2041 6 22.9997C6 23.2649 6.10536 23.5193 6.29289 23.7068C6.48043 23.8944 6.73478 23.9997 7 23.9997C7.26522 23.9997 7.51957 23.8944 7.70711 23.7068C7.89464 23.5193 8 23.2649 8 22.9997C8 22.7345 8.10536 22.4802 8.29289 22.2926C8.48043 22.1051 8.73478 21.9997 9 21.9997H15C15.2652 21.9997 15.5196 22.1051 15.7071 22.2926C15.8946 22.4802 16 22.7345 16 22.9997C16 23.2649 16.1054 23.5193 16.2929 23.7068C16.4804 23.8944 16.7348 23.9997 17 23.9997C17.2652 23.9997 17.5196 23.8944 17.7071 23.7068C17.8946 23.5193 18 23.2649 18 22.9997C18 22.2041 17.6839 21.441 17.1213 20.8784C16.5587 20.3158 15.7956 19.9997 15 19.9997H13V15.9998H23C23.2652 15.9998 23.5196 15.8944 23.7071 15.7069C23.8946 15.5193 24 15.265 24 14.9998C24 14.7345 23.8946 14.4802 23.7071 14.2926C23.5196 14.1051 23.2652 13.9998 23 13.9998Z" fill="#374957"/>
</g>
<defs>
<clipPath id="clip0_806_6679">
<rect width="24" height="24" fill="white"/>
</clipPath>
</defs>
</svg>
