<svg width="24" height="24" viewBox="0 0 24 24" fill="none" xmlns="http://www.w3.org/2000/svg">
<path d="M20.4673 17.2999C20.4463 17.2699 18.9103 15.4849 18.9103 15.4849C19.4683 15.0737 19.8447 14.4616 19.9596 13.778C20.0746 13.0944 19.9192 12.3929 19.5263 11.8219C19.5013 11.7859 17.6413 9.73085 17.6413 9.73085C18.1065 9.49622 18.4859 9.12072 18.7253 8.65785C18.9312 8.26137 19.0237 7.81577 18.9926 7.37009C18.9616 6.92442 18.8082 6.49595 18.5493 6.13185C18.5283 6.09985 13.8863 0.845853 13.8863 0.845853C13.6428 0.591044 13.3501 0.388234 13.0261 0.249673C12.702 0.111111 12.3532 0.0396729 12.0008 0.0396729C11.6483 0.0396729 11.2995 0.111111 10.9755 0.249673C10.6514 0.388234 10.3588 0.591044 10.1153 0.845853C10.1153 0.845853 5.47326 6.09985 5.45126 6.12985C5.13674 6.5536 4.9775 7.07262 5.00026 7.59985C5.00264 7.97215 5.15227 8.32838 5.41647 8.59071C5.68067 8.85303 6.03795 9.00012 6.41026 8.99985H12.0003C12.2655 8.99985 12.5198 9.10521 12.7074 9.29275C12.8949 9.48028 13.0003 9.73464 13.0003 9.99985C13.0003 10.2651 12.8949 10.5194 12.7074 10.707C12.5198 10.8945 12.2655 10.9999 12.0003 10.9999H5.20626C5.20626 10.9999 4.49926 11.7839 4.47426 11.8199C4.17125 12.2861 4.00687 12.8288 4.00026 13.3849C3.99385 13.5633 4.02485 13.7411 4.09126 13.9069C4.23987 14.2419 4.48518 14.525 4.79573 14.7197C5.10627 14.9145 5.46791 15.012 5.83426 14.9999H13.0003C13.2655 14.9999 13.5198 15.1052 13.7074 15.2927C13.8949 15.4803 14.0003 15.7346 14.0003 15.9999C14.0003 16.2651 13.8949 16.5194 13.7074 16.707C13.5198 16.8945 13.2655 16.9999 13.0003 16.9999H3.78226C3.78226 16.9999 3.55426 17.2679 3.53326 17.2999C3.10353 17.9274 2.92659 18.6941 3.03784 19.4465C3.14909 20.1989 3.54032 20.8815 4.13326 21.3579C4.65791 21.7828 5.31516 22.0101 5.99026 21.9999H11.0003V22.9999C11.0003 23.2651 11.1056 23.5194 11.2932 23.707C11.4807 23.8945 11.735 23.9999 12.0003 23.9999C12.2655 23.9999 12.5198 23.8945 12.7074 23.707C12.8949 23.5194 13.0003 23.2651 13.0003 22.9999V21.9999H18.0103C18.6873 22.0105 19.3465 21.7825 19.8723 21.3559C20.4637 20.8787 20.8534 20.1962 20.9637 19.4443C21.074 18.6925 20.8967 17.9267 20.4673 17.2999Z" fill="#374957"/>
</svg>
