<svg width="24" height="24" viewBox="0 0 24 24" fill="none" xmlns="http://www.w3.org/2000/svg">
<g clip-path="url(#clip0_806_6546)">
<path d="M5.25169e-06 8.00835V2.00835C-0.000687977 1.70583 0.0672576 1.40709 0.198727 1.13462C0.330196 0.862159 0.521763 0.623069 0.759005 0.435353C0.994459 0.24621 1.27002 0.113377 1.56466 0.0469985C1.85929 -0.0193802 2.16519 -0.0175486 2.45901 0.0523533C3.39477 0.302863 4.25789 0.771476 4.97766 1.41981C5.69744 2.06815 6.2534 2.87777 6.60001 3.78235C8.36032 3.29735 10.1744 3.03464 12 3.00035C13.8256 3.03464 15.6397 3.29735 17.4 3.78235C17.7468 2.87738 18.3032 2.06751 19.0236 1.41914C19.7439 0.770767 20.6077 0.30237 21.544 0.0523533C21.8379 -0.0155024 22.1434 -0.0161578 22.4376 0.0504357C22.7318 0.117029 23.0072 0.249155 23.2433 0.43697C23.4794 0.624784 23.67 0.863445 23.801 1.13517C23.9321 1.4069 24.0001 1.70469 24 2.00635V8.00635C22.3507 8.04689 20.7267 8.42108 19.226 9.10635C17.3041 9.92515 15.678 11.3113 14.5654 13.0795C13.4527 14.8476 12.9066 16.9134 13 19.0004C13 19.2656 12.8946 19.5199 12.7071 19.7075C12.5196 19.895 12.2652 20.0004 12 20.0004C11.7348 20.0004 11.4804 19.895 11.2929 19.7075C11.1054 19.5199 11 19.2656 11 19.0004C11.0942 16.9124 10.5485 14.8456 9.43584 13.0763C8.32318 11.3071 6.69668 9.91986 4.77401 9.10035C3.27255 8.41829 1.64868 8.04684 5.25169e-06 8.00835ZM20 11.0004C19.8213 11.8375 19.3637 12.5891 18.702 13.1321C18.0403 13.6752 17.2139 13.9774 16.358 13.9894C15.4195 15.4885 14.9469 17.2324 15 19.0004C15 19.796 14.6839 20.5591 14.1213 21.1217C13.5587 21.6843 12.7957 22.0004 12 22.0004C11.2044 22.0004 10.4413 21.6843 9.87868 21.1217C9.31608 20.5591 9.00001 19.796 9.00001 19.0004C9.05311 17.2324 8.5805 15.4885 7.64201 13.9894C6.78612 13.9774 5.95966 13.6752 5.298 13.1321C4.63633 12.5891 4.17868 11.8375 4.00001 11.0004C2.74834 10.4005 1.38698 10.0635 5.25169e-06 10.0104C0.0314567 12.8763 1.1879 15.6151 3.22001 17.6364L7.87701 22.2934C8.97433 23.378 10.4551 23.9864 11.998 23.9864C13.541 23.9864 15.0217 23.378 16.119 22.2934L20.776 17.6364C22.8096 15.6158 23.9675 12.8769 24 10.0104C22.613 10.0635 21.2517 10.4005 20 11.0004Z" fill="#374957"/>
</g>
<defs>
<clipPath id="clip0_806_6546">
<rect width="24" height="24" fill="white"/>
</clipPath>
</defs>
</svg>
