<svg width="24" height="24" viewBox="0 0 24 24" fill="none" xmlns="http://www.w3.org/2000/svg">
<g clip-path="url(#clip0_806_6389)">
<path d="M2.30977 17.192L7.80977 22.692C7.04074 23.0052 6.1964 23.0845 5.38249 22.9201C4.56857 22.7557 3.82125 22.3548 3.23409 21.7676C2.64694 21.1805 2.24606 20.4332 2.08164 19.6192C1.91722 18.8053 1.99658 17.961 2.30977 17.192ZM7.32677 1.97996C7.58668 1.92692 7.81487 1.7728 7.96115 1.5515C8.10743 1.33021 8.15981 1.05987 8.10677 0.79996C8.05372 0.540048 7.8996 0.311852 7.67831 0.165574C7.45702 0.0192954 7.18668 -0.0330835 6.92677 0.0199598C4.24511 0.489755 1.84378 1.96511 0.212767 4.14496C0.0647452 4.35854 0.00567532 4.62135 0.0480691 4.87773C0.0904629 5.1341 0.230991 5.36391 0.439887 5.51847C0.648783 5.67303 0.909641 5.7402 1.16721 5.70576C1.42477 5.67132 1.65882 5.53797 1.81977 5.33396C3.15392 3.54729 5.12711 2.34553 7.32677 1.97996ZM23.1998 16.023C22.9408 15.9661 22.6698 16.0145 22.4465 16.1574C22.2232 16.3003 22.0657 16.526 22.0088 16.785C21.6288 18.9427 20.4431 20.8755 18.6918 22.192C18.4775 22.3484 18.3341 22.5836 18.2932 22.8458C18.2523 23.108 18.3173 23.3757 18.4738 23.59C18.6302 23.8043 18.8654 23.9476 19.1276 23.9885C19.3898 24.0294 19.6575 23.9644 19.8718 23.808C22.0119 22.1994 23.4713 19.8469 23.9618 17.215C23.9901 17.0867 23.9928 16.954 23.9698 16.8247C23.9468 16.6953 23.8985 16.5718 23.8278 16.4611C23.757 16.3504 23.6651 16.2547 23.5574 16.1795C23.4496 16.1044 23.3281 16.0512 23.1998 16.023ZM20.1668 5.24696L21.7068 3.70696C21.8023 3.61471 21.8785 3.50437 21.9309 3.38236C21.9833 3.26036 22.0109 3.12914 22.012 2.99636C22.0132 2.86358 21.9879 2.7319 21.9376 2.60901C21.8873 2.48611 21.8131 2.37446 21.7192 2.28057C21.6253 2.18667 21.5136 2.11242 21.3907 2.06214C21.2678 2.01186 21.1361 1.98656 21.0034 1.98771C20.8706 1.98886 20.7394 2.01645 20.6174 2.06886C20.4954 2.12127 20.385 2.19745 20.2928 2.29296L18.7508 3.83496C17.3701 2.73787 15.6811 2.09986 13.9199 2.01021C12.1588 1.92055 10.4137 2.38374 8.92877 3.33496L3.42877 6.73496C2.78382 7.13355 2.2374 7.67288 1.83044 8.31258C1.42347 8.95227 1.1665 9.67575 1.07878 10.4288C0.991051 11.1819 1.07484 11.9451 1.32387 12.6612C1.57289 13.3773 1.98071 14.0278 2.51677 14.564L9.47577 21.523C10.0129 22.0603 10.6649 22.4688 11.3827 22.7179C12.1004 22.9669 12.8653 23.05 13.6198 22.9609C14.3743 22.8717 15.0988 22.6127 15.7388 22.2033C16.3788 21.7938 16.9176 21.2446 17.3148 20.597L20.9148 14.721C21.7422 13.2452 22.1129 11.557 21.9797 9.87035C21.8466 8.1837 21.2156 6.57457 20.1668 5.24696Z" fill="#374957"/>
</g>
<defs>
<clipPath id="clip0_806_6389">
<rect width="24" height="24" fill="white"/>
</clipPath>
</defs>
</svg>
