<svg width="24" height="24" viewBox="0 0 24 24" fill="none" xmlns="http://www.w3.org/2000/svg">
<g clip-path="url(#clip0_806_6680)">
<path d="M19 4C19 2.93913 18.5786 1.92172 17.8284 1.17157C17.0783 0.421427 16.0609 0 15 0L9 0C7.93913 0 6.92172 0.421427 6.17157 1.17157C5.42143 1.92172 5 2.93913 5 4V5H19V4Z" fill="#374957"/>
<path d="M16 15H8C6.34315 15 5 16.3431 5 18V21C5 22.6569 6.34315 24 8 24H16C17.6569 24 19 22.6569 19 21V18C19 16.3431 17.6569 15 16 15Z" fill="#374957"/>
<path d="M19 7.00024H5C3.67441 7.00183 2.40356 7.52913 1.46622 8.46646C0.528882 9.4038 0.00158786 10.6746 0 12.0002L0 16.0002C0.00127838 16.972 0.285705 17.9223 0.818499 18.735C1.35129 19.5477 2.10936 20.1875 3 20.5762V18.0002C3.00159 16.6746 3.52888 15.4038 4.46622 14.4665C5.40356 13.5291 6.67441 13.0018 8 13.0002H16C17.3256 13.0018 18.5964 13.5291 19.5338 14.4665C20.4711 15.4038 20.9984 16.6746 21 18.0002V20.5762C21.8906 20.1875 22.6487 19.5477 23.1815 18.735C23.7143 17.9223 23.9987 16.972 24 16.0002V12.0002C23.9984 10.6746 23.4711 9.4038 22.5338 8.46646C21.5964 7.52913 20.3256 7.00183 19 7.00024ZM18 11.0002H16C15.7348 11.0002 15.4804 10.8949 15.2929 10.7074C15.1054 10.5198 15 10.2655 15 10.0002C15 9.73503 15.1054 9.48067 15.2929 9.29314C15.4804 9.1056 15.7348 9.00024 16 9.00024H18C18.2652 9.00024 18.5196 9.1056 18.7071 9.29314C18.8946 9.48067 19 9.73503 19 10.0002C19 10.2655 18.8946 10.5198 18.7071 10.7074C18.5196 10.8949 18.2652 11.0002 18 11.0002Z" fill="#374957"/>
</g>
<defs>
<clipPath id="clip0_806_6680">
<rect width="24" height="24" fill="white"/>
</clipPath>
</defs>
</svg>
