<svg width="24" height="24" viewBox="0 0 24 24" fill="none" xmlns="http://www.w3.org/2000/svg">
<g clip-path="url(#clip0_806_6667)">
<path d="M11 4.50009C10.9997 3.28248 10.6548 2.08983 10.005 1.06009C11.8189 0.118505 13.8838 -0.226117 15.9051 0.075394C17.9264 0.376905 19.8009 1.30914 21.261 2.73909C22.1765 3.65719 22.8924 4.75459 23.3638 5.96245C23.8351 7.17031 24.0517 8.46255 24 9.75809C23.9082 12.4423 22.7913 14.9892 20.879 16.8751C20.1055 17.6543 19.2217 18.3157 18.256 18.8381L8.787 9.37309C9.4816 8.76526 10.0384 8.01608 10.42 7.17569C10.8017 6.3353 10.9994 5.42308 11 4.50009ZM9 4.50009C9 3.61007 8.73608 2.74004 8.24162 2.00002C7.74715 1.26 7.04435 0.683222 6.22208 0.342628C5.39981 0.00203333 4.49501 -0.0870817 3.6221 0.0865518C2.74918 0.260185 1.94736 0.688769 1.31802 1.31811C0.688685 1.94744 0.260102 2.74926 0.0864683 3.62218C-0.0871652 4.49509 0.00194979 5.39989 0.342544 6.22216C0.683139 7.04443 1.25991 7.74723 1.99994 8.2417C2.73996 8.73617 3.60999 9.00009 4.5 9.00009C5.69307 8.99876 6.83689 8.52423 7.68052 7.6806C8.52415 6.83698 8.99868 5.69315 9 4.50009ZM7.059 10.4731C6.25078 10.8211 5.37998 11.0005 4.5 11.0001C4.342 11.0001 4.186 10.9871 4.031 10.9761C4.07969 11.8437 4.24794 12.7005 4.531 13.5221C4.67449 14.0287 4.85841 14.5229 5.081 15.0001C5.1324 15.0921 5.1523 15.1984 5.13768 15.3027C5.12305 15.4071 5.07471 15.5038 5 15.5781L1.186 18.2421V18.2561C0.832228 18.546 0.5439 18.9076 0.340009 19.3171C0.136119 19.7266 0.0212935 20.1746 0.00309693 20.6316C-0.0150997 21.0887 0.0637454 21.5444 0.234439 21.9688C0.405132 22.3931 0.663799 22.7765 0.993403 23.0937C1.32301 23.4108 1.71607 23.6546 2.14669 23.8088C2.57731 23.963 3.03573 24.0243 3.49174 23.9885C3.94775 23.9528 4.39101 23.8208 4.79232 23.6013C5.19363 23.3818 5.54388 23.0798 5.82 22.7151L5.83 22.7211L8.4 19.0001C8.47273 18.9166 8.5711 18.8597 8.67968 18.8381C8.78827 18.8166 8.90093 18.8317 9 18.8811C10.3975 19.5983 11.9433 19.9791 13.514 19.9931C14.4341 20.0148 15.3524 19.9002 16.239 19.6531L7.059 10.4731Z" fill="#374957"/>
</g>
<defs>
<clipPath id="clip0_806_6667">
<rect width="24" height="24" fill="white"/>
</clipPath>
</defs>
</svg>
