<svg width="24" height="24" viewBox="0 0 24 24" fill="none" xmlns="http://www.w3.org/2000/svg">
<g clip-path="url(#clip0_806_6408)">
<path d="M5.86842 15.5831C4.81376 14.6089 4.0093 13.3949 3.52314 12.044C3.03697 10.6931 2.8834 9.2449 3.07542 7.82205C3.26528 6.37931 3.80215 5.00413 4.64001 3.81436C5.47786 2.6246 6.59171 1.65574 7.8861 0.990821C9.18048 0.325905 10.6168 -0.015236 12.0719 -0.00336245C13.527 0.00851106 14.9576 0.373045 16.241 1.059C17.5243 1.74495 18.6222 2.73185 19.4405 3.93513C20.2589 5.13841 20.7732 6.52217 20.9395 7.96782C21.1058 9.41346 20.9191 10.8779 20.3954 12.2355C19.8716 13.5932 19.0265 14.8036 17.9324 15.7631C17.2279 16.3687 16.6809 17.1364 16.3384 18.0001H13.0004V10.8161C13.5833 10.61 14.0883 10.2288 14.4463 9.72475C14.8043 9.22068 14.9979 8.61831 15.0004 8.00005C15.0004 7.73483 14.8951 7.48048 14.7075 7.29294C14.52 7.10541 14.2656 7.00005 14.0004 7.00005C13.7352 7.00005 13.4808 7.10541 13.2933 7.29294C13.1058 7.48048 13.0004 7.73483 13.0004 8.00005C13.0004 8.26527 12.8951 8.51962 12.7075 8.70716C12.52 8.89469 12.2656 9.00005 12.0004 9.00005C11.7352 9.00005 11.4808 8.89469 11.2933 8.70716C11.1058 8.51962 11.0004 8.26527 11.0004 8.00005C11.0004 7.73483 10.8951 7.48048 10.7075 7.29294C10.52 7.10541 10.2656 7.00005 10.0004 7.00005C9.7352 7.00005 9.48085 7.10541 9.29331 7.29294C9.10577 7.48048 9.00042 7.73483 9.00042 8.00005C9.00298 8.61831 9.1965 9.22068 9.5545 9.72475C9.91251 10.2288 10.4175 10.61 11.0004 10.8161V18.0001H7.56342C7.18111 17.0806 6.60264 16.2557 5.86842 15.5831ZM8.00042 20.0001V20.3101C8.00148 21.2884 8.39058 22.2263 9.08236 22.9181C9.77414 23.6099 10.7121 23.999 11.6904 24.0001H12.3104C13.2887 23.999 14.2267 23.6099 14.9185 22.9181C15.6103 22.2263 15.9994 21.2884 16.0004 20.3101V20.0001H8.00042Z" fill="#374957"/>
</g>
<defs>
<clipPath id="clip0_806_6408">
<rect width="24" height="24" fill="white"/>
</clipPath>
</defs>
</svg>
