<svg width="24" height="24" viewBox="0 0 24 24" fill="none" xmlns="http://www.w3.org/2000/svg">
<g clip-path="url(#clip0_806_6771)">
<path d="M15.5699 2H8.42986C8.77945 1.39308 9.28253 0.888782 9.88861 0.537735C10.4947 0.186688 11.1825 0.00123863 11.8829 0L12.1169 0C12.8173 0.00123863 13.505 0.186688 14.1111 0.537735C14.7172 0.888782 15.2203 1.39308 15.5699 2ZM20.4999 14H19.9999V16C19.9999 16.2652 19.8945 16.5196 19.707 16.7071C19.5194 16.8946 19.2651 17 18.9999 17C18.7346 17 18.4803 16.8946 18.2928 16.7071C18.1052 16.5196 17.9999 16.2652 17.9999 16V14H5.99986V16C5.99986 16.2652 5.8945 16.5196 5.70697 16.7071C5.51943 16.8946 5.26508 17 4.99986 17C4.73465 17 4.48029 16.8946 4.29276 16.7071C4.10522 16.5196 3.99986 16.2652 3.99986 16V14H3.49986C2.61592 13.9983 1.76421 14.3318 1.11654 14.9334C0.468864 15.5349 0.073425 16.3597 0.00998692 17.2414C-0.0534512 18.123 0.219833 18.996 0.774714 19.684C1.32959 20.3721 2.12478 20.8242 2.99986 20.949V22C2.99986 22.5304 3.21058 23.0391 3.58565 23.4142C3.96072 23.7893 4.46943 24 4.99986 24C5.53029 24 6.039 23.7893 6.41408 23.4142C6.78915 23.0391 6.99986 22.5304 6.99986 22V21H16.9999V22C16.9999 22.5304 17.2106 23.0391 17.5856 23.4142C17.9607 23.7893 18.4694 24 18.9999 24C19.5303 24 20.039 23.7893 20.4141 23.4142C20.7891 23.0391 20.9999 22.5304 20.9999 22V20.951C21.8292 20.8402 22.5901 20.4325 23.1418 19.8034C23.6934 19.1744 23.9983 18.3667 23.9999 17.53V17.5C23.9999 16.5717 23.6311 15.6815 22.9747 15.0251C22.3184 14.3687 21.4281 14 20.4999 14ZM1.62786 12.491C2.37658 12.1667 3.18392 11.9996 3.99986 12H19.9999C20.8158 11.9996 21.6231 12.1667 22.3719 12.491L20.8279 7.519C20.5154 6.49744 19.8823 5.60362 19.0223 4.96985C18.1623 4.33607 17.1211 3.99601 16.0529 4H7.94686C6.87871 3.99595 5.83762 4.33586 4.97766 4.96945C4.11769 5.60303 3.48453 6.49662 3.17186 7.518L1.62786 12.491Z" fill="#374957"/>
</g>
<defs>
<clipPath id="clip0_806_6771">
<rect width="24" height="24" fill="white"/>
</clipPath>
</defs>
</svg>
