<svg width="24" height="24" viewBox="0 0 24 24" fill="none" xmlns="http://www.w3.org/2000/svg">
<path d="M18.0611 9.52494L14.4751 5.93894C13.8083 5.30257 12.9219 4.94751 12.0001 4.94751C11.0783 4.94751 10.192 5.30257 9.52513 5.93894L5.93913 9.52494C5.65786 9.80634 5.49991 10.1879 5.5 10.5858C5.50009 10.9837 5.65823 11.3652 5.93963 11.6464C6.22102 11.9277 6.60262 12.0857 7.00048 12.0856C7.39834 12.0855 7.77986 11.9273 8.06113 11.6459L10.5001 9.20694V18.9999C10.5001 19.3978 10.6582 19.7793 10.9395 20.0606C11.2208 20.3419 11.6023 20.4999 12.0001 20.4999C12.398 20.4999 12.7795 20.3419 13.0608 20.0606C13.3421 19.7793 13.5001 19.3978 13.5001 18.9999V9.20694L15.9391 11.6459C16.0784 11.7853 16.2437 11.8958 16.4257 11.9712C16.6077 12.0467 16.8028 12.0855 16.9998 12.0856C17.1968 12.0856 17.3919 12.0469 17.5739 11.9715C17.7559 11.8962 17.9213 11.7857 18.0606 11.6464C18.2 11.5072 18.3105 11.3418 18.3859 11.1598C18.4614 10.9779 18.5002 10.7828 18.5003 10.5858C18.5003 10.3888 18.4615 10.1937 18.3862 10.0117C18.3109 9.82967 18.2004 9.66427 18.0611 9.52494Z" fill="#374957"/>
</svg>
