<svg width="24" height="24" viewBox="0 0 24 24" fill="none" xmlns="http://www.w3.org/2000/svg">
<g clip-path="url(#clip0_806_6367)">
<path d="M18.4268 16.935C18.1456 16.6538 17.7641 16.4958 17.3663 16.4958C16.9686 16.4958 16.5871 16.6538 16.3058 16.935L13.5248 19.714L13.4998 1.5C13.4998 1.10217 13.3418 0.720644 13.0605 0.43934C12.7792 0.158035 12.3977 0 11.9998 0V0C11.602 0 11.2205 0.158035 10.9392 0.43934C10.6579 0.720644 10.4998 1.10217 10.4998 1.5L10.5228 19.7L7.75984 16.935C7.47694 16.6618 7.09803 16.5106 6.70474 16.514C6.31144 16.5174 5.93523 16.6752 5.65711 16.9533C5.379 17.2314 5.22125 17.6076 5.21783 18.0009C5.21441 18.3942 5.3656 18.7731 5.63884 19.056L9.55784 22.975C10.2142 23.6311 11.1043 23.9997 12.0323 23.9997C12.9604 23.9997 13.8505 23.6311 14.5068 22.975L18.4268 19.056C18.708 18.7747 18.866 18.3932 18.866 17.9955C18.866 17.5977 18.708 17.2163 18.4268 16.935Z" fill="#374957"/>
</g>
<defs>
<clipPath id="clip0_806_6367">
<rect width="24" height="24" fill="white"/>
</clipPath>
</defs>
</svg>
