<svg width="24" height="24" viewBox="0 0 24 24" fill="none" xmlns="http://www.w3.org/2000/svg">
<g clip-path="url(#clip0_806_6361)">
<path d="M19.9229 7.28401C19.63 7.08149 19.2763 6.98603 18.9214 7.01372C18.5664 7.0414 18.2318 7.19053 17.9739 7.43601C16.8033 8.30288 15.4223 8.84112 13.9739 8.99501C13.714 8.98826 13.4671 8.88061 13.2852 8.69488C13.1034 8.50914 13.0011 8.25992 12.9999 8.00001V6.96501C14.532 6.97068 16.0079 6.38784 17.1227 5.33682C18.2375 4.2858 18.9063 2.84684 18.9909 1.317C19.0127 1.14 18.994 0.960342 18.936 0.791687C18.878 0.623032 18.7823 0.469824 18.6561 0.343712C18.53 0.2176 18.3768 0.121906 18.2082 0.0639068C18.0395 0.00590734 17.8599 -0.0128701 17.6829 0.00900221C15.8279 0.0860023 13.0999 1.529 12.5319 3.70901C12.1917 2.44042 11.5692 1.26513 10.7109 0.271003C10.5243 0.0860312 10.2724 -0.0180701 10.0096 -0.018795C9.74687 -0.0195199 9.4944 0.0831899 9.30678 0.267129C9.11917 0.451068 9.01148 0.701456 9.007 0.964161C9.00252 1.22687 9.10162 1.48078 9.28286 1.671C10.2792 2.90317 10.8621 4.41783 10.9489 6.00001H8.49986C6.18076 6.07088 3.98422 7.05774 2.39113 8.74455C0.798036 10.4313 -0.0618024 12.6807 -0.000142817 15C-0.161143 20.6 5.64386 25.773 10.7499 23.385C11.1398 23.1371 11.5931 23.007 12.0552 23.0103C12.5173 23.0137 12.9686 23.1504 13.3549 23.404C14.0077 23.7815 14.7459 23.9866 15.4999 24C24.2129 23.922 27.0639 11.874 19.9229 7.28401Z" fill="#374957"/>
</g>
<defs>
<clipPath id="clip0_806_6361">
<rect width="24" height="24" fill="white"/>
</clipPath>
</defs>
</svg>
