<svg width="24" height="24" viewBox="0 0 24 24" fill="none" xmlns="http://www.w3.org/2000/svg">
<g clip-path="url(#clip0_806_6801)">
<path d="M12.0003 14C16.2763 14 19.6343 7.708 20.6653 3.945C20.4018 3.24199 19.9823 2.60787 19.4385 2.09033C18.8946 1.57279 18.2405 1.1853 17.5253 0.957C15.7436 0.356516 13.8801 0.0337401 12.0003 0C10.1205 0.0340187 8.25715 0.356442 6.47527 0.956C5.76009 1.18467 5.10603 1.57241 4.56219 2.09009C4.01835 2.60778 3.59888 3.24196 3.33527 3.945C4.36627 7.708 7.72427 14 12.0003 14ZM10.0003 3H14.0003C14.2655 3 14.5198 3.10536 14.7074 3.29289C14.8949 3.48043 15.0003 3.73478 15.0003 4C15.0003 4.26522 14.8949 4.51957 14.7074 4.70711C14.5198 4.89464 14.2655 5 14.0003 5H10.0003C9.73505 5 9.4807 4.89464 9.29316 4.70711C9.10562 4.51957 9.00027 4.26522 9.00027 4C9.00027 3.73478 9.10562 3.48043 9.29316 3.29289C9.4807 3.10536 9.73505 3 10.0003 3ZM21.0003 8.585C19.1093 12.323 15.9713 16 12.0003 16C8.02927 16 4.89127 12.323 3.00027 8.585V16.177C3.00035 17.4333 3.47339 18.6436 4.32527 19.567L3.07627 22.621C3.02444 22.7429 2.99737 22.8739 2.9966 23.0064C2.99583 23.1389 3.02139 23.2702 3.0718 23.3927C3.12221 23.5152 3.19645 23.6265 3.29023 23.72C3.384 23.8136 3.49543 23.8876 3.61805 23.9378C3.74066 23.9879 3.87202 24.0132 4.00449 24.0121C4.13696 24.0111 4.2679 23.9837 4.38971 23.9317C4.51152 23.8796 4.62176 23.8038 4.71405 23.7088C4.80633 23.6137 4.8788 23.5013 4.92727 23.378L6.00027 20.745C7.87851 21.6151 9.93076 22.0443 12.0003 22C14.0698 22.0447 16.1221 21.6154 18.0003 20.745L19.0773 23.378C19.127 23.4996 19.2001 23.6102 19.2926 23.7036C19.3851 23.7969 19.495 23.8711 19.6161 23.9219C19.7373 23.9728 19.8672 23.9992 19.9986 23.9999C20.13 24.0005 20.2602 23.9752 20.3818 23.9255C20.5034 23.8758 20.614 23.8026 20.7073 23.7102C20.8006 23.6177 20.8748 23.5078 20.9257 23.3866C20.9765 23.2655 21.003 23.1355 21.0036 23.0042C21.0042 22.8728 20.979 22.7426 20.9293 22.621L19.6793 19.567C20.5297 18.643 21.0013 17.4328 21.0003 16.177V8.585ZM12.0003 20C11.8025 20 11.6091 19.9414 11.4447 19.8315C11.2802 19.7216 11.1521 19.5654 11.0764 19.3827C11.0007 19.2 10.9809 18.9989 11.0195 18.8049C11.0581 18.6109 11.1533 18.4327 11.2932 18.2929C11.433 18.153 11.6112 18.0578 11.8052 18.0192C11.9992 17.9806 12.2002 18.0004 12.3829 18.0761C12.5657 18.1518 12.7219 18.28 12.8317 18.4444C12.9416 18.6089 13.0003 18.8022 13.0003 19C13.0003 19.2652 12.8949 19.5196 12.7074 19.7071C12.5198 19.8946 12.2655 20 12.0003 20Z" fill="#374957"/>
</g>
<defs>
<clipPath id="clip0_806_6801">
<rect width="24" height="24" fill="white"/>
</clipPath>
</defs>
</svg>
