<svg width="24" height="24" viewBox="0 0 24 24" fill="none" xmlns="http://www.w3.org/2000/svg">
<g clip-path="url(#clip0_806_6477)">
<path d="M14.762 11.5868C14.2154 11.898 13.6194 12.1131 13 12.2228V23.8738C13.527 23.7712 14.0337 23.583 14.5 23.3168L20.527 19.8378C21.2861 19.3977 21.9165 18.7661 22.3552 18.0061C22.7939 17.2461 23.0255 16.3843 23.027 15.5068V8.54681C23.0238 8.01262 22.9343 7.48245 22.762 6.97681L14.762 11.5868Z" fill="#374957"/>
<path d="M10.242 9.8569C10.7775 10.165 11.3846 10.3271 12.0024 10.3271C12.6203 10.3271 13.2274 10.165 13.7629 9.8569L21.763 5.2469C21.4086 4.83978 20.9905 4.49293 20.525 4.2199L14.5 0.736897C13.7394 0.299519 12.8773 0.0693359 12 0.0693359C11.1226 0.0693359 10.2605 0.299519 9.49995 0.736897L3.47295 4.2169C3.024 4.47979 2.61908 4.81149 2.27295 5.1999L10.242 9.8569Z" fill="#374957"/>
<path d="M11.0001 12.2233C10.3804 12.1139 9.78404 11.8988 9.23715 11.5873L1.25714 6.92334C1.07247 7.44502 0.976477 7.99395 0.973145 8.54734V15.5073C0.974607 16.3848 1.20625 17.2466 1.64494 18.0066C2.08362 18.7666 2.71401 19.3982 3.47314 19.8383L9.50014 23.3173C9.96642 23.5836 10.4731 23.7717 11.0001 23.8743V12.2233Z" fill="#374957"/>
</g>
<defs>
<clipPath id="clip0_806_6477">
<rect width="24" height="24" fill="white"/>
</clipPath>
</defs>
</svg>
