<svg width="24" height="24" viewBox="0 0 24 24" fill="none" xmlns="http://www.w3.org/2000/svg">
<g clip-path="url(#clip0_806_6478)">
<path d="M13.9997 2C13.9997 2.53043 13.789 3.03914 13.4139 3.41421C13.0389 3.78929 12.5302 4 11.9997 4C11.4693 4 10.9606 3.78929 10.5855 3.41421C10.2104 3.03914 9.99972 2.53043 9.99972 2C9.99972 1.46957 10.2104 0.960859 10.5855 0.585786C10.9606 0.210714 11.4693 0 11.9997 0C12.5302 0 13.0389 0.210714 13.4139 0.585786C13.789 0.960859 13.9997 1.46957 13.9997 2ZM19.8477 18.636C19.2343 18.8814 18.5782 19.0024 17.9176 18.9919C17.257 18.9814 16.6051 18.8397 15.9997 18.575C15.3689 18.8503 14.688 18.9924 13.9997 18.9924C13.3114 18.9924 12.6306 18.8503 11.9997 18.575C11.3689 18.8503 10.688 18.9924 9.99972 18.9924C9.31143 18.9924 8.63055 18.8503 7.99972 18.575C7.39383 18.8396 6.74142 18.9813 6.08034 18.9918C5.41926 19.0022 4.76269 18.8813 4.14872 18.636C3.62699 18.8404 3.07616 18.9609 2.51672 18.993L2.67372 19.875C2.87803 21.0324 3.48404 22.0805 4.38509 22.8351C5.28614 23.5896 6.42447 24.0021 7.59972 24H16.3997C17.5744 24.0016 18.712 23.5888 19.6123 22.8343C20.5126 22.0797 21.1179 21.0319 21.3217 19.875L21.4787 18.993C20.9195 18.9614 20.369 18.8408 19.8477 18.636ZM23.5237 11.412C22.797 9.66171 21.6623 8.11053 20.2143 6.88781C18.7663 5.6651 17.047 4.80629 15.1997 4.383C14.8255 4.87631 14.3423 5.27633 13.7877 5.55172C13.2332 5.82712 12.6224 5.97043 12.0032 5.97043C11.3841 5.97043 10.7733 5.82712 10.2187 5.55172C9.66419 5.27633 9.1809 4.87631 8.80672 4.383C6.95833 4.80576 5.23783 5.66441 3.78878 6.88733C2.33972 8.11024 1.20412 9.66195 0.476721 11.413C0.14567 12.3949 -0.0156389 13.4259 -0.000278976 14.462C-0.0181519 14.7871 0.0301568 15.1125 0.141721 15.4184C0.253285 15.7243 0.425784 16.0044 0.648768 16.2417C0.871752 16.479 1.14058 16.6685 1.43897 16.7989C1.73737 16.9292 2.05911 16.9976 2.38472 17C2.83872 17 3.94772 16.692 4.06972 16.277C4.62037 16.7455 5.3225 16.9981 6.04544 16.9876C6.76838 16.9771 7.46289 16.7043 7.99972 16.22C8.54873 16.714 9.26116 16.9874 9.99972 16.9874C10.7383 16.9874 11.4507 16.714 11.9997 16.22C12.5486 16.7142 13.2611 16.9877 13.9997 16.9877C14.7383 16.9877 15.4508 16.7142 15.9997 16.22C16.5366 16.7043 17.2311 16.9771 17.954 16.9876C18.6769 16.9981 19.3791 16.7455 19.9297 16.277C20.0517 16.692 21.1617 17 21.6147 17C21.9403 16.9974 22.2619 16.9288 22.5601 16.7983C22.8584 16.6679 23.1271 16.4783 23.35 16.2411C23.573 16.0038 23.7455 15.7239 23.8571 15.4181C23.9688 15.1123 24.0173 14.7871 23.9997 14.462C24.0155 13.4257 23.8545 12.3942 23.5237 11.412Z" fill="#374957"/>
</g>
<defs>
<clipPath id="clip0_806_6478">
<rect width="24" height="24" fill="white"/>
</clipPath>
</defs>
</svg>
