<svg width="24" height="24" viewBox="0 0 24 24" fill="none" xmlns="http://www.w3.org/2000/svg">
<g clip-path="url(#clip0_806_6672)">
<path d="M23.8 8.15553L20.387 18.5555C20.1717 19.2788 19.7938 19.9432 19.2821 20.4979C18.7704 21.0525 18.1386 21.4827 17.435 21.7555C17.8087 20.8848 18.001 19.9471 18 18.9995V8.99953C17.9979 7.14367 17.2597 5.36442 15.9474 4.05212C14.6351 2.73983 12.8559 2.00165 11 1.99953H9.335C9.9525 1.18266 10.8052 0.574353 11.7786 0.256333C12.7519 -0.0616869 13.7993 -0.0741805 14.78 0.22053L20.466 1.96653C21.7212 2.35647 22.7735 3.22306 23.3968 4.38022C24.0202 5.53737 24.1649 6.89283 23.8 8.15553ZM16 8.99953V18.9995C15.9984 20.3251 15.4711 21.596 14.5338 22.5333C13.5964 23.4706 12.3256 23.9979 11 23.9995H5C3.67441 23.9979 2.40356 23.4706 1.46622 22.5333C0.528882 21.596 0.00158786 20.3251 0 18.9995L0 8.99953C0.00158786 7.67394 0.528882 6.40309 1.46622 5.46575C2.40356 4.52841 3.67441 4.00112 5 3.99953H11C12.3256 4.00112 13.5964 4.52841 14.5338 5.46575C15.4711 6.40309 15.9984 7.67394 16 8.99953ZM12 12.9995C12 12.4691 11.7893 11.9604 11.4142 11.5853C11.0391 11.2102 10.5304 10.9995 10 10.9995C9.46957 10.9995 8.96086 11.2102 8.58579 11.5853C8.21071 11.9604 8 12.4691 8 12.9995C8 12.4691 7.78929 11.9604 7.41421 11.5853C7.03914 11.2102 6.53043 10.9995 6 10.9995C5.46957 10.9995 4.96086 11.2102 4.58579 11.5853C4.21071 11.9604 4 12.4691 4 12.9995C4 14.4495 5.544 16.3905 6.714 17.3775C7.07348 17.6817 7.52912 17.8486 8 17.8486C8.47088 17.8486 8.92652 17.6817 9.286 17.3775C10.456 16.3905 12 14.4495 12 12.9995Z" fill="#374957"/>
</g>
<defs>
<clipPath id="clip0_806_6672">
<rect width="24" height="24" fill="white"/>
</clipPath>
</defs>
</svg>
