<svg width="24" height="24" viewBox="0 0 24 24" fill="none" xmlns="http://www.w3.org/2000/svg">
<g clip-path="url(#clip0_806_6491)">
<path d="M18.0003 12.9998C17.1207 12.9967 16.2648 13.2846 15.5659 13.8187C14.867 14.3527 14.3643 15.1028 14.1361 15.9522C13.9078 16.8017 13.9669 17.7028 14.3041 18.5151C14.6413 19.3275 15.2376 20.0056 16.0003 20.4438V23.2768C16.0002 23.4194 16.0424 23.5589 16.1217 23.6775C16.2009 23.7962 16.3135 23.8886 16.4453 23.9432C16.5771 23.9978 16.7221 24.0121 16.862 23.9843C17.0019 23.9564 17.1304 23.8877 17.2313 23.7868L18.0003 23.0188L18.7693 23.7868C18.8701 23.8877 18.9986 23.9564 19.1385 23.9843C19.2784 24.0121 19.4234 23.9978 19.5552 23.9432C19.687 23.8886 19.7996 23.7962 19.8789 23.6775C19.9581 23.5589 20.0003 23.4194 20.0003 23.2768V20.4438C20.7629 20.0056 21.3593 19.3275 21.6964 18.5151C22.0336 17.7028 22.0927 16.8017 21.8645 15.9522C21.6362 15.1028 21.1335 14.3527 20.4346 13.8187C19.7357 13.2846 18.8798 12.9967 18.0003 12.9998Z" fill="#374957"/>
<path d="M12 17C11.9988 15.9464 12.2753 14.9111 12.8018 13.9984C13.3283 13.0858 14.086 12.328 14.9987 11.8016C15.9114 11.2752 16.9467 10.9987 18.0004 11C19.054 11.0013 20.0886 11.2803 21 11.809V5C20.9984 3.67441 20.4711 2.40356 19.5338 1.46622C18.5964 0.528882 17.3256 0.00158786 16 0L8 0C6.67441 0.00158786 5.40356 0.528882 4.46622 1.46622C3.52888 2.40356 3.00159 3.67441 3 5V17C3.00159 18.3256 3.52888 19.5964 4.46622 20.5338C5.40356 21.4711 6.67441 21.9984 8 22H14V21.46C13.3711 20.8996 12.8678 20.2125 12.5231 19.4439C12.1784 18.6752 12.0001 17.8424 12 17ZM8 4H16C16.2652 4 16.5196 4.10536 16.7071 4.29289C16.8946 4.48043 17 4.73478 17 5C17 5.26522 16.8946 5.51957 16.7071 5.70711C16.5196 5.89464 16.2652 6 16 6H8C7.73478 6 7.48043 5.89464 7.29289 5.70711C7.10536 5.51957 7 5.26522 7 5C7 4.73478 7.10536 4.48043 7.29289 4.29289C7.48043 4.10536 7.73478 4 8 4ZM8 8H16C16.2652 8 16.5196 8.10536 16.7071 8.29289C16.8946 8.48043 17 8.73478 17 9C17 9.26522 16.8946 9.51957 16.7071 9.70711C16.5196 9.89464 16.2652 10 16 10H8C7.73478 10 7.48043 9.89464 7.29289 9.70711C7.10536 9.51957 7 9.26522 7 9C7 8.73478 7.10536 8.48043 7.29289 8.29289C7.48043 8.10536 7.73478 8 8 8ZM11 14H8C7.73478 14 7.48043 13.8946 7.29289 13.7071C7.10536 13.5196 7 13.2652 7 13C7 12.7348 7.10536 12.4804 7.29289 12.2929C7.48043 12.1054 7.73478 12 8 12H11C11.2652 12 11.5196 12.1054 11.7071 12.2929C11.8946 12.4804 12 12.7348 12 13C12 13.2652 11.8946 13.5196 11.7071 13.7071C11.5196 13.8946 11.2652 14 11 14Z" fill="#374957"/>
</g>
<defs>
<clipPath id="clip0_806_6491">
<rect width="24" height="24" fill="white"/>
</clipPath>
</defs>
</svg>
