<svg width="24" height="24" viewBox="0 0 24 24" fill="none" xmlns="http://www.w3.org/2000/svg">
<g clip-path="url(#clip0_806_6390)">
<path d="M20.9997 6.99992C20.2041 6.99992 19.441 7.31599 18.8784 7.8786C18.3158 8.44121 17.9997 9.20427 17.9997 9.99992C17.9997 10.7956 18.3158 11.5586 18.8784 12.1212C19.441 12.6838 20.2041 12.9999 20.9997 12.9999C21.2109 12.9994 21.4215 12.9763 21.6277 12.9309C21.0745 15.1847 19.8895 17.2338 18.212 18.8375C16.5345 20.4411 14.4341 21.5327 12.1577 21.9839C12.0183 22.0098 11.8749 22.0041 11.738 21.9673C11.6011 21.9304 11.4743 21.8633 11.3667 21.7709C11.252 21.6757 11.1596 21.5563 11.0962 21.4213C11.0328 21.2863 10.9998 21.1391 10.9997 20.9899V19.9289C12.6638 19.7617 14.2594 19.1797 15.6404 18.2363C17.0214 17.293 18.1438 16.0183 18.9047 14.5289C18.0379 14.132 17.3032 13.4944 16.7882 12.6921C16.2732 11.8897 15.9994 10.9563 15.9994 10.0029C15.9994 9.04949 16.2732 8.11612 16.7882 7.31378C17.3032 6.51144 18.0379 5.87388 18.9047 5.47692C18.1196 3.92785 16.9447 2.60994 15.4955 1.65293C14.0463 0.695923 12.3729 0.132815 10.64 0.0190434C8.90707 -0.0947283 7.17439 0.244759 5.61253 1.00408C4.05067 1.76341 2.71349 2.91639 1.73262 4.34952C0.751749 5.78265 0.161012 7.44651 0.0185634 9.17731C-0.123885 10.9081 0.186867 12.6462 0.920227 14.2204C1.65359 15.7946 2.78427 17.1507 4.20096 18.1552C5.61766 19.1596 7.27151 19.7778 8.99972 19.9489V20.9899C8.99963 21.4319 9.09678 21.8685 9.28429 22.2688C9.4718 22.669 9.74507 23.0231 10.0847 23.3059C10.4173 23.5861 10.8076 23.7893 11.2279 23.901C11.6482 24.0127 12.0879 24.0301 12.5157 23.9519C15.746 23.3089 18.6544 21.5683 20.7475 19.0253C22.8407 16.4823 23.9897 13.2935 23.9997 9.99992C23.9997 9.20427 23.6837 8.44121 23.121 7.8786C22.5584 7.31599 21.7954 6.99992 20.9997 6.99992ZM9.99972 7.99992C10.3953 7.99992 10.782 8.11722 11.1109 8.33698C11.4398 8.55674 11.6961 8.8691 11.8475 9.23455C11.9989 9.6 12.0385 10.0021 11.9613 10.3901C11.8841 10.7781 11.6936 11.1344 11.4139 11.4141C11.1342 11.6938 10.7779 11.8843 10.3899 11.9615C10.0019 12.0387 9.59981 11.9991 9.23435 11.8477C8.8689 11.6963 8.55654 11.44 8.33678 11.1111C8.11702 10.7822 7.99972 10.3955 7.99972 9.99992C7.99972 9.46948 8.21043 8.96078 8.58551 8.5857C8.96058 8.21063 9.46929 7.99992 9.99972 7.99992Z" fill="#374957"/>
</g>
<defs>
<clipPath id="clip0_806_6390">
<rect width="24" height="24" fill="white"/>
</clipPath>
</defs>
</svg>
