<svg width="24" height="24" viewBox="0 0 24 24" fill="none" xmlns="http://www.w3.org/2000/svg">
<g clip-path="url(#clip0_806_6388)">
<path d="M4 6.00013H2C2.00002 4.97996 2.38984 3.99835 3.0897 3.2561C3.78957 2.51385 4.74659 2.06706 5.765 2.00713C6.16565 1.41431 6.70163 0.925349 7.32864 0.580657C7.95565 0.235965 8.65569 0.0454376 9.3709 0.0248215C10.0861 0.00420543 10.796 0.154092 11.4418 0.462095C12.0876 0.770097 12.6509 1.22737 13.085 1.79613C13.1481 1.87675 13.231 1.93966 13.3256 1.97874C13.4203 2.01782 13.5234 2.03173 13.625 2.01913C14.4437 1.94512 15.2657 2.11935 15.984 2.51913C16.6046 2.8614 17.1202 3.36633 17.4754 3.97965C17.8306 4.59297 18.012 5.29148 18 6.00013H12C11.2044 6.00013 10.4413 6.3162 9.87868 6.87881C9.31607 7.44142 9 8.20448 9 9.00013V13.0001C9 13.2653 8.89464 13.5197 8.70711 13.7072C8.51957 13.8948 8.26522 14.0001 8 14.0001C7.73478 14.0001 7.48043 13.8948 7.29289 13.7072C7.10536 13.5197 7 13.2653 7 13.0001V9.00013C7 8.20448 6.68393 7.44142 6.12132 6.87881C5.55871 6.3162 4.79565 6.00013 4 6.00013ZM23 13.5001V16.5001C23 17.4284 22.6313 18.3186 21.9749 18.975C21.3185 19.6314 20.4283 20.0001 19.5 20.0001H18.9C18.6679 21.1287 18.0538 22.1428 17.1613 22.8714C16.2687 23.6 15.1522 23.9987 14 24.0001H6C4.67441 23.9985 3.40356 23.4712 2.46622 22.5339C1.52888 21.5966 1.00159 20.3257 1 19.0001V9.00013C1 8.73491 1.10536 8.48056 1.29289 8.29302C1.48043 8.10548 1.73478 8.00013 2 8.00013H4C4.26522 8.00013 4.51957 8.10548 4.70711 8.29302C4.89464 8.48056 5 8.73491 5 9.00013V13.0001C5 13.7958 5.31607 14.5588 5.87868 15.1214C6.44129 15.6841 7.20435 16.0001 8 16.0001C8.79565 16.0001 9.55871 15.6841 10.1213 15.1214C10.6839 14.5588 11 13.7958 11 13.0001V9.00013C11 8.73491 11.1054 8.48056 11.2929 8.29302C11.4804 8.10548 11.7348 8.00013 12 8.00013H18C18.2652 8.00013 18.5196 8.10548 18.7071 8.29302C18.8946 8.48056 19 8.73491 19 9.00013V10.0001H19.5C20.4283 10.0001 21.3185 10.3689 21.9749 11.0253C22.6313 11.6816 23 12.5719 23 13.5001ZM21 13.5001C21 13.1023 20.842 12.7208 20.5607 12.4395C20.2794 12.1582 19.8978 12.0001 19.5 12.0001H19V18.0001H19.5C19.8978 18.0001 20.2794 17.8421 20.5607 17.5608C20.842 17.2795 21 16.898 21 16.5001V13.5001Z" fill="#374957"/>
</g>
<defs>
<clipPath id="clip0_806_6388">
<rect width="24" height="24" fill="white"/>
</clipPath>
</defs>
</svg>
