<svg width="24" height="24" viewBox="0 0 24 24" fill="none" xmlns="http://www.w3.org/2000/svg">
<g clip-path="url(#clip0_806_6838)">
<path d="M23.7072 22.293L17.7412 16.328C19.3648 14.3416 20.1629 11.8072 19.9703 9.24896C19.7778 6.69068 18.6094 4.30426 16.7068 2.58325C14.8042 0.862235 12.3129 -0.0617014 9.74818 0.00252729C7.18348 0.066756 4.74156 1.11424 2.92747 2.92832C1.11338 4.74241 0.0659015 7.18433 0.00167279 9.74904C-0.0625559 12.3137 0.86138 14.805 2.58239 16.7077C4.3034 18.6103 6.68983 19.7787 9.2481 19.9712C11.8064 20.1637 14.3408 19.3656 16.3272 17.742L22.2932 23.707C22.4818 23.8892 22.7344 23.99 22.9966 23.9877C23.2588 23.9854 23.5096 23.8803 23.695 23.6948C23.8804 23.5094 23.9856 23.2586 23.9878 22.9964C23.9901 22.7342 23.8893 22.4816 23.7072 22.293ZM13.0002 11H7.00017C6.73496 11 6.4806 10.8947 6.29307 10.7071C6.10553 10.5196 6.00017 10.2652 6.00017 10C6.00017 9.73481 6.10553 9.48046 6.29307 9.29292C6.4806 9.10538 6.73496 9.00003 7.00017 9.00003H13.0002C13.2654 9.00003 13.5197 9.10538 13.7073 9.29292C13.8948 9.48046 14.0002 9.73481 14.0002 10C14.0002 10.2652 13.8948 10.5196 13.7073 10.7071C13.5197 10.8947 13.2654 11 13.0002 11Z" fill="#374957"/>
</g>
<defs>
<clipPath id="clip0_806_6838">
<rect width="24" height="24" fill="white"/>
</clipPath>
</defs>
</svg>
