<svg width="24" height="24" viewBox="0 0 24 24" fill="none" xmlns="http://www.w3.org/2000/svg">
<g clip-path="url(#clip0_806_6633)">
<path d="M9.34024 10.7926C8.38875 9.59132 7.91762 8.07929 8.01834 6.55013C8.11905 5.02097 8.78441 3.58379 9.88524 2.51765L10.5182 1.88365C11.5845 0.783243 13.0215 0.118239 14.5504 0.0177151C16.0794 -0.082809 17.5911 0.388318 18.7922 1.33965C19.4347 1.8724 19.9578 2.53443 20.3276 3.28269C20.6973 4.03095 20.9054 4.84867 20.9382 5.68264C20.9734 6.51302 20.8359 7.34167 20.5345 8.11622C20.2332 8.89078 19.7744 9.5944 19.1872 10.1826L18.1872 11.1826C17.0602 12.3072 15.5334 12.9394 13.9412 12.9406C13.8552 12.9406 13.7692 12.9386 13.6832 12.9346C12.8496 12.902 12.0322 12.6945 11.284 12.3254C10.5358 11.9564 9.87353 11.4342 9.34024 10.7926ZM18.7572 15.9996C18.0686 15.998 17.3864 16.1328 16.7502 16.3963C16.1139 16.6597 15.5361 17.0466 15.0502 17.5346C13.6383 18.9547 11.9586 20.0805 10.1086 20.8469C8.25851 21.6134 6.27477 22.0052 4.27224 21.9996H3.12224C2.90034 22 2.68334 21.9344 2.49872 21.8113C2.3141 21.6882 2.17016 21.5131 2.08513 21.3082C2.00011 21.1032 1.97782 20.8776 2.0211 20.66C2.06438 20.4424 2.17127 20.2425 2.32824 20.0856L3.02824 19.3856C4.76451 19.2691 6.39928 18.5256 7.62824 17.2936L10.6822 14.2396C9.57313 13.7469 8.59067 13.0082 7.80924 12.0796C7.37251 11.556 7.00855 10.9758 6.72724 10.3546L3.70024 13.3786C2.46784 14.6073 1.72431 16.2422 1.60824 17.9786L0.908239 18.6786C0.473688 19.1159 0.178364 19.6721 0.0595214 20.277C-0.0593214 20.8819 0.00363955 21.5084 0.240462 22.0776C0.477285 22.6467 0.877362 23.133 1.39023 23.4751C1.90309 23.8172 2.50577 23.9997 3.12224 23.9996H4.27224C6.5374 24.0058 8.7813 23.5626 10.8741 22.6958C12.9668 21.829 14.8669 20.5557 16.4642 18.9496C16.9177 18.4962 17.4954 18.1874 18.1244 18.0623C18.7533 17.9371 19.4053 18.0013 19.9978 18.2466C20.5903 18.4919 21.0968 18.9073 21.4532 19.4404C21.8096 19.9735 22 20.6003 22.0002 21.2416V22.9996C22.0002 23.2648 22.1056 23.5192 22.2931 23.7067C22.4807 23.8943 22.735 23.9996 23.0002 23.9996C23.2655 23.9996 23.5198 23.8943 23.7073 23.7067C23.8949 23.5192 24.0002 23.2648 24.0002 22.9996V21.2416C23.9984 19.8518 23.4454 18.5194 22.4625 17.5367C21.4796 16.554 20.1471 16.0012 18.7572 15.9996Z" fill="#374957"/>
</g>
<defs>
<clipPath id="clip0_806_6633">
<rect width="24" height="24" fill="white"/>
</clipPath>
</defs>
</svg>
