<svg width="24" height="24" viewBox="0 0 24 24" fill="none" xmlns="http://www.w3.org/2000/svg">
<g clip-path="url(#clip0_806_6646)">
<path d="M5 23.0002C6.32559 22.9987 7.59644 22.4714 8.53378 21.534C9.47112 20.5967 9.99841 19.3258 10 18.0002V6.00024C10 5.20459 10.3161 4.44153 10.8787 3.87892C11.4413 3.31631 12.2044 3.00024 13 3.00024H19C19.7956 3.00024 20.5587 3.31631 21.1213 3.87892C21.6839 4.44153 22 5.20459 22 6.00024V14.0262C21.1396 13.3644 20.0855 13.0039 19 13.0002C18.0111 13.0002 17.0444 13.2935 16.2221 13.8429C15.3999 14.3923 14.759 15.1732 14.3806 16.0868C14.0022 17.0005 13.9031 18.0058 14.0961 18.9757C14.289 19.9456 14.7652 20.8365 15.4645 21.5358C16.1637 22.235 17.0546 22.7112 18.0245 22.9042C18.9945 23.0971 19.9998 22.9981 20.9134 22.6196C21.827 22.2412 22.6079 21.6003 23.1573 20.7781C23.7068 19.9558 24 18.9892 24 18.0002V6.00024C23.9984 4.67465 23.4711 3.4038 22.5338 2.46646C21.5964 1.52913 20.3256 1.00183 19 1.00024H13C11.6744 1.00183 10.4036 1.52913 9.46622 2.46646C8.52888 3.4038 8.00159 4.67465 8 6.00024V14.0262C7.13961 13.3644 6.08547 13.0039 5 13.0002C3.67392 13.0002 2.40215 13.527 1.46447 14.4647C0.526784 15.4024 0 16.6742 0 18.0002C0 19.3263 0.526784 20.5981 1.46447 21.5358C2.40215 22.4735 3.67392 23.0002 5 23.0002Z" fill="#374957"/>
</g>
<defs>
<clipPath id="clip0_806_6646">
<rect width="24" height="24" fill="white"/>
</clipPath>
</defs>
</svg>
