<svg width="24" height="24" viewBox="0 0 24 24" fill="none" xmlns="http://www.w3.org/2000/svg">
<g clip-path="url(#clip0_806_6593)">
<path d="M19 5.99976H13V2.99976C13 2.73454 12.8946 2.48019 12.7071 2.29265C12.5196 2.10511 12.2652 1.99976 12 1.99976C11.7348 1.99976 11.4804 2.10511 11.2929 2.29265C11.1054 2.48019 11 2.73454 11 2.99976V5.99976H5C3.67441 6.00134 2.40356 6.52864 1.46622 7.46598C0.528882 8.40331 0.00158786 9.67416 0 10.9998L0 14.9998C0.00158786 16.3254 0.528882 17.5962 1.46622 18.5335C2.40356 19.4709 3.67441 19.9982 5 19.9998H19C20.3256 19.9982 21.5964 19.4709 22.5338 18.5335C23.4711 17.5962 23.9984 16.3254 24 14.9998V10.9998C23.9984 9.67416 23.4711 8.40331 22.5338 7.46598C21.5964 6.52864 20.3256 6.00134 19 5.99976ZM10 9.99976H11C11.2652 9.99976 11.5196 10.1051 11.7071 10.2926C11.8946 10.4802 12 10.7345 12 10.9998C12 11.265 11.8946 11.5193 11.7071 11.7069C11.5196 11.8944 11.2652 11.9998 11 11.9998H10C9.73478 11.9998 9.48043 11.8944 9.29289 11.7069C9.10536 11.5193 9 11.265 9 10.9998C9 10.7345 9.10536 10.4802 9.29289 10.2926C9.48043 10.1051 9.73478 9.99976 10 9.99976ZM5 15.9998C4.80222 15.9998 4.60888 15.9411 4.44443 15.8312C4.27998 15.7213 4.15181 15.5652 4.07612 15.3824C4.00043 15.1997 3.98063 14.9986 4.01921 14.8047C4.0578 14.6107 4.15304 14.4325 4.29289 14.2926C4.43275 14.1528 4.61093 14.0576 4.80491 14.019C4.99889 13.9804 5.19996 14.0002 5.38268 14.0759C5.56541 14.1516 5.72159 14.2797 5.83147 14.4442C5.94135 14.6086 6 14.802 6 14.9998C6 15.265 5.89464 15.5193 5.70711 15.7069C5.51957 15.8944 5.26522 15.9998 5 15.9998ZM6 11.9998H5C4.73478 11.9998 4.48043 11.8944 4.29289 11.7069C4.10536 11.5193 4 11.265 4 10.9998C4 10.7345 4.10536 10.4802 4.29289 10.2926C4.48043 10.1051 4.73478 9.99976 5 9.99976H6C6.26522 9.99976 6.51957 10.1051 6.70711 10.2926C6.89464 10.4802 7 10.7345 7 10.9998C7 11.265 6.89464 11.5193 6.70711 11.7069C6.51957 11.8944 6.26522 11.9998 6 11.9998ZM15 15.9998H9C8.73478 15.9998 8.48043 15.8944 8.29289 15.7069C8.10536 15.5193 8 15.265 8 14.9998C8 14.7345 8.10536 14.4802 8.29289 14.2926C8.48043 14.1051 8.73478 13.9998 9 13.9998H15C15.2652 13.9998 15.5196 14.1051 15.7071 14.2926C15.8946 14.4802 16 14.7345 16 14.9998C16 15.265 15.8946 15.5193 15.7071 15.7069C15.5196 15.8944 15.2652 15.9998 15 15.9998ZM19 15.9998C18.8022 15.9998 18.6089 15.9411 18.4444 15.8312C18.28 15.7213 18.1518 15.5652 18.0761 15.3824C18.0004 15.1997 17.9806 14.9986 18.0192 14.8047C18.0578 14.6107 18.153 14.4325 18.2929 14.2926C18.4327 14.1528 18.6109 14.0576 18.8049 14.019C18.9989 13.9804 19.2 14.0002 19.3827 14.0759C19.5654 14.1516 19.7216 14.2797 19.8315 14.4442C19.9414 14.6086 20 14.802 20 14.9998C20 15.265 19.8946 15.5193 19.7071 15.7069C19.5196 15.8944 19.2652 15.9998 19 15.9998ZM19 11.9998H15C14.7348 11.9998 14.4804 11.8944 14.2929 11.7069C14.1054 11.5193 14 11.265 14 10.9998C14 10.7345 14.1054 10.4802 14.2929 10.2926C14.4804 10.1051 14.7348 9.99976 15 9.99976H19C19.2652 9.99976 19.5196 10.1051 19.7071 10.2926C19.8946 10.4802 20 10.7345 20 10.9998C20 11.265 19.8946 11.5193 19.7071 11.7069C19.5196 11.8944 19.2652 11.9998 19 11.9998Z" fill="#374957"/>
</g>
<defs>
<clipPath id="clip0_806_6593">
<rect width="24" height="24" fill="white"/>
</clipPath>
</defs>
</svg>
