<svg width="24" height="24" viewBox="0 0 24 24" fill="none" xmlns="http://www.w3.org/2000/svg">
<g clip-path="url(#clip0_806_6383)">
<path d="M0.291147 8.55206C0.075669 8.15238 -0.0241587 7.70056 0.00286712 7.24731C0.0298929 6.79405 0.182703 6.3573 0.444147 5.98606C0.871405 5.35917 1.44359 4.84462 2.11215 4.48606L9.61315 0.582055C10.3504 0.198686 11.1692 -0.00146484 12.0001 -0.00146484C12.8311 -0.00146484 13.6499 0.198686 14.3871 0.582055L21.8871 4.48906C22.5557 4.84762 23.1279 5.36217 23.5551 5.98906C23.8166 6.36029 23.9694 6.79705 23.9964 7.25031C24.0235 7.70356 23.9236 8.15538 23.7081 8.55506C23.4762 8.99389 23.1282 9.36066 22.7022 9.61544C22.2762 9.87023 21.7885 10.0033 21.2921 10.0001H2.70815C2.21131 10.0032 1.72315 9.86976 1.29694 9.61442C0.870718 9.35908 0.522805 8.9916 0.291147 8.55206ZM23.0001 22.0001C23.0001 21.4696 22.7894 20.9609 22.4144 20.5858C22.0393 20.2108 21.5306 20.0001 21.0001 20.0001V12.0001H19.0001V20.0001H16.0001V12.0001H14.0001V20.0001H10.0001V12.0001H8.00015V20.0001H5.00015V12.0001H3.00015V20.0001C2.46971 20.0001 1.96101 20.2108 1.58593 20.5858C1.21086 20.9609 1.00015 21.4696 1.00015 22.0001C0.73493 22.0001 0.480576 22.1054 0.29304 22.2929C0.105504 22.4805 0.000146694 22.7348 0.000146694 23.0001C0.000146694 23.2653 0.105504 23.5196 0.29304 23.7072C0.480576 23.8947 0.73493 24.0001 1.00015 24.0001H23.0001C23.2654 24.0001 23.5197 23.8947 23.7073 23.7072C23.8948 23.5196 24.0002 23.2653 24.0002 23.0001C24.0002 22.7348 23.8948 22.4805 23.7073 22.2929C23.5197 22.1054 23.2654 22.0001 23.0001 22.0001Z" fill="#374957"/>
</g>
<defs>
<clipPath id="clip0_806_6383">
<rect width="24" height="24" fill="white"/>
</clipPath>
</defs>
</svg>
