<svg width="24" height="24" viewBox="0 0 24 24" fill="none" xmlns="http://www.w3.org/2000/svg">
<g clip-path="url(#clip0_806_6469)">
<path d="M23.63 3.845C23.443 3.584 23.1965 3.37125 22.911 3.22432C22.6255 3.07739 22.3091 3.0005 21.988 3H18.463C18.971 2.152 19.539 0.1 18 0C17.7348 0 17.4805 0.105357 17.2929 0.292893C17.1054 0.48043 17 0.734784 17 1C17 1.53043 16.7893 2.03914 16.4142 2.41421C16.0392 2.78929 15.5305 3 15 3H9.00003C8.4696 3 7.96089 2.78929 7.58582 2.41421C7.21074 2.03914 7.00003 1.53043 7.00003 1C7.00003 0.734784 6.89467 0.48043 6.70714 0.292893C6.5196 0.105357 6.26525 0 6.00003 0C4.46003 0.105 5.03003 2.151 5.53703 3H2.01303C1.69787 3.00089 1.38735 3.076 1.10661 3.21923C0.825875 3.36246 0.582815 3.56979 0.397115 3.82443C0.211416 4.07907 0.0882953 4.37387 0.0377246 4.68495C-0.0128461 4.99603 0.0105543 5.31465 0.106031 5.615C0.425006 6.50763 0.932516 7.32108 1.59403 8C2.11903 7.491 3.28103 6.4 4.70003 5.228C4.90478 5.05932 5.16815 4.97889 5.4322 5.00439C5.69625 5.0299 5.93935 5.15925 6.10803 5.364C6.27671 5.56875 6.35714 5.83212 6.33164 6.09617C6.30613 6.36022 6.17678 6.60332 5.97203 6.772C5.45403 7.198 4.97203 7.618 4.53803 8H6.00003C7.32563 8.00159 8.59647 8.52888 9.53381 9.46622C10.4711 10.4036 10.9984 11.6744 11 13V17C11 17.2652 10.8947 17.5196 10.7071 17.7071C10.5196 17.8946 10.2652 18 10 18C9.73481 18 9.48046 17.8946 9.29292 17.7071C9.10539 17.5196 9.00003 17.2652 9.00003 17V13C9.00031 12.6472 8.93801 12.2971 8.81603 11.966C8.57117 12.0185 8.31707 12.0088 8.0769 11.9379C7.83674 11.867 7.61815 11.737 7.44107 11.56C7.264 11.3829 7.13408 11.1643 7.06315 10.9241C6.99223 10.684 6.98256 10.4299 7.03503 10.185C6.7037 10.0626 6.35326 9.99992 6.00003 10H3.22103L6.00003 21.135C6.03481 21.907 6.36616 22.6358 6.92505 23.1696C7.48393 23.7033 8.22723 24.0008 9.00003 24H15C15.7728 24.0008 16.5161 23.7033 17.075 23.1696C17.6339 22.6358 17.9653 21.907 18 21.135L20.78 10H18C17.6472 9.99972 17.2971 10.062 16.966 10.184C17.0185 10.4289 17.0088 10.683 16.9379 10.9231C16.867 11.1633 16.7371 11.3819 16.56 11.559C16.3829 11.736 16.1643 11.866 15.9242 11.9369C15.684 12.0078 15.4299 12.0175 15.185 11.965C15.0626 12.2963 15 12.6468 15 13V17C15 17.2652 14.8947 17.5196 14.7071 17.7071C14.5196 17.8946 14.2652 18 14 18C13.7348 18 13.4805 17.8946 13.2929 17.7071C13.1054 17.5196 13 17.2652 13 17V13C13.0016 11.6744 13.5289 10.4036 14.4663 9.46622C15.4036 8.52888 16.6744 8.00159 18 8H19.463C19.033 7.618 18.547 7.2 18.029 6.772C17.828 6.60229 17.702 6.36023 17.6783 6.09825C17.6545 5.83627 17.7349 5.57548 17.9021 5.37238C18.0693 5.16929 18.3098 5.04025 18.5714 5.01322C18.8331 4.9862 19.0949 5.06336 19.3 5.228C20.72 6.4 21.882 7.491 22.407 8C23.07 7.32127 23.5792 6.50787 23.9 5.615C24.0008 5.32002 24.0288 5.00508 23.9818 4.69693C23.9348 4.38879 23.8141 4.09654 23.63 3.845ZM15 20C15.2652 20 15.5196 20.1054 15.7071 20.2929C15.8947 20.4804 16 20.7348 16 21C16 21.2652 15.8947 21.5196 15.7071 21.7071C15.5196 21.8946 15.2652 22 15 22H9.00003C8.73481 22 8.48046 21.8946 8.29292 21.7071C8.10539 21.5196 8.00003 21.2652 8.00003 21C8.00003 20.7348 8.10539 20.4804 8.29292 20.2929C8.48046 20.1054 8.73481 20 9.00003 20H15Z" fill="#374957"/>
</g>
<defs>
<clipPath id="clip0_806_6469">
<rect width="24" height="24" fill="white"/>
</clipPath>
</defs>
</svg>
