<svg width="24" height="24" viewBox="0 0 24 24" fill="none" xmlns="http://www.w3.org/2000/svg">
<g clip-path="url(#clip0_806_6516)">
<path d="M20.6783 7.39277C19.7623 8.30877 19.9713 10.2308 20.7033 11.5598C20.9827 12.0867 21.0636 12.6964 20.9313 13.2779C20.7991 13.8594 20.4624 14.3741 19.9826 14.7283C19.5027 15.0825 18.9117 15.2527 18.317 15.2078C17.7223 15.1629 17.1635 14.906 16.7423 14.4838L9.51628 7.25777C9.09658 6.83601 8.84184 6.27787 8.79824 5.68447C8.75464 5.09107 8.92505 4.50169 9.2786 4.02312C9.63214 3.54455 10.1454 3.20846 10.7254 3.07576C11.3055 2.94306 11.9138 3.02253 12.4403 3.29976C13.7693 4.03077 15.6913 4.24077 16.6073 3.32476L19.0863 0.842765C19.6346 0.319077 20.3636 0.0268555 21.1218 0.0268555C21.88 0.0268555 22.609 0.319077 23.1573 0.842765C23.425 1.11024 23.6374 1.42785 23.7823 1.77746C23.9273 2.12707 24.0018 2.50181 24.0018 2.88026C24.0018 3.25872 23.9273 3.63346 23.7823 3.98307C23.6374 4.33268 23.425 4.65029 23.1573 4.91777L20.6783 7.39277ZM1.96927 17.3468C1.47632 17.8443 1.15405 18.4855 1.04892 19.1779C0.943781 19.8704 1.06121 20.5783 1.38427 21.1998L0.293275 22.2928C0.105804 22.4803 0.000488281 22.7346 0.000488281 22.9998C0.000488281 23.2649 0.105804 23.5192 0.293275 23.7068C0.480803 23.8942 0.735111 23.9996 1.00027 23.9996C1.26544 23.9996 1.51975 23.8942 1.70728 23.7068L2.80027 22.6158C3.42034 22.9459 4.13038 23.0673 4.8249 22.9617C5.51941 22.8561 6.16133 22.5293 6.65528 22.0298L14.0553 14.6298L9.37328 9.94377L1.96927 17.3468Z" fill="#374957"/>
</g>
<defs>
<clipPath id="clip0_806_6516">
<rect width="24" height="24" fill="white"/>
</clipPath>
</defs>
</svg>
