<svg width="24" height="24" viewBox="0 0 24 24" fill="none" xmlns="http://www.w3.org/2000/svg">
<g clip-path="url(#clip0_806_6543)">
<path d="M0.0239258 11.5235C0.122193 8.90023 1.082 6.38244 2.75493 4.35947L3.86093 7.95947C3.92332 8.16169 3.91995 8.37848 3.85131 8.57867C3.78266 8.77885 3.65228 8.95209 3.47893 9.07347L0.0239258 11.5235ZM11.4139 2.81147C11.5846 2.93524 11.7901 3.00188 12.0009 3.00188C12.2118 3.00188 12.4172 2.93524 12.5879 2.81147L15.6269 0.563469C13.2583 -0.190571 10.7135 -0.187076 8.34693 0.573469L11.4139 2.81147ZM20.5139 9.06747L23.9709 11.5235C23.8727 8.90023 22.9128 6.38244 21.2399 4.35947L20.1399 7.95347C20.0772 8.15538 20.0801 8.37196 20.1482 8.57211C20.2163 8.77227 20.3461 8.94569 20.5189 9.06747H20.5139ZM6.69993 18.6835C6.63461 18.4831 6.50768 18.3086 6.33726 18.1847C6.16684 18.0607 5.96163 17.9938 5.75093 17.9935L1.61193 17.9865C3.07578 20.5173 5.4097 22.4297 8.17893 23.3675L6.69993 18.6835ZM18.2409 17.9935C18.0299 17.9943 17.8245 18.0619 17.6543 18.1866C17.484 18.3112 17.3575 18.4866 17.2929 18.6875L15.7679 23.3875C18.5579 22.4548 20.9106 20.5342 22.3829 17.9875L18.2409 17.9935ZM13.6579 13.6545L14.3889 11.4015C14.4216 11.3011 14.4217 11.193 14.3892 11.0926C14.3567 10.9922 14.2932 10.9046 14.2079 10.8425L12.2939 9.45047C12.2085 9.38836 12.1056 9.3549 11.9999 9.3549C11.8943 9.3549 11.7914 9.38836 11.7059 9.45047L9.78993 10.8425C9.70424 10.9045 9.64045 10.9922 9.60775 11.0928C9.57504 11.1935 9.5751 11.3019 9.60793 11.4025L10.3399 13.6545C10.3724 13.7549 10.4359 13.8425 10.5212 13.9046C10.6066 13.9668 10.7094 14.0003 10.8149 14.0005H13.1849C13.2907 14.0005 13.3937 13.9671 13.4792 13.9049C13.5647 13.8427 13.6284 13.7551 13.6609 13.6545H13.6579ZM13.4999 23.9005C13.0025 23.9655 12.5015 23.9989 11.9999 24.0005C11.4793 23.9968 10.9596 23.959 10.4439 23.8875L8.60793 18.0765C8.4152 17.4721 8.03535 16.9446 7.52325 16.5702C7.01115 16.1958 6.3933 15.9938 5.75893 15.9935L0.693926 15.9845C0.452861 15.3001 0.274789 14.5952 0.161926 13.8785L4.63393 10.7005C5.15223 10.3366 5.54169 9.81768 5.74619 9.21835C5.9507 8.61902 5.95971 7.97025 5.77193 7.36547L4.35593 2.75847C4.93466 2.27958 5.55705 1.85606 6.21493 1.49347L10.2359 4.42747C10.7492 4.80153 11.3678 5.00307 12.0029 5.00307C12.638 5.00307 13.2567 4.80153 13.7699 4.42747L17.7569 1.48147C18.4251 1.84806 19.057 2.27732 19.6439 2.76347L18.2279 7.36447C18.0396 7.96907 18.048 8.61785 18.252 9.21736C18.456 9.81687 18.845 10.3362 19.3629 10.7005L23.8379 13.8785C23.7252 14.5949 23.5471 15.2995 23.3059 15.9835L18.2389 15.9935C17.6054 15.9941 16.9884 16.1958 16.4769 16.5697C15.9655 16.9435 15.5859 17.47 15.3929 18.0735L13.4999 23.9005ZM13.1849 16.0005C13.713 16.0005 14.2275 15.8333 14.6547 15.5229C15.0819 15.2125 15.3999 14.7747 15.5629 14.2725L16.2939 12.0195C16.4583 11.5175 16.459 10.9763 16.2958 10.4739C16.1326 9.97151 15.814 9.53399 15.3859 9.22447L13.4689 7.83247C13.0424 7.52104 12.528 7.35321 11.9999 7.35321C11.4718 7.35321 10.9574 7.52104 10.5309 7.83247L8.61393 9.22447C8.18499 9.5344 7.86581 9.97278 7.70257 10.4762C7.53933 10.9795 7.54051 11.5218 7.70593 12.0245L8.43793 14.2775C8.601 14.7791 8.91894 15.2162 9.34604 15.5258C9.77315 15.8354 10.2874 16.0016 10.8149 16.0005H13.1849Z" fill="#374957"/>
</g>
<defs>
<clipPath id="clip0_806_6543">
<rect width="24" height="24" fill="white"/>
</clipPath>
</defs>
</svg>
