<svg width="24" height="24" viewBox="0 0 24 24" fill="none" xmlns="http://www.w3.org/2000/svg">
<g clip-path="url(#clip0_806_6609)">
<path d="M19.071 17.2125C20.9477 15.3141 22.0002 12.7524 22.0002 10.083C22.0002 7.41359 20.9477 4.85184 19.071 2.95349C18.1465 2.01772 17.0454 1.27476 15.8316 0.767688C14.6178 0.260616 13.3155 -0.000488281 12 -0.000488281C10.6846 -0.000488281 9.38219 0.260616 8.1684 0.767688C6.9546 1.27476 5.85353 2.01772 4.92901 2.95349C3.04795 4.8562 1.99515 7.42527 2.00002 10.1008C2.00489 12.7764 3.06704 15.3416 4.95501 17.2375L8.53901 20.5765C9.45687 21.484 10.6946 21.9944 11.9853 21.9978C13.2761 22.0012 14.5164 21.4972 15.439 20.5945L19.071 17.2125ZM13.342 14.6485C12.925 14.855 12.4659 14.9624 12.0005 14.9624C11.5351 14.9624 11.076 14.855 10.659 14.6485L8.65901 13.6485C8.15943 13.4007 7.73924 13.0179 7.44603 12.5435C7.15282 12.0691 6.99832 11.5222 7.00001 10.9645V7.99949C6.99804 7.44176 7.15231 6.89462 7.44534 6.42007C7.73838 5.94552 8.15847 5.56253 8.65801 5.31449L10.658 4.31449C11.0748 4.1073 11.534 3.99948 11.9995 3.99948C12.465 3.99948 12.9242 4.1073 13.341 4.31449L15.341 5.31449C15.8407 5.56239 16.261 5.94532 16.5542 6.41988C16.8475 6.89444 17.0019 7.44165 17 7.99949V10.9655C17.0018 11.523 16.8474 12.07 16.5544 12.5443C16.2614 13.0187 15.8414 13.4015 15.342 13.6495L13.342 14.6485ZM14.949 7.69349C14.9818 7.79221 14.999 7.89545 15 7.99949V10.9655C15.0008 11.1515 14.9494 11.3339 14.8516 11.4921C14.7539 11.6504 14.6137 11.778 14.447 11.8605L12.447 12.8605C12.3079 12.9296 12.1548 12.9655 11.9995 12.9655C11.8442 12.9655 11.6911 12.9296 11.552 12.8605L9.55201 11.8605C9.38537 11.7778 9.24529 11.6499 9.1477 11.4915C9.05012 11.3331 8.99895 11.1505 9.00001 10.9645V7.99949C9.0016 7.89747 9.0188 7.7963 9.05101 7.69949L11.231 8.78949C11.4698 8.90883 11.7331 8.97097 12 8.97097C12.267 8.97097 12.5302 8.90883 12.769 8.78949L14.949 7.69349ZM20 22.9995C20 23.2647 19.8947 23.5191 19.7071 23.7066C19.5196 23.8941 19.2652 23.9995 19 23.9995H5.00001C4.73479 23.9995 4.48044 23.8941 4.2929 23.7066C4.10536 23.5191 4.00001 23.2647 4.00001 22.9995C4.00001 22.7343 4.10536 22.4799 4.2929 22.2924C4.48044 22.1048 4.73479 21.9995 5.00001 21.9995H19C19.2652 21.9995 19.5196 22.1048 19.7071 22.2924C19.8947 22.4799 20 22.7343 20 22.9995Z" fill="#374957"/>
</g>
<defs>
<clipPath id="clip0_806_6609">
<rect width="24" height="24" fill="white"/>
</clipPath>
</defs>
</svg>
