<svg width="24" height="24" viewBox="0 0 24 24" fill="none" xmlns="http://www.w3.org/2000/svg">
<g clip-path="url(#clip0_806_6564)">
<path d="M22.9421 6.83681L20.7601 4.65381L21.7071 3.70681C21.8026 3.61456 21.8788 3.50421 21.9312 3.38221C21.9836 3.26021 22.0112 3.12899 22.0124 2.99621C22.0135 2.86343 21.9882 2.73175 21.9379 2.60885C21.8876 2.48596 21.8134 2.3743 21.7195 2.28041C21.6256 2.18652 21.514 2.11226 21.3911 2.06198C21.2682 2.0117 21.1365 1.9864 21.0037 1.98756C20.8709 1.98871 20.7397 2.0163 20.6177 2.0687C20.4957 2.12111 20.3853 2.1973 20.2931 2.29281L19.3461 3.23981L17.1631 1.05781C16.475 0.402128 15.561 0.036377 14.6106 0.036377C13.6602 0.036377 12.7462 0.402128 12.0581 1.05781C11.7227 1.39297 11.4566 1.79096 11.275 2.22901C11.0934 2.66707 11 3.13661 11 3.61081C11 4.085 11.0934 4.55454 11.275 4.9926C11.4566 5.43066 11.7227 5.82864 12.0581 6.16381L14.2401 8.34581L8.3461 14.2398L6.1631 12.0578C5.47504 11.4021 4.56105 11.0364 3.6106 11.0364C2.66016 11.0364 1.74617 11.4021 1.0581 12.0578C0.722662 12.393 0.456559 12.791 0.275003 13.229C0.0934482 13.6671 0 14.1366 0 14.6108C0 15.085 0.0934482 15.5545 0.275003 15.9926C0.456559 16.4307 0.722662 16.8286 1.0581 17.1638L3.2401 19.3458L2.2931 20.2928C2.19759 20.3851 2.12141 20.4954 2.069 20.6174C2.01659 20.7394 1.98901 20.8706 1.98785 21.0034C1.9867 21.1362 2.012 21.2679 2.06228 21.3908C2.11256 21.5137 2.18682 21.6253 2.28071 21.7192C2.3746 21.8131 2.48625 21.8873 2.60915 21.9376C2.73205 21.9879 2.86373 22.0132 2.99651 22.0121C3.12928 22.0109 3.2605 21.9833 3.38251 21.9309C3.50451 21.8785 3.61486 21.8023 3.7071 21.7068L4.6541 20.7598L6.8371 22.9418C7.17225 23.2771 7.57017 23.5431 8.00814 23.7245C8.4461 23.906 8.91553 23.9994 9.3896 23.9994C9.86368 23.9994 10.3331 23.906 10.7711 23.7245C11.209 23.5431 11.607 23.2771 11.9421 22.9418C12.2775 22.6067 12.5436 22.2088 12.7251 21.7708C12.9067 21.3329 13.0001 20.8634 13.0001 20.3893C13.0001 19.9152 12.9067 19.4457 12.7251 19.0078C12.5436 18.5698 12.2775 18.1719 11.9421 17.8368L9.7601 15.6548L15.6601 9.75981L17.8421 11.9418C18.1772 12.2771 18.5752 12.5431 19.0131 12.7245C19.4511 12.906 19.9205 12.9994 20.3946 12.9994C20.8687 12.9994 21.3381 12.906 21.7761 12.7245C22.214 12.5431 22.612 12.2771 22.9471 11.9418C23.2825 11.6067 23.5486 11.2088 23.7301 10.7709C23.9117 10.3329 24.0051 9.86341 24.0051 9.38931C24.0051 8.9152 23.9117 8.44574 23.7301 8.00776C23.5486 7.56979 23.2825 7.17189 22.9471 6.83681H22.9421Z" fill="#374957"/>
</g>
<defs>
<clipPath id="clip0_806_6564">
<rect width="24" height="24" fill="white"/>
</clipPath>
</defs>
</svg>
