<svg width="24" height="24" viewBox="0 0 24 24" fill="none" xmlns="http://www.w3.org/2000/svg">
<g clip-path="url(#clip0_806_6376)">
<path d="M21.4999 14.119L18.0169 12L21.4999 9.881C21.8622 9.66399 22.1777 9.37699 22.4279 9.03676C22.6782 8.69653 22.8582 8.30987 22.9574 7.89935C23.0566 7.48882 23.0731 7.06265 23.0058 6.64569C22.9386 6.22873 22.789 5.82934 22.5658 5.4708C22.3426 5.11227 22.0502 4.80177 21.7057 4.55744C21.3612 4.3131 20.9715 4.1398 20.5593 4.04767C20.1472 3.95553 19.7208 3.9464 19.305 4.0208C18.8893 4.09519 18.4925 4.25164 18.1379 4.481L14.9999 6.49V3C14.9999 2.20435 14.6838 1.44129 14.1212 0.87868C13.5586 0.31607 12.7955 0 11.9999 0C11.2043 0 10.4412 0.31607 9.87858 0.87868C9.31597 1.44129 8.9999 2.20435 8.9999 3V6.588L5.8619 4.481C5.14628 4.05238 4.29092 3.92201 3.4801 4.11797C2.66928 4.31394 1.96788 4.82056 1.527 5.5287C1.08612 6.23684 0.941037 7.08982 1.12301 7.9039C1.30499 8.71797 1.79946 9.42799 2.4999 9.881L5.9829 12L2.4999 14.119C1.79946 14.572 1.30499 15.282 1.12301 16.0961C0.941037 16.9102 1.08612 17.7632 1.527 18.4713C1.96788 19.1794 2.66928 19.6861 3.4801 19.882C4.29092 20.078 5.14628 19.9476 5.8619 19.519L8.9999 17.481V21C8.9999 21.7956 9.31597 22.5587 9.87858 23.1213C10.4412 23.6839 11.2043 24 11.9999 24C12.7955 24 13.5586 23.6839 14.1212 23.1213C14.6838 22.5587 14.9999 21.7956 14.9999 21V17.42L18.1379 19.52C18.8535 19.9486 19.7089 20.079 20.5197 19.883C21.3305 19.6871 22.0319 19.1804 22.4728 18.4723C22.9137 17.7642 23.0588 16.9112 22.8768 16.0971C22.6948 15.283 22.2003 14.573 21.4999 14.12V14.119Z" fill="#374957"/>
</g>
<defs>
<clipPath id="clip0_806_6376">
<rect width="24" height="24" fill="white"/>
</clipPath>
</defs>
</svg>
