<svg width="24" height="24" viewBox="0 0 24 24" fill="none" xmlns="http://www.w3.org/2000/svg">
<g clip-path="url(#clip0_806_6620)">
<path d="M14.0001 7.00025C14.0001 7.39581 13.8828 7.78249 13.663 8.11139C13.4432 8.44029 13.1309 8.69663 12.7654 8.84801C12.4 8.99938 11.9978 9.03899 11.6099 8.96182C11.2219 8.88465 10.8656 8.69417 10.5858 8.41446C10.3061 8.13476 10.1157 7.77839 10.0385 7.39043C9.96132 7.00247 10.0009 6.60034 10.1523 6.23488C10.3037 5.86943 10.56 5.55707 10.8889 5.33731C11.2178 5.11755 11.6045 5.00025 12.0001 5.00025C12.5305 5.00025 13.0392 5.21096 13.4143 5.58604C13.7893 5.96111 14.0001 6.46982 14.0001 7.00025ZM16.9581 12.1843L13.9001 15.2153C13.6519 15.4654 13.3567 15.664 13.0315 15.7995C12.7063 15.935 12.3574 16.0047 12.0051 16.0047C11.6527 16.0047 11.3039 15.935 10.9786 15.7995C10.6534 15.664 10.3582 15.4654 10.1101 15.2153L7.05406 12.2003C5.74182 10.8474 5.00693 9.03739 5.00469 7.15268C5.00245 5.26796 5.73304 3.4562 7.04206 2.10025C7.68543 1.43554 8.45588 0.906982 9.30762 0.546011C10.1594 0.185039 11.075 -0.000976562 12.0001 -0.000976562C12.9251 -0.000976562 13.8408 0.185039 14.6925 0.546011C15.5442 0.906982 16.3147 1.43554 16.9581 2.10025C18.2651 3.45328 18.9956 5.26101 18.9956 7.14225C18.9956 9.02349 18.2651 10.8312 16.9581 12.1843ZM16.0001 7.00025C16.0001 6.20912 15.7655 5.43577 15.3259 4.77797C14.8864 4.12017 14.2617 3.60748 13.5308 3.30473C12.7999 3.00198 11.9956 2.92277 11.2197 3.07711C10.4438 3.23145 9.73104 3.61241 9.17163 4.17182C8.61222 4.73123 8.23126 5.44396 8.07692 6.21989C7.92258 6.99581 8.00179 7.80008 8.30454 8.53098C8.60729 9.26189 9.11998 9.8866 9.77778 10.3261C10.4356 10.7657 11.2089 11.0002 12.0001 11.0002C13.0609 11.0002 14.0783 10.5788 14.8285 9.82868C15.5786 9.07853 16.0001 8.06112 16.0001 7.00025ZM20.7531 9.20025C20.3881 10.853 19.5694 12.3712 18.3891 13.5843L15.3111 16.6373C14.878 17.0713 14.3637 17.4159 13.7975 17.6511C13.2312 17.8863 12.6242 18.0077 12.0111 18.0083C11.3982 18.0085 10.7914 17.888 10.2252 17.6536C9.65893 17.4192 9.14444 17.0755 8.71106 16.6423L5.64806 13.6193C4.4832 12.4234 3.66567 10.9332 3.28306 9.30825C2.63355 9.54632 2.03968 9.9149 1.53806 10.3912C1.04911 10.8561 0.660436 11.4161 0.39594 12.0367C0.131445 12.6574 -0.00327713 13.3256 6.05319e-05 14.0003V18.0753C0.00216213 19.1566 0.353853 20.2082 1.00265 21.0733C1.65145 21.9384 2.56257 22.5705 3.60006 22.8753L6.47006 23.7753C6.95212 23.9253 7.45419 24.0011 7.95906 24.0003C8.41705 23.9997 8.87285 23.9371 9.31406 23.8143L15.0941 22.1043C15.6089 21.9632 16.1522 21.9632 16.6671 22.1043L19.0541 22.9043C19.6424 23.0474 20.2555 23.0552 20.8472 22.927C21.439 22.7988 21.9939 22.5379 22.4701 22.164C22.9464 21.7901 23.3315 21.313 23.5965 20.7686C23.8616 20.2242 23.9995 19.6267 24.0001 19.0213V13.8723C23.9966 12.8561 23.6842 11.865 23.1043 11.0305C22.5243 10.196 21.7043 9.55771 20.7531 9.20025Z" fill="#374957"/>
</g>
<defs>
<clipPath id="clip0_806_6620">
<rect width="24" height="24" fill="white"/>
</clipPath>
</defs>
</svg>
