<svg width="24" height="24" viewBox="0 0 24 24" fill="none" xmlns="http://www.w3.org/2000/svg">
<g clip-path="url(#clip0_806_6580)">
<path d="M23 18.9995C22.7348 18.9995 22.4804 19.1049 22.2929 19.2924C22.1054 19.4799 22 19.7343 22 19.9995C22 20.5299 21.7893 21.0387 21.4142 21.4137C21.0391 21.7888 20.5304 21.9995 20 21.9995H16V17.9995H18.1C19.1339 17.9982 20.1251 17.5869 20.8563 16.8558C21.5874 16.1247 21.9987 15.1335 22 14.0995C21.9973 12.7133 21.5157 11.3706 20.6369 10.2986C19.758 9.22653 18.5358 8.49104 17.177 8.21652L15.436 7.86752L13.369 11.4995C13.2377 11.73 13.0203 11.8989 12.7645 11.969C12.5087 12.0391 12.2355 12.0048 12.005 11.8735C11.7745 11.7422 11.6056 11.5248 11.5355 11.269C11.4654 11.0132 11.4997 10.74 11.631 10.5095L13.369 7.45852L13.3 7.43952C13.087 7.39647 12.8825 7.31841 12.695 7.20852L9.674 9.04652C9.44737 9.1843 9.17529 9.2264 8.91762 9.16358C8.65994 9.10076 8.43778 8.93814 8.3 8.71152C8.16222 8.48489 8.12011 8.21281 8.18294 7.95513C8.24576 7.69746 8.40837 7.4753 8.635 7.33752L11.678 5.48852L11.614 4.99952H8C7.73478 4.99952 7.48043 4.89416 7.29289 4.70662C7.10536 4.51909 7 4.26473 7 3.99952C7 3.7343 7.10536 3.47995 7.29289 3.29241C7.48043 3.10487 7.73478 2.99952 8 2.99952H11.352L11.3 2.57552C11.2408 2.16117 11.0955 1.7638 10.8735 1.40895C10.6515 1.05411 10.3578 0.749639 10.0111 0.515122C9.66438 0.280605 9.27245 0.12123 8.86049 0.0472423C8.44852 -0.0267454 8.02563 -0.0137082 7.619 0.0855157L2.91 1.41952C2.07333 1.65903 1.33714 2.1639 0.812295 2.8581C0.28745 3.55231 0.00237401 4.39824 0 5.26852L0 13.9995C0 15.0604 0.421427 16.0778 1.17157 16.8279C1.92172 17.5781 2.93913 17.9995 4 17.9995H5V21.9995H1C0.734784 21.9995 0.48043 22.1049 0.292893 22.2924C0.105357 22.4799 0 22.7343 0 22.9995C0 23.2647 0.105357 23.5191 0.292893 23.7066C0.48043 23.8942 0.734784 23.9995 1 23.9995H20C21.0609 23.9995 22.0783 23.5781 22.8284 22.8279C23.5786 22.0778 24 21.0604 24 19.9995C24 19.7343 23.8946 19.4799 23.7071 19.2924C23.5196 19.1049 23.2652 18.9995 23 18.9995ZM7 17.9995H14V21.9995H7V17.9995Z" fill="#374957"/>
</g>
<defs>
<clipPath id="clip0_806_6580">
<rect width="24" height="24" fill="white"/>
</clipPath>
</defs>
</svg>
