<svg width="24" height="24" viewBox="0 0 24 24" fill="none" xmlns="http://www.w3.org/2000/svg">
<g clip-path="url(#clip0_806_6403)">
<path d="M6.22376 8.68483L4.14976 9.29283C3.4758 9.49066 2.85069 9.82729 2.31457 10.2811C1.77846 10.7349 1.3432 11.2958 1.03676 11.9278C0.735362 12.5513 0.567494 13.2308 0.543903 13.9229C0.520311 14.6149 0.641516 15.3043 0.899756 15.9468C0.906756 15.9648 0.915756 15.9818 0.922756 15.9998L2.64276 15.7188C4.26391 15.2966 5.74635 14.4574 6.94276 13.2848C7.03665 13.1929 7.14773 13.1204 7.26966 13.0714C7.39159 13.0224 7.52197 12.9979 7.65336 12.9993C7.78476 13.0007 7.91459 13.0279 8.03545 13.0795C8.15631 13.1311 8.26583 13.2059 8.35776 13.2998C8.44968 13.3937 8.52221 13.5048 8.57121 13.6267C8.6202 13.7487 8.6447 13.879 8.64331 14.0104C8.64192 14.1418 8.61466 14.2717 8.56309 14.3925C8.51152 14.5134 8.43665 14.6229 8.34276 14.7148C6.87026 16.1522 5.0433 17.1738 3.04776 17.6758L1.87576 17.8698C2.55013 18.9658 3.38623 19.9536 4.35576 20.7998L6.40876 20.0378L7.80876 19.3378C9.25201 18.6126 10.4876 17.5329 11.3998 16.1998L11.9188 15.4388C11.991 15.3264 12.085 15.2295 12.1952 15.154C12.3055 15.0785 12.4298 15.0259 12.5607 14.9992C12.6917 14.9726 12.8266 14.9724 12.9576 14.9988C13.0886 15.0252 13.213 15.0775 13.3234 15.1528C13.4339 15.2281 13.5281 15.3247 13.6005 15.437C13.673 15.5493 13.7222 15.675 13.7452 15.8066C13.7683 15.9382 13.7647 16.0731 13.7348 16.2034C13.7048 16.3336 13.649 16.4565 13.5708 16.5648L13.0528 17.3258C11.9493 18.9405 10.4535 20.2481 8.70576 21.1258L7.15576 21.8988L6.31276 22.2108C8.34438 23.3953 10.6551 24.0166 13.0068 24.0108H13.9308C14.1375 24.0107 14.3392 23.9472 14.5088 23.8288C16.6266 22.3894 18.3805 20.477 19.6318 18.2428L8.73976 7.54883C7.945 8.01806 7.10132 8.39899 6.22376 8.68483Z" fill="#374957"/>
<path d="M23.7151 2.28491C23.5253 2.09573 23.2681 1.9895 23.0001 1.9895C22.7321 1.9895 22.475 2.09573 22.2851 2.28491L17.5211 7.04891L17.2011 6.73591C16.3574 5.91186 15.25 5.41199 14.0739 5.32437C12.8978 5.23674 11.7286 5.56698 10.7721 6.25691C10.6801 6.32291 10.5891 6.37791 10.4961 6.44191L20.5231 16.2859C20.8422 15.422 21.0766 14.5291 21.2231 13.6199C21.3471 12.8278 21.28 12.0175 21.0272 11.2567C20.7744 10.4958 20.3434 9.80637 19.7701 9.24591L18.9701 8.46191L23.7171 3.71491C23.906 3.52477 24.0119 3.26752 24.0115 2.99949C24.0112 2.73146 23.9046 2.47451 23.7151 2.28491Z" fill="#374957"/>
</g>
<defs>
<clipPath id="clip0_806_6403">
<rect width="24" height="24" fill="white"/>
</clipPath>
</defs>
</svg>
