<svg width="24" height="24" viewBox="0 0 24 24" fill="none" xmlns="http://www.w3.org/2000/svg">
<g clip-path="url(#clip0_806_6452)">
<path d="M24.0087 4H-0.00927734C-0.0061028 2.93855 0.417578 1.92162 1.16898 1.1719C1.92039 0.422184 2.93827 0.000788962 3.99972 0L19.9997 0C21.0612 0.000788962 22.0791 0.422184 22.8305 1.1719C23.5819 1.92162 24.0056 2.93855 24.0087 4ZM23.4537 6H0.533723C1.71452 7.72008 3.26961 9.15035 5.08225 10.1834C6.8949 11.2165 8.918 11.8256 10.9997 11.965V22H6.99972C6.73451 22 6.48015 22.1054 6.29262 22.2929C6.10508 22.4804 5.99972 22.7348 5.99972 23C5.99972 23.2652 6.10508 23.5196 6.29262 23.7071C6.48015 23.8946 6.73451 24 6.99972 24H16.9997C17.2649 24 17.5193 23.8946 17.7068 23.7071C17.8944 23.5196 17.9997 23.2652 17.9997 23C17.9997 22.7348 17.8944 22.4804 17.7068 22.2929C17.5193 22.1054 17.2649 22 16.9997 22H12.9997V11.965C15.0796 11.8249 17.1007 11.2154 18.9113 10.1823C20.7219 9.14916 22.2749 7.71928 23.4537 6Z" fill="#374957"/>
</g>
<defs>
<clipPath id="clip0_806_6452">
<rect width="24" height="24" fill="white"/>
</clipPath>
</defs>
</svg>
