<svg width="24" height="24" viewBox="0 0 24 24" fill="none" xmlns="http://www.w3.org/2000/svg">
<path d="M20.44 16.8543L18.959 14.6333C19.2015 14.4724 19.41 14.2653 19.5724 14.0238C19.7348 13.7822 19.848 13.511 19.9055 13.2257C19.963 12.9404 19.9636 12.6465 19.9074 12.3609C19.8513 12.0753 19.7393 11.8036 19.578 11.5613L17.487 8.42635C17.6701 8.25963 17.8242 8.06362 17.943 7.84635C18.1331 7.49748 18.2256 7.10383 18.2108 6.70682C18.196 6.30981 18.0745 5.92412 17.859 5.59035C17.834 5.55235 13.678 0.699361 13.678 0.699361C13.453 0.476485 13.1858 0.300747 12.8921 0.182444C12.5983 0.0641402 12.2839 0.00564991 11.9673 0.0103996C11.6506 0.0151492 11.3381 0.0830433 11.048 0.210104C10.758 0.337165 10.4962 0.520837 10.278 0.75036C10.278 0.75036 6.15198 5.55035 6.12798 5.58236C5.84052 6.02503 5.72082 6.55591 5.79051 7.07911C5.86019 7.60231 6.11467 8.08335 6.50798 8.43535L4.42198 11.5613C4.26067 11.8036 4.14872 12.0753 4.09252 12.3609C4.03632 12.6465 4.03699 12.9404 4.09448 13.2257C4.15198 13.511 4.26517 13.7822 4.42758 14.0238C4.58999 14.2653 4.79843 14.4724 5.04098 14.6333L3.55998 16.8543C3.22768 17.3526 3.03684 17.9317 3.0078 18.5299C2.97876 19.1281 3.11261 19.7229 3.39509 20.251C3.67756 20.7791 4.09807 21.2207 4.61176 21.5286C5.12546 21.8365 5.71308 21.9992 6.31198 21.9993H11V22.9993C11 23.2645 11.1053 23.5189 11.2929 23.7064C11.4804 23.894 11.7348 23.9993 12 23.9993C12.2652 23.9993 12.5196 23.894 12.7071 23.7064C12.8946 23.5189 13 23.2645 13 22.9993V21.9993H17.687C18.286 21.9993 18.8737 21.8368 19.3876 21.529C19.9014 21.2211 20.3221 20.7796 20.6046 20.2515C20.8872 19.7234 21.0212 19.1284 20.9922 18.5301C20.9632 17.9319 20.7723 17.3527 20.44 16.8543ZM12 3.99936C12.1978 3.99936 12.3911 4.05801 12.5556 4.16789C12.72 4.27777 12.8482 4.43395 12.9239 4.61667C12.9996 4.7994 13.0194 5.00046 12.9808 5.19445C12.9422 5.38843 12.8469 5.56661 12.7071 5.70646C12.5672 5.84631 12.3891 5.94155 12.1951 5.98014C12.0011 6.01872 11.8 5.99892 11.6173 5.92323C11.4346 5.84755 11.2784 5.71937 11.1685 5.55492C11.0586 5.39048 11 5.19714 11 4.99936C11 4.73414 11.1053 4.47979 11.2929 4.29225C11.4804 4.10471 11.7348 3.99936 12 3.99936ZM7.99998 18.9993C7.8022 18.9993 7.60886 18.9407 7.44441 18.8308C7.27996 18.7209 7.15179 18.5647 7.0761 18.382C7.00042 18.1993 6.98061 17.9982 7.0192 17.8042C7.05778 17.6103 7.15303 17.4321 7.29288 17.2922C7.43273 17.1524 7.61091 17.0571 7.80489 17.0186C7.99888 16.98 8.19994 16.9998 8.38267 17.0755C8.56539 17.1511 8.72157 17.2793 8.83145 17.4438C8.94134 17.6082 8.99998 17.8016 8.99998 17.9993C8.99998 18.2646 8.89463 18.5189 8.70709 18.7064C8.51955 18.894 8.2652 18.9993 7.99998 18.9993ZM7.99998 13.9993C7.8022 13.9993 7.60886 13.9407 7.44441 13.8308C7.27996 13.7209 7.15179 13.5648 7.0761 13.382C7.00042 13.1993 6.98061 12.9982 7.0192 12.8043C7.05778 12.6103 7.15303 12.4321 7.29288 12.2922C7.43273 12.1524 7.61091 12.0571 7.80489 12.0186C7.99888 11.98 8.19994 11.9998 8.38267 12.0755C8.56539 12.1512 8.72157 12.2793 8.83145 12.4438C8.94134 12.6082 8.99998 12.8016 8.99998 12.9993C8.99998 13.2646 8.89463 13.5189 8.70709 13.7065C8.51955 13.894 8.2652 13.9993 7.99998 13.9993ZM12 9.99935C11.8022 9.99935 11.6089 9.9407 11.4444 9.83082C11.28 9.72094 11.1518 9.56476 11.0761 9.38203C11.0004 9.19931 10.9806 8.99824 11.0192 8.80426C11.0578 8.61028 11.153 8.4321 11.2929 8.29224C11.4327 8.15239 11.6109 8.05715 11.8049 8.01857C11.9989 7.97998 12.1999 7.99978 12.3827 8.07547C12.5654 8.15116 12.7216 8.27933 12.8315 8.44378C12.9413 8.60823 13 8.80157 13 8.99935C13 9.26457 12.8946 9.51892 12.7071 9.70646C12.5196 9.89399 12.2652 9.99935 12 9.99935ZM16 11.9993C15.8022 11.9993 15.6089 11.9407 15.4444 11.8308C15.28 11.7209 15.1518 11.5648 15.0761 11.382C15.0004 11.1993 14.9806 10.9982 15.0192 10.8043C15.0578 10.6103 15.153 10.4321 15.2929 10.2922C15.4327 10.1524 15.6109 10.0571 15.8049 10.0186C15.9989 9.97998 16.1999 9.99978 16.3827 10.0755C16.5654 10.1512 16.7216 10.2793 16.8315 10.4438C16.9413 10.6082 17 10.8016 17 10.9993C17 11.2646 16.8946 11.5189 16.7071 11.7065C16.5196 11.894 16.2652 11.9993 16 11.9993ZM16 17.9993C15.8022 17.9993 15.6089 17.9407 15.4444 17.8308C15.28 17.7209 15.1518 17.5647 15.0761 17.382C15.0004 17.1993 14.9806 16.9982 15.0192 16.8043C15.0578 16.6103 15.153 16.4321 15.2929 16.2922C15.4327 16.1524 15.6109 16.0571 15.8049 16.0186C15.9989 15.98 16.1999 15.9998 16.3827 16.0755C16.5654 16.1511 16.7216 16.2793 16.8315 16.4438C16.9413 16.6082 17 16.8016 17 16.9993C17 17.2646 16.8946 17.5189 16.7071 17.7064C16.5196 17.894 16.2652 17.9993 16 17.9993ZM12 15.9993C11.8022 15.9993 11.6089 15.9407 11.4444 15.8308C11.28 15.7209 11.1518 15.5648 11.0761 15.382C11.0004 15.1993 10.9806 14.9982 11.0192 14.8043C11.0578 14.6103 11.153 14.4321 11.2929 14.2922C11.4327 14.1524 11.6109 14.0571 11.8049 14.0186C11.9989 13.98 12.1999 13.9998 12.3827 14.0755C12.5654 14.1512 12.7216 14.2793 12.8315 14.4438C12.9413 14.6082 13 14.8016 13 14.9993C13 15.2646 12.8946 15.5189 12.7071 15.7064C12.5196 15.894 12.2652 15.9993 12 15.9993Z" fill="#374957"/>
</svg>
