<svg width="24" height="24" viewBox="0 0 24 24" fill="none" xmlns="http://www.w3.org/2000/svg">
<g clip-path="url(#clip0_806_6768)">
<path d="M23.7071 5.29341L18.7071 0.293407C18.5185 0.111249 18.2659 0.0104547 18.0037 0.0127331C17.7415 0.0150115 17.4907 0.12018 17.3053 0.305589C17.1199 0.490997 17.0147 0.741809 17.0124 1.00401C17.0101 1.2662 17.1109 1.5188 17.2931 1.70741L19.0861 3.50041L16.6111 5.97541C15.8222 5.40043 14.8823 5.06895 13.9072 5.02186C12.9322 4.97477 11.9647 5.21413 11.1241 5.71041L13.7071 8.29341C13.8026 8.38565 13.8788 8.496 13.9312 8.618C13.9836 8.74001 14.0112 8.87123 14.0123 9.00401C14.0135 9.13679 13.9882 9.26847 13.9379 9.39136C13.8876 9.51426 13.8134 9.62591 13.7195 9.7198C13.6256 9.81369 13.5139 9.88795 13.391 9.93823C13.2681 9.98851 13.1365 10.0138 13.0037 10.0127C12.8709 10.0115 12.7397 9.98392 12.6177 9.93151C12.4957 9.8791 12.3853 9.80292 12.2931 9.70741L9.58608 7.00041L8.00008 8.58641L10.7071 11.2934C10.8026 11.3857 10.8788 11.496 10.9312 11.618C10.9836 11.74 11.0112 11.8712 11.0123 12.004C11.0135 12.1368 10.9882 12.2685 10.9379 12.3914C10.8876 12.5143 10.8134 12.6259 10.7195 12.7198C10.6256 12.8137 10.5139 12.8879 10.391 12.9382C10.2681 12.9885 10.1365 13.0138 10.0037 13.0127C9.8709 13.0115 9.73968 12.9839 9.61768 12.9315C9.49567 12.8791 9.38533 12.8029 9.29308 12.7074L6.58608 10.0004L5.00008 11.5884L7.70508 14.2934C7.80059 14.3857 7.87677 14.496 7.92918 14.618C7.98159 14.74 8.00918 14.8712 8.01033 15.004C8.01149 15.1368 7.98618 15.2685 7.9359 15.3914C7.88562 15.5143 7.81137 15.6259 7.71748 15.7198C7.62358 15.8137 7.51193 15.8879 7.38904 15.9382C7.26614 15.9885 7.13446 16.0138 7.00168 16.0127C6.8689 16.0115 6.73768 15.9839 6.61568 15.9315C6.49367 15.8791 6.38333 15.8029 6.29108 15.7074L3.80608 13.2204C3.27468 14.2265 2.99794 15.3476 3.00008 16.4854V19.5854L0.293081 22.2934C0.197571 22.3857 0.121389 22.496 0.0689798 22.618C0.0165708 22.74 -0.0110155 22.8712 -0.0121693 23.004C-0.0133231 23.1368 0.0119786 23.2685 0.0622595 23.3914C0.11254 23.5143 0.186794 23.6259 0.280686 23.7198C0.374579 23.8137 0.486231 23.8879 0.609127 23.9382C0.732023 23.9885 0.863703 24.0138 0.996482 24.0127C1.12926 24.0115 1.26048 23.9839 1.38249 23.9315C1.50449 23.8791 1.61483 23.8029 1.70708 23.7074L4.41408 21.0004H7.51408C8.43356 21.0029 9.3444 20.8229 10.1939 20.4711C11.0434 20.1192 11.8147 19.6023 12.4631 18.9504L17.5351 13.8784C18.375 13.0337 18.8852 11.9165 18.9736 10.7285C19.062 9.54056 18.7227 8.36016 18.0171 7.40041L20.5001 4.91441L22.2931 6.70741C22.4817 6.88956 22.7343 6.99036 22.9965 6.98808C23.2587 6.9858 23.5095 6.88063 23.6949 6.69523C23.8803 6.50982 23.9855 6.25901 23.9878 5.99681C23.99 5.73461 23.8892 5.48201 23.7071 5.29341Z" fill="#374957"/>
</g>
<defs>
<clipPath id="clip0_806_6768">
<rect width="24" height="24" fill="white"/>
</clipPath>
</defs>
</svg>
