<svg width="24" height="24" viewBox="0 0 24 24" fill="none" xmlns="http://www.w3.org/2000/svg">
<path d="M5.0002 21.9998C5.53063 21.9998 6.03934 21.789 6.41441 21.414C6.78948 21.0389 7.0002 20.5302 7.0002 19.9998V13.9998C7.0002 13.4693 6.78948 12.9606 6.41441 12.5855C6.03934 12.2105 5.53063 11.9998 5.0002 11.9998V10.9998C5.0002 9.14324 5.73769 7.36276 7.05045 6.05001C8.3632 4.73725 10.1437 3.99976 12.0002 3.99976C13.8567 3.99976 15.6372 4.73725 16.9499 6.05001C18.2627 7.36276 19.0002 9.14324 19.0002 10.9998V11.9998C18.4698 11.9998 17.9611 12.2105 17.586 12.5855C17.2109 12.9606 17.0002 13.4693 17.0002 13.9998V19.9998H14.0002C13.735 19.9998 13.4806 20.1051 13.2931 20.2926C13.1056 20.4802 13.0002 20.7345 13.0002 20.9998C13.0002 21.265 13.1056 21.5193 13.2931 21.7069C13.4806 21.8944 13.735 21.9998 14.0002 21.9998H19.0002C20.1462 21.9963 21.2563 21.5993 22.1445 20.8752C23.0328 20.1511 23.6453 19.1438 23.8796 18.022C24.1139 16.9002 23.9558 15.7319 23.4316 14.7128C22.9074 13.6937 22.049 12.8856 21.0002 12.4238V10.9998C21.0002 8.61281 20.052 6.32362 18.3642 4.63579C16.6763 2.94797 14.3871 1.99976 12.0002 1.99976C9.61325 1.99976 7.32406 2.94797 5.63623 4.63579C3.94841 6.32362 3.0002 8.61281 3.00019 10.9998V12.4238C1.95135 12.8856 1.093 13.6937 0.568816 14.7128C0.0446374 15.7319 -0.113544 16.9002 0.120752 18.022C0.355049 19.1438 0.967602 20.1511 1.85586 20.8752C2.74413 21.5993 3.85418 21.9963 5.0002 21.9998Z" fill="#374957"/>
</svg>
