<svg width="24" height="24" viewBox="0 0 24 24" fill="none" xmlns="http://www.w3.org/2000/svg">
<g clip-path="url(#clip0_806_6794)">
<path d="M14.1812 0.207464C14.037 0.180927 13.8887 0.186421 13.7469 0.223556C13.6051 0.260691 13.4731 0.328559 13.3605 0.422352C13.2478 0.516146 13.1571 0.633571 13.0948 0.766309C13.0326 0.899047 13.0003 1.04385 13.0002 1.19046V4.06946C11.7894 3.90883 10.5579 4.02919 9.40115 4.42122C8.24438 4.81324 7.19343 5.4664 6.32978 6.33005C5.46613 7.1937 4.81297 8.24464 4.42095 9.40141C4.02893 10.5582 3.90857 11.7897 4.0692 13.0005H1.1902C1.04359 13.0005 0.898782 13.0328 0.766044 13.0951C0.633306 13.1574 0.515881 13.248 0.422088 13.3607C0.328294 13.4734 0.260426 13.6053 0.223291 13.7472C0.186156 13.889 0.180662 14.0373 0.207199 14.1815C0.60321 16.333 1.57983 18.3353 3.03147 19.9719C4.48311 21.6086 6.35452 22.8172 8.44337 23.4673C10.5322 24.1173 12.759 24.1839 14.883 23.66C17.007 23.136 18.9473 22.0414 20.4942 20.4945C22.0411 18.9476 23.1357 17.0073 23.6597 14.8833C24.1836 12.7593 24.117 10.5325 23.467 8.44364C22.817 6.35479 21.6083 4.48337 19.9717 3.03173C18.335 1.5801 16.3327 0.603474 14.1812 0.207464ZM12.0002 14.0005C11.6505 13.9995 11.3073 13.9066 11.0049 13.7311C10.7024 13.5555 10.4515 13.3036 10.2772 13.0005H8.0002C7.73498 13.0005 7.48063 12.8951 7.29309 12.7076C7.10556 12.52 7.0002 12.2657 7.0002 12.0005C7.0002 11.7352 7.10556 11.4809 7.29309 11.2934C7.48063 11.1058 7.73498 11.0005 8.0002 11.0005H10.2772C10.4515 10.7009 10.7006 10.4517 11.0002 10.2775V7.00046C11.0002 6.73525 11.1056 6.48089 11.2931 6.29336C11.4806 6.10582 11.735 6.00046 12.0002 6.00046C12.2654 6.00046 12.5198 6.10582 12.7073 6.29336C12.8948 6.48089 13.0002 6.73525 13.0002 7.00046V10.2775C13.3816 10.4966 13.6799 10.8357 13.8486 11.242C14.0172 11.6482 14.0468 12.0989 13.9327 12.5237C13.8186 12.9486 13.5672 13.3237 13.2177 13.5908C12.8681 13.8579 12.4401 14.002 12.0002 14.0005ZM9.9722 0.100464C10.17 0.100464 10.3633 0.159113 10.5278 0.268994C10.6922 0.378876 10.8204 0.535054 10.8961 0.71778C10.9718 0.900506 10.9916 1.10157 10.953 1.29555C10.9144 1.48954 10.8192 1.66772 10.6793 1.80757C10.5395 1.94742 10.3613 2.04266 10.1673 2.08125C9.97331 2.11983 9.77224 2.10003 9.58952 2.02434C9.40679 1.94866 9.25061 1.82048 9.14073 1.65603C9.03085 1.49159 8.9722 1.29825 8.9722 1.10046C8.9722 0.835247 9.07756 0.580893 9.26509 0.393357C9.45263 0.205821 9.70698 0.100464 9.9722 0.100464ZM5.8722 1.85646C6.06998 1.85646 6.26332 1.91511 6.42777 2.02499C6.59222 2.13488 6.72039 2.29105 6.79608 2.47378C6.87177 2.65651 6.89157 2.85757 6.85298 3.05155C6.8144 3.24554 6.71916 3.42372 6.57931 3.56357C6.43945 3.70342 6.26127 3.79866 6.06729 3.83725C5.87331 3.87583 5.67224 3.85603 5.48952 3.78034C5.30679 3.70466 5.15061 3.57648 5.04073 3.41203C4.93085 3.24759 4.8722 3.05425 4.8722 2.85646C4.87167 2.59142 4.97638 2.33701 5.16332 2.14912C5.35027 1.96124 5.60416 1.85526 5.8692 1.85446L5.8722 1.85646ZM2.7792 4.84146C2.97698 4.84146 3.17032 4.90011 3.33477 5.00999C3.49922 5.11988 3.62739 5.27605 3.70308 5.45878C3.77877 5.64151 3.79857 5.84257 3.75998 6.03655C3.7214 6.23054 3.62616 6.40872 3.48631 6.54857C3.34645 6.68842 3.16827 6.78366 2.97429 6.82225C2.78031 6.86083 2.57924 6.84103 2.39652 6.76534C2.21379 6.68966 2.05761 6.56148 1.94773 6.39703C1.83785 6.23258 1.7792 6.03925 1.7792 5.84146C1.7792 5.57625 1.88456 5.32189 2.07209 5.13436C2.25963 4.94682 2.51398 4.84146 2.7792 4.84146ZM1.1792 9.00846C1.37698 9.00846 1.57032 9.06711 1.73477 9.17699C1.89922 9.28688 2.02739 9.44305 2.10308 9.62578C2.17877 9.80851 2.19857 10.0096 2.15998 10.2036C2.1214 10.3975 2.02616 10.5757 1.88631 10.7156C1.74645 10.8554 1.56827 10.9507 1.37429 10.9892C1.18031 11.0278 0.979242 11.008 0.796516 10.9323C0.61379 10.8567 0.457611 10.7285 0.34773 10.564C0.237848 10.3996 0.179199 10.2062 0.179199 10.0085C0.179199 9.74359 0.284281 9.48954 0.471385 9.30206C0.658489 9.11458 0.912329 9.00899 1.1772 9.00846H1.1792Z" fill="#374957"/>
</g>
<defs>
<clipPath id="clip0_806_6794">
<rect width="24" height="24" fill="white"/>
</clipPath>
</defs>
</svg>
