<svg width="24" height="24" viewBox="0 0 24 24" fill="none" xmlns="http://www.w3.org/2000/svg">
<g clip-path="url(#clip0_806_6601)">
<path d="M23.1191 0.871547C22.8065 0.559735 22.4287 0.321137 22.0128 0.172943C21.5969 0.0247496 21.1534 -0.0293485 20.7141 0.0145469C17.9211 0.284547 8.52809 1.44755 4.90009 5.07155C3.16586 6.8105 2.13749 9.13037 2.01356 11.5832C1.88964 14.0359 2.67896 16.4477 4.22909 18.3525L15.2891 7.29255C15.4777 7.11039 15.7303 7.0096 15.9925 7.01187C16.2547 7.01415 16.5055 7.11932 16.6909 7.30473C16.8763 7.49014 16.9815 7.74095 16.9837 8.00315C16.986 8.26534 16.8852 8.51795 16.7031 8.70655L5.64709 19.7665C7.55131 21.3176 9.96283 22.1079 12.4157 21.9847C14.8686 21.8615 17.1888 20.8336 18.9281 19.0995C22.6041 15.4225 23.7281 6.05855 23.9871 3.27655C24.0294 2.83642 23.9735 2.39238 23.8234 1.97648C23.6733 1.56058 23.4327 1.18319 23.1191 0.871547ZM4.90009 19.0995C5.13876 19.3375 5.38642 19.5612 5.64309 19.7705L1.70309 23.7105C1.51399 23.8922 1.26108 23.9924 0.99885 23.9894C0.736621 23.9864 0.48606 23.8805 0.301149 23.6946C0.116238 23.5086 0.011777 23.2574 0.0102704 22.9952C0.00876389 22.733 0.110333 22.4806 0.293095 22.2925L4.23309 18.3525C4.44242 18.6085 4.66476 18.8575 4.90009 19.0995Z" fill="#374957"/>
</g>
<defs>
<clipPath id="clip0_806_6601">
<rect width="24" height="24" fill="white"/>
</clipPath>
</defs>
</svg>
