<svg width="24" height="24" viewBox="0 0 24 24" fill="none" xmlns="http://www.w3.org/2000/svg">
<g clip-path="url(#clip0_806_6793)">
<path d="M14.181 0.207727C14.0368 0.18119 13.8885 0.186683 13.7467 0.223818C13.6049 0.260954 13.4729 0.328822 13.3603 0.422615C13.2476 0.516409 13.1569 0.633834 13.0946 0.766572C13.0324 0.89931 13.0001 1.04411 13 1.19073V4.06973C11.3317 3.84972 9.63633 4.15786 8.15213 4.95087C6.66793 5.74388 5.46943 6.98191 4.72499 8.49106C3.98056 10.0002 3.72758 11.7047 4.00161 13.365C4.27563 15.0253 5.06289 16.558 6.25279 17.7479C7.44269 18.9378 8.97545 19.7251 10.6358 19.9991C12.2961 20.2731 14.0005 20.0202 15.5097 19.2757C17.0188 18.5313 18.2568 17.3328 19.0499 15.8486C19.8429 14.3644 20.151 12.6691 19.931 11.0007H22.817C22.9636 11.0007 23.1084 10.9683 23.2412 10.9061C23.3739 10.8438 23.4913 10.7531 23.5851 10.6405C23.6789 10.5278 23.7468 10.3958 23.7839 10.254C23.821 10.1122 23.8265 9.96392 23.8 9.81973C23.3511 7.43524 22.1927 5.24186 20.4764 3.52679C18.76 1.81171 16.5658 0.654865 14.181 0.207727ZM16 13.0007H13.723C13.5703 13.266 13.3586 13.4925 13.1042 13.6627C12.8499 13.833 12.5598 13.9424 12.2564 13.9825C11.953 14.0227 11.6444 13.9924 11.3546 13.8941C11.0647 13.7958 10.8014 13.6321 10.585 13.4157C10.3686 13.1993 10.2049 12.936 10.1066 12.6461C10.0083 12.3563 9.97806 12.0477 10.0182 11.7443C10.0583 11.4409 10.1677 11.1508 10.338 10.8965C10.5083 10.6422 10.7348 10.4304 11 10.2777V7.00073C11 6.73551 11.1054 6.48116 11.2929 6.29362C11.4804 6.10608 11.7348 6.00073 12 6.00073C12.2652 6.00073 12.5196 6.10608 12.7071 6.29362C12.8946 6.48116 13 6.73551 13 7.00073V10.2777C13.2996 10.452 13.5487 10.7012 13.723 11.0007H16C16.2652 11.0007 16.5196 11.1061 16.7071 11.2936C16.8946 11.4812 17 11.7355 17 12.0007C17 12.2659 16.8946 12.5203 16.7071 12.7078C16.5196 12.8954 16.2652 13.0007 16 13.0007ZM2.986 4.96873C3.18011 5.00563 3.35894 5.09922 3.49991 5.23767C3.64089 5.37612 3.73769 5.55323 3.77809 5.74665C3.81849 5.94007 3.80069 6.14112 3.72693 6.32443C3.65317 6.50773 3.52676 6.66508 3.36365 6.77661C3.20054 6.88814 3.00805 6.94884 2.81047 6.95107C2.61289 6.95329 2.41908 6.89693 2.25351 6.7891C2.08793 6.68127 1.95801 6.52681 1.88014 6.34521C1.80228 6.1636 1.77995 5.963 1.816 5.76873C1.84002 5.63924 1.88938 5.51577 1.96125 5.40542C2.03312 5.29506 2.12608 5.19998 2.23479 5.12565C2.3435 5.05132 2.46583 4.99919 2.59474 4.97226C2.72365 4.94533 2.85662 4.94413 2.986 4.96873ZM1.386 8.95573C1.58011 8.99263 1.75894 9.08622 1.89991 9.22467C2.04089 9.36312 2.13769 9.54023 2.17809 9.73365C2.21849 9.92707 2.20069 10.1281 2.12693 10.3114C2.05317 10.4947 1.92676 10.6521 1.76365 10.7636C1.60054 10.8751 1.40805 10.9358 1.21047 10.9381C1.01289 10.9403 0.819082 10.8839 0.653505 10.7761C0.487929 10.6683 0.358008 10.5138 0.280142 10.3322C0.202275 10.1506 0.179954 9.95 0.215995 9.75573C0.240035 9.62654 0.289299 9.50336 0.360971 9.39323C0.432644 9.2831 0.525319 9.18817 0.633699 9.11387C0.74208 9.03957 0.86404 8.98737 0.992609 8.96023C1.12118 8.93309 1.25383 8.93157 1.383 8.95573H1.386ZM10.128 21.8237C10.3223 21.8609 10.5012 21.9548 10.642 22.0937C10.7829 22.2325 10.8795 22.41 10.9195 22.6037C10.9595 22.7974 10.9411 22.9986 10.8668 23.1819C10.7924 23.3652 10.6653 23.5223 10.5017 23.6334C10.338 23.7444 10.1451 23.8045 9.94728 23.8059C9.74949 23.8073 9.55572 23.75 9.39048 23.6413C9.22524 23.5326 9.09596 23.3773 9.01898 23.1951C8.94199 23.0129 8.92077 22.812 8.958 22.6177C9.00793 22.3579 9.15877 22.1285 9.3775 21.9797C9.59622 21.8309 9.86501 21.7748 10.125 21.8237H10.128ZM6.008 1.90073C6.20211 1.93763 6.38094 2.03122 6.52191 2.16967C6.66289 2.30812 6.75969 2.48523 6.80009 2.67865C6.84049 2.87207 6.82269 3.07312 6.74893 3.25643C6.67517 3.43973 6.54876 3.59708 6.38565 3.70861C6.22254 3.82014 6.03005 3.88084 5.83247 3.88307C5.63489 3.88529 5.44108 3.82893 5.27551 3.7211C5.10993 3.61327 4.98001 3.45881 4.90214 3.27721C4.82428 3.0956 4.80195 2.895 4.838 2.70073C4.86202 2.57124 4.91138 2.44777 4.98325 2.33742C5.05512 2.22706 5.14808 2.13198 5.25679 2.05765C5.3655 1.98332 5.48783 1.93119 5.61674 1.90426C5.74565 1.87733 5.87862 1.87613 6.008 1.90073ZM10.182 0.209727C10.3758 0.250085 10.5533 0.347057 10.6919 0.488358C10.8306 0.62966 10.9241 0.808932 10.9608 1.00347C10.9975 1.198 10.9756 1.39904 10.8979 1.58113C10.8202 1.76321 10.6903 1.91814 10.5245 2.02629C10.3587 2.13445 10.1645 2.19095 9.96653 2.18866C9.76858 2.18636 9.57577 2.12537 9.41251 2.0134C9.24926 1.90143 9.12291 1.74353 9.04948 1.55969C8.97604 1.37585 8.95882 1.17436 9 0.980727C9.05501 0.722025 9.21027 0.495653 9.43179 0.351156C9.65332 0.206659 9.92306 0.155806 10.182 0.209727ZM0.233995 14.0467C0.270901 13.8526 0.364486 13.6738 0.502937 13.5328C0.641389 13.3918 0.818501 13.295 1.01192 13.2546C1.20534 13.2142 1.40639 13.232 1.58969 13.3058C1.773 13.3796 1.93035 13.506 2.04188 13.6691C2.15341 13.8322 2.21411 14.0247 2.21633 14.2223C2.21856 14.4198 2.1622 14.6136 2.05437 14.7792C1.94654 14.9448 1.79208 15.0747 1.61047 15.1526C1.42887 15.2304 1.22827 15.2528 1.034 15.2167C0.904508 15.1927 0.781042 15.1433 0.670684 15.0715C0.560326 14.9996 0.465251 14.9066 0.390918 14.7979C0.316584 14.6892 0.264456 14.5669 0.237527 14.438C0.210598 14.3091 0.209398 14.1761 0.233995 14.0467ZM1.915 18.0097C1.9519 17.8156 2.04549 17.6368 2.18394 17.4958C2.32239 17.3548 2.4995 17.258 2.69292 17.2176C2.88633 17.1772 3.08739 17.195 3.27069 17.2688C3.454 17.3426 3.61135 17.469 3.72288 17.6321C3.8344 17.7952 3.89511 17.9877 3.89733 18.1853C3.89956 18.3828 3.8432 18.5766 3.73537 18.7422C3.62754 18.9078 3.47308 19.0377 3.29147 19.1156C3.10987 19.1934 2.90927 19.2158 2.715 19.1797C2.58551 19.1557 2.46204 19.1063 2.35168 19.0345C2.24133 18.9626 2.14625 18.8696 2.07192 18.7609C1.99758 18.6522 1.94546 18.5299 1.91853 18.401C1.8916 18.2721 1.8904 18.1391 1.915 18.0097ZM4.967 21.0007C5.0039 20.8066 5.09749 20.6278 5.23594 20.4868C5.37439 20.3458 5.5515 20.249 5.74492 20.2086C5.93833 20.1682 6.13939 20.186 6.32269 20.2598C6.506 20.3336 6.66335 20.46 6.77488 20.6231C6.8864 20.7862 6.94711 20.9787 6.94933 21.1763C6.95156 21.3738 6.8952 21.5676 6.78737 21.7332C6.67954 21.8988 6.52508 22.0287 6.34347 22.1066C6.16187 22.1844 5.96127 22.2068 5.767 22.1707C5.63751 22.1467 5.51404 22.0973 5.40368 22.0255C5.29333 21.9536 5.19825 21.8606 5.12392 21.7519C5.04958 21.6432 4.99746 21.5209 4.97053 21.392C4.9436 21.2631 4.9424 21.1301 4.967 21.0007ZM21.014 19.0337C20.8199 18.9968 20.6411 18.9032 20.5001 18.7648C20.3591 18.6263 20.2623 18.4492 20.2219 18.2558C20.1815 18.0624 20.1993 17.8613 20.2731 17.678C20.3468 17.4947 20.4732 17.3374 20.6363 17.2258C20.7994 17.1143 20.9919 17.0536 21.1895 17.0514C21.3871 17.0492 21.5809 17.1055 21.7465 17.2134C21.9121 17.3212 22.042 17.4756 22.1199 17.6572C22.1977 17.8389 22.22 18.0394 22.184 18.2337C22.1599 18.3631 22.1104 18.4865 22.0385 18.5967C21.9666 18.707 21.8736 18.8019 21.7649 18.8762C21.6562 18.9504 21.5339 19.0024 21.4051 19.0293C21.2762 19.0562 21.1433 19.0573 21.014 19.0327V19.0337ZM17.992 22.1007C17.7979 22.0638 17.6191 21.9702 17.4781 21.8318C17.3371 21.6933 17.2403 21.5162 17.1999 21.3228C17.1595 21.1294 17.1773 20.9283 17.2511 20.745C17.3248 20.5617 17.4512 20.4044 17.6143 20.2928C17.7775 20.1813 17.9699 20.1206 18.1675 20.1184C18.3651 20.1162 18.5589 20.1725 18.7245 20.2804C18.8901 20.3882 19.02 20.5426 19.0978 20.7242C19.1757 20.9058 19.198 21.1064 19.162 21.3007C19.138 21.4302 19.0886 21.5537 19.0167 21.664C18.9449 21.7744 18.8519 21.8695 18.7432 21.9438C18.6345 22.0181 18.5122 22.0703 18.3833 22.0972C18.2543 22.1241 18.1214 22.1253 17.992 22.1007ZM14.053 23.7567C13.8587 23.7196 13.6799 23.6257 13.539 23.487C13.3981 23.3482 13.3015 23.1708 13.2614 22.9771C13.2214 22.7834 13.2396 22.5822 13.3139 22.399C13.3881 22.2157 13.5151 22.0585 13.6787 21.9474C13.8422 21.8362 14.0351 21.7761 14.2328 21.7745C14.4306 21.773 14.6244 21.8301 14.7897 21.9387C14.955 22.0472 15.0844 22.2024 15.1615 22.3845C15.2386 22.5666 15.26 22.7675 15.223 22.9617C15.1724 23.2216 15.0208 23.4508 14.8015 23.5991C14.5822 23.7474 14.313 23.8026 14.053 23.7527V23.7567ZM23.712 14.0007C23.712 14.1985 23.6533 14.3918 23.5435 14.5563C23.4336 14.7207 23.2774 14.8489 23.0947 14.9246C22.912 15.0003 22.7109 15.0201 22.5169 14.9815C22.3229 14.9429 22.1447 14.8477 22.0049 14.7078C21.865 14.568 21.7698 14.3898 21.7312 14.1958C21.6926 14.0018 21.7124 13.8008 21.7881 13.618C21.8638 13.4353 21.992 13.2791 22.1564 13.1693C22.3209 13.0594 22.5142 13.0007 22.712 13.0007C22.9772 13.0007 23.2316 13.1061 23.4191 13.2936C23.6066 13.4812 23.712 13.7355 23.712 14.0007Z" fill="#374957"/>
</g>
<defs>
<clipPath id="clip0_806_6793">
<rect width="24" height="24" fill="white"/>
</clipPath>
</defs>
</svg>
