<svg width="24" height="24" viewBox="0 0 24 24" fill="none" xmlns="http://www.w3.org/2000/svg">
<g clip-path="url(#clip0_806_6451)">
<path d="M9.39984 24C9.11794 23.9824 8.83889 23.9335 8.56784 23.854C7.869 23.661 7.24734 23.2558 6.78874 22.6943C6.33014 22.1327 6.05723 21.4426 6.00773 20.7193C5.95822 19.996 6.13455 19.2752 6.51236 18.6564C6.89017 18.0376 7.45081 17.5515 8.11684 17.265C7.93831 16.3609 7.95775 15.4289 8.17384 14.533C8.47735 13.3067 9.16023 12.2074 10.1251 11.3919C11.0901 10.5764 12.2878 10.0863 13.5476 9.99142C14.8074 9.89655 16.065 10.2018 17.1411 10.8636C18.2173 11.5253 19.0571 12.5099 19.5408 13.677C19.6229 13.8099 19.7349 13.9217 19.8679 14.0035C20.0009 14.0853 20.1513 14.1348 20.3068 14.148C21.5629 14.4903 22.6364 15.3079 23.3003 16.4278C23.9642 17.5476 24.1663 18.8818 23.8638 20.148C23.6548 21.049 23.1972 21.8734 22.5432 22.5274C21.8892 23.1814 21.0648 23.639 20.1638 23.848C19.8152 23.9345 19.4587 23.9854 19.0998 24H9.39984ZM5.99984 16.23C5.98032 15.5 6.05766 14.7707 6.22984 14.061C6.61874 12.48 7.4808 11.0552 8.70087 9.9771C9.92094 8.89896 11.4409 8.21877 13.0578 8.02736C14.6747 7.83596 16.3115 8.14246 17.7496 8.90593C19.1877 9.6694 20.3585 10.8535 21.1058 12.3C22.2014 12.6486 23.195 13.2601 23.9998 14.081C24.0236 12.3561 23.4859 10.6702 22.4679 9.27751C21.4499 7.88482 20.0066 6.86087 18.3558 6.36003C18.1843 6.30698 18.0286 6.21227 17.9026 6.08436C17.7766 5.95645 17.6843 5.79933 17.6338 5.62703C17.1047 3.92665 16.0233 2.45144 14.561 1.43507C13.0987 0.4187 11.3391 -0.0807097 9.56095 0.0159484C7.78276 0.112607 6.08766 0.799806 4.74416 1.96869C3.40065 3.13757 2.48556 4.72131 2.14384 6.46903C1.79229 8.23571 2.0756 10.0698 2.94384 11.648C1.93229 12.1703 1.10975 12.9963 0.591756 14.01C0.0737661 15.0238 -0.113648 16.1743 0.0558399 17.3C0.259803 18.3513 0.75082 19.3255 1.47449 20.1149C2.19815 20.9042 3.12621 21.4778 4.15584 21.772C3.91177 20.7683 3.95528 19.7162 4.2814 18.736C4.60752 17.7559 5.20306 16.8874 5.99984 16.23Z" fill="#374957"/>
</g>
<defs>
<clipPath id="clip0_806_6451">
<rect width="24" height="24" fill="white"/>
</clipPath>
</defs>
</svg>
