<svg width="24" height="24" viewBox="0 0 24 24" fill="none" xmlns="http://www.w3.org/2000/svg">
<g clip-path="url(#clip0_806_6526)">
<path d="M14 7V0.46C14.9251 0.809335 15.7653 1.35131 16.465 2.05L19.949 5.536C20.6485 6.23488 21.1909 7.07489 21.54 8H15C14.7348 8 14.4804 7.89464 14.2929 7.70711C14.1054 7.51957 14 7.26522 14 7ZM21.976 10H15C14.2044 10 13.4413 9.68393 12.8787 9.12132C12.3161 8.55871 12 7.79565 12 7V0.024C11.839 0.013 11.678 0 11.515 0H7C5.67441 0.00158786 4.40356 0.528882 3.46622 1.46622C2.52888 2.40356 2.00159 3.67441 2 5V19C2.00159 20.3256 2.52888 21.5964 3.46622 22.5338C4.40356 23.4711 5.67441 23.9984 7 24H17C18.3256 23.9984 19.5964 23.4711 20.5338 22.5338C21.4711 21.5964 21.9984 20.3256 22 19V10.485C22 10.322 21.987 10.161 21.976 10ZM14 14H13V18.5C13 18.9945 12.8534 19.4778 12.5787 19.8889C12.304 20.3 11.9135 20.6205 11.4567 20.8097C10.9999 20.9989 10.4972 21.0484 10.0123 20.952C9.52732 20.8555 9.08186 20.6174 8.73223 20.2678C8.3826 19.9181 8.1445 19.4727 8.04804 18.9877C7.95157 18.5028 8.00108 18.0001 8.1903 17.5433C8.37952 17.0865 8.69995 16.696 9.11107 16.4213C9.5222 16.1466 10.0055 16 10.5 16C10.6679 16.0003 10.8354 16.0171 11 16.05V14C11 13.4696 11.2107 12.9609 11.5858 12.5858C11.9609 12.2107 12.4696 12 13 12H14C14.2652 12 14.5196 12.1054 14.7071 12.2929C14.8946 12.4804 15 12.7348 15 13C15 13.2652 14.8946 13.5196 14.7071 13.7071C14.5196 13.8946 14.2652 14 14 14Z" fill="#374957"/>
</g>
<defs>
<clipPath id="clip0_806_6526">
<rect width="24" height="24" fill="white"/>
</clipPath>
</defs>
</svg>
