<svg width="24" height="24" viewBox="0 0 24 24" fill="none" xmlns="http://www.w3.org/2000/svg">
<g clip-path="url(#clip0_806_6831)">
<path d="M8.00003 3C8.00003 2.40666 8.17598 1.82664 8.50562 1.33329C8.83527 0.839943 9.3038 0.455426 9.85198 0.228363C10.4002 0.00129986 11.0034 -0.0581102 11.5853 0.0576455C12.1672 0.173401 12.7018 0.459124 13.1214 0.878681C13.5409 1.29824 13.8266 1.83279 13.9424 2.41473C14.0581 2.99667 13.9987 3.59987 13.7717 4.14805C13.5446 4.69623 13.1601 5.16477 12.6667 5.49441C12.1734 5.82406 11.5934 6 11 6C10.2044 6 9.44132 5.68393 8.87871 5.12132C8.3161 4.55871 8.00003 3.79565 8.00003 3ZM23 21H21.721L20.4 17.051C20.2011 16.4545 19.8199 15.9356 19.3101 15.5676C18.8003 15.1996 18.1878 15.001 17.559 15H14C13.4696 15 12.9609 14.7893 12.5858 14.4142C12.2107 14.0391 12 13.5304 12 13H18C18.2652 13 18.5196 12.8946 18.7071 12.7071C18.8947 12.5196 19 12.2652 19 12C19 11.7348 18.8947 11.4804 18.7071 11.2929C18.5196 11.1054 18.2652 11 18 11H12V8C12 7.73479 11.8947 7.48043 11.7071 7.2929C11.5196 7.10536 11.2652 7 11 7C10.7348 7 10.4805 7.10536 10.2929 7.2929C10.1054 7.48043 10 7.73479 10 8V13C10 14.0609 10.4215 15.0783 11.1716 15.8284C11.9217 16.5786 12.9392 17 14 17H17.559C17.769 17 17.9736 17.066 18.144 17.1888C18.3143 17.3115 18.4417 17.4848 18.508 17.684L20.052 22.316C20.1183 22.515 20.2455 22.6882 20.4157 22.811C20.5858 22.9337 20.7902 22.9998 21 23H23C23.2652 23 23.5196 22.8946 23.7071 22.7071C23.8947 22.5196 24 22.2652 24 22C24 21.7348 23.8947 21.4804 23.7071 21.2929C23.5196 21.1054 23.2652 21 23 21ZM13.786 18.988C12.2319 18.9393 10.7581 18.2866 9.67762 17.1684C8.59719 16.0503 7.99536 14.5549 8.00003 13V9.071C8.00005 8.92767 7.96926 8.78601 7.90974 8.65562C7.85022 8.52523 7.76336 8.40915 7.65506 8.31527C7.54676 8.22138 7.41954 8.15187 7.28202 8.11145C7.14451 8.07103 6.99991 8.06065 6.85803 8.081C4.87598 8.37907 3.07787 9.40984 1.81908 10.9696C0.560292 12.5293 -0.0675679 14.5046 0.0595947 16.5049C0.186757 18.5052 1.05969 20.385 2.50586 21.7728C3.95202 23.1605 5.86619 23.9553 7.87003 24H8.00003C9.29227 24.0003 10.5653 23.6874 11.7101 23.0879C12.8549 22.4884 13.8373 21.6203 14.573 20.558C14.6755 20.4105 14.7364 20.2381 14.7493 20.0589C14.7621 19.8797 14.7264 19.7004 14.646 19.5397C14.5656 19.3791 14.4434 19.2431 14.2922 19.146C14.1411 19.0489 13.9666 18.9943 13.787 18.988H13.786Z" fill="#374957"/>
</g>
<defs>
<clipPath id="clip0_806_6831">
<rect width="24" height="24" fill="white"/>
</clipPath>
</defs>
</svg>
