<svg width="24" height="24" viewBox="0 0 24 24" fill="none" xmlns="http://www.w3.org/2000/svg">
<g clip-path="url(#clip0_806_6716)">
<path d="M23.7198 22.3083L17.7594 16.3479C21.2558 12.0716 20.6237 5.77064 16.3474 2.27418C12.0711 -1.22227 5.77015 -0.590114 2.27369 3.68615C-1.22276 7.96242 -0.590602 14.2634 3.68566 17.7599C7.36901 20.7715 12.6641 20.7715 16.3474 17.7599L22.3078 23.7202C22.7045 24.1034 23.3366 24.0924 23.7198 23.6957C24.0935 23.3087 24.0935 22.6953 23.7198 22.3083ZM11.2767 14.6653C10.5486 15.2452 9.5164 15.2452 8.78829 14.6653C7.07777 13.2913 5.03969 11.2312 5.03969 9.23414C4.98865 7.52606 6.32759 6.09787 8.03538 6.03876C8.78135 6.04214 9.49708 6.33412 10.0325 6.85359C10.5679 6.33417 11.2836 6.04214 12.0296 6.03876C13.7374 6.09792 15.0763 7.5261 15.0253 9.23414C15.0253 11.2312 12.9873 13.2913 11.2767 14.6653ZM13.0282 9.23414C13.0282 10.1328 11.8778 11.6207 10.0385 13.1085C8.18716 11.6207 7.0368 10.1328 7.0368 9.23414C6.98698 8.62917 7.4313 8.09592 8.03538 8.03587C8.63941 8.09592 9.08379 8.62917 9.03396 9.23414C9.03396 9.78562 9.48101 10.2327 10.0325 10.2327C10.584 10.2327 11.0311 9.78567 11.0311 9.23414C10.9813 8.62917 11.4256 8.09592 12.0297 8.03587C12.6337 8.09592 13.078 8.62917 13.0282 9.23414Z" fill="#374957"/>
</g>
<defs>
<clipPath id="clip0_806_6716">
<rect width="24" height="24" fill="white"/>
</clipPath>
</defs>
</svg>
