<svg width="24" height="24" viewBox="0 0 24 24" fill="none" xmlns="http://www.w3.org/2000/svg">
<path d="M16 12.9995C15.5343 13.6205 14.9303 14.1245 14.2361 14.4716C13.5418 14.8188 12.7762 14.9995 12 14.9995C11.2238 14.9995 10.4582 14.8188 9.76393 14.4716C9.06966 14.1245 8.46574 13.6205 8 12.9995C7.60803 13.5279 7.11479 13.9729 6.54903 14.3087C5.98328 14.6444 5.35634 14.8642 4.70477 14.9551C4.0532 15.0461 3.39005 15.0064 2.75398 14.8383C2.11791 14.6703 1.52166 14.3774 1 13.9765V18.9995C1.00159 20.3251 1.52888 21.5959 2.46622 22.5333C3.40356 23.4706 4.67441 23.9979 6 23.9995H18C19.3256 23.9979 20.5964 23.4706 21.5338 22.5333C22.4711 21.5959 22.9984 20.3251 23 18.9995V13.9735C22.4785 14.3745 21.8824 14.6677 21.2465 14.8359C20.6105 15.0042 19.9474 15.0442 19.2959 14.9535C18.6443 14.8628 18.0173 14.6434 17.4515 14.3079C16.8856 13.9724 16.3922 13.5276 16 12.9995Z" fill="#374957"/>
<path d="M21.7 3.13131C21.5064 2.24041 21.0125 1.44311 20.301 0.873073C19.5895 0.303033 18.7037 -0.00510304 17.792 0.000314373H17V3.00031C17 3.26553 16.8946 3.51988 16.7071 3.70742C16.5196 3.89496 16.2652 4.00031 16 4.00031C15.7348 4.00031 15.4804 3.89496 15.2929 3.70742C15.1054 3.51988 15 3.26553 15 3.00031V0.000314373H9V3.00031C9 3.26553 8.89464 3.51988 8.70711 3.70742C8.51957 3.89496 8.26522 4.00031 8 4.00031C7.73478 4.00031 7.48043 3.89496 7.29289 3.70742C7.10536 3.51988 7 3.26553 7 3.00031V0.000314373H6.208C5.29619 -0.00505412 4.41025 0.303224 3.69872 0.873461C2.9872 1.4437 2.49336 2.24122 2.3 3.13231L1.022 8.90031L1 10.0203C1.00131 10.4143 1.08021 10.8041 1.23219 11.1676C1.38417 11.5311 1.60625 11.8611 1.88575 12.1387C2.45024 12.6994 3.21435 13.013 4.01 13.0103C4.40397 13.009 4.79381 12.9301 5.15729 12.7781C5.52076 12.6261 5.85074 12.4041 6.12839 12.1246C6.40604 11.8451 6.62591 11.5136 6.77547 11.1491C6.92502 10.7846 7.00131 10.3943 7 10.0003C7 9.7351 7.10536 9.48074 7.29289 9.29321C7.48043 9.10567 7.73478 9.00031 8 9.00031C8.26522 9.00031 8.51957 9.10567 8.70711 9.29321C8.89464 9.48074 9 9.7351 9 10.0003C9 10.796 9.31607 11.559 9.87868 12.1216C10.4413 12.6842 11.2044 13.0003 12 13.0003C12.7956 13.0003 13.5587 12.6842 14.1213 12.1216C14.6839 11.559 15 10.796 15 10.0003C15 9.7351 15.1054 9.48074 15.2929 9.29321C15.4804 9.10567 15.7348 9.00031 16 9.00031C16.2652 9.00031 16.5196 9.10567 16.7071 9.29321C16.8946 9.48074 17 9.7351 17 10.0003C17 10.796 17.3161 11.559 17.8787 12.1216C18.4413 12.6842 19.2044 13.0003 20 13.0003C20.7956 13.0003 21.5587 12.6842 22.1213 12.1216C22.6839 11.559 23 10.796 23 10.0003V9.10732L21.7 3.13131Z" fill="#374957"/>
</svg>
