<svg width="24" height="24" viewBox="0 0 24 24" fill="none" xmlns="http://www.w3.org/2000/svg">
<g clip-path="url(#clip0_806_6415)">
<path d="M14.9998 7.00005V3.00005C14.9998 2.73483 15.1051 2.48048 15.2927 2.29294C15.4802 2.10541 15.7345 2.00005 15.9998 2.00005C16.265 2.00005 16.5193 2.10541 16.7069 2.29294C16.8944 2.48048 16.9998 2.73483 16.9998 3.00005V5.61305C17.6298 4.98105 21.6998 0.887051 22.2928 0.300051C22.4814 0.117893 22.734 0.0170982 22.9962 0.0193766C23.2584 0.0216551 23.5092 0.126824 23.6946 0.312232C23.88 0.49764 23.9852 0.748453 23.9874 1.01065C23.9897 1.27285 23.8889 1.52545 23.7068 1.71405C23.1148 2.30005 19.0638 6.37305 18.4388 7.00005H20.9998C21.265 7.00005 21.5193 7.10541 21.7069 7.29294C21.8944 7.48048 21.9998 7.73483 21.9998 8.00005C21.9998 8.26527 21.8944 8.51962 21.7069 8.70716C21.5193 8.89469 21.265 9.00005 20.9998 9.00005H16.9998C16.4693 9.00005 15.9606 8.78934 15.5856 8.41426C15.2105 8.03919 14.9998 7.53048 14.9998 7.00005ZM20.6548 14.8551C20.0774 14.3057 19.3106 13.9998 18.5136 14.0009C17.7166 14.002 16.9506 14.3101 16.3748 14.8611L14.4688 16.4671C12.913 15.8233 11.4998 14.8785 10.3102 13.687C9.12061 12.4955 8.17809 11.0808 7.53677 9.52405L9.13676 7.62405C9.6863 7.04705 9.99332 6.28107 9.99444 5.48425C9.99555 4.68743 9.69068 3.92059 9.14276 3.34205C9.14276 3.34205 7.29077 0.939051 7.25977 0.908051C6.68922 0.333799 5.91565 0.0070727 5.10619 -0.00153454C4.29674 -0.0101418 3.51639 0.300061 2.93376 0.862051L1.78376 1.86205C-5.93524 10.0721 13.9838 30.0001 22.1838 22.1621L23.0958 21.1121C23.675 20.531 24.0002 19.744 24.0002 18.9236C24.0002 18.1031 23.675 17.3161 23.0958 16.7351C23.0628 16.7081 20.6548 14.8561 20.6548 14.8561V14.8551Z" fill="#374957"/>
</g>
<defs>
<clipPath id="clip0_806_6415">
<rect width="24" height="24" fill="white"/>
</clipPath>
</defs>
</svg>
