<svg width="24" height="24" viewBox="0 0 24 24" fill="none" xmlns="http://www.w3.org/2000/svg">
<g clip-path="url(#clip0_806_6411)">
<path d="M23.9998 23.01C23.9997 23.1408 23.9736 23.2703 23.9232 23.391C23.8728 23.5117 23.799 23.6213 23.706 23.7133C23.613 23.8053 23.5028 23.878 23.3816 23.9273C23.2603 23.9765 23.1306 24.0012 22.9998 24H0.999777C0.860731 24.014 0.720303 23.9986 0.587551 23.955C0.454798 23.9113 0.332667 23.8403 0.229035 23.7466C0.125404 23.6528 0.0425719 23.5384 -0.0141182 23.4107C-0.0708082 23.2829 -0.100098 23.1447 -0.100098 23.005C-0.100098 22.8653 -0.0708082 22.7271 -0.0141182 22.5993C0.0425719 22.4716 0.125404 22.3572 0.229035 22.2634C0.332667 22.1697 0.454798 22.0987 0.587551 22.055C0.720303 22.0114 0.860731 21.996 0.999777 22.01H1.99978V22V19.625C2.55089 19.8697 3.14679 19.9974 3.74978 20C4.75677 20.0076 5.73289 19.6527 6.49978 19C7.27114 19.643 8.24286 19.9964 9.24707 19.9991C10.2513 20.0019 11.2249 19.6538 11.9998 19.015C12.7746 19.6538 13.7483 20.0019 14.7525 19.9991C15.7567 19.9964 16.7284 19.643 17.4998 19C18.2667 19.6527 19.2428 20.0076 20.2498 20C20.8528 19.9974 21.4487 19.8697 21.9998 19.625V22V22.01H22.9998C23.265 22.01 23.5194 22.1154 23.7069 22.3029C23.8944 22.4904 23.9998 22.7448 23.9998 23.01ZM8.99978 2C9.19756 2 9.3909 1.94135 9.55535 1.83147C9.7198 1.72159 9.84797 1.56541 9.92366 1.38268C9.99934 1.19996 10.0191 0.998891 9.98056 0.80491C9.94198 0.610929 9.84674 0.432746 9.70688 0.292894C9.56703 0.153041 9.38885 0.0578004 9.19487 0.0192152C9.00089 -0.0193701 8.79982 0.000433281 8.61709 0.0761209C8.43437 0.151809 8.27819 0.279981 8.16831 0.44443C8.05843 0.608879 7.99978 0.802219 7.99978 1C7.99978 1.26522 8.10513 1.51957 8.29267 1.70711C8.48021 1.89464 8.73456 2 8.99978 2ZM14.9998 2C15.1976 2 15.3909 1.94135 15.5553 1.83147C15.7198 1.72159 15.848 1.56541 15.9237 1.38268C15.9993 1.19996 16.0191 0.998891 15.9806 0.80491C15.942 0.610929 15.8467 0.432746 15.7069 0.292894C15.567 0.153041 15.3889 0.0578004 15.1949 0.0192152C15.0009 -0.0193701 14.7998 0.000433281 14.6171 0.0761209C14.4344 0.151809 14.2782 0.279981 14.1683 0.44443C14.0584 0.608879 13.9998 0.802219 13.9998 1C13.9998 1.26522 14.1051 1.51957 14.2927 1.70711C14.4802 1.89464 14.7346 2 14.9998 2ZM3.74978 18C4.81778 18 5.49978 17.343 5.49978 17C5.49978 16.7348 5.60513 16.4804 5.79267 16.2929C5.98021 16.1054 6.23456 16 6.49978 16C6.76499 16 7.01935 16.1054 7.20688 16.2929C7.39442 16.4804 7.49978 16.7348 7.49978 17C7.49978 17.306 8.16078 18 9.24978 18C10.3178 18 10.9998 17.343 10.9998 17C10.9998 16.7348 11.1051 16.4804 11.2927 16.2929C11.4802 16.1054 11.7346 16 11.9998 16C12.265 16 12.5193 16.1054 12.7069 16.2929C12.8944 16.4804 12.9998 16.7348 12.9998 17C12.9998 17.306 13.6608 18 14.7498 18C15.8178 18 16.4998 17.343 16.4998 17C16.4998 16.7348 16.6051 16.4804 16.7927 16.2929C16.9802 16.1054 17.2346 16 17.4998 16C17.765 16 18.0194 16.1054 18.2069 16.2929C18.3944 16.4804 18.4998 16.7348 18.4998 17C18.4998 17.306 19.1608 18 20.2498 18C21.3388 18 21.9998 17.306 21.9998 17C21.9982 15.6744 21.4709 14.4036 20.5336 13.4662C19.5962 12.5289 18.3254 12.0016 16.9998 12H6.99978C5.67418 12.0016 4.40334 12.5289 3.466 13.4662C2.52866 14.4036 2.00137 15.6744 1.99978 17C1.99978 17.306 2.66078 18 3.74978 18ZM16.9998 10C17.6773 10.0004 18.351 10.0998 18.9998 10.295V10C18.9983 9.34944 18.7848 8.7171 18.3916 8.19882C17.9984 7.68055 17.4469 7.30461 16.8208 7.128L16.1608 3.8C16.1146 3.57396 15.9918 3.37082 15.813 3.22502C15.6342 3.07922 15.4105 2.99972 15.1798 3H14.8198C14.5891 2.99972 14.3654 3.07922 14.1866 3.22502C14.0078 3.37082 13.8849 3.57396 13.8388 3.8L13.1998 7H10.2498L10.9998 4C10.9998 3.73478 10.8944 3.48043 10.7069 3.29289C10.5193 3.10536 10.265 3 9.99978 3H7.99978C7.73456 3 7.48021 3.10536 7.29267 3.29289C7.10514 3.48043 6.99978 3.73478 6.99978 4L7.75578 7.025C7.0066 7.08381 6.30703 7.42257 5.79633 7.97386C5.28563 8.52514 5.00124 9.24852 4.99978 10V10.3C5.64827 10.1031 6.32206 10.002 6.99978 10H16.9998Z" fill="#374957"/>
</g>
<defs>
<clipPath id="clip0_806_6411">
<rect width="24" height="24" fill="white"/>
</clipPath>
</defs>
</svg>
