<svg width="24" height="24" viewBox="0 0 24 24" fill="none" xmlns="http://www.w3.org/2000/svg">
<g clip-path="url(#clip0_806_6420)">
<path d="M0.327 12C0.356 11.907 0.369 11.81 0.402 11.718L3.1 4.291C3.45233 3.3273 4.09196 2.49496 4.93248 1.90641C5.773 1.31787 6.77391 1.00149 7.8 1H16.2C17.2262 1.00142 18.2273 1.31789 19.0679 1.90664C19.9084 2.4954 20.548 3.32803 20.9 4.292L23.6 11.718C23.633 11.81 23.646 11.907 23.675 12H0.327ZM20 14V16C20 16.2652 19.8946 16.5196 19.7071 16.7071C19.5196 16.8946 19.2652 17 19 17C18.7348 17 18.4804 16.8946 18.2929 16.7071C18.1054 16.5196 18 16.2652 18 16V14H6V16C6 16.2652 5.89464 16.5196 5.70711 16.7071C5.51957 16.8946 5.26522 17 5 17C4.73478 17 4.48043 16.8946 4.29289 16.7071C4.10536 16.5196 4 16.2652 4 16V14H0V16C0.00127838 16.9718 0.285705 17.9221 0.818499 18.7348C1.35129 19.5475 2.10936 20.1873 3 20.576V22C3 22.5304 3.21071 23.0391 3.58579 23.4142C3.96086 23.7893 4.46957 24 5 24C5.53043 24 6.03914 23.7893 6.41421 23.4142C6.78929 23.0391 7 22.5304 7 22V21H17V22C17 22.5304 17.2107 23.0391 17.5858 23.4142C17.9609 23.7893 18.4696 24 19 24C19.5304 24 20.0391 23.7893 20.4142 23.4142C20.7893 23.0391 21 22.5304 21 22V20.576C21.8906 20.1873 22.6487 19.5475 23.1815 18.7348C23.7143 17.9221 23.9987 16.9718 24 16V14H20Z" fill="#374957"/>
</g>
<defs>
<clipPath id="clip0_806_6420">
<rect width="24" height="24" fill="white"/>
</clipPath>
</defs>
</svg>
