<svg width="24" height="24" viewBox="0 0 24 24" fill="none" xmlns="http://www.w3.org/2000/svg">
<g clip-path="url(#clip0_806_6414)">
<path d="M20.6571 14.8582C20.0794 14.3084 19.3121 14.0023 18.5147 14.0036C17.7172 14.0049 16.9509 14.3135 16.3751 14.8652L14.4691 16.4712C12.9132 15.8271 11.4999 14.882 10.3103 13.6902C9.12074 12.4983 8.17829 11.0833 7.53709 9.5262L9.13709 7.6262C9.68837 7.05029 9.99659 6.28414 9.99771 5.4869C9.99883 4.68967 9.69276 3.92265 9.14309 3.3452C9.14309 3.3452 7.29209 0.9422 7.26109 0.9112C6.69063 0.336409 5.9168 0.00932636 5.10703 0.000717698C4.29725 -0.00789096 3.51665 0.302666 2.9341 0.8652L1.7841 1.8652C-5.93589 10.0732 13.9841 30.0032 22.1841 22.1652L23.0961 21.1152C23.675 20.5342 24 19.7474 24 18.9272C24 18.107 23.675 17.3202 23.0961 16.7392C23.0641 16.7102 20.6571 14.8582 20.6571 14.8582ZM22.5651 12.5752C27.5561 5.2292 18.7651 -3.5478 11.4271 1.4392C11.2096 1.59104 11.0614 1.82305 11.0149 2.08419C10.9685 2.34534 11.0277 2.61422 11.1796 2.8317C11.3314 3.04918 11.5634 3.19743 11.8246 3.24385C12.0857 3.29026 12.3546 3.23104 12.5721 3.0792C18.0441 -0.6788 24.6821 5.9622 20.9251 11.4312C20.8468 11.5387 20.7907 11.6608 20.7601 11.7903C20.7296 11.9198 20.7252 12.0541 20.7472 12.1853C20.7692 12.3165 20.8171 12.442 20.8882 12.5544C20.9593 12.6669 21.0522 12.764 21.1613 12.8401C21.2704 12.9162 21.3936 12.9698 21.5237 12.9977C21.6538 13.0256 21.7881 13.0273 21.9188 13.0026C22.0496 12.9779 22.1741 12.9274 22.285 12.854C22.396 12.7806 22.4912 12.6858 22.5651 12.5752ZM18.7071 10.7102C18.8945 10.5227 18.9999 10.2684 18.9999 10.0032C18.9999 9.73804 18.8945 9.48373 18.7071 9.2962L17.0001 7.5892V5.0002C17.0001 4.73498 16.8947 4.48063 16.7072 4.29309C16.5197 4.10556 16.2653 4.0002 16.0001 4.0002C15.7349 4.0002 15.4805 4.10556 15.293 4.29309C15.1054 4.48063 15.0001 4.73498 15.0001 5.0002V8.0002C15.0001 8.2654 15.1055 8.51971 15.2931 8.7072L17.2931 10.7072C17.4806 10.8947 17.7349 11 18.0001 11C18.2652 11 18.5196 10.8947 18.7071 10.7072V10.7102Z" fill="#374957"/>
</g>
<defs>
<clipPath id="clip0_806_6414">
<rect width="24" height="24" fill="white"/>
</clipPath>
</defs>
</svg>
