<svg width="24" height="24" viewBox="0 0 24 24" fill="none" xmlns="http://www.w3.org/2000/svg">
<g clip-path="url(#clip0_806_6448)">
<path d="M12.9996 21.9999H5.6826C4.34933 21.9759 3.06436 21.4967 2.041 20.6418C1.01763 19.7868 0.317418 18.6076 0.0565963 17.2999C-0.113234 16.1746 0.073707 15.0244 0.59116 14.0109C1.10861 12.9973 1.93058 12.1713 2.9416 11.6489C2.07345 10.0703 1.79015 8.23591 2.1416 6.4689C2.48345 4.72123 3.39865 3.13758 4.74222 1.9688C6.0858 0.800028 7.78093 0.112951 9.5591 0.0164088C11.3373 -0.0801338 13.0968 0.419377 14.559 1.43582C16.0213 2.45226 17.1025 3.92752 17.6316 5.6279C17.6819 5.79999 17.7741 5.95692 17.9 6.08466C18.0258 6.2124 18.1813 6.30697 18.3526 6.35991C19.4546 6.69741 20.471 7.26836 21.3326 8.03391C21.2226 8.0259 21.1146 7.99991 20.9996 7.99991C19.8291 8.00148 18.6961 8.41293 17.7974 9.1628C16.8986 9.91268 16.2908 10.9536 16.0796 12.1049L15.2326 12.5289C14.5399 12.1802 13.7751 11.999 12.9996 11.9999C11.6735 11.9999 10.4017 12.5267 9.46406 13.4644C8.52638 14.4021 7.9996 15.6738 7.9996 16.9999C7.9996 18.326 8.52638 19.5978 9.46406 20.5354C10.4017 21.4731 11.6735 21.9999 12.9996 21.9999ZM20.9996 15.9999C21.5929 15.9999 22.173 15.824 22.6663 15.4943C23.1597 15.1647 23.5442 14.6961 23.7712 14.148C23.9983 13.5998 24.0577 12.9966 23.942 12.4146C23.8262 11.8327 23.5405 11.2981 23.1209 10.8786C22.7014 10.459 22.1668 10.1733 21.5849 10.0575C21.0029 9.94179 20.3997 10.0012 19.8515 10.2283C19.3034 10.4553 18.8348 10.8398 18.5052 11.3332C18.1755 11.8265 17.9996 12.4066 17.9996 12.9999C18.0043 13.1216 18.0167 13.2428 18.0366 13.3629L15.0766 14.8439C14.6532 14.4342 14.1186 14.1583 13.5394 14.0505C12.9602 13.9428 12.3621 14.0079 11.8197 14.2378C11.2773 14.4678 10.8146 14.8523 10.4893 15.3435C10.164 15.8347 9.99053 16.4108 9.99053 16.9999C9.99053 17.589 10.164 18.1651 10.4893 18.6563C10.8146 19.1475 11.2773 19.5321 11.8197 19.762C12.3621 19.9919 12.9602 20.0571 13.5394 19.9493C14.1186 19.8415 14.6532 19.5656 15.0766 19.1559L18.0366 20.6369C18.0167 20.757 18.0043 20.8783 17.9996 20.9999C17.9961 21.6957 18.2334 22.3713 18.6711 22.9121C19.1089 23.4529 19.7203 23.8256 20.4015 23.9671C21.0827 24.1086 21.792 24.0101 22.4089 23.6883C23.0258 23.3665 23.5124 22.8413 23.7862 22.2016C24.0601 21.562 24.1043 20.8474 23.9113 20.1789C23.7183 19.5104 23.3001 18.9292 22.7275 18.5339C22.1549 18.1386 21.4632 17.9535 20.7697 18.01C20.0762 18.0665 19.4236 18.3611 18.9226 18.8439L15.9626 17.3629C15.9825 17.2428 15.9949 17.1216 15.9996 16.9999C15.9949 16.8783 15.9825 16.757 15.9626 16.6369L18.9226 15.1559C19.479 15.6963 20.2239 15.999 20.9996 15.9999Z" fill="#374957"/>
</g>
<defs>
<clipPath id="clip0_806_6448">
<rect width="24" height="24" fill="white"/>
</clipPath>
</defs>
</svg>
