<svg width="24" height="24" viewBox="0 0 24 24" fill="none" xmlns="http://www.w3.org/2000/svg">
<g clip-path="url(#clip0_806_6453)">
<path d="M23 4C23 4.53043 22.7893 5.03914 22.4142 5.41421C22.0391 5.78929 21.5304 6 21 6H3C2.46957 6 1.96086 5.78929 1.58579 5.41421C1.21071 5.03914 1 4.53043 1 4C1 3.46957 1.21071 2.96086 1.58579 2.58579C1.96086 2.21071 2.46957 2 3 2H4.184C4.39008 1.41709 4.77123 0.912091 5.2753 0.554088C5.77937 0.196084 6.38174 0.00256297 7 0L17 0C17.6183 0.00256297 18.2206 0.196084 18.7247 0.554088C19.2288 0.912091 19.6099 1.41709 19.816 2H21C21.5304 2 22.0391 2.21071 22.4142 2.58579C22.7893 2.96086 23 3.46957 23 4ZM10 16C10.105 19.954 13.895 19.953 14 16C13.9 12.046 10.105 12.047 10 16ZM8.081 15C8.973 9.713 15.029 9.716 15.919 15H21.007L21.742 9.124C21.7596 8.98333 21.747 8.84052 21.7052 8.70506C21.6634 8.5696 21.5933 8.44458 21.4995 8.33829C21.4057 8.232 21.2903 8.14687 21.1611 8.08855C21.0319 8.03022 20.8918 8.00004 20.75 8H3.25C3.10823 8.00004 2.9681 8.03022 2.83888 8.08855C2.70967 8.14687 2.59433 8.232 2.50052 8.33829C2.40671 8.44458 2.33658 8.5696 2.29477 8.70506C2.25295 8.84052 2.24042 8.98333 2.258 9.124L2.992 15H8.081ZM15.919 17C15.027 22.287 8.972 22.284 8.081 17H3.242L3.57 19.62C3.72275 20.8285 4.31077 21.94 5.22394 22.7462C6.13712 23.5524 7.31285 23.9982 8.531 24H15.469C16.6872 23.9982 17.8629 23.5524 18.7761 22.7462C19.6892 21.94 20.2772 20.8285 20.43 19.62L20.757 17H15.919Z" fill="#374957"/>
</g>
<defs>
<clipPath id="clip0_806_6453">
<rect width="24" height="24" fill="white"/>
</clipPath>
</defs>
</svg>
