<svg width="24" height="24" viewBox="0 0 24 24" fill="none" xmlns="http://www.w3.org/2000/svg">
<g clip-path="url(#clip0_806_6523)">
<path d="M14 7V0.46C14.9251 0.809335 15.7653 1.35131 16.465 2.05L19.949 5.536C20.6485 6.23488 21.1909 7.07489 21.54 8H15C14.7348 8 14.4804 7.89464 14.2929 7.70711C14.1054 7.51957 14 7.26522 14 7ZM22 10.485V19C21.9984 20.3256 21.4711 21.5964 20.5338 22.5338C19.5964 23.4711 18.3256 23.9984 17 24H7C5.67441 23.9984 4.40356 23.4711 3.46622 22.5338C2.52888 21.5964 2.00159 20.3256 2 19V5C2.00159 3.67441 2.52888 2.40356 3.46622 1.46622C4.40356 0.528882 5.67441 0.00158786 7 0L11.515 0C11.678 0 11.839 0.013 12 0.024V7C12 7.79565 12.3161 8.55871 12.8787 9.12132C13.4413 9.68393 14.2044 10 15 10H21.976C21.987 10.161 22 10.322 22 10.485ZM13.414 17L15.207 15.207C15.3892 15.0184 15.49 14.7658 15.4877 14.5036C15.4854 14.2414 15.3802 13.9906 15.1948 13.8052C15.0094 13.6198 14.7586 13.5146 14.4964 13.5123C14.2342 13.51 13.9816 13.6108 13.793 13.793L12 15.586L10.207 13.793C10.0184 13.6108 9.7658 13.51 9.5036 13.5123C9.2414 13.5146 8.99059 13.6198 8.80518 13.8052C8.61977 13.9906 8.5146 14.2414 8.51233 14.5036C8.51005 14.7658 8.61084 15.0184 8.793 15.207L10.586 17L8.793 18.793C8.69749 18.8852 8.62131 18.9956 8.5689 19.1176C8.51649 19.2396 8.4889 19.3708 8.48775 19.5036C8.4866 19.6364 8.5119 19.7681 8.56218 19.891C8.61246 20.0138 8.68671 20.1255 8.78061 20.2194C8.8745 20.3133 8.98615 20.3875 9.10905 20.4378C9.23194 20.4881 9.36362 20.5134 9.4964 20.5123C9.62918 20.5111 9.7604 20.4835 9.8824 20.4311C10.0044 20.3787 10.1148 20.3025 10.207 20.207L12 18.414L13.793 20.207C13.9816 20.3892 14.2342 20.49 14.4964 20.4877C14.7586 20.4854 15.0094 20.3802 15.1948 20.1948C15.3802 20.0094 15.4854 19.7586 15.4877 19.4964C15.49 19.2342 15.3892 18.9816 15.207 18.793L13.414 17Z" fill="#374957"/>
</g>
<defs>
<clipPath id="clip0_806_6523">
<rect width="24" height="24" fill="white"/>
</clipPath>
</defs>
</svg>
