<svg width="24" height="24" viewBox="0 0 24 24" fill="none" xmlns="http://www.w3.org/2000/svg">
<path d="M7.39994 5.55269C7.30767 5.3977 7.17671 5.26934 7.01991 5.1802C6.8631 5.09106 6.68581 5.04419 6.50544 5.04419C6.32506 5.04419 6.14778 5.09106 5.99097 5.1802C5.83416 5.26934 5.7032 5.3977 5.61094 5.55269L0.110937 16.5527C0.0510231 16.6703 0.014979 16.7986 0.00488329 16.9302C-0.00521246 17.0618 0.0108398 17.1941 0.0521146 17.3194C0.0933894 17.4448 0.15907 17.5607 0.24537 17.6606C0.33167 17.7604 0.436882 17.8422 0.55494 17.9012C0.672997 17.9602 0.801565 17.9952 0.933231 18.0043C1.0649 18.0134 1.19706 17.9963 1.32209 17.954C1.44712 17.9118 1.56255 17.8452 1.66173 17.7581C1.7609 17.6711 1.84186 17.5652 1.89994 17.4467L3.61894 13.9997H9.38294L11.1069 17.4467C11.165 17.5652 11.246 17.6711 11.3451 17.7581C11.4443 17.8452 11.5598 17.9118 11.6848 17.954C11.8098 17.9963 11.942 18.0134 12.0736 18.0043C12.2053 17.9952 12.3339 17.9602 12.4519 17.9012C12.57 17.8422 12.6752 17.7604 12.7615 17.6606C12.8478 17.5607 12.9135 17.4448 12.9548 17.3194C12.996 17.1941 13.0121 17.0618 13.002 16.9302C12.9919 16.7986 12.9559 16.6703 12.8959 16.5527L7.39994 5.55269ZM4.61894 11.9997L6.49994 8.2357L8.38294 11.9997H4.61894Z" fill="#374957"/>
<path d="M23 7.99976C22.7348 7.99976 22.4804 8.10511 22.2929 8.29265C22.1053 8.48019 22 8.73454 22 8.99976V9.02576C21.1396 8.36395 20.0855 8.00343 19 7.99976C17.6739 7.99976 16.4021 8.52654 15.4645 9.46422C14.5268 10.4019 14 11.6737 14 12.9998C14 14.3258 14.5268 15.5976 15.4645 16.5353C16.4021 17.473 17.6739 17.9998 19 17.9998C20.0855 17.9961 21.1396 17.6356 22 16.9738V16.9998C22 17.265 22.1053 17.5193 22.2929 17.7069C22.4804 17.8944 22.7348 17.9998 23 17.9998C23.2652 17.9998 23.5195 17.8944 23.7071 17.7069C23.8946 17.5193 24 17.265 24 16.9998V8.99976C24 8.73454 23.8946 8.48019 23.7071 8.29265C23.5195 8.10511 23.2652 7.99976 23 7.99976ZM19 15.9998C18.4066 15.9998 17.8266 15.8238 17.3333 15.4942C16.8399 15.1645 16.4554 14.696 16.2284 14.1478C16.0013 13.5996 15.9419 12.9964 16.0576 12.4145C16.1734 11.8325 16.4591 11.298 16.8787 10.8784C17.2982 10.4589 17.8328 10.1732 18.4147 10.0574C18.9967 9.94164 19.5999 10.0011 20.148 10.2281C20.6962 10.4552 21.1647 10.8397 21.4944 11.333C21.824 11.8264 22 12.4064 22 12.9998C22 13.7954 21.6839 14.5585 21.1213 15.1211C20.5587 15.6837 19.7956 15.9998 19 15.9998Z" fill="#374957"/>
</svg>
