<svg width="24" height="24" viewBox="0 0 24 24" fill="none" xmlns="http://www.w3.org/2000/svg">
<g clip-path="url(#clip0_806_6795)">
<path d="M14.5998 21.3003C14.2998 21.5263 13.9808 21.7643 13.7098 22.0003H15.9998C16.265 22.0003 16.5194 22.1056 16.7069 22.2932C16.8944 22.4807 16.9998 22.7351 16.9998 23.0003C16.9998 23.2655 16.8944 23.5199 16.7069 23.7074C16.5194 23.8949 16.265 24.0003 15.9998 24.0003H11.9998C11.7346 24.0003 11.4802 23.8949 11.2927 23.7074C11.1052 23.5199 10.9998 23.2655 10.9998 23.0003C10.9998 21.5003 12.2748 20.5443 13.3998 19.7003C14.1498 19.1383 14.9998 18.5003 14.9998 18.0003C14.9998 17.7351 14.8944 17.4807 14.7069 17.2932C14.5194 17.1056 14.265 17.0003 13.9998 17.0003C13.7346 17.0003 13.4802 17.1056 13.2927 17.2932C13.1052 17.4807 12.9998 17.7351 12.9998 18.0003C12.9998 18.2655 12.8944 18.5199 12.7069 18.7074C12.5194 18.8949 12.265 19.0003 11.9998 19.0003C11.7346 19.0003 11.4802 18.8949 11.2927 18.7074C11.1052 18.5199 10.9998 18.2655 10.9998 18.0003C10.9998 17.2046 11.3159 16.4416 11.8785 15.879C12.4411 15.3164 13.2042 15.0003 13.9998 15.0003C14.7955 15.0003 15.5585 15.3164 16.1211 15.879C16.6837 16.4416 16.9998 17.2046 16.9998 18.0003C16.9998 19.5003 15.7248 20.4563 14.5998 21.3003ZM22.9998 15.0003C22.7346 15.0003 22.4802 15.1056 22.2927 15.2932C22.1052 15.4807 21.9998 15.7351 21.9998 16.0003V19.0003H20.9998C20.7346 19.0003 20.4802 18.8949 20.2927 18.7074C20.1052 18.5199 19.9998 18.2655 19.9998 18.0003V16.0003C19.9998 15.7351 19.8944 15.4807 19.7069 15.2932C19.5194 15.1056 19.265 15.0003 18.9998 15.0003C18.7346 15.0003 18.4802 15.1056 18.2927 15.2932C18.1052 15.4807 17.9998 15.7351 17.9998 16.0003V18.0003C17.9998 18.7959 18.3159 19.559 18.8785 20.1216C19.4411 20.6842 20.2042 21.0003 20.9998 21.0003H21.9998V23.0003C21.9998 23.2655 22.1052 23.5199 22.2927 23.7074C22.4802 23.8949 22.7346 24.0003 22.9998 24.0003C23.265 24.0003 23.5194 23.8949 23.7069 23.7074C23.8944 23.5199 23.9998 23.2655 23.9998 23.0003V16.0003C23.9998 15.7351 23.8944 15.4807 23.7069 15.2932C23.5194 15.1056 23.265 15.0003 22.9998 15.0003ZM12.9998 12.0003V7.00029C12.9998 6.73508 12.8944 6.48072 12.7069 6.29319C12.5194 6.10565 12.265 6.00029 11.9998 6.00029C11.7346 6.00029 11.4802 6.10565 11.2927 6.29319C11.1052 6.48072 10.9998 6.73508 10.9998 7.00029V11.0003H7.9998C7.73459 11.0003 7.48023 11.1056 7.2927 11.2932C7.10516 11.4807 6.9998 11.7351 6.9998 12.0003C6.9998 12.2655 7.10516 12.5199 7.2927 12.7074C7.48023 12.8949 7.73459 13.0003 7.9998 13.0003H11.9998C12.265 13.0003 12.5194 12.8949 12.7069 12.7074C12.8944 12.5199 12.9998 12.2655 12.9998 12.0003ZM22.9998 2.00029C22.7346 2.00029 22.4802 2.10565 22.2927 2.29319C22.1052 2.48072 21.9998 2.73508 21.9998 3.00029V5.37429C20.9579 3.80187 19.5599 2.49721 17.9194 1.5662C16.2789 0.635177 14.4419 0.104017 12.5577 0.0158131C10.6735 -0.072391 8.79497 0.284846 7.07463 1.05854C5.3543 1.83223 3.84059 3.00058 2.65632 4.4688C1.47205 5.93701 0.650587 7.66373 0.258576 9.50885C-0.133435 11.354 -0.0849487 13.2655 0.400101 15.0884C0.88515 16.9113 1.7931 18.5941 3.05028 20.0004C4.30746 21.4067 5.87846 22.4968 7.6358 23.1823C7.75194 23.2271 7.87533 23.2501 7.9998 23.2503C8.23316 23.2507 8.4593 23.1694 8.63905 23.0206C8.8188 22.8718 8.94085 22.6648 8.98406 22.4354C9.02726 22.2061 8.98891 21.9689 8.87563 21.7649C8.76236 21.5609 8.58129 21.4029 8.3638 21.3183C6.87183 20.7414 5.54002 19.815 4.48019 18.6168C3.42035 17.4187 2.66341 15.9837 2.27291 14.4325C1.88241 12.8813 1.86975 11.259 2.23598 9.70183C2.60221 8.14469 3.33665 6.69812 4.37765 5.48357C5.41865 4.26901 6.73583 3.32191 8.21861 2.72177C9.7014 2.12162 11.3065 1.88595 12.8992 2.03454C14.492 2.18312 16.0258 2.71163 17.372 3.57569C18.7182 4.43974 19.8374 5.61414 20.6358 7.00029H17.9998C17.7346 7.00029 17.4802 7.10565 17.2927 7.29319C17.1052 7.48072 16.9998 7.73508 16.9998 8.00029C16.9998 8.26551 17.1052 8.51986 17.2927 8.7074C17.4802 8.89494 17.7346 9.00029 17.9998 9.00029H20.9998C21.7955 9.00029 22.5585 8.68422 23.1211 8.12161C23.6837 7.559 23.9998 6.79594 23.9998 6.00029V3.00029C23.9998 2.73508 23.8944 2.48072 23.7069 2.29319C23.5194 2.10565 23.265 2.00029 22.9998 2.00029Z" fill="#374957"/>
</g>
<defs>
<clipPath id="clip0_806_6795">
<rect width="24" height="24" fill="white"/>
</clipPath>
</defs>
</svg>
