<svg width="24" height="24" viewBox="0 0 24 24" fill="none" xmlns="http://www.w3.org/2000/svg">
<g clip-path="url(#clip0_806_6614)">
<path d="M6.4 23.9997C4.70318 23.9979 3.07639 23.323 1.87656 22.1232C0.676732 20.9234 0.00185286 19.2966 0 17.5997C0 14.5407 3.952 13.2727 6.286 13.0067C6.43559 12.9887 6.58732 13.0051 6.72961 13.0547C6.8719 13.1043 7.00098 13.1857 7.107 13.2927L10.707 16.8927C10.8134 16.999 10.8945 17.128 10.9442 17.27C10.9939 17.4119 11.0109 17.5633 10.994 17.7127C10.727 20.0477 9.458 23.9997 6.4 23.9997ZM10.16 9.22775L7.88 11.2367L12.763 16.1197L14.772 13.8397L10.16 9.22775ZM23.284 0.715747C22.8446 0.27921 22.2563 0.0251212 21.6373 0.00453046C21.0183 -0.0160603 20.4144 0.198373 19.947 0.604747L11.664 7.89975L16.1 12.3357L23.4 4.04975C23.8053 3.58211 24.0186 2.97841 23.9971 2.35995C23.9756 1.74149 23.7208 1.15409 23.284 0.715747Z" fill="#374957"/>
</g>
<defs>
<clipPath id="clip0_806_6614">
<rect width="24" height="24" fill="white"/>
</clipPath>
</defs>
</svg>
