<svg width="24" height="24" viewBox="0 0 24 24" fill="none" xmlns="http://www.w3.org/2000/svg">
<g clip-path="url(#clip0_806_6568)">
<path d="M20.4301 15.3302L14.3191 24.0002H10.4051L18.4761 12.5302L20.4301 15.3302ZM15.2651 7.93019L4.04608 23.8902C4.40183 23.9629 4.76398 23.9997 5.12708 24.0002H7.96108L17.2611 10.7862L15.2651 7.93019ZM21.6471 17.0742L16.7661 24.0002H18.8731C19.6174 24.0516 20.3612 23.8932 21.0201 23.543C21.6789 23.1928 22.2263 22.6649 22.6001 22.0192C22.9168 21.3371 23.0409 20.5814 22.959 19.8339C22.877 19.0863 22.5921 18.3754 22.1351 17.7782L21.6471 17.0742ZM15.0001 3.00019C15.0016 2.47776 14.8667 1.96399 14.6086 1.50973C14.3506 1.05547 13.9784 0.676472 13.5289 0.410237C13.0794 0.144003 12.5682 -0.000233818 12.0458 -0.00819637C11.5234 -0.0161589 11.0081 0.112428 10.5506 0.364839C10.0932 0.61725 9.70968 0.984732 9.43792 1.43092C9.16617 1.8771 9.01564 2.38652 9.00123 2.90875C8.98683 3.43098 9.10905 3.94792 9.35581 4.4084C9.60256 4.86889 9.96528 5.25695 10.4081 5.53419L1.86108 17.7782C1.40472 18.3758 1.12054 19.0869 1.03928 19.8344C0.95802 20.582 1.08279 21.3375 1.40008 22.0192C1.60379 22.4037 1.87985 22.7453 2.21308 23.0252L14.0461 6.18419L13.5921 5.53419C14.0225 5.26595 14.3775 4.89261 14.6238 4.44931C14.8702 4.00601 14.9996 3.50732 15.0001 3.00019Z" fill="#374957"/>
</g>
<defs>
<clipPath id="clip0_806_6568">
<rect width="24" height="24" fill="white"/>
</clipPath>
</defs>
</svg>
