<svg width="24" height="24" viewBox="0 0 24 24" fill="none" xmlns="http://www.w3.org/2000/svg">
<g clip-path="url(#clip0_806_6386)">
<path d="M4.25927 2.84503C6.15976 1.23324 8.51681 0.256291 11.0003 0.0510254V1.35103C11.0678 3.7597 11.8626 6.09156 13.2803 8.04003C13.4265 8.25197 13.4929 8.50883 13.4678 8.76508C13.4428 9.02134 13.3278 9.26044 13.1433 9.44003L12.7763 9.80703C12.5701 10.0122 12.2911 10.1274 12.0003 10.1274C11.7094 10.1274 11.4304 10.0122 11.2243 9.80703L4.25927 2.84503ZM17.5903 7.82403C17.4728 7.94043 17.383 8.08183 17.3277 8.23771C17.2724 8.39359 17.253 8.55993 17.2709 8.72436C17.2888 8.88878 17.3435 9.04706 17.431 9.18742C17.5185 9.32777 17.6365 9.44659 17.7763 9.53503C19.2626 10.4474 20.9629 10.9527 22.7063 11H23.9493C23.744 8.51657 22.7671 6.15951 21.1553 4.25903L17.5903 7.82403ZM13.0003 0.0510254V1.32303C13.051 3.05648 13.5562 4.7462 14.4653 6.22303C14.5537 6.36262 14.6725 6.48049 14.8128 6.56788C14.953 6.65526 15.1112 6.70992 15.2755 6.72779C15.4398 6.74566 15.606 6.72629 15.7618 6.6711C15.9175 6.61591 16.0589 6.52634 16.1753 6.40903L19.7413 2.84303C17.8406 1.23185 15.4835 0.255591 13.0003 0.0510254ZM14.5573 10.857L14.1903 11.224C13.9851 11.4302 13.8699 11.7092 13.8699 12C13.8699 12.2909 13.9851 12.5699 14.1903 12.776L21.1553 19.741C22.7672 17.8406 23.7441 15.4835 23.9493 13H22.6773C20.2593 12.9364 17.9174 12.1414 15.9603 10.72C15.7479 10.5734 15.4905 10.5067 15.2337 10.5318C14.9769 10.5569 14.7372 10.6721 14.5573 10.857ZM9.44327 13.143L9.81027 12.776C10.0155 12.5699 10.1306 12.2909 10.1306 12C10.1306 11.7092 10.0155 11.4302 9.81027 11.224L2.84527 4.25903C1.23337 6.15944 0.256403 8.51653 0.0512695 11H1.32327C3.74127 11.0635 6.08323 11.8585 8.04027 13.28C8.25261 13.4266 8.51002 13.4933 8.76684 13.4682C9.02366 13.4432 9.2633 13.3279 9.44327 13.143ZM11.2243 14.19L10.8573 14.557C10.6731 14.7368 10.5584 14.9759 10.5333 15.232C10.5083 15.4882 10.5745 15.7449 10.7203 15.957C12.1388 17.9058 12.9337 20.2386 13.0003 22.648V23.948C15.4838 23.7429 17.8409 22.7659 19.7413 21.154L12.7763 14.19C12.5701 13.9848 12.2911 13.8697 12.0003 13.8697C11.7094 13.8697 11.4304 13.9848 11.2243 14.19ZM11.0003 22.677C10.9495 20.9436 10.4443 19.2539 9.53527 17.777C9.44673 17.6375 9.32789 17.5197 9.18758 17.4324C9.04727 17.3451 8.8891 17.2906 8.72481 17.2728C8.56052 17.255 8.39434 17.2745 8.23861 17.3298C8.08288 17.385 7.9416 17.4747 7.82527 17.592L4.25927 21.155C6.15969 22.7669 8.51678 23.7439 11.0003 23.949V22.677ZM1.29427 13H0.0512695C0.256535 15.4835 1.23348 17.8405 2.84527 19.741L6.41027 16.176C6.52777 16.0596 6.61751 15.9182 6.6728 15.7623C6.7281 15.6065 6.74754 15.4401 6.72966 15.2757C6.71179 15.1113 6.65706 14.953 6.56956 14.8126C6.48206 14.6723 6.36404 14.5535 6.22427 14.465C4.73793 13.5526 3.03768 13.0474 1.29427 13Z" fill="#374957"/>
</g>
<defs>
<clipPath id="clip0_806_6386">
<rect width="24" height="24" fill="white"/>
</clipPath>
</defs>
</svg>
