<svg width="24" height="24" viewBox="0 0 24 24" fill="none" xmlns="http://www.w3.org/2000/svg">
<g clip-path="url(#clip0_806_6463)">
<path d="M5.0001 19H11.0001V21H7.0001C6.73488 21 6.48053 21.1053 6.29299 21.2929C6.10545 21.4804 6.0001 21.7348 6.0001 22C6.0001 22.2652 6.10545 22.5196 6.29299 22.7071C6.48053 22.8946 6.73488 23 7.0001 23H17.0001C17.2653 23 17.5197 22.8946 17.7072 22.7071C17.8947 22.5196 18.0001 22.2652 18.0001 22C18.0001 21.7348 17.8947 21.4804 17.7072 21.2929C17.5197 21.1053 17.2653 21 17.0001 21H13.0001V19H19.0001C20.1523 18.9985 21.2688 18.5999 22.1613 17.8713C23.0539 17.1427 23.668 16.1286 23.9001 15H0.100098C0.332194 16.1286 0.946278 17.1427 1.83885 17.8713C2.73142 18.5999 3.84789 18.9985 5.0001 19Z" fill="#374957"/>
<path d="M19 0.999756H5C3.67441 1.00134 2.40356 1.52864 1.46622 2.46598C0.528882 3.40331 0.00158786 4.67416 0 5.99976L0 12.9998H24V5.99976C23.9984 4.67416 23.4711 3.40331 22.5338 2.46598C21.5964 1.52864 20.3256 1.00134 19 0.999756Z" fill="#374957"/>
</g>
<defs>
<clipPath id="clip0_806_6463">
<rect width="24" height="24" fill="white"/>
</clipPath>
</defs>
</svg>
