<svg width="24" height="24" viewBox="0 0 24 24" fill="none" xmlns="http://www.w3.org/2000/svg">
<g clip-path="url(#clip0_806_6488)">
<path d="M18.9997 2.00002H9.95572C9.19394 1.99767 8.44182 2.1706 7.75758 2.50545C7.07333 2.84029 6.47528 3.32806 6.00972 3.93102L0.209717 11.386C0.0731628 11.5616 -0.000976562 11.7776 -0.000976562 12C-0.000976563 12.2224 0.0731628 12.4385 0.209717 12.614L6.00972 20.069C6.47528 20.672 7.07333 21.1598 7.75758 21.4946C8.44182 21.8294 9.19394 22.0024 9.95572 22H18.9997C20.3253 21.9984 21.5962 21.4711 22.5335 20.5338C23.4708 19.5965 23.9981 18.3256 23.9997 17V7.00002C23.9981 5.67443 23.4708 4.40358 22.5335 3.46624C21.5962 2.52891 20.3253 2.00161 18.9997 2.00002ZM17.7067 14.293C17.8022 14.3853 17.8784 14.4956 17.9308 14.6176C17.9832 14.7396 18.0108 14.8708 18.012 15.0036C18.0131 15.1364 17.9878 15.2681 17.9375 15.391C17.8873 15.5139 17.813 15.6255 17.7191 15.7194C17.6252 15.8133 17.5136 15.8876 17.3907 15.9378C17.2678 15.9881 17.1361 16.0134 17.0033 16.0123C16.8705 16.0111 16.7393 15.9835 16.6173 15.9311C16.4953 15.8787 16.385 15.8025 16.2927 15.707L13.9997 13.414L11.7067 15.707C11.5181 15.8892 11.2655 15.99 11.0033 15.9877C10.7411 15.9854 10.4903 15.8803 10.3049 15.6948C10.1195 15.5094 10.0143 15.2586 10.012 14.9964C10.0098 14.7342 10.1106 14.4816 10.2927 14.293L12.5857 12L10.2927 9.70702C10.1106 9.51842 10.0098 9.26582 10.012 9.00362C10.0143 8.74143 10.1195 8.49061 10.3049 8.30521C10.4903 8.1198 10.7411 8.01463 11.0033 8.01235C11.2655 8.01007 11.5181 8.11087 11.7067 8.29302L13.9997 10.586L16.2927 8.29302C16.4813 8.11087 16.7339 8.01007 16.9961 8.01235C17.2583 8.01463 17.5091 8.1198 17.6945 8.30521C17.8799 8.49061 17.9851 8.74143 17.9874 9.00362C17.9897 9.26582 17.8889 9.51842 17.7067 9.70702L15.4137 12L17.7067 14.293Z" fill="#374957"/>
</g>
<defs>
<clipPath id="clip0_806_6488">
<rect width="24" height="24" fill="white"/>
</clipPath>
</defs>
</svg>
