<svg width="24" height="24" viewBox="0 0 24 24" fill="none" xmlns="http://www.w3.org/2000/svg">
<g clip-path="url(#clip0_806_6475)">
<path d="M13.4138 11.9999L23.7068 1.70692C23.8889 1.51832 23.9897 1.26571 23.9875 1.00352C23.9852 0.741321 23.88 0.490508 23.6946 0.3051C23.5092 0.119692 23.2584 0.0145233 22.9962 0.0122448C22.734 0.00996641 22.4814 0.110761 22.2928 0.292919L11.9998 10.5859L1.70679 0.292919C1.51818 0.110761 1.26558 0.00996641 1.00339 0.0122448C0.741189 0.0145233 0.490376 0.119692 0.304968 0.3051C0.11956 0.490508 0.0143908 0.741321 0.0121124 1.00352C0.00983399 1.26571 0.110628 1.51832 0.292786 1.70692L10.5858 11.9999L0.292786 22.2929C0.105315 22.4804 0 22.7348 0 22.9999C0 23.2651 0.105315 23.5194 0.292786 23.7069C0.480314 23.8944 0.734622 23.9997 0.999786 23.9997C1.26495 23.9997 1.51926 23.8944 1.70679 23.7069L11.9998 13.4139L22.2928 23.7069C22.4803 23.8944 22.7346 23.9997 22.9998 23.9997C23.2649 23.9997 23.5193 23.8944 23.7068 23.7069C23.8943 23.5194 23.9996 23.2651 23.9996 22.9999C23.9996 22.7348 23.8943 22.4804 23.7068 22.2929L13.4138 11.9999Z" fill="#374957"/>
</g>
<defs>
<clipPath id="clip0_806_6475">
<rect width="24" height="24" fill="white"/>
</clipPath>
</defs>
</svg>
