<svg width="24" height="24" viewBox="0 0 24 24" fill="none" xmlns="http://www.w3.org/2000/svg">
<g clip-path="url(#clip0_806_6837)">
<path d="M10.0002 19.9998C12.3071 20.0026 14.5434 19.2045 16.3272 17.7418L22.2932 23.7068C22.4818 23.8889 22.7344 23.9897 22.9966 23.9874C23.2588 23.9852 23.5096 23.88 23.695 23.6946C23.8804 23.5092 23.9856 23.2584 23.9879 22.9962C23.9902 22.734 23.8894 22.4814 23.7072 22.2928L17.7412 16.3278C19.1781 14.5696 19.9738 12.3747 19.9975 10.1042C20.0212 7.83367 19.2715 5.62268 17.8717 3.83486C16.4718 2.04704 14.5052 0.788843 12.2953 0.267214C10.0854 -0.254415 7.76376 -0.00841963 5.71223 0.964741C3.66069 1.9379 2.00143 3.58028 1.00734 5.62175C0.0132473 7.66323 -0.25648 9.98224 0.24252 12.1974C0.74152 14.4125 1.97953 16.3919 3.75294 17.8099C5.52635 19.228 7.72956 20.0003 10.0002 19.9998ZM7.00021 8.99977H9.00021V6.99977C9.00021 6.73455 9.10557 6.4802 9.2931 6.29266C9.48064 6.10512 9.73499 5.99977 10.0002 5.99977C10.2654 5.99977 10.5198 6.10512 10.7073 6.29266C10.8949 6.4802 11.0002 6.73455 11.0002 6.99977V8.99977H13.0002C13.2654 8.99977 13.5198 9.10512 13.7073 9.29266C13.8949 9.4802 14.0002 9.73455 14.0002 9.99977C14.0002 10.265 13.8949 10.5193 13.7073 10.7069C13.5198 10.8944 13.2654 10.9998 13.0002 10.9998H11.0002V12.9998C11.0002 13.265 10.8949 13.5193 10.7073 13.7069C10.5198 13.8944 10.2654 13.9998 10.0002 13.9998C9.73499 13.9998 9.48064 13.8944 9.2931 13.7069C9.10557 13.5193 9.00021 13.265 9.00021 12.9998V10.9998H7.00021C6.73499 10.9998 6.48064 10.8944 6.2931 10.7069C6.10557 10.5193 6.00021 10.265 6.00021 9.99977C6.00021 9.73455 6.10557 9.4802 6.2931 9.29266C6.48064 9.10512 6.73499 8.99977 7.00021 8.99977Z" fill="#374957"/>
</g>
<defs>
<clipPath id="clip0_806_6837">
<rect width="24" height="24" fill="white"/>
</clipPath>
</defs>
</svg>
