<svg width="24" height="24" viewBox="0 0 24 24" fill="none" xmlns="http://www.w3.org/2000/svg">
<g clip-path="url(#clip0_806_6616)">
<path d="M19.7902 3.27889C15.5427 -1.04172 8.59681 -1.10097 4.2762 3.14656C-0.044409 7.39409 -0.103659 14.34 4.14387 18.6606C4.19665 18.7143 4.25 18.7675 4.3039 18.8201L8.23634 22.4533C10.3386 24.5099 13.6964 24.5183 15.809 22.4722L19.7902 18.7932C24.0742 14.5089 24.0742 7.56307 19.7902 3.27889ZM15.7302 13.3228C16.1263 13.7055 16.1373 14.3369 15.7546 14.733C15.3719 15.1292 14.7406 15.1402 14.3444 14.7575C14.3361 14.7495 14.328 14.7413 14.32 14.733L12.0331 12.4462L9.74623 14.7331C9.35004 15.1157 8.71869 15.1048 8.33604 14.7086C7.96273 14.3221 7.96273 13.7094 8.33604 13.3229L10.6229 11.036L8.33604 8.7492C7.93986 8.36656 7.92889 7.7352 8.31153 7.33901C8.69417 6.94282 9.32553 6.93185 9.72172 7.3145C9.73001 7.32251 9.73822 7.33071 9.74623 7.33901L12.0331 9.62585L14.3199 7.33901C14.7026 6.94282 15.334 6.93185 15.7301 7.31454C16.1262 7.69723 16.1373 8.32859 15.7546 8.72473C15.7466 8.73303 15.7384 8.74118 15.7301 8.7492L13.4433 11.036L15.7302 13.3228Z" fill="#374957"/>
</g>
<defs>
<clipPath id="clip0_806_6616">
<rect width="24" height="24" fill="white"/>
</clipPath>
</defs>
</svg>
