<svg width="24" height="24" viewBox="0 0 24 24" fill="none" xmlns="http://www.w3.org/2000/svg">
<g clip-path="url(#clip0_806_6654)">
<path d="M20.057 16.7995L20.157 16.8995C20.384 17.1285 20.6653 17.2963 20.9745 17.3874C21.2838 17.4785 21.6111 17.4899 21.926 17.4205C22.2358 17.3555 22.5243 17.2136 22.7649 17.0079C23.0055 16.8023 23.1906 16.5394 23.303 16.2435C23.8551 14.7938 24.1191 13.2503 24.08 11.6995C23.9675 8.65353 22.7146 5.76099 20.5698 3.59525C18.425 1.4295 15.5448 0.148628 12.5 0.00651556C10.89 -0.0494662 9.28519 0.219306 7.78128 0.796808C6.27736 1.37431 4.90512 2.24872 3.74637 3.3679C2.58762 4.48708 1.66609 5.82813 1.0367 7.31108C0.407318 8.79403 0.0829746 10.3885 0.0830078 11.9995C0.086713 15.181 1.35219 18.2311 3.60182 20.4807C5.85145 22.7303 8.90155 23.9958 12.083 23.9995C12.421 23.9995 12.753 23.9775 13.083 23.9495C13.3334 23.9284 13.5667 23.8138 13.7364 23.6285C13.9061 23.4432 13.9999 23.2008 13.999 22.9495L13.967 19.3615C13.9589 18.6525 14.1623 17.9571 14.5512 17.3642C14.9402 16.7714 15.497 16.3078 16.1506 16.0329C16.8042 15.7579 17.5249 15.684 18.2207 15.8205C18.9165 15.9571 19.5558 16.2979 20.057 16.7995ZM17.115 8.04952C17.4017 7.97343 17.7046 7.98408 17.9853 8.08011C18.2659 8.17613 18.5118 8.35323 18.6919 8.589C18.8719 8.82477 18.978 9.10864 18.9967 9.4047C19.0154 9.70076 18.946 9.99572 18.797 10.2523C18.6481 10.5089 18.4265 10.7155 18.1601 10.8461C17.8938 10.9767 17.5947 11.0254 17.3007 10.9861C17.0066 10.9467 16.7309 10.821 16.5083 10.625C16.2857 10.4289 16.1262 10.1712 16.05 9.88452C15.9994 9.6941 15.9868 9.49558 16.013 9.3003C16.0391 9.10502 16.1035 8.9168 16.2024 8.7464C16.3013 8.57599 16.4328 8.42674 16.5894 8.30717C16.746 8.1876 16.9246 8.10005 17.115 8.04952ZM7.88501 16.9495C7.59828 17.0256 7.29543 17.015 7.01475 16.9189C6.73407 16.8229 6.48817 16.6458 6.30813 16.41C6.12809 16.1743 6.02201 15.8904 6.00329 15.5943C5.98457 15.2983 6.05406 15.0033 6.20297 14.7467C6.35188 14.4902 6.57352 14.2835 6.83987 14.1529C7.10622 14.0223 7.40532 13.9736 7.69935 14.013C7.99338 14.0523 8.26913 14.178 8.49174 14.3741C8.71436 14.5701 8.87383 14.8278 8.95001 15.1145C9.0006 15.3049 9.01318 15.5035 8.98704 15.6987C8.96089 15.894 8.89653 16.0822 8.79764 16.2526C8.69874 16.423 8.56724 16.5723 8.41065 16.6919C8.25406 16.8114 8.07544 16.899 7.88501 16.9495ZM7.88501 10.9495C7.59828 11.0256 7.29543 11.015 7.01475 10.9189C6.73407 10.8229 6.48817 10.6458 6.30813 10.41C6.12809 10.1743 6.02201 9.89039 6.00329 9.59433C5.98457 9.29827 6.05406 9.00331 6.20297 8.74674C6.35188 8.49017 6.57352 8.28351 6.83987 8.1529C7.10622 8.02229 7.40532 7.97359 7.69935 8.01295C7.99338 8.05232 8.26913 8.17798 8.49174 8.37406C8.71436 8.57013 8.87383 8.82781 8.95001 9.11452C9.0006 9.30493 9.01318 9.50345 8.98704 9.69873C8.96089 9.89401 8.89653 10.0822 8.79764 10.2526C8.69874 10.423 8.56724 10.5723 8.41065 10.6919C8.25406 10.8114 8.07544 10.899 7.88501 10.9495ZM12.885 7.94952C12.5983 8.0256 12.2954 8.01495 12.0147 7.91893C11.7341 7.8229 11.4882 7.6458 11.3081 7.41003C11.1281 7.17426 11.022 6.89039 11.0033 6.59433C10.9846 6.29827 11.0541 6.00331 11.203 5.74674C11.3519 5.49017 11.5735 5.28351 11.8399 5.1529C12.1062 5.02229 12.4053 4.97359 12.6993 5.01295C12.9934 5.05232 13.2691 5.17798 13.4917 5.37406C13.7144 5.57013 13.8738 5.82781 13.95 6.11452C14.0006 6.30493 14.0132 6.50345 13.987 6.69873C13.9609 6.89401 13.8965 7.08223 13.7976 7.25263C13.6987 7.42304 13.5672 7.57229 13.4106 7.69186C13.2541 7.81143 13.0754 7.89898 12.885 7.94952Z" fill="#374957"/>
</g>
<defs>
<clipPath id="clip0_806_6654">
<rect width="24" height="24" fill="white"/>
</clipPath>
</defs>
</svg>
