<svg width="24" height="24" viewBox="0 0 24 24" fill="none" xmlns="http://www.w3.org/2000/svg">
<g clip-path="url(#clip0_806_6760)">
<path d="M23.7816 12.1729C23.5794 12.752 23.2492 13.278 22.8156 13.7119L13.7156 22.8119C13.2813 23.2412 12.755 23.566 12.1766 23.7619C12.0165 22.82 11.9883 21.8605 12.0926 20.9109C12.3535 18.6601 13.3674 16.5635 14.9697 14.9613C16.572 13.3592 18.6688 12.3456 20.9196 12.0849C21.873 11.9802 22.8364 12.0099 23.7816 12.1729ZM10.0996 20.6999C10.4117 17.9964 11.6288 15.4778 13.5532 13.5535C15.4776 11.6291 17.9961 10.412 20.6996 10.0999C21.7744 9.98459 22.8596 10.0108 23.9276 10.1779C23.5852 7.98302 22.642 5.92575 21.2023 4.23396C19.7627 2.54216 17.8829 1.28186 15.7711 0.592639C13.6593 -0.0965788 11.3979 -0.187814 9.23749 0.329039C7.07704 0.845891 5.10181 1.95066 3.53057 3.52098C1.95934 5.0913 0.853418 7.06589 0.335308 9.22604C-0.182801 11.3862 -0.0928819 13.6476 0.595107 15.7598C1.2831 17.872 2.5423 19.7525 4.23326 21.1931C5.92422 22.6338 7.98093 23.5782 10.1756 23.9219C10.0091 22.8559 9.98358 21.7726 10.0996 20.6999Z" fill="#374957"/>
</g>
<defs>
<clipPath id="clip0_806_6760">
<rect width="24" height="24" fill="white"/>
</clipPath>
</defs>
</svg>
