<svg width="24" height="24" viewBox="0 0 24 24" fill="none" xmlns="http://www.w3.org/2000/svg">
<g clip-path="url(#clip0_806_6416)">
<path d="M2.99989 6.255V2.08898C2.97645 0.960281 3.8712 0.0256875 4.9999 0H8.99989C9.57673 0 10.0444 0.467625 10.0444 1.04452C10.0444 1.62141 9.57678 2.08903 8.99989 2.08903H6.43887L12.3449 8.26702C12.3854 8.31061 12.4423 8.33527 12.5019 8.33503C12.561 8.33578 12.6177 8.31145 12.6579 8.26805L19.5439 1.089C20.5059 0.119016 21.8679 1.63102 20.9579 2.56402L14.0729 9.74002C13.665 10.1722 13.0972 10.4174 12.5029 10.418C11.9075 10.4168 11.339 10.1705 10.9309 9.73702L4.9999 3.53302V6.255C4.9999 6.80728 4.5522 7.25498 3.99992 7.25498C3.44764 7.25498 2.99989 6.80728 2.99989 6.255ZM22.4449 16.055C17.9559 11.377 6.04489 11.376 1.5559 16.055C0.541669 17.1117 -0.0170815 18.5244 -0.000112793 19.989L0.0808872 21.163C0.0512622 22.6961 1.26692 23.9645 2.79987 24C2.84389 24 5.32287 23.664 5.32287 23.664C6.80051 23.5918 7.96362 22.3764 7.97089 20.897L8.1289 19.019C9.35712 18.5131 10.6716 18.2497 11.9999 18.243C13.3291 18.2622 14.6432 18.5287 15.8749 19.029L16.0309 20.897C16.0382 22.3764 17.2012 23.5918 18.6789 23.664C18.6789 23.664 21.1579 24 21.2019 24C22.7108 23.9754 23.9211 22.7451 23.9209 21.236L23.9999 19.919C24.0018 18.4789 23.4439 17.0944 22.4439 16.058L22.4449 16.055Z" fill="#374957"/>
</g>
<defs>
<clipPath id="clip0_806_6416">
<rect width="24" height="24" fill="white"/>
</clipPath>
</defs>
</svg>
