<svg width="24" height="24" viewBox="0 0 24 24" fill="none" xmlns="http://www.w3.org/2000/svg">
<g clip-path="url(#clip0_806_6539)">
<path d="M20.8001 11.9997C25.7391 9.0107 21.5731 1.54671 16.4001 4.36771C16.2271 -1.40629 7.77108 -1.40329 7.60008 4.36771C2.46708 1.55071 -1.76192 8.98571 3.20008 11.9437C-1.74892 14.9787 2.40008 22.1547 7.60008 19.6357C7.78008 25.4057 16.2221 25.4007 16.4001 19.6357C21.5621 22.1527 25.7721 14.9997 20.8001 11.9997ZM12.0001 15.9997C10.9392 15.9997 9.9218 15.5783 9.17166 14.8281C8.42151 14.078 8.00008 13.0606 8.00008 11.9997C8.00008 10.9388 8.42151 9.92142 9.17166 9.17128C9.9218 8.42113 10.9392 7.99971 12.0001 7.99971C13.061 7.99971 14.0784 8.42113 14.8285 9.17128C15.5787 9.92142 16.0001 10.9388 16.0001 11.9997C16.0001 13.0606 15.5787 14.078 14.8285 14.8281C14.0784 15.5783 13.061 15.9997 12.0001 15.9997ZM14.0001 11.9997C14.0001 12.5301 13.7894 13.0388 13.4143 13.4139C13.0392 13.789 12.5305 13.9997 12.0001 13.9997C11.4697 13.9997 10.9609 13.789 10.5859 13.4139C10.2108 13.0388 10.0001 12.5301 10.0001 11.9997C10.0001 11.4693 10.2108 10.9606 10.5859 10.5855C10.9609 10.2104 11.4697 9.99971 12.0001 9.99971C12.5305 9.99971 13.0392 10.2104 13.4143 10.5855C13.7894 10.9606 14.0001 11.4693 14.0001 11.9997Z" fill="#374957"/>
</g>
<defs>
<clipPath id="clip0_806_6539">
<rect width="24" height="24" fill="white"/>
</clipPath>
</defs>
</svg>
