<svg width="24" height="24" viewBox="0 0 24 24" fill="none" xmlns="http://www.w3.org/2000/svg">
<g clip-path="url(#clip0_806_6366)">
<path d="M17 0H7C5.67392 0 4.40215 0.526785 3.46447 1.46447C2.52678 2.40215 2 3.67392 2 5V11H22V5C22 3.67392 21.4732 2.40215 20.5355 1.46447C19.5979 0.526785 18.3261 0 17 0V0ZM13 7H11C10.7348 7 10.4804 6.89465 10.2929 6.70711C10.1054 6.51957 10 6.26522 10 6C10 5.73479 10.1054 5.48043 10.2929 5.2929C10.4804 5.10536 10.7348 5 11 5H13C13.2652 5 13.5196 5.10536 13.7071 5.2929C13.8946 5.48043 14 5.73479 14 6C14 6.26522 13.8946 6.51957 13.7071 6.70711C13.5196 6.89465 13.2652 7 13 7Z" fill="#374957"/>
<path d="M2 19C2 19.6566 2.12933 20.3068 2.3806 20.9134C2.63188 21.5201 3.00017 22.0713 3.46447 22.5355C4.40215 23.4732 5.67392 24 7 24H17C17.6566 24 18.3068 23.8707 18.9134 23.6194C19.52 23.3681 20.0712 22.9998 20.5355 22.5355C20.9998 22.0713 21.3681 21.5201 21.6194 20.9134C21.8707 20.3068 22 19.6566 22 19V13H2V19ZM11 17H13C13.2652 17 13.5196 17.1054 13.7071 17.2929C13.8946 17.4804 14 17.7348 14 18C14 18.2652 13.8946 18.5196 13.7071 18.7071C13.5196 18.8947 13.2652 19 13 19H11C10.7348 19 10.4804 18.8947 10.2929 18.7071C10.1054 18.5196 10 18.2652 10 18C10 17.7348 10.1054 17.4804 10.2929 17.2929C10.4804 17.1054 10.7348 17 11 17Z" fill="#374957"/>
</g>
<defs>
<clipPath id="clip0_806_6366">
<rect width="24" height="24" fill="white"/>
</clipPath>
</defs>
</svg>
