<svg width="24" height="24" viewBox="0 0 24 24" fill="none" xmlns="http://www.w3.org/2000/svg">
<g clip-path="url(#clip0_806_6753)">
<path d="M12.5816 24C17.1015 24.0115 21.2415 21.4726 23.2804 17.4387C23.5164 16.9394 23.303 16.3434 22.8038 16.1074C22.3255 15.8813 21.7539 16.0669 21.4996 16.5308C18.9981 21.454 12.9792 23.4172 8.05607 20.9156C3.13286 18.4141 1.16971 12.3953 3.67121 7.47204C6.1727 2.54883 12.1916 0.585729 17.1147 3.08722C19.0115 4.05101 20.5514 5.59467 21.5106 7.49379C21.7439 7.99426 22.3388 8.21085 22.8393 7.97748C23.3399 7.74412 23.5564 7.14925 23.323 6.64872C23.3144 6.63016 23.3052 6.61188 23.2954 6.59388C20.309 0.67825 13.0925 -1.69627 7.17688 1.29014C1.2613 4.27654 -1.11327 11.4931 1.87314 17.4087C3.91333 21.45 8.05448 23.999 12.5816 24Z" fill="#374957"/>
</g>
<defs>
<clipPath id="clip0_806_6753">
<rect width="24" height="24" fill="white"/>
</clipPath>
</defs>
</svg>
