<svg width="24" height="24" viewBox="0 0 24 24" fill="none" xmlns="http://www.w3.org/2000/svg">
<g clip-path="url(#clip0_806_6783)">
<path d="M24 19.9994C24 20.5514 23.552 20.9994 23 20.9994H21V22.9994C21 23.5514 20.552 23.9994 20 23.9994C19.448 23.9994 19 23.5514 19 22.9994V20.9994H17C16.448 20.9994 16 20.5514 16 19.9994C16 19.4474 16.448 18.9994 17 18.9994H19V16.9994C19 16.4474 19.448 15.9994 20 15.9994C20.552 15.9994 21 16.4474 21 16.9994V18.9994H23C23.552 18.9994 24 19.4474 24 19.9994Z" fill="#374957"/>
<path d="M14.035 20.0149C14.031 16.7179 16.7 14.0419 19.996 14.0369C21.279 14.0349 22.529 14.4469 23.559 15.2119C25.332 8.82691 21.593 2.21391 15.209 0.440912C8.82499 -1.33209 2.21299 2.40591 0.439986 8.79091C-1.33301 15.1759 2.40599 21.7899 8.78999 23.5629C10.89 24.1459 13.109 24.1459 15.209 23.5629C14.447 22.5369 14.035 21.2929 14.035 20.0149ZM13 12.0219C13 12.2879 12.894 12.5419 12.706 12.7299L9.70099 15.7359C9.30299 16.1199 8.66899 16.1089 8.28499 15.7109C7.90999 15.3229 7.90999 14.7069 8.28499 14.3189L10.997 11.6069V7.01291C10.997 6.45991 11.445 6.01091 11.999 6.01091C12.552 6.01091 13 6.45991 13 7.01291V12.0219Z" fill="#374957"/>
</g>
<defs>
<clipPath id="clip0_806_6783">
<rect width="24" height="24" fill="white"/>
</clipPath>
</defs>
</svg>
