<svg width="24" height="24" viewBox="0 0 24 24" fill="none" xmlns="http://www.w3.org/2000/svg">
<g clip-path="url(#clip0_806_6828)">
<path d="M14.021 6.10504L9.793 1.87804C9.51528 1.59837 9.18478 1.37666 8.82068 1.22577C8.45658 1.07487 8.06613 0.997805 7.672 0.999038H1C0.734784 0.999038 0.48043 1.10439 0.292893 1.29193C0.105357 1.47947 0 1.73382 0 1.99904C0 2.26425 0.105357 2.51861 0.292893 2.70614C0.48043 2.89368 0.734784 2.99904 1 2.99904H7.672C7.93706 2.99975 8.19114 3.10504 8.379 3.29204L11.086 5.99904H5C3.67441 6.00063 2.40356 6.52792 1.46622 7.46526C0.528882 8.4026 0.00158786 9.67344 0 10.999L0 18.999C0.00158786 20.3246 0.528882 21.5955 1.46622 22.5328C2.40356 23.4702 3.67441 23.9975 5 23.999H13C14.3256 23.9975 15.5964 23.4702 16.5338 22.5328C17.4711 21.5955 17.9984 20.3246 18 18.999V10.999C17.9984 9.85075 17.6022 8.73789 16.8778 7.84692C16.1534 6.95595 15.1448 6.34098 14.021 6.10504Z" fill="#374957"/>
<path d="M22.8998 8.95581C22.5687 8.78803 22.1973 8.71633 21.8275 8.74885C21.4578 8.78137 21.1045 8.91681 20.8078 9.13981L20.0078 9.73981V20.2618L20.8078 20.8618C21.105 21.0847 21.4583 21.2204 21.8282 21.2537C22.1981 21.2871 22.57 21.2168 22.9022 21.0507C23.2344 20.8846 23.5138 20.6292 23.7091 20.3133C23.9044 19.9973 24.0078 19.6332 24.0078 19.2618V10.7438C24.0088 10.372 23.9055 10.0073 23.7097 9.69126C23.5138 9.3752 23.2332 9.1204 22.8998 8.95581Z" fill="#374957"/>
</g>
<defs>
<clipPath id="clip0_806_6828">
<rect width="24" height="24" fill="white"/>
</clipPath>
</defs>
</svg>
