<svg width="24" height="24" viewBox="0 0 24 24" fill="none" xmlns="http://www.w3.org/2000/svg">
<g clip-path="url(#clip0_806_6370)">
<path d="M19.1218 18.3939L23.0408 14.4749C23.6772 13.808 24.0322 12.9217 24.0322 11.9999C24.0322 11.0781 23.6772 10.1918 23.0408 9.52489L19.1218 5.60589C18.8405 5.32449 18.459 5.16635 18.0611 5.16626C17.6633 5.16617 17.2817 5.32413 17.0003 5.60539C16.7189 5.88665 16.5608 6.26818 16.5607 6.66603C16.5606 7.06389 16.7185 7.44549 16.9998 7.72689L19.7798 10.5079L1.52979 10.5309C1.13196 10.5309 0.75043 10.6889 0.469125 10.9702C0.18782 11.2515 0.0297852 11.6331 0.0297852 12.0309C0.0297852 12.4287 0.18782 12.8102 0.469125 13.0916C0.75043 13.3729 1.13196 13.5309 1.52979 13.5309L19.7608 13.5079L16.9998 16.2729C16.7265 16.5558 16.5754 16.9347 16.5788 17.328C16.5822 17.7213 16.7399 18.0975 17.0181 18.3756C17.2962 18.6537 17.6724 18.8115 18.0657 18.8149C18.459 18.8183 18.8379 18.6671 19.1208 18.3939H19.1218Z" fill="#374957"/>
</g>
<defs>
<clipPath id="clip0_806_6370">
<rect width="24" height="24" fill="white"/>
</clipPath>
</defs>
</svg>
