<svg width="24" height="24" viewBox="0 0 24 24" fill="none" xmlns="http://www.w3.org/2000/svg">
<g clip-path="url(#clip0_806_6729)">
<path d="M21 6H18C18 4.4087 17.3679 2.88258 16.2426 1.75736C15.1174 0.632141 13.5913 0 12 0C10.4087 0 8.88258 0.632141 7.75736 1.75736C6.63214 2.88258 6 4.4087 6 6H3C2.20435 6 1.44129 6.31607 0.87868 6.87868C0.31607 7.44129 0 8.20435 0 9L0 19C0.00158786 20.3256 0.528882 21.5964 1.46622 22.5338C2.40356 23.4711 3.67441 23.9984 5 24H16.686C15.9908 23.5481 15.3968 22.957 14.9415 22.2641C14.4862 21.5711 14.1795 20.7913 14.0407 19.9739C13.9019 19.1564 13.934 18.319 14.135 17.5146C14.336 16.7102 14.7016 15.9562 15.2087 15.3002C15.7157 14.6441 16.3533 14.1003 17.081 13.703C17.8088 13.3057 18.611 13.0636 19.4371 12.9919C20.2631 12.9201 21.0951 13.0204 21.8804 13.2864C22.6658 13.5523 23.3875 13.9781 24 14.537V9C24 8.20435 23.6839 7.44129 23.1213 6.87868C22.5587 6.31607 21.7956 6 21 6ZM8 6C8 4.93913 8.42143 3.92172 9.17157 3.17157C9.92172 2.42143 10.9391 2 12 2C13.0609 2 14.0783 2.42143 14.8284 3.17157C15.5786 3.92172 16 4.93913 16 6H8Z" fill="#374957"/>
<path d="M23 18H21V16C21 15.7348 20.8946 15.4804 20.7071 15.2929C20.5196 15.1054 20.2652 15 20 15C19.7348 15 19.4804 15.1054 19.2929 15.2929C19.1054 15.4804 19 15.7348 19 16V18H17C16.7348 18 16.4804 18.1054 16.2929 18.2929C16.1054 18.4804 16 18.7348 16 19C16 19.2652 16.1054 19.5196 16.2929 19.7071C16.4804 19.8946 16.7348 20 17 20H19V22C19 22.2652 19.1054 22.5196 19.2929 22.7071C19.4804 22.8946 19.7348 23 20 23C20.2652 23 20.5196 22.8946 20.7071 22.7071C20.8946 22.5196 21 22.2652 21 22V20H23C23.2652 20 23.5196 19.8946 23.7071 19.7071C23.8946 19.5196 24 19.2652 24 19C24 18.7348 23.8946 18.4804 23.7071 18.2929C23.5196 18.1054 23.2652 18 23 18Z" fill="#374957"/>
</g>
<defs>
<clipPath id="clip0_806_6729">
<rect width="24" height="24" fill="white"/>
</clipPath>
</defs>
</svg>
