<svg width="24" height="24" viewBox="0 0 24 24" fill="none" xmlns="http://www.w3.org/2000/svg">
<g clip-path="url(#clip0_806_6622)">
<path d="M11.9998 6.00015C11.0109 6.00015 10.0442 6.29339 9.22193 6.8428C8.39968 7.39221 7.75882 8.1731 7.38038 9.08673C7.00195 10.0004 6.90293 11.0057 7.09586 11.9756C7.28878 12.9455 7.76499 13.8364 8.46425 14.5357C9.16351 15.2349 10.0544 15.7112 11.0243 15.9041C11.9942 16.097 12.9996 15.998 13.9132 15.6195C14.8268 15.2411 15.6077 14.6002 16.1571 13.778C16.7065 12.9558 16.9998 11.9891 16.9998 11.0001C16.9982 9.67455 16.4709 8.40371 15.5336 7.46637C14.5962 6.52903 13.3254 6.00174 11.9998 6.00015ZM13.7068 12.7072C13.5193 12.8946 13.2649 12.9999 12.9998 12.9999C12.7346 12.9999 12.4803 12.8946 12.2928 12.7072L11.2928 11.7071C11.1052 11.5197 10.9998 11.2653 10.9998 11.0001V9.00015C10.9998 8.73493 11.1051 8.48058 11.2927 8.29304C11.4802 8.10551 11.7346 8.00015 11.9998 8.00015C12.265 8.00015 12.5194 8.10551 12.7069 8.29304C12.8944 8.48058 12.9998 8.73493 12.9998 9.00015V10.5862L13.7068 11.2931C13.8943 11.4807 13.9996 11.735 13.9996 12.0002C13.9996 12.2653 13.8943 12.5196 13.7068 12.7072ZM19.7768 3.22215C18.7584 2.18065 17.5434 1.35177 16.2022 0.783616C14.8609 0.215464 13.4202 -0.0806437 11.9636 -0.0875238C10.507 -0.0944039 9.06351 0.188081 7.71696 0.743537C6.37041 1.29899 5.14759 2.11636 4.11946 3.14819C3.09133 4.18003 2.27837 5.40579 1.72777 6.75433C1.17716 8.10287 0.899878 9.54735 0.912002 11.0039C0.924126 12.4605 1.22542 13.9001 1.7984 15.2393C2.37137 16.5785 3.20462 17.7906 4.24978 18.8052L8.19178 22.4482C9.20581 23.4397 10.5667 23.9964 11.9849 24C13.4032 24.0035 14.7668 23.4536 15.7858 22.4671L19.7768 18.7782C21.8396 16.7153 22.9984 13.9174 22.9984 11.0001C22.9984 8.08285 21.8396 5.28504 19.7768 3.22215ZM11.9998 18.0002C10.6153 18.0002 9.26193 17.5896 8.11079 16.8204C6.95965 16.0513 6.06244 14.958 5.53262 13.6789C5.00281 12.3999 4.86419 10.9924 5.13428 9.63452C5.40438 8.27665 6.07107 7.02937 7.05003 6.0504C8.029 5.07143 9.27628 4.40475 10.6341 4.13465C11.992 3.86456 13.3995 4.00318 14.6786 4.53299C15.9576 5.06281 17.0509 5.96001 17.8201 7.11116C18.5892 8.2623 18.9998 9.61568 18.9998 11.0001C18.9977 12.856 18.2595 14.6353 16.9472 15.9476C15.6349 17.2599 13.8556 17.998 11.9998 18.0002Z" fill="#374957"/>
</g>
<defs>
<clipPath id="clip0_806_6622">
<rect width="24" height="24" fill="white"/>
</clipPath>
</defs>
</svg>
