<svg width="24" height="24" viewBox="0 0 24 24" fill="none" xmlns="http://www.w3.org/2000/svg">
<g clip-path="url(#clip0_806_6514)">
<path d="M23 15.9998C22.7348 15.9998 22.4804 16.1051 22.2929 16.2926C22.1053 16.4802 22 16.7345 22 16.9998V18.9998C22 19.7954 21.6839 20.5585 21.1213 21.1211C20.5587 21.6837 19.7956 21.9997 19 21.9997H17C16.7348 21.9997 16.4804 22.1051 16.2929 22.2926C16.1054 22.4802 16 22.7345 16 22.9997C16 23.265 16.1054 23.5193 16.2929 23.7068C16.4804 23.8944 16.7348 23.9997 17 23.9997H19C20.3256 23.9982 21.5964 23.4709 22.5338 22.5335C23.4711 21.5962 23.9984 20.3253 24 18.9998V16.9998C24 16.7345 23.8946 16.4802 23.7071 16.2926C23.5196 16.1051 23.2652 15.9998 23 15.9998Z" fill="#374957"/>
<path d="M7 0H5C3.67441 0.00158786 2.40356 0.528882 1.46622 1.46622C0.528882 2.40356 0.00158786 3.67441 0 5L0 7C0 7.26522 0.105357 7.51957 0.292893 7.70711C0.48043 7.89464 0.734784 8 1 8C1.26522 8 1.51957 7.89464 1.70711 7.70711C1.89464 7.51957 2 7.26522 2 7V5C2 4.20435 2.31607 3.44129 2.87868 2.87868C3.44129 2.31607 4.20435 2 5 2H7C7.26522 2 7.51957 1.89464 7.70711 1.70711C7.89464 1.51957 8 1.26522 8 1C8 0.734784 7.89464 0.48043 7.70711 0.292893C7.51957 0.105357 7.26522 0 7 0V0Z" fill="#374957"/>
<path d="M7 21.9997H5C4.20435 21.9997 3.44129 21.6837 2.87868 21.1211C2.31607 20.5585 2 19.7954 2 18.9998V16.9998C2 16.7345 1.89464 16.4802 1.70711 16.2926C1.51957 16.1051 1.26522 15.9998 1 15.9998C0.734784 15.9998 0.48043 16.1051 0.292893 16.2926C0.105357 16.4802 0 16.7345 0 16.9998L0 18.9998C0.00158786 20.3253 0.528882 21.5962 1.46622 22.5335C2.40356 23.4709 3.67441 23.9982 5 23.9997H7C7.26522 23.9997 7.51957 23.8944 7.70711 23.7068C7.89464 23.5193 8 23.265 8 22.9997C8 22.7345 7.89464 22.4802 7.70711 22.2926C7.51957 22.1051 7.26522 21.9997 7 21.9997Z" fill="#374957"/>
<path d="M19 0H17C16.7348 0 16.4804 0.105357 16.2929 0.292893C16.1054 0.48043 16 0.734784 16 1C16 1.26522 16.1054 1.51957 16.2929 1.70711C16.4804 1.89464 16.7348 2 17 2H19C19.7956 2 20.5587 2.31607 21.1213 2.87868C21.6839 3.44129 22 4.20435 22 5V7C22 7.26522 22.1053 7.51957 22.2929 7.70711C22.4804 7.89464 22.7348 8 23 8C23.2652 8 23.5196 7.89464 23.7071 7.70711C23.8946 7.51957 24 7.26522 24 7V5C23.9984 3.67441 23.4711 2.40356 22.5338 1.46622C21.5964 0.528882 20.3256 0.00158786 19 0V0Z" fill="#374957"/>
</g>
<defs>
<clipPath id="clip0_806_6514">
<rect width="24" height="24" fill="white"/>
</clipPath>
</defs>
</svg>
