<svg width="24" height="24" viewBox="0 0 24 24" fill="none" xmlns="http://www.w3.org/2000/svg">
<g clip-path="url(#clip0_806_6349)">
<path d="M12.0001 23.9999C11.8032 24.0002 11.6082 23.9616 11.4263 23.8863C11.2444 23.8109 11.0791 23.7003 10.9401 23.5609L3.26414 15.8889C2.23275 14.8574 1.65332 13.4585 1.65332 11.9999C1.65332 10.5412 2.23275 9.14233 3.26414 8.11088L10.9361 0.438883C11.2175 0.157621 11.5991 -0.000337867 11.997 -0.000244099C12.3948 -0.000150331 12.7764 0.157988 13.0576 0.439383C13.3389 0.720778 13.4969 1.10238 13.4968 1.50024C13.4967 1.8981 13.3385 2.27962 13.0571 2.56088L5.38514 10.2319C5.15293 10.464 4.96872 10.7397 4.84304 11.043C4.71736 11.3464 4.65268 11.6715 4.65268 11.9999C4.65268 12.3282 4.71736 12.6534 4.84304 12.9567C4.96872 13.2601 5.15293 13.5357 5.38514 13.7679L13.0571 21.4389C13.2668 21.6484 13.4097 21.9154 13.4678 22.2061C13.5258 22.4968 13.4965 22.7981 13.3834 23.0722C13.2703 23.3462 13.0785 23.5805 12.8323 23.7456C12.5862 23.9108 12.2966 23.9992 12.0001 23.9999Z" fill="#374957"/>
<path d="M21.5421 24.0001C21.3451 24.0002 21.15 23.9614 20.968 23.8861C20.7859 23.8108 20.6205 23.7003 20.4811 23.5611L11.4001 14.4751C10.7449 13.818 10.377 12.928 10.377 12.0001C10.377 11.0722 10.7449 10.1821 11.4001 9.52508L20.4811 0.439077C20.7651 0.170864 21.1425 0.0239953 21.533 0.0297013C21.9236 0.0354072 22.2965 0.193238 22.5725 0.469632C22.8485 0.746026 23.0058 1.11918 23.011 1.50975C23.0162 1.90032 22.8688 2.2775 22.6001 2.56108L13.5141 11.6461C13.4676 11.6925 13.4306 11.7477 13.4054 11.8084C13.3802 11.8692 13.3672 11.9343 13.3672 12.0001C13.3672 12.0658 13.3802 12.131 13.4054 12.1917C13.4306 12.2525 13.4676 12.3076 13.5141 12.3541L22.6001 21.4391C22.8099 21.6487 22.9528 21.9157 23.0108 22.2065C23.0688 22.4973 23.0394 22.7988 22.9262 23.0728C22.813 23.3469 22.6211 23.5812 22.3747 23.7462C22.1284 23.9113 21.8387 23.9996 21.5421 24.0001Z" fill="#374957"/>
</g>
<defs>
<clipPath id="clip0_806_6349">
<rect width="24" height="24" fill="white"/>
</clipPath>
</defs>
</svg>
