<svg width="24" height="24" viewBox="0 0 24 24" fill="none" xmlns="http://www.w3.org/2000/svg">
<g clip-path="url(#clip0_806_6705)">
<path d="M24 21.9995C24 22.2647 23.8946 22.5191 23.7071 22.7066C23.5196 22.8942 23.2652 22.9995 23 22.9995H1C0.734784 22.9995 0.48043 22.8942 0.292893 22.7066C0.105357 22.5191 0 22.2647 0 21.9995C0 21.7343 0.105357 21.48 0.292893 21.2924C0.48043 21.1049 0.734784 20.9995 1 20.9995H23C23.2652 20.9995 23.5196 21.1049 23.7071 21.2924C23.8946 21.48 24 21.7343 24 21.9995ZM2 18.9995H22C22.2652 18.9995 22.5196 18.8942 22.7071 18.7066C22.8946 18.5191 23 18.2647 23 17.9995V16.9995C22.9964 14.2569 21.9692 11.6143 20.1196 9.58915C18.27 7.56401 15.7311 6.30213 13 6.05053V4.72253C13.3813 4.5024 13.6793 4.1626 13.8478 3.75585C14.0162 3.34909 14.0458 2.89811 13.9319 2.47284C13.8179 2.04757 13.5668 1.67179 13.2175 1.40377C12.8682 1.13575 12.4403 0.990479 12 0.990479C11.5597 0.990479 11.1318 1.13575 10.7825 1.40377C10.4332 1.67179 10.1821 2.04757 10.0681 2.47284C9.9542 2.89811 9.98376 3.34909 10.1522 3.75585C10.3207 4.1626 10.6187 4.5024 11 4.72253V6.05053C8.26889 6.30213 5.73002 7.56401 3.88041 9.58915C2.0308 11.6143 1.00363 14.2569 1 16.9995V17.9995C1 18.2647 1.10536 18.5191 1.29289 18.7066C1.48043 18.8942 1.73478 18.9995 2 18.9995Z" fill="#374957"/>
</g>
<defs>
<clipPath id="clip0_806_6705">
<rect width="24" height="24" fill="white"/>
</clipPath>
</defs>
</svg>
