<svg width="24" height="24" viewBox="0 0 24 24" fill="none" xmlns="http://www.w3.org/2000/svg">
<g clip-path="url(#clip0_806_6536)">
<path d="M10.2067 0.0682857H10.1997C9.97566 0.0176751 9.74105 0.0457155 9.53527 0.147695C9.32949 0.249674 9.16508 0.419377 9.06967 0.628286L0.374673 19.7593C0.167051 20.2162 0.0773928 20.718 0.113908 21.2185C0.150423 21.7191 0.311944 22.2025 0.583679 22.6245C0.855415 23.0465 1.22868 23.3936 1.66929 23.6339C2.1099 23.8743 2.60377 24.0002 3.10567 24.0003H9.99967C10.2649 24.0003 10.5192 23.8949 10.7068 23.7074C10.8943 23.5199 10.9997 23.2655 10.9997 23.0003V1.04629C10.9978 0.817562 10.9183 0.596259 10.7742 0.418594C10.6302 0.240928 10.4301 0.117421 10.2067 0.0682857ZM8.99967 22.0003H3.10567C2.93827 22.0004 2.77352 21.9585 2.62652 21.8784C2.47952 21.7983 2.35498 21.6826 2.26431 21.5419C2.17365 21.4012 2.11976 21.2399 2.10759 21.073C2.09543 20.906 2.12537 20.7387 2.19467 20.5863L8.99967 5.61629V22.0003Z" fill="#374957"/>
<path d="M23.625 19.7589L14.93 0.627929C14.8301 0.417823 14.6614 0.248106 14.452 0.146829C14.2425 0.0455515 14.0047 0.0187765 13.778 0.0709293C13.557 0.12124 13.3597 0.245117 13.2183 0.422259C13.077 0.599401 13 0.819303 13 1.04593V22.9999C13 23.2651 13.1054 23.5195 13.2929 23.707C13.4804 23.8946 13.7348 23.9999 14 23.9999H20.894C21.3959 23.9999 21.8898 23.8739 22.3304 23.6336C22.771 23.3932 23.1442 23.0461 23.416 22.6242C23.6877 22.2022 23.8492 21.7188 23.8858 21.2182C23.9223 20.7176 23.8326 20.2159 23.625 19.7589Z" fill="#374957"/>
</g>
<defs>
<clipPath id="clip0_806_6536">
<rect width="24" height="24" fill="white"/>
</clipPath>
</defs>
</svg>
