<svg width="24" height="24" viewBox="0 0 24 24" fill="none" xmlns="http://www.w3.org/2000/svg">
<g clip-path="url(#clip0_806_6639)">
<path d="M23 16.0002C22.7348 16.0002 22.4804 16.1056 22.2929 16.2931C22.1053 16.4807 22 16.735 22 17.0002V19.0002C22 19.7959 21.6839 20.5589 21.1213 21.1216C20.5587 21.6842 19.7956 22.0002 19 22.0002H17C16.7348 22.0002 16.4804 22.1056 16.2929 22.2931C16.1054 22.4807 16 22.735 16 23.0002C16 23.2654 16.1054 23.5198 16.2929 23.7073C16.4804 23.8949 16.7348 24.0002 17 24.0002H19C20.3256 23.9986 21.5964 23.4713 22.5338 22.534C23.4711 21.5967 23.9984 20.3258 24 19.0002V17.0002C24 16.735 23.8946 16.4807 23.7071 16.2931C23.5196 16.1056 23.2652 16.0002 23 16.0002Z" fill="#374957"/>
<path d="M1 8C1.26522 8 1.51957 7.89464 1.70711 7.70711C1.89464 7.51957 2 7.26522 2 7V5C2 4.20435 2.31607 3.44129 2.87868 2.87868C3.44129 2.31607 4.20435 2 5 2H7C7.26522 2 7.51957 1.89464 7.70711 1.70711C7.89464 1.51957 8 1.26522 8 1C8 0.734784 7.89464 0.48043 7.70711 0.292893C7.51957 0.105357 7.26522 0 7 0L5 0C3.67441 0.00158786 2.40356 0.528882 1.46622 1.46622C0.528882 2.40356 0.00158786 3.67441 0 5L0 7C0 7.26522 0.105357 7.51957 0.292893 7.70711C0.48043 7.89464 0.734784 8 1 8Z" fill="#374957"/>
<path d="M7 22.0002H5C4.20435 22.0002 3.44129 21.6842 2.87868 21.1216C2.31607 20.5589 2 19.7959 2 19.0002V17.0002C2 16.735 1.89464 16.4807 1.70711 16.2931C1.51957 16.1056 1.26522 16.0002 1 16.0002C0.734784 16.0002 0.48043 16.1056 0.292893 16.2931C0.105357 16.4807 0 16.735 0 17.0002L0 19.0002C0.00158786 20.3258 0.528882 21.5967 1.46622 22.534C2.40356 23.4713 3.67441 23.9986 5 24.0002H7C7.26522 24.0002 7.51957 23.8949 7.70711 23.7073C7.89464 23.5198 8 23.2654 8 23.0002C8 22.735 7.89464 22.4807 7.70711 22.2931C7.51957 22.1056 7.26522 22.0002 7 22.0002Z" fill="#374957"/>
<path d="M19 0H17C16.7348 0 16.4804 0.105357 16.2929 0.292893C16.1054 0.48043 16 0.734784 16 1C16 1.26522 16.1054 1.51957 16.2929 1.70711C16.4804 1.89464 16.7348 2 17 2H19C19.7956 2 20.5587 2.31607 21.1213 2.87868C21.6839 3.44129 22 4.20435 22 5V7C22 7.26522 22.1053 7.51957 22.2929 7.70711C22.4804 7.89464 22.7348 8 23 8C23.2652 8 23.5196 7.89464 23.7071 7.70711C23.8946 7.51957 24 7.26522 24 7V5C23.9984 3.67441 23.4711 2.40356 22.5338 1.46622C21.5964 0.528882 20.3256 0.00158786 19 0V0Z" fill="#374957"/>
<path d="M12 11C14.2091 11 16 9.20914 16 7C16 4.79086 14.2091 3 12 3C9.79086 3 8 4.79086 8 7C8 9.20914 9.79086 11 12 11Z" fill="#374957"/>
<path d="M11 13.0002C9.40919 13.0018 7.88399 13.6345 6.75911 14.7594C5.63424 15.8842 5.00159 17.4094 5 19.0002C5 19.2655 5.10536 19.5198 5.29289 19.7074C5.48043 19.8949 5.73478 20.0002 6 20.0002H18C18.2652 20.0002 18.5196 19.8949 18.7071 19.7074C18.8946 19.5198 19 19.2655 19 19.0002C18.9984 17.4094 18.3658 15.8842 17.2409 14.7594C16.116 13.6345 14.5908 13.0018 13 13.0002H11Z" fill="#374957"/>
</g>
<defs>
<clipPath id="clip0_806_6639">
<rect width="24" height="24" fill="white"/>
</clipPath>
</defs>
</svg>
