<svg width="24" height="24" viewBox="0 0 24 24" fill="none" xmlns="http://www.w3.org/2000/svg">
<g clip-path="url(#clip0_806_6732)">
<path d="M18 12C16.9464 12.0012 15.9111 11.7247 14.9984 11.1982C14.0858 10.6717 13.328 9.91396 12.8016 9.00128C12.2752 8.08859 11.9987 7.05326 12 5.99965C12.0013 4.94604 12.2803 3.91139 12.809 3H4.242L4.2 2.648C4.11382 1.9186 3.76306 1.24615 3.21419 0.758104C2.66532 0.270054 1.95647 0.000312836 1.222 0L1 0C0.734784 0 0.48043 0.105357 0.292893 0.292893C0.105357 0.48043 0 0.734784 0 1C0 1.26522 0.105357 1.51957 0.292893 1.70711C0.48043 1.89464 0.734784 2 1 2H1.222C1.46693 2.00003 1.70334 2.08996 1.88637 2.25272C2.06941 2.41547 2.18634 2.63975 2.215 2.883L3.591 14.583C3.73385 15.7998 4.31848 16.9218 5.23391 17.736C6.14934 18.5502 7.33185 19 8.557 19H19C19.2652 19 19.5196 18.8946 19.7071 18.7071C19.8946 18.5196 20 18.2652 20 18C20 17.7348 19.8946 17.4804 19.7071 17.2929C19.5196 17.1054 19.2652 17 19 17H8.557C7.93788 16.9985 7.33441 16.8054 6.82934 16.4473C6.32428 16.0893 5.94237 15.5837 5.736 15H17.657C18.8293 15.0001 19.9643 14.5882 20.8638 13.8364C21.7633 13.0846 22.37 12.0407 22.578 10.887L22.816 9.568C22.2597 10.3222 21.5341 10.9351 20.6976 11.3576C19.8611 11.78 18.9371 12 18 12Z" fill="#374957"/>
<path d="M7 24.0007C8.10456 24.0007 8.99999 23.1053 8.99999 22.0007C8.99999 20.8962 8.10456 20.0007 7 20.0007C5.89543 20.0007 5 20.8962 5 22.0007C5 23.1053 5.89543 24.0007 7 24.0007Z" fill="#374957"/>
<path d="M17 24.0007C18.1046 24.0007 19 23.1053 19 22.0007C19 20.8962 18.1046 20.0007 17 20.0007C15.8954 20.0007 15 20.8962 15 22.0007C15 23.1053 15.8954 24.0007 17 24.0007Z" fill="#374957"/>
<path d="M15.7333 8.94583C15.9052 9.13158 16.1131 9.28053 16.3443 9.38365C16.5755 9.48678 16.8251 9.54195 17.0783 9.54583H17.1113C17.3593 9.54665 17.6051 9.49819 17.8342 9.40326C18.0634 9.30832 18.2714 9.16882 18.4463 8.99283L22.7183 4.72083C22.9067 4.53279 23.0127 4.2776 23.013 4.01139C23.0133 3.74518 22.9078 3.48977 22.7197 3.30133C22.5317 3.11289 22.2765 3.00687 22.0103 3.00659C21.7441 3.00631 21.4887 3.11179 21.3003 3.29983L17.1133 7.49383L15.8793 6.16983C15.6981 5.97582 15.4473 5.86172 15.1821 5.85263C14.9168 5.84353 14.6588 5.94019 14.4648 6.12133C14.2708 6.30247 14.1567 6.55327 14.1476 6.81854C14.1385 7.08381 14.2351 7.34182 14.4163 7.53583L15.7333 8.94583Z" fill="#374957"/>
</g>
<defs>
<clipPath id="clip0_806_6732">
<rect width="24" height="24" fill="white"/>
</clipPath>
</defs>
</svg>
