<svg width="24" height="24" viewBox="0 0 24 24" fill="none" xmlns="http://www.w3.org/2000/svg">
<g clip-path="url(#clip0_806_6470)">
<path d="M19 24.0003H5C3.67441 23.9987 2.40356 23.4714 1.46622 22.5341C0.528882 21.5967 0.00158786 20.3259 0 19.0003L0 17.0003C0 16.2047 0.31607 15.4416 0.87868 14.879C1.44129 14.3164 2.20435 14.0003 3 14.0003H21C21.7956 14.0003 22.5587 14.3164 23.1213 14.879C23.6839 15.4416 24 16.2047 24 17.0003V19.0003C23.9984 20.3259 23.4711 21.5967 22.5338 22.5341C21.5964 23.4714 20.3256 23.9987 19 24.0003ZM22 12.0003V10.0003C22 9.46987 21.7893 8.96116 21.4142 8.58609C21.0391 8.21102 20.5304 8.0003 20 8.0003H4C3.46957 8.0003 2.96086 8.21102 2.58579 8.58609C2.21071 8.96116 2 9.46987 2 10.0003V12.0003H22ZM18.961 6.0003C18.8623 4.03494 18.3069 2.11962 17.339 0.406302C17.2378 0.268884 17.1029 0.159835 16.9474 0.0896535C16.7918 0.019472 16.6208 -0.00947753 16.4508 0.00559247C16.2808 0.0206625 16.1176 0.0792443 15.9768 0.175697C15.836 0.27215 15.7224 0.403225 15.647 0.556302C15.35 1.28815 14.8398 1.91379 14.1826 2.35194C13.5255 2.7901 12.7518 3.02053 11.962 3.0133H10C9.01339 2.93839 8.02956 3.1903 7.20036 3.73015C6.37117 4.26999 5.74271 5.06776 5.412 6.0003H18.961Z" fill="#374957"/>
</g>
<defs>
<clipPath id="clip0_806_6470">
<rect width="24" height="24" fill="white"/>
</clipPath>
</defs>
</svg>
