<svg width="24" height="24" viewBox="0 0 24 24" fill="none" xmlns="http://www.w3.org/2000/svg">
<g clip-path="url(#clip0_806_6750)">
<path d="M12 12C11.4067 12 10.8266 12.1759 10.3333 12.5056C9.83994 12.8352 9.45543 13.3038 9.22836 13.8519C9.0013 14.4001 8.94189 15.0033 9.05765 15.5853C9.1734 16.1672 9.45912 16.7018 9.87868 17.1213C10.2982 17.5409 10.8328 17.8266 11.4147 17.9424C11.9967 18.0581 12.5999 17.9987 13.1481 17.7716C13.6962 17.5446 14.1648 17.1601 14.4944 16.6667C14.8241 16.1734 15 15.5933 15 15C15 14.2044 14.6839 13.4413 14.1213 12.8787C13.5587 12.3161 12.7957 12 12 12ZM12 16C11.8022 16 11.6089 15.9414 11.4444 15.8315C11.28 15.7216 11.1518 15.5654 11.0761 15.3827C11.0004 15.2 10.9806 14.9989 11.0192 14.8049C11.0578 14.6109 11.153 14.4327 11.2929 14.2929C11.4327 14.153 11.6109 14.0578 11.8049 14.0192C11.9989 13.9806 12.2 14.0004 12.3827 14.0761C12.5654 14.1518 12.7216 14.28 12.8315 14.4444C12.9414 14.6089 13 14.8022 13 15C13 15.2652 12.8946 15.5196 12.7071 15.7071C12.5196 15.8946 12.2652 16 12 16Z" fill="#374957"/>
<path d="M16 0H8C6.67441 0.00158786 5.40356 0.528882 4.46622 1.46622C3.52888 2.40356 3.00159 3.67441 3 5V19C3.00159 20.3256 3.52888 21.5964 4.46622 22.5338C5.40356 23.4711 6.67441 23.9984 8 24H16C17.3256 23.9984 18.5964 23.4711 19.5338 22.5338C20.4711 21.5964 20.9984 20.3256 21 19V5C20.9984 3.67441 20.4711 2.40356 19.5338 1.46622C18.5964 0.528882 17.3256 0.00158786 16 0V0ZM12 4.5C12.2967 4.5 12.5867 4.58797 12.8334 4.7528C13.08 4.91762 13.2723 5.15189 13.3858 5.42597C13.4994 5.70006 13.5291 6.00166 13.4712 6.29264C13.4133 6.58361 13.2704 6.85088 13.0607 7.06066C12.8509 7.27044 12.5836 7.4133 12.2926 7.47118C12.0017 7.52906 11.7001 7.49935 11.426 7.38582C11.1519 7.27229 10.9176 7.08003 10.7528 6.83336C10.588 6.58668 10.5 6.29667 10.5 6C10.5 5.60218 10.658 5.22064 10.9393 4.93934C11.2206 4.65804 11.6022 4.5 12 4.5ZM12 20C11.0111 20 10.0444 19.7068 9.22215 19.1573C8.3999 18.6079 7.75904 17.827 7.3806 16.9134C7.00216 15.9998 6.90315 14.9945 7.09607 14.0245C7.289 13.0546 7.7652 12.1637 8.46447 11.4645C9.16373 10.7652 10.0546 10.289 11.0245 10.0961C11.9945 9.90315 12.9998 10.0022 13.9134 10.3806C14.827 10.759 15.6079 11.3999 16.1573 12.2221C16.7068 13.0444 17 14.0111 17 15C16.9984 16.3256 16.4711 17.5964 15.5338 18.5338C14.5964 19.4711 13.3256 19.9984 12 20Z" fill="#374957"/>
</g>
<defs>
<clipPath id="clip0_806_6750">
<rect width="24" height="24" fill="white"/>
</clipPath>
</defs>
</svg>
