<svg width="24" height="24" viewBox="0 0 24 24" fill="none" xmlns="http://www.w3.org/2000/svg">
<g clip-path="url(#clip0_806_6549)">
<path d="M19.9999 10V14C19.9976 14.7721 19.8158 15.5332 19.4686 16.2229C19.1215 16.9126 18.6187 17.5121 17.9999 17.974V15C17.9975 13.1442 17.2592 11.3651 15.947 10.0529C14.6348 8.74064 12.8557 8.00238 10.9999 8H4.99988C4.79988 8 4.59988 8.013 4.40788 8.03C4.79379 7.13171 5.43429 6.36609 6.25033 5.82764C7.06636 5.28918 8.02221 5.00147 8.99988 5H14.9999C16.3255 5.00159 17.5963 5.52888 18.5337 6.46622C19.471 7.40356 19.9983 8.67441 19.9999 10ZM11.5939 18.577C11.4081 18.763 11.1876 18.9105 10.9448 19.0111C10.702 19.1118 10.4417 19.1636 10.1789 19.1636C9.91605 19.1636 9.6558 19.1118 9.413 19.0111C9.1702 18.9105 8.94963 18.763 8.76388 18.577L8.28788 18.097L2.37888 23.225C3.17011 23.7286 4.08799 23.9973 5.02588 24H11.0259C12.3515 23.9984 13.6223 23.4711 14.5597 22.5338C15.497 21.5964 16.0243 20.3256 16.0259 19V15C16.0205 14.7316 15.9934 14.464 15.9449 14.2L11.5939 18.577ZM15.1449 12.177L10.1829 17.171L9.70788 16.692C9.35405 16.335 8.87841 16.1249 8.37624 16.1038C7.87407 16.0827 7.38246 16.252 6.99988 16.578L0.921879 21.843C0.338895 21.0096 0.026111 20.0171 0.0258789 19V15C0.0274668 13.6744 0.554761 12.4036 1.4921 11.4662C2.42944 10.5289 3.70028 10.0016 5.02588 10H11.0259C11.8374 10.001 12.6365 10.1996 13.3541 10.5786C14.0718 10.9575 14.6864 11.5054 15.1449 12.175V12.177ZM4.99988 14.1C4.99988 13.9022 4.94123 13.7089 4.83135 13.5444C4.72147 13.38 4.56529 13.2518 4.38256 13.1761C4.19984 13.1004 3.99877 13.0806 3.80479 13.1192C3.61081 13.1578 3.43263 13.253 3.29277 13.3929C3.15292 13.5327 3.05768 13.7109 3.01909 13.9049C2.98051 14.0989 3.00031 14.3 3.076 14.4827C3.15169 14.6654 3.27986 14.8216 3.44431 14.9315C3.60876 15.0414 3.8021 15.1 3.99988 15.1C4.2651 15.1 4.51945 14.9946 4.70699 14.8071C4.89452 14.6196 4.99988 14.3652 4.99988 14.1ZM18.9999 0H12.9999C12.0242 0.00237827 11.0706 0.290514 10.2568 0.828817C9.44304 1.36712 8.80478 2.13201 8.42088 3.029C8.61188 3.014 8.80488 3 8.99988 3H14.9999C16.8557 3.00238 18.6348 3.74064 19.947 5.05288C21.2592 6.36512 21.9975 8.14422 21.9999 10V12.974C22.6187 12.5121 23.1215 11.9126 23.4686 11.2229C23.8158 10.5332 23.9976 9.77215 23.9999 9V5C23.9983 3.67441 23.471 2.40356 22.5337 1.46622C21.5963 0.528882 20.3255 0.00158786 18.9999 0V0Z" fill="#374957"/>
</g>
<defs>
<clipPath id="clip0_806_6549">
<rect width="24" height="24" fill="white"/>
</clipPath>
</defs>
</svg>
