<svg width="24" height="24" viewBox="0 0 24 24" fill="none" xmlns="http://www.w3.org/2000/svg">
<g clip-path="url(#clip0_806_6429)">
<path d="M18.7133 12.0001H14.0003C12.8957 12.0001 12.0003 11.1046 12.0003 10V5.27406C12.003 4.34172 11.5721 3.46103 10.8343 2.89108C10.1351 2.33739 9.21829 2.14005 8.35326 2.35708C2.47373 3.81658 -1.10944 9.76609 0.350107 15.6457C1.3784 19.7881 4.71628 22.9579 8.90629 23.7711C14.6302 24.8667 20.2152 21.3079 21.6403 15.6571C21.8581 14.7909 21.6612 13.8727 21.1073 13.1721C20.5308 12.4355 19.6486 12.0036 18.7133 12.0001Z" fill="#374957"/>
<path d="M23.6509 7.44605C23.4227 6.59752 23.0827 5.78306 22.6399 5.02406C21.3082 2.73947 19.1328 1.06899 16.5819 0.372049C16.4139 0.326721 16.0379 0.300049 16.0379 0.300049C15.9036 0.300096 15.3249 0.300049 14.8669 0.671064C14.1938 1.2008 14.0879 1.80305 14.0779 1.85006C14.043 1.99753 14.0249 2.14852 14.0239 2.30006V7.00008C14.0239 8.65692 15.3671 10.0001 17.0239 10.0001H21.7429C22.369 10.0019 22.9583 9.70463 23.329 9.20006C23.6031 8.83045 23.7441 8.37895 23.7289 7.91906C23.721 7.75894 23.6948 7.60022 23.6509 7.44605Z" fill="#374957"/>
</g>
<defs>
<clipPath id="clip0_806_6429">
<rect width="24" height="24" fill="white"/>
</clipPath>
</defs>
</svg>
