<svg width="24" height="24" viewBox="0 0 24 24" fill="none" xmlns="http://www.w3.org/2000/svg">
<g clip-path="url(#clip0_806_6364)">
<path d="M7 0H4C1.79086 0 0 1.79086 0 4V7C0 9.20914 1.79086 11 4 11H7C9.20914 11 11 9.20914 11 7V4C11 1.79086 9.20914 0 7 0Z" fill="#374957"/>
<path d="M7 13H4C1.79086 13 0 14.7909 0 17V20C0 22.2092 1.79086 24 4 24H7C9.20914 24 11 22.2092 11 20V17C11 14.7909 9.20914 13 7 13Z" fill="#374957"/>
<path d="M22.2931 19.1259L20.0001 21.4159V2.5839L22.2931 4.8739C22.386 4.96674 22.4963 5.04038 22.6176 5.0906C22.739 5.14082 22.8691 5.16664 23.0004 5.1666C23.1318 5.16655 23.2618 5.14063 23.3831 5.09033C23.5045 5.04002 23.6147 4.96631 23.7076 4.87339C23.8004 4.78048 23.874 4.6702 23.9243 4.54883C23.9745 4.42746 24.0003 4.29739 24.0003 4.16604C24.0002 4.03469 23.9743 3.90464 23.924 3.78331C23.8737 3.66198 23.8 3.55174 23.7071 3.4589L21.1201 0.875895C20.5576 0.314093 19.7951 -0.00146484 19.0001 -0.00146484C18.2051 -0.00146484 17.4426 0.314093 16.8801 0.875895L14.2931 3.4589C14.2002 3.55174 14.1264 3.66198 14.0761 3.78331C14.0258 3.90464 13.9999 4.03469 13.9999 4.16604C13.9998 4.29739 14.0256 4.42746 14.0759 4.54883C14.1261 4.6702 14.1997 4.78048 14.2926 4.87339C14.3854 4.96631 14.4956 5.04002 14.617 5.09033C14.7383 5.14063 14.8684 5.16655 14.9997 5.1666C15.1311 5.16664 15.2611 5.14082 15.3825 5.0906C15.5039 5.04038 15.6142 4.96674 15.7071 4.8739L18.0001 2.5839V21.4159L15.7071 19.1259C15.6141 19.0331 15.5037 18.9594 15.3823 18.9092C15.2609 18.859 15.1308 18.8332 14.9994 18.8333C14.868 18.8334 14.7379 18.8594 14.6165 18.9098C14.4952 18.9601 14.3849 19.0339 14.2921 19.1269C14.1992 19.2199 14.1256 19.3302 14.0754 19.4517C14.0252 19.5731 13.9994 19.7032 13.9995 19.8346C13.9996 19.966 14.0256 20.0961 14.0759 20.2174C14.1263 20.3388 14.2001 20.4491 14.2931 20.5419L16.8801 23.1249C17.4433 23.6852 18.2055 23.9998 19.0001 23.9998C19.7946 23.9998 20.5568 23.6852 21.1201 23.1249L23.7071 20.5419C23.8948 20.3544 24.0004 20.1 24.0006 19.8346C24.0008 19.5692 23.8956 19.3147 23.7081 19.1269C23.5205 18.9391 23.2661 18.8335 23.0008 18.8333C22.7354 18.8332 22.4808 18.9384 22.2931 19.1259Z" fill="#374957"/>
</g>
<defs>
<clipPath id="clip0_806_6364">
<rect width="24" height="24" fill="white"/>
</clipPath>
</defs>
</svg>
