<svg width="24" height="24" viewBox="0 0 24 24" fill="none" xmlns="http://www.w3.org/2000/svg">
<g clip-path="url(#clip0_806_6701)">
<path d="M22.4662 8.46416L15.5362 1.53316C14.5975 0.597148 13.3259 0.0715332 12.0002 0.0715332C10.6746 0.0715332 9.403 0.597148 8.46425 1.53316L1.53424 8.46416C0.596889 9.4018 0.0703125 10.6733 0.0703125 11.9992C0.0703125 13.325 0.596889 14.5965 1.53424 15.5342L8.46425 22.4652C9.40287 23.4014 10.6745 23.9272 12.0002 23.9272C13.326 23.9272 14.5976 23.4014 15.5362 22.4652L22.4662 15.5342C23.4036 14.5965 23.9302 13.325 23.9302 11.9992C23.9302 10.6733 23.4036 9.4018 22.4662 8.46416Z" fill="#374957"/>
</g>
<defs>
<clipPath id="clip0_806_6701">
<rect width="24" height="24" fill="white"/>
</clipPath>
</defs>
</svg>
