<svg width="24" height="24" viewBox="0 0 24 24" fill="none" xmlns="http://www.w3.org/2000/svg">
<g clip-path="url(#clip0_806_6798)">
<path d="M17.9998 -0.00073C16.6707 -0.000349061 15.3499 0.20714 14.0848 0.61427C13.4132 0.84717 12.7102 0.976976 11.9998 0.99927C11.2893 0.976976 10.5863 0.84717 9.91476 0.61427C8.6496 0.207267 7.32877 -0.000218826 5.99976 -0.00073C5.20373 -0.0309076 4.41004 0.103644 3.66843 0.394493C2.92682 0.685342 2.25328 1.12622 1.68999 1.6895C1.12671 2.25279 0.685831 2.92634 0.394981 3.66794C0.104132 4.40955 -0.0304194 5.20324 -0.000241719 5.99927C-0.000241719 12.4423 3.35476 18.7853 5.76776 22.8843C6.02194 23.3131 6.40992 23.6465 6.87206 23.8333C7.3342 24.0202 7.84491 24.0501 8.32568 23.9184C8.80645 23.7867 9.23067 23.5008 9.53312 23.1046C9.83558 22.7083 9.99952 22.2237 9.99976 21.7253V15.1063C9.98896 14.6194 10.1497 14.1443 10.4539 13.764C10.7582 13.3838 11.1864 13.1226 11.6638 13.0263C11.9508 12.9774 12.2451 12.9917 12.526 13.0683C12.807 13.145 13.0678 13.282 13.2903 13.4699C13.5127 13.6578 13.6915 13.892 13.814 14.1562C13.9366 14.4203 14 14.7081 13.9998 14.9993V21.7253C14 22.2237 14.1639 22.7083 14.4664 23.1046C14.7689 23.5008 15.1931 23.7867 15.6738 23.9184C16.1546 24.0501 16.6653 24.0202 17.1275 23.8333C17.5896 23.6465 17.9776 23.3131 18.2318 22.8843C20.6458 18.7843 23.9998 12.4413 23.9998 5.99927C24.0299 5.20324 23.8954 4.40955 23.6045 3.66794C23.3137 2.92634 22.8728 2.25279 22.3095 1.6895C21.7462 1.12622 21.0727 0.685342 20.3311 0.394493C19.5895 0.103644 18.7958 -0.0309076 17.9998 -0.00073Z" fill="#374957"/>
</g>
<defs>
<clipPath id="clip0_806_6798">
<rect width="24" height="24" fill="white"/>
</clipPath>
</defs>
</svg>
