<svg width="24" height="24" viewBox="0 0 24 24" fill="none" xmlns="http://www.w3.org/2000/svg">
<g clip-path="url(#clip0_806_6778)">
<path d="M19 17.0005C19.0016 18.149 18.7206 19.2803 18.1818 20.2946C17.6429 21.3089 16.8627 22.1751 15.91 22.8166C14.9574 23.4582 13.8615 23.8554 12.719 23.9734C11.5765 24.0914 10.4225 23.9264 9.35887 23.4931C8.2952 23.0597 7.35451 22.3713 6.61976 21.4885C5.885 20.6057 5.37875 19.5557 5.14566 18.431C4.91257 17.3064 4.9598 16.1416 5.28319 15.0396C5.60657 13.9375 6.19617 12.9319 6.99999 12.1115V5.00049C7.21099 -1.6085 16.791 -1.5995 17 5.00049V12.1115C18.2789 13.4178 18.9966 15.1723 19 17.0005ZM15 17.0005C14.9999 16.3802 14.8075 15.7751 14.4494 15.2687C14.0912 14.7622 13.5848 14.3792 13 14.1725V8.00049C13 7.73527 12.8946 7.48092 12.7071 7.29338C12.5196 7.10584 12.2652 7.00049 12 7.00049C11.7348 7.00049 11.4804 7.10584 11.2929 7.29338C11.1054 7.48092 11 7.73527 11 8.00049V14.1725C10.4814 14.3558 10.0233 14.6782 9.67555 15.1043C9.32783 15.5305 9.10397 16.0441 9.02843 16.5889C8.95288 17.1337 9.02856 17.6887 9.2472 18.1934C9.46584 18.6981 9.81901 19.133 10.2681 19.4505C10.7172 19.768 11.245 19.956 11.7937 19.9938C12.3424 20.0316 12.891 19.9179 13.3794 19.665C13.8678 19.4121 14.2773 19.0298 14.5631 18.5599C14.8489 18.0899 15.0001 17.5505 15 17.0005Z" fill="#374957"/>
</g>
<defs>
<clipPath id="clip0_806_6778">
<rect width="24" height="24" fill="white"/>
</clipPath>
</defs>
</svg>
