<svg width="24" height="24" viewBox="0 0 24 24" fill="none" xmlns="http://www.w3.org/2000/svg">
<g clip-path="url(#clip0_806_6554)">
<path d="M23.3 22.5709L18.842 23.9549C18.5888 24.0337 18.3146 24.0086 18.0798 23.8852C17.845 23.7618 17.6688 23.5502 17.59 23.2969C17.5113 23.0437 17.5363 22.7695 17.6597 22.5347C17.7831 22.2999 17.9948 22.1237 18.248 22.0449L19.492 21.6589L18.574 18.9589C18.3813 18.9837 18.1873 18.9971 17.993 18.9989C16.9021 18.9967 15.8419 18.6377 14.974 17.9767C14.1061 17.3157 13.4782 16.389 13.186 15.3379L13.059 14.9629L14.059 11.9979H22.6L22.8 12.6049C23.117 13.6818 23.0588 14.8344 22.6349 15.8738C22.211 16.9132 21.4467 17.7778 20.467 18.3259L21.398 21.0629L22.698 20.6629C22.9513 20.5842 23.2255 20.6092 23.4603 20.7326C23.6951 20.856 23.8713 21.0676 23.95 21.3209C24.0288 21.5742 24.0037 21.8484 23.8803 22.0832C23.7569 22.318 23.5453 22.4942 23.292 22.5729L23.3 22.5709ZM14.656 9.99993H21.923L20.957 7.13193C20.7251 6.38448 20.2123 5.75612 19.5265 5.37902C18.8408 5.00191 18.0355 4.90545 17.28 5.10993L13.756 6.09193C13.8991 6.27326 14.0297 6.46403 14.147 6.66293C14.7036 7.68088 14.8838 8.86234 14.656 9.99993ZM10.572 6.18393L6.71904 5.10993C5.9691 4.90307 5.16819 4.99479 4.48445 5.36585C3.80071 5.7369 3.28731 6.35842 3.05204 7.09993L2.07804 9.99993H12.619L12.639 9.94093C12.7545 9.55857 12.7924 9.15701 12.7506 8.75981C12.7087 8.3626 12.588 7.97774 12.3955 7.62781C12.203 7.27787 11.9425 6.9699 11.6294 6.72196C11.3163 6.47402 10.9568 6.2911 10.572 6.18393ZM1.18504 12.6569C0.881054 13.7319 0.949137 14.8779 1.37824 15.9093C1.80734 16.9407 2.5723 17.7969 3.54904 18.3389L2.60504 21.0669L1.30004 20.6609C1.17462 20.6215 1.04268 20.6072 0.911737 20.6188C0.780794 20.6304 0.653418 20.6677 0.536881 20.7285C0.420343 20.7893 0.316926 20.8725 0.232536 20.9733C0.148145 21.0741 0.0844321 21.1905 0.0450355 21.3159C0.00563893 21.4413 -0.00867006 21.5733 0.00292551 21.7042C0.0145211 21.8352 0.0517941 21.9625 0.112616 22.0791C0.173439 22.1956 0.256619 22.299 0.357409 22.3834C0.458198 22.4678 0.574623 22.5315 0.700036 22.5709L5.15804 23.9549C5.41132 24.0337 5.68552 24.0086 5.92031 23.8852C6.15511 23.7618 6.33127 23.5502 6.41004 23.2969C6.4888 23.0437 6.46373 22.7695 6.34033 22.5347C6.21693 22.2999 6.00532 22.1237 5.75204 22.0449L4.51604 21.6599L5.45104 18.9599C5.63647 18.9837 5.8231 18.9971 6.01004 18.9999C7.0912 18.9973 8.14238 18.6442 9.00597 17.9937C9.86956 17.3432 10.499 16.4304 10.8 15.3919L11.945 11.9999H1.40604L1.18504 12.6569ZM15.553 3.89993C15.6711 3.95929 15.7998 3.99466 15.9316 4.004C16.0634 4.01334 16.1958 3.99646 16.321 3.95434C16.4463 3.91222 16.5619 3.84569 16.6613 3.75859C16.7607 3.6715 16.8418 3.56557 16.9 3.44693L17.9 1.44693C18.0186 1.20956 18.038 0.93482 17.954 0.683146C17.87 0.431472 17.6894 0.223481 17.452 0.10493C17.2147 -0.0136223 16.9399 -0.0330241 16.6883 0.0509922C16.4366 0.135009 16.2286 0.315561 16.11 0.55293L15.11 2.55293C15.0503 2.67039 15.0144 2.7985 15.0044 2.92989C14.9943 3.06127 15.0103 3.19335 15.0515 3.31852C15.0927 3.4437 15.1582 3.5595 15.2442 3.65928C15.3303 3.75906 15.4353 3.84084 15.553 3.89993ZM7.10504 3.44693C7.22359 3.68496 7.43184 3.86615 7.68398 3.95063C7.80883 3.99247 7.9407 4.0093 8.07205 4.00017C8.2034 3.99104 8.33167 3.95613 8.44954 3.89743C8.5674 3.83873 8.67254 3.75739 8.75897 3.65805C8.84539 3.55872 8.91141 3.44333 8.95324 3.31848C8.99507 3.19363 9.01191 3.06177 9.00278 2.93041C8.99365 2.79906 8.95874 2.67079 8.90003 2.55293L7.90004 0.55293C7.84133 0.435396 7.76006 0.330576 7.66085 0.244454C7.56164 0.158331 7.44644 0.0925929 7.32182 0.0509922C7.07015 -0.0330241 6.7954 -0.0136223 6.55804 0.10493C6.32067 0.223481 6.14011 0.431472 6.0561 0.683146C5.97208 0.93482 5.99148 1.20956 6.11004 1.44693L7.10504 3.44693ZM12 -7.04906e-05C11.7348 -7.04906e-05 11.4805 0.105286 11.2929 0.292823C11.1054 0.480359 11 0.734713 11 0.99993V2.99993C11 3.26515 11.1054 3.5195 11.2929 3.70704C11.4805 3.89457 11.7348 3.99993 12 3.99993C12.2653 3.99993 12.5196 3.89457 12.7071 3.70704C12.8947 3.5195 13 3.26515 13 2.99993V0.99993C13 0.734713 12.8947 0.480359 12.7071 0.292823C12.5196 0.105286 12.2653 -7.04906e-05 12 -7.04906e-05Z" fill="#374957"/>
</g>
<defs>
<clipPath id="clip0_806_6554">
<rect width="24" height="24" fill="white"/>
</clipPath>
</defs>
</svg>
