<svg width="24" height="24" viewBox="0 0 24 24" fill="none" xmlns="http://www.w3.org/2000/svg">
<g clip-path="url(#clip0_806_6663)">
<path d="M19.9999 6.99989V0.999887C19.9999 0.73467 20.1053 0.480316 20.2928 0.29278C20.4804 0.105243 20.7347 -0.000113377 20.9999 -0.000113377C21.2652 -0.000113377 21.5195 0.105243 21.7071 0.29278C21.8946 0.480316 21.9999 0.73467 21.9999 0.999887V6.99989C21.9999 7.2651 21.8946 7.51946 21.7071 7.70699C21.5195 7.89453 21.2652 7.99989 20.9999 7.99989C20.7347 7.99989 20.4804 7.89453 20.2928 7.70699C20.1053 7.51946 19.9999 7.2651 19.9999 6.99989ZM16.9999 7.99989C17.2652 7.99989 17.5195 7.89453 17.7071 7.70699C17.8946 7.51946 17.9999 7.2651 17.9999 6.99989V0.999887C17.9999 0.73467 17.8946 0.480316 17.7071 0.29278C17.5195 0.105243 17.2652 -0.000113377 16.9999 -0.000113377C16.7347 -0.000113377 16.4804 0.105243 16.2928 0.29278C16.1053 0.480316 15.9999 0.73467 15.9999 0.999887V6.99989C15.9999 7.2651 16.1053 7.51946 16.2928 7.70699C16.4804 7.89453 16.7347 7.99989 16.9999 7.99989ZM23.0939 16.7379C23.0639 16.7069 20.6569 14.8549 20.6569 14.8549C20.0793 14.3048 19.3118 13.9985 18.514 13.9998C17.7163 14.0011 16.9498 14.3099 16.3739 14.8619L14.4739 16.4679C12.917 15.8246 11.5026 14.8798 10.3121 13.6879C9.12162 12.496 8.17848 11.0806 7.53695 9.52289L9.13695 7.62289C9.6878 7.0469 9.99566 6.28088 9.99659 5.48389C9.99752 4.68689 9.69146 3.92016 9.14195 3.34289C9.14195 3.34289 7.29195 0.939887 7.25995 0.908887C6.68975 0.333722 5.91595 0.00629304 5.10609 -0.00250363C4.29624 -0.0113003 3.5155 0.299243 2.93295 0.861887L1.78395 1.86189C-5.93705 10.0709 13.9839 30.0009 22.1839 22.1619L23.0959 21.1119C23.6737 20.5307 23.9978 19.7444 23.9974 18.925C23.997 18.1055 23.6722 17.3195 23.0939 16.7389V16.7379Z" fill="#374957"/>
</g>
<defs>
<clipPath id="clip0_806_6663">
<rect width="24" height="24" fill="white"/>
</clipPath>
</defs>
</svg>
