<svg width="24" height="24" viewBox="0 0 24 24" fill="none" xmlns="http://www.w3.org/2000/svg">
<g clip-path="url(#clip0_806_6718)">
<path d="M1.00135 4.75073H3.73708C4.27702 6.73737 6.32521 7.91016 8.31186 7.37022C9.58781 7.02342 10.5846 6.02668 10.9313 4.75073H22.9991C23.5514 4.75073 23.999 4.30307 23.999 3.75084C23.999 3.19862 23.5514 2.75096 22.9991 2.75096H10.9313C10.3914 0.764267 8.34321 -0.408523 6.35657 0.131424C5.08062 0.478217 4.08387 1.47496 3.73708 2.75091H1.00135C0.449123 2.75091 0.00146484 3.19857 0.00146484 3.7508C0.00146484 4.30302 0.449123 4.75073 1.00135 4.75073Z" fill="#374957"/>
<path d="M22.9991 11.0007H20.2634C19.7245 9.01431 17.6775 7.84087 15.6911 8.37969C14.4141 8.72611 13.4166 9.72365 13.0701 11.0007H1.00135C0.449123 11.0007 0.00146484 11.4483 0.00146484 12.0006C0.00146484 12.5528 0.449123 13.0004 1.00135 13.0004H13.0701C13.609 14.9868 15.6561 16.1603 17.6424 15.6214C18.9194 15.275 19.917 14.2775 20.2634 13.0004H22.9991C23.5514 13.0004 23.999 12.5528 23.999 12.0006C23.999 11.4483 23.5514 11.0007 22.9991 11.0007Z" fill="#374957"/>
<path d="M22.9991 19.2494H10.9313C10.3914 17.2628 8.34321 16.09 6.35657 16.63C5.08062 16.9768 4.08387 17.9735 3.73708 19.2494H1.00135C0.449123 19.2494 0.00146484 19.6971 0.00146484 20.2493C0.00146484 20.8016 0.449123 21.2492 1.00135 21.2492H3.73708C4.27702 23.2359 6.32521 24.4086 8.31186 23.8687C9.58781 23.5219 10.5846 22.5252 10.9313 21.2492H22.9991C23.5514 21.2492 23.999 20.8016 23.999 20.2493C23.999 19.6971 23.5514 19.2494 22.9991 19.2494Z" fill="#374957"/>
</g>
<defs>
<clipPath id="clip0_806_6718">
<rect width="24" height="24" fill="white"/>
</clipPath>
</defs>
</svg>
