<svg width="24" height="24" viewBox="0 0 24 24" fill="none" xmlns="http://www.w3.org/2000/svg">
<g clip-path="url(#clip0_806_6605)">
<path d="M13.8456 17.2654L10.584 20.527C8.59423 22.4635 5.41137 22.4204 3.47482 20.4307C1.57562 18.4794 1.5752 15.3707 3.47383 13.4189L6.73544 10.1543C7.12586 9.76356 7.12562 9.13035 6.73492 8.73993C6.34422 8.34951 5.71101 8.34974 5.32059 8.74045L2.05997 12.005C-0.683726 14.7501 -0.682601 19.1996 2.06245 21.9434C4.80751 24.6871 9.25706 24.6859 12.0008 21.9409L15.2624 18.6793C15.646 18.2821 15.635 17.6491 15.2378 17.2655C14.8504 16.8912 14.2361 16.8912 13.8486 17.2655H13.8456V17.2654Z" fill="#374957"/>
<path d="M21.9434 2.06127C20.6292 0.738005 18.84 -0.00412696 16.975 0.000513117C15.111 -0.00445505 13.3224 0.73613 12.0076 2.05729L8.74093 5.31987C8.35023 5.7103 8.35 6.3435 8.74042 6.73421C9.13084 7.12491 9.76405 7.12515 10.1548 6.73472L13.4194 3.47312C14.3596 2.5272 15.6392 1.99687 16.973 2.00029C19.7495 2.00123 21.9996 4.2528 21.9987 7.02935C21.9983 8.36194 21.4687 9.63988 20.5265 10.5823L17.2649 13.8439C16.8742 14.2346 16.8742 14.868 17.2649 15.2587C17.6556 15.6494 18.2891 15.6494 18.6798 15.2587L21.9414 11.9991C24.6812 9.25331 24.6821 4.80811 21.9434 2.06127Z" fill="#374957"/>
<path d="M14.2933 8.29286L8.29402 14.2921C7.8968 14.6758 7.88583 15.3088 8.26946 15.706C8.65308 16.1031 9.2861 16.1142 9.68327 15.7305C9.69162 15.7225 9.69977 15.7143 9.70783 15.706L15.7071 9.70668C16.0907 9.30946 16.0797 8.67649 15.6825 8.29286C15.2951 7.91866 14.6808 7.91866 14.2933 8.29286Z" fill="#374957"/>
</g>
<defs>
<clipPath id="clip0_806_6605">
<rect width="24" height="24" fill="white"/>
</clipPath>
</defs>
</svg>
