<svg width="24" height="24" viewBox="0 0 24 24" fill="none" xmlns="http://www.w3.org/2000/svg">
<g clip-path="url(#clip0_806_6724)">
<path d="M18.581 2.14073L12.316 0.0517291C12.1109 -0.016592 11.8891 -0.016592 11.684 0.0517291L5.419 2.14073C4.42291 2.47161 3.55642 3.10799 2.94265 3.95944C2.32887 4.81089 1.99904 5.83412 2 6.88373V12.0007C2 19.5637 11.2 23.7407 11.594 23.9147C11.7218 23.9715 11.8601 24.0009 12 24.0009C12.1399 24.0009 12.2782 23.9715 12.406 23.9147C12.8 23.7407 22 19.5637 22 12.0007V6.88373C22.001 5.83412 21.6711 4.81089 21.0574 3.95944C20.4436 3.10799 19.5771 2.47161 18.581 2.14073ZM15 12.0007H13V14.0007C13 14.2659 12.8946 14.5203 12.7071 14.7078C12.5196 14.8954 12.2652 15.0007 12 15.0007C11.7348 15.0007 11.4804 14.8954 11.2929 14.7078C11.1054 14.5203 11 14.2659 11 14.0007V12.0007H9C8.73479 12.0007 8.48043 11.8954 8.2929 11.7078C8.10536 11.5203 8 11.2659 8 11.0007C8 10.7355 8.10536 10.4812 8.2929 10.2936C8.48043 10.1061 8.73479 10.0007 9 10.0007H11V8.00073C11 7.73551 11.1054 7.48116 11.2929 7.29362C11.4804 7.10609 11.7348 7.00073 12 7.00073C12.2652 7.00073 12.5196 7.10609 12.7071 7.29362C12.8946 7.48116 13 7.73551 13 8.00073V10.0007H15C15.2652 10.0007 15.5196 10.1061 15.7071 10.2936C15.8946 10.4812 16 10.7355 16 11.0007C16 11.2659 15.8946 11.5203 15.7071 11.7078C15.5196 11.8954 15.2652 12.0007 15 12.0007Z" fill="#374957"/>
</g>
<defs>
<clipPath id="clip0_806_6724">
<rect width="24" height="24" fill="white"/>
</clipPath>
</defs>
</svg>
