<svg width="24" height="24" viewBox="0 0 24 24" fill="none" xmlns="http://www.w3.org/2000/svg">
<g clip-path="url(#clip0_806_6447)">
<path d="M18.3572 7.36101C18.1856 7.30795 18.0299 7.21324 17.9039 7.08534C17.778 6.95743 17.6856 6.80031 17.6352 6.62801C17.106 4.92763 16.0246 3.45241 14.5624 2.43604C13.1001 1.41968 11.3405 0.920267 9.56227 1.01692C7.78409 1.11358 6.08898 1.80078 4.74548 2.96967C3.40198 4.13855 2.48689 5.72229 2.14516 7.47001C1.79361 9.23668 2.07692 11.0708 2.94516 12.649C1.93379 13.1712 1.11138 13.997 0.593399 15.0106C0.0754212 16.0241 -0.112101 17.1744 0.0571651 18.3C0.317816 19.6078 1.01798 20.7871 2.04138 21.6421C3.06478 22.497 4.34985 22.9762 5.68317 23H14.7832C19.8562 23 23.6342 19.973 23.9722 15.638C24.1235 13.8243 23.6487 12.0136 22.627 10.5075C21.6053 9.00137 20.0983 7.89086 18.3572 7.36101ZM18.6652 18.747L17.0792 20.161C16.8074 20.43 16.4852 20.6426 16.131 20.7866C15.7767 20.9306 15.3975 21.0031 15.0152 21C14.6186 21.0008 14.2258 20.9233 13.8592 20.7719C13.4927 20.6206 13.1596 20.3984 12.8792 20.118L11.3352 18.744C11.2371 18.6567 11.1571 18.5509 11.0999 18.4327C11.0427 18.3144 11.0093 18.1861 11.0017 18.055C10.9864 17.7902 11.0768 17.5301 11.2532 17.332C11.4295 17.1339 11.6774 17.014 11.9422 16.9986C12.0733 16.991 12.2046 17.0092 12.3287 17.0524C12.4527 17.0955 12.5671 17.1627 12.6652 17.25L14.0002 18.444V11C14.0002 10.7348 14.1055 10.4804 14.2931 10.2929C14.4806 10.1054 14.7349 10 15.0002 10C15.2654 10 15.5197 10.1054 15.7073 10.2929C15.8948 10.4804 16.0002 10.7348 16.0002 11V18.445L17.3352 17.253C17.5333 17.0766 17.7933 16.9862 18.0581 17.0016C18.323 17.017 18.5708 17.1369 18.7472 17.335C18.9235 17.5331 19.014 17.7932 18.9986 18.058C18.9832 18.3228 18.8633 18.5706 18.6652 18.747Z" fill="#374957"/>
</g>
<defs>
<clipPath id="clip0_806_6447">
<rect width="24" height="24" fill="white"/>
</clipPath>
</defs>
</svg>
