<svg width="24" height="24" viewBox="0 0 24 24" fill="none" xmlns="http://www.w3.org/2000/svg">
<g clip-path="url(#clip0_806_6410)">
<path d="M24 23.0001C24 23.2653 23.8946 23.5197 23.7071 23.7072C23.5196 23.8947 23.2652 24.0001 23 24.0001H1C0.734784 24.0001 0.48043 23.8947 0.292893 23.7072C0.105357 23.5197 0 23.2653 0 23.0001C0 22.7349 0.105357 22.4805 0.292893 22.293C0.48043 22.1055 0.734784 22.0001 1 22.0001H23C23.2652 22.0001 23.5196 22.1055 23.7071 22.293C23.8946 22.4805 24 22.7349 24 23.0001ZM3.75 15.0001C4.818 15.0001 5.5 14.3431 5.5 14.0001C5.5 13.7349 5.60536 13.4805 5.79289 13.293C5.98043 13.1055 6.23478 13.0001 6.5 13.0001C6.76522 13.0001 7.01957 13.1055 7.20711 13.293C7.39464 13.4805 7.5 13.7349 7.5 14.0001C7.5 14.3061 8.161 15.0001 9.25 15.0001C10.318 15.0001 11 14.3431 11 14.0001C11 13.7349 11.1054 13.4805 11.2929 13.293C11.4804 13.1055 11.7348 13.0001 12 13.0001C12.2652 13.0001 12.5196 13.1055 12.7071 13.293C12.8946 13.4805 13 13.7349 13 14.0001C13 14.3061 13.661 15.0001 14.75 15.0001C15.818 15.0001 16.5 14.3431 16.5 14.0001C16.5 13.7349 16.6054 13.4805 16.7929 13.293C16.9804 13.1055 17.2348 13.0001 17.5 13.0001C17.7652 13.0001 18.0196 13.1055 18.2071 13.293C18.3946 13.4805 18.5 13.7349 18.5 14.0001C18.5 14.3061 19.161 15.0001 20.25 15.0001C21.339 15.0001 22 14.3061 22 14.0001C21.9984 12.6745 21.4711 11.4037 20.5338 10.4663C19.5964 9.52898 18.3256 9.00169 17 9.0001H13V6.8161C13.5829 6.61002 14.0879 6.22887 14.4459 5.7248C14.8039 5.22073 14.9974 4.61836 15 4.0001C14.7853 2.7261 14.2059 1.54164 13.332 0.590102C13.159 0.411959 12.952 0.270341 12.7233 0.173635C12.4946 0.0769283 12.2488 0.0270996 12.0005 0.0270996C11.7522 0.0270996 11.5064 0.0769283 11.2777 0.173635C11.049 0.270341 10.842 0.411959 10.669 0.590102C9.79438 1.54129 9.2146 2.72587 9 4.0001C9.00256 4.61836 9.19608 5.22073 9.55409 5.7248C9.91209 6.22887 10.4171 6.61002 11 6.8161V9.0001H7C5.67441 9.00169 4.40356 9.52898 3.46622 10.4663C2.52888 11.4037 2.00159 12.6745 2 14.0001C2 14.3061 2.661 15.0001 3.75 15.0001ZM3 20.0001H21C21.2652 20.0001 21.5196 19.8947 21.7071 19.7072C21.8946 19.5197 22 19.2653 22 19.0001V16.6251C21.4489 16.8698 20.853 16.9975 20.25 17.0001C19.243 17.0077 18.2669 16.6528 17.5 16.0001C16.7286 16.6431 15.7569 16.9965 14.7527 16.9992C13.7485 17.002 12.7749 16.6539 12 16.0151C11.2251 16.6539 10.2515 17.002 9.2473 16.9992C8.24308 16.9965 7.27136 16.6431 6.5 16.0001C5.73312 16.6528 4.75699 17.0077 3.75 17.0001C3.14701 16.9975 2.55112 16.8698 2 16.6251V19.0001C2 19.2653 2.10536 19.5197 2.29289 19.7072C2.48043 19.8947 2.73478 20.0001 3 20.0001Z" fill="#374957"/>
</g>
<defs>
<clipPath id="clip0_806_6410">
<rect width="24" height="24" fill="white"/>
</clipPath>
</defs>
</svg>
