<svg width="24" height="24" viewBox="0 0 24 24" fill="none" xmlns="http://www.w3.org/2000/svg">
<g clip-path="url(#clip0_806_6363)">
<path d="M7 0H4C1.79086 0 0 1.79086 0 4V7C0 9.20914 1.79086 11 4 11H7C9.20914 11 11 9.20914 11 7V4C11 1.79086 9.20914 0 7 0Z" fill="#374957"/>
<path d="M7 13H4C1.79086 13 0 14.7909 0 17V20C0 22.2092 1.79086 24 4 24H7C9.20914 24 11 22.2092 11 20V17C11 14.7909 9.20914 13 7 13Z" fill="#374957"/>
<path d="M20 13H17C14.7909 13 13 14.7909 13 17V20C13 22.2092 14.7909 24 17 24H20C22.2091 24 24 22.2092 24 20V17C24 14.7909 22.2091 13 20 13Z" fill="#374957"/>
<path d="M14 7H22C22.2652 7 22.5196 6.89465 22.7071 6.70711C22.8946 6.51957 23 6.26522 23 6C23 5.73478 22.8946 5.48043 22.7071 5.29289C22.5196 5.10536 22.2652 5 22 5H14C13.7348 5 13.4804 5.10536 13.2929 5.29289C13.1054 5.48043 13 5.73478 13 6C13 6.26522 13.1054 6.51957 13.2929 6.70711C13.4804 6.89465 13.7348 7 14 7Z" fill="#374957"/>
</g>
<defs>
<clipPath id="clip0_806_6363">
<rect width="24" height="24" fill="white"/>
</clipPath>
</defs>
</svg>
