<svg width="24" height="24" viewBox="0 0 24 24" fill="none" xmlns="http://www.w3.org/2000/svg">
<g clip-path="url(#clip0_806_6518)">
<path d="M5.81992 19.3063C5.87392 19.3503 5.93592 19.3803 5.99092 19.4233L1.70692 23.7073C1.51832 23.8895 1.26571 23.9903 1.00352 23.988C0.741321 23.9857 0.490508 23.8806 0.3051 23.6952C0.119692 23.5098 0.0145233 23.2589 0.0122448 22.9967C0.00996641 22.7345 0.110761 22.4819 0.292919 22.2933L4.57792 18.0083C4.94082 18.4872 5.35756 18.9227 5.81992 19.3063ZM9.99992 12.5863L16.2929 6.29334C16.3852 6.19783 16.4955 6.12165 16.6175 6.06924C16.7395 6.01683 16.8707 5.98924 17.0035 5.98809C17.1363 5.98694 17.268 6.01224 17.3909 6.06252C17.5138 6.1128 17.6254 6.18705 17.7193 6.28094C17.8132 6.37484 17.8875 6.48649 17.9377 6.60939C17.988 6.73228 18.0133 6.86396 18.0122 6.99674C18.011 7.12952 17.9834 7.26074 17.931 7.38274C17.8786 7.50475 17.8024 7.61509 17.7069 7.70734L14.4139 11.0003H21.5999C22.5722 9.06149 23.3365 7.02514 23.8799 4.92534C24.0397 4.25903 24.0252 3.56281 23.8379 2.9037C23.6507 2.24459 23.2969 1.64478 22.8107 1.16198C22.3245 0.679189 21.7222 0.329669 21.0618 0.147061C20.4014 -0.0355458 19.7051 -0.0450926 19.0399 0.11934C15.8374 0.970147 12.7874 2.31568 9.99992 4.10734V12.5863ZM12.4999 13.0003C12.4749 13.0003 12.4529 12.9873 12.4279 12.9863L5.99092 19.4233C7.30402 20.4486 8.92299 21.0038 10.5889 21.0003C11.6932 20.9961 12.7852 20.7685 13.7991 20.3311C14.8131 19.8937 15.7281 19.2557 16.4889 18.4553C18.0479 16.8033 19.4054 14.9722 20.5329 13.0003H12.4999ZM7.99992 14.5003V5.50734C7.03238 6.23108 6.11557 7.02026 5.25592 7.86934C4.49752 8.63233 3.90611 9.54473 3.51927 10.5486C3.13244 11.5524 2.95864 12.6257 3.00892 13.7003C3.08055 15.2603 3.62809 16.7609 4.57792 18.0003L8.01392 14.5633C8.01292 14.5473 7.99992 14.5253 7.99992 14.5003Z" fill="#374957"/>
</g>
<defs>
<clipPath id="clip0_806_6518">
<rect width="24" height="24" fill="white"/>
</clipPath>
</defs>
</svg>
