<svg width="24" height="24" viewBox="0 0 24 24" fill="none" xmlns="http://www.w3.org/2000/svg">
<g clip-path="url(#clip0_806_6449)">
<path d="M18.3851 7.37313C18.2082 7.31952 18.0472 7.22327 17.9162 7.09284C17.7853 6.96241 17.6884 6.8018 17.6341 6.62513C17.3278 5.58718 16.8142 4.62214 16.1242 3.78843C15.4343 2.95471 14.5823 2.26965 13.62 1.77469C12.6576 1.27974 11.6048 0.985178 10.5253 0.908843C9.44586 0.832509 8.3621 0.975985 7.33966 1.33059C6.31722 1.68519 5.37736 2.24355 4.57694 2.97188C3.77652 3.7002 3.1322 4.58335 2.68295 5.56789C2.2337 6.55242 1.98888 7.61786 1.96329 8.69975C1.9377 9.78163 2.13188 10.8575 2.53407 11.8621C2.62614 12.0739 2.64556 12.3101 2.58931 12.5341C2.53305 12.758 2.40428 12.957 2.22307 13.1001C1.4268 13.6911 0.805119 14.4864 0.423825 15.4018C0.0425303 16.3172 -0.0841907 17.3186 0.0570735 18.3001C0.277527 19.627 0.966398 20.8309 1.99866 21.6932C3.03091 22.5556 4.33814 23.0193 5.68307 23.0001H14.0001V15.4141L12.7071 16.7071C12.5185 16.8893 12.2659 16.9901 12.0037 16.9878C11.7415 16.9855 11.4907 16.8804 11.3053 16.695C11.1198 16.5095 11.0147 16.2587 11.0124 15.9965C11.0101 15.7343 11.1109 15.4817 11.2931 15.2931L12.8791 13.7071C13.4417 13.1447 14.2046 12.8288 15.0001 12.8288C15.7956 12.8288 16.5585 13.1447 17.1211 13.7071L18.7071 15.2931C18.8026 15.3854 18.8788 15.4957 18.9312 15.6177C18.9836 15.7397 19.0112 15.871 19.0123 16.0037C19.0135 16.1365 18.9882 16.2682 18.9379 16.3911C18.8876 16.514 18.8134 16.6256 18.7195 16.7195C18.6256 16.8134 18.5139 16.8877 18.391 16.938C18.2681 16.9882 18.1365 17.0135 18.0037 17.0124C17.8709 17.0112 17.7397 16.9836 17.6177 16.9312C17.4957 16.8788 17.3853 16.8026 17.2931 16.7071L16.0001 15.4141V22.9871C17.9905 22.9473 19.8982 22.1831 21.3655 20.8376C22.8329 19.4921 23.7593 17.6577 23.9711 15.6781C24.13 13.8638 23.6622 12.0497 22.6457 10.5385C21.6292 9.02722 20.1255 7.91002 18.3851 7.37313Z" fill="#374957"/>
</g>
<defs>
<clipPath id="clip0_806_6449">
<rect width="24" height="24" fill="white"/>
</clipPath>
</defs>
</svg>
