<svg width="24" height="24" viewBox="0 0 24 24" fill="none" xmlns="http://www.w3.org/2000/svg">
<g clip-path="url(#clip0_806_6737)">
<path d="M11.476 15C11.2108 15 10.9564 15.1054 10.7689 15.2929C10.5814 15.4804 10.476 15.7348 10.476 16V19C10.476 19.7956 10.1599 20.5587 9.59732 21.1213C9.03471 21.6839 8.27165 22 7.476 22H5C4.20435 22 3.44129 21.6839 2.87868 21.1213C2.31607 20.5587 2 19.7956 2 19V5C2 4.20435 2.31607 3.44129 2.87868 2.87868C3.44129 2.31607 4.20435 2 5 2H7.476C8.27165 2 9.03471 2.31607 9.59732 2.87868C10.1599 3.44129 10.476 4.20435 10.476 5V8C10.476 8.26522 10.5814 8.51957 10.7689 8.70711C10.9564 8.89464 11.2108 9 11.476 9C11.7412 9 11.9956 8.89464 12.1831 8.70711C12.3706 8.51957 12.476 8.26522 12.476 8V5C12.4744 3.67441 11.9471 2.40356 11.0098 1.46622C10.0724 0.528882 8.80159 0.00158786 7.476 0H5C3.67441 0.00158786 2.40356 0.528882 1.46622 1.46622C0.528882 2.40356 0.00158786 3.67441 0 5L0 19C0.00158786 20.3256 0.528882 21.5964 1.46622 22.5338C2.40356 23.4711 3.67441 23.9984 5 24H7.476C8.80159 23.9984 10.0724 23.4711 11.0098 22.5338C11.9471 21.5964 12.4744 20.3256 12.476 19V16C12.476 15.7348 12.3706 15.4804 12.1831 15.2929C11.9956 15.1054 11.7412 15 11.476 15Z" fill="#374957"/>
<path d="M22.867 9.87933L18.281 5.29333C18.1888 5.19782 18.0784 5.12163 17.9564 5.06922C17.8344 5.01681 17.7032 4.98923 17.5704 4.98807C17.4376 4.98692 17.3059 5.01222 17.183 5.0625C17.0602 5.11278 16.9485 5.18704 16.8546 5.28093C16.7607 5.37482 16.6865 5.48647 16.6362 5.60937C16.5859 5.73227 16.5606 5.86395 16.5618 5.99673C16.5629 6.12951 16.5905 6.26073 16.6429 6.38273C16.6953 6.50473 16.7715 6.61508 16.867 6.70733L21.13 10.9703L6 11.0003C5.73478 11.0003 5.48043 11.1057 5.29289 11.2932C5.10536 11.4808 5 11.7351 5 12.0003C5 12.2655 5.10536 12.5199 5.29289 12.7074C5.48043 12.895 5.73478 13.0003 6 13.0003L21.188 12.9703L16.865 17.2933C16.7695 17.3856 16.6933 17.4959 16.6409 17.6179C16.5885 17.7399 16.5609 17.8711 16.5598 18.0039C16.5586 18.1367 16.5839 18.2684 16.6342 18.3913C16.6845 18.5142 16.7587 18.6258 16.8526 18.7197C16.9465 18.8136 17.0582 18.8879 17.181 18.9381C17.3039 18.9884 17.4356 19.0137 17.5684 19.0126C17.7012 19.0114 17.8324 18.9838 17.9544 18.9314C18.0764 18.879 18.1868 18.8028 18.279 18.7073L22.865 14.1213C23.4277 13.559 23.744 12.7962 23.7444 12.0007C23.7447 11.2052 23.4292 10.4422 22.867 9.87933Z" fill="#374957"/>
</g>
<defs>
<clipPath id="clip0_806_6737">
<rect width="24" height="24" fill="white"/>
</clipPath>
</defs>
</svg>
