<svg width="24" height="24" viewBox="0 0 24 24" fill="none" xmlns="http://www.w3.org/2000/svg">
<g clip-path="url(#clip0_806_6790)">
<path d="M14.181 0.207727C14.0368 0.18119 13.8885 0.186683 13.7467 0.223818C13.6049 0.260954 13.4729 0.328822 13.3603 0.422615C13.2476 0.516409 13.1569 0.633834 13.0946 0.766572C13.0324 0.89931 13.0001 1.04411 13 1.19073V4.06973C11.8707 3.92044 10.7225 4.01404 9.63234 4.34427C8.54214 4.67451 7.53503 5.23375 6.67839 5.9846C5.82175 6.73545 5.13534 7.66058 4.66508 8.6981C4.19482 9.73562 3.95155 10.8616 3.95155 12.0007C3.95155 13.1398 4.19482 14.2658 4.66508 15.3034C5.13534 16.3409 5.82175 17.266 6.67839 18.0169C7.53503 18.7677 8.54214 19.3269 9.63234 19.6572C10.7225 19.9874 11.8707 20.081 13 19.9317V22.8107C13.0001 22.9573 13.0324 23.1021 13.0946 23.2349C13.1569 23.3676 13.2476 23.485 13.3603 23.5788C13.4729 23.6726 13.6049 23.7405 13.7467 23.7776C13.8885 23.8148 14.0368 23.8203 14.181 23.7937C16.9385 23.2863 19.431 21.8287 21.2252 19.6741C23.0194 17.5196 24.0019 14.8045 24.0019 12.0007C24.0019 9.19695 23.0194 6.48182 21.2252 4.32731C19.431 2.1728 16.9385 0.715141 14.181 0.207727ZM13 13.7237V16.0007C13 16.2659 12.8946 16.5203 12.7071 16.7078C12.5196 16.8954 12.2652 17.0007 12 17.0007C11.7348 17.0007 11.4804 16.8954 11.2929 16.7078C11.1054 16.5203 11 16.2659 11 16.0007V13.7237C10.6961 13.5503 10.4435 13.2995 10.2678 12.9969C10.0922 12.6943 9.99963 12.3506 9.99963 12.0007C9.99963 11.6508 10.0922 11.3071 10.2678 11.0046C10.4435 10.702 10.6961 10.4512 11 10.2777V7.00073C11 6.73551 11.1054 6.48116 11.2929 6.29362C11.4804 6.10608 11.7348 6.00073 12 6.00073C12.2652 6.00073 12.5196 6.10608 12.7071 6.29362C12.8946 6.48116 13 6.73551 13 7.00073V10.2777C13.3039 10.4512 13.5565 10.702 13.7321 11.0046C13.9078 11.3071 14.0004 11.6508 14.0004 12.0007C14.0004 12.3506 13.9078 12.6943 13.7321 12.9969C13.5565 13.2995 13.3039 13.5503 13 13.7237ZM2.986 4.96873C3.18011 5.00563 3.35894 5.09922 3.49991 5.23767C3.64089 5.37612 3.73769 5.55323 3.77809 5.74665C3.81849 5.94007 3.80069 6.14112 3.72693 6.32443C3.65317 6.50774 3.52676 6.66508 3.36365 6.77661C3.20054 6.88814 3.00805 6.94884 2.81047 6.95107C2.61289 6.95329 2.41908 6.89693 2.25351 6.7891C2.08793 6.68127 1.95801 6.52681 1.88014 6.34521C1.80228 6.1636 1.77995 5.963 1.816 5.76873C1.84002 5.63924 1.88938 5.51577 1.96125 5.40542C2.03312 5.29506 2.12608 5.19998 2.23479 5.12565C2.3435 5.05132 2.46583 4.99919 2.59474 4.97226C2.72365 4.94533 2.85662 4.94413 2.986 4.96873ZM1.386 8.95573C1.58011 8.99263 1.75894 9.08622 1.89991 9.22467C2.04089 9.36312 2.13769 9.54023 2.17809 9.73365C2.21849 9.92707 2.20069 10.1281 2.12693 10.3114C2.05317 10.4947 1.92676 10.6521 1.76365 10.7636C1.60054 10.8751 1.40805 10.9358 1.21047 10.9381C1.01289 10.9403 0.819082 10.8839 0.653505 10.7761C0.487929 10.6683 0.358008 10.5138 0.280142 10.3322C0.202275 10.1506 0.179954 9.95 0.215995 9.75573C0.240035 9.62654 0.289299 9.50337 0.360971 9.39323C0.432644 9.2831 0.525319 9.18817 0.633699 9.11387C0.74208 9.03958 0.86404 8.98737 0.992609 8.96023C1.12118 8.9331 1.25383 8.93157 1.383 8.95573H1.386ZM10.128 21.8237C10.3223 21.8609 10.5012 21.9548 10.642 22.0937C10.7829 22.2325 10.8795 22.41 10.9195 22.6037C10.9595 22.7974 10.9411 22.9986 10.8668 23.1819C10.7924 23.3652 10.6653 23.5223 10.5017 23.6334C10.338 23.7444 10.1451 23.8045 9.94728 23.8059C9.74949 23.8073 9.55572 23.75 9.39048 23.6413C9.22524 23.5326 9.09596 23.3773 9.01898 23.1951C8.94199 23.0129 8.92077 22.812 8.958 22.6177C9.00793 22.3579 9.15877 22.1285 9.3775 21.9797C9.59622 21.8309 9.86501 21.7748 10.125 21.8237H10.128ZM6.008 1.90073C6.20211 1.93763 6.38094 2.03122 6.52191 2.16967C6.66289 2.30812 6.75969 2.48523 6.80009 2.67865C6.84049 2.87207 6.82269 3.07312 6.74893 3.25643C6.67517 3.43973 6.54876 3.59708 6.38565 3.70861C6.22254 3.82014 6.03005 3.88084 5.83247 3.88307C5.63489 3.88529 5.44108 3.82893 5.27551 3.7211C5.10993 3.61327 4.98001 3.45881 4.90214 3.27721C4.82428 3.0956 4.80195 2.895 4.838 2.70073C4.86202 2.57124 4.91138 2.44777 4.98325 2.33742C5.05512 2.22706 5.14808 2.13198 5.25679 2.05765C5.3655 1.98332 5.48783 1.93119 5.61674 1.90426C5.74565 1.87733 5.87862 1.87613 6.008 1.90073ZM10.182 0.209727C10.3758 0.250085 10.5533 0.347057 10.6919 0.488358C10.8306 0.62966 10.9241 0.808932 10.9608 1.00347C10.9975 1.198 10.9756 1.39904 10.8979 1.58113C10.8202 1.76321 10.6903 1.91814 10.5245 2.02629C10.3587 2.13445 10.1645 2.19095 9.96653 2.18866C9.76858 2.18636 9.57577 2.12537 9.41251 2.0134C9.24926 1.90143 9.12291 1.74353 9.04948 1.55969C8.97604 1.37585 8.95882 1.17436 9 0.980727C9.05501 0.722025 9.21027 0.495654 9.43179 0.351156C9.65332 0.206659 9.92306 0.155806 10.182 0.209727ZM0.233995 14.0467C0.270901 13.8526 0.364486 13.6738 0.502937 13.5328C0.641389 13.3918 0.818501 13.295 1.01192 13.2546C1.20534 13.2142 1.40639 13.232 1.58969 13.3058C1.773 13.3796 1.93035 13.506 2.04188 13.6691C2.15341 13.8322 2.21411 14.0247 2.21633 14.2223C2.21856 14.4198 2.1622 14.6136 2.05437 14.7792C1.94654 14.9448 1.79208 15.0747 1.61047 15.1526C1.42887 15.2304 1.22827 15.2528 1.034 15.2167C0.904508 15.1927 0.781042 15.1433 0.670684 15.0715C0.560326 14.9996 0.465251 14.9066 0.390918 14.7979C0.316584 14.6892 0.264456 14.5669 0.237527 14.438C0.210598 14.3091 0.209398 14.1761 0.233995 14.0467ZM1.915 18.0097C1.9519 17.8156 2.04549 17.6368 2.18394 17.4958C2.32239 17.3548 2.4995 17.258 2.69292 17.2176C2.88633 17.1772 3.08739 17.195 3.27069 17.2688C3.454 17.3426 3.61135 17.469 3.72288 17.6321C3.8344 17.7952 3.89511 17.9877 3.89733 18.1853C3.89956 18.3828 3.8432 18.5766 3.73537 18.7422C3.62754 18.9078 3.47308 19.0377 3.29147 19.1156C3.10987 19.1934 2.90927 19.2158 2.715 19.1797C2.58551 19.1557 2.46204 19.1063 2.35168 19.0345C2.24133 18.9626 2.14625 18.8696 2.07192 18.7609C1.99758 18.6522 1.94546 18.5299 1.91853 18.401C1.8916 18.2721 1.8904 18.1391 1.915 18.0097ZM4.967 21.0007C5.0039 20.8066 5.09749 20.6278 5.23594 20.4868C5.37439 20.3458 5.5515 20.249 5.74492 20.2086C5.93833 20.1682 6.13939 20.186 6.32269 20.2598C6.506 20.3336 6.66335 20.46 6.77488 20.6231C6.8864 20.7862 6.94711 20.9787 6.94933 21.1763C6.95156 21.3738 6.8952 21.5676 6.78737 21.7332C6.67954 21.8988 6.52508 22.0287 6.34347 22.1066C6.16187 22.1845 5.96127 22.2068 5.767 22.1707C5.63751 22.1467 5.51404 22.0973 5.40368 22.0255C5.29333 21.9536 5.19825 21.8606 5.12392 21.7519C5.04958 21.6432 4.99746 21.5209 4.97053 21.392C4.9436 21.2631 4.9424 21.1301 4.967 21.0007Z" fill="#374957"/>
</g>
<defs>
<clipPath id="clip0_806_6790">
<rect width="24" height="24" fill="white"/>
</clipPath>
</defs>
</svg>
