<svg width="24" height="24" viewBox="0 0 24 24" fill="none" xmlns="http://www.w3.org/2000/svg">
<g clip-path="url(#clip0_806_6638)">
<path d="M16 10.5107C17.3807 10.5107 18.5 9.39145 18.5 8.01074C18.5 6.63003 17.3807 5.51074 16 5.51074C14.6193 5.51074 13.5 6.63003 13.5 8.01074C13.5 9.39145 14.6193 10.5107 16 10.5107Z" fill="#374957"/>
<path d="M23 16.0002C22.7348 16.0002 22.4804 16.1056 22.2929 16.2931C22.1053 16.4807 22 16.735 22 17.0002V19.0002C22 19.7959 21.6839 20.5589 21.1213 21.1216C20.5587 21.6842 19.7956 22.0002 19 22.0002H17C16.7348 22.0002 16.4804 22.1056 16.2929 22.2931C16.1054 22.4807 16 22.735 16 23.0002C16 23.2654 16.1054 23.5198 16.2929 23.7073C16.4804 23.8949 16.7348 24.0002 17 24.0002H19C20.3256 23.9986 21.5964 23.4713 22.5338 22.534C23.4711 21.5967 23.9984 20.3258 24 19.0002V17.0002C24 16.735 23.8946 16.4807 23.7071 16.2931C23.5196 16.1056 23.2652 16.0002 23 16.0002Z" fill="#374957"/>
<path d="M1 8C1.26522 8 1.51957 7.89464 1.70711 7.70711C1.89464 7.51957 2 7.26522 2 7V5C2 4.20435 2.31607 3.44129 2.87868 2.87868C3.44129 2.31607 4.20435 2 5 2H7C7.26522 2 7.51957 1.89464 7.70711 1.70711C7.89464 1.51957 8 1.26522 8 1C8 0.734784 7.89464 0.48043 7.70711 0.292893C7.51957 0.105357 7.26522 0 7 0L5 0C3.67441 0.00158786 2.40356 0.528882 1.46622 1.46622C0.528882 2.40356 0.00158786 3.67441 0 5L0 7C0 7.26522 0.105357 7.51957 0.292893 7.70711C0.48043 7.89464 0.734784 8 1 8Z" fill="#374957"/>
<path d="M7 22.0002H5C4.20435 22.0002 3.44129 21.6842 2.87868 21.1216C2.31607 20.5589 2 19.7959 2 19.0002V17.0002C2 16.735 1.89464 16.4807 1.70711 16.2931C1.51957 16.1056 1.26522 16.0002 1 16.0002C0.734784 16.0002 0.48043 16.1056 0.292893 16.2931C0.105357 16.4807 0 16.735 0 17.0002L0 19.0002C0.00158786 20.3258 0.528882 21.5967 1.46622 22.534C2.40356 23.4713 3.67441 23.9986 5 24.0002H7C7.26522 24.0002 7.51957 23.8949 7.70711 23.7073C7.89464 23.5198 8 23.2654 8 23.0002C8 22.735 7.89464 22.4807 7.70711 22.2931C7.51957 22.1056 7.26522 22.0002 7 22.0002Z" fill="#374957"/>
<path d="M19 0H17C16.7348 0 16.4804 0.105357 16.2929 0.292893C16.1054 0.48043 16 0.734784 16 1C16 1.26522 16.1054 1.51957 16.2929 1.70711C16.4804 1.89464 16.7348 2 17 2H19C19.7956 2 20.5587 2.31607 21.1213 2.87868C21.6839 3.44129 22 4.20435 22 5V7C22 7.26522 22.1053 7.51957 22.2929 7.70711C22.4804 7.89464 22.7348 8 23 8C23.2652 8 23.5196 7.89464 23.7071 7.70711C23.8946 7.51957 24 7.26522 24 7V5C23.9984 3.67441 23.4711 2.40356 22.5338 1.46622C21.5964 0.528882 20.3256 0.00158786 19 0V0Z" fill="#374957"/>
<path d="M18.707 17.2927L11.121 9.70673C10.5584 9.14431 9.79549 8.82837 9 8.82837C8.20451 8.82837 7.44158 9.14431 6.879 9.70673L4.586 11.9997C4.2109 12.3747 4.00011 12.8833 4 13.4137V15.9997C4 16.7954 4.31607 17.5584 4.87868 18.121C5.44129 18.6836 6.20435 18.9997 7 18.9997H18C18.1978 18.9997 18.391 18.941 18.5555 18.8311C18.7199 18.7212 18.848 18.5651 18.9237 18.3824C18.9993 18.1997 19.0192 17.9986 18.9806 17.8047C18.942 17.6107 18.8468 17.4326 18.707 17.2927Z" fill="#374957"/>
</g>
<defs>
<clipPath id="clip0_806_6638">
<rect width="24" height="24" fill="white"/>
</clipPath>
</defs>
</svg>
