<svg width="24" height="24" viewBox="0 0 24 24" fill="none" xmlns="http://www.w3.org/2000/svg">
<g clip-path="url(#clip0_806_6634)">
<path d="M10 11.9996C10 12.2648 9.89464 12.5192 9.70711 12.7067C9.51957 12.8943 9.26522 12.9996 9 12.9996H4.069C4.31113 14.9323 5.25065 16.7101 6.71105 17.9989C8.17145 19.2878 10.0522 19.999 12 19.999C13.9478 19.999 15.8286 19.2878 17.289 17.9989C18.7493 16.7101 19.6889 14.9323 19.931 12.9996H15C14.7348 12.9996 14.4804 12.8943 14.2929 12.7067C14.1054 12.5192 14 12.2648 14 11.9996C14 11.7344 14.1054 11.4801 14.2929 11.2925C14.4804 11.105 14.7348 10.9996 15 10.9996H20V8.99962H15C14.7348 8.99962 14.4804 8.89426 14.2929 8.70673C14.1054 8.51919 14 8.26484 14 7.99962C14 7.7344 14.1054 7.48005 14.2929 7.29251C14.4804 7.10498 14.7348 6.99962 15 6.99962H19.931C19.6889 5.06694 18.7493 3.28918 17.289 2.00033C15.8286 0.711478 13.9478 0.000244141 12 0.000244141C10.0522 0.000244141 8.17145 0.711478 6.71105 2.00033C5.25065 3.28918 4.31113 5.06694 4.069 6.99962H9C9.26522 6.99962 9.51957 7.10498 9.70711 7.29251C9.89464 7.48005 10 7.7344 10 7.99962C10 8.26484 9.89464 8.51919 9.70711 8.70673C9.51957 8.89426 9.26522 8.99962 9 8.99962H4V10.9996H9C9.26522 10.9996 9.51957 11.105 9.70711 11.2925C9.89464 11.4801 10 11.7344 10 11.9996Z" fill="#374957"/>
<path d="M23 12C22.7348 12 22.4804 12.1054 22.2929 12.2929C22.1054 12.4804 22 12.7348 22 13C21.9974 15.3861 21.0483 17.6738 19.361 19.361C17.6738 21.0483 15.3861 21.9974 13 22H11C8.61395 21.9971 6.32645 21.0479 4.63925 19.3607C2.95206 17.6735 2.00291 15.3861 2 13C2 12.7348 1.89464 12.4804 1.70711 12.2929C1.51957 12.1054 1.26522 12 1 12C0.734784 12 0.48043 12.1054 0.292893 12.2929C0.105357 12.4804 0 12.7348 0 13C0.00344047 15.9163 1.16347 18.7122 3.22563 20.7744C5.28778 22.8365 8.08367 23.9966 11 24H13C15.9163 23.9966 18.7122 22.8365 20.7744 20.7744C22.8365 18.7122 23.9966 15.9163 24 13C24 12.7348 23.8946 12.4804 23.7071 12.2929C23.5196 12.1054 23.2652 12 23 12Z" fill="#374957"/>
</g>
<defs>
<clipPath id="clip0_806_6634">
<rect width="24" height="24" fill="white"/>
</clipPath>
</defs>
</svg>
