<svg width="24" height="24" viewBox="0 0 24 24" fill="none" xmlns="http://www.w3.org/2000/svg">
<g clip-path="url(#clip0_806_6836)">
<path d="M22.7918 1.60959L13.2618 13.9996H17.9998C18.265 13.9996 18.5193 14.105 18.7069 14.2925C18.8944 14.48 18.9998 14.7344 18.9998 14.9996C18.9998 15.2648 18.8944 15.5192 18.7069 15.7067C18.5193 15.8942 18.265 15.9996 17.9998 15.9996H12.9998V17.9996H17.9998C18.265 17.9996 18.5193 18.105 18.7069 18.2925C18.8944 18.48 18.9998 18.7344 18.9998 18.9996C18.9998 19.2648 18.8944 19.5192 18.7069 19.7067C18.5193 19.8942 18.265 19.9996 17.9998 19.9996H12.9998V22.9996C12.9998 23.2648 12.8944 23.5192 12.7069 23.7067C12.5193 23.8942 12.265 23.9996 11.9998 23.9996C11.7345 23.9996 11.4802 23.8942 11.2926 23.7067C11.1051 23.5192 10.9998 23.2648 10.9998 22.9996V19.9996H5.99975C5.73454 19.9996 5.48018 19.8942 5.29265 19.7067C5.10511 19.5192 4.99975 19.2648 4.99975 18.9996C4.99975 18.7344 5.10511 18.48 5.29265 18.2925C5.48018 18.105 5.73454 17.9996 5.99975 17.9996H10.9998V15.9996H5.99975C5.73454 15.9996 5.48018 15.8942 5.29265 15.7067C5.10511 15.5192 4.99975 15.2648 4.99975 14.9996C4.99975 14.7344 5.10511 14.48 5.29265 14.2925C5.48018 14.105 5.73454 13.9996 5.99975 13.9996H10.7378L1.20775 1.60959C1.05385 1.39899 0.988324 1.13658 1.02516 0.878344C1.062 0.62011 1.19829 0.386491 1.40495 0.227322C1.6116 0.0681533 1.87228 -0.00396523 2.13136 0.0263503C2.39044 0.0566658 2.62742 0.187016 2.79175 0.389594L11.9998 12.3596L21.2078 0.389594C21.2865 0.281853 21.386 0.190959 21.5004 0.12227C21.6148 0.0535803 21.7418 0.00848377 21.8739 -0.0103626C22.006 -0.0292089 22.1406 -0.0214238 22.2696 0.012534C22.3987 0.0464918 22.5196 0.105935 22.6253 0.187362C22.7311 0.268789 22.8194 0.370553 22.8852 0.486656C22.951 0.60276 22.9929 0.730856 23.0084 0.863396C23.0239 0.995936 23.0127 1.13024 22.9755 1.25839C22.9383 1.38655 22.8758 1.50596 22.7918 1.60959Z" fill="#374957"/>
</g>
<defs>
<clipPath id="clip0_806_6836">
<rect width="24" height="24" fill="white"/>
</clipPath>
</defs>
</svg>
