<svg width="24" height="24" viewBox="0 0 24 24" fill="none" xmlns="http://www.w3.org/2000/svg">
<g clip-path="url(#clip0_806_6834)">
<path d="M23.9253 18.1434C24.0501 18.8616 24.0163 19.5984 23.8264 20.3022C23.6364 21.006 23.2949 21.6598 22.8257 22.2177C22.3565 22.7756 21.771 23.2241 21.1102 23.5319C20.4494 23.8397 19.7293 23.9992 19.0003 23.9994H16.0003C15.7351 23.9994 15.4807 23.8941 15.2932 23.7065C15.1056 23.519 15.0003 23.2646 15.0003 22.9994V20.4094C14.046 20.792 13.0284 20.9921 12.0003 20.9994C10.9716 20.9889 9.95394 20.7853 9.00028 20.3994V22.9994C9.00028 23.2646 8.89493 23.519 8.70739 23.7065C8.51985 23.8941 8.2655 23.9994 8.00028 23.9994H5.00028C4.27131 23.9992 3.5512 23.8397 2.89039 23.5319C2.22958 23.2241 1.64406 22.7756 1.17486 22.2177C0.705658 21.6598 0.364122 21.006 0.17418 20.3022C-0.0157627 19.5984 -0.0495163 18.8616 0.0752836 18.1434L0.375284 16.4034C0.475042 15.8247 0.745878 15.2892 1.15287 14.8658C1.55986 14.4425 2.08433 14.1508 2.65867 14.0283C3.233 13.9058 3.83085 13.9582 4.37513 14.1787C4.9194 14.3992 5.38514 14.7777 5.71228 15.2654C6.97628 17.1234 9.40928 18.9994 12.0003 18.9994C15.1303 18.9994 18.2143 16.2204 19.1303 13.6234C19.2038 13.4282 19.3348 13.2599 19.5061 13.1408C19.6773 13.0217 19.8807 12.9574 20.0893 12.9564L20.5213 12.9634C20.7149 12.9658 20.9071 12.9297 21.0866 12.8571C21.2661 12.7846 21.4295 12.6771 21.5671 12.5409C21.7047 12.4046 21.8139 12.2424 21.8882 12.0636C21.9626 11.8848 22.0007 11.6931 22.0003 11.4994C21.9999 11.1487 21.8767 10.8092 21.652 10.5399C21.4273 10.2706 21.1153 10.0885 20.7703 10.0254C20.5575 9.98682 20.363 9.8803 20.2159 9.72183C20.0688 9.56335 19.977 9.36146 19.9543 9.14642C19.8216 7.88201 19.3881 6.66776 18.6899 5.60527C17.9917 4.54279 17.0492 3.66296 15.9413 3.03942C15.6585 3.92462 15.2806 4.77659 14.8143 5.58042C13.5163 7.42058 11.8229 8.94689 9.85828 10.0474C10.1578 10.1209 10.4273 10.285 10.6302 10.5172C10.8331 10.7494 10.9595 11.0385 10.9922 11.3452C11.0249 11.6518 10.9623 11.961 10.8129 12.2308C10.6635 12.5006 10.4346 12.7178 10.1573 12.8528C9.88009 12.9878 9.56798 13.034 9.26349 12.9853C8.959 12.9365 8.67693 12.7951 8.45569 12.5803C8.23446 12.3655 8.08481 12.0877 8.02711 11.7848C7.96942 11.4819 8.0065 11.1685 8.13328 10.8874C5.8341 11.8184 3.34808 12.1952 0.876284 11.9874C0.670255 11.9598 0.477953 11.8687 0.326121 11.7267C0.174288 11.5847 0.0704738 11.399 0.029115 11.1952C-0.0122439 10.9915 0.0109088 10.78 0.0953531 10.59C0.179797 10.4001 0.321336 10.2412 0.500284 10.1354C1.10482 9.44952 1.55467 8.64157 1.81928 7.76642C3.12428 4.67342 5.10028 -0.000582344 12.0003 -0.000582344C14.3547 -0.00615982 16.6351 0.821466 18.4378 2.33578C20.2406 3.8501 21.4494 5.95342 21.8503 8.27342C22.4867 8.53946 23.0302 8.9876 23.4127 9.56155C23.7953 10.1355 23.9997 10.8097 24.0003 11.4994C23.9986 12.3304 23.6951 13.1325 23.1463 13.7564C23.1533 13.7824 23.1713 13.8034 23.1763 13.8314L23.9253 18.1434ZM16.0003 11.4994C16.0003 11.2027 15.9123 10.9127 15.7475 10.6661C15.5827 10.4194 15.3484 10.2271 15.0743 10.1136C14.8002 10.0001 14.4986 9.97036 14.2076 10.0282C13.9167 10.0861 13.6494 10.229 13.4396 10.4388C13.2298 10.6485 13.087 10.9158 13.0291 11.2068C12.9712 11.4978 13.0009 11.7994 13.1145 12.0734C13.228 12.3475 13.4203 12.5818 13.6669 12.7466C13.9136 12.9114 14.2036 12.9994 14.5003 12.9994C14.8981 12.9994 15.2796 12.8414 15.5609 12.5601C15.8422 12.2788 16.0003 11.8972 16.0003 11.4994Z" fill="#374957"/>
</g>
<defs>
<clipPath id="clip0_806_6834">
<rect width="24" height="24" fill="white"/>
</clipPath>
</defs>
</svg>
