<svg width="24" height="24" viewBox="0 0 24 24" fill="none" xmlns="http://www.w3.org/2000/svg">
<g clip-path="url(#clip0_806_6807)">
<path d="M19.9481 23.0008H4.05207C3.36103 23.0048 2.68056 22.831 2.07604 22.4962C1.47151 22.1614 0.963252 21.6767 0.600072 21.0888C0.241383 20.515 0.0362524 19.8585 0.00438072 19.1826C-0.027491 18.5066 0.114966 17.8338 0.418072 17.2288L8.38007 3.21278C8.7227 2.54456 9.2436 1.98421 9.88509 1.59381C10.5266 1.20341 11.2636 0.998189 12.0145 1.00088C12.7655 1.00357 13.501 1.21407 14.1397 1.60906C14.7784 2.00405 15.2952 2.56812 15.6331 3.23878L23.5551 17.1798C23.8691 17.7893 24.0198 18.4698 23.9924 19.1549C23.9651 19.8399 23.7607 20.5063 23.3991 21.0888C23.036 21.6766 22.5279 22.1611 21.9235 22.496C21.3192 22.8308 20.6389 23.0046 19.9481 23.0008Z" fill="#374957"/>
</g>
<defs>
<clipPath id="clip0_806_6807">
<rect width="24" height="24" fill="white"/>
</clipPath>
</defs>
</svg>
