<svg width="24" height="24" viewBox="0 0 24 24" fill="none" xmlns="http://www.w3.org/2000/svg">
<g clip-path="url(#clip0_806_6538)">
<path d="M23.5349 14.7247C23.3278 14.4732 23.0621 14.2763 22.7612 14.1515C22.4602 14.0267 22.1333 13.9776 21.8089 14.0087C19.9426 14.118 18.1401 14.7273 16.5903 15.7727C15.0404 16.8182 13.8003 18.2612 12.9999 19.9507V13.9157C14.3972 13.6777 15.6654 12.9534 16.5804 11.8708C17.4953 10.7883 17.9981 9.41711 17.9999 7.99969C17.9999 5.20669 16.0569 2.84769 14.1559 0.908691C14.0459 0.796087 13.9269 0.692737 13.7999 0.599691C12.6515 2.88765 12.0361 5.40596 11.9999 7.96569C12.0044 8.09701 11.9829 8.22793 11.9368 8.35096C11.8907 8.474 11.8208 8.58674 11.7311 8.68276C11.6414 8.77877 11.5336 8.85618 11.414 8.91056C11.2944 8.96494 11.1652 8.99523 11.0339 8.99969C10.9026 9.00416 10.7717 8.98271 10.6487 8.93658C10.5256 8.89045 10.4129 8.82054 10.3169 8.73084C10.2208 8.64114 10.1434 8.5334 10.0891 8.41379C10.0347 8.29417 10.0044 8.16501 9.99992 8.03369C10.0105 5.26268 10.6413 2.52918 11.8459 0.0336914C11.0932 0.0635741 10.3792 0.375575 9.84592 0.907691C7.94292 2.84769 5.99992 5.20669 5.99992 7.99969C6.00174 9.41711 6.50455 10.7883 7.4195 11.8708C8.33444 12.9534 9.60263 13.6777 10.9999 13.9157V19.9517C10.1997 18.262 8.95971 16.8187 7.40983 15.773C5.85996 14.7274 4.05733 14.118 2.19092 14.0087C1.86661 13.9778 1.53967 14.0269 1.23876 14.1517C0.937845 14.2766 0.672138 14.4733 0.464924 14.7247C0.259037 14.9691 0.115684 15.26 0.0472195 15.5722C-0.0212449 15.8844 -0.0127663 16.2085 0.0719245 16.5167C2.11092 23.8547 11.5909 23.9997 11.9939 23.9997H12.0059C12.4059 23.9997 21.8899 23.8547 23.9289 16.5167C24.0131 16.2084 24.0213 15.8843 23.9527 15.5722C23.884 15.26 23.7407 14.9692 23.5349 14.7247Z" fill="#374957"/>
</g>
<defs>
<clipPath id="clip0_806_6538">
<rect width="24" height="24" fill="white"/>
</clipPath>
</defs>
</svg>
