<svg width="24" height="24" viewBox="0 0 24 24" fill="none" xmlns="http://www.w3.org/2000/svg">
<g clip-path="url(#clip0_806_6684)">
<path d="M8 4.00024H4C2.93913 4.00024 1.92172 4.42167 1.17157 5.17182C0.421427 5.92196 0 6.93938 0 8.00024L0 12.0002C0 12.5307 0.210714 13.0394 0.585786 13.4145C0.960859 13.7895 1.46957 14.0002 2 14.0002H7.91C7.67273 15.3968 6.94948 16.6645 5.86803 17.5794C4.78658 18.4944 3.41655 18.9976 2 19.0002C1.73478 19.0002 1.48043 19.1056 1.29289 19.2931C1.10536 19.4807 1 19.735 1 20.0002C1 20.2655 1.10536 20.5198 1.29289 20.7074C1.48043 20.8949 1.73478 21.0002 2 21.0002C4.121 20.9979 6.15445 20.1542 7.65422 18.6545C9.154 17.1547 9.99762 15.1212 10 13.0002V6.00024C10 5.46981 9.78929 4.9611 9.41421 4.58603C9.03914 4.21096 8.53043 4.00024 8 4.00024Z" fill="#374957"/>
<path d="M22 4.00024H18C16.9391 4.00024 15.9217 4.42167 15.1716 5.17182C14.4214 5.92196 14 6.93938 14 8.00024V12.0002C14 12.5307 14.2107 13.0394 14.5858 13.4145C14.9609 13.7895 15.4696 14.0002 16 14.0002H21.91C21.6727 15.3968 20.9495 16.6645 19.868 17.5794C18.7866 18.4944 17.4165 18.9976 16 19.0002C15.7348 19.0002 15.4804 19.1056 15.2929 19.2931C15.1054 19.4807 15 19.735 15 20.0002C15 20.2655 15.1054 20.5198 15.2929 20.7074C15.4804 20.8949 15.7348 21.0002 16 21.0002C18.121 20.9979 20.1544 20.1542 21.6542 18.6545C23.154 17.1547 23.9976 15.1212 24 13.0002V6.00024C24 5.46981 23.7893 4.9611 23.4142 4.58603C23.0391 4.21096 22.5304 4.00024 22 4.00024Z" fill="#374957"/>
</g>
<defs>
<clipPath id="clip0_806_6684">
<rect width="24" height="24" fill="white"/>
</clipPath>
</defs>
</svg>
