<svg width="24" height="24" viewBox="0 0 24 24" fill="none" xmlns="http://www.w3.org/2000/svg">
<g clip-path="url(#clip0_806_6813)">
<path d="M14.9999 6.99927H10.1699V5.41327C10.1698 5.01777 10.0525 4.63117 9.83272 4.30235C9.61295 3.97353 9.30063 3.71725 8.93523 3.56591C8.56983 3.41457 8.16776 3.37497 7.77986 3.4521C7.39195 3.52924 7.03562 3.71965 6.75592 3.99927L0.875918 9.87826C0.313505 10.4408 -0.00244141 11.2038 -0.00244141 11.9993C-0.00244141 12.7948 0.313505 13.5577 0.875918 14.1203L6.75592 19.9992C7.03562 20.2789 7.39195 20.4693 7.77986 20.5464C8.16776 20.6235 8.56983 20.5839 8.93523 20.4326C9.30063 20.2813 9.61295 20.025 9.83272 19.6962C10.0525 19.3673 10.1698 18.9808 10.1699 18.5852V16.9993H15.9999C17.5907 17.0008 19.1159 17.6335 20.2408 18.7584C21.3657 19.8832 21.9983 21.4084 21.9999 22.9992C21.9999 23.2645 22.1053 23.5188 22.2928 23.7063C22.4803 23.8939 22.7347 23.9992 22.9999 23.9992C23.2651 23.9992 23.5195 23.8939 23.707 23.7063C23.8946 23.5188 23.9999 23.2645 23.9999 22.9992V15.9993C23.9973 13.6131 23.0482 11.3255 21.361 9.63822C19.6737 7.95097 17.3861 7.00191 14.9999 6.99927Z" fill="#374957"/>
</g>
<defs>
<clipPath id="clip0_806_6813">
<rect width="24" height="24" fill="white"/>
</clipPath>
</defs>
</svg>
