<svg width="24" height="24" viewBox="0 0 24 24" fill="none" xmlns="http://www.w3.org/2000/svg">
<g clip-path="url(#clip0_806_6723)">
<path d="M18.581 2.14073L12.316 0.0517291C12.1109 -0.016592 11.8891 -0.016592 11.684 0.0517291L5.418 2.14073C4.42209 2.47178 3.55582 3.10823 2.94224 3.95967C2.32866 4.81111 1.99897 5.83424 2 6.88373V12.0007C2 19.5637 11.2 23.7407 11.594 23.9147C11.7218 23.9715 11.8601 24.0009 12 24.0009C12.1399 24.0009 12.2782 23.9715 12.406 23.9147C12.8 23.7407 22 19.5637 22 12.0007V6.88373C22.001 5.83412 21.6711 4.81089 21.0574 3.95944C20.4436 3.10799 19.5771 2.47161 18.581 2.14073ZM12 19.0007C11.8022 19.0007 11.6089 18.9421 11.4444 18.8322C11.28 18.7223 11.1518 18.5661 11.0761 18.3834C11.0004 18.2007 10.9806 17.9996 11.0192 17.8056C11.0578 17.6117 11.153 17.4335 11.2929 17.2936C11.4327 17.1538 11.6109 17.0585 11.8049 17.0199C11.9989 16.9814 12.2 17.0012 12.3827 17.0769C12.5654 17.1525 12.7216 17.2807 12.8315 17.4452C12.9414 17.6096 13 17.8029 13 18.0007C13 18.2659 12.8946 18.5203 12.7071 18.7078C12.5196 18.8954 12.2652 19.0007 12 19.0007ZM13.928 12.5577C13.6753 12.7136 13.4608 12.9242 13.3002 13.1739C13.1396 13.4236 13.0371 13.7062 13 14.0007C13 14.2659 12.8946 14.5203 12.7071 14.7078C12.5196 14.8954 12.2652 15.0007 12 15.0007C11.7348 15.0007 11.4804 14.8954 11.2929 14.7078C11.1054 14.5203 11 14.2659 11 14.0007C11.0371 13.3473 11.2359 12.7133 11.5785 12.1557C11.9212 11.598 12.3969 11.1342 12.963 10.8057C13.3329 10.603 13.629 10.2882 13.8087 9.90649C13.9884 9.52484 14.0424 9.09603 13.963 8.68173C13.886 8.28602 13.6925 7.92232 13.4075 7.63726C13.1224 7.3522 12.7587 7.15876 12.363 7.08173C12.0741 7.02841 11.7771 7.03938 11.4929 7.11386C11.2088 7.18834 10.9445 7.3245 10.7189 7.51265C10.4933 7.70081 10.312 7.93635 10.1877 8.20253C10.0635 8.4687 9.99938 8.75898 10 9.05273C10 9.31795 9.89465 9.5723 9.70711 9.75984C9.51957 9.94737 9.26522 10.0527 9 10.0527C8.73479 10.0527 8.48043 9.94737 8.2929 9.75984C8.10536 9.5723 8 9.31795 8 9.05273C7.9999 8.46848 8.12779 7.89131 8.37467 7.36179C8.62155 6.83227 8.98143 6.36325 9.429 5.98773C9.85676 5.63013 10.3545 5.36591 10.8904 5.21201C11.4263 5.05811 11.9884 5.01794 12.5407 5.09407C13.0931 5.1702 13.6234 5.36096 14.0976 5.65409C14.5719 5.94722 14.9796 6.33627 15.2947 6.79625C15.6097 7.25624 15.8251 7.777 15.9271 8.32514C16.029 8.87327 16.0153 9.43667 15.8867 9.97918C15.7581 10.5217 15.5175 11.0313 15.1804 11.4754C14.8432 11.9194 14.417 12.2881 13.929 12.5577H13.928Z" fill="#374957"/>
</g>
<defs>
<clipPath id="clip0_806_6723">
<rect width="24" height="24" fill="white"/>
</clipPath>
</defs>
</svg>
