<svg width="24" height="24" viewBox="0 0 24 24" fill="none" xmlns="http://www.w3.org/2000/svg">
<g clip-path="url(#clip0_806_6574)">
<path d="M16.2432 10.7638C15.118 9.63844 13.5918 9.0062 12.0005 9.0061C10.4092 9.00601 8.88297 9.63808 7.75765 10.7633C6.63234 11.8884 6.00009 13.4146 6 15.0059C5.99991 16.5972 6.63197 18.1234 7.75715 19.2488L11.2642 22.6788C11.4609 22.871 11.7251 22.9787 12.0002 22.9787C12.2752 22.9787 12.5394 22.871 12.7362 22.6788L16.2432 19.2488C17.3683 18.1236 18.0004 16.5975 18.0004 15.0063C18.0004 13.415 17.3683 11.889 16.2432 10.7638ZM12.0002 16.9938C11.6046 16.9938 11.2179 16.8765 10.889 16.6567C10.5601 16.4369 10.3038 16.1246 10.1524 15.7591C10.001 15.3937 9.96141 14.9915 10.0386 14.6036C10.1158 14.2156 10.3062 13.8592 10.5859 13.5795C10.8656 13.2998 11.222 13.1094 11.61 13.0322C11.9979 12.955 12.4001 12.9946 12.7655 13.146C13.131 13.2974 13.4433 13.5537 13.6631 13.8826C13.8829 14.2115 14.0002 14.5982 14.0002 14.9938C14.0002 15.5242 13.7894 16.0329 13.4144 16.408C13.0393 16.783 12.5306 16.9938 12.0002 16.9938Z" fill="#374957"/>
<path d="M21.8 5.57914L14.8 0.855143C13.9741 0.2938 12.9986 -0.00634766 12 -0.00634766C11.0014 -0.00634766 10.0259 0.2938 9.2 0.855143L2.2 5.57914C1.52172 6.03688 0.966334 6.6543 0.582708 7.37708C0.199083 8.09987 -0.00102096 8.90586 3.91707e-06 9.72414V19.0001C0.00159177 20.3257 0.528886 21.5966 1.46622 22.5339C2.40356 23.4713 3.67441 23.9986 5 24.0001H9.754L6.359 20.6791C5.60791 19.9389 5.01058 19.0575 4.60136 18.0856C4.19215 17.1136 3.97914 16.0704 3.97458 15.0159C3.97001 13.9613 4.17399 12.9163 4.57477 11.9408C4.97556 10.9654 5.56524 10.0788 6.3099 9.33213C7.05456 8.58543 7.93951 7.99332 8.91384 7.58986C9.88816 7.18641 10.9326 6.97957 11.9872 6.98124C13.0418 6.98292 14.0856 7.19307 15.0586 7.59962C16.0317 8.00616 16.9147 8.60108 17.657 9.35014C19.1571 10.8504 19.9998 12.8851 19.9998 15.0066C19.9998 17.1282 19.1571 19.1629 17.657 20.6631L14.245 24.0001H19C20.3256 23.9986 21.5964 23.4713 22.5338 22.5339C23.4711 21.5966 23.9984 20.3257 24 19.0001V9.72414C24.0004 8.90597 23.8001 8.1002 23.4165 7.37752C23.0329 6.65483 22.4779 6.03732 21.8 5.57914Z" fill="#374957"/>
</g>
<defs>
<clipPath id="clip0_806_6574">
<rect width="24" height="24" fill="white"/>
</clipPath>
</defs>
</svg>
