<svg width="24" height="24" viewBox="0 0 24 24" fill="none" xmlns="http://www.w3.org/2000/svg">
<g clip-path="url(#clip0_806_6659)">
<path d="M1.172 19.1186C0.421803 19.8686 0.00022655 20.8858 0 21.9466L0 23.9996H2.053C3.11378 23.9994 4.13103 23.5778 4.881 22.8276L18.224 9.48463L14.515 5.77563L1.172 19.1186Z" fill="#374957"/>
<path d="M23.1447 0.855114C22.9012 0.61135 22.612 0.41797 22.2937 0.286031C21.9754 0.154092 21.6343 0.0861816 21.2897 0.0861816C20.9452 0.0861816 20.604 0.154092 20.2857 0.286031C19.9674 0.41797 19.6782 0.61135 19.4347 0.855114L15.9287 4.36211L19.6377 8.07112L23.1447 4.56511C23.3885 4.3216 23.5819 4.03244 23.7138 3.71414C23.8457 3.39585 23.9136 3.05467 23.9136 2.71011C23.9136 2.36556 23.8457 2.02438 23.7138 1.70609C23.5819 1.38779 23.3885 1.09863 23.1447 0.855114Z" fill="#374957"/>
</g>
<defs>
<clipPath id="clip0_806_6659">
<rect width="24" height="24" fill="white"/>
</clipPath>
</defs>
</svg>
