<svg width="24" height="24" viewBox="0 0 24 24" fill="none" xmlns="http://www.w3.org/2000/svg">
<g clip-path="url(#clip0_806_6430)">
<path d="M12.3003 10.1779C12.404 10.4105 12.5254 10.6348 12.6633 10.8489L23.5253 8.6879C23.0826 7.13212 22.3289 5.6823 21.3099 4.4261C20.2908 3.1699 19.0276 2.13343 17.5966 1.37935C16.1655 0.625282 14.5965 0.169276 12.9842 0.0389126C11.3719 -0.0914512 9.7499 0.106535 8.21631 0.6209L12.3003 10.1779Z" fill="#374957"/>
<path d="M12.631 13.742C11.6838 13.0173 10.9372 12.0628 10.462 10.969L6.37698 1.40601C4.82754 2.2245 3.47632 3.37265 2.41843 4.76964C1.36055 6.16663 0.621706 7.77851 0.25391 9.49182C-0.113885 11.2051 -0.101694 12.9782 0.289626 14.6863C0.680945 16.3944 1.44188 17.996 2.51888 19.3783C3.59587 20.7606 4.96275 21.8901 6.5233 22.6872C8.08385 23.4843 9.80014 23.9297 11.5514 23.992C13.3026 24.0543 15.0462 23.7321 16.6595 23.0479C18.2727 22.3637 19.7165 21.3343 20.889 20.032L12.631 13.742Z" fill="#374957"/>
<path d="M14.3652 12.5489L22.1062 18.4489C23.3433 16.5255 24.0008 14.2868 24.0002 11.9999C23.9985 11.5484 23.9715 11.0974 23.9192 10.6489L14.3652 12.5489Z" fill="#374957"/>
</g>
<defs>
<clipPath id="clip0_806_6430">
<rect width="24" height="24" fill="white"/>
</clipPath>
</defs>
</svg>
