<svg width="24" height="24" viewBox="0 0 24 24" fill="none" xmlns="http://www.w3.org/2000/svg">
<g clip-path="url(#clip0_806_6662)">
<path d="M23.7091 7.29983C23.8908 7.48893 23.9909 7.74185 23.9879 8.00408C23.985 8.2663 23.8791 8.51687 23.6931 8.70178C23.5072 8.88669 23.256 8.99115 22.9938 8.99266C22.7315 8.99416 22.4792 8.89259 22.2911 8.70983L19.5001 5.91483L16.7001 8.71483C16.6089 8.81635 16.4978 8.89811 16.3738 8.95509C16.2497 9.01206 16.1154 9.04305 15.9789 9.04613C15.8424 9.0492 15.7068 9.02432 15.5803 8.97299C15.4539 8.92167 15.3392 8.845 15.2435 8.7477C15.1478 8.6504 15.073 8.53454 15.0237 8.40725C14.9745 8.27995 14.9518 8.14392 14.9571 8.00753C14.9624 7.87114 14.9956 7.73728 15.0546 7.6142C15.1135 7.49111 15.1971 7.3814 15.3001 7.29183L18.0861 4.49983L15.2911 1.70683C15.1911 1.61548 15.1107 1.50475 15.0548 1.38139C14.9988 1.25802 14.9686 1.12457 14.9658 0.98915C14.963 0.853726 14.9877 0.719146 15.0385 0.593574C15.0893 0.468002 15.165 0.354057 15.2612 0.258651C15.3573 0.163245 15.4719 0.088368 15.5978 0.0385619C15.7238 -0.0112442 15.8586 -0.0349407 15.994 -0.0310899C16.1294 -0.0272391 16.2626 0.00407869 16.3855 0.0609634C16.5084 0.117848 16.6185 0.199114 16.7091 0.29983L19.5001 3.08783L22.3001 0.29283C22.4915 0.125068 22.7397 0.036603 22.994 0.0454622C23.2484 0.0543213 23.4898 0.159838 23.6691 0.34051C23.8484 0.521182 23.952 0.763412 23.9589 1.01784C23.9657 1.27226 23.8753 1.51974 23.7061 1.70983L20.9141 4.49983L23.7091 7.29983ZM20.6551 14.8598C20.0777 14.3105 19.3109 14.0046 18.5139 14.0057C17.7169 14.0068 16.951 14.3148 16.3751 14.8658L14.4691 16.4718C12.9128 15.8276 11.4992 14.8821 10.3096 13.6897C9.11995 12.4974 8.17773 11.0816 7.5371 9.52383L9.1371 7.62383C9.68809 7.04798 9.99613 6.28203 9.99724 5.48503C9.99836 4.68804 9.69248 3.92123 9.1431 3.34383C9.1431 3.34383 7.2911 0.93883 7.2611 0.90683C6.69008 0.332691 5.91622 0.00607684 5.10652 -0.00252908C4.29681 -0.011135 3.51619 0.298957 2.9331 0.86083L1.7841 1.86083C-5.9359 10.0698 13.9841 29.9988 22.1841 22.1608L23.0961 21.1118C23.6756 20.5307 24.001 19.7435 24.001 18.9228C24.001 18.1021 23.6756 17.3149 23.0961 16.7338C23.0631 16.7078 20.6551 14.8558 20.6551 14.8558V14.8598Z" fill="#374957"/>
</g>
<defs>
<clipPath id="clip0_806_6662">
<rect width="24" height="24" fill="white"/>
</clipPath>
</defs>
</svg>
