<svg width="24" height="24" viewBox="0 0 24 24" fill="none" xmlns="http://www.w3.org/2000/svg">
<path d="M13.2928 18.5861L7.70685 13.0001C7.51938 12.8125 7.41406 12.5582 7.41406 12.2931C7.41406 12.0279 7.51938 11.7736 7.70685 11.5861L13.2928 6.00006C13.4327 5.86025 13.6109 5.76505 13.8048 5.72648C13.9988 5.68791 14.1998 5.70771 14.3825 5.78338C14.5652 5.85905 14.7214 5.98719 14.8313 6.1516C14.9411 6.31601 14.9998 6.50931 14.9998 6.70706V17.8791C14.9998 18.0768 14.9411 18.2701 14.8313 18.4345C14.7214 18.5989 14.5652 18.7271 14.3825 18.8027C14.1998 18.8784 13.9988 18.8982 13.8048 18.8596C13.6109 18.8211 13.4327 18.7259 13.2928 18.5861Z" fill="#374957"/>
</svg>
