<svg width="24" height="24" viewBox="0 0 24 24" fill="none" xmlns="http://www.w3.org/2000/svg">
<path d="M15.0001 16.9998C15.0001 17.265 14.8947 17.5194 14.7072 17.7069C14.5197 17.8945 14.2653 17.9998 14.0001 17.9998H10.0001C9.73486 17.9998 9.48051 17.8945 9.29297 17.7069C9.10544 17.5194 9.00008 17.265 9.00008 16.9998C9.00008 16.7346 9.10544 16.4803 9.29297 16.2927C9.48051 16.1052 9.73486 15.9998 10.0001 15.9998H14.0001C14.2653 15.9998 14.5197 16.1052 14.7072 16.2927C14.8947 16.4803 15.0001 16.7346 15.0001 16.9998ZM14.7071 7.29284C14.5196 7.10537 14.2652 7.00005 14.0001 7.00005C13.7349 7.00005 13.4806 7.10537 13.2931 7.29284L12.0001 8.58584L10.7071 7.29284C10.6148 7.19733 10.5045 7.12114 10.3825 7.06874C10.2605 7.01633 10.1293 6.98874 9.99648 6.98759C9.8637 6.98643 9.73202 7.01173 9.60913 7.06202C9.48623 7.1123 9.37458 7.18655 9.28069 7.28044C9.18679 7.37433 9.11254 7.48599 9.06226 7.60888C9.01198 7.73178 8.98668 7.86346 8.98783 7.99624C8.98898 8.12902 9.01657 8.26024 9.06898 8.38224C9.12139 8.50424 9.19757 8.61459 9.29308 8.70683L10.5861 9.99983L9.29308 11.2928C9.19757 11.3851 9.12139 11.4954 9.06898 11.6174C9.01657 11.7394 8.98898 11.8707 8.98783 12.0034C8.98668 12.1362 9.01198 12.2679 9.06226 12.3908C9.11254 12.5137 9.18679 12.6253 9.28069 12.7192C9.37458 12.8131 9.48623 12.8874 9.60913 12.9377C9.73202 12.9879 9.8637 13.0132 9.99648 13.0121C10.1293 13.0109 10.2605 12.9833 10.3825 12.9309C10.5045 12.8785 10.6148 12.8023 10.7071 12.7068L12.0001 11.4138L13.2931 12.7068C13.4817 12.889 13.7343 12.9898 13.9965 12.9875C14.2587 12.9852 14.5095 12.8801 14.6949 12.6946C14.8803 12.5092 14.9855 12.2584 14.9878 11.9962C14.99 11.734 14.8892 11.4814 14.7071 11.2928L13.4141 9.99983L14.7071 8.70683C14.8946 8.51931 14.9999 8.265 14.9999 7.99984C14.9999 7.73467 14.8946 7.48036 14.7071 7.29284ZM22.0001 15.9998H18.0001C17.7349 15.9998 17.4805 16.1052 17.293 16.2927C17.1054 16.4803 17.0001 16.7346 17.0001 16.9998C17.0001 17.265 17.1054 17.5194 17.293 17.7069C17.4805 17.8945 17.7349 17.9998 18.0001 17.9998H22.0001C22.2653 17.9998 22.5197 17.8945 22.7072 17.7069C22.8947 17.5194 23.0001 17.265 23.0001 16.9998C23.0001 16.7346 22.8947 16.4803 22.7072 16.2927C22.5197 16.1052 22.2653 15.9998 22.0001 15.9998ZM21.4141 9.99983L22.7071 8.70683C22.8026 8.61459 22.8788 8.50424 22.9312 8.38224C22.9836 8.26024 23.0112 8.12902 23.0123 7.99624C23.0135 7.86346 22.9882 7.73178 22.9379 7.60888C22.8876 7.48599 22.8134 7.37433 22.7195 7.28044C22.6256 7.18655 22.5139 7.1123 22.391 7.06202C22.2681 7.01173 22.1365 6.98643 22.0037 6.98759C21.8709 6.98874 21.7397 7.01633 21.6177 7.06874C21.4957 7.12114 21.3853 7.19733 21.2931 7.29284L20.0001 8.58584L18.7071 7.29284C18.6148 7.19733 18.5045 7.12114 18.3825 7.06874C18.2605 7.01633 18.1293 6.98874 17.9965 6.98759C17.8637 6.98643 17.732 7.01173 17.6091 7.06202C17.4862 7.1123 17.3746 7.18655 17.2807 7.28044C17.1868 7.37433 17.1125 7.48599 17.0623 7.60888C17.012 7.73178 16.9867 7.86346 16.9878 7.99624C16.989 8.12902 17.0166 8.26024 17.069 8.38224C17.1214 8.50424 17.1976 8.61459 17.2931 8.70683L18.5861 9.99983L17.2931 11.2928C17.1976 11.3851 17.1214 11.4954 17.069 11.6174C17.0166 11.7394 16.989 11.8707 16.9878 12.0034C16.9867 12.1362 17.012 12.2679 17.0623 12.3908C17.1125 12.5137 17.1868 12.6253 17.2807 12.7192C17.3746 12.8131 17.4862 12.8874 17.6091 12.9377C17.732 12.9879 17.8637 13.0132 17.9965 13.0121C18.1293 13.0109 18.2605 12.9833 18.3825 12.9309C18.5045 12.8785 18.6148 12.8023 18.7071 12.7068L20.0001 11.4138L21.2931 12.7068C21.4817 12.889 21.7343 12.9898 21.9965 12.9875C22.2587 12.9852 22.5095 12.8801 22.6949 12.6946C22.8803 12.5092 22.9855 12.2584 22.9878 11.9962C22.99 11.734 22.8892 11.4814 22.7071 11.2928L21.4141 9.99983ZM6.00008 15.9998H2.00008C1.73486 15.9998 1.48051 16.1052 1.29297 16.2927C1.10544 16.4803 1.00008 16.7346 1.00008 16.9998C1.00008 17.265 1.10544 17.5194 1.29297 17.7069C1.48051 17.8945 1.73486 17.9998 2.00008 17.9998H6.00008C6.2653 17.9998 6.51965 17.8945 6.70719 17.7069C6.89472 17.5194 7.00008 17.265 7.00008 16.9998C7.00008 16.7346 6.89472 16.4803 6.70719 16.2927C6.51965 16.1052 6.2653 15.9998 6.00008 15.9998ZM6.70708 7.29284C6.51955 7.10537 6.26525 7.00005 6.00008 7.00005C5.73492 7.00005 5.48061 7.10537 5.29308 7.29284L4.00008 8.58584L2.70708 7.29284C2.61483 7.19733 2.50449 7.12114 2.38249 7.06874C2.26048 7.01633 2.12926 6.98874 1.99648 6.98759C1.8637 6.98643 1.73202 7.01173 1.60913 7.06202C1.48623 7.1123 1.37458 7.18655 1.28069 7.28044C1.18679 7.37433 1.11254 7.48599 1.06226 7.60888C1.01198 7.73178 0.986677 7.86346 0.987831 7.99624C0.988985 8.12902 1.01657 8.26024 1.06898 8.38224C1.12139 8.50424 1.19757 8.61459 1.29308 8.70683L2.58608 9.99983L1.29308 11.2928C1.19757 11.3851 1.12139 11.4954 1.06898 11.6174C1.01657 11.7394 0.988985 11.8707 0.987831 12.0034C0.986677 12.1362 1.01198 12.2679 1.06226 12.3908C1.11254 12.5137 1.18679 12.6253 1.28069 12.7192C1.37458 12.8131 1.48623 12.8874 1.60913 12.9377C1.73202 12.9879 1.8637 13.0132 1.99648 13.0121C2.12926 13.0109 2.26048 12.9833 2.38249 12.9309C2.50449 12.8785 2.61483 12.8023 2.70708 12.7068L4.00008 11.4138L5.29308 12.7068C5.38533 12.8023 5.49567 12.8785 5.61768 12.9309C5.73968 12.9833 5.8709 13.0109 6.00368 13.0121C6.13646 13.0132 6.26814 12.9879 6.39104 12.9377C6.51393 12.8874 6.62558 12.8131 6.71948 12.7192C6.81337 12.6253 6.88762 12.5137 6.9379 12.3908C6.98818 12.2679 7.01349 12.1362 7.01233 12.0034C7.01118 11.8707 6.98359 11.7394 6.93118 11.6174C6.87877 11.4954 6.80259 11.3851 6.70708 11.2928L5.41408 9.99983L6.70708 8.70683C6.89455 8.51931 6.99987 8.265 6.99987 7.99984C6.99987 7.73467 6.89455 7.48036 6.70708 7.29284Z" fill="#374957"/>
</svg>
