<svg width="24" height="24" viewBox="0 0 24 24" fill="none" xmlns="http://www.w3.org/2000/svg">
<g clip-path="url(#clip0_806_6665)">
<path d="M22.5631 1.43741C20.1891 -0.936588 16.6441 -0.357588 12.0001 3.13741C7.35711 -0.357588 3.81311 -0.937588 1.43711 1.43741C-0.93889 3.81241 -0.35789 7.3564 3.13711 12.0004C-0.35789 16.6434 -0.937891 20.1884 1.43711 22.5634C1.8824 23.0251 2.4175 23.3908 3.00946 23.6379C3.60141 23.8851 4.23769 24.0084 4.87911 24.0004C6.85011 24.0004 9.23011 22.9484 12.0001 20.8644C14.7691 22.9484 17.1491 24.0004 19.1211 24.0004C19.7625 24.0084 20.3988 23.8851 20.9908 23.6379C21.5827 23.3908 22.1178 23.0251 22.5631 22.5634C24.9381 20.1884 24.3631 16.6444 20.8631 12.0004C24.3581 7.3564 24.9381 3.81241 22.5631 1.43741ZM19.0851 2.02841C19.4673 2.0169 19.8477 2.08361 20.2032 2.22445C20.5586 2.36529 20.8815 2.57728 21.1521 2.84741C22.8981 4.59441 21.6081 7.5604 19.5641 10.3864C18.7261 9.3984 17.7821 8.3714 16.7061 7.2944C15.6301 6.2174 14.6001 5.2734 13.6121 4.43441C15.5101 3.06141 17.4721 2.02841 19.0851 2.02841ZM18.3111 12.0004C17.3001 13.2204 16.2291 14.3614 15.2951 15.3004C14.3611 16.2394 13.2201 17.3004 12.0001 18.3114C10.7801 17.3004 9.63911 16.2294 8.70511 15.3004C7.77111 14.3714 6.70011 13.2204 5.68911 12.0004C6.70011 10.7804 7.77111 9.6384 8.70511 8.7054C9.63911 7.7724 10.7801 6.7004 12.0001 5.6884C13.2201 6.6984 14.3611 7.7714 15.3001 8.7054C16.2391 9.6394 17.3001 10.7804 18.3111 12.0004ZM2.84811 2.84841C3.11838 2.57781 3.44122 2.36544 3.79672 2.22441C4.15222 2.08338 4.53284 2.01668 4.91511 2.02841C6.52811 2.02841 8.49011 3.06141 10.3881 4.43441C9.40011 5.2734 8.37211 6.2174 7.29411 7.2944C6.21611 8.3714 5.27411 9.3944 4.43511 10.3864C2.39211 7.5604 1.10011 4.59441 2.84811 2.84841ZM2.84811 21.1484C1.10211 19.4024 2.39211 16.4354 4.43511 13.6104C5.27411 14.5984 6.21811 15.6254 7.29411 16.7024C8.37011 17.7794 9.39411 18.7254 10.3831 19.5634C7.55811 21.6094 4.59211 22.9004 2.84811 21.1524V21.1484ZM21.1481 21.1484C19.4031 22.8924 16.4381 21.6054 13.6131 19.5634C14.5991 18.7254 15.6271 17.7764 16.7021 16.7024C17.7771 15.6284 18.7221 14.6024 19.5601 13.6104C21.6081 16.4404 22.9001 19.4064 21.1521 21.1524L21.1481 21.1484Z" fill="#374957"/>
<path d="M12 14.0002C13.1046 14.0002 14 13.1048 14 12.0002C14 10.8957 13.1046 10.0002 12 10.0002C10.8954 10.0002 10 10.8957 10 12.0002C10 13.1048 10.8954 14.0002 12 14.0002Z" fill="#374957"/>
</g>
<defs>
<clipPath id="clip0_806_6665">
<rect width="24" height="24" fill="white"/>
</clipPath>
</defs>
</svg>
