<svg width="24" height="24" viewBox="0 0 24 24" fill="none" xmlns="http://www.w3.org/2000/svg">
<g clip-path="url(#clip0_806_6446)">
<path d="M23.7071 22.2929C23.8026 22.3852 23.8788 22.4955 23.9312 22.6175C23.9836 22.7395 24.0112 22.8707 24.0124 23.0035C24.0135 23.1363 23.9882 23.268 23.9379 23.3909C23.8876 23.5138 23.8134 23.6254 23.7195 23.7193C23.6256 23.8132 23.514 23.8875 23.3911 23.9377C23.2682 23.988 23.1365 24.0133 23.0037 24.0122C22.8709 24.011 22.7397 23.9834 22.6177 23.931C22.4957 23.8786 22.3853 23.8024 22.2931 23.7069L0.293097 1.70692C0.110939 1.51832 0.0101446 1.26571 0.012423 1.00352C0.0147014 0.741321 0.11987 0.490508 0.305278 0.3051C0.490687 0.119692 0.741499 0.0145233 1.0037 0.0122448C1.26589 0.00996641 1.5185 0.110761 1.7071 0.292919L4.5771 3.16292C5.74365 2.0532 7.22247 1.32793 8.8141 1.08492C10.7041 0.800048 12.6335 1.20255 14.252 2.2193C15.8704 3.23605 17.0704 4.79961 17.6341 6.62592C17.6843 6.79855 17.7766 6.95604 17.9026 7.0843C18.0286 7.21256 18.1844 7.3076 18.3561 7.36092C20.0982 7.88984 21.6063 8.99995 22.629 10.5062C23.6517 12.0123 24.1271 13.8236 23.9761 15.6379C23.8429 17.4295 23.0607 19.111 21.7761 20.3669L23.7071 22.2929ZM3.4411 7.66292C3.33435 7.55553 3.19968 7.48017 3.05231 7.44537C2.90495 7.41056 2.75079 7.41771 2.60728 7.466C2.46377 7.51429 2.33664 7.60179 2.24029 7.71859C2.14394 7.8354 2.08221 7.97684 2.0621 8.12692C2.02236 8.42932 2.00165 8.73392 2.0001 9.03892C2.00146 10.3024 2.32535 11.5446 2.9411 12.6479C1.92978 13.1702 1.10764 13.9963 0.590308 15.0102C0.0729787 16.024 -0.113502 17.1746 0.057097 18.2999C0.317748 19.6077 1.01791 20.787 2.04131 21.642C3.06472 22.4969 4.34978 22.9761 5.6831 22.9999H14.7831C15.437 23.0011 16.0899 22.9483 16.7351 22.8419C16.8875 22.8175 17.0303 22.7514 17.1476 22.6511C17.2649 22.5507 17.3522 22.4199 17.4 22.2731C17.4478 22.1263 17.4541 21.9691 17.4183 21.819C17.3825 21.6688 17.306 21.5314 17.1971 21.4219L3.4411 7.66292Z" fill="#374957"/>
</g>
<defs>
<clipPath id="clip0_806_6446">
<rect width="24" height="24" fill="white"/>
</clipPath>
</defs>
</svg>
