<svg width="24" height="24" viewBox="0 0 24 24" fill="none" xmlns="http://www.w3.org/2000/svg">
<g clip-path="url(#clip0_806_6353)">
<path d="M1.50996 6.07898C1.70694 6.07871 1.90203 6.11746 2.08396 6.19298C2.26589 6.2685 2.43107 6.37929 2.56996 6.51898L10.243 14.191C10.4751 14.4232 10.7507 14.6074 11.0541 14.7331C11.3575 14.8587 11.6826 14.9234 12.011 14.9234C12.3393 14.9234 12.6645 14.8587 12.9678 14.7331C13.2712 14.6074 13.5468 14.4232 13.779 14.191L21.44 6.52898C21.5783 6.38571 21.7438 6.27144 21.9269 6.19282C22.1099 6.11421 22.3067 6.07283 22.5059 6.0711C22.705 6.06937 22.9025 6.10732 23.0869 6.18274C23.2712 6.25817 23.4387 6.36954 23.5795 6.51038C23.7204 6.65122 23.8318 6.8187 23.9072 7.00304C23.9826 7.18739 24.0206 7.38491 24.0188 7.58408C24.0171 7.78325 23.9757 7.98008 23.8971 8.16308C23.8185 8.34609 23.7042 8.5116 23.561 8.64997L15.9 16.312C14.8679 17.3421 13.4692 17.9207 12.011 17.9207C10.5527 17.9207 9.15405 17.3421 8.12196 16.312L0.448958 8.63997C0.239042 8.43019 0.0960714 8.16286 0.0381373 7.8718C-0.0197968 7.58074 0.00990933 7.27903 0.123497 7.00486C0.237084 6.73069 0.429448 6.49637 0.676247 6.33156C0.923045 6.16674 1.21319 6.07884 1.50996 6.07898Z" fill="#374957"/>
</g>
<defs>
<clipPath id="clip0_806_6353">
<rect width="24" height="24" fill="white"/>
</clipPath>
</defs>
</svg>
