<svg width="24" height="24" viewBox="0 0 24 24" fill="none" xmlns="http://www.w3.org/2000/svg">
<g clip-path="url(#clip0_806_6642)">
<path d="M19.9998 8C18.939 8 17.9216 7.57857 17.1714 6.82843C16.4213 6.07828 15.9998 5.06087 15.9998 4C15.9998 2.93913 16.4213 1.92172 17.1714 1.17157C17.9216 0.421427 18.939 0 19.9998 0C21.0607 0 22.0781 0.421427 22.8283 1.17157C23.5784 1.92172 23.9998 2.93913 23.9998 4C23.9998 5.06087 23.5784 6.07828 22.8283 6.82843C22.0781 7.57857 21.0607 8 19.9998 8ZM21.4518 24H12.5888C12.1405 24.004 11.6991 23.8895 11.3091 23.6683C10.9191 23.4471 10.5945 23.1269 10.3678 22.74C10.1458 22.3672 10.0261 21.9423 10.021 21.5084C10.0159 21.0745 10.1256 20.6469 10.3388 20.269L14.7748 12.31C15.0033 11.9155 15.3314 11.588 15.7263 11.3604C16.1212 11.1327 16.569 11.0129 17.0248 11.0129C17.4807 11.0129 17.9285 11.1327 18.3234 11.3604C18.7183 11.588 19.0464 11.9155 19.2748 12.31L23.6998 20.263C23.9135 20.6415 24.0235 21.0697 24.0185 21.5043C24.0136 21.9389 23.894 22.3645 23.6718 22.738C23.4453 23.1249 23.1209 23.4452 22.7311 23.6668C22.3414 23.8883 21.9001 24.0033 21.4518 24ZM8.64384 23.754C8.24444 23.0817 8.02925 22.316 8.01995 21.5341C8.01065 20.7522 8.20755 19.9816 8.59084 19.3L13.0278 11.34C13.3902 10.6889 13.9079 10.1376 14.5348 9.735L12.9438 6.755C12.6573 6.22424 12.2325 5.78088 11.7145 5.47187C11.1965 5.16286 10.6045 4.99972 10.0013 4.99972C9.39816 4.99972 8.80622 5.16286 8.28821 5.47187C7.77019 5.78088 7.34541 6.22424 7.05884 6.755L0.405839 19.055C0.129943 19.5652 -0.00880904 20.1382 0.00315449 20.7181C0.015118 21.298 0.177388 21.8649 0.474091 22.3632C0.770795 22.8616 1.19177 23.2744 1.69585 23.5613C2.19992 23.8482 2.76984 23.9994 3.34984 24H8.79984C8.74484 23.92 8.69284 23.838 8.64384 23.754Z" fill="#374957"/>
</g>
<defs>
<clipPath id="clip0_806_6642">
<rect width="24" height="24" fill="white"/>
</clipPath>
</defs>
</svg>
