<svg width="24" height="24" viewBox="0 0 24 24" fill="none" xmlns="http://www.w3.org/2000/svg">
<g clip-path="url(#clip0_806_6751)">
<path d="M12 6C18.841 6 24 8.579 24 12C24 8.8174 22.7357 5.76515 20.4853 3.51472C18.2348 1.26428 15.1826 0 12 0C8.8174 0 5.76515 1.26428 3.51472 3.51472C1.26428 5.76515 0 8.8174 0 12C0 8.579 5.159 6 12 6Z" fill="#374957"/>
<path d="M12 16.0005C17.5228 16.0005 22 14.2096 22 12.0005C22 9.79135 17.5228 8.00049 12 8.00049C6.47715 8.00049 2 9.79135 2 12.0005C2 14.2096 6.47715 16.0005 12 16.0005Z" fill="#374957"/>
<path d="M12 18C5.159 18 0 15.421 0 12C0 15.1826 1.26428 18.2348 3.51472 20.4853C5.76515 22.7357 8.8174 24 12 24C15.1826 24 18.2348 22.7357 20.4853 20.4853C22.7357 18.2348 24 15.1826 24 12C24 15.421 18.841 18 12 18Z" fill="#374957"/>
</g>
<defs>
<clipPath id="clip0_806_6751">
<rect width="24" height="24" fill="white"/>
</clipPath>
</defs>
</svg>
