<svg width="24" height="24" viewBox="0 0 24 24" fill="none" xmlns="http://www.w3.org/2000/svg">
<g clip-path="url(#clip0_806_6707)">
<path d="M9.0003 23.9129C8.5513 23.9529 8.1003 23.9809 7.6693 23.9809C5.57544 24.1248 3.5074 23.4508 1.9003 22.1009C0.382304 20.5789 -0.173696 17.9099 0.0833041 15.0009L9.0003 23.9129ZM23.9453 8.53193C24.1003 5.80693 23.5353 3.33993 22.1003 1.90093C20.6653 0.461932 18.2003 -0.0990678 15.4713 0.0539322L23.9453 8.53193ZM23.6093 11.0239C23.001 14.1447 21.524 17.0304 19.3483 19.3489C17.134 21.4299 14.3952 22.869 11.4253 23.5119L0.475304 12.5619C1.126 9.59609 2.56968 6.86253 4.6523 4.65293C6.97086 2.47724 9.85652 1.00027 12.9773 0.391932L23.6093 11.0239ZM17.7093 10.2939L13.7093 6.29393C13.5207 6.11177 13.2681 6.01098 13.0059 6.01326C12.7437 6.01554 12.4929 6.12071 12.3075 6.30611C12.1221 6.49152 12.0169 6.74233 12.0146 7.00453C12.0124 7.26673 12.1131 7.51933 12.2953 7.70793L13.5863 9.00093L12.0003 10.5869L10.7073 9.29393C10.5187 9.11177 10.2661 9.01098 10.0039 9.01326C9.74171 9.01554 9.49089 9.12071 9.30549 9.30611C9.12008 9.49152 9.01491 9.74234 9.01263 10.0045C9.01035 10.2667 9.11115 10.5193 9.2933 10.7079L10.5863 12.0009L9.0003 13.5869L7.7073 12.2939C7.5187 12.1118 7.2661 12.011 7.0039 12.0133C6.74171 12.0155 6.49089 12.1207 6.30549 12.3061C6.12008 12.4915 6.01491 12.7423 6.01263 13.0045C6.01035 13.2667 6.11115 13.5193 6.2933 13.7079L10.2933 17.7079C10.4819 17.8901 10.7345 17.9909 10.9967 17.9886C11.2589 17.9863 11.5097 17.8812 11.6951 17.6958C11.8805 17.5103 11.9857 17.2595 11.988 16.9973C11.9903 16.7351 11.8895 16.4825 11.7073 16.2939L10.4143 15.0009L12.0003 13.4149L13.2933 14.7079C13.4819 14.8901 13.7345 14.9909 13.9967 14.9886C14.2589 14.9863 14.5097 14.8812 14.6951 14.6958C14.8805 14.5103 14.9857 14.2595 14.988 13.9973C14.9903 13.7351 14.8895 13.4825 14.7073 13.2939L13.4143 12.0009L15.0003 10.4149L16.2933 11.7079C16.4819 11.8901 16.7345 11.9909 16.9967 11.9886C17.2589 11.9863 17.5097 11.8812 17.6951 11.6958C17.8805 11.5103 17.9857 11.2595 17.988 10.9973C17.9903 10.7351 17.8895 10.4825 17.7073 10.2939H17.7093Z" fill="#374957"/>
</g>
<defs>
<clipPath id="clip0_806_6707">
<rect width="24" height="24" fill="white"/>
</clipPath>
</defs>
</svg>
