<svg width="24" height="24" viewBox="0 0 24 24" fill="none" xmlns="http://www.w3.org/2000/svg">
<g clip-path="url(#clip0_806_6375)">
<path d="M18.4268 4.91095L14.5078 0.991951C13.8412 0.355121 12.9548 -0.000244141 12.0328 -0.000244141C11.1109 -0.000244141 10.2245 0.355121 9.55784 0.991951L5.63884 4.91095C5.3656 5.19385 5.21441 5.57275 5.21783 5.96605C5.22125 6.35934 5.379 6.73556 5.65711 7.01367C5.93523 7.29178 6.31144 7.44954 6.70474 7.45295C7.09803 7.45637 7.47694 7.30518 7.75984 7.03194L10.5398 4.25195L10.5628 22.5019C10.5628 22.8997 10.7209 23.2813 11.0022 23.5626C11.2835 23.8439 11.665 24.0019 12.0628 24.0019C12.4607 24.0019 12.8422 23.8439 13.1235 23.5626C13.4048 23.2813 13.5628 22.8997 13.5628 22.5019L13.5398 4.26595L16.3058 7.03194C16.4442 7.17521 16.6097 7.28948 16.7927 7.3681C16.9757 7.44671 17.1726 7.48809 17.3717 7.48982C17.5709 7.49155 17.7684 7.4536 17.9528 7.37818C18.1371 7.30275 18.3046 7.19138 18.4454 7.05054C18.5863 6.9097 18.6977 6.74222 18.7731 6.55788C18.8485 6.37353 18.8864 6.17601 18.8847 5.97684C18.883 5.77767 18.8416 5.58084 18.763 5.39784C18.6844 5.21483 18.5701 5.04932 18.4268 4.91095Z" fill="#374957"/>
</g>
<defs>
<clipPath id="clip0_806_6375">
<rect width="24" height="24" fill="white"/>
</clipPath>
</defs>
</svg>
