<svg width="24" height="24" viewBox="0 0 24 24" fill="none" xmlns="http://www.w3.org/2000/svg">
<path d="M18.9997 10.4999H10.2067L12.6457 8.06088C12.9271 7.77962 13.0852 7.39809 13.0853 7.00024C13.0854 6.60238 12.9275 6.22078 12.6462 5.93938C12.365 5.65799 11.9834 5.49985 11.5856 5.49976C11.1877 5.49966 10.8061 5.65762 10.5247 5.93888L6.93871 9.52488C6.28348 10.1819 5.91553 11.072 5.91553 11.9999C5.91553 12.9278 6.28348 13.8178 6.93871 14.4749L10.5247 18.0609C10.8061 18.3421 11.1877 18.5001 11.5856 18.5C11.9834 18.4999 12.365 18.3418 12.6462 18.0604C12.9275 17.779 13.0854 17.3974 13.0853 16.9995C13.0852 16.6017 12.9271 16.2201 12.6457 15.9389L10.2067 13.4999H18.9997C19.3975 13.4999 19.7791 13.3418 20.0604 13.0605C20.3417 12.7792 20.4997 12.3977 20.4997 11.9999C20.4997 11.6021 20.3417 11.2205 20.0604 10.9392C19.7791 10.6579 19.3975 10.4999 18.9997 10.4999Z" fill="#374957"/>
</svg>
