<svg width="24" height="24" viewBox="0 0 24 24" fill="none" xmlns="http://www.w3.org/2000/svg">
<path d="M19.7879 3.28065C15.5415 -1.03874 8.5976 -1.09799 4.27821 3.14837C-0.0411808 7.39473 -0.10043 14.3387 4.14593 18.658C4.19871 18.7117 4.25205 18.7649 4.30591 18.8175L8.23723 22.4497C10.339 24.5057 13.6957 24.5141 15.8077 22.4686L19.7879 18.7906C24.0707 14.5075 24.0707 7.56367 19.7879 3.28065ZM16.0211 12.0326H8.04481C7.49416 12.0326 7.04777 11.5862 7.04777 11.0356C7.04777 10.485 7.49416 10.0386 8.04481 10.0386H16.0211C16.5717 10.0386 17.0181 10.485 17.0181 11.0356C17.0181 11.5862 16.5717 12.0326 16.0211 12.0326Z" fill="#374957"/>
</svg>
