<svg width="24" height="24" viewBox="0 0 24 24" fill="none" xmlns="http://www.w3.org/2000/svg">
<g clip-path="url(#clip0_806_6484)">
<path d="M19.9998 0.000258033H18.2428C17.7171 -0.00113153 17.1965 0.101737 16.7109 0.30291C16.2253 0.504083 15.7844 0.799566 15.4138 1.17226L12.1718 4.41426C11.4236 5.16559 11.0024 6.18196 10.9998 7.24226V10.9903C8.14478 12.9763 3.49078 16.2663 2.87878 16.8793C2.44368 17.3173 2.15468 17.8791 2.05138 18.4878C1.94808 19.0965 2.03554 19.7222 2.30178 20.2793L0.292786 22.2933C0.105315 22.4808 0 22.7351 0 23.0003C0 23.2654 0.105315 23.5197 0.292786 23.7073C0.480314 23.8947 0.734621 24 0.999785 24C1.26495 24 1.51926 23.8947 1.70678 23.7073L3.71378 21.7003C4.27093 21.972 4.89923 22.0623 5.51036 21.9584C6.12148 21.8546 6.68468 21.5618 7.12078 21.1213C7.73378 20.5093 11.0208 15.8553 13.0098 13.0003H16.7568C17.2824 13.0016 17.8031 12.8988 18.2887 12.6976C18.7742 12.4964 19.2151 12.201 19.5858 11.8283L22.8278 8.58626C23.5759 7.83493 23.9971 6.81856 23.9998 5.75826V4.00026C23.9998 2.93939 23.5783 1.92198 22.8282 1.17183C22.078 0.421686 21.0606 0.000258033 19.9998 0.000258033ZM19.7068 5.70726L14.7068 10.7073C14.5182 10.8894 14.2656 10.9902 14.0034 10.9879C13.7412 10.9857 13.4904 10.8805 13.305 10.6951C13.1195 10.5097 13.0144 10.2589 13.0121 9.99666C13.0098 9.73446 13.1106 9.48186 13.2928 9.29326L18.2928 4.29326C18.385 4.19775 18.4954 4.12157 18.6174 4.06916C18.7394 4.01675 18.8706 3.98916 19.0034 3.98801C19.1361 3.98685 19.2678 4.01216 19.3907 4.06244C19.5136 4.11272 19.6253 4.18697 19.7192 4.28086C19.813 4.37476 19.8873 4.48641 19.9376 4.6093C19.9879 4.7322 20.0132 4.86388 20.012 4.99666C20.0109 5.12944 19.9833 5.26066 19.9309 5.38266C19.8785 5.50467 19.8023 5.61501 19.7068 5.70726Z" fill="#374957"/>
</g>
<defs>
<clipPath id="clip0_806_6484">
<rect width="24" height="24" fill="white"/>
</clipPath>
</defs>
</svg>
