<svg width="24" height="24" viewBox="0 0 24 24" fill="none" xmlns="http://www.w3.org/2000/svg">
<g clip-path="url(#clip0_806_6661)">
<path d="M22.9998 10.9996C22.7346 10.9996 22.4802 10.8942 22.2927 10.7067C22.1052 10.5191 21.9998 10.2648 21.9998 9.99956C21.9977 7.87848 21.1542 5.84488 19.6543 4.34505C18.1545 2.84522 16.1209 2.00168 13.9998 1.99956C13.7346 1.99956 13.4802 1.89421 13.2927 1.70667C13.1052 1.51913 12.9998 1.26478 12.9998 0.999563C12.9998 0.734346 13.1052 0.479992 13.2927 0.292456C13.4802 0.104919 13.7346 -0.0004376 13.9998 -0.0004376C16.6511 0.002474 19.1929 1.05698 21.0677 2.93171C22.9424 4.80644 23.9969 7.34829 23.9998 9.99956C23.9998 10.2648 23.8945 10.5191 23.7069 10.7067C23.5194 10.8942 23.265 10.9996 22.9998 10.9996ZM19.9998 9.99956C19.9998 8.40826 19.3677 6.88214 18.2424 5.75692C17.1172 4.6317 15.5911 3.99956 13.9998 3.99956C13.7346 3.99956 13.4802 4.10492 13.2927 4.29246C13.1052 4.47999 12.9998 4.73435 12.9998 4.99956C12.9998 5.26478 13.1052 5.51913 13.2927 5.70667C13.4802 5.89421 13.7346 5.99956 13.9998 5.99956C15.0607 5.99956 16.0781 6.42099 16.8282 7.17114C17.5784 7.92128 17.9998 8.9387 17.9998 9.99956C17.9998 10.2648 18.1052 10.5191 18.2927 10.7067C18.4802 10.8942 18.7346 10.9996 18.9998 10.9996C19.265 10.9996 19.5194 10.8942 19.7069 10.7067C19.8945 10.5191 19.9998 10.2648 19.9998 9.99956ZM22.1828 22.1636L23.0928 21.1146C23.672 20.5335 23.9973 19.7465 23.9973 18.9261C23.9973 18.1056 23.672 17.3186 23.0928 16.7376C23.0618 16.7066 20.6558 14.8556 20.6558 14.8556C20.0784 14.3059 19.3113 13.9998 18.5141 14.0009C17.7169 14.0021 16.9507 14.3103 16.3748 14.8616L14.4688 16.4676C12.913 15.8237 11.4997 14.8787 10.3101 13.6871C9.12049 12.4954 8.17802 11.0805 7.53681 9.52356L9.13681 7.62356C9.68852 7.04774 9.9971 6.28144 9.99841 5.48397C9.99971 4.68649 9.69364 3.91919 9.14381 3.34156C9.14381 3.34156 7.29081 0.938563 7.25981 0.907562C6.68926 0.333311 5.91569 0.00658442 5.10623 -0.00202282C4.29678 -0.01063 3.51644 0.299573 2.93381 0.861562L1.78381 1.86156C-5.01019 9.74356 9.61981 24.2606 17.7618 23.9996C18.584 24.0043 19.3988 23.8443 20.1581 23.529C20.9174 23.2136 21.6059 22.7494 22.1828 22.1636Z" fill="#374957"/>
</g>
<defs>
<clipPath id="clip0_806_6661">
<rect width="24" height="24" fill="white"/>
</clipPath>
</defs>
</svg>
