<svg width="24" height="24" viewBox="0 0 24 24" fill="none" xmlns="http://www.w3.org/2000/svg">
<path d="M22.101 5.03355C21.2053 3.4413 19.6131 2.54565 17.8217 2.54565H5.97929C4.188 2.54565 2.59571 3.4413 1.70007 5.03355C0.605395 7.02386 0.00830078 9.21325 0.00830078 11.5021C0.00830078 16.9755 2.19764 21.4538 4.98413 21.4538C6.47686 21.4538 7.6711 20.0605 8.56674 17.1745C8.66625 16.7765 9.06432 16.4779 9.5619 16.4779H14.4382C14.8363 16.4779 15.2343 16.7765 15.4334 17.1745C16.329 20.0605 17.5232 21.4538 19.016 21.4538C21.8025 21.4538 23.9918 16.9755 23.9918 11.5021C23.7928 9.2132 23.1957 7.02386 22.101 5.03355ZM8.9648 10.507H7.96965V11.5021C7.96965 12.0992 7.57158 12.4973 6.97449 12.4973C6.3774 12.4973 5.97933 12.0992 5.97933 11.5021V10.507H4.98418C4.38708 10.507 3.98902 10.1089 3.98902 9.5118C3.98902 8.9147 4.38708 8.51664 4.98418 8.51664H5.97933V7.52148C5.97933 6.92439 6.3774 6.52633 6.97449 6.52633C7.57158 6.52633 7.96965 6.92439 7.96965 7.52148V8.51664H8.9648C9.5619 8.51664 9.95996 8.9147 9.95996 9.5118C9.95996 10.1089 9.5619 10.507 8.9648 10.507ZM15.5329 12.4973C14.7368 12.4973 14.0401 11.8007 14.0401 11.0045C14.0401 10.2084 14.7368 9.5118 15.5329 9.5118C16.329 9.5118 17.0256 10.2084 17.0256 11.0045C17.0256 11.8007 16.2295 12.4973 15.5329 12.4973ZM18.4189 9.5118C17.7223 9.5118 16.9261 8.81519 16.9261 8.01906C16.9261 7.22294 17.7223 6.52633 18.4189 6.52633C19.1155 6.52633 19.9116 7.22294 19.9116 8.01906C19.9116 8.81519 19.215 9.5118 18.4189 9.5118Z" fill="#374957"/>
</svg>
