<svg width="24" height="24" viewBox="0 0 24 24" fill="none" xmlns="http://www.w3.org/2000/svg">
<g clip-path="url(#clip0_806_6696)">
<path d="M23 13.0005H1C0.734784 13.0005 0.48043 12.8951 0.292893 12.7076C0.105357 12.5201 0 12.2657 0 12.0005C0 11.7353 0.105357 11.4809 0.292893 11.2934C0.48043 11.1058 0.734784 11.0005 1 11.0005H23C23.2652 11.0005 23.5196 11.1058 23.7071 11.2934C23.8946 11.4809 24 11.7353 24 12.0005C24 12.2657 23.8946 12.5201 23.7071 12.7076C23.5196 12.8951 23.2652 13.0005 23 13.0005ZM18.934 7.12649C19.0597 6.59317 19.0012 6.03302 18.7681 5.53716C18.5349 5.04131 18.1409 4.63893 17.65 4.39549L9.668 0.428489C9.16973 0.14552 8.60635 -0.00282597 8.03334 -0.00194926C7.46032 -0.00107255 6.89741 0.148997 6.4 0.433489C5.96664 0.684653 5.60832 1.04712 5.36216 1.48335C5.116 1.91957 4.99096 2.41369 5 2.91449V6.00049C5 6.79614 5.31607 7.5592 5.87868 8.12181C6.44129 8.68442 7.20435 9.00049 8 9.00049H16.318C16.9035 9.03862 17.484 8.87275 17.961 8.53108C18.4379 8.18942 18.7817 7.69308 18.934 7.12649ZM9.628 23.5925L17.661 19.6005C18.1491 19.3558 18.5403 18.9535 18.7713 18.4588C19.0024 17.964 19.0597 17.4058 18.934 16.8745C18.7817 16.3079 18.4379 15.8116 17.961 15.4699C17.484 15.1282 16.9035 14.9624 16.318 15.0005H8C7.20435 15.0005 6.44129 15.3166 5.87868 15.8792C5.31607 16.4418 5 17.2048 5 18.0005V21.0855C4.99086 21.5863 5.11585 22.0805 5.36202 22.5167C5.60819 22.953 5.96657 23.3154 6.4 23.5665C6.89555 23.8541 7.45903 24.004 8.032 24.0005C8.59001 24.0022 9.13926 23.8618 9.628 23.5925Z" fill="#374957"/>
</g>
<defs>
<clipPath id="clip0_806_6696">
<rect width="24" height="24" fill="white"/>
</clipPath>
</defs>
</svg>
