<svg width="24" height="24" viewBox="0 0 24 24" fill="none" xmlns="http://www.w3.org/2000/svg">
<g clip-path="url(#clip0_806_6810)">
<path d="M23.717 9.549C22.768 7.45173 21.2724 5.64831 19.3868 4.32773C17.5013 3.00714 15.2953 2.218 13 2.043V1C13 0.734784 12.8946 0.48043 12.7071 0.292893C12.5196 0.105357 12.2652 0 12 0C11.7348 0 11.4804 0.105357 11.2929 0.292893C11.1053 0.48043 11 0.734784 11 1V2.043C8.70213 2.21616 6.49319 3.00439 4.60478 4.32502C2.71637 5.64566 1.21808 7.45005 0.266991 9.549C0.0279387 10.149 -0.0601475 10.7985 0.0104679 11.4405C0.0810832 12.0825 0.30824 12.6973 0.671991 13.231C1.03959 13.7757 1.53527 14.2218 2.11552 14.5303C2.69577 14.8387 3.34286 15 3.99999 15H11V21C11 21.2652 10.8946 21.5196 10.7071 21.7071C10.5196 21.8946 10.2652 22 9.99999 22C9.73477 22 9.48042 21.8946 9.29288 21.7071C9.10535 21.5196 8.99999 21.2652 8.99999 21C8.99999 20.7348 8.89463 20.4804 8.7071 20.2929C8.51956 20.1054 8.26521 20 7.99999 20C7.73478 20 7.48042 20.1054 7.29288 20.2929C7.10535 20.4804 6.99999 20.7348 6.99999 21C6.99999 21.7956 7.31606 22.5587 7.87867 23.1213C8.44128 23.6839 9.20434 24 9.99999 24C10.7956 24 11.5587 23.6839 12.1213 23.1213C12.6839 22.5587 13 21.7956 13 21V15H19.983C20.6403 15 21.2875 14.8387 21.8679 14.5303C22.4483 14.2218 22.9442 13.7757 23.312 13.231C23.6755 12.6972 23.9025 12.0824 23.9731 11.4404C24.0437 10.7985 23.9558 10.149 23.717 9.549Z" fill="#374957"/>
</g>
<defs>
<clipPath id="clip0_806_6810">
<rect width="24" height="24" fill="white"/>
</clipPath>
</defs>
</svg>
