<svg width="24" height="24" viewBox="0 0 24 24" fill="none" xmlns="http://www.w3.org/2000/svg">
<g clip-path="url(#clip0_806_6683)">
<path d="M20.0357 24.0003H3.96371C3.2879 24.0018 2.62295 23.8302 2.03233 23.5018C1.4417 23.1733 0.945087 22.699 0.589876 22.124C0.234666 21.5491 0.0327064 20.8927 0.00326665 20.2176C-0.0261731 19.5424 0.117889 18.8709 0.421708 18.2673L8.45871 2.18927C8.76509 1.56982 9.22932 1.04206 9.80463 0.659168C10.3799 0.276273 11.046 0.0517687 11.7357 0.00827471C12.5139 -0.041249 13.2895 0.139092 13.966 0.526869C14.6425 0.914645 15.1901 1.49275 15.5407 2.18927L23.5777 18.2673C23.8798 18.8711 24.0224 19.5422 23.9922 20.2167C23.962 20.8912 23.7598 21.5468 23.4049 22.1212C23.05 22.6956 22.5542 23.1697 21.9645 23.4986C21.3749 23.8275 20.7109 24.0002 20.0357 24.0003Z" fill="#374957"/>
</g>
<defs>
<clipPath id="clip0_806_6683">
<rect width="24" height="24" fill="white"/>
</clipPath>
</defs>
</svg>
