<svg width="24" height="24" viewBox="0 0 24 24" fill="none" xmlns="http://www.w3.org/2000/svg">
<g clip-path="url(#clip0_806_6664)">
<path d="M23.7068 1.71083L1.70685 23.7108C1.61374 23.8037 1.50326 23.8773 1.38171 23.9274C1.26016 23.9776 1.12992 24.0033 0.998431 24.0031C0.732879 24.0027 0.478353 23.8969 0.290845 23.7088C0.103337 23.5208 -0.0017933 23.266 -0.00141822 23.0004C-0.00104315 22.7349 0.104806 22.4803 0.292845 22.2928L5.33584 17.2518C1.14684 12.5938 -2.23616 6.31683 1.78385 1.86783L2.93385 0.86783C3.51596 0.305205 4.29613 -0.005697 5.10566 0.00234966C5.91519 0.0103963 6.68903 0.336745 7.25985 0.91083C7.29085 0.94083 9.14384 3.34783 9.14384 3.34783C9.69338 3.92541 9.99927 4.6925 9.99797 5.48973C9.99666 6.28697 9.68827 7.05305 9.13684 7.62883L7.53685 9.52883C8.07635 10.7594 8.78777 11.9072 9.64984 12.9378L22.2928 0.29983C22.4829 0.127265 22.732 0.0343904 22.9886 0.0404347C23.2453 0.046479 23.4897 0.15098 23.6714 0.3323C23.8532 0.513621 23.9582 0.757874 23.9648 1.01449C23.9714 1.2711 23.879 1.52042 23.7068 1.71083ZM20.6558 14.8578C20.0784 14.3082 19.3114 14.0021 18.5141 14.0032C17.7169 14.0043 16.9508 14.3125 16.3748 14.8638L14.4688 16.4698C14.0688 16.2998 13.6838 16.1108 13.3118 15.9078C13.1248 15.8083 12.9107 15.7719 12.7013 15.804C12.4919 15.8361 12.2985 15.9349 12.1498 16.0858L9.08884 19.1468C8.98682 19.2477 8.90768 19.3693 8.8568 19.5034C8.80593 19.6375 8.78451 19.781 8.79399 19.9242C8.80348 20.0673 8.84365 20.2067 8.91178 20.333C8.97991 20.4592 9.0744 20.5693 9.18884 20.6558C13.5968 23.6318 18.2998 25.6978 22.1788 22.1658L23.0888 21.1178C23.6681 20.5368 23.9933 19.7498 23.9933 18.9293C23.9933 18.1089 23.6681 17.3219 23.0888 16.7408C23.0618 16.7088 20.6558 14.8578 20.6558 14.8578Z" fill="#374957"/>
</g>
<defs>
<clipPath id="clip0_806_6664">
<rect width="24" height="24" fill="white"/>
</clipPath>
</defs>
</svg>
