<svg width="24" height="24" viewBox="0 0 24 24" fill="none" xmlns="http://www.w3.org/2000/svg">
<g clip-path="url(#clip0_806_6434)">
<path d="M22.2928 12.7001L21.2068 13.7861L17.6218 10.2001C17.0502 9.65488 16.2907 9.35072 15.5008 9.35072C14.7109 9.35072 13.9513 9.65488 13.3798 10.2001L13.2068 10.3731C13.0164 10.5551 12.7632 10.6567 12.4998 10.6567C12.2364 10.6567 11.9831 10.5551 11.7928 10.3731L6.71978 5.29406C6.62753 5.19855 6.51718 5.12237 6.39518 5.06996C6.27318 5.01755 6.14196 4.98996 6.00918 4.98881C5.8764 4.98765 5.74472 5.01296 5.62182 5.06324C5.49893 5.11352 5.38727 5.18777 5.29338 5.28166C5.19949 5.37556 5.12524 5.48721 5.07495 5.6101C5.02467 5.733 4.99937 5.86468 5.00053 5.99746C5.00168 6.13024 5.02927 6.26146 5.08168 6.38346C5.13408 6.50547 5.21027 6.61581 5.30578 6.70806L10.3778 11.7811C10.9492 12.3265 11.7088 12.6308 12.4988 12.6308C13.2887 12.6308 14.0483 12.3265 14.6198 11.7811L14.7928 11.6081C14.9831 11.426 15.2364 11.3244 15.4998 11.3244C15.7632 11.3244 16.0164 11.426 16.2068 11.6081L19.7928 15.2001L18.7068 16.2861C18.567 16.4259 18.4718 16.6041 18.4332 16.798C18.3946 16.992 18.4144 17.193 18.4901 17.3757C18.5658 17.5584 18.6939 17.7146 18.8583 17.8245C19.0227 17.9343 19.216 17.993 19.4138 17.9931H22.4998C22.8976 17.9931 23.2791 17.835 23.5604 17.5537C23.8417 17.2724 23.9998 16.8909 23.9998 16.4931V13.4001C23.9984 13.2029 23.9387 13.0106 23.8283 12.8472C23.7179 12.6839 23.5616 12.5568 23.3792 12.482C23.1968 12.4072 22.9963 12.388 22.803 12.4268C22.6097 12.4656 22.4322 12.5607 22.2928 12.7001Z" fill="#374957"/>
<path d="M23 21.976H5C4.20435 21.976 3.44129 21.6599 2.87868 21.0973C2.31607 20.5347 2 19.7716 2 18.976V1C2 0.734784 1.89464 0.48043 1.70711 0.292893C1.51957 0.105357 1.26522 0 1 0C0.734784 0 0.48043 0.105357 0.292893 0.292893C0.105357 0.48043 0 0.734784 0 1L0 18.976C0.00158786 20.3016 0.528882 21.5724 1.46622 22.5098C2.40356 23.4471 3.67441 23.9744 5 23.976H23C23.2652 23.976 23.5196 23.8706 23.7071 23.6831C23.8946 23.4956 24 23.2412 24 22.976C24 22.7108 23.8946 22.4564 23.7071 22.2689C23.5196 22.0814 23.2652 21.976 23 21.976Z" fill="#374957"/>
</g>
<defs>
<clipPath id="clip0_806_6434">
<rect width="24" height="24" fill="white"/>
</clipPath>
</defs>
</svg>
