<svg width="24" height="24" viewBox="0 0 24 24" fill="none" xmlns="http://www.w3.org/2000/svg">
<g clip-path="url(#clip0_806_6552)">
<path d="M16.5851 9.61593L15.2101 5.99993H17.6321C18.553 6.00215 19.4605 6.22045 20.2817 6.63729C21.1029 7.05412 21.8148 7.65786 22.3601 8.39993L23.1471 9.47493C23.4825 9.93248 23.7269 10.4502 23.8671 10.9999H16.9521C16.8811 10.5265 16.758 10.0623 16.5851 9.61593ZM12.0001 3.99993C12.2653 3.99993 12.5197 3.89457 12.7072 3.70704C12.8947 3.5195 13.0001 3.26515 13.0001 2.99993V0.99993C13.0001 0.734713 12.8947 0.480359 12.7072 0.292823C12.5197 0.105286 12.2653 -7.04907e-05 12.0001 -7.04907e-05C11.7349 -7.04907e-05 11.4805 0.105286 11.293 0.292823C11.1055 0.480359 11.0001 0.734713 11.0001 0.99993V2.99993C11.0001 3.26515 11.1055 3.5195 11.293 3.70704C11.4805 3.89457 11.7349 3.99993 12.0001 3.99993ZM14.7221 10.3429L13.0711 5.99993H10.9381L9.26009 10.4519C9.19573 10.6312 9.1423 10.8142 9.10009 10.9999H14.9211C14.8711 10.7763 14.8046 10.5567 14.7221 10.3429ZM16.5531 3.89993C16.6712 3.95929 16.7998 3.99466 16.9316 4.004C17.0634 4.01334 17.1958 3.99646 17.3211 3.95434C17.4463 3.91222 17.562 3.84568 17.6614 3.75859C17.7608 3.6715 17.8419 3.56557 17.9001 3.44693L18.9001 1.44693C19.0186 1.20956 19.038 0.934819 18.954 0.683146C18.87 0.431472 18.6895 0.223481 18.4521 0.10493C18.2147 -0.0136223 17.94 -0.0330241 17.6883 0.0509922C17.4366 0.135009 17.2286 0.315561 17.1101 0.552929L16.1101 2.55293C16.0504 2.67039 16.0145 2.7985 16.0044 2.92989C15.9944 3.06127 16.0104 3.19335 16.0516 3.31852C16.0927 3.4437 16.1582 3.5595 16.2443 3.65928C16.3304 3.75906 16.4353 3.84084 16.5531 3.89993ZM11.9881 18.8869L14.7741 13.6339C14.8448 13.4268 14.9006 13.215 14.9411 12.9999H9.00009C9.04505 13.2575 9.11196 13.5108 9.20009 13.7569L11.9881 18.8869ZM7.40009 9.72893L8.80009 5.99993H6.38309C5.48112 6.00228 4.59172 6.21169 3.78345 6.61202C2.97517 7.01234 2.2696 7.59289 1.72109 8.30893L0.900094 9.38293C0.538358 9.86386 0.27995 10.4144 0.141094 10.9999H7.04109C7.11796 10.5653 7.23823 10.1395 7.40009 9.72893ZM16.9691 12.9999C16.9061 13.4778 16.7907 13.9473 16.6251 14.3999C16.6101 14.4399 12.8691 21.4739 12.8661 21.4749C12.7846 21.6332 12.6613 21.766 12.5096 21.8591C12.3578 21.9521 12.1835 22.0017 12.0055 22.0025C11.8275 22.0034 11.6527 21.9554 11.5002 21.8637C11.3476 21.7721 11.223 21.6404 11.1401 21.4829C11.1401 21.4829 7.36609 14.5709 7.35009 14.5279C7.17097 14.0346 7.05145 13.5216 6.99409 12.9999H0.121094C0.306032 13.8947 0.771184 14.7073 1.44909 15.3199L9.43909 23.0269C10.1409 23.6528 11.0488 23.9978 11.9891 23.9959C12.9493 23.994 13.8751 23.638 14.5891 22.9959L22.5251 15.3629C23.2205 14.741 23.6988 13.913 23.8901 12.9999H16.9691ZM6.10509 3.44693C6.22365 3.68496 6.4319 3.86615 6.68404 3.95063C6.93618 4.03512 7.21156 4.01598 7.44959 3.89743C7.68763 3.77888 7.86881 3.57062 7.9533 3.31848C8.03778 3.06634 8.01865 2.79096 7.90009 2.55293L6.90009 0.552929C6.84139 0.435396 6.76012 0.330576 6.66091 0.244454C6.5617 0.158331 6.44649 0.0925929 6.32188 0.0509922C6.0702 -0.0330241 5.79546 -0.0136223 5.55809 0.10493C5.32073 0.223481 5.14017 0.431472 5.05616 0.683146C4.97214 0.934819 4.99154 1.20956 5.11009 1.44693L6.10509 3.44693Z" fill="#374957"/>
</g>
<defs>
<clipPath id="clip0_806_6552">
<rect width="24" height="24" fill="white"/>
</clipPath>
</defs>
</svg>
