<svg width="24" height="24" viewBox="0 0 24 24" fill="none" xmlns="http://www.w3.org/2000/svg">
<g clip-path="url(#clip0_806_6584)">
<path d="M1 6.00024H23C23.2652 6.00024 23.5196 5.89488 23.7071 5.70735C23.8946 5.51981 24 5.26546 24 5.00024C24 4.73503 23.8946 4.48067 23.7071 4.29314C23.5196 4.1056 23.2652 4.00024 23 4.00024H1C0.734784 4.00024 0.48043 4.1056 0.292893 4.29314C0.105357 4.48067 0 4.73503 0 5.00024C0 5.26546 0.105357 5.51981 0.292893 5.70735C0.48043 5.89488 0.734784 6.00024 1 6.00024Z" fill="#374957"/>
<path d="M23 9H9C8.73478 9 8.48043 9.10536 8.29289 9.29289C8.10536 9.48043 8 9.73478 8 10C8 10.2652 8.10536 10.5196 8.29289 10.7071C8.48043 10.8946 8.73478 11 9 11H23C23.2652 11 23.5195 10.8946 23.7071 10.7071C23.8946 10.5196 24 10.2652 24 10C24 9.73478 23.8946 9.48043 23.7071 9.29289C23.5195 9.10536 23.2652 9 23 9Z" fill="#374957"/>
<path d="M23 19.0002H1C0.734784 19.0002 0.48043 19.1056 0.292893 19.2931C0.105357 19.4807 0 19.735 0 20.0002C0 20.2655 0.105357 20.5198 0.292893 20.7074C0.48043 20.8949 0.734784 21.0003 1 21.0003H23C23.2652 21.0003 23.5196 20.8949 23.7071 20.7074C23.8946 20.5198 24 20.2655 24 20.0002C24 19.735 23.8946 19.4807 23.7071 19.2931C23.5196 19.1056 23.2652 19.0002 23 19.0002Z" fill="#374957"/>
<path d="M23 13.9998H9C8.73478 13.9998 8.48043 14.1051 8.29289 14.2927C8.10536 14.4802 8 14.7345 8 14.9998C8 15.265 8.10536 15.5193 8.29289 15.7069C8.48043 15.8944 8.73478 15.9998 9 15.9998H23C23.2652 15.9998 23.5195 15.8944 23.7071 15.7069C23.8946 15.5193 24 15.265 24 14.9998C24 14.7345 23.8946 14.4802 23.7071 14.2927C23.5195 14.1051 23.2652 13.9998 23 13.9998Z" fill="#374957"/>
<path d="M1.707 16.2449L4.681 13.2709C4.88508 13.0663 4.99968 12.789 4.99968 12.4999C4.99968 12.2109 4.88508 11.9336 4.681 11.7289L1.707 8.75495C1.56709 8.61508 1.38883 8.51985 1.19479 8.48131C1.00074 8.44278 0.799624 8.46266 0.616884 8.53846C0.434143 8.61425 0.27799 8.74255 0.168182 8.90711C0.0583736 9.07167 -0.00015534 9.26511 3.09641e-07 9.46295V15.5369C-0.00015534 15.7348 0.0583736 15.9282 0.168182 16.0928C0.27799 16.2573 0.434143 16.3856 0.616884 16.4614C0.799624 16.5372 1.00074 16.5571 1.19479 16.5186C1.38883 16.48 1.56709 16.3848 1.707 16.2449Z" fill="#374957"/>
</g>
<defs>
<clipPath id="clip0_806_6584">
<rect width="24" height="24" fill="white"/>
</clipPath>
</defs>
</svg>
