<svg width="24" height="24" viewBox="0 0 24 24" fill="none" xmlns="http://www.w3.org/2000/svg">
<g clip-path="url(#clip0_806_6700)">
<path d="M10.4203 20.656C9.61663 20.6553 8.83424 20.3977 8.18728 19.921L1.54628 15.051C1.06757 14.6995 0.678326 14.2402 0.410039 13.7103C0.141751 13.1805 0.00195313 12.5949 0.00195312 12.001C0.00195313 11.4071 0.141751 10.8215 0.410039 10.2917C0.678326 9.76179 1.06757 9.30252 1.54628 8.951L8.18728 4.081C8.73195 3.68075 9.37392 3.43374 10.0464 3.36567C10.7189 3.2976 11.3973 3.41095 12.0112 3.69392C12.625 3.9769 13.1518 4.41918 13.5368 4.97475C13.9218 5.53031 14.1509 6.17888 14.2003 6.853L17.9823 4.079C18.5461 3.66655 19.2132 3.41825 19.9095 3.36161C20.6058 3.30498 21.3042 3.44221 21.9273 3.75812C22.5505 4.07403 23.074 4.55627 23.4398 5.15141C23.8057 5.74656 23.9997 6.43138 24.0003 7.13V16.87C24.0001 17.5691 23.8062 18.2545 23.4402 18.8502C23.0742 19.4458 22.5503 19.9284 21.9267 20.2444C21.303 20.5604 20.6041 20.6975 19.9073 20.6404C19.2105 20.5833 18.5431 20.3343 17.9793 19.921L14.2003 17.147C14.1294 18.1005 13.7008 18.9919 13.0003 19.6426C12.2999 20.2934 11.3794 20.6553 10.4233 20.656H10.4203Z" fill="#374957"/>
</g>
<defs>
<clipPath id="clip0_806_6700">
<rect width="24" height="24" fill="white"/>
</clipPath>
</defs>
</svg>
