<svg width="24" height="24" viewBox="0 0 24 24" fill="none" xmlns="http://www.w3.org/2000/svg">
<g clip-path="url(#clip0_806_6385)">
<path d="M24 11.9999C24.0012 14.8653 22.9719 17.6355 21.1 19.8049C19.5887 18.7573 18.4135 17.2939 17.717 15.5919L19.375 14.9289C19.497 14.8802 19.6082 14.8079 19.7023 14.7162C19.7964 14.6245 19.8714 14.5152 19.9233 14.3945C19.9751 14.2738 20.0026 14.144 20.0043 14.0127C20.006 13.8813 19.9817 13.7509 19.933 13.6289C19.8843 13.5069 19.812 13.3957 19.7203 13.3017C19.6286 13.2076 19.5193 13.1325 19.3986 13.0807C19.2779 13.0289 19.1481 13.0013 19.0168 12.9997C18.8854 12.998 18.755 13.0222 18.633 13.0709L17.167 13.6579C17.0625 13.1113 17.0066 12.5564 17 11.9999C17.0053 11.4435 17.0598 10.8887 17.163 10.3419L18.629 10.9289C18.8754 11.0273 19.1508 11.0238 19.3946 10.9192C19.6384 10.8145 19.8306 10.6173 19.929 10.3709C20.0274 10.1245 20.0239 9.84916 19.9193 9.60536C19.8146 9.36157 19.6174 9.16932 19.371 9.07093L17.713 8.40793C18.4115 6.70731 19.5879 5.24564 21.1 4.19993C22.9708 6.36804 24 9.13629 24 11.9999ZM15.857 16.3339L14.371 16.9289C14.249 16.9777 14.1186 17.0019 13.9873 17.0002C13.8559 16.9985 13.7262 16.971 13.6055 16.9192C13.4847 16.8674 13.3754 16.7923 13.2837 16.6982C13.192 16.6041 13.1197 16.4929 13.071 16.3709C13.0223 16.2489 12.9981 16.1185 12.9998 15.9872C13.0014 15.8558 13.029 15.7261 13.0808 15.6054C13.1326 15.4846 13.2077 15.3753 13.3017 15.2836C13.3958 15.1919 13.507 15.1197 13.629 15.0709L15.273 14.4139C15.0974 13.6211 15.0059 12.812 15 11.9999C15.0059 11.1879 15.0974 10.3788 15.273 9.58593L13.629 8.92893C13.507 8.88021 13.3958 8.80794 13.3017 8.71624C13.2077 8.62454 13.1326 8.51521 13.0808 8.3945C13.029 8.27378 13.0014 8.14404 12.9998 8.01268C12.9981 7.88133 13.0223 7.75093 13.071 7.62893C13.1197 7.50693 13.192 7.39572 13.2837 7.30166C13.3754 7.20759 13.4847 7.13251 13.6055 7.08069C13.7262 7.02888 13.8559 7.00134 13.9873 6.99967C14.1186 6.99799 14.249 7.02221 14.371 7.07093L15.857 7.67093C16.6536 5.72263 17.971 4.03118 19.665 2.78193C17.5173 0.989704 14.8096 0.00628886 12.0123 0.00245267C9.21501 -0.00138352 6.50469 0.974601 4.35202 2.76093C6.04186 4.01714 7.35594 5.7116 8.15202 7.66093L9.63302 7.06793C9.75502 7.01921 9.88542 6.99499 10.0168 6.99667C10.1481 6.99834 10.2779 7.02588 10.3986 7.07769C10.5193 7.12951 10.6286 7.20459 10.7203 7.29866C10.812 7.39272 10.8843 7.50393 10.933 7.62593C10.9817 7.74793 11.006 7.87833 11.0043 8.00968C11.0026 8.14104 10.9751 8.27078 10.9233 8.39149C10.8714 8.51221 10.7964 8.62154 10.7023 8.71324C10.6082 8.80494 10.497 8.87721 10.375 8.92593L8.73202 9.58293C8.90579 10.377 8.99562 11.1871 9.00002 11.9999C8.99409 12.8119 8.90293 13.621 8.72802 14.4139L10.371 15.0709C10.6174 15.1693 10.8146 15.3616 10.9193 15.6054C11.0239 15.8492 11.0274 16.1245 10.929 16.3709C10.8306 16.6173 10.6384 16.8145 10.3946 16.9192C10.1508 17.0238 9.87541 17.0273 9.62902 16.9289L8.14802 16.3359C7.35194 18.2853 6.03786 19.9797 4.34802 21.2359C6.50011 23.023 9.2101 23.9998 12.0074 23.9969C14.8047 23.994 17.5127 23.0115 19.661 21.2199C17.9689 19.971 16.6529 18.2806 15.857 16.3339ZM6.29102 15.5939L4.62902 14.9289C4.50702 14.8802 4.39582 14.8079 4.30175 14.7162C4.20768 14.6245 4.1326 14.5152 4.08078 14.3945C4.02897 14.2738 4.00144 14.144 3.99976 14.0127C3.99809 13.8813 4.0223 13.7509 4.07102 13.6289C4.11974 13.5069 4.19201 13.3957 4.28371 13.3017C4.37541 13.2076 4.48474 13.1325 4.60546 13.0807C4.72617 13.0289 4.85591 13.0013 4.98727 12.9997C5.11862 12.998 5.24902 13.0222 5.37102 13.0709L6.83802 13.6579C6.94039 13.1111 6.99459 12.5563 7.00002 11.9999C6.99459 11.4436 6.94039 10.8888 6.83802 10.3419L5.37102 10.9289C5.24902 10.9776 5.11862 11.0019 4.98727 11.0002C4.85591 10.9985 4.72617 10.971 4.60546 10.9192C4.48474 10.8674 4.37541 10.7923 4.28371 10.6982C4.19201 10.6041 4.11974 10.4929 4.07102 10.3709C4.0223 10.2489 3.99809 10.1185 3.99976 9.98718C4.00144 9.85582 4.02897 9.72608 4.08078 9.60536C4.1326 9.48465 4.20768 9.37532 4.30175 9.28362C4.39582 9.19192 4.50702 9.11965 4.62902 9.07093L6.29102 8.40593C5.59786 6.70142 4.42689 5.23353 2.91902 4.17893C1.03643 6.34964 0 9.12658 0 11.9999C0 14.8733 1.03643 17.6502 2.91902 19.8209C4.42689 18.7663 5.59786 17.2984 6.29102 15.5939Z" fill="#374957"/>
</g>
<defs>
<clipPath id="clip0_806_6385">
<rect width="24" height="24" fill="white"/>
</clipPath>
</defs>
</svg>
