<svg width="24" height="24" viewBox="0 0 24 24" fill="none" xmlns="http://www.w3.org/2000/svg">
<g clip-path="url(#clip0_806_6720)">
<path d="M3.75691e-05 11.9862C-0.0101686 14.5505 2.06043 16.6377 4.62486 16.6479C5.80587 16.6526 6.94433 16.207 7.80844 15.402L14.7279 18.5261C14.6798 18.7849 14.6535 19.0471 14.649 19.3102C14.6409 21.8923 16.7274 23.992 19.3095 24.0002C21.8916 24.0084 23.9913 21.9219 23.9995 19.3398C24.0077 16.7577 21.9212 14.6579 19.3391 14.6498C17.7964 14.6449 16.3506 15.4013 15.475 16.6714L8.97401 13.736C9.43577 12.621 9.43755 11.3686 8.97902 10.2523L15.4711 7.30189C16.9329 9.41622 19.832 9.94507 21.9463 8.48319C24.0607 7.02132 24.5895 4.12228 23.1276 2.00796C21.6657 -0.106366 18.7666 -0.635216 16.6523 0.82666C15.3932 1.69728 14.6426 3.13134 14.645 4.66218C14.6492 4.92567 14.676 5.18827 14.7249 5.44722L7.82343 8.58333C5.95358 6.82754 3.01443 6.92 1.25863 8.78985C0.446021 9.65531 -0.00436327 10.799 3.75691e-05 11.9862Z" fill="#374957"/>
</g>
<defs>
<clipPath id="clip0_806_6720">
<rect width="24" height="24" fill="white"/>
</clipPath>
</defs>
</svg>
