<svg width="24" height="24" viewBox="0 0 24 24" fill="none" xmlns="http://www.w3.org/2000/svg">
<path d="M6.41385 15.586H17.5858C17.7836 15.586 17.9769 15.5273 18.1413 15.4174C18.3057 15.3075 18.4339 15.1514 18.5095 14.9687C18.5852 14.786 18.605 14.5849 18.5664 14.391C18.5279 14.197 18.4327 14.0189 18.2928 13.879L12.7068 8.29303C12.5193 8.10556 12.265 8.00024 11.9998 8.00024C11.7347 8.00024 11.4804 8.10556 11.2928 8.29303L5.70685 13.879C5.56704 14.0189 5.47183 14.197 5.43327 14.391C5.3947 14.5849 5.4145 14.786 5.49017 14.9687C5.56584 15.1514 5.69398 15.3075 5.85839 15.4174C6.0228 15.5273 6.2161 15.586 6.41385 15.586Z" fill="#374957"/>
</svg>
