<svg width="24" height="24" viewBox="0 0 24 24" fill="none" xmlns="http://www.w3.org/2000/svg">
<g clip-path="url(#clip0_806_6472)">
<path d="M23.9399 6.5728C23.8215 7.17325 23.5129 7.7196 23.0597 8.13096C22.6066 8.54233 22.033 8.79683 21.4239 8.8568C21.4239 8.8568 20.3729 9.0218 19.9139 9.1408C19.9647 8.81141 19.9934 8.47901 19.9999 8.1458V4.0108C19.9974 3.47754 19.9245 2.94694 19.7829 2.4328C20.7594 2.69094 21.6988 3.0734 22.5779 3.5708C23.0971 3.85866 23.5099 4.30599 23.7552 4.84663C24.0005 5.38727 24.0653 5.9925 23.9399 6.5728ZM14.1469 14.1288C14.5658 13.7004 14.8469 13.1563 14.9538 12.5667C15.0608 11.9772 14.9887 11.3691 14.7469 10.8208L10.9909 3.6068C10.7176 2.98252 10.3015 2.43117 9.77614 1.99716C9.25075 1.56314 8.63076 1.25861 7.96612 1.10809C7.30148 0.957571 6.61077 0.965275 5.94966 1.13058C5.28854 1.29589 4.67549 1.61418 4.15991 2.0598C3.81791 2.3518 3.47591 2.6598 3.14191 2.9718C2.78691 3.3058 2.42491 3.6838 2.06491 4.0958C1.61337 4.61191 1.29109 5.22805 1.12469 5.89331C0.958286 6.55857 0.952536 7.25388 1.10791 7.9218C1.25947 8.60097 1.56809 9.23517 2.00902 9.77352C2.44995 10.3119 3.01091 10.7394 3.64691 11.0218L10.8469 14.7388C11.2274 14.9122 11.6408 15.0012 12.0589 14.9998C12.4473 14.9999 12.8318 14.923 13.1902 14.7735C13.5486 14.624 13.8738 14.4049 14.1469 14.1288ZM16.4729 0.861799C16.0019 0.487228 15.4517 0.22477 14.8642 0.0943079C14.2767 -0.0361541 13.6672 -0.0311986 13.0819 0.108799C12.4675 0.255658 11.8619 0.436944 11.2679 0.651799C11.9121 1.23543 12.4306 1.94418 12.7919 2.7348L16.5719 10.0058C16.6385 10.1666 16.6966 10.3309 16.7459 10.4978L16.7559 10.4878C17.5595 9.50286 17.9988 8.27095 17.9999 6.9998V4.0108C18.0012 3.40442 17.8644 2.80571 17.5998 2.26009C17.3352 1.71448 16.9498 1.23629 16.4729 0.861799ZM6.57291 23.9388C7.17318 23.8202 7.71931 23.5115 8.13047 23.0583C8.54164 22.6052 8.796 22.0317 8.85591 21.4228C8.85591 21.4228 9.02091 20.3718 9.13991 19.9128C8.81088 19.9639 8.47881 19.9929 8.14591 19.9998H4.00991C3.47666 19.9972 2.94607 19.9243 2.43191 19.7828C2.68943 20.7611 3.07191 21.7022 3.56991 22.5828C3.85884 23.101 4.30673 23.5126 4.84747 23.7567C5.38821 24.0009 5.99313 24.0647 6.57291 23.9388ZM4.00991 17.9998H6.99991C8.27107 17.9987 9.50297 17.5594 10.4879 16.7558L10.4979 16.7468C10.3314 16.6968 10.1675 16.6384 10.0069 16.5718L2.73591 12.7918C1.94448 12.4305 1.23504 11.9116 0.650913 11.2668C0.43593 11.8607 0.25497 12.4663 0.108913 13.0808C-0.0316092 13.6661 -0.0368282 14.2757 0.0936531 14.8633C0.224134 15.4509 0.486881 16.001 0.861913 16.4718C1.2361 16.9489 1.71406 17.3344 2.25952 17.5992C2.80498 17.864 3.40359 18.001 4.00991 17.9998Z" fill="#374957"/>
</g>
<defs>
<clipPath id="clip0_806_6472">
<rect width="24" height="24" fill="white"/>
</clipPath>
</defs>
</svg>
