<svg width="24" height="24" viewBox="0 0 24 24" fill="none" xmlns="http://www.w3.org/2000/svg">
<g clip-path="url(#clip0_806_6766)">
<path d="M19.9998 0.0102925C16.1878 0.0102925 11.8748 2.04829 8.46078 5.46129C5.02748 8.86513 2.26661 12.8857 0.322778 17.3123C0.0212657 18.0129 -0.072304 18.7855 0.0532346 19.5378C0.178773 20.2902 0.518119 20.9905 1.03078 21.5553L15.2928 7.29329C15.385 7.19778 15.4954 7.1216 15.6174 7.06919C15.7394 7.01678 15.8706 6.9892 16.0034 6.98804C16.1362 6.98689 16.2678 7.01219 16.3907 7.06247C16.5136 7.11275 16.6253 7.18701 16.7192 7.2809C16.8131 7.37479 16.8873 7.48644 16.9376 7.60934C16.9879 7.73224 17.0132 7.86392 17.012 7.99669C17.0109 8.12947 16.9833 8.26069 16.9309 8.3827C16.8785 8.5047 16.8023 8.61505 16.7068 8.70729L2.44878 22.9653C3.01021 23.4812 3.70923 23.8231 4.4611 23.9497C5.21297 24.0762 5.98541 23.9819 6.68478 23.6783C11.1141 21.7373 15.1362 18.9757 18.5388 15.5393C21.9518 12.1263 23.9898 7.81329 23.9898 4.00029C24.046 3.4625 23.9815 2.91894 23.8008 2.40929C23.6202 1.89963 23.328 1.43674 22.9457 1.05439C22.5633 0.672042 22.1004 0.37989 21.5908 0.199256C21.0811 0.0186213 20.5376 -0.045937 19.9998 0.0102925Z" fill="#374957"/>
</g>
<defs>
<clipPath id="clip0_806_6766">
<rect width="24" height="24" fill="white"/>
</clipPath>
</defs>
</svg>
