<svg width="24" height="24" viewBox="0 0 24 24" fill="none" xmlns="http://www.w3.org/2000/svg">
<g clip-path="url(#clip0_806_6814)">
<path d="M16.9992 8.00222H7.00073V7.00238C6.99998 4.24139 9.2376 2.00251 11.9986 2.00176C13.8178 2.00125 15.4936 2.98899 16.3743 4.58077C16.6424 5.06365 17.2512 5.23781 17.7341 4.96972C18.217 4.70164 18.3911 4.09282 18.1231 3.60994C16.2507 0.228279 11.9915 -0.995302 8.6098 0.877025C6.38221 2.11036 5.00017 4.45619 5.00101 7.00243V8.42623C3.18132 9.22041 2.00409 11.0161 2.00146 13.0015V19.0006C2.00479 21.7603 4.2411 23.9966 7.00073 23.9999H16.9992C19.7588 23.9966 21.9951 21.7603 21.9985 19.0006V13.0015C21.9951 10.2418 19.7588 8.0055 16.9992 8.00222ZM12.9998 17.0009C12.9998 17.5531 12.5522 18.0007 12 18.0007C11.4478 18.0007 11.0002 17.5531 11.0002 17.0009V15.0012C11.0002 14.449 11.4478 14.0013 12 14.0013C12.5522 14.0013 12.9998 14.449 12.9998 15.0012V17.0009Z" fill="#374957"/>
</g>
<defs>
<clipPath id="clip0_806_6814">
<rect width="24" height="24" fill="white"/>
</clipPath>
</defs>
</svg>
