<svg width="24" height="24" viewBox="0 0 24 24" fill="none" xmlns="http://www.w3.org/2000/svg">
<g clip-path="url(#clip0_806_6747)">
<path d="M16 17C16 17.2652 15.8946 17.5196 15.7071 17.7071C15.5196 17.8946 15.2652 18 15 18H9.00001C8.73479 18 8.48043 17.8946 8.2929 17.7071C8.10536 17.5196 8.00001 17.2652 8.00001 17C8.00001 16.7348 8.10536 16.4804 8.2929 16.2929C8.48043 16.1054 8.73479 16 9.00001 16H15C15.2652 16 15.5196 16.1054 15.7071 16.2929C15.8946 16.4804 16 16.7348 16 17ZM22 17V18C21.9984 19.5908 21.3658 21.116 20.2409 22.2409C19.116 23.3658 17.5908 23.9984 16 24H8.00001C6.40919 23.9984 4.88399 23.3658 3.75912 22.2409C2.63424 21.116 2.00159 19.5908 2.00001 18V17C1.99823 15.3406 2.45824 13.7134 3.32856 12.3006C4.19888 10.8877 5.44518 9.74489 6.92801 9H17.072C18.5548 9.74489 19.8011 10.8877 20.6714 12.3006C21.5418 13.7134 22.0018 15.3406 22 17ZM18 17C18 16.2044 17.6839 15.4413 17.1213 14.8787C16.5587 14.3161 15.7957 14 15 14H9.00001C8.20436 14 7.44129 14.3161 6.87868 14.8787C6.31608 15.4413 6.00001 16.2044 6.00001 17C6.00001 17.7956 6.31608 18.5587 6.87868 19.1213C7.44129 19.6839 8.20436 20 9.00001 20H15C15.7957 20 16.5587 19.6839 17.1213 19.1213C17.6839 18.5587 18 17.7956 18 17ZM17 6C17 5.46957 16.7893 4.96086 16.4142 4.58579C16.0391 4.21071 15.5304 4 15 4V2H19C19.2652 2 19.5196 1.89464 19.7071 1.70711C19.8946 1.51957 20 1.26522 20 1C20 0.734784 19.8946 0.48043 19.7071 0.292893C19.5196 0.105357 19.2652 0 19 0L12 0C11.2044 0 10.4413 0.31607 9.87868 0.87868C9.31608 1.44129 9.00001 2.20435 9.00001 3V4C8.46957 4 7.96086 4.21071 7.58579 4.58579C7.21072 4.96086 7.00001 5.46957 7.00001 6V7H17V6Z" fill="#374957"/>
</g>
<defs>
<clipPath id="clip0_806_6747">
<rect width="24" height="24" fill="white"/>
</clipPath>
</defs>
</svg>
