<svg width="24" height="24" viewBox="0 0 24 24" fill="none" xmlns="http://www.w3.org/2000/svg">
<g clip-path="url(#clip0_806_6606)">
<path d="M14 24.0003H10C8.67441 23.9987 7.40356 23.4714 6.46622 22.5341C5.52888 21.5967 5.00159 20.3259 5 19.0003V17.0003C5 16.2046 5.31607 15.4416 5.87868 14.879C6.44129 14.3164 7.20435 14.0003 8 14.0003H16C16.7956 14.0003 17.5587 14.3164 18.1213 14.879C18.6839 15.4416 19 16.2046 19 17.0003V19.0003C18.9984 20.3259 18.4711 21.5967 17.5338 22.5341C16.5964 23.4714 15.3256 23.9987 14 24.0003ZM17 12.0003V10.0003C17 9.73507 16.8946 9.48072 16.7071 9.29318C16.5196 9.10565 16.2652 9.00029 16 9.00029H8C7.73478 9.00029 7.48043 9.10565 7.29289 9.29318C7.10536 9.48072 7 9.73507 7 10.0003V12.0003H17ZM15 7.00029V1.41429C15.0001 1.17353 14.9385 0.936746 14.8213 0.726449C14.7041 0.516152 14.535 0.339324 14.3302 0.212766C14.1254 0.0862076 13.8916 0.014124 13.6511 0.0033641C13.4106 -0.00739578 13.1713 0.0435255 12.956 0.151289L10.334 1.46229C9.93313 1.66257 9.59598 1.97056 9.36035 2.35173C9.12473 2.7329 8.99994 3.17217 9 3.62029V7.00029H15Z" fill="#374957"/>
</g>
<defs>
<clipPath id="clip0_806_6606">
<rect width="24" height="24" fill="white"/>
</clipPath>
</defs>
</svg>
