<svg width="24" height="24" viewBox="0 0 24 24" fill="none" xmlns="http://www.w3.org/2000/svg">
<g clip-path="url(#clip0_806_6746)">
<path d="M22.7613 13.9704L20.3163 14.6164C19.9581 14.7108 19.6232 14.8779 19.3323 15.1074L16.7383 13.5994C17.0858 12.561 17.0858 11.4377 16.7383 10.3994L19.3323 8.89036C19.6232 9.1198 19.9581 9.28693 20.3163 9.38136C20.3163 9.38136 22.9333 10.0604 23.0163 10.0604C23.2556 10.0556 23.4853 9.96516 23.6636 9.80545C23.842 9.64574 23.9571 9.42737 23.988 9.19001C24.019 8.95264 23.9638 8.71204 23.8325 8.51191C23.7012 8.31178 23.5024 8.1654 23.2723 8.09936L20.8283 7.45236C20.6453 7.40377 20.489 7.28457 20.3938 7.12091C20.2986 6.95724 20.2721 6.76249 20.3203 6.57936L20.9673 4.13536C21.0009 4.00837 21.0092 3.87601 20.9917 3.74582C20.9741 3.61563 20.9311 3.49018 20.8651 3.37661C20.7991 3.26304 20.7113 3.16359 20.6069 3.08394C20.5024 3.00428 20.3833 2.94598 20.2563 2.91236C20.1293 2.87874 19.997 2.87047 19.8668 2.888C19.7366 2.90554 19.6111 2.94855 19.4976 3.01457C19.384 3.08059 19.2845 3.16834 19.2049 3.27279C19.1252 3.37725 19.0669 3.49637 19.0333 3.62336L18.3873 6.06736C18.2916 6.42594 18.2708 6.8004 18.3263 7.16736L15.7263 8.67736C15.0114 7.87141 14.0553 7.31794 13.0003 7.09936V4.09936C13.3444 3.96421 13.6572 3.76002 13.9193 3.49936L15.7073 1.71136C15.8955 1.52385 16.0015 1.26928 16.0019 1.00363C16.0024 0.737985 15.8973 0.483034 15.7098 0.294862C15.5223 0.106691 15.2677 0.000714546 15.0021 0.000245703C14.7364 -0.00022314 14.4815 0.104854 14.2933 0.292362L12.5053 2.08036C12.3709 2.21337 12.1894 2.28797 12.0003 2.28797C11.8112 2.28797 11.6297 2.21337 11.4953 2.08036L9.70732 0.292362C9.51871 0.110204 9.26611 0.00940999 9.00391 0.0116884C8.74172 0.0139668 8.49091 0.119136 8.3055 0.304544C8.12009 0.489952 8.01492 0.740764 8.01264 1.00296C8.01036 1.26516 8.11116 1.51776 8.29332 1.70636L10.0813 3.49936C10.3435 3.76002 10.6562 3.96421 11.0003 4.09936V7.09936C9.94445 7.31605 8.98687 7.86815 8.27032 8.67336L5.67032 7.16336C5.7258 6.7964 5.70503 6.42194 5.60932 6.06336L4.96732 3.61936C4.9337 3.49237 4.8754 3.37325 4.79574 3.26879C4.71608 3.16434 4.61663 3.07659 4.50307 3.01057C4.3895 2.94455 4.26404 2.90154 4.13386 2.884C4.00367 2.86647 3.8713 2.87474 3.74432 2.90836C3.61733 2.94198 3.4982 3.00028 3.39375 3.07994C3.28929 3.15959 3.20155 3.25904 3.13552 3.37261C3.0695 3.48618 3.02649 3.61163 3.00896 3.74182C2.99142 3.87201 2.9997 4.00437 3.03332 4.13136L3.68032 6.57536C3.7285 6.75849 3.70207 6.95324 3.60684 7.11691C3.5116 7.28057 3.35533 7.39977 3.17232 7.44836L0.728315 8.09936C0.4943 8.16198 0.290973 8.30743 0.156111 8.50866C0.0212494 8.7099 -0.035978 8.95325 -0.0049384 9.1935C0.0261013 9.43375 0.143297 9.65457 0.324876 9.81493C0.506454 9.97528 0.740069 10.0643 0.982315 10.0654C1.06731 10.0654 3.68232 9.38636 3.68232 9.38636C4.04053 9.29193 4.37547 9.1248 4.66632 8.89536L7.26232 10.3994C6.91485 11.4377 6.91485 12.561 7.26232 13.5994L4.66832 15.1074C4.37747 14.8779 4.04253 14.7108 3.68432 14.6164L1.23931 13.9704C0.990325 13.9219 0.732234 13.9699 0.517303 14.1046C0.302372 14.2393 0.146664 14.4507 0.0817097 14.6959C0.0167555 14.9411 0.0474092 15.2018 0.167464 15.4253C0.287518 15.6487 0.488001 15.8182 0.728315 15.8994L3.17232 16.5464C3.35533 16.595 3.5116 16.7142 3.60684 16.8778C3.70207 17.0415 3.7285 17.2362 3.68032 17.4194L3.03332 19.8634C2.9997 19.9904 2.99142 20.1227 3.00896 20.2529C3.02649 20.3831 3.0695 20.5086 3.13552 20.6221C3.20155 20.7357 3.28929 20.8351 3.39375 20.9148C3.4982 20.9944 3.61733 21.0527 3.74432 21.0864C3.8713 21.12 4.00367 21.1283 4.13386 21.1107C4.26404 21.0932 4.3895 21.0502 4.50307 20.9842C4.61663 20.9181 4.71608 20.8304 4.79574 20.7259C4.8754 20.6215 4.9337 20.5023 4.96732 20.3754L5.61332 17.9314C5.70903 17.5728 5.7298 17.1983 5.67431 16.8314L8.27432 15.3214C8.98925 16.1273 9.94537 16.6808 11.0003 16.8994V19.8994C10.6562 20.0345 10.3435 20.2387 10.0813 20.4994L8.29332 22.2924C8.11116 22.481 8.01036 22.7336 8.01264 22.9958C8.01492 23.258 8.12009 23.5088 8.3055 23.6942C8.49091 23.8796 8.74172 23.9848 9.00391 23.987C9.26611 23.9893 9.51871 23.8885 9.70732 23.7064L11.5003 21.9184C11.6347 21.7854 11.8162 21.7108 12.0053 21.7108C12.1944 21.7108 12.3759 21.7854 12.5103 21.9184L14.2983 23.7064C14.4869 23.8885 14.7395 23.9893 15.0017 23.987C15.2639 23.9848 15.5147 23.8796 15.7001 23.6942C15.8855 23.5088 15.9907 23.258 15.993 22.9958C15.9953 22.7336 15.8945 22.481 15.7123 22.2924L13.9243 20.5044C13.6612 20.2413 13.3466 20.0354 13.0003 19.8994V16.8994C14.0561 16.6829 15.0136 16.1312 15.7303 15.3264L18.3303 16.8364C18.2748 17.2033 18.2956 17.5778 18.3913 17.9364L19.0373 20.3804C19.1052 20.6368 19.2722 20.8558 19.5016 20.9892C19.7309 21.1225 20.0039 21.1593 20.2603 21.0914C20.5168 21.0235 20.7358 20.8565 20.8691 20.6271C21.0024 20.3978 21.0392 20.1248 20.9713 19.8684L20.3243 17.4244C20.2761 17.2412 20.3026 17.0465 20.3978 16.8828C20.493 16.7192 20.6493 16.6 20.8323 16.5514L23.2763 15.9044C23.4061 15.8734 23.5283 15.8169 23.6359 15.738C23.7434 15.6591 23.8341 15.5595 23.9026 15.445C23.9711 15.3306 24.016 15.2036 24.0346 15.0715C24.0533 14.9395 24.0453 14.805 24.0112 14.676C23.9771 14.5471 23.9176 14.4263 23.8361 14.3207C23.7546 14.2151 23.6528 14.1269 23.5367 14.0612C23.4207 13.9955 23.2926 13.9538 23.1601 13.9383C23.0276 13.9229 22.8934 13.9341 22.7653 13.9714L22.7613 13.9704Z" fill="#374957"/>
</g>
<defs>
<clipPath id="clip0_806_6746">
<rect width="24" height="24" fill="white"/>
</clipPath>
</defs>
</svg>
