<svg width="24" height="24" viewBox="0 0 24 24" fill="none" xmlns="http://www.w3.org/2000/svg">
<g clip-path="url(#clip0_806_6487)">
<path d="M21 17.0002H10V19.0002C10 19.2655 9.89464 19.5198 9.70711 19.7074C9.51957 19.8949 9.26522 20.0002 9 20.0002C8.73478 20.0002 8.48043 19.8949 8.29289 19.7074C8.10536 19.5198 8 19.2655 8 19.0002V17.0002H6V19.0002C6 19.2655 5.89464 19.5198 5.70711 19.7074C5.51957 19.8949 5.26522 20.0002 5 20.0002C4.73478 20.0002 4.48043 19.8949 4.29289 19.7074C4.10536 19.5198 4 19.2655 4 19.0002V17.0002H3C2.20435 17.0002 1.44129 17.3163 0.87868 17.8789C0.31607 18.4415 0 19.2046 0 20.0002C0 20.7959 0.31607 21.559 0.87868 22.1216C1.44129 22.6842 2.20435 23.0002 3 23.0002H21C21.7956 23.0002 22.5587 22.6842 23.1213 22.1216C23.6839 21.559 24 20.7959 24 20.0002C24 19.2046 23.6839 18.4415 23.1213 17.8789C22.5587 17.3163 21.7956 17.0002 21 17.0002Z" fill="#374957"/>
<path d="M21 9H10V11C10 11.2652 9.89464 11.5196 9.70711 11.7071C9.51957 11.8946 9.26522 12 9 12C8.73478 12 8.48043 11.8946 8.29289 11.7071C8.10536 11.5196 8 11.2652 8 11V9H6V11C6 11.2652 5.89464 11.5196 5.70711 11.7071C5.51957 11.8946 5.26522 12 5 12C4.73478 12 4.48043 11.8946 4.29289 11.7071C4.10536 11.5196 4 11.2652 4 11V9H3C2.20435 9 1.44129 9.31607 0.87868 9.87868C0.31607 10.4413 0 11.2044 0 12C0 12.7956 0.31607 13.5587 0.87868 14.1213C1.44129 14.6839 2.20435 15 3 15H21C21.7956 15 22.5587 14.6839 23.1213 14.1213C23.6839 13.5587 24 12.7956 24 12C24 11.2044 23.6839 10.4413 23.1213 9.87868C22.5587 9.31607 21.7956 9 21 9Z" fill="#374957"/>
<path d="M21 0.999756H10V2.99976C10 3.26497 9.89464 3.51933 9.70711 3.70686C9.51957 3.8944 9.26522 3.99976 9 3.99976C8.73478 3.99976 8.48043 3.8944 8.29289 3.70686C8.10536 3.51933 8 3.26497 8 2.99976V0.999756H6V2.99976C6 3.26497 5.89464 3.51933 5.70711 3.70686C5.51957 3.8944 5.26522 3.99976 5 3.99976C4.73478 3.99976 4.48043 3.8944 4.29289 3.70686C4.10536 3.51933 4 3.26497 4 2.99976V0.999756H3C2.20435 0.999756 1.44129 1.31583 0.87868 1.87844C0.31607 2.44104 0 3.20411 0 3.99976C0 4.79541 0.31607 5.55847 0.87868 6.12108C1.44129 6.68369 2.20435 6.99976 3 6.99976H21C21.7956 6.99976 22.5587 6.68369 23.1213 6.12108C23.6839 5.55847 24 4.79541 24 3.99976C24 3.20411 23.6839 2.44104 23.1213 1.87844C22.5587 1.31583 21.7956 0.999756 21 0.999756Z" fill="#374957"/>
</g>
<defs>
<clipPath id="clip0_806_6487">
<rect width="24" height="24" fill="white"/>
</clipPath>
</defs>
</svg>
