<svg width="24" height="24" viewBox="0 0 24 24" fill="none" xmlns="http://www.w3.org/2000/svg">
<g clip-path="url(#clip0_806_6426)">
<path d="M24.0001 11.9829C23.9979 11.1689 23.7471 10.3749 23.2812 9.70739C22.8152 9.03986 22.1565 8.53064 21.3931 8.24794L21.3551 8.15694C20.363 5.73038 18.4638 3.78632 16.0611 2.73794L15.7321 2.59394C15.4488 1.83286 14.9396 1.1766 14.2727 0.713208C13.6058 0.249819 12.8131 0.00146484 12.0011 0.00146484C11.189 0.00146484 10.3963 0.249819 9.72942 0.713208C9.06253 1.1766 8.5533 1.83286 8.27005 2.59394L7.85205 2.78194C5.4706 3.86359 3.59626 5.81956 2.61705 8.24494C1.8524 8.52354 1.19153 9.02984 0.723506 9.69563C0.255485 10.3614 0.00281307 11.1547 -0.000456152 11.9685C-0.00372538 12.7823 0.242565 13.5776 0.705222 14.2471C1.16788 14.9166 1.82466 15.4282 2.58705 15.7129L2.71505 16.0129C3.7184 18.3418 5.5611 20.2081 7.87705 21.2409L8.27005 21.4169C8.5541 22.1769 9.06352 22.832 9.73013 23.2945C10.3967 23.757 11.1887 24.0049 12.0001 24.0049C12.8114 24.0049 13.6034 23.757 14.27 23.2945C14.9366 22.832 15.446 22.1769 15.7301 21.4169L16.0971 21.2539C18.5196 20.1707 20.4242 18.1854 21.4061 15.7199C22.1669 15.4343 22.8226 14.9237 23.286 14.2561C23.7494 13.5885 23.9985 12.7956 24.0001 11.9829ZM15.8931 19.1139C15.694 18.23 15.2 17.44 14.4924 16.874C13.7848 16.3081 12.9057 15.9997 11.9996 15.9997C11.0934 15.9997 10.2143 16.3081 9.50668 16.874C8.79907 17.44 8.30512 18.23 8.10605 19.1139C6.74065 18.3688 5.61889 17.246 4.87505 15.8799C5.75627 15.6808 6.54385 15.1886 7.10903 14.4838C7.67421 13.779 7.98355 12.9033 7.98645 11.9999C7.98935 11.0965 7.68565 10.2188 7.12501 9.51038C6.56438 8.80196 5.77997 8.30471 4.90005 8.09994C5.64663 6.75308 6.7578 5.64399 8.10605 4.89994C8.30595 5.78294 8.80013 6.57173 9.50745 7.13683C10.2148 7.70192 11.0932 8.00974 11.9986 8.00974C12.9039 8.00974 13.7823 7.70192 14.4897 7.13683C15.197 6.57173 15.6912 5.78294 15.8911 4.89994C17.2383 5.64316 18.3501 6.7494 19.1001 8.09294C18.2174 8.29453 17.4296 8.79023 16.8659 9.49864C16.3021 10.2071 15.996 11.0861 15.9977 11.9914C15.9995 12.8968 16.309 13.7746 16.8755 14.4809C17.4419 15.1871 18.2317 15.6798 19.1151 15.8779C18.3688 17.2397 17.2516 18.3618 15.8931 19.1139Z" fill="#374957"/>
</g>
<defs>
<clipPath id="clip0_806_6426">
<rect width="24" height="24" fill="white"/>
</clipPath>
</defs>
</svg>
