<svg width="24" height="24" viewBox="0 0 24 24" fill="none" xmlns="http://www.w3.org/2000/svg">
<g clip-path="url(#clip0_806_6725)">
<path d="M18.581 2.14073L12.316 0.0517291C12.1109 -0.016592 11.8891 -0.016592 11.684 0.0517291L5.418 2.14073C4.42209 2.47178 3.55582 3.10823 2.94224 3.95967C2.32866 4.81111 1.99897 5.83424 2 6.88373V12.0007C2 19.5637 11.2 23.7407 11.594 23.9147C11.7218 23.9715 11.8601 24.0009 12 24.0009C12.1399 24.0009 12.2782 23.9715 12.406 23.9147C12.8 23.7407 22 19.5637 22 12.0007V6.88373C22.001 5.83412 21.6711 4.81089 21.0574 3.95944C20.4436 3.10799 19.5771 2.47161 18.581 2.14073Z" fill="#374957"/>
</g>
<defs>
<clipPath id="clip0_806_6725">
<rect width="24" height="24" fill="white"/>
</clipPath>
</defs>
</svg>
