<svg width="24" height="24" viewBox="0 0 24 24" fill="none" xmlns="http://www.w3.org/2000/svg">
<g clip-path="url(#clip0_806_6736)">
<path d="M6.99998 22H4.99997C3.34312 22 1.99997 20.6568 1.99997 19V5.00002C1.99997 3.34317 3.34312 2.00002 4.99997 2.00002H6.99998C7.55227 2.00002 7.99997 1.55231 7.99997 1.00003C7.99997 0.44775 7.55227 0 6.99998 0H4.99997C2.23997 0.00332812 0.00332812 2.23997 0 5.00002V19C0.00332812 21.76 2.23997 23.9967 5.00002 24H7.00003C7.55231 24 8.00002 23.5523 8.00002 23C8.00002 22.4477 7.55227 22 6.99998 22Z" fill="#374957"/>
<path d="M23.0001 11.0003L7.22306 11.0323C7.31076 10.8695 7.42045 10.7194 7.54907 10.5863L11.4281 6.70733C11.8253 6.32366 11.8364 5.69056 11.4527 5.29335C11.069 4.89608 10.4359 4.88506 10.0387 5.26874C10.0304 5.2768 10.0222 5.285 10.0141 5.29335L6.13307 9.17235C4.57153 10.7344 4.57153 13.2664 6.13307 14.8283L10.0121 18.7073C10.3957 19.1046 11.0288 19.1156 11.4261 18.7319C11.8233 18.3482 11.8343 17.7151 11.4506 17.3179C11.4426 17.3096 11.4344 17.3014 11.4261 17.2933L7.54706 13.4143C7.43512 13.2991 7.33743 13.1708 7.25606 13.0324L23.0001 13.0003C23.5523 13.0003 24 12.5526 24 12.0004C24 11.448 23.5523 11.0003 23.0001 11.0003Z" fill="#374957"/>
</g>
<defs>
<clipPath id="clip0_806_6736">
<rect width="24" height="24" fill="white"/>
</clipPath>
</defs>
</svg>
