<svg width="24" height="24" viewBox="0 0 24 24" fill="none" xmlns="http://www.w3.org/2000/svg">
<g clip-path="url(#clip0_806_6772)">
<path d="M13.1179 0.059584C15.9017 0.3161 18.508 1.53878 20.4849 3.5156C22.4617 5.49242 23.6844 8.09873 23.9409 10.8826C22.4687 11.1019 20.9657 10.9735 19.5521 10.5078C18.1384 10.0421 16.8534 9.25194 15.7999 8.20058C14.7483 7.14723 13.9579 5.86225 13.4922 4.44855C13.0265 3.03485 12.8983 1.53173 13.1179 0.059584ZM22.5519 13.0006C20.9173 13.0013 19.3012 12.6545 17.8109 11.983C16.3206 11.3116 14.9901 10.3309 13.9077 9.10608C12.8253 7.88125 12.0157 6.44024 11.5327 4.87867C11.0496 3.3171 10.9041 1.67066 11.1059 0.048584C8.23786 0.253937 5.54026 1.48727 3.50863 3.52202C1.47701 5.55676 0.247822 8.25626 0.046875 11.1246C1.78812 10.8828 3.56169 11.048 5.22834 11.6072C6.89498 12.1664 8.40931 13.1043 9.65241 14.3473C10.8955 15.5903 11.8335 17.1046 12.3928 18.7712C12.9521 20.4378 13.1175 22.2113 12.8759 23.9526C15.7422 23.7524 18.4401 22.5251 20.4745 20.4961C22.5088 18.467 23.7432 15.7723 23.9509 12.9066C23.4869 12.9662 23.0197 12.9976 22.5519 13.0006ZM8.23888 15.7616C7.18162 14.7065 5.88846 13.9182 4.46626 13.4617C3.04407 13.0053 1.53366 12.8938 0.059875 13.1366C0.321188 15.9125 1.54298 18.5103 3.51456 20.4819C5.48614 22.4535 8.08391 23.6753 10.8599 23.9366C11.1029 22.4637 10.9919 20.9542 10.5362 19.5327C10.0804 18.1112 9.29298 16.8186 8.23888 15.7616Z" fill="#374957"/>
</g>
<defs>
<clipPath id="clip0_806_6772">
<rect width="24" height="24" fill="white"/>
</clipPath>
</defs>
</svg>
