<svg width="24" height="24" viewBox="0 0 24 24" fill="none" xmlns="http://www.w3.org/2000/svg">
<g clip-path="url(#clip0_806_6626)">
<path d="M22.514 10.972C22.1062 10.6072 21.6248 10.3342 21.1025 10.1714C20.5801 10.0085 20.0289 9.95962 19.486 10.028C17.2989 10.2924 15.1408 10.7577 13.039 11.418C13.359 8.913 15.75 8 18 8C18.7957 8 19.5587 7.68393 20.1213 7.12132C20.6839 6.55871 21 5.79565 21 5C21 4.20435 20.6839 3.44129 20.1213 2.87868C19.5587 2.31607 18.7957 2 18 2C17.0678 1.99978 16.145 2.18649 15.2862 2.54908C14.4274 2.91166 13.65 3.44277 13 4.111V1C13 0.734784 12.8947 0.48043 12.7071 0.292893C12.5196 0.105357 12.2652 0 12 0C11.7348 0 11.4804 0.105357 11.2929 0.292893C11.1054 0.48043 11 0.734784 11 1V4.11C10.3498 3.44214 9.57235 2.91133 8.71358 2.54893C7.8548 2.18653 6.93212 1.99988 6.00001 2C5.20437 2 4.4413 2.31607 3.87869 2.87868C3.31609 3.44129 3.00001 4.20435 3.00001 5C3.00001 5.79565 3.31609 6.55871 3.87869 7.12132C4.4413 7.68393 5.20437 8 6.00001 8C8.25002 8 10.641 8.913 10.961 11.418C8.85923 10.7578 6.70112 10.2925 4.51401 10.028C3.97116 9.96001 3.42004 10.0091 2.89773 10.1719C2.37543 10.3348 1.89406 10.6076 1.48601 10.972C1.01534 11.4032 0.641147 11.929 0.387979 12.5149C0.134812 13.1009 0.00839256 13.7337 0.0170147 14.372C0.0170147 23.062 4.85202 24 6.93102 24C8.05994 23.9395 9.14111 23.5249 10.021 22.815C10.581 22.3407 11.2704 22.0453 12 21.967C12.7297 22.0453 13.4191 22.3407 13.979 22.815C14.859 23.5247 15.9401 23.9393 17.069 24C19.148 24 23.983 23.062 23.983 14.375C23.9918 13.7363 23.8655 13.1029 23.6123 12.5165C23.3592 11.93 22.9849 11.4037 22.514 10.972ZM6.15601 19.272C4.88801 19.624 4.41001 18.308 4.02101 16.158C3.97669 15.9717 3.97891 15.7773 4.02749 15.592C4.07606 15.4067 4.1695 15.2362 4.29956 15.0956C4.42961 14.9549 4.59228 14.8485 4.77322 14.7856C4.95415 14.7227 5.14778 14.7053 5.33701 14.735C7.27148 15.2043 9.16522 15.828 11 16.6C8.70001 16.839 7.36401 18.939 6.15601 19.274V19.272ZM19.979 16.16C19.59 18.31 19.112 19.626 17.844 19.274C16.636 18.939 15.3 16.839 13 16.6C14.835 15.8304 16.7287 15.2091 18.663 14.742C18.8517 14.7126 19.0448 14.73 19.2252 14.7927C19.4056 14.8553 19.5679 14.9613 19.6979 15.1013C19.8278 15.2413 19.9214 15.411 19.9704 15.5956C20.0194 15.7802 20.0224 15.974 19.979 16.16Z" fill="#374957"/>
</g>
<defs>
<clipPath id="clip0_806_6626">
<rect width="24" height="24" fill="white"/>
</clipPath>
</defs>
</svg>
