<svg width="24" height="24" viewBox="0 0 24 24" fill="none" xmlns="http://www.w3.org/2000/svg">
<g clip-path="url(#clip0_806_6829)">
<path d="M23.9919 12.1591C23.9681 13.9096 23.5583 15.6332 22.7919 17.2071C22.7183 17.2064 22.6448 17.2141 22.5729 17.2301C20.7551 17.7646 18.8675 18.0238 16.9729 17.9991C14.9334 18.0562 12.8979 17.7861 10.9439 17.1991C10.7115 17.1203 10.5025 16.985 10.3355 16.8052C10.1685 16.6254 10.049 16.4069 9.98754 16.1694C9.92612 15.9318 9.9248 15.6828 9.9837 15.4446C10.0426 15.2064 10.1599 14.9867 10.3249 14.8051C10.6616 14.4304 11.0217 14.0774 11.4029 13.7481C11.5996 13.5898 11.834 13.4851 12.0832 13.4443C12.3324 13.4034 12.5879 13.4279 12.8249 13.5151C14.1034 13.9416 15.4422 14.1598 16.7899 14.1611C19.3243 14.135 21.8076 13.4447 23.9919 12.1591ZM15.2479 12.0231C15.4746 12.0599 15.7066 12.0437 15.926 11.9759C16.1454 11.908 16.3461 11.7903 16.5123 11.6319C16.6786 11.4736 16.806 11.2789 16.8845 11.0631C16.963 10.8473 16.9905 10.6163 16.9649 10.3881C16.5019 6.60878 14.7921 3.09167 12.1059 0.393127C12.0037 0.282402 11.9285 0.149637 11.8859 0.00512695C10.304 0.0167231 8.74018 0.343417 7.2859 0.966127C8.80377 2.09861 10.0745 3.52903 11.0202 5.16977C11.9659 6.81052 12.5668 8.62706 12.7859 10.5081C12.8271 10.7976 12.9529 11.0684 13.1476 11.2865C13.3422 11.5046 13.597 11.6604 13.8799 11.7341C14.329 11.8605 14.786 11.957 15.2479 12.0231ZM20.9219 11.3801C21.9382 11.0071 22.9063 10.5143 23.8059 9.91213C23.3934 7.59543 22.3099 5.45079 20.6897 3.74423C19.0696 2.03768 16.9841 0.844299 14.6919 0.312127C17.0296 3.12236 18.507 6.54727 18.9469 10.1761C18.9738 10.397 19.0504 10.609 19.1709 10.7961C19.2915 10.9832 19.4528 11.1406 19.6428 11.2564C19.8329 11.3723 20.0467 11.4436 20.2682 11.465C20.4897 11.4864 20.7132 11.4574 20.9219 11.3801ZM16.7999 19.9991C14.3368 20.04 11.8857 19.647 9.5589 18.8381C9.37159 18.7697 9.1721 18.7409 8.97307 18.7535C8.77404 18.7662 8.57982 18.8201 8.4027 18.9117C8.22558 19.0034 8.06943 19.1308 7.94415 19.286C7.81887 19.4412 7.72718 19.6207 7.6749 19.8131C7.40703 20.8685 7.28622 21.9557 7.3159 23.0441C9.69547 24.0556 12.3384 24.2704 14.85 23.6564C17.3617 23.0423 19.6074 21.6324 21.2519 19.6371C19.7849 19.9152 18.2925 20.0365 16.7999 19.9991ZM10.7999 10.8301C10.7364 10.2402 10.6284 9.65583 10.4769 9.08213C10.4114 8.84394 10.2868 8.62616 10.1146 8.44903C9.9424 8.27189 9.72824 8.14113 9.49201 8.06891C9.25577 7.99668 9.00511 7.98532 8.76331 8.03588C8.52151 8.08645 8.2964 8.19729 8.1089 8.35813C5.22609 10.8888 3.1705 14.2276 2.2089 17.9411C2.16004 18.2195 2.12897 18.5008 2.1159 18.7831C2.97429 20.0314 4.05983 21.1071 5.3159 21.9541C5.4227 20.0594 5.91594 18.2066 6.76531 16.5096C7.61469 14.8125 8.80222 13.3072 10.2549 12.0861C10.4416 11.9374 10.589 11.7451 10.684 11.5261C10.779 11.3071 10.8188 11.0681 10.7999 10.8301ZM7.7669 4.10813C7.04279 3.31143 6.2127 2.61796 5.2999 2.04713C3.08328 3.52787 1.42609 5.70796 0.592419 8.23996C-0.241249 10.772 -0.203412 13.5101 0.699901 16.0181C1.99547 12.1481 4.38357 8.73575 7.5759 6.19313C7.72985 6.07192 7.85747 5.92061 7.95099 5.74843C8.04451 5.57625 8.10196 5.38683 8.11984 5.19171C8.13771 4.99659 8.11564 4.79987 8.05495 4.61357C7.99427 4.42727 7.89626 4.25529 7.7669 4.10813Z" fill="#374957"/>
</g>
<defs>
<clipPath id="clip0_806_6829">
<rect width="24" height="24" fill="white"/>
</clipPath>
</defs>
</svg>
