<svg width="24" height="24" viewBox="0 0 24 24" fill="none" xmlns="http://www.w3.org/2000/svg">
<g clip-path="url(#clip0_806_6820)">
<path d="M17.0001 10C15.6156 10 14.2622 10.4105 13.1111 11.1797C11.9599 11.9489 11.0627 13.0421 10.5329 14.3212C10.0031 15.6003 9.86447 17.0078 10.1346 18.3656C10.4047 19.7235 11.0713 20.9708 12.0503 21.9497C13.0293 22.9287 14.2766 23.5954 15.6344 23.8655C16.9923 24.1356 18.3998 23.997 19.6788 23.4672C20.9579 22.9373 22.0512 22.0401 22.8204 20.889C23.5895 19.7379 24.0001 18.3845 24.0001 17C23.9979 15.1441 23.2598 13.3649 21.9475 12.0526C20.6352 10.7403 18.8559 10.0021 17.0001 10ZM19.7071 19.707C19.5195 19.8945 19.2652 19.9998 19.0001 19.9998C18.7349 19.9998 18.4806 19.8945 18.2931 19.707L16.2931 17.707C16.1055 17.5195 16.0001 17.2652 16.0001 17V14C16.0001 13.7348 16.1054 13.4804 16.293 13.2929C16.4805 13.1054 16.7348 13 17.0001 13C17.2653 13 17.5196 13.1054 17.7072 13.2929C17.8947 13.4804 18.0001 13.7348 18.0001 14V16.586L19.7071 18.293C19.8945 18.4805 19.9998 18.7348 19.9998 19C19.9998 19.2652 19.8945 19.5195 19.7071 19.707ZM8.47406 11C7.38626 11 6.3229 10.6774 5.41842 10.0731C4.51395 9.46874 3.80901 8.60975 3.39272 7.60476C2.97644 6.59977 2.86752 5.4939 3.07974 4.42701C3.29196 3.36011 3.81578 2.3801 4.58497 1.61092C5.35416 0.841726 6.33417 0.317902 7.40106 0.105683C8.46796 -0.106535 9.57383 0.00238308 10.5788 0.418665C11.5838 0.834947 12.4428 1.5399 13.0471 2.44437C13.6515 3.34884 13.9741 4.41221 13.9741 5.5C13.9725 6.95821 13.3925 8.35623 12.3614 9.38734C11.3303 10.4184 9.93226 10.9984 8.47406 11ZM11.3561 24H1.00006C0.867808 24 0.736867 23.9738 0.614819 23.9228C0.492771 23.8719 0.38204 23.7973 0.289036 23.7032C0.196032 23.6092 0.122603 23.4977 0.0730004 23.3751C0.0233974 23.2525 -0.00139427 23.1212 6.05067e-05 22.989C-0.00454557 20.9143 0.618998 18.8869 1.78866 17.1734C2.95831 15.4598 4.61929 14.1405 6.55306 13.389C7.32098 13.1161 8.13233 12.986 8.94706 13.005C8.7861 13.328 8.64451 13.6602 8.52306 14C8.17676 14.9623 7.9998 15.9773 8.00006 17C8.00039 18.3435 8.30207 19.6698 8.88287 20.8812C9.46368 22.0927 10.3088 23.1584 11.3561 24Z" fill="#374957"/>
</g>
<defs>
<clipPath id="clip0_806_6820">
<rect width="24" height="24" fill="white"/>
</clipPath>
</defs>
</svg>
