<svg width="24" height="24" viewBox="0 0 24 24" fill="none" xmlns="http://www.w3.org/2000/svg">
<g clip-path="url(#clip0_806_6711)">
<path d="M0.142 3.99927C0.363049 3.14312 0.861548 2.38435 1.55957 1.84157C2.25759 1.29878 3.11579 1.00258 4 0.999268H15C15.8842 1.00258 16.7424 1.29878 17.4404 1.84157C18.1385 2.38435 18.637 3.14312 18.858 3.99927H0.142ZM8.942 19.9993C8.97863 20.1635 8.99807 20.331 9 20.4993C9 21.1623 8.73661 21.7982 8.26777 22.267C7.79893 22.7359 7.16304 22.9993 6.5 22.9993C5.83696 22.9993 5.20107 22.7359 4.73223 22.267C4.26339 21.7982 4 21.1623 4 20.4993C4.00193 20.331 4.02137 20.1635 4.058 19.9993H8.942ZM19.942 19.9993C19.9786 20.1635 19.9981 20.331 20 20.4993C20 21.1623 19.7366 21.7982 19.2678 22.267C18.7989 22.7359 18.163 22.9993 17.5 22.9993C16.837 22.9993 16.2011 22.7359 15.7322 22.267C15.2634 21.7982 15 21.1623 15 20.4993C15.0019 20.331 15.0214 20.1635 15.058 19.9993H19.942ZM10 17.9993H13V5.99927H10V17.9993ZM19 9.99927V5.99927H15V9.99927H19ZM8 9.99927V5.99927H5V9.99927H8ZM20 11.9993H15V17.9993H22C22.5304 17.9993 23.0391 17.7886 23.4142 17.4135C23.7893 17.0384 24 16.5297 24 15.9993C24 14.9384 23.5786 13.921 22.8284 13.1708C22.0783 12.4207 21.0609 11.9993 20 11.9993ZM3 9.99927V5.99927H0V9.99927H3ZM8 11.9993H0V14.9993C0 15.7949 0.31607 16.558 0.87868 17.1206C1.44129 17.6832 2.20435 17.9993 3 17.9993H8V11.9993Z" fill="#374957"/>
</g>
<defs>
<clipPath id="clip0_806_6711">
<rect width="24" height="24" fill="white"/>
</clipPath>
</defs>
</svg>
