<svg width="18" height="15" viewBox="0 0 18 15" fill="none" xmlns="http://www.w3.org/2000/svg">
<path d="M8.58073 14.6667C8.13628 14.6667 7.72309 14.5556 7.34114 14.3333C6.9592 14.1111 6.65017 13.8056 6.41406 13.4167C6.26128 13.1389 6.25781 12.8611 6.40365 12.5833C6.54948 12.3056 6.77517 12.1667 7.08073 12.1667C7.26128 12.1667 7.42101 12.2222 7.5599 12.3333C7.69878 12.4444 7.82378 12.5694 7.93489 12.7083C8.00434 12.8056 8.09809 12.8785 8.21614 12.9271C8.3342 12.9757 8.45573 13 8.58073 13C8.81684 13 9.01476 12.9201 9.17448 12.7604C9.3342 12.6007 9.41406 12.4028 9.41406 12.1667C9.41406 11.9306 9.3342 11.7326 9.17448 11.5729C9.01476 11.4132 8.81684 11.3333 8.58073 11.3333H1.4974C1.26128 11.3333 1.06337 11.2535 0.903646 11.0938C0.743924 10.934 0.664062 10.7361 0.664062 10.5C0.664062 10.2639 0.743924 10.066 0.903646 9.90625C1.06337 9.74653 1.26128 9.66667 1.4974 9.66667H8.58073C9.27517 9.66667 9.86545 9.90972 10.3516 10.3958C10.8377 10.8819 11.0807 11.4722 11.0807 12.1667C11.0807 12.8611 10.8377 13.4514 10.3516 13.9375C9.86545 14.4236 9.27517 14.6667 8.58073 14.6667ZM1.4974 6.33333C1.26128 6.33333 1.06337 6.25347 0.903646 6.09375C0.743924 5.93403 0.664062 5.73611 0.664062 5.5C0.664062 5.26389 0.743924 5.06597 0.903646 4.90625C1.06337 4.74653 1.26128 4.66667 1.4974 4.66667H11.9141C12.2613 4.66667 12.5564 4.54514 12.7995 4.30208C13.0425 4.05903 13.1641 3.76389 13.1641 3.41667C13.1641 3.06944 13.0425 2.77431 12.7995 2.53125C12.5564 2.28819 12.2613 2.16667 11.9141 2.16667C11.6918 2.16667 11.4835 2.21875 11.2891 2.32292C11.0946 2.42708 10.9418 2.57639 10.8307 2.77083C10.7335 2.9375 10.6155 3.08681 10.4766 3.21875C10.3377 3.35069 10.171 3.41667 9.97656 3.41667C9.69878 3.41667 9.47309 3.3125 9.29948 3.10417C9.12587 2.89583 9.08073 2.67361 9.16406 2.4375C9.35851 1.85417 9.7092 1.38542 10.2161 1.03125C10.7231 0.677083 11.2891 0.5 11.9141 0.5C12.7196 0.5 13.4071 0.784722 13.9766 1.35417C14.546 1.92361 14.8307 2.61111 14.8307 3.41667C14.8307 4.22222 14.546 4.90972 13.9766 5.47917C13.4071 6.04861 12.7196 6.33333 11.9141 6.33333H1.4974ZM15.6224 12.75C15.3446 12.875 15.0738 12.8576 14.8099 12.6979C14.546 12.5382 14.4141 12.3056 14.4141 12C14.4141 11.8056 14.48 11.6424 14.612 11.5104C14.7439 11.3785 14.8932 11.2639 15.0599 11.1667C15.2543 11.0556 15.4036 10.9028 15.5078 10.7083C15.612 10.5139 15.6641 10.3056 15.6641 10.0833C15.6641 9.73611 15.5425 9.44097 15.2995 9.19792C15.0564 8.95486 14.7613 8.83333 14.4141 8.83333H1.4974C1.26128 8.83333 1.06337 8.75347 0.903646 8.59375C0.743924 8.43403 0.664062 8.23611 0.664062 8C0.664062 7.76389 0.743924 7.56597 0.903646 7.40625C1.06337 7.24653 1.26128 7.16667 1.4974 7.16667H14.4141C15.2196 7.16667 15.9071 7.45139 16.4766 8.02083C17.046 8.59028 17.3307 9.27778 17.3307 10.0833C17.3307 10.6667 17.1779 11.1979 16.8724 11.6771C16.5668 12.1563 16.1502 12.5139 15.6224 12.75Z" fill="#313131"/>
</svg>
