<svg width="18" height="14" viewBox="0 0 18 14" fill="none" xmlns="http://www.w3.org/2000/svg">
<path d="M4.83073 12.791C4.15017 12.791 3.60851 12.9438 3.20573 13.2493C2.80295 13.5549 2.24045 13.7702 1.51823 13.8952C1.28212 13.9368 1.08073 13.8813 0.914062 13.7285C0.747396 13.5757 0.664062 13.3813 0.664062 13.1452C0.664062 12.9091 0.743924 12.7112 0.903646 12.5514C1.06337 12.3917 1.26128 12.2771 1.4974 12.2077C1.9974 12.0549 2.46962 11.8431 2.91406 11.5723C3.35851 11.3014 3.9974 11.166 4.83073 11.166C5.35851 11.166 5.79253 11.225 6.13281 11.3431C6.47309 11.4612 6.78906 11.5931 7.08073 11.7389C7.37239 11.8848 7.66406 12.0202 7.95573 12.1452C8.24739 12.2702 8.59462 12.3327 8.99739 12.3327C9.40017 12.3327 9.74739 12.2702 10.0391 12.1452C10.3307 12.0202 10.6224 11.8848 10.9141 11.7389C11.2057 11.5931 11.5252 11.4612 11.8724 11.3431C12.2196 11.225 12.6502 11.166 13.1641 11.166C13.9974 11.166 14.6363 11.3014 15.0807 11.5723C15.5252 11.8431 15.9974 12.0549 16.4974 12.2077C16.7335 12.2771 16.9314 12.3917 17.0911 12.5514C17.2509 12.7112 17.3307 12.9091 17.3307 13.1452C17.3307 13.3813 17.2474 13.5757 17.0807 13.7285C16.9141 13.8813 16.7127 13.9368 16.4766 13.8952C15.7543 13.7702 15.1918 13.5549 14.7891 13.2493C14.3863 12.9438 13.8446 12.791 13.1641 12.791C12.7752 12.791 12.4384 12.85 12.1536 12.9681C11.8689 13.0862 11.5842 13.2181 11.2995 13.3639C11.0148 13.5098 10.6953 13.6452 10.3411 13.7702C9.98698 13.8952 9.53906 13.9577 8.99739 13.9577C8.45573 13.9577 8.00781 13.8952 7.65364 13.7702C7.29948 13.6452 6.98003 13.5098 6.69531 13.3639C6.41059 13.2181 6.12934 13.0862 5.85156 12.9681C5.57378 12.85 5.23351 12.791 4.83073 12.791ZM4.83073 9.08268C4.15017 9.08268 3.60851 9.23546 3.20573 9.54102C2.80295 9.84657 2.24045 10.0618 1.51823 10.1868C1.28212 10.2285 1.08073 10.173 0.914062 10.0202C0.747396 9.86741 0.664062 9.67296 0.664062 9.43685C0.664062 9.20074 0.743924 9.00282 0.903646 8.8431C1.06337 8.68338 1.26128 8.56879 1.4974 8.49935C1.9974 8.34657 2.46962 8.13477 2.91406 7.86393C3.35851 7.5931 3.9974 7.45768 4.83073 7.45768C5.35851 7.45768 5.79253 7.51671 6.13281 7.63477C6.47309 7.75282 6.78906 7.88477 7.08073 8.0306C7.37239 8.17643 7.66406 8.31185 7.95573 8.43685C8.24739 8.56185 8.59462 8.62435 8.99739 8.62435C9.40017 8.62435 9.74739 8.56185 10.0391 8.43685C10.3307 8.31185 10.6224 8.17643 10.9141 8.0306C11.2057 7.88477 11.5252 7.75282 11.8724 7.63477C12.2196 7.51671 12.6502 7.45768 13.1641 7.45768C13.9974 7.45768 14.6363 7.5931 15.0807 7.86393C15.5252 8.13477 15.9974 8.34657 16.4974 8.49935C16.7335 8.56879 16.9314 8.68338 17.0911 8.8431C17.2509 9.00282 17.3307 9.20074 17.3307 9.43685C17.3307 9.67296 17.2474 9.86741 17.0807 10.0202C16.9141 10.173 16.7127 10.2285 16.4766 10.1868C15.7543 10.0618 15.1918 9.84657 14.7891 9.54102C14.3863 9.23546 13.8446 9.08268 13.1641 9.08268C12.7613 9.08268 12.4175 9.14171 12.1328 9.25977C11.8481 9.37782 11.5634 9.50977 11.2786 9.6556C10.9939 9.80143 10.678 9.93685 10.3307 10.0618C9.98351 10.1868 9.53906 10.2493 8.99739 10.2493C8.45573 10.2493 8.00781 10.1868 7.65364 10.0618C7.29948 9.93685 6.98003 9.80143 6.69531 9.6556C6.41059 9.50977 6.12934 9.37782 5.85156 9.25977C5.57378 9.14171 5.23351 9.08268 4.83073 9.08268ZM4.83073 5.37435C4.15017 5.37435 3.60851 5.52713 3.20573 5.83268C2.80295 6.13824 2.24045 6.35352 1.51823 6.47852C1.28212 6.52018 1.08073 6.46463 0.914062 6.31185C0.747396 6.15907 0.664062 5.96463 0.664062 5.72852C0.664062 5.49241 0.743924 5.29449 0.903646 5.13477C1.06337 4.97504 1.26128 4.86046 1.4974 4.79102C1.9974 4.63824 2.46962 4.42643 2.91406 4.1556C3.35851 3.88477 3.9974 3.74935 4.83073 3.74935C5.35851 3.74935 5.79253 3.80838 6.13281 3.92643C6.47309 4.04449 6.78906 4.17643 7.08073 4.32227C7.37239 4.4681 7.66406 4.60352 7.95573 4.72852C8.24739 4.85352 8.59462 4.91602 8.99739 4.91602C9.40017 4.91602 9.74739 4.85352 10.0391 4.72852C10.3307 4.60352 10.6224 4.4681 10.9141 4.32227C11.2057 4.17643 11.5252 4.04449 11.8724 3.92643C12.2196 3.80838 12.6502 3.74935 13.1641 3.74935C13.9974 3.74935 14.6363 3.88477 15.0807 4.1556C15.5252 4.42643 15.9974 4.63824 16.4974 4.79102C16.7335 4.86046 16.9314 4.97504 17.0911 5.13477C17.2509 5.29449 17.3307 5.49241 17.3307 5.72852C17.3307 5.96463 17.2474 6.15907 17.0807 6.31185C16.9141 6.46463 16.7127 6.52018 16.4766 6.47852C15.7543 6.35352 15.1918 6.13824 14.7891 5.83268C14.3863 5.52713 13.8446 5.37435 13.1641 5.37435C12.7752 5.37435 12.4384 5.43338 12.1536 5.55143C11.8689 5.66949 11.5842 5.80143 11.2995 5.94727C11.0148 6.0931 10.6953 6.22852 10.3411 6.35352C9.98698 6.47852 9.53906 6.54102 8.99739 6.54102C8.45573 6.54102 8.00781 6.47852 7.65364 6.35352C7.29948 6.22852 6.98003 6.0931 6.69531 5.94727C6.41059 5.80143 6.12934 5.66949 5.85156 5.55143C5.57378 5.43338 5.23351 5.37435 4.83073 5.37435ZM4.83073 1.66602C4.15017 1.66602 3.60851 1.81879 3.20573 2.12435C2.80295 2.4299 2.24045 2.64518 1.51823 2.77018C1.28212 2.81185 1.08073 2.75629 0.914062 2.60352C0.747396 2.45074 0.664062 2.25629 0.664062 2.02018C0.664062 1.78407 0.743924 1.58615 0.903646 1.42643C1.06337 1.26671 1.26128 1.15213 1.4974 1.08268C1.9974 0.929905 2.46962 0.718099 2.91406 0.447266C3.35851 0.176432 3.9974 0.0410156 4.83073 0.0410156C5.35851 0.0410156 5.79253 0.100043 6.13281 0.218099C6.47309 0.336155 6.78906 0.468099 7.08073 0.613932C7.37239 0.759766 7.66406 0.895182 7.95573 1.02018C8.24739 1.14518 8.59462 1.20768 8.99739 1.20768C9.40017 1.20768 9.74739 1.14518 10.0391 1.02018C10.3307 0.895182 10.6224 0.759766 10.9141 0.613932C11.2057 0.468099 11.5252 0.336155 11.8724 0.218099C12.2196 0.100043 12.6502 0.0410156 13.1641 0.0410156C13.9974 0.0410156 14.6363 0.176432 15.0807 0.447266C15.5252 0.718099 15.9974 0.929905 16.4974 1.08268C16.7335 1.15213 16.9314 1.26671 17.0911 1.42643C17.2509 1.58615 17.3307 1.78407 17.3307 2.02018C17.3307 2.25629 17.2474 2.45074 17.0807 2.60352C16.9141 2.75629 16.7127 2.81185 16.4766 2.77018C15.7543 2.64518 15.1918 2.4299 14.7891 2.12435C14.3863 1.81879 13.8446 1.66602 13.1641 1.66602C12.7752 1.66602 12.4384 1.72504 12.1536 1.8431C11.8689 1.96115 11.5842 2.0931 11.2995 2.23893C11.0148 2.38477 10.6953 2.52018 10.3411 2.64518C9.98698 2.77018 9.53906 2.83268 8.99739 2.83268C8.45573 2.83268 8.00781 2.77018 7.65364 2.64518C7.29948 2.52018 6.98003 2.38477 6.69531 2.23893C6.41059 2.0931 6.12934 1.96115 5.85156 1.8431C5.57378 1.72504 5.23351 1.66602 4.83073 1.66602Z" fill="#313131"/>
</svg>
