<svg width="32" height="32" viewBox="0 0 32 32" fill="none" xmlns="http://www.w3.org/2000/svg">
<mask id="mask0_267_5306" style="mask-type:alpha" maskUnits="userSpaceOnUse" x="0" y="0" width="32" height="32">
<rect width="32" height="32" fill="#D9D9D9"/>
</mask>
<g mask="url(#mask0_267_5306)">
<path d="M24 26.6667H21.3333C20.9555 26.6667 20.6389 26.5389 20.3833 26.2834C20.1278 26.0278 20 25.7112 20 25.3334C20 24.9556 20.1278 24.6389 20.3833 24.3834C20.6389 24.1278 20.9555 24 21.3333 24H24V21.3334C24 20.9556 24.1278 20.6389 24.3833 20.3834C24.6389 20.1278 24.9555 20 25.3333 20C25.7111 20 26.0278 20.1278 26.2833 20.3834C26.5389 20.6389 26.6666 20.9556 26.6666 21.3334V24H29.3333C29.7111 24 30.0278 24.1278 30.2833 24.3834C30.5389 24.6389 30.6666 24.9556 30.6666 25.3334C30.6666 25.7112 30.5389 26.0278 30.2833 26.2834C30.0278 26.5389 29.7111 26.6667 29.3333 26.6667H26.6666V29.3334C26.6666 29.7112 26.5389 30.0278 26.2833 30.2834C26.0278 30.5389 25.7111 30.6667 25.3333 30.6667C24.9555 30.6667 24.6389 30.5389 24.3833 30.2834C24.1278 30.0278 24 29.7112 24 29.3334V26.6667ZM3.99998 26.6667C3.6222 26.6667 3.30553 26.5389 3.04998 26.2834C2.79442 26.0278 2.66664 25.7112 2.66664 25.3334V18.6667H2.43331C2.01109 18.6667 1.66664 18.5056 1.39998 18.1834C1.13331 17.8612 1.04442 17.4889 1.13331 17.0667L2.46664 10.4C2.53331 10.0889 2.68886 9.83337 2.93331 9.63337C3.17775 9.43337 3.45553 9.33337 3.76664 9.33337H21.5666C21.8778 9.33337 22.1555 9.43337 22.4 9.63337C22.6444 9.83337 22.8 10.0889 22.8666 10.4L24.2 17.0667C24.2889 17.4889 24.2 17.8612 23.9333 18.1834C23.6666 18.5056 23.3222 18.6667 22.9 18.6667H22.6666V21.3334C22.6666 21.7112 22.5389 22.0278 22.2833 22.2834C22.0278 22.5389 21.7111 22.6667 21.3333 22.6667C20.9555 22.6667 20.6389 22.5389 20.3833 22.2834C20.1278 22.0278 20 21.7112 20 21.3334V18.6667H14.6666V25.3334C14.6666 25.7112 14.5389 26.0278 14.2833 26.2834C14.0278 26.5389 13.7111 26.6667 13.3333 26.6667H3.99998ZM5.33331 24H12V18.6667H5.33331V24ZM3.99998 8.00004C3.6222 8.00004 3.30553 7.87226 3.04998 7.61671C2.79442 7.36115 2.66664 7.04449 2.66664 6.66671C2.66664 6.28893 2.79442 5.97226 3.04998 5.71671C3.30553 5.46115 3.6222 5.33337 3.99998 5.33337H21.3333C21.7111 5.33337 22.0278 5.46115 22.2833 5.71671C22.5389 5.97226 22.6666 6.28893 22.6666 6.66671C22.6666 7.04449 22.5389 7.36115 22.2833 7.61671C22.0278 7.87226 21.7111 8.00004 21.3333 8.00004H3.99998Z" fill="#333333"/>
</g>
</svg>
