<svg width="120" height="120" viewBox="0 0 120 120" fill="none" xmlns="http://www.w3.org/2000/svg">
<g id="check_circle">
<mask id="mask0_469_5703" style="mask-type:alpha" maskUnits="userSpaceOnUse" x="0" y="0" width="120" height="120">
<rect id="Bounding box" width="120" height="120" fill="#D9D9D9"/>
</mask>
<g mask="url(#mask0_469_5703)">
<path id="check_circle_2" d="M53 69L42.25 58.25C41.3333 57.3333 40.1667 56.875 38.75 56.875C37.3333 56.875 36.1667 57.3333 35.25 58.25C34.3333 59.1667 33.875 60.3333 33.875 61.75C33.875 63.1667 34.3333 64.3333 35.25 65.25L49.5 79.5C50.5 80.5 51.6667 81 53 81C54.3333 81 55.5 80.5 56.5 79.5L84.75 51.25C85.6667 50.3333 86.125 49.1667 86.125 47.75C86.125 46.3333 85.6667 45.1667 84.75 44.25C83.8333 43.3333 82.6667 42.875 81.25 42.875C79.8333 42.875 78.6667 43.3333 77.75 44.25L53 69ZM60 110C53.0833 110 46.5833 108.687 40.5 106.062C34.4167 103.437 29.125 99.875 24.625 95.375C20.125 90.875 16.5625 85.5833 13.9375 79.5C11.3125 73.4167 10 66.9167 10 60C10 53.0833 11.3125 46.5833 13.9375 40.5C16.5625 34.4167 20.125 29.125 24.625 24.625C29.125 20.125 34.4167 16.5625 40.5 13.9375C46.5833 11.3125 53.0833 10 60 10C66.9167 10 73.4167 11.3125 79.5 13.9375C85.5833 16.5625 90.875 20.125 95.375 24.625C99.875 29.125 103.438 34.4167 106.063 40.5C108.688 46.5833 110 53.0833 110 60C110 66.9167 108.688 73.4167 106.063 79.5C103.438 85.5833 99.875 90.875 95.375 95.375C90.875 99.875 85.5833 103.437 79.5 106.062C73.4167 108.687 66.9167 110 60 110Z" fill="#16A34A"/>
</g>
</g>
</svg>
