<svg width="24" height="25" viewBox="0 0 24 25" fill="none" xmlns="http://www.w3.org/2000/svg">
<g id="corporate_fare">
<mask id="mask0_464_5456" style="mask-type:alpha" maskUnits="userSpaceOnUse" x="0" y="0" width="24" height="25">
<rect id="Bounding box" y="0.5" width="24" height="24" fill="#D9D9D9"/>
</mask>
<g mask="url(#mask0_464_5456)">
<path id="corporate_fare_2" d="M4 21.5C3.45 21.5 2.97917 21.3042 2.5875 20.9125C2.19583 20.5208 2 20.05 2 19.5V5.5C2 4.95 2.19583 4.47917 2.5875 4.0875C2.97917 3.69583 3.45 3.5 4 3.5H10C10.55 3.5 11.0208 3.69583 11.4125 4.0875C11.8042 4.47917 12 4.95 12 5.5V7.5H20C20.55 7.5 21.0208 7.69583 21.4125 8.0875C21.8042 8.47917 22 8.95 22 9.5V19.5C22 20.05 21.8042 20.5208 21.4125 20.9125C21.0208 21.3042 20.55 21.5 20 21.5H4ZM4 19.5H10V17.5H4V19.5ZM4 15.5H10V13.5H4V15.5ZM4 11.5H10V9.5H4V11.5ZM4 7.5H10V5.5H4V7.5ZM12 19.5H20V9.5H12V19.5ZM15 13.5C14.7167 13.5 14.4792 13.4042 14.2875 13.2125C14.0958 13.0208 14 12.7833 14 12.5C14 12.2167 14.0958 11.9792 14.2875 11.7875C14.4792 11.5958 14.7167 11.5 15 11.5H17C17.2833 11.5 17.5208 11.5958 17.7125 11.7875C17.9042 11.9792 18 12.2167 18 12.5C18 12.7833 17.9042 13.0208 17.7125 13.2125C17.5208 13.4042 17.2833 13.5 17 13.5H15ZM15 17.5C14.7167 17.5 14.4792 17.4042 14.2875 17.2125C14.0958 17.0208 14 16.7833 14 16.5C14 16.2167 14.0958 15.9792 14.2875 15.7875C14.4792 15.5958 14.7167 15.5 15 15.5H17C17.2833 15.5 17.5208 15.5958 17.7125 15.7875C17.9042 15.9792 18 16.2167 18 16.5C18 16.7833 17.9042 17.0208 17.7125 17.2125C17.5208 17.4042 17.2833 17.5 17 17.5H15Z" fill="#313131"/>
</g>
</g>
</svg>
