<svg width="24" height="24" viewBox="0 0 24 24" fill="none" xmlns="http://www.w3.org/2000/svg">
<g id="directions_bike">
<mask id="mask0_23_13091" style="mask-type:alpha" maskUnits="userSpaceOnUse" x="0" y="0" width="24" height="24">
<rect id="Bounding box" width="24" height="24" fill="#D9D9D9"/>
</mask>
<g mask="url(#mask0_23_13091)">
<path id="directions_bike_2" d="M15.5 5.5C14.95 5.5 14.4792 5.30417 14.0875 4.9125C13.6958 4.52083 13.5 4.05 13.5 3.5C13.5 2.95 13.6958 2.47917 14.0875 2.0875C14.4792 1.69583 14.95 1.5 15.5 1.5C16.05 1.5 16.5208 1.69583 16.9125 2.0875C17.3042 2.47917 17.5 2.95 17.5 3.5C17.5 4.05 17.3042 4.52083 16.9125 4.9125C16.5208 5.30417 16.05 5.5 15.5 5.5ZM10.8 10.5L12.45 12.225C12.6333 12.4083 12.7708 12.6167 12.8625 12.85C12.9542 13.0833 13 13.3333 13 13.6V18C13 18.2833 12.9042 18.5208 12.7125 18.7125C12.5208 18.9042 12.2833 19 12 19C11.7167 19 11.4792 18.9042 11.2875 18.7125C11.0958 18.5208 11 18.2833 11 18V14L7.8 11.2C7.56667 11 7.40833 10.7917 7.325 10.575C7.24167 10.3583 7.2 10.1 7.2 9.8C7.2 9.5 7.24583 9.24583 7.3375 9.0375C7.42917 8.82917 7.58333 8.61667 7.8 8.4L10.6 5.6C10.8167 5.38333 11.0458 5.22917 11.2875 5.1375C11.5292 5.04583 11.8 5 12.1 5C12.4 5 12.6708 5.04583 12.9125 5.1375C13.1542 5.22917 13.3833 5.38333 13.6 5.6L15.5 7.5C15.85 7.85 16.2417 8.14583 16.675 8.3875C17.1083 8.62917 17.5917 8.8 18.125 8.9C18.4083 8.95 18.6417 9.075 18.825 9.275C19.0083 9.475 19.1 9.71667 19.1 10C19.1 10.2833 19 10.5167 18.8 10.7C18.6 10.8833 18.3583 10.9583 18.075 10.925C17.2583 10.8083 16.5083 10.575 15.825 10.225C15.1417 9.875 14.5333 9.43333 14 8.9L13.2 8.1L10.8 10.5ZM5 12C6.41667 12 7.60417 12.4792 8.5625 13.4375C9.52083 14.3958 10 15.5833 10 17C10 18.4167 9.52083 19.6042 8.5625 20.5625C7.60417 21.5208 6.41667 22 5 22C3.58333 22 2.39583 21.5208 1.4375 20.5625C0.479167 19.6042 0 18.4167 0 17C0 15.5833 0.479167 14.3958 1.4375 13.4375C2.39583 12.4792 3.58333 12 5 12ZM5 20.5C5.95 20.5 6.77083 20.1542 7.4625 19.4625C8.15417 18.7708 8.5 17.95 8.5 17C8.5 16.05 8.15417 15.2292 7.4625 14.5375C6.77083 13.8458 5.95 13.5 5 13.5C4.05 13.5 3.22917 13.8458 2.5375 14.5375C1.84583 15.2292 1.5 16.05 1.5 17C1.5 17.95 1.84583 18.7708 2.5375 19.4625C3.22917 20.1542 4.05 20.5 5 20.5ZM19 12C20.4167 12 21.6042 12.4792 22.5625 13.4375C23.5208 14.3958 24 15.5833 24 17C24 18.4167 23.5208 19.6042 22.5625 20.5625C21.6042 21.5208 20.4167 22 19 22C17.5833 22 16.3958 21.5208 15.4375 20.5625C14.4792 19.6042 14 18.4167 14 17C14 15.5833 14.4792 14.3958 15.4375 13.4375C16.3958 12.4792 17.5833 12 19 12ZM19 20.5C19.95 20.5 20.7708 20.1542 21.4625 19.4625C22.1542 18.7708 22.5 17.95 22.5 17C22.5 16.05 22.1542 15.2292 21.4625 14.5375C20.7708 13.8458 19.95 13.5 19 13.5C18.05 13.5 17.2292 13.8458 16.5375 14.5375C15.8458 15.2292 15.5 16.05 15.5 17C15.5 17.95 15.8458 18.7708 16.5375 19.4625C17.2292 20.1542 18.05 20.5 19 20.5Z" fill="#313131"/>
</g>
</g>
</svg>
