<svg width="24" height="24" viewBox="0 0 24 24" fill="none" xmlns="http://www.w3.org/2000/svg">
<g id="hiking">
<mask id="mask0_23_13065" style="mask-type:alpha" maskUnits="userSpaceOnUse" x="0" y="0" width="24" height="24">
<rect id="Bounding box" width="24" height="24" fill="#D9D9D9"/>
</mask>
<g mask="url(#mask0_23_13065)">
<path id="hiking_2" d="M10.9016 15L9.27656 22.2C9.22656 22.4333 9.10573 22.625 8.91406 22.775C8.7224 22.925 8.50156 23 8.25156 23C7.91823 23 7.65156 22.875 7.45156 22.625C7.25156 22.375 7.1849 22.0917 7.25156 21.775L10.0766 7.45C10.1766 6.96667 10.4016 6.60417 10.7516 6.3625C11.1016 6.12083 11.4682 6 11.8516 6C12.2349 6 12.5891 6.08333 12.9141 6.25C13.2391 6.41667 13.5016 6.66667 13.7016 7L14.7016 8.6C15.0016 9.08333 15.3891 9.52083 15.8641 9.9125C16.3391 10.3042 16.8849 10.5917 17.5016 10.775V9.75C17.5016 9.53333 17.5724 9.35417 17.7141 9.2125C17.8557 9.07083 18.0349 9 18.2516 9C18.4682 9 18.6474 9.07083 18.7891 9.2125C18.9307 9.35417 19.0016 9.53333 19.0016 9.75V22.25C19.0016 22.4667 18.9307 22.6458 18.7891 22.7875C18.6474 22.9292 18.4682 23 18.2516 23C18.0349 23 17.8557 22.9292 17.7141 22.7875C17.5724 22.6458 17.5016 22.4667 17.5016 22.25V12.85C16.7016 12.6667 15.9599 12.375 15.2766 11.975C14.5932 11.575 14.0016 11.0833 13.5016 10.5L12.9016 13.5L14.7016 15.2C14.8016 15.3 14.8766 15.4125 14.9266 15.5375C14.9766 15.6625 15.0016 15.7917 15.0016 15.925V22C15.0016 22.2833 14.9057 22.5208 14.7141 22.7125C14.5224 22.9042 14.2849 23 14.0016 23C13.7182 23 13.4807 22.9042 13.2891 22.7125C13.0974 22.5208 13.0016 22.2833 13.0016 22V17L10.9016 15ZM6.45156 12.95L5.30156 12.725C5.0349 12.675 4.82656 12.5375 4.67656 12.3125C4.52656 12.0875 4.47656 11.8333 4.52656 11.55L5.27656 7.625C5.37656 7.05833 5.67656 6.62917 6.17656 6.3375C6.67656 6.04583 7.21823 5.95833 7.80156 6.075C8.0849 6.125 8.2974 6.2625 8.43906 6.4875C8.58073 6.7125 8.62656 6.96667 8.57656 7.25L7.62656 12.15C7.57656 12.4333 7.43906 12.65 7.21406 12.8C6.98906 12.95 6.7349 13 6.45156 12.95ZM13.5016 5.5C12.9516 5.5 12.4807 5.30417 12.0891 4.9125C11.6974 4.52083 11.5016 4.05 11.5016 3.5C11.5016 2.95 11.6974 2.47917 12.0891 2.0875C12.4807 1.69583 12.9516 1.5 13.5016 1.5C14.0516 1.5 14.5224 1.69583 14.9141 2.0875C15.3057 2.47917 15.5016 2.95 15.5016 3.5C15.5016 4.05 15.3057 4.52083 14.9141 4.9125C14.5224 5.30417 14.0516 5.5 13.5016 5.5Z" fill="#313131"/>
</g>
</g>
</svg>
