<svg width="24" height="24" viewBox="0 0 24 24" fill="none" xmlns="http://www.w3.org/2000/svg">
<g id="kayaking">
<mask id="mask0_23_13104" style="mask-type:alpha" maskUnits="userSpaceOnUse" x="0" y="0" width="24" height="24">
<rect id="Bounding box" width="24" height="24" fill="#D9D9D9"/>
</mask>
<g mask="url(#mask0_23_13104)">
<path id="kayaking_2" d="M3.00078 23.0009C2.71745 23.0009 2.47995 22.905 2.28828 22.7134C2.09661 22.5217 2.00078 22.2842 2.00078 22.0009C2.00078 21.7175 2.09661 21.48 2.28828 21.2884C2.47995 21.0967 2.71745 21.0009 3.00078 21.0009C3.43411 21.0009 3.86328 20.9467 4.28828 20.8384C4.71328 20.73 5.11745 20.5592 5.50078 20.3259C5.65078 20.2425 5.81745 20.2009 6.00078 20.2009C6.18411 20.2009 6.35078 20.2425 6.50078 20.3259C6.88411 20.5592 7.28828 20.73 7.71328 20.8384C8.13828 20.9467 8.56745 21.0009 9.00078 21.0009C9.43411 21.0009 9.86328 20.9467 10.2883 20.8384C10.7133 20.73 11.1174 20.5592 11.5008 20.3259C11.6508 20.2425 11.8216 20.2009 12.0133 20.2009C12.2049 20.2009 12.3674 20.2425 12.5008 20.3259C12.8841 20.5592 13.2883 20.73 13.7133 20.8384C14.1383 20.9467 14.5674 21.0009 15.0008 21.0009C15.4341 21.0009 15.8633 20.9467 16.2883 20.8384C16.7133 20.73 17.1174 20.5592 17.5008 20.3259C17.6341 20.2425 17.8008 20.2009 18.0008 20.2009C18.2008 20.2009 18.3674 20.2425 18.5008 20.3259C18.8841 20.5592 19.2883 20.73 19.7133 20.8384C20.1383 20.9467 20.5674 21.0009 21.0008 21.0009C21.2841 21.0009 21.5216 21.0967 21.7133 21.2884C21.9049 21.48 22.0008 21.7175 22.0008 22.0009C22.0008 22.2842 21.9049 22.5217 21.7133 22.7134C21.5216 22.905 21.2841 23.0009 21.0008 23.0009C20.4841 23.0009 19.9758 22.9384 19.4758 22.8134C18.9758 22.6884 18.4841 22.5009 18.0008 22.2509C17.5174 22.5009 17.0258 22.6884 16.5258 22.8134C16.0258 22.9384 15.5174 23.0009 15.0008 23.0009C14.4841 23.0009 13.9758 22.9384 13.4758 22.8134C12.9758 22.6884 12.4841 22.5009 12.0008 22.2509C11.5174 22.5009 11.0258 22.6884 10.5258 22.8134C10.0258 22.9384 9.51745 23.0009 9.00078 23.0009C8.48411 23.0009 7.97578 22.9384 7.47578 22.8134C6.97578 22.6884 6.48411 22.5009 6.00078 22.2509C5.51745 22.5009 5.02578 22.6884 4.52578 22.8134C4.02578 22.9384 3.51745 23.0009 3.00078 23.0009ZM12.0008 9.50087C11.4508 9.50087 10.9799 9.30504 10.5883 8.91337C10.1966 8.5217 10.0008 8.05087 10.0008 7.50087C10.0008 6.95087 10.1966 6.48004 10.5883 6.08837C10.9799 5.6967 11.4508 5.50087 12.0008 5.50087C12.5508 5.50087 13.0216 5.6967 13.4133 6.08837C13.8049 6.48004 14.0008 6.95087 14.0008 7.50087C14.0008 8.05087 13.8049 8.5217 13.4133 8.91337C13.0216 9.30504 12.5508 9.50087 12.0008 9.50087ZM9.00078 19.0009C8.55078 19.0009 8.12578 18.9175 7.72578 18.7509C7.32578 18.5842 6.95912 18.3675 6.62578 18.1009C6.44245 17.9509 6.22995 17.8759 5.98828 17.8759C5.74661 17.8759 5.53411 17.9509 5.35078 18.1009C5.13411 18.2675 4.90911 18.4175 4.67578 18.5509C4.44245 18.6842 4.19245 18.7925 3.92578 18.8759L3.22578 18.6759C2.99245 18.6092 2.75911 18.5342 2.52578 18.4509C2.04245 18.3009 1.80078 17.9842 1.80078 17.5009C1.80078 17.0175 2.04245 16.7009 2.52578 16.5509C3.25911 16.3175 4.02161 16.105 4.81328 15.9134C5.60495 15.7217 6.37578 15.5592 7.12578 15.4259L8.47578 11.2509C8.65911 10.6842 9.00495 10.3092 9.51328 10.1259C10.0216 9.94254 10.5008 9.96754 10.9508 10.2009L13.5008 11.5009L16.3258 10.0009L17.9758 6.30087L17.6258 5.35087C17.5924 5.21754 17.5758 5.09254 17.5758 4.97587C17.5758 4.85921 17.6008 4.73421 17.6508 4.60087L18.4008 2.92587C18.5174 2.6592 18.7049 2.47587 18.9633 2.37587C19.2216 2.27587 19.4758 2.2842 19.7258 2.40087L21.0758 3.02587C21.3424 3.14254 21.5258 3.33004 21.6258 3.58837C21.7258 3.8467 21.7174 4.10087 21.6008 4.35087L20.8508 6.02587C20.8008 6.1592 20.7258 6.26754 20.6258 6.35087C20.5258 6.43421 20.4091 6.50087 20.2758 6.55087L19.3508 6.90087L15.6508 15.2509C16.6341 15.3675 17.6299 15.5425 18.6383 15.7759C19.6466 16.0092 20.5924 16.2675 21.4758 16.5509C21.9424 16.7009 22.1758 17.0175 22.1758 17.5009C22.1758 17.9842 21.9424 18.3009 21.4758 18.4509C21.2424 18.5342 21.0049 18.6092 20.7633 18.6759C20.5216 18.7425 20.2924 18.8092 20.0758 18.8759C19.8091 18.7925 19.5549 18.6884 19.3133 18.5634C19.0716 18.4384 18.8424 18.2842 18.6258 18.1009C18.4424 17.9509 18.2341 17.8759 18.0008 17.8759C17.7674 17.8759 17.5591 17.9509 17.3758 18.1009C17.0424 18.3675 16.6758 18.5842 16.2758 18.7509C15.8758 18.9175 15.4508 19.0009 15.0008 19.0009C14.5508 19.0009 14.1258 18.9175 13.7258 18.7509C13.3258 18.5842 12.9591 18.3675 12.6258 18.1009C12.4424 17.9509 12.2341 17.8759 12.0008 17.8759C11.7674 17.8759 11.5591 17.9509 11.3758 18.1009C11.0424 18.3675 10.6758 18.5842 10.2758 18.7509C9.87578 18.9175 9.45078 19.0009 9.00078 19.0009ZM14.0758 15.0759L15.0258 12.9509L13.5008 13.7509L11.7508 12.8509L11.0508 15.0009H12.0008C12.3508 15.0009 12.7008 15.005 13.0508 15.0134C13.4008 15.0217 13.7424 15.0425 14.0758 15.0759Z" fill="#313131"/>
</g>
</g>
</svg>
