<svg width="24" height="24" viewBox="0 0 24 24" fill="none" xmlns="http://www.w3.org/2000/svg">
<g id="landscape">
<mask id="mask0_23_13078" style="mask-type:alpha" maskUnits="userSpaceOnUse" x="0" y="0" width="24" height="24">
<rect id="Bounding box" width="24" height="24" fill="#D9D9D9"/>
</mask>
<g mask="url(#mask0_23_13078)">
<path id="landscape_2" d="M3.00072 18.0008C2.58405 18.0008 2.28405 17.8174 2.10072 17.4508C1.91739 17.0841 1.95072 16.7341 2.20072 16.4008L6.20072 11.0758C6.30072 10.9424 6.42155 10.8424 6.56322 10.7758C6.70489 10.7091 6.85072 10.6758 7.00072 10.6758C7.15072 10.6758 7.29655 10.7091 7.43822 10.7758C7.57989 10.8424 7.70072 10.9424 7.80072 11.0758L11.5007 16.0008H19.0007L14.0007 9.35078L11.5007 12.6508L10.2507 11.0008L13.2007 7.07578C13.3007 6.94245 13.4216 6.84245 13.5632 6.77578C13.7049 6.70911 13.8507 6.67578 14.0007 6.67578C14.1507 6.67578 14.2966 6.70911 14.4382 6.77578C14.5799 6.84245 14.7007 6.94245 14.8007 7.07578L21.8007 16.4008C22.0507 16.7341 22.0841 17.0841 21.9007 17.4508C21.7174 17.8174 21.4174 18.0008 21.0007 18.0008H3.00072ZM11.5007 16.0008H19.0007H11.2007H12.9132H11.5007ZM5.00072 16.0008H9.00072L7.00072 13.3258L5.00072 16.0008Z" fill="#313131"/>
</g>
</g>
</svg>
