<svg width="20" height="20" viewBox="0 0 20 20" fill="none" xmlns="http://www.w3.org/2000/svg">
<path d="M6.70368 10.9211L8.07868 11.8461L9.55368 11.0961C9.68702 11.0128 9.83702 10.9711 10.0037 10.9711C10.1703 10.9711 10.3203 11.0128 10.4537 11.0961L11.9287 11.8461L13.2537 10.9711L12.2537 8.99609H7.65368L6.70368 10.9211ZM3.22868 17.9961H16.7537L14.1537 12.7711L12.5537 13.8461C12.4037 13.9461 12.2412 14.0003 12.0662 14.0086C11.8912 14.0169 11.7203 13.9794 11.5537 13.8961L10.0037 13.1211L8.45368 13.8961C8.28702 13.9794 8.11618 14.0128 7.94118 13.9961C7.76618 13.9794 7.60368 13.9211 7.45368 13.8211L5.80368 12.7461L3.22868 17.9961ZM1.60368 19.9961C1.22035 19.9961 0.932848 19.8378 0.741181 19.5211C0.549515 19.2044 0.537015 18.8794 0.703681 18.5461L5.85368 8.12109C6.02035 7.78776 6.26618 7.51693 6.59118 7.30859C6.91618 7.10026 7.27035 6.99609 7.65368 6.99609H9.00368V0.996094C9.00368 0.71276 9.09952 0.47526 9.29118 0.283594C9.48285 0.0919271 9.72035 -0.00390625 10.0037 -0.00390625H15.2037C15.387 -0.00390625 15.5287 0.0752604 15.6287 0.233594C15.7287 0.391927 15.737 0.554427 15.6537 0.721094L15.1037 1.77109C15.0704 1.85443 15.0537 1.92943 15.0537 1.99609C15.0537 2.06276 15.0704 2.13776 15.1037 2.22109L15.6537 3.27109C15.737 3.43776 15.7287 3.60026 15.6287 3.75859C15.5287 3.91693 15.387 3.99609 15.2037 3.99609H11.0037V6.99609H12.2537C12.637 6.99609 12.987 7.09609 13.3037 7.29609C13.6203 7.49609 13.8704 7.76276 14.0537 8.09609L19.2787 18.5461C19.4454 18.8794 19.4329 19.2044 19.2412 19.5211C19.0495 19.8378 18.762 19.9961 18.3787 19.9961H1.60368Z" fill="#313131"/>
</svg>
