<svg width="24" height="24" viewBox="0 0 24 24" fill="none" xmlns="http://www.w3.org/2000/svg">
<g id="emoji_people">
<mask id="mask0_425_5785" style="mask-type:alpha" maskUnits="userSpaceOnUse" x="0" y="0" width="24" height="24">
<rect id="Bounding box" width="24" height="24" fill="#D9D9D9"/>
</mask>
<g mask="url(#mask0_425_5785)">
<path id="emoji_people_2" d="M8.99621 21V8.775C7.61287 8.40833 6.48371 7.675 5.60871 6.575C4.73371 5.475 4.21287 4.225 4.04621 2.825C4.01287 2.59167 4.09621 2.39583 4.29621 2.2375C4.49621 2.07917 4.72954 2 4.99621 2C5.26287 2 5.49621 2.07083 5.69621 2.2125C5.89621 2.35417 6.01287 2.55 6.04621 2.8C6.22954 4 6.74621 5 7.59621 5.8C8.44621 6.6 9.49621 7 10.7462 7H13.2462C13.7462 7 14.2129 7.09167 14.6462 7.275C15.0795 7.45833 15.4712 7.725 15.8212 8.075L19.6462 11.9C19.8295 12.0833 19.9212 12.3167 19.9212 12.6C19.9212 12.8833 19.8295 13.1167 19.6462 13.3C19.4629 13.4833 19.2295 13.575 18.9462 13.575C18.6629 13.575 18.4295 13.4833 18.2462 13.3L14.9962 10.05V21C14.9962 21.2833 14.9004 21.5208 14.7087 21.7125C14.517 21.9042 14.2795 22 13.9962 22C13.7129 22 13.4754 21.9042 13.2837 21.7125C13.092 21.5208 12.9962 21.2833 12.9962 21V16H10.9962V21C10.9962 21.2833 10.9004 21.5208 10.7087 21.7125C10.517 21.9042 10.2795 22 9.99621 22C9.71287 22 9.47537 21.9042 9.28371 21.7125C9.09204 21.5208 8.99621 21.2833 8.99621 21ZM11.9962 6C11.4462 6 10.9754 5.80417 10.5837 5.4125C10.192 5.02083 9.99621 4.55 9.99621 4C9.99621 3.45 10.192 2.97917 10.5837 2.5875C10.9754 2.19583 11.4462 2 11.9962 2C12.5462 2 13.017 2.19583 13.4087 2.5875C13.8004 2.97917 13.9962 3.45 13.9962 4C13.9962 4.55 13.8004 5.02083 13.4087 5.4125C13.017 5.80417 12.5462 6 11.9962 6Z" fill="#313131"/>
</g>
</g>
</svg>
