<svg width="58" height="57" viewBox="0 0 58 57" fill="none" xmlns="http://www.w3.org/2000/svg">
<path fill-rule="evenodd" clip-rule="evenodd" d="M28.9643 51.7038C15.6598 51.7038 4.86194 41.2922 4.86194 28.4636C4.86194 15.635 15.6598 5.22339 28.9643 5.22339C42.2688 5.22339 53.0667 15.635 53.0667 28.4636C53.0667 41.2922 42.2688 51.7038 28.9643 51.7038ZM37.4848 29.2739C38.0368 28.8747 38.0368 28.0525 37.4848 27.6533L25.7298 19.1525C25.0686 18.6743 24.1438 19.1467 24.1438 19.9628V36.9644C24.1438 37.7805 25.0686 38.253 25.7298 37.7748L37.4848 29.2739Z" fill="#C2D1D9"/>
<mask id="mask0_418_5249" style="mask-type:luminance" maskUnits="userSpaceOnUse" x="4" y="5" width="50" height="47">
<path fill-rule="evenodd" clip-rule="evenodd" d="M28.9643 51.7038C15.6598 51.7038 4.86194 41.2922 4.86194 28.4636C4.86194 15.635 15.6598 5.22339 28.9643 5.22339C42.2688 5.22339 53.0667 15.635 53.0667 28.4636C53.0667 41.2922 42.2688 51.7038 28.9643 51.7038ZM37.4848 29.2739C38.0368 28.8747 38.0368 28.0525 37.4848 27.6533L25.7298 19.1525C25.0686 18.6743 24.1438 19.1467 24.1438 19.9628V36.9644C24.1438 37.7805 25.0686 38.253 25.7298 37.7748L37.4848 29.2739Z" fill="white"/>
</mask>
<g mask="url(#mask0_418_5249)">
<rect x="0.0415039" y="0.575439" width="57.8457" height="55.7765" fill="#C2D1D9"/>
</g>
</svg>
