<svg width="22" height="40" viewBox="0 0 22 40" fill="none" xmlns="http://www.w3.org/2000/svg">
<g id="Group 45534">
<path id="Vector" d="M17.7821 18.0246L18.4473 14.8591L20.9227 15.38L20.3921 18.6029L17.7821 18.0246Z" fill="#2563EB"/>
<path id="Vector_2" d="M19.0282 12.0124L19.4022 10.4325C19.5246 9.90705 19.6459 9.38042 19.7563 8.86298L21.6668 9.2175C21.5918 9.77167 21.5102 10.3132 21.4275 10.8547L21.1738 12.4748L19.0282 12.0124Z" fill="#2563EB"/>
<path id="Vector_3" d="M7.70508 34.9941L7.75141 40L8.21251 39.9667L8.62508 39.9277C8.90968 39.9001 9.20752 39.868 9.53956 39.8198C9.70392 39.7969 9.88152 39.7659 10.0624 39.7303C10.2478 39.6913 10.4375 39.65 10.6305 39.5938C11.0177 39.486 11.3873 39.3402 11.6995 39.198L9.99735 34.6844C9.27812 34.8863 8.51476 34.9895 7.70508 34.9941Z" fill="#2563EB"/>
<path id="Vector_4" d="M12.7579 33.2533C12.5539 33.4185 12.3432 33.5711 12.1281 33.7122L14.6012 37.4284C15.1208 37.02 15.6304 36.5438 16.0838 36.0103C16.3111 35.7441 16.5229 35.463 16.717 35.1762C16.8152 35.0328 16.9067 34.8882 16.9961 34.7413C17.0832 34.5956 17.1627 34.4522 17.2454 34.3077L13.8941 32.122C13.561 32.5304 13.1826 32.9079 12.7568 33.2533H12.7579Z" fill="#2563EB"/>
<path id="Vector_5" d="M15.5797 28.6887C15.4848 29.1682 15.3547 29.6237 15.1914 30.0551L18.407 30.9684C18.5283 30.3936 18.6287 29.8371 18.7225 29.2864C18.8162 28.7357 18.9034 28.1919 18.9883 27.6492L15.9349 26.9596L15.5797 28.6875V28.6887Z" fill="#2563EB"/>
<path id="Vector_6" d="M17.0773 20.8717L16.4209 24.067L19.4368 24.7348L19.9288 21.5073L17.0773 20.8717Z" fill="#2563EB"/>
<path id="Vector_7" d="M4.97037 34.5137C4.97037 34.5137 3.94778 34.0812 3.13699 33.1886L0.575562 37.6861C1.02232 38.0946 1.52424 38.4491 1.99196 38.7359C2.69795 39.1708 3.42822 39.4645 4.13642 39.6595L5.5848 34.7306C5.3697 34.6686 5.16562 34.5952 4.97037 34.5126V34.5137Z" fill="#2563EB"/>
<g id="Group">
<path id="Vector_8" d="M8.63547 30.1642C9.64593 30.1642 10.2571 29.6525 10.4711 28.6291L14.022 11.1999C14.1279 10.7295 14.0683 10.3566 13.8422 10.079C13.616 9.80246 13.2763 9.66364 12.8251 9.66364C11.8411 9.66364 11.2421 10.1753 11.0292 11.1988L7.47831 28.628C7.475 28.644 7.47279 28.6589 7.46948 28.675V29.4093C7.50478 29.5355 7.55994 29.6491 7.63826 29.7489C7.85116 30.0254 8.1832 30.1642 8.63547 30.1642Z" fill="#2563EB"/>
<path id="Vector_9" d="M14.567 31.1997V31.1331C14.5532 31.1549 14.5406 31.1779 14.5269 31.1997H14.567Z" fill="#2563EB"/>
</g>
<path id="Vector_10" d="M20.1958 1.94293C19.3155 1.27518 18.3658 0.784125 17.3321 0.455987L17.5748 0.546627C16.5975 0.158827 15.6025 0.0475354 14.6052 0.008526C10.1817 -0.13948 6.68267 1.63774 4.2139 5.47673C3.46599 6.66078 3.07548 8.03299 2.82397 9.39258C2.48973 11.0574 1.49803 19.0428 1.2388 20.8854C0.852708 23.8869 0.367337 27.0191 0 30.0297L1.5951 30.2798L2.17314 30.3957L3.68992 22.4802C3.88407 21.5968 4.07932 20.703 4.27567 19.8092L6.02852 11.187C6.24032 10.1888 6.59994 9.29506 7.10296 8.5034C7.63245 7.5144 8.55465 6.62751 9.43825 6.00565C10.3825 5.3597 11.393 5.0373 12.5126 4.96731C12.7101 4.95469 12.9142 4.9501 13.1182 4.9501C13.3576 4.93174 13.6014 4.92142 13.8485 4.92142C15.79 4.92142 17.2461 5.49623 18.2168 6.64357C18.2279 6.65619 18.2367 6.66881 18.2466 6.68143L20.8147 2.45809C20.6172 2.27566 20.4109 2.10241 20.1969 1.94179L20.1958 1.94293Z" fill="#2563EB"/>
</g>
</svg>
