<svg width="18" height="18" viewBox="0 0 18 18" fill="none" xmlns="http://www.w3.org/2000/svg">
<path d="M1.50033 4.83268V1.49935L4.83366 3.16602L1.50033 4.83268ZM14.0003 4.83268V1.49935L17.3337 3.16602L14.0003 4.83268ZM8.16699 3.99935V0.666016L11.5003 2.33268L8.16699 3.99935ZM8.16699 17.3327C7.11144 17.3049 6.1288 17.2181 5.21907 17.0723C4.30935 16.9264 3.51769 16.7424 2.84408 16.5202C2.17046 16.298 1.63921 16.041 1.25033 15.7493C0.861437 15.4577 0.666992 15.1521 0.666992 14.8327V7.33268C0.666992 6.98546 0.885742 6.66254 1.32324 6.36393C1.76074 6.06532 2.35449 5.80143 3.10449 5.57227C3.85449 5.3431 4.73644 5.16254 5.75032 5.0306C6.76421 4.89865 7.84755 4.83268 9.00032 4.83268C10.1531 4.83268 11.2364 4.89865 12.2503 5.0306C13.2642 5.16254 14.1462 5.3431 14.8962 5.57227C15.6462 5.80143 16.2399 6.06532 16.6774 6.36393C17.1149 6.66254 17.3337 6.98546 17.3337 7.33268V14.8327C17.3337 15.1521 17.1392 15.4577 16.7503 15.7493C16.3614 16.041 15.8302 16.298 15.1566 16.5202C14.483 16.7424 13.6913 16.9264 12.7816 17.0723C11.8719 17.2181 10.8892 17.3049 9.83366 17.3327V13.9993H8.16699V17.3327ZM9.00032 8.16601C10.3475 8.16601 11.5107 8.08615 12.4899 7.92643C13.4691 7.76671 14.2503 7.58268 14.8337 7.37435C14.8337 7.3049 14.3059 7.14171 13.2503 6.88476C12.1948 6.62782 10.7781 6.49935 9.00032 6.49935C7.22255 6.49935 5.80588 6.62782 4.75032 6.88476C3.69477 7.14171 3.16699 7.3049 3.16699 7.37435C3.75032 7.58268 4.53157 7.76671 5.51074 7.92643C6.48991 8.08615 7.6531 8.16601 9.00032 8.16601ZM6.50032 15.541V12.3327H11.5003V15.541C12.6114 15.4299 13.5212 15.2667 14.2295 15.0514C14.9378 14.8362 15.417 14.6452 15.667 14.4785V8.83268C14.9031 9.13824 13.9448 9.38129 12.792 9.56185C11.6392 9.7424 10.3753 9.83268 9.00032 9.83268C7.62532 9.83268 6.36144 9.7424 5.20866 9.56185C4.05588 9.38129 3.09755 9.13824 2.33366 8.83268V14.4785C2.58366 14.6452 3.06283 14.8362 3.77116 15.0514C4.47949 15.2667 5.38921 15.4299 6.50032 15.541Z" fill="#313131"/>
</svg>
