<svg width="21" height="18" viewBox="0 0 21 18" fill="none" xmlns="http://www.w3.org/2000/svg">
<path d="M2.09585 18C1.51949 18 1.02609 17.8042 0.615655 17.4125C0.205218 17.0208 0 16.55 0 16V2C0 1.45 0.205218 0.979167 0.615655 0.5875C1.02609 0.195833 1.51949 0 2.09585 0H8.38339C8.95974 0 9.45314 0.195833 9.86358 0.5875C10.274 0.979167 10.4792 1.45 10.4792 2V4H18.8626C19.439 4 19.9324 4.19583 20.3428 4.5875C20.7532 4.97917 20.9585 5.45 20.9585 6V16C20.9585 16.55 20.7532 17.0208 20.3428 17.4125C19.9324 17.8042 19.439 18 18.8626 18H2.09585ZM2.09585 16H8.38339V14H2.09585V16ZM2.09585 12H8.38339V10H2.09585V12ZM2.09585 8H8.38339V6H2.09585V8ZM2.09585 4H8.38339V2H2.09585V4ZM10.4792 16H18.8626V6H10.4792V16ZM13.623 10C13.3261 10 13.0772 9.90417 12.8764 9.7125C12.6755 9.52083 12.5751 9.28333 12.5751 9C12.5751 8.71667 12.6755 8.47917 12.8764 8.2875C13.0772 8.09583 13.3261 8 13.623 8H15.7188C16.0158 8 16.2646 8.09583 16.4655 8.2875C16.6663 8.47917 16.7668 8.71667 16.7668 9C16.7668 9.28333 16.6663 9.52083 16.4655 9.7125C16.2646 9.90417 16.0158 10 15.7188 10H13.623ZM13.623 14C13.3261 14 13.0772 13.9042 12.8764 13.7125C12.6755 13.5208 12.5751 13.2833 12.5751 13C12.5751 12.7167 12.6755 12.4792 12.8764 12.2875C13.0772 12.0958 13.3261 12 13.623 12H15.7188C16.0158 12 16.2646 12.0958 16.4655 12.2875C16.6663 12.4792 16.7668 12.7167 16.7668 13C16.7668 13.2833 16.6663 13.5208 16.4655 13.7125C16.2646 13.9042 16.0158 14 15.7188 14H13.623Z" fill="#313131"/>
</svg>
