<svg width="24" height="24" viewBox="0 0 24 24" fill="none" xmlns="http://www.w3.org/2000/svg">
<g clip-path="url(#clip0_806_5922)">
<path d="M23.5169 2.087C23.1719 1.45559 22.6633 0.928655 22.0445 0.561458C21.4257 0.19426 20.7195 0.000328576 19.9999 0L3.99993 0C3.28039 0.000328576 2.57418 0.19426 1.95538 0.561458C1.33659 0.928655 0.827989 1.45559 0.48293 2.087C0.135022 2.7086 -0.0365561 3.41341 -0.0132939 4.12537C0.00996823 4.83733 0.227188 5.52943 0.61493 6.127C1.78701 7.82675 3.33189 9.2363 5.13168 10.2481C6.93148 11.2598 8.93862 11.8471 10.9999 11.965V22H6.99993C6.73471 22 6.48036 22.1054 6.29282 22.2929C6.10529 22.4804 5.99993 22.7348 5.99993 23C5.99993 23.2652 6.10529 23.5196 6.29282 23.7071C6.48036 23.8946 6.73471 24 6.99993 24H16.9999C17.2651 24 17.5195 23.8946 17.707 23.7071C17.8946 23.5196 17.9999 23.2652 17.9999 23C17.9999 22.7348 17.8946 22.4804 17.707 22.2929C17.5195 22.1054 17.2651 22 16.9999 22H12.9999V11.965C15.0612 11.8471 17.0684 11.2598 18.8682 10.2481C20.668 9.2363 22.2129 7.82675 23.3849 6.127C23.7727 5.52943 23.9899 4.83733 24.0132 4.12537C24.0364 3.41341 23.8648 2.7086 23.5169 2.087ZM3.99993 2H19.9999C20.5304 2 21.0391 2.21071 21.4141 2.58579C21.7892 2.96086 21.9999 3.46957 21.9999 4H1.99993C1.99993 3.46957 2.21064 2.96086 2.58572 2.58579C2.96079 2.21071 3.4695 2 3.99993 2ZM11.9999 10C10.3041 10.0059 8.62624 9.65253 7.07687 8.96308C5.5275 8.27363 4.14177 7.26377 3.01093 6H20.9889C19.8583 7.26406 18.4727 8.27413 16.9232 8.96361C15.3738 9.65308 13.6958 10.0063 11.9999 10Z" fill="#374957"/>
</g>
<defs>
<clipPath id="clip0_806_5922">
<rect width="24" height="24" fill="white"/>
</clipPath>
</defs>
</svg>
