<svg width="24" height="24" viewBox="0 0 24 24" fill="none" xmlns="http://www.w3.org/2000/svg">
<g clip-path="url(#clip0_806_6175)">
<path d="M23 18.9995V16.9995C22.9964 14.2569 21.9692 11.6143 20.1196 9.58915C18.27 7.56401 15.7311 6.30213 13 6.05053V4.72253C13.3813 4.5024 13.6793 4.1626 13.8478 3.75585C14.0162 3.34909 14.0458 2.89811 13.9319 2.47284C13.8179 2.04757 13.5668 1.67179 13.2175 1.40377C12.8682 1.13575 12.4403 0.990479 12 0.990479C11.5597 0.990479 11.1318 1.13575 10.7825 1.40377C10.4332 1.67179 10.1821 2.04757 10.0681 2.47284C9.9542 2.89811 9.98376 3.34909 10.1522 3.75585C10.3207 4.1626 10.6187 4.5024 11 4.72253V6.05053C8.26889 6.30213 5.73002 7.56401 3.88041 9.58915C2.0308 11.6143 1.00363 14.2569 1 16.9995V18.9995C0.734784 18.9995 0.48043 19.1049 0.292893 19.2924C0.105357 19.48 0 19.7343 0 19.9995C0 20.2647 0.105357 20.5191 0.292893 20.7066C0.48043 20.8942 0.734784 20.9995 1 20.9995H23C23.2652 20.9995 23.5196 20.8942 23.7071 20.7066C23.8946 20.5191 24 20.2647 24 19.9995C24 19.7343 23.8946 19.48 23.7071 19.2924C23.5196 19.1049 23.2652 18.9995 23 18.9995ZM3 16.9995C3.473 5.06553 20.531 5.07453 21 16.9995V18.9995H3V16.9995Z" fill="#374957"/>
</g>
<defs>
<clipPath id="clip0_806_6175">
<rect width="24" height="24" fill="white"/>
</clipPath>
</defs>
</svg>
