<svg width="24" height="24" viewBox="0 0 24 24" fill="none" xmlns="http://www.w3.org/2000/svg">
<g clip-path="url(#clip0_806_6165)">
<path d="M0 22.9994V15.9994C0.00264685 13.6132 0.951708 11.3256 2.63896 9.63835C4.32622 7.95109 6.61386 7.00203 9 6.99939H13.83V5.41339C13.8301 5.01789 13.9474 4.63129 14.1672 4.30247C14.387 3.97365 14.6993 3.71738 15.0647 3.56604C15.4301 3.4147 15.8322 3.37509 16.2201 3.45223C16.608 3.52936 16.9643 3.71977 17.244 3.99939L23.124 9.87838C23.6864 10.441 24.0024 11.2039 24.0024 11.9994C24.0024 12.7949 23.6864 13.5578 23.124 14.1204L17.244 19.9994C16.9643 20.279 16.608 20.4694 16.2201 20.5465C15.8322 20.6237 15.4301 20.5841 15.0647 20.4327C14.6993 20.2814 14.387 20.0251 14.1672 19.6963C13.9474 19.3675 13.8301 18.9809 13.83 18.5854V16.9994H8C6.40919 17.001 4.88399 17.6336 3.75911 18.7585C2.63424 19.8834 2.00159 21.4086 2 22.9994C2 23.2646 1.89464 23.5189 1.70711 23.7065C1.51957 23.894 1.26522 23.9994 1 23.9994C0.734784 23.9994 0.48043 23.894 0.292893 23.7065C0.105357 23.5189 0 23.2646 0 22.9994ZM15.83 7.99939C15.83 8.2646 15.7246 8.51896 15.5371 8.70649C15.3496 8.89403 15.0952 8.99938 14.83 8.99938H9C7.14414 9.0015 5.36489 9.73968 4.05259 11.052C2.7403 12.3643 2.00212 14.1435 2 15.9994V17.7134C2.74957 16.8603 3.67249 16.177 4.70715 15.709C5.74182 15.2409 6.86441 14.999 8 14.9994H14.83C15.0952 14.9994 15.3496 15.1047 15.5371 15.2923C15.7246 15.4798 15.83 15.7342 15.83 15.9994V18.5854L21.709 12.7064C21.8965 12.5189 22.0018 12.2645 22.0018 11.9994C22.0018 11.7342 21.8965 11.4799 21.709 11.2924L15.83 5.41339V7.99939Z" fill="#374957"/>
</g>
<defs>
<clipPath id="clip0_806_6165">
<rect width="24" height="24" fill="white"/>
</clipPath>
</defs>
</svg>
