<svg width="24" height="24" viewBox="0 0 24 24" fill="none" xmlns="http://www.w3.org/2000/svg">
<g clip-path="url(#clip0_806_6199)">
<path d="M22.9997 18.9995H20.9997V16.9995C20.9997 16.7343 20.8944 16.4799 20.7069 16.2924C20.5193 16.1049 20.265 15.9995 19.9997 15.9995C19.7345 15.9995 19.4802 16.1049 19.2926 16.2924C19.1051 16.4799 18.9998 16.7343 18.9998 16.9995V18.9995H16.9998C16.7345 18.9995 16.4802 19.1049 16.2926 19.2924C16.1051 19.4799 15.9998 19.7343 15.9998 19.9995C15.9998 20.2647 16.1051 20.5191 16.2926 20.7066C16.4802 20.8941 16.7345 20.9995 16.9998 20.9995H18.9998V22.9995C18.9998 23.2647 19.1051 23.5191 19.2926 23.7066C19.4802 23.8941 19.7345 23.9995 19.9997 23.9995C20.265 23.9995 20.5193 23.8941 20.7069 23.7066C20.8944 23.5191 20.9997 23.2647 20.9997 22.9995V20.9995H22.9997C23.265 20.9995 23.5193 20.8941 23.7068 20.7066C23.8944 20.5191 23.9997 20.2647 23.9997 19.9995C23.9997 19.7343 23.8944 19.4799 23.7068 19.2924C23.5193 19.1049 23.265 18.9995 22.9997 18.9995Z" fill="#374957"/>
<path d="M21 6H18C18 4.4087 17.3679 2.88258 16.2426 1.75736C15.1174 0.632141 13.5913 0 12 0C10.4087 0 8.88258 0.632141 7.75736 1.75736C6.63214 2.88258 6 4.4087 6 6H3C2.20435 6 1.44129 6.31607 0.87868 6.87868C0.31607 7.44129 0 8.20435 0 9L0 19C0.00158786 20.3256 0.528882 21.5964 1.46622 22.5338C2.40356 23.4711 3.67441 23.9984 5 24H14C14.2652 24 14.5196 23.8946 14.7071 23.7071C14.8946 23.5196 15 23.2652 15 23C15 22.7348 14.8946 22.4804 14.7071 22.2929C14.5196 22.1054 14.2652 22 14 22H5C4.20435 22 3.44129 21.6839 2.87868 21.1213C2.31607 20.5587 2 19.7956 2 19V9C2 8.73478 2.10536 8.48043 2.29289 8.29289C2.48043 8.10536 2.73478 8 3 8H6V10C6 10.2652 6.10536 10.5196 6.29289 10.7071C6.48043 10.8946 6.73478 11 7 11C7.26522 11 7.51957 10.8946 7.70711 10.7071C7.89464 10.5196 8 10.2652 8 10V8H16V10C16 10.2652 16.1054 10.5196 16.2929 10.7071C16.4804 10.8946 16.7348 11 17 11C17.2652 11 17.5196 10.8946 17.7071 10.7071C17.8946 10.5196 18 10.2652 18 10V8H21C21.2652 8 21.5196 8.10536 21.7071 8.29289C21.8946 8.48043 22 8.73478 22 9V14C22 14.2652 22.1054 14.5196 22.2929 14.7071C22.4804 14.8946 22.7348 15 23 15C23.2652 15 23.5196 14.8946 23.7071 14.7071C23.8946 14.5196 24 14.2652 24 14V9C24 8.20435 23.6839 7.44129 23.1213 6.87868C22.5587 6.31607 21.7956 6 21 6ZM8 6C8 4.93913 8.42143 3.92172 9.17157 3.17157C9.92172 2.42143 10.9391 2 12 2C13.0609 2 14.0783 2.42143 14.8284 3.17157C15.5786 3.92172 16 4.93913 16 6H8Z" fill="#374957"/>
</g>
<defs>
<clipPath id="clip0_806_6199">
<rect width="24" height="24" fill="white"/>
</clipPath>
</defs>
</svg>
