<svg width="24" height="24" viewBox="0 0 24 24" fill="none" xmlns="http://www.w3.org/2000/svg">
<g clip-path="url(#clip0_806_6172)">
<path d="M15.9999 7.99944C14.8696 8.0004 13.7525 8.24163 12.7226 8.70711C11.6926 9.1726 10.7734 9.85172 10.0259 10.6994C9.54936 10.4678 9.0477 10.292 8.53086 10.1754L9.89986 7.44644C9.97586 7.29429 10.0118 7.12528 10.0043 6.95537C9.99674 6.78546 9.94601 6.62028 9.85686 6.47544C9.53942 6.01278 9.1124 5.63587 8.61389 5.37833C8.11539 5.12078 7.56089 4.99062 6.99986 4.99944C6.43967 4.99145 5.88619 5.12201 5.38862 5.37952C4.89106 5.63702 4.46484 6.01349 4.14786 6.47544C4.05872 6.62028 4.00798 6.78546 4.00046 6.95537C3.99293 7.12528 4.02887 7.29429 4.10486 7.44644L5.46886 10.1734C4.43983 10.4 3.47523 10.856 2.64698 11.5073C1.81874 12.1587 1.14822 12.9886 0.685432 13.9352C0.222644 14.8818 -0.0204727 15.9207 -0.0257898 16.9744C-0.0311069 18.028 0.201513 19.0693 0.654724 20.0205C1.10793 20.9718 1.77004 21.8084 2.59167 22.4681C3.4133 23.1278 4.37325 23.5934 5.39995 23.8304C6.42664 24.0673 7.49358 24.0695 8.5212 23.8366C9.54883 23.6037 10.5106 23.1418 11.3349 22.4854C12.3582 23.2243 13.5419 23.7106 14.7892 23.9045C16.0365 24.0984 17.3119 23.9944 18.5113 23.601C19.7107 23.2076 20.7999 22.5359 21.6901 21.641C22.5802 20.746 23.2459 19.6532 23.6329 18.4517C24.0198 17.2502 24.1169 15.9742 23.9163 14.728C23.7157 13.4818 23.223 12.3007 22.4786 11.2814C21.7342 10.262 20.7591 9.43326 19.6331 8.86285C18.5071 8.29245 17.2621 7.99659 15.9999 7.99944ZM11.2339 19.6294C10.5698 18.7666 10.1554 17.738 10.0359 16.6558C9.91629 15.5737 10.0962 14.4794 10.5559 13.4924C11.3482 14.2868 11.8469 15.327 11.9701 16.4422C12.0933 17.5573 11.8337 18.6813 11.2339 19.6294ZM1.99986 16.9994C1.99775 16.1797 2.19773 15.3722 2.58209 14.6482C2.96645 13.9242 3.52335 13.3061 4.20351 12.8486C4.88366 12.3911 5.6661 12.1083 6.48158 12.0253C7.29706 11.9422 8.12045 12.0615 8.87886 12.3724C8.16531 13.7618 7.87641 15.3304 8.04819 16.8828C8.21997 18.4352 8.84482 19.9027 9.84486 21.1024C9.09605 21.6248 8.21826 21.9317 7.30709 21.9898C6.39592 22.0478 5.48629 21.8548 4.67724 21.4316C3.86819 21.0085 3.19074 20.3715 2.71866 19.59C2.24657 18.8085 1.99795 17.9125 1.99986 16.9994ZM15.9999 21.9994C14.8348 21.9998 13.6952 21.6588 12.7219 21.0184C13.7064 19.6267 14.1462 17.9221 13.9579 16.2277C13.7695 14.5334 12.9661 12.967 11.6999 11.8254C12.3894 11.1134 13.2446 10.5833 14.1891 10.2824C15.1336 9.98162 16.1378 9.91947 17.1122 10.1015C18.0865 10.2836 19.0006 10.7042 19.7727 11.3258C20.5448 11.9474 21.1508 12.7506 21.5367 13.6636C21.9226 14.5766 22.0763 15.571 21.984 16.5579C21.8917 17.5449 21.5564 18.4935 21.008 19.3192C20.4595 20.1449 19.7151 20.8218 18.8412 21.2895C17.9673 21.7572 16.9911 22.0011 15.9999 21.9994Z" fill="#374957"/>
<path d="M10.553 4.89517C10.6707 4.95471 10.7991 4.99035 10.9307 5.00004C11.0623 5.00973 11.1946 4.99328 11.3198 4.95164C11.445 4.90999 11.5607 4.84398 11.6603 4.7574C11.7599 4.67082 11.8413 4.56538 11.9 4.44717L12.9 2.44717C13.0185 2.2098 13.0379 1.93506 12.9539 1.68339C12.8699 1.43172 12.6894 1.22372 12.452 1.10517C12.3345 1.04647 12.2065 1.0115 12.0755 1.00224C11.9444 0.992987 11.8128 1.00963 11.6882 1.05124C11.4365 1.13525 11.2285 1.3158 11.11 1.55317L10.11 3.55317C9.99096 3.78991 9.97076 4.06421 10.0538 4.31583C10.1369 4.56745 10.3164 4.77582 10.553 4.89517Z" fill="#374957"/>
<path d="M2.10481 4.44717C2.22336 4.68521 2.43162 4.86639 2.68376 4.95088C2.80861 4.99271 2.94047 5.00954 3.07183 5.00041C3.20318 4.99129 3.33145 4.95637 3.44931 4.89767C3.56717 4.83897 3.67232 4.75763 3.75875 4.6583C3.84517 4.55896 3.91119 4.44357 3.95302 4.31873C3.99485 4.19388 4.01168 4.06201 4.00255 3.93066C3.99343 3.7993 3.95851 3.67103 3.89981 3.55317L2.89981 1.55317C2.78126 1.3158 2.57327 1.13525 2.3216 1.05124C2.06992 0.96722 1.79518 0.986622 1.55781 1.10517C1.32044 1.22373 1.13989 1.43172 1.05588 1.68339C0.971859 1.93506 0.991261 2.20981 1.10981 2.44717L2.10481 4.44717Z" fill="#374957"/>
<path d="M7 4C7.26521 4 7.51957 3.89464 7.7071 3.70711C7.89464 3.51957 8 3.26522 8 3V1C8 0.734784 7.89464 0.48043 7.7071 0.292893C7.51957 0.105357 7.26521 0 7 0C6.73478 0 6.48043 0.105357 6.29289 0.292893C6.10536 0.48043 6 0.734784 6 1V3C6 3.26522 6.10536 3.51957 6.29289 3.70711C6.48043 3.89464 6.73478 4 7 4Z" fill="#374957"/>
</g>
<defs>
<clipPath id="clip0_806_6172">
<rect width="24" height="24" fill="white"/>
</clipPath>
</defs>
</svg>
