<svg width="24" height="24" viewBox="0 0 24 24" fill="none" xmlns="http://www.w3.org/2000/svg">
<g clip-path="url(#clip0_806_5974)">
<path d="M9.28804 13.0668C6.97104 13.5128 5.82304 16.0928 5.32504 17.7008C5.27808 17.8507 5.26708 18.0095 5.29294 18.1644C5.31881 18.3193 5.3808 18.466 5.4739 18.5925C5.567 18.719 5.68859 18.8218 5.82882 18.8926C5.96905 18.9633 6.12398 19 6.28104 18.9998H10C10.4172 18.9998 10.8297 18.9129 11.2113 18.7446C11.593 18.5763 11.9353 18.3302 12.2165 18.0221C12.4977 17.714 12.7115 17.3507 12.8444 16.9553C12.9772 16.5599 13.0261 16.1411 12.988 15.7258C12.9349 15.3014 12.7947 14.8925 12.5762 14.5248C12.3577 14.1571 12.0657 13.8384 11.7183 13.5888C11.371 13.3392 10.9758 13.164 10.5577 13.0742C10.1395 12.9843 9.70725 12.9818 9.28804 13.0668Z" fill="#374957"/>
<path d="M23 8.979C22.7348 8.979 22.4804 9.08436 22.2929 9.27189C22.1054 9.45943 22 9.71378 22 9.979V15H18C17.2044 15 16.4413 15.3161 15.8787 15.8787C15.3161 16.4413 15 17.2044 15 18V22H5C4.20435 22 3.44129 21.6839 2.87868 21.1213C2.31607 20.5587 2 19.7956 2 19V5C2 4.20435 2.31607 3.44129 2.87868 2.87868C3.44129 2.31607 4.20435 2 5 2H16.042C16.3072 2 16.5616 1.89464 16.7491 1.70711C16.9366 1.51957 17.042 1.26522 17.042 1C17.042 0.734784 16.9366 0.48043 16.7491 0.292893C16.5616 0.105357 16.3072 0 16.042 0L5 0C3.67441 0.00158786 2.40356 0.528882 1.46622 1.46622C0.528882 2.40356 0.00158786 3.67441 0 5L0 19C0.00158786 20.3256 0.528882 21.5964 1.46622 22.5338C2.40356 23.4711 3.67441 23.9984 5 24H16.343C16.9998 24.0019 17.6504 23.8734 18.2572 23.6221C18.8639 23.3708 19.4149 23.0017 19.878 22.536L22.536 19.878C23.0017 19.4149 23.3708 18.8639 23.6221 18.2572C23.8734 17.6504 24.0019 16.9998 24 16.343V9.979C24 9.71378 23.8946 9.45943 23.7071 9.27189C23.5196 9.08436 23.2652 8.979 23 8.979ZM18.464 21.122C18.0607 21.5208 17.5534 21.798 17 21.922V18C17 17.7348 17.1054 17.4804 17.2929 17.2929C17.4804 17.1054 17.7348 17 18 17H21.925C21.801 17.5534 21.5238 18.0607 21.125 18.464L18.464 21.122Z" fill="#374957"/>
<path d="M14.5659 14.17C14.3681 14.1699 14.1748 14.1112 14.0104 14.0014C13.846 13.8915 13.7179 13.7353 13.6422 13.5526C13.5665 13.3699 13.5467 13.1689 13.5853 12.9749C13.6239 12.781 13.7191 12.6028 13.8589 12.463L21.7119 4.60995C21.7996 4.52236 21.8693 4.41832 21.9168 4.30378C21.9643 4.18924 21.9888 4.06646 21.9888 3.94245C21.9888 3.81845 21.9643 3.69567 21.9168 3.58113C21.8693 3.46659 21.7996 3.36254 21.7119 3.27495C21.6226 3.18213 21.5145 3.10955 21.3947 3.06211C21.275 3.01466 21.1465 2.99347 21.0179 2.99995C20.8893 3.00275 20.7627 3.03208 20.6461 3.08612C20.5294 3.14015 20.4251 3.21772 20.3399 3.31395L12.7399 11.721C12.562 11.9177 12.3133 12.0358 12.0484 12.0492C11.7835 12.0627 11.5242 11.9703 11.3274 11.7925C11.1306 11.6146 11.0125 11.3659 10.9991 11.101C10.9857 10.8361 11.078 10.5767 11.2559 10.38L18.8559 1.97995C19.1224 1.68242 19.4466 1.44213 19.8088 1.27367C20.171 1.10521 20.5636 1.01209 20.9629 0.999953C21.3628 0.991383 21.7603 1.06327 22.1319 1.21135C22.5035 1.35943 22.8415 1.58068 23.1259 1.86195C23.6771 2.41443 23.9867 3.16301 23.9867 3.94345C23.9867 4.7239 23.6771 5.47248 23.1259 6.02495L15.2729 13.878C15.1802 13.971 15.07 14.0446 14.9486 14.0948C14.8273 14.1449 14.6972 14.1704 14.5659 14.17Z" fill="#374957"/>
</g>
<defs>
<clipPath id="clip0_806_5974">
<rect width="24" height="24" fill="white"/>
</clipPath>
</defs>
</svg>
