<svg width="24" height="24" viewBox="0 0 24 24" fill="none" xmlns="http://www.w3.org/2000/svg">
<g clip-path="url(#clip0_806_6125)">
<path d="M23.119 0.882136C22.7605 0.519263 22.3144 0.254991 21.8239 0.114852C21.3335 -0.0252864 20.8151 -0.0365548 20.319 0.082136L4.31901 3.45214C3.39759 3.5785 2.52974 3.95961 1.81321 4.55255C1.09668 5.14548 0.559923 5.92669 0.263385 6.8082C-0.033153 7.68971 -0.0776925 8.6365 0.134782 9.54195C0.347257 10.4474 0.808307 11.2756 1.46601 11.9331L3.18401 13.6501C3.27699 13.7431 3.35073 13.8535 3.40101 13.975C3.45129 14.0964 3.47711 14.2267 3.47701 14.3581V17.5261C3.47922 17.9716 3.58176 18.4108 3.77701 18.8111L3.76901 18.8181L3.79501 18.8441C4.08802 19.4333 4.56659 19.9097 5.15701 20.2001L5.18301 20.2261L5.19001 20.2181C5.59037 20.4134 6.02958 20.5159 6.47501 20.5181H9.64301C9.90806 20.5179 10.1624 20.623 10.35 20.8101L12.067 22.5271C12.5275 22.9928 13.0757 23.3626 13.6798 23.6154C14.2839 23.8683 14.9321 23.999 15.587 24.0001C16.1328 23.9995 16.6748 23.9103 17.192 23.7361C18.0655 23.4493 18.8414 22.9242 19.4322 22.2198C20.0231 21.5155 20.4054 20.6601 20.536 19.7501L23.911 3.71514C24.0359 3.21478 24.0285 2.69056 23.8897 2.1939C23.7508 1.69724 23.4852 1.24521 23.119 0.882136ZM4.60001 12.2381L2.88101 10.5211C2.48073 10.1305 2.20018 9.63378 2.0723 9.08929C1.94441 8.5448 1.97449 7.97513 2.15901 7.44714C2.33791 6.90546 2.66862 6.42656 3.11181 6.0674C3.555 5.70824 4.09202 5.48392 4.65901 5.42114L20.5 2.08614L5.47501 17.1131V14.3581C5.47652 13.9645 5.39997 13.5744 5.24978 13.2105C5.09959 12.8466 4.87874 12.5161 4.60001 12.2381ZM18.571 19.4081C18.4942 19.9605 18.265 20.4805 17.9091 20.9098C17.5532 21.3391 17.0847 21.6607 16.5561 21.8385C16.0276 22.0163 15.46 22.0433 14.9169 21.9164C14.3739 21.7895 13.877 21.5138 13.482 21.1201L11.762 19.4001C11.4844 19.121 11.1542 18.8996 10.7904 18.7489C10.4267 18.5982 10.0367 18.5211 9.64301 18.5221H6.88801L21.915 3.50014L18.571 19.4081Z" fill="#374957"/>
</g>
<defs>
<clipPath id="clip0_806_6125">
<rect width="24" height="24" fill="white"/>
</clipPath>
</defs>
</svg>
