<svg width="24" height="24" viewBox="0 0 24 24" fill="none" xmlns="http://www.w3.org/2000/svg">
<g clip-path="url(#clip0_806_6153)">
<path d="M20.036 23.9993H3.96395C3.28814 24.0009 2.6232 23.8292 2.03257 23.5008C1.44194 23.1723 0.945331 22.698 0.59012 22.1231C0.23491 21.5481 0.0329505 20.8918 0.00351079 20.2166C-0.025929 19.5414 0.118133 18.87 0.421953 18.2663L8.45895 2.1883C8.76533 1.56885 9.22956 1.04109 9.80487 0.658192C10.3802 0.275297 11.0462 0.0507921 11.736 0.00729815C12.5142 -0.0422256 13.2897 0.138115 13.9663 0.525892C14.6428 0.913669 15.1904 1.49177 15.541 2.1883L23.578 18.2663C23.88 18.8702 24.0227 19.5412 23.9924 20.2157C23.9622 20.8902 23.76 21.5458 23.4052 22.1202C23.0503 22.6946 22.5545 23.1688 21.9648 23.4976C21.3751 23.8265 20.7111 23.9992 20.036 23.9993ZM1.99995 20.0423C2.00416 20.5612 2.21265 21.0576 2.58026 21.4239C2.94787 21.7902 3.445 21.9969 3.96395 21.9993H20.036C20.5549 21.9969 21.052 21.7902 21.4196 21.4239C21.7873 21.0576 21.9957 20.5612 22 20.0423C21.9994 19.7361 21.9268 19.4342 21.788 19.1613L13.753 3.0823C13.5904 2.75647 13.3403 2.48238 13.0306 2.29081C12.721 2.09924 12.3641 1.99775 12 1.99775C11.6358 1.99775 11.2789 2.09924 10.9693 2.29081C10.6596 2.48238 10.4095 2.75647 10.247 3.0823L2.20995 19.1613C2.07178 19.4344 1.99984 19.7362 1.99995 20.0423Z" fill="#374957"/>
</g>
<defs>
<clipPath id="clip0_806_6153">
<rect width="24" height="24" fill="white"/>
</clipPath>
</defs>
</svg>
