<svg width="24" height="24" viewBox="0 0 24 24" fill="none" xmlns="http://www.w3.org/2000/svg">
<g clip-path="url(#clip0_806_6132)">
<path d="M23 16.6528L20.66 14.8528C20.0826 14.3031 19.3155 13.9971 18.5183 13.9982C17.7211 13.9993 16.9549 14.3075 16.379 14.8588L14.91 16.0268C13.3542 15.3828 11.941 14.4377 10.7515 13.2459C9.56207 12.054 8.61986 10.6389 7.97901 9.0818L9.13701 7.6258C9.68872 7.04997 9.9973 6.28368 9.99861 5.4862C9.99991 4.68873 9.69384 3.92143 9.14401 3.3438L7.34601 0.999801C7.3196 0.964591 7.29087 0.931183 7.26001 0.899801C6.68893 0.325986 5.91494 -1.57347e-06 5.10541 -0.00767395C4.29588 -0.0153463 3.51586 0.295913 2.93401 0.858801L1.78401 1.8588C-5.93499 10.0688 13.984 30.0038 22.184 22.1588L23.094 21.1098C23.6735 20.5287 23.9989 19.7415 23.9989 18.9208C23.9989 18.1001 23.6735 17.3129 23.094 16.7318C23.0641 16.7038 23.0328 16.6774 23 16.6528ZM21.636 19.7528L20.725 20.8028C14.788 26.4178 -2.49999 10.1138 3.14701 3.3248L4.29701 2.3248C4.49615 2.12676 4.7635 2.0124 5.04426 2.00515C5.32501 1.9979 5.59791 2.09831 5.80701 2.2858L7.59301 4.6088C7.61919 4.64419 7.64793 4.67762 7.67901 4.7088C7.88328 4.91481 7.99789 5.19318 7.99789 5.4833C7.99789 5.77342 7.88328 6.05179 7.67901 6.2578C7.65087 6.28334 7.62448 6.31073 7.60001 6.3398L6.04401 8.2998C5.93322 8.4386 5.8614 8.60439 5.83591 8.78014C5.81043 8.95589 5.83221 9.13526 5.89901 9.2998C6.65216 11.3149 7.82968 13.1445 9.35178 14.6647C10.8739 16.1849 12.705 17.3602 14.721 18.1108C14.8833 18.1727 15.059 18.1912 15.2307 18.1646C15.4023 18.1379 15.5641 18.067 15.7 17.9588L17.66 16.3998C17.6894 16.3761 17.7175 16.3507 17.744 16.3238C17.8553 16.2164 17.9875 16.133 18.1324 16.0788C18.2773 16.0247 18.4317 16.0009 18.5862 16.009C18.7407 16.017 18.8918 16.0568 19.0303 16.1257C19.1687 16.1947 19.2915 16.2914 19.391 16.4098L21.717 18.1968C21.9077 18.4166 22.0054 18.7019 21.9896 18.9925C21.9737 19.2831 21.8455 19.5561 21.632 19.7538L21.636 19.7528ZM23.707 6.2928C23.8892 6.4814 23.99 6.734 23.9877 6.9962C23.9854 7.2584 23.8802 7.50921 23.6948 7.69462C23.5094 7.88003 23.2586 7.9852 22.9964 7.98747C22.7342 7.98975 22.4816 7.88896 22.293 7.7068L20 5.4138L17.707 7.7068C17.5184 7.88896 17.2658 7.98975 17.0036 7.98747C16.7414 7.9852 16.4906 7.88003 16.3052 7.69462C16.1198 7.50921 16.0146 7.2584 16.0123 6.9962C16.0101 6.734 16.1108 6.4814 16.293 6.2928L18.586 3.9998L16.293 1.7068C16.1108 1.5182 16.0101 1.2656 16.0123 1.0034C16.0146 0.741203 16.1198 0.49039 16.3052 0.304982C16.4906 0.119574 16.7414 0.0144052 17.0036 0.0121268C17.2658 0.00984839 17.5184 0.110643 17.707 0.292801L20 2.5858L22.293 0.292801C22.4816 0.110643 22.7342 0.00984839 22.9964 0.0121268C23.2586 0.0144052 23.5094 0.119574 23.6948 0.304982C23.8802 0.49039 23.9854 0.741203 23.9877 1.0034C23.99 1.2656 23.8892 1.5182 23.707 1.7068L21.414 3.9998L23.707 6.2928Z" fill="#374957"/>
</g>
<defs>
<clipPath id="clip0_806_6132">
<rect width="24" height="24" fill="white"/>
</clipPath>
</defs>
</svg>
