<svg width="24" height="24" viewBox="0 0 24 24" fill="none" xmlns="http://www.w3.org/2000/svg">
<g clip-path="url(#clip0_806_6171)">
<path d="M12 23.9272C11.3434 23.9281 10.6931 23.7994 10.0863 23.5485C9.47952 23.2977 8.92822 22.9295 8.464 22.4652L1.534 15.5342C0.596645 14.5965 0.0700684 13.325 0.0700684 11.9992C0.0700684 10.6733 0.596645 9.4018 1.534 8.46416L8.464 1.53316C9.40276 0.597148 10.6743 0.0715332 12 0.0715332C13.3257 0.0715332 14.5972 0.597148 15.536 1.53316L22.466 8.46416C23.4034 9.4018 23.9299 10.6733 23.9299 11.9992C23.9299 13.325 23.4034 14.5965 22.466 15.5342L15.536 22.4652C15.0718 22.9295 14.5205 23.2977 13.9137 23.5485C13.3069 23.7994 12.6566 23.9281 12 23.9272ZM12 2.07016C11.606 2.06941 11.2157 2.1465 10.8515 2.297C10.4874 2.4475 10.1565 2.66845 9.878 2.94716L2.948 9.87816C2.38559 10.4407 2.06964 11.2037 2.06964 11.9992C2.06964 12.7947 2.38559 13.5576 2.948 14.1202L9.878 21.0512C10.1566 21.3299 10.4874 21.5511 10.8515 21.702C11.2156 21.8529 11.6059 21.9305 12 21.9305C12.3941 21.9305 12.7844 21.8529 13.1485 21.702C13.5126 21.5511 13.8434 21.3299 14.122 21.0512L21.052 14.1202C21.6144 13.5576 21.9304 12.7947 21.9304 11.9992C21.9304 11.2037 21.6144 10.4407 21.052 9.87816L14.122 2.94716C13.8435 2.66845 13.5126 2.4475 13.1485 2.297C12.7843 2.1465 12.394 2.06941 12 2.07016Z" fill="#374957"/>
</g>
<defs>
<clipPath id="clip0_806_6171">
<rect width="24" height="24" fill="white"/>
</clipPath>
</defs>
</svg>
