<svg width="24" height="24" viewBox="0 0 24 24" fill="none" xmlns="http://www.w3.org/2000/svg">
<g clip-path="url(#clip0_806_5955)">
<path d="M23.8998 11.4371C23.5069 8.41248 21.9771 5.65099 19.6212 3.7139C17.2653 1.77681 14.2602 0.80947 11.2167 1.00851C8.17322 1.20754 5.31972 2.55802 3.23619 4.78544C1.15266 7.01286 -0.00452438 9.95007 -0.000170087 13.0001C-0.00593449 14.6326 0.324888 16.2488 0.971645 17.7477C1.6184 19.2467 2.56721 20.5962 3.75883 21.7121C4.67017 22.5558 5.87099 23.017 7.11283 23.0001H16.8798C18.1918 23.0031 19.4523 22.4898 20.3888 21.5711C21.7235 20.2725 22.7361 18.6799 23.3457 16.9203C23.9554 15.1607 24.1451 13.283 23.8998 11.4371ZM18.9908 20.1371C18.4282 20.6914 17.6697 21.0015 16.8798 21.0001H7.11283C6.3821 21.0151 5.67332 20.7499 5.13183 20.2591C4.1391 19.3292 3.34865 18.2047 2.80979 16.9558C2.27092 15.7068 1.9952 14.3603 1.99983 13.0001C2.00081 11.5923 2.2986 10.2006 2.87377 8.91566C3.44893 7.63076 4.28855 6.48157 5.33783 5.54306C7.16097 3.89897 9.53087 2.99243 11.9858 3.00006C12.3781 3.00022 12.77 3.02226 13.1598 3.06606C15.0354 3.2839 16.811 4.02862 18.2808 5.21398C19.7506 6.39934 20.8545 7.97684 21.4647 9.76375C22.0748 11.5507 22.1663 13.4739 21.7285 15.3106C21.2907 17.1474 20.3415 18.8225 18.9908 20.1421V20.1371ZM7.80683 17.2851C7.99646 17.4707 8.10457 17.7241 8.10739 17.9895C8.1102 18.2548 8.00748 18.5104 7.82183 18.7001C7.63618 18.8897 7.3828 18.9978 7.11744 19.0006C6.85207 19.0034 6.59646 18.9007 6.40683 18.7151C5.27179 17.6032 4.49353 16.1786 4.17124 14.6228C3.84895 13.067 3.99725 11.4504 4.59721 9.97918C5.19718 8.50795 6.22165 7.2487 7.54003 6.36194C8.8584 5.47518 10.411 5.00107 11.9998 5.00006C12.3823 4.99995 12.7642 5.02702 13.1428 5.08106C13.2729 5.0998 13.3979 5.14398 13.5109 5.21108C13.6238 5.27817 13.7224 5.36686 13.8011 5.47207C13.8797 5.57729 13.9369 5.69697 13.9693 5.82429C14.0017 5.9516 14.0086 6.08405 13.9898 6.21406C13.9726 6.34479 13.9294 6.47075 13.8628 6.58455C13.7962 6.69834 13.7075 6.79766 13.6019 6.87667C13.4964 6.95568 13.3761 7.01278 13.2481 7.04462C13.1201 7.07646 12.9871 7.08239 12.8568 7.06206C11.6053 6.8833 10.3293 7.10442 9.21092 7.69386C8.09253 8.28331 7.1889 9.21095 6.62899 10.3444C6.06908 11.4779 5.88149 12.7592 6.09301 14.0056C6.30452 15.252 6.90433 16.3998 7.80683 17.2851ZM19.9188 11.8571C19.9729 12.2357 19.9999 12.6176 19.9998 13.0001C20.0031 14.0657 19.7915 15.1211 19.3778 16.1032C18.9641 17.0853 18.3566 17.9739 17.5918 18.7161C17.4019 18.9017 17.1461 19.0043 16.8805 19.0013C16.615 18.9983 16.3615 18.89 16.1758 18.7001C15.9902 18.5102 15.8876 18.2543 15.8906 17.9887C15.8936 17.7232 16.0019 17.4697 16.1918 17.2841C16.8675 16.6255 17.3777 15.8164 17.6808 14.9229C17.9839 14.0294 18.0713 13.0768 17.9358 12.1431C17.8979 11.8804 17.9659 11.6134 18.1248 11.4008C18.2838 11.1882 18.5206 11.0475 18.7833 11.0096C19.046 10.9716 19.313 11.0396 19.5256 11.1986C19.7382 11.3575 19.8789 11.5944 19.9168 11.8571H19.9188ZM13.9258 12.4881C14.0462 12.9208 14.0198 13.3812 13.8509 13.7974C13.6819 14.2136 13.3799 14.5621 12.9919 14.7886C12.604 15.015 12.152 15.1065 11.7065 15.049C11.2611 14.9914 10.8472 14.7879 10.5296 14.4703C10.212 14.1527 10.0085 13.7388 9.95093 13.2933C9.89335 12.8479 9.98492 12.3959 10.2113 12.0079C10.4378 11.62 10.7863 11.318 11.2025 11.149C11.6187 10.9801 12.0791 10.9537 12.5118 11.0741L16.2928 7.29306C16.3851 7.19755 16.4954 7.12137 16.6174 7.06896C16.7394 7.01655 16.8706 6.98896 17.0034 6.98781C17.1362 6.98666 17.2679 7.01196 17.3908 7.06224C17.5137 7.11252 17.6253 7.18677 17.7192 7.28066C17.8131 7.37456 17.8874 7.48621 17.9377 7.60911C17.9879 7.732 18.0132 7.86368 18.0121 7.99646C18.0109 8.12924 17.9833 8.26046 17.9309 8.38246C17.8785 8.50447 17.8023 8.61481 17.7068 8.70706L13.9258 12.4881Z" fill="#374957"/>
</g>
<defs>
<clipPath id="clip0_806_5955">
<rect width="24" height="24" fill="white"/>
</clipPath>
</defs>
</svg>
