<svg width="24" height="24" viewBox="0 0 24 24" fill="none" xmlns="http://www.w3.org/2000/svg">
<g clip-path="url(#clip0_806_6173)">
<path d="M21.4601 4.13376C21.2579 2.97501 20.653 1.92486 19.7522 1.16853C18.8513 0.412205 17.7123 -0.00171963 16.5361 -0.000238365H7.45108C6.2739 -0.00202817 5.13396 0.412248 4.2326 1.16942C3.33125 1.92659 2.72647 2.97793 2.52508 4.13776L0.0760857 18.1378C-0.049678 18.8563 -0.016685 19.5937 0.17275 20.2982C0.362185 21.0026 0.703473 21.6571 1.17267 22.2157C1.64187 22.7743 2.2276 23.2234 2.88879 23.5316C3.54998 23.8398 4.27059 23.9996 5.00008 23.9998H19.0001C19.73 23.9998 20.4512 23.8401 21.1128 23.5317C21.7745 23.2234 22.3606 22.7738 22.8299 22.2148C23.2993 21.6557 23.6406 21.0007 23.8298 20.2956C24.019 19.5906 24.0515 18.8527 23.9251 18.1338L21.4601 4.13376ZM21.3001 20.9288C21.0182 21.2645 20.6662 21.5343 20.2689 21.7194C19.8715 21.9044 19.4384 22.0001 19.0001 21.9998H5.00008C4.56226 21.9998 4.12974 21.9039 3.73289 21.719C3.33603 21.5341 2.98447 21.2645 2.70287 20.9293C2.42127 20.594 2.21647 20.2012 2.10283 19.7784C1.9892 19.3556 1.96949 18.913 2.04508 18.4818L4.49408 4.48176C4.61601 3.78619 4.97941 3.15593 5.5203 2.70193C6.06119 2.24792 6.7449 1.99928 7.45108 1.99976H16.5361C17.2414 1.9999 17.9242 2.24858 18.4644 2.70213C19.0047 3.15567 19.3678 3.78507 19.4901 4.47976L21.9531 18.4798C22.0295 18.9109 22.0107 19.3535 21.8979 19.7766C21.7851 20.1997 21.581 20.5929 21.3001 20.9288ZM13.0001 4.99976V6.99976C13.0001 7.26498 12.8947 7.51933 12.7072 7.70687C12.5196 7.8944 12.2653 7.99976 12.0001 7.99976C11.7349 7.99976 11.4805 7.8944 11.293 7.70687C11.1054 7.51933 11.0001 7.26498 11.0001 6.99976V4.99976C11.0001 4.73455 11.1054 4.48019 11.293 4.29265C11.4805 4.10512 11.7349 3.99976 12.0001 3.99976C12.2653 3.99976 12.5196 4.10512 12.7072 4.29265C12.8947 4.48019 13.0001 4.73455 13.0001 4.99976ZM13.0001 10.9998V12.9998C13.0001 13.265 12.8947 13.5193 12.7072 13.7069C12.5196 13.8944 12.2653 13.9998 12.0001 13.9998C11.7349 13.9998 11.4805 13.8944 11.293 13.7069C11.1054 13.5193 11.0001 13.265 11.0001 12.9998V10.9998C11.0001 10.7345 11.1054 10.4802 11.293 10.2927C11.4805 10.1051 11.7349 9.99976 12.0001 9.99976C12.2653 9.99976 12.5196 10.1051 12.7072 10.2927C12.8947 10.4802 13.0001 10.7345 13.0001 10.9998ZM13.0001 16.9998V18.9998C13.0001 19.265 12.8947 19.5193 12.7072 19.7069C12.5196 19.8944 12.2653 19.9998 12.0001 19.9998C11.7349 19.9998 11.4805 19.8944 11.293 19.7069C11.1054 19.5193 11.0001 19.265 11.0001 18.9998V16.9998C11.0001 16.7345 11.1054 16.4802 11.293 16.2927C11.4805 16.1051 11.7349 15.9998 12.0001 15.9998C12.2653 15.9998 12.5196 16.1051 12.7072 16.2927C12.8947 16.4802 13.0001 16.7345 13.0001 16.9998Z" fill="#374957"/>
</g>
<defs>
<clipPath id="clip0_806_6173">
<rect width="24" height="24" fill="white"/>
</clipPath>
</defs>
</svg>
