<svg width="24" height="24" viewBox="0 0 24 24" fill="none" xmlns="http://www.w3.org/2000/svg">
<g clip-path="url(#clip0_806_5858)">
<path d="M19.4998 8.9999H18.9998V6.9999C18.9998 6.73469 18.8944 6.48033 18.7069 6.2928C18.5193 6.10526 18.265 5.9999 17.9998 5.9999C18.0125 5.29059 17.8315 4.59123 17.4762 3.97715C17.121 3.36306 16.605 2.8575 15.9838 2.5149C15.2655 2.11513 14.4435 1.9409 13.6248 2.0149C13.5232 2.02751 13.42 2.0136 13.3254 1.97452C13.2308 1.93544 13.1479 1.87253 13.0848 1.7919C12.6495 1.22171 12.0845 0.763593 11.4367 0.455593C10.7888 0.147594 10.0768 -0.00139659 9.35987 0.0209968C8.64289 0.0433901 7.9416 0.236521 7.31425 0.584348C6.68689 0.932176 6.15157 1.42466 5.75276 2.0209C4.7383 2.08199 3.78531 2.52759 3.08799 3.26691C2.39066 4.00622 2.00148 4.98361 1.99976 5.9999C1.73454 5.9999 1.48019 6.10526 1.29265 6.2928C1.10511 6.48033 0.999756 6.73469 0.999756 6.9999V18.9999C1.00134 20.3255 1.52864 21.5963 2.46598 22.5337C3.40331 23.471 4.67416 23.9983 5.99976 23.9999H13.9998C15.3254 23.9983 16.5962 23.471 17.5335 22.5337C18.4709 21.5963 18.9982 20.3255 18.9998 18.9999H19.4998C20.428 18.9999 21.3183 18.6312 21.9746 17.9748C22.631 17.3184 22.9998 16.4282 22.9998 15.4999V12.4999C22.9998 11.5716 22.631 10.6814 21.9746 10.025C21.3183 9.36865 20.428 8.9999 19.4998 8.9999ZM5.99976 3.9999C6.05727 4.00178 6.1145 4.00881 6.17076 4.0209C6.38626 4.05595 6.60732 4.01949 6.80016 3.91711C6.99301 3.81473 7.14705 3.65205 7.23876 3.4539C7.42159 3.06576 7.70124 2.7312 8.05079 2.48242C8.40035 2.23364 8.80805 2.07901 9.23467 2.0334C9.66129 1.9878 10.0925 2.05276 10.4867 2.22203C10.881 2.39129 11.225 2.65918 11.4858 2.9999C11.7537 3.35586 12.1095 3.63623 12.5182 3.8136C12.927 3.99098 13.3747 4.0593 13.8178 4.0119C14.2449 3.97826 14.6724 4.07261 15.0458 4.2829C15.3433 4.45814 15.5887 4.70972 15.7564 5.01159C15.9241 5.31346 16.0081 5.65467 15.9998 5.9999H11.9998C11.2041 5.9999 10.441 6.31597 9.87844 6.87858C9.31583 7.44119 8.99976 8.20426 8.99976 8.9999V11.9999C8.99976 12.2651 8.8944 12.5195 8.70686 12.707C8.51933 12.8945 8.26497 12.9999 7.99976 12.9999C7.73454 12.9999 7.48019 12.8945 7.29265 12.707C7.10511 12.5195 6.99976 12.2651 6.99976 11.9999V8.9999C6.99976 8.20426 6.68369 7.44119 6.12108 6.87858C5.55847 6.31597 4.79541 5.9999 3.99976 5.9999C3.99976 5.46947 4.21047 4.96076 4.58554 4.58569C4.96061 4.21062 5.46932 3.9999 5.99976 3.9999ZM16.9998 18.9999C16.9998 19.7956 16.6837 20.5586 16.1211 21.1212C15.5585 21.6838 14.7954 21.9999 13.9998 21.9999H5.99976C5.20411 21.9999 4.44104 21.6838 3.87844 21.1212C3.31583 20.5586 2.99976 19.7956 2.99976 18.9999V7.9999H3.99976C4.26497 7.9999 4.51933 8.10526 4.70686 8.2928C4.8944 8.48033 4.99976 8.73469 4.99976 8.9999V11.9999C4.99976 12.7956 5.31583 13.5586 5.87844 14.1212C6.44104 14.6838 7.20411 14.9999 7.99976 14.9999C8.79541 14.9999 9.55847 14.6838 10.1211 14.1212C10.6837 13.5586 10.9998 12.7956 10.9998 11.9999V8.9999C10.9998 8.73469 11.1051 8.48033 11.2926 8.2928C11.4802 8.10526 11.7345 7.9999 11.9998 7.9999H16.9998V18.9999ZM20.9998 15.4999C20.9998 15.8977 20.8417 16.2793 20.5604 16.5606C20.2791 16.8419 19.8976 16.9999 19.4998 16.9999H18.9998V10.9999H19.4998C19.8976 10.9999 20.2791 11.1579 20.5604 11.4392C20.8417 11.7205 20.9998 12.1021 20.9998 12.4999V15.4999Z" fill="#374957"/>
</g>
<defs>
<clipPath id="clip0_806_5858">
<rect width="24" height="24" fill="white"/>
</clipPath>
</defs>
</svg>
