<svg width="24" height="24" viewBox="0 0 24 24" fill="none" xmlns="http://www.w3.org/2000/svg">
<g clip-path="url(#clip0_806_6284)">
<path d="M17.0002 8.00087H7.00024V7.00087C6.99994 5.89228 7.36807 4.81501 8.04676 3.93845C8.72545 3.06188 9.67622 2.43573 10.7496 2.15843C11.8229 1.88113 12.958 1.96842 13.9763 2.40656C14.9947 2.8447 15.8385 3.60885 16.3752 4.57887C16.439 4.69371 16.5248 4.79487 16.6276 4.87657C16.7305 4.95827 16.8484 5.01892 16.9747 5.05504C17.101 5.09116 17.2331 5.10205 17.3636 5.0871C17.4941 5.07214 17.6204 5.03163 17.7352 4.96787C17.8501 4.90412 17.9512 4.81836 18.0329 4.71551C18.1146 4.61266 18.1753 4.49473 18.2114 4.36844C18.2475 4.24215 18.2584 4.10998 18.2435 3.97949C18.2285 3.84899 18.188 3.72271 18.1242 3.60787C17.3725 2.25019 16.191 1.18079 14.7653 0.567786C13.3396 -0.04522 11.7506 -0.167078 10.2481 0.221368C8.74562 0.609813 7.41481 1.48654 6.46487 2.71372C5.51493 3.94091 4.99973 5.44898 5.00024 7.00087V8.42487C4.1096 8.81358 3.35154 9.4534 2.81874 10.2661C2.28595 11.0788 2.00152 12.0291 2.00024 13.0009V19.0009C2.00183 20.3265 2.52913 21.5973 3.46646 22.5347C4.4038 23.472 5.67465 23.9993 7.00024 24.0009H17.0002C18.3258 23.9993 19.5967 23.472 20.534 22.5347C21.4714 21.5973 21.9987 20.3265 22.0002 19.0009V13.0009C21.9987 11.6753 21.4714 10.4044 20.534 9.46709C19.5967 8.52975 18.3258 8.00246 17.0002 8.00087ZM20.0002 19.0009C20.0002 19.7965 19.6842 20.5596 19.1216 21.1222C18.559 21.6848 17.7959 22.0009 17.0002 22.0009H7.00024C6.20459 22.0009 5.44153 21.6848 4.87892 21.1222C4.31631 20.5596 4.00024 19.7965 4.00024 19.0009V13.0009C4.00024 12.2052 4.31631 11.4422 4.87892 10.8796C5.44153 10.3169 6.20459 10.0009 7.00024 10.0009H17.0002C17.7959 10.0009 18.559 10.3169 19.1216 10.8796C19.6842 11.4422 20.0002 12.2052 20.0002 13.0009V19.0009Z" fill="#374957"/>
<path d="M12.0002 14.0006C11.735 14.0006 11.4807 14.106 11.2931 14.2935C11.1056 14.481 11.0002 14.7354 11.0002 15.0006V17.0006C11.0002 17.2658 11.1056 17.5202 11.2931 17.7077C11.4807 17.8952 11.735 18.0006 12.0002 18.0006C12.2655 18.0006 12.5198 17.8952 12.7074 17.7077C12.8949 17.5202 13.0003 17.2658 13.0003 17.0006V15.0006C13.0003 14.7354 12.8949 14.481 12.7074 14.2935C12.5198 14.106 12.2655 14.0006 12.0002 14.0006Z" fill="#374957"/>
</g>
<defs>
<clipPath id="clip0_806_6284">
<rect width="24" height="24" fill="white"/>
</clipPath>
</defs>
</svg>
