<svg width="24" height="24" viewBox="0 0 24 24" fill="none" xmlns="http://www.w3.org/2000/svg">
<g clip-path="url(#clip0_806_5963)">
<path d="M12 9.99976C11.2089 9.99976 10.4355 10.2344 9.77772 10.6739C9.11993 11.1134 8.60723 11.7381 8.30448 12.469C8.00173 13.1999 7.92252 14.0042 8.07686 14.7801C8.2312 15.556 8.61216 16.2688 9.17157 16.8282C9.73098 17.3876 10.4437 17.7686 11.2196 17.9229C11.9956 18.0772 12.7998 17.998 13.5307 17.6953C14.2616 17.3925 14.8864 16.8798 15.3259 16.222C15.7654 15.5642 16 14.7909 16 13.9998C16 12.9389 15.5786 11.9215 14.8284 11.1713C14.0783 10.4212 13.0609 9.99976 12 9.99976ZM12 15.9998C11.6044 15.9998 11.2178 15.8825 10.8889 15.6627C10.56 15.4429 10.3036 15.1306 10.1522 14.7651C10.0009 14.3997 9.96126 13.9975 10.0384 13.6096C10.1156 13.2216 10.3061 12.8652 10.5858 12.5855C10.8655 12.3058 11.2219 12.1154 11.6098 12.0382C11.9978 11.961 12.3999 12.0006 12.7654 12.152C13.1308 12.3034 13.4432 12.5597 13.6629 12.8886C13.8827 13.2175 14 13.6042 14 13.9998C14 14.5302 13.7893 15.0389 13.4142 15.414C13.0391 15.789 12.5304 15.9998 12 15.9998Z" fill="#374957"/>
<path d="M22.536 4.12202L19.878 1.46402C19.4149 0.998362 18.8639 0.629199 18.2572 0.377902C17.6504 0.126605 16.9998 -0.00183456 16.343 1.97963e-05H5C3.67441 0.00160765 2.40356 0.528902 1.46622 1.46624C0.528882 2.40358 0.00158786 3.67443 0 5.00002L0 19C0.00158786 20.3256 0.528882 21.5965 1.46622 22.5338C2.40356 23.4711 3.67441 23.9984 5 24H19C20.3256 23.9984 21.5964 23.4711 22.5338 22.5338C23.4711 21.5965 23.9984 20.3256 24 19V7.65702C24.0019 7.00026 23.8734 6.34965 23.6221 5.74286C23.3708 5.13608 23.0017 4.58517 22.536 4.12202ZM17 2.08002V3.00002C17 3.79567 16.6839 4.55873 16.1213 5.12134C15.5587 5.68395 14.7956 6.00002 14 6.00002H10C9.20435 6.00002 8.44129 5.68395 7.87868 5.12134C7.31607 4.55873 7 3.79567 7 3.00002V2.00002H16.343C16.5643 2.00198 16.7847 2.02882 17 2.08002ZM22 19C22 19.7957 21.6839 20.5587 21.1213 21.1213C20.5587 21.6839 19.7956 22 19 22H5C4.20435 22 3.44129 21.6839 2.87868 21.1213C2.31607 20.5587 2 19.7957 2 19V5.00002C2 4.20437 2.31607 3.44131 2.87868 2.8787C3.44129 2.31609 4.20435 2.00002 5 2.00002V3.00002C5.00159 4.32561 5.52888 5.59646 6.46622 6.5338C7.40356 7.47114 8.67441 7.99843 10 8.00002H14C15.2575 7.99612 16.4672 7.51768 17.3871 6.66038C18.3071 5.80308 18.8695 4.63011 18.962 3.37602L21.122 5.53602C21.6824 6.09989 21.9979 6.86201 22 7.65702V19Z" fill="#374957"/>
</g>
<defs>
<clipPath id="clip0_806_5963">
<rect width="24" height="24" fill="white"/>
</clipPath>
</defs>
</svg>
