<svg width="24" height="24" viewBox="0 0 24 24" fill="none" xmlns="http://www.w3.org/2000/svg">
<g clip-path="url(#clip0_806_6257)">
<path d="M14 18.0003C13.6594 18.0003 13.3213 18.0581 13 18.1713V18.0003C13 17.7351 13.1054 17.4807 13.2929 17.2932C13.4805 17.1056 13.7348 17.0003 14 17.0003C14.1421 16.9994 14.2827 17.0292 14.4122 17.0877C14.5416 17.1462 14.6569 17.232 14.75 17.3393C14.8358 17.4414 14.9411 17.5254 15.0597 17.5862C15.1784 17.647 15.308 17.6835 15.441 17.6935C15.574 17.7035 15.7076 17.6868 15.834 17.6444C15.9604 17.602 16.0771 17.5347 16.1771 17.4466C16.2772 17.3584 16.3586 17.2511 16.4165 17.131C16.4745 17.0109 16.5079 16.8805 16.5147 16.7473C16.5215 16.6141 16.5015 16.4809 16.4561 16.3556C16.4107 16.2302 16.3406 16.1152 16.25 16.0173C15.8471 15.5604 15.3145 15.2369 14.7232 15.0901C14.1319 14.9432 13.51 14.9799 12.94 15.1951C12.3701 15.4104 11.8792 15.7941 11.5326 16.2952C11.1861 16.7963 11.0003 17.391 11 18.0003V21.0003C11.0003 21.6516 11.2124 22.2852 11.6045 22.8053C11.9966 23.3254 12.5474 23.7037 13.1735 23.8832C13.7996 24.0626 14.4671 24.0335 15.0752 23.8C15.6833 23.5666 16.1988 23.1416 16.544 22.5893C16.8225 22.1409 16.98 21.6281 17.0012 21.1007C17.0224 20.5734 16.9066 20.0495 16.665 19.5803C16.4118 19.0951 16.0282 18.6902 15.5574 18.4111C15.0866 18.132 14.5473 17.9897 14 18.0003ZM14.849 21.5293C14.757 21.677 14.6279 21.7982 14.4746 21.8807C14.3214 21.9633 14.1492 22.0044 13.9752 22C13.8011 21.9956 13.6313 21.9458 13.4824 21.8556C13.3334 21.7654 13.2107 21.6379 13.1262 21.4857C13.0416 21.3335 12.9983 21.1619 13.0005 20.9878C13.0027 20.8138 13.0502 20.6433 13.1385 20.4932C13.2268 20.3432 13.3527 20.2188 13.5038 20.1323C13.6549 20.0459 13.826 20.0004 14 20.0003C14.172 19.9909 14.3433 20.0282 14.4958 20.1083C14.6483 20.1885 14.7762 20.3083 14.866 20.4553C14.9583 20.6199 15.0054 20.8059 15.0024 20.9946C14.9994 21.1832 14.9465 21.3677 14.849 21.5293ZM21 15.0003C20.2044 15.0003 19.4413 15.3164 18.8787 15.879C18.3161 16.4416 18 17.2046 18 18.0003V21.0003C18 21.7959 18.3161 22.559 18.8787 23.1216C19.4413 23.6842 20.2044 24.0003 21 24.0003C21.7957 24.0003 22.5588 23.6842 23.1214 23.1216C23.684 22.559 24 21.7959 24 21.0003V18.0003C24 17.2046 23.684 16.4416 23.1214 15.879C22.5588 15.3164 21.7957 15.0003 21 15.0003ZM22 21.0003C22 21.2655 21.8947 21.5199 21.7072 21.7074C21.5196 21.8949 21.2653 22.0003 21 22.0003C20.7348 22.0003 20.4805 21.8949 20.2929 21.7074C20.1054 21.5199 20 21.2655 20 21.0003V18.0003C20 17.7351 20.1054 17.4807 20.2929 17.2932C20.4805 17.1056 20.7348 17.0003 21 17.0003C21.2653 17.0003 21.5196 17.1056 21.7072 17.2932C21.8947 17.4807 22 17.7351 22 18.0003V21.0003ZM12 13.0003H8.00005C7.73483 13.0003 7.48048 12.8949 7.29294 12.7074C7.1054 12.5199 7.00005 12.2655 7.00005 12.0003C7.00005 11.7351 7.1054 11.4807 7.29294 11.2932C7.48048 11.1056 7.73483 11.0003 8.00005 11.0003H11V7.00029C11 6.73508 11.1054 6.48072 11.2929 6.29319C11.4805 6.10565 11.7348 6.00029 12 6.00029C12.2653 6.00029 12.5196 6.10565 12.7072 6.29319C12.8947 6.48072 13 6.73508 13 7.00029V12.0003C13 12.2655 12.8947 12.5199 12.7072 12.7074C12.5196 12.8949 12.2653 13.0003 12 13.0003ZM24 3.00029V6.00029C24 6.79594 23.684 7.559 23.1214 8.12161C22.5588 8.68422 21.7957 9.00029 21 9.00029H18C17.7348 9.00029 17.4805 8.89494 17.2929 8.7074C17.1054 8.51986 17 8.26551 17 8.00029C17 7.73508 17.1054 7.48072 17.2929 7.29319C17.4805 7.10565 17.7348 7.00029 18 7.00029H20.637C19.8369 5.61942 18.7176 4.45033 17.3728 3.59089C16.028 2.73144 14.4969 2.20666 12.9077 2.06046C11.3185 1.91427 9.71733 2.15091 8.23833 2.7506C6.75934 3.35028 5.44552 4.29555 4.40687 5.50727C3.36822 6.71898 2.63496 8.16189 2.26847 9.71519C1.90199 11.2685 1.91295 12.887 2.30043 14.4352C2.68791 15.9834 3.44064 17.4162 4.49561 18.6138C5.55057 19.8113 6.87707 20.7387 8.36405 21.3183C8.61123 21.4148 8.80994 21.6056 8.91646 21.8487C9.02298 22.0917 9.02859 22.3671 8.93205 22.6143C8.83551 22.8615 8.64473 23.0602 8.40168 23.1667C8.15864 23.2732 7.88323 23.2788 7.63605 23.1823C5.8787 22.4968 4.3077 21.4067 3.05052 20.0004C1.79334 18.5941 0.885395 16.9113 0.400345 15.0884C-0.0847046 13.2655 -0.133191 11.354 0.25882 9.50885C0.650831 7.66373 1.4723 5.93701 2.65656 4.4688C3.84083 3.00058 5.35454 1.83223 7.07488 1.05854C8.79521 0.284846 10.6737 -0.072391 12.558 0.0158131C14.4422 0.104017 16.2791 0.635177 17.9196 1.5662C19.5602 2.49721 20.9581 3.80187 22 5.37429V3.00029C22 2.73508 22.1054 2.48072 22.2929 2.29319C22.4805 2.10565 22.7348 2.00029 23 2.00029C23.2653 2.00029 23.5196 2.10565 23.7072 2.29319C23.8947 2.48072 24 2.73508 24 3.00029Z" fill="#374957"/>
</g>
<defs>
<clipPath id="clip0_806_6257">
<rect width="24" height="24" fill="white"/>
</clipPath>
</defs>
</svg>
