<svg width="24" height="24" viewBox="0 0 24 24" fill="none" xmlns="http://www.w3.org/2000/svg">
<g clip-path="url(#clip0_806_6206)">
<path d="M7 22H5C4.20435 22 3.44129 21.6839 2.87868 21.1213C2.31607 20.5587 2 19.7956 2 19V5C2 4.20435 2.31607 3.44129 2.87868 2.87868C3.44129 2.31607 4.20435 2 5 2H7C7.26522 2 7.51957 1.89464 7.70711 1.70711C7.89464 1.51957 8 1.26522 8 1C8 0.734784 7.89464 0.48043 7.70711 0.292893C7.51957 0.105357 7.26522 0 7 0L5 0C3.67441 0.00158786 2.40356 0.528882 1.46622 1.46622C0.528882 2.40356 0.00158786 3.67441 0 5L0 19C0.00158786 20.3256 0.528882 21.5964 1.46622 22.5338C2.40356 23.4711 3.67441 23.9984 5 24H7C7.26522 24 7.51957 23.8946 7.70711 23.7071C7.89464 23.5196 8 23.2652 8 23C8 22.7348 7.89464 22.4804 7.70711 22.2929C7.51957 22.1054 7.26522 22 7 22Z" fill="#374957"/>
<path d="M22.9998 11.0003L7.22282 11.0323C7.31052 10.8694 7.42022 10.7193 7.54882 10.5863L11.4278 6.70733C11.5233 6.61508 11.5995 6.50473 11.6519 6.38273C11.7043 6.26073 11.7319 6.12951 11.7331 5.99673C11.7342 5.86395 11.7089 5.73227 11.6586 5.60937C11.6084 5.48647 11.5341 5.37482 11.4402 5.28093C11.3463 5.18704 11.2347 5.11278 11.1118 5.0625C10.9889 5.01222 10.8572 4.98692 10.7244 4.98807C10.5916 4.98923 10.4604 5.01681 10.3384 5.06922C10.2164 5.12163 10.1061 5.19782 10.0138 5.29333L6.13282 9.17233C5.38293 9.92244 4.96167 10.9397 4.96167 12.0003C4.96167 13.061 5.38293 14.0782 6.13282 14.8283L10.0118 18.7073C10.1041 18.8028 10.2144 18.879 10.3364 18.9314C10.4584 18.9838 10.5896 19.0114 10.7224 19.0126C10.8552 19.0137 10.9869 18.9884 11.1098 18.9381C11.2327 18.8879 11.3443 18.8136 11.4382 18.7197C11.5321 18.6258 11.6064 18.5142 11.6566 18.3913C11.7069 18.2684 11.7322 18.1367 11.7311 18.0039C11.7299 17.8711 11.7023 17.7399 11.6499 17.6179C11.5975 17.4959 11.5213 17.3856 11.4258 17.2933L7.54682 13.4143C7.4349 13.2991 7.3372 13.1708 7.25582 13.0323L22.9998 13.0003C23.265 13.0003 23.5194 12.895 23.7069 12.7074C23.8945 12.5199 23.9998 12.2655 23.9998 12.0003C23.9998 11.7351 23.8945 11.4808 23.7069 11.2932C23.5194 11.1057 23.265 11.0003 22.9998 11.0003Z" fill="#374957"/>
</g>
<defs>
<clipPath id="clip0_806_6206">
<rect width="24" height="24" fill="white"/>
</clipPath>
</defs>
</svg>
