<svg width="24" height="24" viewBox="0 0 24 24" fill="none" xmlns="http://www.w3.org/2000/svg">
<g clip-path="url(#clip0_806_5910)">
<path d="M23.9998 11.5C23.9993 10.8103 23.795 10.1362 23.4127 9.56231C23.0303 8.98837 22.487 8.54016 21.8508 8.27397C21.4448 5.95633 20.2345 3.85608 18.4329 2.34264C16.6313 0.8292 14.3537 -0.000488281 12.0008 -0.000488281C9.64787 -0.000488281 7.37029 0.8292 5.56867 2.34264C3.76706 3.85608 2.55681 5.95633 2.1508 8.27397C1.42481 8.5794 0.823052 9.12079 0.442848 9.81057C0.0626442 10.5004 -0.0737828 11.2982 0.0556278 12.0752C0.185038 12.8521 0.572721 13.5626 1.15599 14.0919C1.73925 14.6213 2.484 14.9384 3.2698 14.992C3.78629 16.088 4.48676 17.0875 5.3408 17.947C4.08939 19.3134 3.29519 21.036 3.0688 22.875C3.05241 23.0053 3.06187 23.1376 3.09663 23.2643C3.13139 23.391 3.19076 23.5096 3.27137 23.6133C3.35198 23.717 3.45224 23.8039 3.56641 23.8688C3.68059 23.9338 3.80645 23.9757 3.9368 23.992C3.97795 23.997 4.01935 23.9997 4.0608 24C4.30417 23.9997 4.53908 23.9107 4.72152 23.7496C4.90395 23.5885 5.02138 23.3664 5.0518 23.125C5.2331 21.6751 5.86841 20.3198 6.8668 19.253C8.35594 20.3522 10.1493 20.9625 11.9998 21C13.8448 20.9622 15.633 20.3544 17.1188 19.26C18.1129 20.325 18.7456 21.6765 18.9268 23.122C18.957 23.3636 19.0743 23.5859 19.2568 23.7472C19.4392 23.9085 19.6743 23.9977 19.9178 23.998C19.9596 23.9978 20.0013 23.9951 20.0428 23.99C20.3059 23.957 20.5451 23.8209 20.7078 23.6117C20.8706 23.4024 20.9436 23.1371 20.9108 22.874C20.686 21.0397 19.8958 19.3208 18.6498 17.956C19.5086 17.0939 20.2128 16.0906 20.7318 14.99C21.6175 14.9311 22.4478 14.5379 23.0546 13.89C23.6613 13.242 23.9992 12.3877 23.9998 11.5ZM20.2478 12.973C20.0146 12.9302 19.7737 12.9724 19.5688 13.0918C19.364 13.2112 19.2086 13.4 19.1308 13.624C18.2148 16.222 15.1298 19 11.9998 19C8.8698 19 5.7848 16.22 4.8688 13.622C4.79084 13.3981 4.63543 13.2094 4.4306 13.0901C4.22578 12.9707 3.98503 12.9284 3.7518 12.971C3.6687 12.9873 3.58443 12.997 3.4998 13C3.12859 12.9955 2.77221 12.8536 2.49959 12.6016C2.22696 12.3496 2.05747 12.0055 2.02388 11.6358C1.99029 11.2661 2.095 10.897 2.31775 10.6C2.5405 10.3031 2.86547 10.0992 3.2298 10.028C3.44242 9.98943 3.63683 9.88305 3.78393 9.72478C3.93103 9.5665 4.0229 9.36483 4.0458 9.14997C4.17936 7.87128 4.62061 6.64396 5.33183 5.57295C6.04304 4.50195 7.00307 3.61912 8.1298 2.99997C7.96606 3.63607 7.95852 4.30232 8.1078 4.94197C8.31111 5.78786 8.78466 6.54441 9.45667 7.09694C10.1287 7.64946 10.9625 7.96783 11.8317 8.00378C12.701 8.03973 13.5582 7.79132 14.2736 7.29618C14.9889 6.80104 15.5233 6.08618 15.7958 5.25997C15.8402 5.1132 15.8495 4.95803 15.8228 4.80702C15.7961 4.65601 15.7343 4.5134 15.6423 4.39072C15.5503 4.26804 15.4307 4.16874 15.2932 4.10086C15.1557 4.03298 15.0041 3.99841 14.8508 3.99997H14.6998C14.5159 4.006 14.3386 4.07039 14.1937 4.18383C14.0488 4.29727 13.9438 4.45387 13.8938 4.63097C13.7776 4.98058 13.567 5.29129 13.2854 5.52882C13.0037 5.76635 12.662 5.92147 12.2978 5.97706C11.9335 6.03266 11.5611 5.98657 11.2214 5.84388C10.8817 5.7012 10.588 5.46745 10.3728 5.16844C10.1575 4.86944 10.0291 4.51678 10.0015 4.14938C9.97402 3.78198 10.0485 3.41412 10.2168 3.08637C10.3851 2.75863 10.6407 2.48374 10.9553 2.29204C11.2699 2.10033 11.6314 1.99926 11.9998 1.99997C13.9756 1.99524 15.8829 2.72387 17.3523 4.04476C18.8218 5.36564 19.7487 7.1848 19.9538 9.14997C19.9767 9.36483 20.0686 9.5665 20.2157 9.72478C20.3628 9.88305 20.5572 9.98943 20.7698 10.028C21.1341 10.0992 21.4591 10.3031 21.6819 10.6C21.9046 10.897 22.0093 11.2661 21.9757 11.6358C21.9421 12.0055 21.7726 12.3496 21.5 12.6016C21.2274 12.8536 20.871 12.9955 20.4998 13C20.4152 12.9976 20.331 12.9886 20.2478 12.973Z" fill="#374957"/>
<path d="M9.50024 13C10.3287 13 11.0002 12.3284 11.0002 11.5C11.0002 10.6716 10.3287 10 9.50024 10C8.67182 10 8.00024 10.6716 8.00024 11.5C8.00024 12.3284 8.67182 13 9.50024 13Z" fill="#374957"/>
<path d="M14.4998 13C15.3282 13 15.9998 12.3284 15.9998 11.5C15.9998 10.6716 15.3282 10 14.4998 10C13.6713 10 12.9998 10.6716 12.9998 11.5C12.9998 12.3284 13.6713 13 14.4998 13Z" fill="#374957"/>
</g>
<defs>
<clipPath id="clip0_806_5910">
<rect width="24" height="24" fill="white"/>
</clipPath>
</defs>
</svg>
