<svg width="24" height="24" viewBox="0 0 24 24" fill="none" xmlns="http://www.w3.org/2000/svg">
<g clip-path="url(#clip0_806_5917)">
<path d="M18.7461 20.334C18.8336 20.4321 18.901 20.5464 18.9443 20.6705C18.9876 20.7947 19.0061 20.9261 18.9985 21.0573C18.991 21.1886 18.9577 21.317 18.9005 21.4354C18.8432 21.5537 18.7633 21.6596 18.6651 21.747L17.0791 23.161C16.8073 23.43 16.4851 23.6427 16.1308 23.7867C15.7766 23.9306 15.3974 24.0032 15.0151 24C14.6185 24.0008 14.2257 23.9233 13.8591 23.772C13.4926 23.6206 13.1595 23.3984 12.8791 23.118L11.3351 21.744C11.237 21.6567 11.157 21.5509 11.0998 21.4327C11.0426 21.3145 11.0092 21.1861 11.0016 21.055C10.9862 20.7902 11.0767 20.5302 11.2531 20.332C11.4294 20.1339 11.6773 20.014 11.9421 19.9986C12.0732 19.991 12.2045 20.0093 12.3286 20.0524C12.4526 20.0956 12.567 20.1627 12.6651 20.25L14.0001 21.444V14C14.0001 13.7348 14.1054 13.4805 14.293 13.2929C14.4805 13.1054 14.7348 13 15.0001 13C15.2653 13 15.5196 13.1054 15.7072 13.2929C15.8947 13.4805 16.0001 13.7348 16.0001 14V21.445L17.3351 20.253C17.533 20.0768 17.7928 19.9864 18.0573 20.0016C18.3219 20.0168 18.5696 20.1363 18.7461 20.334ZM18.3561 7.36103C18.1844 7.30772 18.0285 7.21268 17.9025 7.08441C17.7766 6.95615 17.6843 6.79866 17.6341 6.62603C17.1046 4.92612 16.0231 3.45142 14.561 2.43545C13.0989 1.41947 11.3396 0.920281 9.56176 1.01693C7.78392 1.11357 6.08912 1.80053 4.74574 2.96902C3.40235 4.1375 2.48715 5.72074 2.14506 7.46803C1.79405 9.23505 2.07732 11.0692 2.94506 12.648C1.93351 13.1703 1.11097 13.9963 0.592977 15.01C0.0749868 16.0238 -0.112427 17.1743 0.0570606 18.3C0.317712 19.6078 1.01787 20.7871 2.04128 21.6421C3.06468 22.4971 4.34974 22.9762 5.68306 23H8.00006C8.26528 23 8.51963 22.8947 8.70717 22.7071C8.8947 22.5196 9.00006 22.2653 9.00006 22C9.00006 21.7348 8.8947 21.4805 8.70717 21.2929C8.51963 21.1054 8.26528 21 8.00006 21H5.68306C4.82902 20.9836 4.00526 20.6807 3.34405 20.1399C2.68284 19.5992 2.22254 18.8519 2.03706 18.018C1.92847 17.3016 2.04696 16.5691 2.37588 15.9235C2.70481 15.2778 3.22767 14.7514 3.87106 14.418C4.32965 14.1646 4.66999 13.7407 4.8184 13.2382C4.96681 12.7357 4.91137 12.195 4.66406 11.733C4.27577 10.9925 4.04655 10.179 3.99112 9.34462C3.93568 8.51029 4.05525 7.67358 4.34214 6.88817C4.62904 6.10276 5.07694 5.38598 5.6571 4.78383C6.23727 4.18167 6.93689 3.70743 7.71109 3.39152C8.48529 3.07561 9.31697 2.92501 10.1528 2.94938C10.9886 2.97375 11.8101 3.17255 12.5646 3.53303C13.3191 3.89351 13.9899 4.40771 14.5339 5.04265C15.078 5.67759 15.4834 6.41924 15.7241 7.22003C15.8721 7.70274 16.1357 8.142 16.4921 8.49962C16.8485 8.85723 17.2869 9.12239 17.7691 9.27204C19.0754 9.66953 20.206 10.5027 20.9724 11.6328C21.7389 12.7628 22.0949 14.1214 21.9811 15.482C21.9058 16.5401 21.5192 17.5522 20.8701 18.391C20.7084 18.6014 20.6369 18.8673 20.6713 19.1303C20.7058 19.3933 20.8432 19.6319 21.0536 19.7935C21.2639 19.9552 21.5298 20.0267 21.7928 19.9923C22.0558 19.9578 22.2944 19.8204 22.4561 19.61C23.3371 18.4614 23.8652 17.0814 23.9761 15.638C24.1271 13.8237 23.6516 12.0125 22.6289 10.5063C21.6062 9.00007 20.0981 7.88996 18.3561 7.36103Z" fill="#374957"/>
</g>
<defs>
<clipPath id="clip0_806_5917">
<rect width="24" height="24" fill="white"/>
</clipPath>
</defs>
</svg>
