<svg width="24" height="24" viewBox="0 0 24 24" fill="none" xmlns="http://www.w3.org/2000/svg">
<g clip-path="url(#clip0_806_6181)">
<path d="M20 10.9993H19V4.99927C19 3.9384 18.5786 2.92099 17.8284 2.17084C17.0783 1.4207 16.0609 0.999268 15 0.999268H4C2.93913 0.999268 1.92172 1.4207 1.17157 2.17084C0.421427 2.92099 0 3.9384 0 4.99927L0 15.9993C0.0021456 16.6302 0.203551 17.2443 0.575468 17.754C0.947384 18.2636 1.4708 18.6428 2.071 18.8373C2.02573 19.0551 2.00195 19.2768 2 19.4993C2 20.4275 2.36875 21.3178 3.02513 21.9741C3.6815 22.6305 4.57174 22.9993 5.5 22.9993C6.42826 22.9993 7.3185 22.6305 7.97487 21.9741C8.63125 21.3178 9 20.4275 9 19.4993C8.99843 19.3318 8.98473 19.1647 8.959 18.9993H15.041C15.0153 19.1647 15.0016 19.3318 15 19.4993C15 20.4275 15.3687 21.3178 16.0251 21.9741C16.6815 22.6305 17.5717 22.9993 18.5 22.9993C19.4283 22.9993 20.3185 22.6305 20.9749 21.9741C21.6313 21.3178 22 20.4275 22 19.4993C21.998 19.2768 21.9743 19.0551 21.929 18.8373C22.5292 18.6428 23.0526 18.2636 23.4245 17.754C23.7964 17.2443 23.9979 16.6302 24 15.9993V14.9993C24 13.9384 23.5786 12.921 22.8284 12.1708C22.0783 11.4207 21.0609 10.9993 20 10.9993ZM2 10.9993V6.99927H4V10.9993H2ZM6 6.99927H8V10.9993H6V6.99927ZM10 6.99927H13V16.9993H10V6.99927ZM15 6.99927H17V10.9993H15V6.99927ZM4 2.99927H15C15.5304 2.99927 16.0391 3.20998 16.4142 3.58505C16.7893 3.96013 17 4.46883 17 4.99927H2C2 4.46883 2.21071 3.96013 2.58579 3.58505C2.96086 3.20998 3.46957 2.99927 4 2.99927ZM2 12.9993H8V16.9993H3C2.73478 16.9993 2.48043 16.8939 2.29289 16.7064C2.10536 16.5188 2 16.2645 2 15.9993V12.9993ZM7 19.4993C7 19.8971 6.84196 20.2786 6.56066 20.5599C6.27936 20.8412 5.89782 20.9993 5.5 20.9993C5.10218 20.9993 4.72064 20.8412 4.43934 20.5599C4.15804 20.2786 4 19.8971 4 19.4993C4.00044 19.3283 4.03195 19.1589 4.093 18.9993H6.907C6.96805 19.1589 6.99956 19.3283 7 19.4993ZM18.5 20.9993C18.1022 20.9993 17.7206 20.8412 17.4393 20.5599C17.158 20.2786 17 19.8971 17 19.4993C17.0004 19.3283 17.0319 19.1589 17.093 18.9993H19.907C19.9681 19.1589 19.9996 19.3283 20 19.4993C20 19.8971 19.842 20.2786 19.5607 20.5599C19.2794 20.8412 18.8978 20.9993 18.5 20.9993ZM22 15.9993C22 16.2645 21.8946 16.5188 21.7071 16.7064C21.5196 16.8939 21.2652 16.9993 21 16.9993H15V12.9993H20C20.5304 12.9993 21.0391 13.21 21.4142 13.5851C21.7893 13.9601 22 14.4688 22 14.9993V15.9993Z" fill="#374957"/>
</g>
<defs>
<clipPath id="clip0_806_6181">
<rect width="24" height="24" fill="white"/>
</clipPath>
</defs>
</svg>
