<svg width="24" height="24" viewBox="0 0 24 24" fill="none" xmlns="http://www.w3.org/2000/svg">
<g clip-path="url(#clip0_806_6220)">
<path d="M16 0H8C6.67441 0.00158786 5.40356 0.528882 4.46622 1.46622C3.52888 2.40356 3.00159 3.67441 3 5V19C3.00159 20.3256 3.52888 21.5964 4.46622 22.5338C5.40356 23.4711 6.67441 23.9984 8 24H16C17.3256 23.9984 18.5964 23.4711 19.5338 22.5338C20.4711 21.5964 20.9984 20.3256 21 19V5C20.9984 3.67441 20.4711 2.40356 19.5338 1.46622C18.5964 0.528882 17.3256 0.00158786 16 0V0ZM19 19C19 19.7956 18.6839 20.5587 18.1213 21.1213C17.5587 21.6839 16.7956 22 16 22H8C7.20435 22 6.44129 21.6839 5.87868 21.1213C5.31607 20.5587 5 19.7956 5 19V5C5 4.20435 5.31607 3.44129 5.87868 2.87868C6.44129 2.31607 7.20435 2 8 2H16C16.7956 2 17.5587 2.31607 18.1213 2.87868C18.6839 3.44129 19 4.20435 19 5V19Z" fill="#374957"/>
<path d="M12 7.5C12.8284 7.5 13.5 6.82843 13.5 6C13.5 5.17157 12.8284 4.5 12 4.5C11.1716 4.5 10.5 5.17157 10.5 6C10.5 6.82843 11.1716 7.5 12 7.5Z" fill="#374957"/>
<path d="M11.9998 9.99927C11.0109 9.99927 10.0442 10.2925 9.22191 10.8419C8.39966 11.3913 7.7588 12.1722 7.38036 13.0859C7.00192 13.9995 6.90291 15.0048 7.09583 15.9747C7.28876 16.9446 7.76496 17.8355 8.46422 18.5348C9.16349 19.2341 10.0544 19.7103 11.0243 19.9032C11.9942 20.0961 12.9995 19.9971 13.9132 19.6187C14.8268 19.2402 15.6077 18.5994 16.1571 17.7771C16.7065 16.9549 16.9998 15.9882 16.9998 14.9993C16.9982 13.6737 16.4709 12.4028 15.5335 11.4655C14.5962 10.5281 13.3254 10.0009 11.9998 9.99927ZM11.9998 17.9993C11.4064 17.9993 10.8264 17.8233 10.333 17.4937C9.8397 17.164 9.45518 16.6955 9.22812 16.1473C9.00106 15.5991 8.94165 14.9959 9.0574 14.414C9.17316 13.8321 9.45888 13.2975 9.87844 12.8779C10.298 12.4584 10.8325 12.1727 11.4145 12.0569C11.9964 11.9412 12.5996 12.0006 13.1478 12.2276C13.696 12.4547 14.1645 12.8392 14.4942 13.3326C14.8238 13.8259 14.9998 14.4059 14.9998 14.9993C14.9998 15.7949 14.6837 16.558 14.1211 17.1206C13.5585 17.6832 12.7954 17.9993 11.9998 17.9993Z" fill="#374957"/>
<path d="M12.0002 16.0005C12.5525 16.0005 13.0003 15.5528 13.0003 15.0005C13.0003 14.4482 12.5525 14.0005 12.0002 14.0005C11.448 14.0005 11.0002 14.4482 11.0002 15.0005C11.0002 15.5528 11.448 16.0005 12.0002 16.0005Z" fill="#374957"/>
</g>
<defs>
<clipPath id="clip0_806_6220">
<rect width="24" height="24" fill="white"/>
</clipPath>
</defs>
</svg>
