<svg width="24" height="24" viewBox="0 0 24 24" fill="none" xmlns="http://www.w3.org/2000/svg">
<path d="M17.7101 9.87989L13.4101 5.58989C13.0353 5.21738 12.5284 5.0083 12.0001 5.0083C11.4717 5.0083 10.9648 5.21738 10.5901 5.58989L6.29006 9.87989C6.10381 10.0672 5.99927 10.3207 5.99927 10.5849C5.99927 10.8491 6.10381 11.1025 6.29006 11.2899C6.38302 11.3836 6.49362 11.458 6.61548 11.5088C6.73734 11.5595 6.86805 11.5857 7.00006 11.5857C7.13207 11.5857 7.26278 11.5595 7.38464 11.5088C7.5065 11.458 7.6171 11.3836 7.71006 11.2899L11.0001 7.99989V18.9999C11.0001 19.2651 11.1054 19.5195 11.293 19.707C11.4805 19.8945 11.7348 19.9999 12.0001 19.9999C12.2653 19.9999 12.5196 19.8945 12.7072 19.707C12.8947 19.5195 13.0001 19.2651 13.0001 18.9999V7.99989L16.2901 11.2899C16.477 11.4782 16.7312 11.5845 16.9965 11.5854C17.2619 11.5864 17.5168 11.4819 17.7051 11.2949C17.8934 11.1079 17.9997 10.8538 18.0006 10.5884C18.0016 10.3231 17.897 10.0682 17.7101 9.87989Z" fill="#374957"/>
</svg>
