<svg width="24" height="24" viewBox="0 0 24 24" fill="none" xmlns="http://www.w3.org/2000/svg">
<g clip-path="url(#clip0_806_6194)">
<path d="M18.581 2.14073L12.316 0.0517291C12.1109 -0.016592 11.8891 -0.016592 11.684 0.0517291L5.419 2.14073C4.42291 2.47161 3.55642 3.10799 2.94265 3.95944C2.32887 4.81089 1.99904 5.83412 2 6.88373V12.0007C2 19.5637 11.2 23.7407 11.594 23.9147C11.7218 23.9715 11.8601 24.0009 12 24.0009C12.1399 24.0009 12.2782 23.9715 12.406 23.9147C12.8 23.7407 22 19.5637 22 12.0007V6.88373C22.001 5.83412 21.6711 4.81089 21.0574 3.95944C20.4436 3.10799 19.5771 2.47161 18.581 2.14073ZM20 12.0007C20 17.4557 13.681 21.0337 12 21.8897C10.317 21.0367 4 17.4697 4 12.0007V6.88373C4.00006 6.25401 4.19828 5.64027 4.56657 5.12947C4.93486 4.61868 5.45455 4.23672 6.052 4.03773L12 2.05473L17.948 4.03773C18.5455 4.23672 19.0651 4.61868 19.4334 5.12947C19.8017 5.64027 19.9999 6.25401 20 6.88373V12.0007Z" fill="#374957"/>
<path d="M15.0002 9.99926H13.0002V7.99927C13.0002 7.73405 12.8949 7.4797 12.7073 7.29216C12.5198 7.10462 12.2655 6.99927 12.0002 6.99927C11.735 6.99927 11.4807 7.10462 11.2931 7.29216C11.1056 7.4797 11.0002 7.73405 11.0002 7.99927V9.99926H9.00024C8.73503 9.99926 8.48067 10.1046 8.29314 10.2922C8.1056 10.4797 8.00024 10.734 8.00024 10.9993C8.00024 11.2645 8.1056 11.5188 8.29314 11.7064C8.48067 11.8939 8.73503 11.9993 9.00024 11.9993H11.0002V13.9993C11.0002 14.2645 11.1056 14.5188 11.2931 14.7064C11.4807 14.8939 11.735 14.9993 12.0002 14.9993C12.2655 14.9993 12.5198 14.8939 12.7073 14.7064C12.8949 14.5188 13.0002 14.2645 13.0002 13.9993V11.9993H15.0002C15.2654 11.9993 15.5198 11.8939 15.7073 11.7064C15.8949 11.5188 16.0002 11.2645 16.0002 10.9993C16.0002 10.734 15.8949 10.4797 15.7073 10.2922C15.5198 10.1046 15.2654 9.99926 15.0002 9.99926Z" fill="#374957"/>
</g>
<defs>
<clipPath id="clip0_806_6194">
<rect width="24" height="24" fill="white"/>
</clipPath>
</defs>
</svg>
