<svg width="24" height="24" viewBox="0 0 24 24" fill="none" xmlns="http://www.w3.org/2000/svg">
<g clip-path="url(#clip0_806_5898)">
<path d="M20.0002 12C19.3867 11.9999 18.7814 12.1411 18.2313 12.4127C17.6812 12.6842 17.2011 13.0789 16.8282 13.566L16.7582 13.536C17.0332 12.684 17.0744 11.7738 16.8775 10.9004C16.6806 10.0271 16.2529 9.22262 15.6389 8.57104C15.0249 7.91947 14.2473 7.44469 13.3871 7.19631C12.527 6.94792 11.616 6.93503 10.7492 7.15898L10.6582 6.98698C11.3845 6.34071 11.8503 5.45172 11.9682 4.48663C12.086 3.52153 11.8479 2.54658 11.2984 1.74449C10.7489 0.942394 9.92579 0.368214 8.98328 0.129556C8.04076 -0.109102 7.04356 0.0041444 6.17856 0.448071C5.31356 0.891997 4.64013 1.63613 4.28449 2.54102C3.92885 3.4459 3.91541 4.44942 4.24668 5.36351C4.57795 6.2776 5.2312 7.03951 6.08399 7.50645C6.93679 7.97339 7.9306 8.11331 8.87917 7.89998L8.95217 8.03698C7.95223 8.80431 7.27956 9.9215 7.06922 11.1643C6.85888 12.407 7.12643 13.6833 7.81817 14.737L5.93317 16.5C5.08114 16.0292 4.08668 15.8853 3.13616 16.0953C2.18564 16.3052 1.34429 16.8545 0.769768 17.6403C0.195248 18.4261 -0.0730081 19.3945 0.0152689 20.3639C0.103546 21.3333 0.542297 22.2373 1.2493 22.9064C1.95631 23.5755 2.88305 23.9638 3.85585 23.9986C4.82866 24.0334 5.78077 23.7122 6.53376 23.0953C7.28675 22.4784 7.78894 21.6081 7.94623 20.6475C8.10351 19.6868 7.9051 18.7018 7.38817 17.877L9.22617 16.159C10.2357 16.8337 11.4564 17.1175 12.66 16.9572C13.8636 16.7968 14.9675 16.2034 15.7652 15.288L16.0442 15.407C15.9231 16.2144 16.0521 17.0396 16.4137 17.7716C16.7753 18.5037 17.3523 19.1075 18.0672 19.502C18.782 19.8965 19.6004 20.0629 20.4126 19.9786C21.2247 19.8944 21.9916 19.5637 22.6103 19.0309C23.2289 18.4981 23.6697 17.7887 23.8735 16.998C24.0772 16.2074 24.0341 15.3733 23.7499 14.6079C23.4658 13.8425 22.9542 13.1823 22.2839 12.7161C21.6136 12.2499 20.8167 12 20.0002 12ZM6.00017 3.99998C6.00017 3.60442 6.11747 3.21774 6.33723 2.88884C6.55699 2.55995 6.86935 2.3036 7.2348 2.15223C7.60026 2.00085 8.00239 1.96124 8.39035 2.03841C8.77831 2.11558 9.13468 2.30607 9.41438 2.58577C9.69409 2.86548 9.88457 3.22184 9.96174 3.6098C10.0389 3.99777 9.99931 4.3999 9.84793 4.76535C9.69656 5.1308 9.44021 5.44316 9.11131 5.66292C8.78241 5.88269 8.39573 5.99998 8.00017 5.99998C7.46974 5.99998 6.96103 5.78927 6.58596 5.4142C6.21088 5.03913 6.00017 4.53042 6.00017 3.99998ZM4.00017 22C3.60461 22 3.21793 21.8827 2.88903 21.6629C2.56013 21.4432 2.30379 21.1308 2.15241 20.7654C2.00104 20.3999 1.96143 19.9978 2.0386 19.6098C2.11577 19.2218 2.30625 18.8655 2.58596 18.5858C2.86566 18.3061 3.22203 18.1156 3.60999 18.0384C3.99795 17.9612 4.40009 18.0009 4.76554 18.1522C5.13099 18.3036 5.44335 18.5599 5.66311 18.8888C5.88287 19.2177 6.00017 19.6044 6.00017 20C6.00017 20.5304 5.78946 21.0391 5.41438 21.4142C5.03931 21.7893 4.5306 22 4.00017 22ZM12.0002 15C11.3509 14.9987 10.7195 14.7868 10.2009 14.3961C9.68227 14.0054 9.30442 13.457 9.12408 12.8332C8.94373 12.2095 8.97063 11.544 9.20073 10.9369C9.43084 10.3297 9.85172 9.81355 10.4002 9.46598L10.8072 9.24898C11.2161 9.07109 11.6596 8.98662 12.1053 9.0017C12.551 9.01679 12.9878 9.13107 13.3838 9.33621C13.7798 9.54135 14.125 9.83219 14.3945 10.1876C14.6639 10.543 14.8507 10.954 14.9413 11.3906C15.0319 11.8273 15.024 12.2787 14.9181 12.7119C14.8123 13.1452 14.6112 13.5493 14.3295 13.8951C14.0478 14.2408 13.6925 14.5194 13.2896 14.7105C12.8866 14.9016 12.4461 15.0005 12.0002 15ZM20.0002 18C19.6046 18 19.2179 17.8827 18.889 17.6629C18.5601 17.4432 18.3038 17.1308 18.1524 16.7654C18.001 16.3999 17.9614 15.9978 18.0386 15.6098C18.1158 15.2218 18.3063 14.8655 18.586 14.5858C18.8657 14.3061 19.222 14.1156 19.61 14.0384C19.998 13.9612 20.4001 14.0009 20.7655 14.1522C21.131 14.3036 21.4433 14.5599 21.6631 14.8888C21.8829 15.2177 22.0002 15.6044 22.0002 16C22.0002 16.5304 21.7895 17.0391 21.4144 17.4142C21.0393 17.7893 20.5306 18 20.0002 18Z" fill="#374957"/>
</g>
<defs>
<clipPath id="clip0_806_5898">
<rect width="24" height="24" fill="white"/>
</clipPath>
</defs>
</svg>
