<svg width="24" height="24" viewBox="0 0 24 24" fill="none" xmlns="http://www.w3.org/2000/svg">
<g clip-path="url(#clip0_806_6113)">
<path d="M13 3V1C13 0.734784 12.8946 0.48043 12.7071 0.292893C12.5196 0.105357 12.2652 0 12 0C11.7348 0 11.4804 0.105357 11.2929 0.292893C11.1054 0.48043 11 0.734784 11 1V3C9.14413 3.00212 7.36489 3.7403 6.05259 5.05259C4.7403 6.36489 4.00212 8.14413 4 10V16C4 18.1217 4.84285 20.1566 6.34315 21.6569C7.84344 23.1571 9.87827 24 12 24C14.1217 24 16.1566 23.1571 17.6569 21.6569C19.1571 20.1566 20 18.1217 20 16V10C19.9979 8.14413 19.2597 6.36489 17.9474 5.05259C16.6351 3.7403 14.8559 3.00212 13 3ZM18 16C18 17.5913 17.3679 19.1174 16.2426 20.2426C15.1174 21.3679 13.5913 22 12 22C10.4087 22 8.88258 21.3679 7.75736 20.2426C6.63214 19.1174 6 17.5913 6 16V10C6.00159 8.67441 6.52888 7.40356 7.46622 6.46622C8.40356 5.52888 9.67441 5.00159 11 5H13C14.3256 5.00159 15.5964 5.52888 16.5338 6.46622C17.4711 7.40356 17.9984 8.67441 18 10V16Z" fill="#374957"/>
<path d="M12.0002 7.00024C11.735 7.00024 11.4807 7.1056 11.2931 7.29314C11.1056 7.48067 11.0002 7.73503 11.0002 8.00024V10.0002C11.0002 10.2655 11.1056 10.5198 11.2931 10.7073C11.4807 10.8949 11.735 11.0002 12.0002 11.0002C12.2655 11.0002 12.5198 10.8949 12.7074 10.7073C12.8949 10.5198 13.0003 10.2655 13.0003 10.0002V8.00024C13.0003 7.73503 12.8949 7.48067 12.7074 7.29314C12.5198 7.1056 12.2655 7.00024 12.0002 7.00024Z" fill="#374957"/>
</g>
<defs>
<clipPath id="clip0_806_6113">
<rect width="24" height="24" fill="white"/>
</clipPath>
</defs>
</svg>
