<svg width="24" height="24" viewBox="0 0 24 24" fill="none" xmlns="http://www.w3.org/2000/svg">
<path d="M21 12.4238V10.9998C21 8.61281 20.0517 6.32362 18.3639 4.63579C16.6761 2.94797 14.3869 1.99976 12 1.99976C9.613 1.99976 7.32382 2.94797 5.63599 4.63579C3.94816 6.32362 2.99995 8.61281 2.99995 10.9998V12.4238C1.95111 12.8856 1.09275 13.6937 0.568572 14.7128C0.0443932 15.7319 -0.113788 16.9002 0.120508 18.022C0.354805 19.1438 0.967358 20.1511 1.85562 20.8752C2.74388 21.5993 3.85394 21.9963 4.99995 21.9998C5.53038 21.9998 6.03909 21.789 6.41416 21.414C6.78924 21.0389 6.99995 20.5302 6.99995 19.9998V13.9998C6.99995 13.4693 6.78924 12.9606 6.41416 12.5855C6.03909 12.2105 5.53038 11.9998 4.99995 11.9998V10.9998C4.99995 9.14324 5.73745 7.36276 7.0502 6.05001C8.36296 4.73725 10.1434 3.99976 12 3.99976C13.8565 3.99976 15.6369 4.73725 16.9497 6.05001C18.2625 7.36276 19 9.14324 19 10.9998V11.9998C18.4695 11.9998 17.9608 12.2105 17.5857 12.5855C17.2107 12.9606 17 13.4693 17 13.9998V19.9998C17 20.5302 17.2107 21.0389 17.5857 21.414C17.9608 21.789 18.4695 21.9998 19 21.9998C20.146 21.9963 21.256 21.5993 22.1443 20.8752C23.0325 20.1511 23.6451 19.1438 23.8794 18.022C24.1137 16.9002 23.9555 15.7319 23.4313 14.7128C22.9071 13.6937 22.0488 12.8856 21 12.4238ZM4.99995 19.9998C4.2043 19.9998 3.44124 19.6837 2.87863 19.1211C2.31602 18.5585 1.99995 17.7954 1.99995 16.9998C1.99995 16.2041 2.31602 15.441 2.87863 14.8784C3.44124 14.3158 4.2043 13.9998 4.99995 13.9998V19.9998ZM19 19.9998V13.9998C19.7956 13.9998 20.5587 14.3158 21.1213 14.8784C21.6839 15.441 22 16.2041 22 16.9998C22 17.7954 21.6839 18.5585 21.1213 19.1211C20.5587 19.6837 19.7956 19.9998 19 19.9998Z" fill="#374957"/>
</svg>
