<svg width="24" height="24" viewBox="0 0 24 24" fill="none" xmlns="http://www.w3.org/2000/svg">
<g clip-path="url(#clip0_806_5994)">
<path d="M6.96218 5.81784C7.30736 5.81784 7.58716 5.538 7.58716 5.19286C7.58716 4.84771 7.30732 4.56787 6.96218 4.56787H4.76219C4.417 4.56787 4.13721 4.84771 4.13721 5.19286V10.4069C4.13721 10.752 4.41705 11.0318 4.76219 11.0318H6.96218C7.30736 11.0318 7.58716 10.752 7.58716 10.4069C7.58716 10.0617 7.30732 9.78187 6.96218 9.78187H5.39116V8.42489H6.80018C7.14536 8.42489 7.42516 8.14504 7.42516 7.7999C7.42516 7.45472 7.14532 7.17492 6.80018 7.17492H5.39116V5.81793H6.96218V5.81784Z" fill="#374957"/>
<path d="M8.85087 5.16904V10.431C8.85087 10.7762 9.13071 11.056 9.47585 11.056C9.82104 11.056 10.1008 10.7762 10.1008 10.431V8.76806H10.9399C12.1052 8.76806 13.0498 7.82339 13.0498 6.65807C13.0498 5.49276 12.1052 4.54809 10.9399 4.54809L10.9389 4.54411H9.47487C9.43854 4.54312 9.18434 4.54054 9.00167 4.74661C8.84787 4.92004 8.84942 5.12339 8.85087 5.16904ZM10.9389 7.51406H10.1069V5.79004H10.9439C11.4189 5.79004 11.8039 6.17507 11.8039 6.65006C11.8039 7.12504 11.4189 7.51007 10.9439 7.51007L10.9389 7.51406Z" fill="#374957"/>
<path d="M19 0H5.00002C2.23997 0.00332812 0.00332812 2.23997 0 5.00002V19C0.00332812 21.76 2.23997 23.9967 5.00002 24H16.343C17.6699 24.0038 18.9432 23.4766 19.879 22.536L22.535 19.878C23.4757 18.9426 24.0033 17.6697 24 16.343V5.00002C23.9967 2.23997 21.76 0.00332812 19 0ZM2.00002 19V5.00002C2.00002 3.34317 3.34317 2.00002 5.00002 2.00002H19C20.6569 2.00002 22 3.34317 22 5.00002V15H18C16.3432 15 15 16.3432 15 18V22H5.00002C3.34312 22 2.00002 20.6569 2.00002 19ZM18.465 21.122C18.063 21.523 17.5547 21.8006 17 21.922V18C17 17.4477 17.4477 17 18 17H21.925C21.8013 17.5535 21.524 18.0609 21.125 18.464L18.465 21.122Z" fill="#374957"/>
<path d="M16.8567 7.2555C16.5837 7.1625 16.3008 7.1115 16.0218 7.03851C15.8004 6.99384 15.5951 6.8902 15.4278 6.73851C15.2606 6.57998 15.2012 6.33853 15.2757 6.12051C15.3706 5.93264 15.5569 5.80818 15.7668 5.79253C15.973 5.77968 16.1798 5.81001 16.3737 5.88154C16.6525 5.96845 16.926 6.07162 17.1927 6.19054C17.4877 6.31954 17.8338 6.39656 18.0717 6.11653C18.2466 5.90587 18.2597 5.60456 18.1038 5.37951C18.0001 5.2289 17.8601 5.10679 17.6967 5.02453C16.9647 4.59473 16.0912 4.47553 15.2707 4.69354C14.8374 4.8307 14.4712 5.12545 14.2447 5.51953C14.1385 5.70647 14.0683 5.91168 14.0377 6.12454C13.9819 6.50737 14.065 6.89756 14.2717 7.22456C14.5051 7.56618 14.8419 7.82381 15.2327 7.95956C15.6417 8.12756 16.0497 8.29054 16.4647 8.44256C16.6434 8.49876 16.8078 8.59289 16.9467 8.71856C17.1034 8.86697 17.1616 9.09178 17.0967 9.29756C17.0124 9.49458 16.845 9.64401 16.6398 9.70556C16.3276 9.82293 15.9856 9.83522 15.6657 9.74057C15.3545 9.62793 15.067 9.45839 14.8177 9.24056C14.7917 9.21956 14.7067 9.15558 14.6907 9.14057C14.4577 8.97398 14.1394 8.99531 13.9308 9.19158C13.675 9.42347 13.6557 9.81872 13.8876 10.0744C13.8876 10.0745 13.8877 10.0745 13.8877 10.0746C14.4843 10.7081 15.3175 11.0649 16.1877 11.0596C17.219 11.1049 18.1354 10.4069 18.3657 9.40059C18.4628 8.79164 18.2354 8.17617 17.7657 7.77661C17.5002 7.54439 17.1912 7.36729 16.8567 7.2555Z" fill="#374957"/>
</g>
<defs>
<clipPath id="clip0_806_5994">
<rect width="24" height="24" fill="white"/>
</clipPath>
</defs>
</svg>
