<svg width="24" height="24" viewBox="0 0 24 24" fill="none" xmlns="http://www.w3.org/2000/svg">
<g clip-path="url(#clip0_806_5846)">
<path d="M20.5367 12.7001L19.4067 12.0001L20.5377 11.3001C21.323 10.8332 21.9311 10.1189 22.2667 9.26911C22.4768 8.70726 22.5551 8.10468 22.4956 7.50779C22.4361 6.9109 22.2403 6.33564 21.9235 5.82632C21.6066 5.31701 21.177 4.88722 20.6679 4.57009C20.1587 4.25295 19.5836 4.05692 18.9867 3.99711C18.0761 3.92262 17.1665 4.15266 16.4007 4.65111L15.9997 4.90011V4.17211C16.0166 3.15686 15.6576 2.1712 14.9918 1.40459C14.326 0.63798 13.4003 0.144535 12.3927 0.0191092C11.8369 -0.0357594 11.2759 0.0263541 10.7456 0.201451C10.2153 0.376548 9.7275 0.660748 9.31368 1.03576C8.89987 1.41076 8.56916 1.86827 8.34285 2.37882C8.11655 2.88937 7.99966 3.44165 7.9997 4.00011V4.90011L7.5997 4.65011C6.83411 4.15025 5.92404 3.91913 5.01271 3.99311C4.41575 4.0524 3.84037 4.24798 3.33094 4.56477C2.82151 4.88156 2.39163 5.31109 2.07443 5.82027C1.75723 6.32945 1.5612 6.90466 1.50143 7.50158C1.44166 8.09849 1.51976 8.70115 1.72971 9.26311C2.06534 10.1131 2.67388 10.8276 3.45971 11.2941L4.59271 12.0001L3.4617 12.7001C2.67641 13.167 2.06828 13.8814 1.73271 14.7311C1.52235 15.2934 1.44402 15.8965 1.50377 16.4939C1.56352 17.0913 1.75975 17.6669 2.07731 18.1764C2.39487 18.6859 2.82527 19.1156 3.33527 19.4323C3.84527 19.749 4.42124 19.9443 5.01871 20.0031C5.92735 20.0774 6.83498 19.8484 7.5997 19.3521L7.9997 19.1001V20.0001C7.9997 21.061 8.42113 22.0784 9.17128 22.8285C9.92142 23.5787 10.9388 24.0001 11.9997 24.0001C13.0606 24.0001 14.078 23.5787 14.8281 22.8285C15.5783 22.0784 15.9997 21.061 15.9997 20.0001V19.1001L16.3997 19.3511C17.164 19.8478 18.0712 20.0774 18.9797 20.0041C19.577 19.945 20.1527 19.7495 20.6625 19.4327C21.1722 19.1158 21.6024 18.6861 21.9197 18.1767C22.2371 17.6672 22.4331 17.0917 22.4928 16.4944C22.5524 15.8972 22.474 15.2943 22.2637 14.7321C21.9287 13.8824 21.3213 13.1677 20.5367 12.7001ZM20.2257 17.1181C19.957 17.5493 19.528 17.8561 19.0331 17.9711C18.5382 18.086 18.018 17.9997 17.5867 17.7311L15.5277 16.4491C15.3762 16.3549 15.2022 16.3029 15.0237 16.2986C14.8453 16.2944 14.669 16.3379 14.5131 16.4247C14.3572 16.5115 14.2274 16.6385 14.1371 16.7924C14.0468 16.9464 13.9994 17.1217 13.9997 17.3001V20.0001C13.9997 20.5305 13.789 21.0393 13.4139 21.4143C13.0388 21.7894 12.5301 22.0001 11.9997 22.0001C11.4693 22.0001 10.9606 21.7894 10.5855 21.4143C10.2104 21.0393 9.99971 20.5305 9.99971 20.0001V17.3001C9.99966 17.1218 9.95196 16.9468 9.86153 16.7931C9.7711 16.6395 9.64124 16.5128 9.4854 16.4262C9.32955 16.3396 9.15339 16.2963 8.97516 16.3007C8.79693 16.305 8.62311 16.357 8.4717 16.4511L6.4127 17.7351C6.19918 17.8681 5.96155 17.9577 5.71339 17.9988C5.46523 18.0399 5.2114 18.0318 4.9664 17.9748C4.72139 17.9178 4.49 17.8132 4.28544 17.6668C4.08089 17.5204 3.90717 17.3351 3.7742 17.1216C3.64124 16.9081 3.55164 16.6705 3.51051 16.4223C3.46938 16.1741 3.47754 15.9203 3.5345 15.6753C3.59147 15.4303 3.69614 15.1989 3.84253 14.9943C3.98893 14.7898 4.17418 14.6161 4.38771 14.4831L7.0127 12.8491C7.15741 12.7594 7.27683 12.6343 7.35964 12.4855C7.44246 12.3368 7.48592 12.1694 7.48592 11.9991C7.48592 11.8289 7.44246 11.6614 7.35964 11.5127C7.27683 11.3639 7.15741 11.2388 7.0127 11.1491L4.38771 9.51611C3.95646 9.24758 3.64956 8.81873 3.5345 8.32392C3.41945 7.8291 3.50567 7.30885 3.7742 6.87761C4.04274 6.44637 4.47158 6.13946 4.9664 6.02441C5.46121 5.90936 5.98146 5.99558 6.4127 6.26411L8.4717 7.54611C8.6229 7.64011 8.79644 7.69205 8.97441 7.69655C9.15239 7.70105 9.32834 7.65796 9.48409 7.57173C9.63984 7.48549 9.76975 7.35924 9.86039 7.20602C9.95103 7.05279 9.99913 6.87814 9.99971 6.70011V4.10711C9.98891 3.62026 10.1497 3.14512 10.4539 2.76486C10.7581 2.3846 11.1864 2.12345 11.6637 2.02711C11.9508 1.97819 12.2451 1.99254 12.526 2.06917C12.8069 2.1458 13.0677 2.28285 13.2902 2.47075C13.5127 2.65864 13.6914 2.89286 13.814 3.15702C13.9365 3.42117 13.9999 3.70891 13.9997 4.00011V6.70011C13.9999 6.87831 14.0478 7.05321 14.1383 7.20672C14.2288 7.36023 14.3586 7.48677 14.5145 7.57324C14.6703 7.65971 14.8464 7.70298 15.0245 7.69856C15.2026 7.69414 15.3764 7.6422 15.5277 7.54811L17.5867 6.26711C17.8002 6.13415 18.0379 6.04454 18.286 6.00342C18.5342 5.96229 18.788 5.97044 19.033 6.02741C19.278 6.08438 19.5094 6.18905 19.714 6.33544C19.9185 6.48183 20.0922 6.66708 20.2252 6.88061C20.3582 7.09414 20.4478 7.33177 20.4889 7.57993C20.53 7.82808 20.5219 8.08191 20.4649 8.32692C20.4079 8.57193 20.3033 8.80331 20.1569 9.00787C20.0105 9.21243 19.8252 9.38615 19.6117 9.51911L16.9867 11.1531C16.842 11.2428 16.7226 11.3679 16.6398 11.5167C16.557 11.6654 16.5135 11.8329 16.5135 12.0031C16.5135 12.1734 16.557 12.3408 16.6398 12.4895C16.7226 12.6383 16.842 12.7634 16.9867 12.8531L19.6117 14.4871C19.8254 14.6199 20.0107 14.7935 20.1572 14.998C20.3038 15.2025 20.4085 15.4338 20.4655 15.6788C20.5226 15.9238 20.5307 16.1777 20.4896 16.4258C20.4484 16.674 20.3588 16.9116 20.2257 17.1251V17.1181Z" fill="#374957"/>
</g>
<defs>
<clipPath id="clip0_806_5846">
<rect width="24" height="24" fill="white"/>
</clipPath>
</defs>
</svg>
