<svg width="24" height="24" viewBox="0 0 24 24" fill="none" xmlns="http://www.w3.org/2000/svg">
<path d="M19.783 12.079C19.619 11.493 19.434 10.873 19.228 10.206C18.618 8.52422 18.2058 6.77712 18 5C18 4.73478 18.1053 4.48043 18.2929 4.29289C18.4804 4.10536 18.7348 4 19 4C19.2652 4 19.5196 4.10536 19.7071 4.29289C19.8946 4.48043 20 4.73478 20 5C20 5.26522 20.1053 5.51957 20.2929 5.70711C20.4804 5.89464 20.7348 6 21 6C21.2652 6 21.5196 5.89464 21.7071 5.70711C21.8946 5.51957 22 5.26522 22 5C22 4.20435 21.6839 3.44129 21.1213 2.87868C20.5587 2.31607 19.7956 2 19 2C18.2043 2 17.4413 2.31607 16.8787 2.87868C16.3161 3.44129 16 4.20435 16 5C16.0248 5.7636 16.1317 6.52231 16.319 7.263L11.519 11L5.97099 7H8.99999C9.26521 7 9.51956 6.89464 9.7071 6.70711C9.89464 6.51957 9.99999 6.26522 9.99999 6C9.99999 5.73478 9.89464 5.48043 9.7071 5.29289C9.51956 5.10536 9.26521 5 8.99999 5H5.97099C5.55556 4.99987 5.15073 5.13115 4.81442 5.37505C4.47812 5.61894 4.22757 5.96296 4.09864 6.35788C3.9697 6.75279 3.96897 7.17838 4.09656 7.57373C4.22415 7.96909 4.47352 8.31396 4.80899 8.559L9.87999 12.271L8.44199 13.39C7.54878 12.549 6.3753 12.0694 5.14876 12.044C3.92222 12.0185 2.72986 12.4491 1.80256 13.2523C0.875252 14.0555 0.278961 15.1743 0.129136 16.3919C-0.0206882 17.6095 0.286611 18.8394 0.991537 19.8435C1.69646 20.8475 2.74887 21.5543 3.94499 21.827C5.14111 22.0997 6.39586 21.9188 7.4663 21.3195C8.53673 20.7201 9.34671 19.7449 9.7394 18.5826C10.1321 17.4204 10.0796 16.1538 9.59199 15.028L16.881 9.359C17.022 9.835 17.608 11.743 17.737 12.182C16.5417 12.4941 15.5045 13.2381 14.8258 14.2703C14.1471 15.3025 13.8751 16.5497 14.0623 17.7708C14.2495 18.9918 14.8826 20.1002 15.8393 20.8817C16.7961 21.6632 18.0085 22.0624 19.2424 22.0021C20.4763 21.9418 21.644 21.4263 22.52 20.5552C23.396 19.6841 23.918 18.5193 23.9852 17.2858C24.0524 16.0522 23.6601 14.8376 22.8839 13.8765C22.1078 12.9154 21.003 12.276 19.783 12.082V12.079ZM4.99999 20C4.40665 20 3.82663 19.8241 3.33328 19.4944C2.83993 19.1648 2.45542 18.6962 2.22835 18.1481C2.00129 17.5999 1.94188 16.9967 2.05764 16.4147C2.17339 15.8328 2.45911 15.2982 2.87867 14.8787C3.29823 14.4591 3.83278 14.1734 4.41472 14.0576C4.99666 13.9419 5.59986 14.0013 6.14804 14.2284C6.69622 14.4554 7.16476 14.8399 7.4944 15.3333C7.82404 15.8266 7.99999 16.4067 7.99999 17C7.99999 17.7956 7.68392 18.5587 7.12131 19.1213C6.5587 19.6839 5.79564 20 4.99999 20ZM19 20C18.4066 20 17.8266 19.8241 17.3333 19.4944C16.8399 19.1648 16.4554 18.6962 16.2284 18.1481C16.0013 17.5999 15.9419 16.9967 16.0576 16.4147C16.1734 15.8328 16.4591 15.2982 16.8787 14.8787C17.2982 14.4591 17.8328 14.1734 18.4147 14.0576C18.9967 13.9419 19.5999 14.0013 20.148 14.2284C20.6962 14.4554 21.1648 14.8399 21.4944 15.3333C21.824 15.8266 22 16.4067 22 17C22 17.7956 21.6839 18.5587 21.1213 19.1213C20.5587 19.6839 19.7956 20 19 20Z" fill="#374957"/>
</svg>
