<svg width="24" height="24" viewBox="0 0 24 24" fill="none" xmlns="http://www.w3.org/2000/svg">
<g clip-path="url(#clip0_806_6162)">
<path d="M19 5.00073H5C3.67392 5.00073 2.40215 5.52752 1.46447 6.4652C0.526784 7.40288 0 8.67465 0 10.0007L0 14.0007C0 15.3268 0.526784 16.5986 1.46447 17.5363C2.40215 18.4739 3.67392 19.0007 5 19.0007H19C19.6566 19.0007 20.3068 18.8714 20.9134 18.6201C21.52 18.3689 22.0712 18.0006 22.5355 17.5363C22.9998 17.072 23.3681 16.5208 23.6194 15.9141C23.8707 15.3075 24 14.6573 24 14.0007V10.0007C24 9.34412 23.8707 8.69394 23.6194 8.08732C23.3681 7.48069 22.9998 6.92949 22.5355 6.4652C22.0712 6.00091 21.52 5.63261 20.9134 5.38133C20.3068 5.13006 19.6566 5.00073 19 5.00073ZM22 14.0007C22 14.7964 21.6839 15.5594 21.1213 16.1221C20.5587 16.6847 19.7956 17.0007 19 17.0007H5C4.20435 17.0007 3.44129 16.6847 2.87868 16.1221C2.31607 15.5594 2 14.7964 2 14.0007V10.0007C2 9.20508 2.31607 8.44202 2.87868 7.87941C3.44129 7.3168 4.20435 7.00073 5 7.00073H19C19.7956 7.00073 20.5587 7.3168 21.1213 7.87941C21.6839 8.44202 22 9.20508 22 10.0007V14.0007Z" fill="#374957"/>
</g>
<defs>
<clipPath id="clip0_806_6162">
<rect width="24" height="24" fill="white"/>
</clipPath>
</defs>
</svg>
