<svg width="24" height="24" viewBox="0 0 24 24" fill="none" xmlns="http://www.w3.org/2000/svg">
<g clip-path="url(#clip0_806_5918)">
<path d="M21.0001 17.9998C20.2245 18.0007 19.4796 18.3034 18.9231 18.8438L15.9631 17.3628C15.9831 17.2427 15.9954 17.1214 16.0001 16.9998C15.9954 16.8781 15.9831 16.7569 15.9631 16.6368L18.9231 15.1558C19.4216 15.6332 20.0696 15.9237 20.7576 15.9783C21.4456 16.0328 22.1314 15.8479 22.6988 15.455C23.2662 15.062 23.6804 14.4851 23.8713 13.8218C24.0622 13.1586 24.0181 12.4498 23.7465 11.8153C23.4749 11.1808 22.9924 10.6597 22.3807 10.34C21.769 10.0204 21.0656 9.92192 20.3897 10.0613C19.7137 10.2006 19.1066 10.5692 18.6712 11.1047C18.2358 11.6401 17.9987 12.3096 18.0001 12.9998C18.0048 13.1214 18.0172 13.2427 18.0371 13.3628L15.0771 14.8438C14.6537 14.4341 14.1191 14.1582 13.5399 14.0504C12.9607 13.9426 12.3626 14.0078 11.8202 14.2377C11.2778 14.4676 10.8151 14.8522 10.4898 15.3434C10.1645 15.8346 9.99106 16.4107 9.99106 16.9998C9.99106 17.5889 10.1645 18.165 10.4898 18.6562C10.8151 19.1474 11.2778 19.5319 11.8202 19.7619C12.3626 19.9918 12.9607 20.0569 13.5399 19.9492C14.1191 19.8414 14.6537 19.5654 15.0771 19.1558L18.0371 20.6368C18.0172 20.7569 18.0048 20.8781 18.0001 20.9998C18.0001 21.5931 18.1761 22.1731 18.5057 22.6665C18.8354 23.1598 19.3039 23.5444 19.8521 23.7714C20.4003 23.9985 21.0035 24.0579 21.5854 23.9421C22.1673 23.8264 22.7019 23.5407 23.1214 23.1211C23.541 22.7015 23.8267 22.167 23.9425 21.5851C24.0582 21.0031 23.9988 20.3999 23.7718 19.8517C23.5447 19.3036 23.1602 18.835 22.6668 18.5054C22.1735 18.1757 21.5935 17.9998 21.0001 17.9998ZM21.0001 11.9998C21.1979 11.9998 21.3912 12.0584 21.5557 12.1683C21.7201 12.2782 21.8483 12.4344 21.924 12.6171C21.9997 12.7998 22.0195 13.0009 21.9809 13.1949C21.9423 13.3889 21.8471 13.567 21.7072 13.7069C21.5674 13.8467 21.3892 13.942 21.1952 13.9806C21.0012 14.0192 20.8002 13.9994 20.6174 13.9237C20.4347 13.848 20.2785 13.7198 20.1687 13.5554C20.0588 13.3909 20.0001 13.1976 20.0001 12.9998C20.0001 12.7346 20.1055 12.4802 20.293 12.2927C20.4806 12.1051 20.7349 11.9998 21.0001 11.9998ZM13.0001 17.9998C12.8023 17.9998 12.609 17.9411 12.4446 17.8313C12.2801 17.7214 12.1519 17.5652 12.0762 17.3825C12.0006 17.1997 11.9808 16.9987 12.0193 16.8047C12.0579 16.6107 12.1532 16.4325 12.293 16.2927C12.4329 16.1528 12.6111 16.0576 12.805 16.019C12.999 15.9804 13.2001 16.0002 13.3828 16.0759C13.5655 16.1516 13.7217 16.2798 13.8316 16.4442C13.9415 16.6087 14.0001 16.802 14.0001 16.9998C14.0001 17.265 13.8948 17.5194 13.7072 17.7069C13.5197 17.8944 13.2653 17.9998 13.0001 17.9998ZM21.0001 21.9998C20.8023 21.9998 20.609 21.9411 20.4446 21.8313C20.2801 21.7214 20.1519 21.5652 20.0762 21.3825C20.0006 21.1997 19.9808 20.9987 20.0193 20.8047C20.0579 20.6107 20.1532 20.4325 20.293 20.2927C20.4329 20.1528 20.6111 20.0576 20.805 20.019C20.999 19.9804 21.2001 20.0002 21.3828 20.0759C21.5655 20.1516 21.7217 20.2798 21.8316 20.4442C21.9415 20.6087 22.0001 20.802 22.0001 20.9998C22.0001 21.265 21.8948 21.5194 21.7072 21.7069C21.5197 21.8944 21.2653 21.9998 21.0001 21.9998ZM12.0001 21.9998C12.0001 22.265 11.8948 22.5194 11.7072 22.7069C11.5197 22.8944 11.2653 22.9998 11.0001 22.9998H5.67913C4.3464 22.9754 3.06208 22.496 2.03943 21.6411C1.01677 20.7861 0.317289 19.6071 0.0571282 18.2998C-0.113163 17.1745 0.0735742 16.0241 0.591076 15.0104C1.10858 13.9968 1.93081 13.1708 2.94213 12.6488C2.07398 11.0701 1.79068 9.23579 2.14213 7.46879C2.48385 5.72107 3.39894 4.13733 4.74244 2.96845C6.08595 1.79956 7.78105 1.11236 9.55924 1.0157C11.3374 0.919046 13.097 1.41846 14.5593 2.43482C16.0216 3.45119 17.103 4.92641 17.6321 6.62679C17.6825 6.79933 17.7748 6.95674 17.9008 7.08498C18.0268 7.21321 18.1825 7.30831 18.3541 7.36179C18.4825 7.39791 18.6023 7.45935 18.7066 7.54248C18.8109 7.62562 18.8975 7.72877 18.9613 7.84586C19.0251 7.96296 19.0649 8.09163 19.0782 8.22432C19.0915 8.357 19.0782 8.49102 19.039 8.61848C18.9998 8.74594 18.9355 8.86426 18.8498 8.9665C18.7642 9.06873 18.659 9.1528 18.5404 9.21377C18.4218 9.27473 18.2922 9.31136 18.1592 9.3215C18.0263 9.33163 17.8926 9.31507 17.7661 9.27279C17.284 9.1229 16.8458 8.85753 16.4896 8.49974C16.1333 8.14195 15.8699 7.70257 15.7221 7.21979C15.4815 6.41899 15.0761 5.67734 14.532 5.0424C13.9879 4.40747 13.3171 3.89326 12.5626 3.53278C11.8082 3.1723 10.9867 2.9735 10.1509 2.94913C9.31504 2.92476 8.48335 3.07536 7.70915 3.39127C6.93496 3.70718 6.23533 4.18142 5.65517 4.78358C5.07501 5.38573 4.62711 6.10251 4.34021 6.88792C4.05331 7.67333 3.93375 8.51004 3.98918 9.34437C4.04462 10.1787 4.27384 10.9922 4.66213 11.7328C4.90956 12.1947 4.96519 12.7355 4.81697 13.2382C4.66876 13.7409 4.32862 14.165 3.87013 14.4188C3.22645 14.7519 2.7033 15.2782 2.37417 15.9239C2.04504 16.5696 1.92647 17.3022 2.03513 18.0188C2.22023 18.8523 2.68019 19.5995 3.34108 20.1401C4.00197 20.6808 4.82542 20.9835 5.67913 20.9998H11.0001C11.2653 20.9998 11.5197 21.1051 11.7072 21.2927C11.8948 21.4802 12.0001 21.7346 12.0001 21.9998Z" fill="#374957"/>
</g>
<defs>
<clipPath id="clip0_806_5918">
<rect width="24" height="24" fill="white"/>
</clipPath>
</defs>
</svg>
