<svg width="24" height="24" viewBox="0 0 24 24" fill="none" xmlns="http://www.w3.org/2000/svg">
<g clip-path="url(#clip0_806_6069)">
<path d="M22.4852 10.9753L12.0002 17.2673L1.51524 10.9753C1.28782 10.8388 1.01551 10.7983 0.758206 10.8626C0.500906 10.9269 0.279698 11.0909 0.143244 11.3183C0.0067898 11.5457 -0.0337318 11.818 0.0305932 12.0753C0.0949182 12.3326 0.258821 12.5538 0.486244 12.6903L11.4862 19.2903C11.6418 19.3837 11.8198 19.4331 12.0012 19.4331C12.1827 19.4331 12.3607 19.3837 12.5162 19.2903L23.5162 12.6903C23.7437 12.5538 23.9076 12.3326 23.9719 12.0753C24.0362 11.818 23.9957 11.5457 23.8592 11.3183C23.7228 11.0909 23.5016 10.9269 23.2443 10.8626C22.987 10.7983 22.7147 10.8388 22.4872 10.9753H22.4852Z" fill="#374957"/>
<path d="M22.4852 15.5429L12.0002 21.8339L1.51524 15.5429C1.40263 15.4753 1.27782 15.4306 1.14793 15.4113C1.01803 15.392 0.885605 15.3984 0.758203 15.4303C0.630801 15.4621 0.51092 15.5187 0.405405 15.5969C0.299889 15.6751 0.210806 15.7733 0.143241 15.8859C0.0756756 15.9985 0.030952 16.1233 0.0116234 16.2532C-0.00770524 16.3831 -0.0012603 16.5155 0.0305902 16.6429C0.0949152 16.9002 0.258818 17.1215 0.486241 17.2579L11.4862 23.8579C11.6418 23.9514 11.8198 24.0007 12.0012 24.0007C12.1827 24.0007 12.3607 23.9514 12.5162 23.8579L23.5162 17.2579C23.7437 17.1215 23.9076 16.9002 23.9719 16.6429C24.0362 16.3856 23.9957 16.1133 23.8592 15.8859C23.7228 15.6585 23.5016 15.4946 23.2443 15.4303C22.987 15.3659 22.7147 15.4064 22.4872 15.5429H22.4852Z" fill="#374957"/>
<path d="M11.9999 14.7733C11.4605 14.773 10.9313 14.6261 10.4689 14.3483L0.484928 8.3573C0.337075 8.2684 0.214739 8.14275 0.129809 7.99258C0.0448784 7.84241 0.000244141 7.67282 0.000244141 7.5003C0.000244141 7.32778 0.0448784 7.15819 0.129809 7.00802C0.214739 6.85785 0.337075 6.7322 0.484928 6.6433L10.4689 0.6523C10.9313 0.374529 11.4605 0.227783 11.9999 0.227783C12.5393 0.227783 13.0686 0.374529 13.5309 0.6523L23.5149 6.6433C23.6628 6.7322 23.7851 6.85785 23.87 7.00802C23.955 7.15819 23.9996 7.32778 23.9996 7.5003C23.9996 7.67282 23.955 7.84241 23.87 7.99258C23.7851 8.14275 23.6628 8.2684 23.5149 8.3573L13.5309 14.3483C13.0685 14.6261 12.5393 14.773 11.9999 14.7733ZM2.94393 7.5003L11.4999 12.6333C11.651 12.7237 11.8238 12.7714 11.9999 12.7714C12.176 12.7714 12.3488 12.7237 12.4999 12.6333L21.0559 7.5003L12.4999 2.3673C12.3488 2.27691 12.176 2.22917 11.9999 2.22917C11.8238 2.22917 11.651 2.27691 11.4999 2.3673L2.94393 7.5003Z" fill="#374957"/>
</g>
<defs>
<clipPath id="clip0_806_6069">
<rect width="24" height="24" fill="white"/>
</clipPath>
</defs>
</svg>
