<svg width="24" height="24" viewBox="0 0 24 24" fill="none" xmlns="http://www.w3.org/2000/svg">
<g clip-path="url(#clip0_806_6134)">
<path d="M23.6999 0.307347C23.5124 0.120181 23.2583 0.0150599 22.9934 0.0150599C22.7285 0.0150599 22.4744 0.120181 22.2869 0.307347L10.0929 12.4943C9.23111 11.4637 8.52001 10.3159 7.98092 9.08535L9.13892 7.63135C9.68916 7.05577 9.99683 6.29053 9.99813 5.49425C9.99943 4.69797 9.69428 3.93172 9.14592 3.35435C9.14592 3.35435 7.29392 0.950347 7.26392 0.920347C6.69384 0.346086 5.92068 0.0192309 5.11155 0.0104361C4.30242 0.00164123 3.52234 0.311613 2.93992 0.873347L1.79092 1.87335C-2.22508 6.32135 1.15292 12.5873 5.33992 17.2443L0.299915 22.2803C0.125164 22.4702 0.0305721 22.7203 0.0359171 22.9783C0.0412622 23.2363 0.14613 23.4822 0.328596 23.6647C0.511062 23.8471 0.756999 23.952 1.01499 23.9573C1.27298 23.9627 1.52305 23.8681 1.71292 23.6933L23.6999 1.72035C23.8871 1.53286 23.9922 1.27877 23.9922 1.01385C23.9922 0.748928 23.8871 0.494834 23.6999 0.307347ZM2.00692 6.24535C1.99142 5.16269 2.40316 4.11753 3.15292 3.33635L4.30192 2.33635C4.50101 2.1386 4.76815 2.02442 5.04867 2.01717C5.32919 2.00992 5.60187 2.11015 5.81091 2.29735C5.81091 2.29735 7.65192 4.68635 7.68192 4.71635C7.88703 4.92151 8.00227 5.19974 8.00227 5.48985C8.00227 5.77996 7.88703 6.05819 7.68192 6.26335C7.65592 6.28935 6.04791 8.30035 6.04791 8.30035C5.93663 8.43886 5.86426 8.60451 5.83825 8.78027C5.81224 8.95603 5.83352 9.13555 5.89992 9.30035C6.56115 10.9816 7.49575 12.5419 8.66592 13.9183L6.75191 15.8333C3.80891 12.6743 2.00692 9.08735 2.00692 6.24535ZM23.0849 16.7333C23.6629 17.3143 23.9874 18.1004 23.9874 18.9198C23.9874 19.7393 23.6629 20.5254 23.0849 21.1063L22.1749 22.1543C18.2999 25.6813 13.5999 23.6184 9.19991 20.6453C9.09486 20.5666 9.00635 20.4678 8.93944 20.3548C8.87253 20.2418 8.82854 20.1168 8.80997 19.9868C8.77246 19.7242 8.84079 19.4575 8.99992 19.2453C9.15905 19.0332 9.39594 18.8929 9.65849 18.8554C9.92105 18.8179 10.1877 18.8862 10.3999 19.0453C13.9089 21.3603 17.7319 23.3874 20.7199 20.7943L21.6309 19.7453C21.8454 19.548 21.9743 19.2747 21.9901 18.9836C22.006 18.6926 21.9076 18.4069 21.7159 18.1873C21.7159 18.1873 19.3239 16.3473 19.2939 16.3173C19.0879 16.1134 18.8098 15.999 18.5199 15.999C18.23 15.999 17.9519 16.1134 17.7459 16.3173C17.7189 16.3443 15.7029 17.9503 15.7029 17.9503C15.5693 18.0573 15.4104 18.1279 15.2415 18.1554C15.0726 18.1829 14.8995 18.1664 14.7389 18.1073C14.0823 17.8576 13.4434 17.5632 12.8269 17.2263C12.6137 17.0919 12.4591 16.882 12.3941 16.6385C12.3291 16.395 12.3584 16.1359 12.4762 15.9131C12.594 15.6903 12.7916 15.5202 13.0294 15.4368C13.2672 15.3534 13.5278 15.3629 13.7589 15.4633C14.1299 15.6633 14.5149 15.8543 14.9149 16.0243L16.3769 14.8613C16.9527 14.3109 17.7182 14.0033 18.5147 14.0022C19.3112 14.001 20.0776 14.3066 20.6549 14.8553C20.6549 14.8553 23.0539 16.7003 23.0849 16.7333Z" fill="#374957"/>
</g>
<defs>
<clipPath id="clip0_806_6134">
<rect width="24" height="24" fill="white"/>
</clipPath>
</defs>
</svg>
