<svg width="24" height="24" viewBox="0 0 24 24" fill="none" xmlns="http://www.w3.org/2000/svg">
<g clip-path="url(#clip0_806_6006)">
<path d="M10.2069 0.0682857H10.1999C9.9759 0.0176751 9.74129 0.0457155 9.53551 0.147695C9.32973 0.249674 9.16532 0.419377 9.06992 0.628286L0.374917 19.7593C0.167296 20.2162 0.077637 20.718 0.114152 21.2185C0.150667 21.7191 0.312188 22.2025 0.583923 22.6245C0.855659 23.0465 1.22892 23.3936 1.66953 23.6339C2.11014 23.8743 2.60401 24.0002 3.10592 24.0003H9.99992C10.2651 24.0003 10.5195 23.8949 10.707 23.7074C10.8946 23.5199 10.9999 23.2655 10.9999 23.0003V1.04629C10.998 0.817562 10.9185 0.596259 10.7745 0.418594C10.6304 0.240928 10.4303 0.117421 10.2069 0.0682857ZM8.99992 22.0003H3.10592C2.93852 22.0004 2.77376 21.9585 2.62676 21.8784C2.47976 21.7983 2.35522 21.6826 2.26456 21.5419C2.17389 21.4012 2.12001 21.2399 2.10784 21.073C2.09567 20.906 2.12561 20.7387 2.19492 20.5863L8.99992 5.61629V22.0003Z" fill="#374957"/>
<path d="M23.6247 19.7589L14.9298 0.627929C14.8298 0.417823 14.6612 0.248106 14.4517 0.146829C14.2422 0.0455515 14.0045 0.0187765 13.7778 0.0709293C13.5568 0.12124 13.3595 0.245117 13.2181 0.422259C13.0768 0.599401 12.9998 0.819303 12.9998 1.04593V22.9999C12.9998 23.2651 13.1051 23.5195 13.2926 23.707C13.4802 23.8946 13.7345 23.9999 13.9998 23.9999H20.8937C21.3956 23.9999 21.8895 23.8739 22.3301 23.6336C22.7707 23.3932 23.144 23.0461 23.4157 22.6242C23.6875 22.2022 23.849 21.7188 23.8855 21.2182C23.922 20.7176 23.8324 20.2159 23.6247 19.7589Z" fill="#374957"/>
</g>
<defs>
<clipPath id="clip0_806_6006">
<rect width="24" height="24" fill="white"/>
</clipPath>
</defs>
</svg>
