<svg width="24" height="24" viewBox="0 0 24 24" fill="none" xmlns="http://www.w3.org/2000/svg">
<g clip-path="url(#clip0_806_6164)">
<path d="M16.9 14.7237C17.0875 14.9112 17.3418 15.0165 17.607 15.0165C17.8722 15.0165 18.1265 14.9112 18.314 14.7237L23.263 9.77373C23.4952 9.54158 23.6794 9.26595 23.8051 8.96259C23.9308 8.65924 23.9955 8.33409 23.9955 8.00573C23.9955 7.67737 23.9308 7.35223 23.8051 7.04887C23.6794 6.74551 23.4952 6.46989 23.263 6.23773L18.313 1.28873C18.1228 1.1163 17.8736 1.02361 17.617 1.02984C17.3604 1.03606 17.116 1.14074 16.9344 1.32218C16.7529 1.50363 16.648 1.74796 16.6416 2.00457C16.6352 2.26119 16.7277 2.51045 16.9 2.70073L21.2 7.00073H5C3.67392 7.00073 2.40215 7.52752 1.46447 8.4652C0.526784 9.40288 0 10.6747 0 12.0007L0 19.0007C0.00158786 20.3263 0.528882 21.5972 1.46622 22.5345C2.40356 23.4719 3.67441 23.9991 5 24.0007H19C19.2652 24.0007 19.5196 23.8954 19.7071 23.7078C19.8946 23.5203 20 23.2659 20 23.0007C20 22.7355 19.8946 22.4812 19.7071 22.2936C19.5196 22.1061 19.2652 22.0007 19 22.0007H5C4.20435 22.0007 3.44129 21.6847 2.87868 21.1221C2.31607 20.5594 2 19.7964 2 19.0007V12.0007C2 11.2051 2.31607 10.442 2.87868 9.87941C3.44129 9.3168 4.20435 9.00073 5 9.00073H21.212L16.9 13.3097C16.7125 13.4973 16.6072 13.7516 16.6072 14.0167C16.6072 14.2819 16.7125 14.5362 16.9 14.7237Z" fill="#374957"/>
</g>
<defs>
<clipPath id="clip0_806_6164">
<rect width="24" height="24" fill="white"/>
</clipPath>
</defs>
</svg>
