<svg width="24" height="24" viewBox="0 0 24 24" fill="none" xmlns="http://www.w3.org/2000/svg">
<g clip-path="url(#clip0_806_6226)">
<path d="M21.77 8.94826C21.6068 8.88992 21.4577 8.79797 21.3323 8.67835C21.2069 8.55874 21.108 8.41414 21.042 8.25389C20.976 8.09365 20.9444 7.92134 20.9492 7.74811C20.954 7.57488 20.9952 7.40459 21.07 7.24826C21.3569 6.64431 21.45 5.96635 21.3363 5.30742C21.2226 4.64849 20.9078 4.04089 20.435 3.56802C19.9623 3.09515 19.3548 2.78018 18.6959 2.66635C18.0369 2.55252 17.359 2.64541 16.755 2.93226C16.5986 3.00688 16.4283 3.04789 16.2551 3.05263C16.082 3.05737 15.9097 3.02574 15.7495 2.95977C15.5893 2.89381 15.4447 2.79498 15.3251 2.66966C15.2054 2.54435 15.1134 2.39534 15.055 2.23226C14.8301 1.60334 14.4164 1.05929 13.8704 0.674629C13.3244 0.289966 12.6728 0.0834961 12.005 0.0834961C11.3371 0.0834961 10.6855 0.289966 10.1395 0.674629C9.5935 1.05929 9.17976 1.60334 8.95495 2.23226C8.89661 2.39544 8.80466 2.54455 8.68505 2.66995C8.56544 2.79535 8.42083 2.89424 8.26059 2.96023C8.10034 3.02621 7.92803 3.05781 7.7548 3.053C7.58157 3.04818 7.41128 3.00704 7.25495 2.93226C6.65063 2.64313 5.97152 2.5485 5.31117 2.66141C4.65083 2.77432 4.04174 3.08921 3.56781 3.5627C3.09388 4.03619 2.77843 4.64499 2.66491 5.30523C2.55139 5.96547 2.64538 6.64466 2.93395 7.24926C3.0089 7.40556 3.05016 7.57587 3.05506 7.74915C3.05995 7.92242 3.02838 8.09479 2.96238 8.25508C2.89638 8.41537 2.79742 8.55999 2.67194 8.67958C2.54645 8.79917 2.39723 8.89105 2.23395 8.94926C1.60548 9.17452 1.06194 9.58843 0.677669 10.1344C0.293397 10.6803 0.0871582 11.3316 0.0871582 11.9993C0.0871582 12.6669 0.293397 13.3182 0.677669 13.8641C1.06194 14.4101 1.60548 14.824 2.23395 15.0493C2.39757 15.1071 2.54721 15.1987 2.67315 15.318C2.79909 15.4374 2.89853 15.582 2.96501 15.7423C3.03148 15.9026 3.06352 16.0751 3.05903 16.2485C3.05454 16.422 3.01363 16.5926 2.93895 16.7493C2.65179 17.3528 2.55845 18.0305 2.67173 18.6892C2.78502 19.3479 3.09938 19.9555 3.57168 20.4284C4.04398 20.9014 4.65107 21.2166 5.30964 21.3308C5.96821 21.445 6.64599 21.3526 7.24995 21.0663C7.40628 20.9915 7.57657 20.9503 7.7498 20.9455C7.92303 20.9407 8.09534 20.9723 8.25559 21.0383C8.41583 21.1043 8.56044 21.2032 8.68005 21.3286C8.79966 21.454 8.89161 21.6031 8.94995 21.7663C9.17476 22.3952 9.5885 22.9392 10.1345 23.3239C10.6805 23.7086 11.3321 23.915 12 23.915C12.6678 23.915 13.3194 23.7086 13.8654 23.3239C14.4114 22.9392 14.8251 22.3952 15.05 21.7663C15.1083 21.6031 15.2002 21.454 15.3199 21.3286C15.4395 21.2032 15.5841 21.1043 15.7443 21.0383C15.9046 20.9723 16.0769 20.9407 16.2501 20.9455C16.4233 20.9503 16.5936 20.9915 16.75 21.0663C17.3539 21.3533 18.0319 21.4463 18.6908 21.3326C19.3497 21.2189 19.9573 20.9041 20.4302 20.4314C20.9031 19.9586 21.218 19.3511 21.3319 18.6922C21.4457 18.0333 21.3528 17.3553 21.066 16.7513C20.9913 16.5949 20.9503 16.4246 20.9456 16.2515C20.9408 16.0783 20.9725 15.906 21.0384 15.7458C21.1044 15.5856 21.2032 15.441 21.3285 15.3214C21.4539 15.2018 21.6029 15.1097 21.766 15.0513C22.3949 14.8264 22.9389 14.4127 23.3236 13.8667C23.7082 13.3207 23.9147 12.6692 23.9147 12.0013C23.9147 11.3334 23.7082 10.6818 23.3236 10.1358C22.9389 9.58981 22.3949 9.17607 21.766 8.95126L21.77 8.94826ZM21.1 13.1673C20.673 13.3191 20.2827 13.5589 19.9542 13.871C19.6257 14.1832 19.3664 14.5608 19.193 14.9794C19.0195 15.3981 18.9359 15.8484 18.9474 16.3014C18.959 16.7544 19.0654 17.2 19.26 17.6093C19.37 17.8404 19.4058 18.1 19.3623 18.3523C19.3188 18.6047 19.1982 18.8373 19.0171 19.0183C18.836 19.1993 18.6033 19.3197 18.351 19.3631C18.0986 19.4064 17.8391 19.3705 17.608 19.2603C17.1987 19.0658 16.7533 18.9593 16.3004 18.9478C15.8474 18.9362 15.3971 19.0199 14.9785 19.1933C14.56 19.3667 14.1825 19.6261 13.8704 19.9546C13.5583 20.283 13.3187 20.6734 13.167 21.1003C13.0815 21.3415 12.9235 21.5503 12.7145 21.698C12.5055 21.8457 12.2559 21.925 12 21.925C11.744 21.925 11.4944 21.8457 11.2854 21.698C11.0764 21.5503 10.9184 21.3415 10.833 21.1003C10.681 20.6734 10.4411 20.2832 10.129 19.9548C9.81679 19.6264 9.43921 19.3671 9.0206 19.1937C8.602 19.0203 8.15167 18.9367 7.69872 18.9481C7.24577 18.9596 6.80025 19.0659 6.39095 19.2603C6.15982 19.37 5.90038 19.4055 5.64828 19.3618C5.39617 19.3182 5.16375 19.1976 4.98294 19.0166C4.80213 18.8355 4.6818 18.603 4.63847 18.3508C4.59514 18.0987 4.63094 17.8393 4.74095 17.6083C4.93543 17.199 5.04184 16.7535 5.0533 16.3005C5.06476 15.8475 4.98103 15.3972 4.80751 14.9786C4.63398 14.56 4.37454 14.1825 4.04595 13.8705C3.71736 13.5585 3.32695 13.3189 2.89995 13.1673C2.65917 13.0814 2.45085 12.9231 2.30354 12.7142C2.15624 12.5053 2.07716 12.2559 2.07716 12.0003C2.07716 11.7446 2.15624 11.4952 2.30354 11.2863C2.45085 11.0774 2.65917 10.9191 2.89995 10.8333C3.32709 10.6817 3.71763 10.4421 4.04628 10.13C4.37494 9.81785 4.6344 9.44021 4.80785 9.02147C4.9813 8.60274 5.06489 8.15224 5.05319 7.69916C5.04149 7.24607 4.93478 6.80049 4.73995 6.39126C4.63008 6.16019 4.59444 5.90078 4.63792 5.64864C4.6814 5.39651 4.80187 5.16402 4.98279 4.9831C5.16371 4.80218 5.3962 4.68171 5.64834 4.63823C5.90047 4.59474 6.15989 4.63039 6.39095 4.74026C6.80023 4.93476 7.24577 5.04123 7.69876 5.05276C8.15176 5.0643 8.60214 4.98066 9.02079 4.80725C9.43944 4.63383 9.81704 4.3745 10.1292 4.04601C10.4413 3.71753 10.6811 3.3272 10.833 2.90026C10.9184 2.65902 11.0764 2.45019 11.2854 2.30249C11.4944 2.15479 11.744 2.07548 12 2.07548C12.2559 2.07548 12.5055 2.15479 12.7145 2.30249C12.9235 2.45019 13.0815 2.65902 13.167 2.90026C13.3188 3.3272 13.5586 3.71753 13.8707 4.04601C14.1829 4.3745 14.5605 4.63383 14.9791 4.80725C15.3978 4.98066 15.8481 5.0643 16.3011 5.05276C16.7541 5.04123 17.1997 4.93476 17.609 4.74026C17.8401 4.63018 18.0997 4.59443 18.352 4.63791C18.6044 4.68139 18.837 4.80197 19.018 4.98307C19.199 5.16417 19.3194 5.3969 19.3628 5.64924C19.4061 5.90159 19.3702 6.16116 19.26 6.39226C19.0655 6.80146 18.959 7.24693 18.9475 7.69986C18.9359 8.15279 19.0196 8.6031 19.193 9.02167C19.3664 9.44024 19.6258 9.81776 19.9543 10.1298C20.2827 10.4419 20.673 10.6815 21.1 10.8333C21.3412 10.9187 21.55 11.0768 21.6977 11.2857C21.8454 11.4947 21.9247 11.7443 21.9247 12.0003C21.9247 12.2562 21.8454 12.5058 21.6977 12.7148C21.55 12.9238 21.3412 13.0818 21.1 13.1673Z" fill="#374957"/>
</g>
<defs>
<clipPath id="clip0_806_6226">
<rect width="24" height="24" fill="white"/>
</clipPath>
</defs>
</svg>
