<svg width="24" height="24" viewBox="0 0 24 24" fill="none" xmlns="http://www.w3.org/2000/svg">
<g clip-path="url(#clip0_806_6205)">
<path d="M18.9 -0.000529194H5.1C3.76103 -0.012528 2.472 0.507218 1.51584 1.44463C0.559682 2.38204 0.0145152 3.66053 0 4.99947L0 7.99947C0 8.26469 0.105357 8.51904 0.292893 8.70658C0.48043 8.89411 0.734784 8.99947 1 8.99947C1.26522 8.99947 1.51957 8.89411 1.70711 8.70658C1.89464 8.51904 2 8.26469 2 7.99947V4.99947C2.01421 4.19087 2.34856 3.42091 2.92971 2.85851C3.51087 2.2961 4.29137 1.98716 5.1 1.99947H18.9C19.7086 1.98716 20.4891 2.2961 21.0703 2.85851C21.6514 3.42091 21.9858 4.19087 22 4.99947V18.9995C21.9858 19.8081 21.6514 20.578 21.0703 21.1404C20.4891 21.7028 19.7086 22.0118 18.9 21.9995H5.1C4.29137 22.0118 3.51087 21.7028 2.92971 21.1404C2.34856 20.578 2.01421 19.8081 2 18.9995V15.9995C2 15.7343 1.89464 15.4799 1.70711 15.2924C1.51957 15.1048 1.26522 14.9995 1 14.9995C0.734784 14.9995 0.48043 15.1048 0.292893 15.2924C0.105357 15.4799 0 15.7343 0 15.9995L0 18.9995C0.0145152 20.3384 0.559682 21.6169 1.51584 22.5543C2.472 23.4917 3.76103 24.0115 5.1 23.9995H18.9C20.239 24.0115 21.528 23.4917 22.4842 22.5543C23.4403 21.6169 23.9855 20.3384 24 18.9995V4.99947C23.9855 3.66053 23.4403 2.38204 22.4842 1.44463C21.528 0.507218 20.239 -0.012528 18.9 -0.000529194Z" fill="#374957"/>
<path d="M3 11.9992C3 12.2644 3.10536 12.5188 3.29289 12.7063C3.48043 12.8938 3.73478 12.9992 4 12.9992L17.188 12.9692L12.865 17.2922C12.7695 17.3844 12.6933 17.4948 12.6409 17.6168C12.5885 17.7388 12.5609 17.87 12.5597 18.0028C12.5586 18.1356 12.5839 18.2672 12.6342 18.3901C12.6845 18.513 12.7587 18.6247 12.8526 18.7186C12.9465 18.8125 13.0581 18.8867 13.181 18.937C13.3039 18.9873 13.4356 19.0126 13.5684 19.0114C13.7012 19.0103 13.8324 18.9827 13.9544 18.9303C14.0764 18.8779 14.1868 18.8017 14.279 18.7062L18.865 14.1202C19.4274 13.5576 19.7434 12.7947 19.7434 11.9992C19.7434 11.2037 19.4274 10.4408 18.865 9.87819L14.281 5.29219C14.0924 5.11003 13.8398 5.00923 13.5776 5.01151C13.3154 5.01379 13.0646 5.11896 12.8792 5.30437C12.6938 5.48978 12.5886 5.74059 12.5863 6.00279C12.584 6.26498 12.6848 6.51758 12.867 6.70619L17.129 10.9692L4 10.9992C3.73478 10.9992 3.48043 11.1045 3.29289 11.2921C3.10536 11.4796 3 11.734 3 11.9992Z" fill="#374957"/>
</g>
<defs>
<clipPath id="clip0_806_6205">
<rect width="24" height="24" fill="white"/>
</clipPath>
</defs>
</svg>
