<svg width="24" height="24" viewBox="0 0 24 24" fill="none" xmlns="http://www.w3.org/2000/svg">
<g clip-path="url(#clip0_806_6156)">
<path d="M12.9998 23.9991C11.4089 23.9975 9.88374 23.3649 8.75887 22.24C7.634 21.1151 7.00134 19.5899 6.99976 17.9991C6.99976 16.4391 8.19976 13.9541 10.5518 10.6111C10.831 10.2221 11.1989 9.90522 11.6249 9.68662C12.0509 9.46802 12.5229 9.354 13.0018 9.354C13.4806 9.354 13.9526 9.46802 14.3786 9.68662C14.8046 9.90522 15.1725 10.2221 15.4518 10.6111C17.8048 13.9541 18.9998 16.4391 18.9998 17.9991C18.9982 19.5899 18.3655 21.1151 17.2406 22.24C16.1158 23.3649 14.5906 23.9975 12.9998 23.9991ZM12.9998 11.3421C12.8401 11.3409 12.6826 11.3787 12.5409 11.4523C12.3992 11.5258 12.2776 11.6329 12.1868 11.7641C9.31076 15.8431 8.99976 17.4831 8.99976 17.9991C8.99976 19.06 9.42118 20.0774 10.1713 20.8275C10.9215 21.5777 11.9389 21.9991 12.9998 21.9991C14.0606 21.9991 15.078 21.5777 15.8282 20.8275C16.5783 20.0774 16.9998 19.06 16.9998 17.9991C16.9998 17.4831 16.6888 15.8431 13.8128 11.7641C13.7219 11.6329 13.6003 11.5258 13.4586 11.4523C13.3169 11.3787 13.1594 11.3409 12.9998 11.3421Z" fill="#374957"/>
<path d="M5 11.001C3.67441 10.9994 2.40356 10.4721 1.46622 9.53477C0.528882 8.59743 0.00158786 7.32659 0 6.00099C0 4.74099 0.842 3.14599 2.574 1.12399C2.87441 0.774743 3.24669 0.494473 3.66538 0.302341C4.08408 0.110208 4.53932 0.0107422 5 0.0107422C5.46068 0.0107422 5.91592 0.110208 6.33462 0.302341C6.75331 0.494473 7.12559 0.774743 7.426 1.12399C9.158 3.14399 10 4.73899 10 6.00099C9.99841 7.32659 9.47112 8.59743 8.53378 9.53477C7.59644 10.4721 6.32559 10.9994 5 11.001ZM5 2.00099C4.8273 2.00015 4.65655 2.03744 4.49994 2.11022C4.34333 2.18299 4.20471 2.28945 4.094 2.42199C2.151 4.68999 2 5.73299 2 6.00099C2 6.79664 2.31607 7.5597 2.87868 8.12231C3.44129 8.68492 4.20435 9.00099 5 9.00099C5.79565 9.00099 6.55871 8.68492 7.12132 8.12231C7.68393 7.5597 8 6.79664 8 6.00099C8 5.73499 7.849 4.69199 5.906 2.42499C5.79567 2.2918 5.6572 2.18469 5.50055 2.11138C5.3439 2.03807 5.17296 2.00037 5 2.00099Z" fill="#374957"/>
<path d="M19.5 9.96319C18.3069 9.96186 17.1631 9.48733 16.3195 8.64371C15.4759 7.80008 15.0013 6.65625 15 5.46319C15 4.37219 15.7 2.95719 17.146 1.13719C17.429 0.785045 17.7874 0.500883 18.1948 0.305637C18.6022 0.11039 19.0482 0.0090332 19.5 0.0090332C19.9518 0.0090332 20.3978 0.11039 20.8052 0.305637C21.2126 0.500883 21.571 0.785045 21.854 1.13719C23.3 2.95719 24 4.37219 24 5.46319C23.9987 6.65625 23.5241 7.80008 22.6805 8.64371C21.8369 9.48733 20.6931 9.96186 19.5 9.96319ZM19.5 1.99919C19.3485 1.99894 19.199 2.03311 19.0627 2.09911C18.9263 2.16511 18.8068 2.26122 18.713 2.38019C17.123 4.38419 17 5.24619 17 5.46319C17 6.12623 17.2634 6.76211 17.7322 7.23095C18.2011 7.69979 18.837 7.96319 19.5 7.96319C20.163 7.96319 20.7989 7.69979 21.2678 7.23095C21.7366 6.76211 22 6.12623 22 5.46319C22 5.24619 21.877 4.38419 20.287 2.38119C20.1933 2.26204 20.0738 2.16574 19.9375 2.09956C19.8011 2.03339 19.6516 1.99906 19.5 1.99919Z" fill="#374957"/>
</g>
<defs>
<clipPath id="clip0_806_6156">
<rect width="24" height="24" fill="white"/>
</clipPath>
</defs>
</svg>
