<svg width="24" height="24" viewBox="0 0 24 24" fill="none" xmlns="http://www.w3.org/2000/svg">
<g clip-path="url(#clip0_806_6109)">
<path d="M22.9997 16.0002C22.7345 16.0002 22.4802 16.1056 22.2926 16.2931C22.1051 16.4807 21.9997 16.735 21.9997 17.0002V19.0002C21.9997 19.7959 21.6837 20.5589 21.1211 21.1216C20.5585 21.6842 19.7954 22.0002 18.9998 22.0002H16.9998C16.7345 22.0002 16.4802 22.1056 16.2926 22.2931C16.1051 22.4807 15.9998 22.735 15.9998 23.0002C15.9998 23.2654 16.1051 23.5198 16.2926 23.7073C16.4802 23.8949 16.7345 24.0002 16.9998 24.0002H18.9998C20.3253 23.9986 21.5962 23.4713 22.5335 22.534C23.4709 21.5967 23.9982 20.3258 23.9997 19.0002V17.0002C23.9997 16.735 23.8944 16.4807 23.7068 16.2931C23.5193 16.1056 23.265 16.0002 22.9997 16.0002Z" fill="#374957"/>
<path d="M1 8C1.26522 8 1.51957 7.89464 1.70711 7.70711C1.89464 7.51957 2 7.26522 2 7V5C2 4.20435 2.31607 3.44129 2.87868 2.87868C3.44129 2.31607 4.20435 2 5 2H7C7.26522 2 7.51957 1.89464 7.70711 1.70711C7.89464 1.51957 8 1.26522 8 1C8 0.734784 7.89464 0.48043 7.70711 0.292893C7.51957 0.105357 7.26522 0 7 0L5 0C3.67441 0.00158786 2.40356 0.528882 1.46622 1.46622C0.528882 2.40356 0.00158786 3.67441 0 5L0 7C0 7.26522 0.105357 7.51957 0.292893 7.70711C0.48043 7.89464 0.734784 8 1 8Z" fill="#374957"/>
<path d="M7 22.0002H5C4.20435 22.0002 3.44129 21.6842 2.87868 21.1216C2.31607 20.5589 2 19.7959 2 19.0002V17.0002C2 16.735 1.89464 16.4807 1.70711 16.2931C1.51957 16.1056 1.26522 16.0002 1 16.0002C0.734784 16.0002 0.48043 16.1056 0.292893 16.2931C0.105357 16.4807 0 16.735 0 17.0002L0 19.0002C0.00158786 20.3258 0.528882 21.5967 1.46622 22.534C2.40356 23.4713 3.67441 23.9986 5 24.0002H7C7.26522 24.0002 7.51957 23.8949 7.70711 23.7073C7.89464 23.5198 8 23.2654 8 23.0002C8 22.735 7.89464 22.4807 7.70711 22.2931C7.51957 22.1056 7.26522 22.0002 7 22.0002Z" fill="#374957"/>
<path d="M18.9998 0H16.9998C16.7345 0 16.4802 0.105357 16.2926 0.292893C16.1051 0.48043 15.9998 0.734784 15.9998 1C15.9998 1.26522 16.1051 1.51957 16.2926 1.70711C16.4802 1.89464 16.7345 2 16.9998 2H18.9998C19.7954 2 20.5585 2.31607 21.1211 2.87868C21.6837 3.44129 21.9997 4.20435 21.9997 5V7C21.9997 7.26522 22.1051 7.51957 22.2926 7.70711C22.4802 7.89464 22.7345 8 22.9997 8C23.265 8 23.5193 7.89464 23.7068 7.70711C23.8944 7.51957 23.9997 7.26522 23.9997 7V5C23.9982 3.67441 23.4709 2.40356 22.5335 1.46622C21.5962 0.528882 20.3253 0.00158786 18.9998 0V0Z" fill="#374957"/>
<path d="M12.0002 11C12.7914 11 13.5647 10.7654 14.2225 10.3259C14.8803 9.88635 15.393 9.26164 15.6958 8.53074C15.9985 7.79983 16.0777 6.99556 15.9234 6.21964C15.769 5.44372 15.3881 4.73098 14.8287 4.17157C14.2693 3.61216 13.5565 3.2312 12.7806 3.07686C12.0047 2.92252 11.2004 3.00173 10.4695 3.30448C9.73861 3.60723 9.11389 4.11992 8.67437 4.77772C8.23484 5.43552 8.00024 6.20888 8.00024 7C8.00024 8.06087 8.42167 9.07828 9.17182 9.82843C9.92196 10.5786 10.9394 11 12.0002 11ZM12.0002 5C12.3958 5 12.7825 5.1173 13.1114 5.33706C13.4403 5.55683 13.6966 5.86918 13.848 6.23463C13.9994 6.60009 14.039 7.00222 13.9618 7.39018C13.8846 7.77814 13.6942 8.13451 13.4145 8.41422C13.1348 8.69392 12.7784 8.8844 12.3904 8.96157C12.0025 9.03874 11.6003 8.99914 11.2349 8.84776C10.8694 8.69639 10.5571 8.44004 10.3373 8.11114C10.1175 7.78224 10.0002 7.39556 10.0002 7C10.0002 6.46957 10.211 5.96086 10.586 5.58579C10.9611 5.21072 11.4698 5 12.0002 5Z" fill="#374957"/>
<path d="M18.0002 20.0002C18.2655 20.0002 18.5198 19.8949 18.7074 19.7074C18.8949 19.5198 19.0002 19.2655 19.0002 19.0002C18.9987 17.4094 18.366 15.8842 17.2411 14.7594C16.1163 13.6345 14.5911 13.0018 13.0002 13.0002H11.0002C9.40943 13.0018 7.88423 13.6345 6.75936 14.7594C5.63448 15.8842 5.00183 17.4094 5.00024 19.0002C5.00024 19.2655 5.1056 19.5198 5.29314 19.7074C5.48067 19.8949 5.73503 20.0002 6.00024 20.0002C6.26546 20.0002 6.51981 19.8949 6.70735 19.7074C6.89489 19.5198 7.00024 19.2655 7.00024 19.0002C7.00024 17.9394 7.42167 16.922 8.17182 16.1718C8.92196 15.4217 9.93938 15.0002 11.0002 15.0002H13.0002C14.0611 15.0002 15.0785 15.4217 15.8287 16.1718C16.5788 16.922 17.0002 17.9394 17.0002 19.0002C17.0002 19.2655 17.1056 19.5198 17.2931 19.7074C17.4807 19.8949 17.735 20.0002 18.0002 20.0002Z" fill="#374957"/>
</g>
<defs>
<clipPath id="clip0_806_6109">
<rect width="24" height="24" fill="white"/>
</clipPath>
</defs>
</svg>
