<svg width="24" height="24" viewBox="0 0 24 24" fill="none" xmlns="http://www.w3.org/2000/svg">
<g clip-path="url(#clip0_806_6044)">
<path d="M24 9.72381V18.9998C23.9984 20.3254 23.4711 21.5963 22.5338 22.5336C21.5964 23.4709 20.3256 23.9982 19 23.9998H18C17.7348 23.9998 17.4804 23.8945 17.2929 23.7069C17.1054 23.5194 17 23.265 17 22.9998C17 22.7346 17.1054 22.4802 17.2929 22.2927C17.4804 22.1052 17.7348 21.9998 18 21.9998H19C19.7957 21.9998 20.5587 21.6837 21.1213 21.1211C21.6839 20.5585 22 19.7955 22 18.9998V9.72381C22 9.23273 21.8795 8.74915 21.649 8.31553C21.4185 7.8819 21.0851 7.51149 20.678 7.23681L13.678 2.51381C13.1834 2.17662 12.5986 1.99627 12 1.99627C11.4014 1.99627 10.8166 2.17662 10.322 2.51381L3.322 7.23681C2.91493 7.51149 2.5815 7.8819 2.351 8.31553C2.1205 8.74915 1.99998 9.23273 2 9.72381V18.9998C2 19.7955 2.31607 20.5585 2.87868 21.1211C3.44129 21.6837 4.20435 21.9998 5 21.9998H6C6.26522 21.9998 6.51957 22.1052 6.70711 22.2927C6.89465 22.4802 7 22.7346 7 22.9998C7 23.265 6.89465 23.5194 6.70711 23.7069C6.51957 23.8945 6.26522 23.9998 6 23.9998H5C3.67441 23.9982 2.40356 23.4709 1.46622 22.5336C0.528886 21.5963 0.00159177 20.3254 3.91707e-06 18.9998V9.72381C-0.00102096 8.90553 0.199083 8.09954 0.582708 7.37676C0.966334 6.65397 1.52172 6.03655 2.2 5.57881L9.2 0.854814C10.0253 0.294767 10.9997 -0.00463867 11.997 -0.00463867C12.9944 -0.00463867 13.9687 0.294767 14.794 0.854814L21.794 5.57881C22.473 6.03631 23.0292 6.65353 23.4138 7.37626C23.7985 8.09898 23.9998 8.90511 24 9.72381ZM19 15.0068C19.0026 15.9263 18.8227 16.8372 18.4708 17.6867C18.1189 18.5362 17.602 19.3075 16.95 19.9558L13.435 23.3938C13.0502 23.7664 12.5356 23.9747 12 23.9747C11.4644 23.9747 10.9498 23.7664 10.565 23.3938L7.058 19.9638C6.2424 19.1508 5.63999 18.149 5.30419 17.0474C4.96839 15.9458 4.90957 14.7784 5.13293 13.6486C5.3563 12.5189 5.85496 11.4617 6.58471 10.5707C7.31445 9.67981 8.25274 8.98269 9.31639 8.54118C10.38 8.09967 11.5362 7.92741 12.6823 8.03967C13.8285 8.15193 14.9293 8.54523 15.887 9.18473C16.8448 9.82422 17.63 10.6901 18.173 11.7057C18.716 12.7213 19.0001 13.8552 19 15.0068ZM17 15.0068C17 14.1846 16.7973 13.375 16.4097 12.6499C16.0221 11.9247 15.4617 11.3064 14.778 10.8495C14.0944 10.3927 13.3086 10.1115 12.4904 10.0309C11.6721 9.95021 10.8466 10.0726 10.0869 10.3872C9.32726 10.7018 8.6569 11.1989 8.13523 11.8344C7.61356 12.47 7.25667 13.2244 7.09618 14.0308C6.93569 14.8372 6.97654 15.6708 7.21513 16.4576C7.45372 17.2445 7.88268 17.9603 8.464 18.5418L11.964 21.9638L15.544 18.5338C16.0076 18.0712 16.375 17.5214 16.6249 16.916C16.8748 16.3106 17.0023 15.6617 17 15.0068ZM15 14.9998C15 15.5932 14.8241 16.1732 14.4944 16.6665C14.1648 17.1599 13.6962 17.5444 13.1481 17.7715C12.5999 17.9985 11.9967 18.0579 11.4147 17.9422C10.8328 17.8264 10.2982 17.5407 9.87868 17.1211C9.45913 16.7016 9.1734 16.167 9.05765 15.5851C8.94189 15.0031 9.0013 14.3999 9.22837 13.8518C9.45543 13.3036 9.83995 12.8351 10.3333 12.5054C10.8266 12.1758 11.4067 11.9998 12 11.9998C12.7957 11.9998 13.5587 12.3159 14.1213 12.8785C14.6839 13.4411 15 14.2042 15 14.9998Z" fill="#374957"/>
</g>
<defs>
<clipPath id="clip0_806_6044">
<rect width="24" height="24" fill="white"/>
</clipPath>
</defs>
</svg>
