<svg width="24" height="24" viewBox="0 0 24 24" fill="none" xmlns="http://www.w3.org/2000/svg">
<g clip-path="url(#clip0_806_6265)">
<path d="M14.6 21.3003C14.3 21.5263 13.981 21.7643 13.71 22.0003H16C16.2653 22.0003 16.5196 22.1056 16.7072 22.2932C16.8947 22.4807 17 22.7351 17 23.0003C17 23.2655 16.8947 23.5199 16.7072 23.7074C16.5196 23.8949 16.2653 24.0003 16 24.0003H12C11.7348 24.0003 11.4805 23.8949 11.2929 23.7074C11.1054 23.5199 11 23.2655 11 23.0003C11 21.5003 12.275 20.5443 13.4 19.7003C14.15 19.1383 15 18.5003 15 18.0003C15 17.7351 14.8947 17.4807 14.7072 17.2932C14.5196 17.1056 14.2653 17.0003 14 17.0003C13.7348 17.0003 13.4805 17.1056 13.2929 17.2932C13.1054 17.4807 13 17.7351 13 18.0003C13 18.2655 12.8947 18.5199 12.7072 18.7074C12.5196 18.8949 12.2653 19.0003 12 19.0003C11.7348 19.0003 11.4805 18.8949 11.2929 18.7074C11.1054 18.5199 11 18.2655 11 18.0003C11 17.2046 11.3161 16.4416 11.8787 15.879C12.4413 15.3164 13.2044 15.0003 14 15.0003C14.7957 15.0003 15.5588 15.3164 16.1214 15.879C16.684 16.4416 17 17.2046 17 18.0003C17 19.5003 15.725 20.4563 14.6 21.3003ZM23 15.0003C22.7348 15.0003 22.4805 15.1056 22.2929 15.2932C22.1054 15.4807 22 15.7351 22 16.0003V19.0003H21C20.7348 19.0003 20.4805 18.8949 20.2929 18.7074C20.1054 18.5199 20 18.2655 20 18.0003V16.0003C20 15.7351 19.8947 15.4807 19.7072 15.2932C19.5196 15.1056 19.2653 15.0003 19 15.0003C18.7348 15.0003 18.4805 15.1056 18.2929 15.2932C18.1054 15.4807 18 15.7351 18 16.0003V18.0003C18 18.7959 18.3161 19.559 18.8787 20.1216C19.4413 20.6842 20.2044 21.0003 21 21.0003H22V23.0003C22 23.2655 22.1054 23.5199 22.2929 23.7074C22.4805 23.8949 22.7348 24.0003 23 24.0003C23.2653 24.0003 23.5196 23.8949 23.7072 23.7074C23.8947 23.5199 24 23.2655 24 23.0003V16.0003C24 15.7351 23.8947 15.4807 23.7072 15.2932C23.5196 15.1056 23.2653 15.0003 23 15.0003ZM13 12.0003V7.00029C13 6.73508 12.8947 6.48072 12.7072 6.29319C12.5196 6.10565 12.2653 6.00029 12 6.00029C11.7348 6.00029 11.4805 6.10565 11.2929 6.29319C11.1054 6.48072 11 6.73508 11 7.00029V11.0003H8.00005C7.73483 11.0003 7.48048 11.1056 7.29294 11.2932C7.1054 11.4807 7.00005 11.7351 7.00005 12.0003C7.00005 12.2655 7.1054 12.5199 7.29294 12.7074C7.48048 12.8949 7.73483 13.0003 8.00005 13.0003H12C12.2653 13.0003 12.5196 12.8949 12.7072 12.7074C12.8947 12.5199 13 12.2655 13 12.0003ZM23 2.00029C22.7348 2.00029 22.4805 2.10565 22.2929 2.29319C22.1054 2.48072 22 2.73508 22 3.00029V5.37429C20.9581 3.80187 19.5602 2.49721 17.9196 1.5662C16.2791 0.635177 14.4422 0.104017 12.558 0.0158131C10.6737 -0.072391 8.79521 0.284846 7.07488 1.05854C5.35454 1.83223 3.84083 3.00058 2.65656 4.4688C1.4723 5.93701 0.650831 7.66373 0.25882 9.50885C-0.133191 11.354 -0.0847046 13.2655 0.400345 15.0884C0.885395 16.9113 1.79334 18.5941 3.05052 20.0004C4.3077 21.4067 5.8787 22.4968 7.63605 23.1823C7.75218 23.2271 7.87557 23.2501 8.00005 23.2503C8.23341 23.2507 8.45954 23.1694 8.6393 23.0206C8.81905 22.8718 8.9411 22.6648 8.9843 22.4354C9.02751 22.2061 8.98915 21.9689 8.87588 21.7649C8.7626 21.5609 8.58154 21.4029 8.36405 21.3183C6.87207 20.7414 5.54027 19.815 4.48043 18.6168C3.42059 17.4187 2.66366 15.9837 2.27316 14.4325C1.88265 12.8813 1.86999 11.259 2.23622 9.70183C2.60245 8.14469 3.33689 6.69812 4.37789 5.48357C5.41889 4.26901 6.73607 3.32191 8.21886 2.72177C9.70164 2.12162 11.3068 1.88595 12.8995 2.03454C14.4922 2.18312 16.026 2.71163 17.3722 3.57569C18.7184 4.43974 19.8377 5.61414 20.636 7.00029H18C17.7348 7.00029 17.4805 7.10565 17.2929 7.29319C17.1054 7.48072 17 7.73508 17 8.00029C17 8.26551 17.1054 8.51986 17.2929 8.7074C17.4805 8.89494 17.7348 9.00029 18 9.00029H21C21.7957 9.00029 22.5588 8.68422 23.1214 8.12161C23.684 7.559 24 6.79594 24 6.00029V3.00029C24 2.73508 23.8947 2.48072 23.7072 2.29319C23.5196 2.10565 23.2653 2.00029 23 2.00029Z" fill="#374957"/>
</g>
<defs>
<clipPath id="clip0_806_6265">
<rect width="24" height="24" fill="white"/>
</clipPath>
</defs>
</svg>
