<svg width="24" height="24" viewBox="0 0 24 24" fill="none" xmlns="http://www.w3.org/2000/svg">
<g clip-path="url(#clip0_806_6135)">
<path d="M22.5629 1.43741C20.1889 -0.936588 16.6439 -0.357588 11.9999 3.13741C7.35687 -0.357588 3.81287 -0.937588 1.43687 1.43741C-0.939135 3.81241 -0.358135 7.3564 3.13687 12.0004C-0.358135 16.6434 -0.938135 20.1884 1.43687 22.5634C1.88216 23.0251 2.41726 23.3908 3.00921 23.6379C3.60117 23.8851 4.23744 24.0084 4.87887 24.0004C6.84987 24.0004 9.22987 22.9484 11.9999 20.8644C14.7689 22.9484 17.1489 24.0004 19.1209 24.0004C19.7623 24.0084 20.3986 23.8851 20.9905 23.6379C21.5825 23.3908 22.1176 23.0251 22.5629 22.5634C24.9379 20.1884 24.3629 16.6444 20.8629 12.0004C24.3579 7.3564 24.9379 3.81241 22.5629 1.43741ZM19.0849 2.02841C19.467 2.0169 19.8475 2.08361 20.2029 2.22445C20.5584 2.36529 20.8813 2.57728 21.1519 2.84741C22.8979 4.59441 21.6079 7.5604 19.5639 10.3864C18.7259 9.3984 17.7819 8.3714 16.7059 7.2944C15.6299 6.2174 14.5999 5.2734 13.6119 4.43441C15.5099 3.06141 17.4719 2.02841 19.0849 2.02841ZM18.3109 12.0004C17.2999 13.2204 16.2289 14.3614 15.2949 15.3004C14.3609 16.2394 13.2199 17.3004 11.9999 18.3114C10.7799 17.3004 9.63887 16.2294 8.70487 15.3004C7.77087 14.3714 6.69987 13.2204 5.68887 12.0004C6.69987 10.7804 7.77087 9.6384 8.70487 8.7054C9.63887 7.7724 10.7799 6.7004 11.9999 5.6884C13.2199 6.6984 14.3609 7.7714 15.2999 8.7054C16.2389 9.6394 17.2999 10.7804 18.3109 12.0004ZM2.84787 2.84841C3.11813 2.57781 3.44097 2.36544 3.79647 2.22441C4.15197 2.08338 4.53259 2.01668 4.91487 2.02841C6.52787 2.02841 8.48987 3.06141 10.3879 4.43441C9.39987 5.2734 8.37187 6.2174 7.29387 7.2944C6.21587 8.3714 5.27387 9.3944 4.43487 10.3864C2.39187 7.5604 1.09987 4.59441 2.84787 2.84841ZM2.84787 21.1484C1.10187 19.4024 2.39187 16.4354 4.43487 13.6104C5.27387 14.5984 6.21787 15.6254 7.29387 16.7024C8.36987 17.7794 9.39387 18.7254 10.3829 19.5634C7.55787 21.6094 4.59187 22.9004 2.84787 21.1524V21.1484ZM21.1479 21.1484C19.4029 22.8924 16.4379 21.6054 13.6129 19.5634C14.5989 18.7254 15.6269 17.7764 16.7019 16.7024C17.7769 15.6284 18.7219 14.6024 19.5599 13.6104C21.6079 16.4404 22.8999 19.4064 21.1519 21.1524L21.1479 21.1484Z" fill="#374957"/>
<path d="M11.9998 14.0002C13.1043 14.0002 13.9997 13.1048 13.9997 12.0002C13.9997 10.8957 13.1043 10.0002 11.9998 10.0002C10.8952 10.0002 9.99976 10.8957 9.99976 12.0002C9.99976 13.1048 10.8952 14.0002 11.9998 14.0002Z" fill="#374957"/>
</g>
<defs>
<clipPath id="clip0_806_6135">
<rect width="24" height="24" fill="white"/>
</clipPath>
</defs>
</svg>
