<svg width="24" height="24" viewBox="0 0 24 24" fill="none" xmlns="http://www.w3.org/2000/svg">
<g clip-path="url(#clip0_806_5887)">
<path d="M23.9798 2.02292V6.02292C23.9798 6.28814 23.8744 6.54249 23.6869 6.73003C23.4994 6.91756 23.245 7.02292 22.9798 7.02292C22.7146 7.02292 22.4602 6.91756 22.2727 6.73003C22.0851 6.54249 21.9798 6.28814 21.9798 6.02292V3.45992L16.6798 8.73192C16.4907 8.91362 16.2378 9.01376 15.9755 9.01077C15.7133 9.00778 15.4627 8.9019 15.2778 8.71593C15.0929 8.52997 14.9885 8.27882 14.987 8.01658C14.9855 7.75433 15.087 7.50199 15.2698 7.31392L20.5898 2.02292H17.9798C17.7146 2.02292 17.4602 1.91756 17.2727 1.73003C17.0851 1.54249 16.9798 1.28814 16.9798 1.02292C16.9798 0.757705 17.0851 0.503351 17.2727 0.315814C17.4602 0.128278 17.7146 0.0229211 17.9798 0.0229211H21.9798C22.5102 0.0229211 23.0189 0.233635 23.394 0.608708C23.7691 0.98378 23.9798 1.49249 23.9798 2.02292ZM23.0748 16.7619C23.6543 17.343 23.9797 18.1302 23.9797 18.9509C23.9797 19.7716 23.6543 20.5588 23.0748 21.1399L22.1628 22.1899C13.9718 30.0279 -5.95722 10.1049 1.76278 1.88992L2.91178 0.889921C3.49388 0.326692 4.27413 0.014982 5.08407 0.0220917C5.89401 0.0292013 6.66867 0.35456 7.24078 0.927921C7.27078 0.958921 9.12378 3.36692 9.12378 3.36692C9.67345 3.94437 9.97953 4.71139 9.97841 5.50862C9.97729 6.30586 9.66907 7.07201 9.11778 7.64792L7.95878 9.10492C8.59963 10.662 9.54185 12.0772 10.7313 13.269C11.9207 14.4609 13.334 15.4059 14.8898 16.0499L16.3548 14.8849C16.9306 14.3339 17.6966 14.0259 18.4936 14.0248C19.2906 14.0237 20.0574 14.3295 20.6348 14.8789C20.6348 14.8789 23.0438 16.7319 23.0748 16.7619ZM21.6998 18.2159C21.6998 18.2159 19.3068 16.3739 19.2758 16.3439C19.0698 16.1397 18.7914 16.025 18.5013 16.025C18.2112 16.025 17.9328 16.1397 17.7268 16.3439C17.6998 16.3699 15.6828 17.9779 15.6828 17.9779C15.5469 18.0861 15.3851 18.157 15.2134 18.1837C15.0418 18.2103 14.8661 18.1918 14.7038 18.1299C12.687 17.3799 10.8552 16.2048 9.33263 14.6844C7.8101 13.1639 6.63251 11.3337 5.87978 9.31792C5.81393 9.15404 5.79266 8.97564 5.81813 8.80087C5.8436 8.6261 5.9149 8.46119 6.02478 8.32292C6.02478 8.32292 7.63178 6.30592 7.65878 6.27892C7.86305 6.07291 7.97766 5.79454 7.97766 5.50442C7.97766 5.2143 7.86305 4.93594 7.65878 4.72992C7.62878 4.69992 5.78678 2.30592 5.78678 2.30592C5.57781 2.1183 5.30499 2.01771 5.02423 2.02477C4.74348 2.03184 4.47606 2.14602 4.27678 2.34392L3.12778 3.34392C-2.51622 10.1259 14.7568 26.4419 20.6998 20.8259L21.6118 19.7759C21.8268 19.5786 21.9563 19.3052 21.9727 19.0138C21.9892 18.7224 21.8912 18.4362 21.6998 18.2159Z" fill="#374957"/>
</g>
<defs>
<clipPath id="clip0_806_5887">
<rect width="24" height="24" fill="white"/>
</clipPath>
</defs>
</svg>
