<svg width="24" height="24" viewBox="0 0 24 24" fill="none" xmlns="http://www.w3.org/2000/svg">
<g clip-path="url(#clip0_806_5990)">
<path d="M16.0002 16C16.0002 16.2652 15.8949 16.5196 15.7074 16.7071C15.5198 16.8947 15.2655 17 15.0002 17H13.0002V19C13.0002 19.2652 12.8949 19.5196 12.7074 19.7071C12.5198 19.8947 12.2655 20 12.0002 20C11.735 20 11.4807 19.8947 11.2931 19.7071C11.1056 19.5196 11.0002 19.2652 11.0002 19V17H9.00024C8.73503 17 8.48067 16.8947 8.29314 16.7071C8.1056 16.5196 8.00024 16.2652 8.00024 16C8.00024 15.7348 8.1056 15.4805 8.29314 15.2929C8.48067 15.1054 8.73503 15 9.00024 15H11.0002V13C11.0002 12.7348 11.1056 12.4805 11.2931 12.2929C11.4807 12.1054 11.735 12 12.0002 12C12.2655 12 12.5198 12.1054 12.7074 12.2929C12.8949 12.4805 13.0002 12.7348 13.0002 13V15H15.0002C15.2655 15 15.5198 15.1054 15.7074 15.2929C15.8949 15.4805 16.0002 15.7348 16.0002 16ZM22.0002 10.485V19C21.9987 20.3256 21.4714 21.5965 20.534 22.5338C19.5967 23.4711 18.3258 23.9984 17.0002 24H7.00024C5.67465 23.9984 4.4038 23.4711 3.46646 22.5338C2.52913 21.5965 2.00183 20.3256 2.00024 19V5.00002C2.00183 3.67443 2.52913 2.40358 3.46646 1.46624C4.4038 0.528905 5.67465 0.00161091 7.00024 2.30487e-05H11.5152C12.4349 -0.00234388 13.3458 0.177611 14.1955 0.529482C15.0451 0.881354 15.8166 1.39816 16.4652 2.05002L19.9492 5.53602C20.6015 6.18426 21.1186 6.95548 21.4707 7.805C21.8227 8.65451 22.0027 9.56545 22.0002 10.485ZM15.0512 3.46402C14.7365 3.15918 14.3832 2.89695 14.0002 2.68402V7.00002C14.0002 7.26524 14.1056 7.51959 14.2931 7.70713C14.4807 7.89467 14.735 8.00002 15.0002 8.00002H19.3162C19.1032 7.61721 18.8406 7.26417 18.5352 6.95002L15.0512 3.46402ZM20.0002 10.485C20.0002 10.32 19.9682 10.162 19.9532 10H15.0002C14.2046 10 13.4415 9.68395 12.8789 9.12134C12.3163 8.55873 12.0002 7.79567 12.0002 7.00002V2.04702C11.8382 2.03202 11.6792 2.00002 11.5152 2.00002H7.00024C6.20459 2.00002 5.44153 2.31609 4.87892 2.8787C4.31631 3.44131 4.00024 4.20437 4.00024 5.00002V19C4.00024 19.7957 4.31631 20.5587 4.87892 21.1213C5.44153 21.684 6.20459 22 7.00024 22H17.0002C17.7959 22 18.559 21.684 19.1216 21.1213C19.6842 20.5587 20.0002 19.7957 20.0002 19V10.485Z" fill="#374957"/>
</g>
<defs>
<clipPath id="clip0_806_5990">
<rect width="24" height="24" fill="white"/>
</clipPath>
</defs>
</svg>
