<svg width="24" height="24" viewBox="0 0 24 24" fill="none" xmlns="http://www.w3.org/2000/svg">
<g clip-path="url(#clip0_806_5936)">
<path d="M13.0002 20C14.3258 19.9984 15.5967 19.4711 16.534 18.5338C17.4714 17.5965 17.9987 16.3256 18.0002 15V6.24302C18.0018 5.71738 17.899 5.19665 17.6978 4.71104C17.4966 4.22542 17.2011 3.78456 16.8282 3.41402L14.5862 1.17202C14.2157 0.799191 13.7748 0.50362 13.2892 0.302438C12.8036 0.101255 12.2829 -0.00153795 11.7572 1.73896e-05H7.00024C5.67465 0.00160525 4.4038 0.528899 3.46646 1.46624C2.52913 2.40358 2.00183 3.67442 2.00024 5.00002V15C2.00183 16.3256 2.52913 17.5965 3.46646 18.5338C4.4038 19.4711 5.67465 19.9984 7.00024 20H13.0002ZM4.00024 15V5.00002C4.00024 4.20437 4.31631 3.44131 4.87892 2.8787C5.44153 2.31609 6.20459 2.00002 7.00024 2.00002C7.00024 2.00002 11.9192 2.01402 12.0002 2.02402V4.00002C12.0002 4.53045 12.211 5.03916 12.586 5.41423C12.9611 5.7893 13.4698 6.00002 14.0002 6.00002H15.9762C15.9862 6.08102 16.0002 15 16.0002 15C16.0002 15.7957 15.6842 16.5587 15.1216 17.1213C14.559 17.6839 13.7959 18 13.0002 18H7.00024C6.20459 18 5.44153 17.6839 4.87892 17.1213C4.31631 16.5587 4.00024 15.7957 4.00024 15ZM22.0002 8.00002V19C21.9987 20.3256 21.4714 21.5965 20.534 22.5338C19.5967 23.4711 18.3258 23.9984 17.0002 24H8.00024C7.73503 24 7.48067 23.8947 7.29314 23.7071C7.1056 23.5196 7.00024 23.2652 7.00024 23C7.00024 22.7348 7.1056 22.4804 7.29314 22.2929C7.48067 22.1054 7.73503 22 8.00024 22H17.0002C17.7959 22 18.559 21.6839 19.1216 21.1213C19.6842 20.5587 20.0002 19.7957 20.0002 19V8.00002C20.0002 7.7348 20.1056 7.48045 20.2931 7.29291C20.4807 7.10537 20.735 7.00002 21.0002 7.00002C21.2655 7.00002 21.5198 7.10537 21.7074 7.29291C21.8949 7.48045 22.0002 7.7348 22.0002 8.00002Z" fill="#374957"/>
</g>
<defs>
<clipPath id="clip0_806_5936">
<rect width="24" height="24" fill="white"/>
</clipPath>
</defs>
</svg>
