<svg width="24" height="24" viewBox="0 0 24 24" fill="none" xmlns="http://www.w3.org/2000/svg">
<g clip-path="url(#clip0_806_6026)">
<path d="M13.0001 15.9996C14.5823 15.9996 16.129 15.5304 17.4446 14.6514C18.7602 13.7723 19.7856 12.5229 20.3911 11.0611C20.9966 9.59928 21.155 7.99075 20.8464 6.4389C20.5377 4.88705 19.7757 3.46159 18.6569 2.34277C17.5381 1.22395 16.1126 0.462019 14.5608 0.153337C13.0089 -0.155344 11.4004 0.00308233 9.9386 0.608583C8.47679 1.21408 7.22737 2.23946 6.34831 3.55506C5.46926 4.87065 5.00007 6.41737 5.00007 7.99962C5.00245 10.1206 5.84607 12.1541 7.34585 13.6538C8.84562 15.1536 10.8791 15.9972 13.0001 15.9996ZM13.0001 1.99962C14.1868 1.99962 15.3468 2.35151 16.3335 3.0108C17.3202 3.67009 18.0892 4.60716 18.5433 5.70352C18.9975 6.79988 19.1163 8.00628 18.8848 9.17016C18.6533 10.334 18.0818 11.4031 17.2427 12.2423C16.4036 13.0814 15.3345 13.6528 14.1706 13.8843C13.0067 14.1158 11.8003 13.997 10.704 13.5429C9.60761 13.0888 8.67054 12.3197 8.01125 11.333C7.35196 10.3463 7.00007 9.18631 7.00007 7.99962C7.00166 6.40881 7.63431 4.88361 8.75918 3.75873C9.88406 2.63386 11.4093 2.00121 13.0001 1.99962ZM22.9071 14.7726C21.8992 16.2411 20.5769 17.4667 19.0362 18.3602C17.4956 19.2538 15.7752 19.793 14.0001 19.9386V21.9996H18.0001C18.2653 21.9996 18.5196 22.105 18.7072 22.2925C18.8947 22.48 19.0001 22.7344 19.0001 22.9996C19.0001 23.2648 18.8947 23.5192 18.7072 23.7067C18.5196 23.8943 18.2653 23.9996 18.0001 23.9996H8.00007C7.73485 23.9996 7.4805 23.8943 7.29296 23.7067C7.10543 23.5192 7.00007 23.2648 7.00007 22.9996C7.00007 22.7344 7.10543 22.48 7.29296 22.2925C7.4805 22.105 7.73485 21.9996 8.00007 21.9996H12.0001V19.9486C9.81751 19.767 7.72633 18.9913 5.95335 17.7056C4.18036 16.4199 2.79325 14.6733 1.94247 12.6552C1.09169 10.6371 0.809715 8.42457 1.12713 6.2576C1.44455 4.09063 2.34923 2.05192 3.74307 0.36262C3.91201 0.158138 4.15527 0.0291432 4.41932 0.00401331C4.68337 -0.0211166 4.94659 0.0596768 5.15107 0.22862C5.35555 0.397563 5.48455 0.640816 5.50968 0.904867C5.53481 1.16892 5.45401 1.43214 5.28507 1.63662C4.42662 2.67913 3.78822 3.88472 3.40838 5.18068C3.02855 6.47663 2.91514 7.83609 3.07501 9.17707C3.23487 10.518 3.66469 11.8127 4.33855 12.9831C5.01241 14.1534 5.91633 15.1751 6.99581 15.9866C8.07529 16.7981 9.30794 17.3825 10.6194 17.7047C11.9309 18.0268 13.2941 18.0799 14.6267 17.8609C15.9593 17.6418 17.2337 17.1552 18.373 16.4302C19.5124 15.7052 20.4931 14.7569 21.2561 13.6426C21.4059 13.4237 21.6366 13.2732 21.8974 13.2244C22.1581 13.1755 22.4276 13.2323 22.6466 13.3821C22.8655 13.532 23.0159 13.7626 23.0648 14.0234C23.1137 14.2842 23.0569 14.5537 22.9071 14.7726Z" fill="#374957"/>
</g>
<defs>
<clipPath id="clip0_806_6026">
<rect width="24" height="24" fill="white"/>
</clipPath>
</defs>
</svg>
