<svg width="24" height="24" viewBox="0 0 24 24" fill="none" xmlns="http://www.w3.org/2000/svg">
<g clip-path="url(#clip0_806_5819)">
<path d="M12.0001 23.9999C11.8685 24.0007 11.738 23.9755 11.6162 23.9257C11.4943 23.8759 11.3835 23.8026 11.2901 23.7099L3.12006 15.5399C2.65443 15.0755 2.285 14.5237 2.03294 13.9163C1.78087 13.3088 1.65112 12.6576 1.65112 11.9999C1.65112 11.3423 1.78087 10.6911 2.03294 10.0836C2.285 9.47615 2.65443 8.9244 3.12006 8.45994L11.2901 0.289941C11.4784 0.101638 11.7338 -0.00415039 12.0001 -0.00415039C12.2664 -0.00415039 12.5218 0.101638 12.7101 0.289941C12.8984 0.478245 13.0042 0.73364 13.0042 0.999941C13.0042 1.26624 12.8984 1.52164 12.7101 1.70994L4.54006 9.87994C3.97826 10.4424 3.6627 11.2049 3.6627 11.9999C3.6627 12.7949 3.97826 13.5574 4.54006 14.1199L12.7101 22.2899C12.8038 22.3829 12.8782 22.4935 12.929 22.6154C12.9797 22.7372 13.0059 22.8679 13.0059 22.9999C13.0059 23.132 12.9797 23.2627 12.929 23.3845C12.8782 23.5064 12.8038 23.617 12.7101 23.7099C12.6166 23.8026 12.5058 23.8759 12.384 23.9257C12.2621 23.9755 12.1317 24.0007 12.0001 23.9999Z" fill="#374957"/>
<path d="M22.0001 23.9999C21.8685 24.0007 21.7381 23.9755 21.6162 23.9257C21.4944 23.8759 21.3836 23.8026 21.2901 23.7099L11.7101 14.1199C11.1483 13.5574 10.8328 12.7949 10.8328 11.9999C10.8328 11.2049 11.1483 10.4424 11.7101 9.87994L21.2901 0.289941C21.4784 0.101638 21.7338 -0.00415039 22.0001 -0.00415039C22.2664 -0.00415039 22.5218 0.101638 22.7101 0.289941C22.8984 0.478245 23.0042 0.73364 23.0042 0.999941C23.0042 1.26624 22.8984 1.52164 22.7101 1.70994L13.1201 11.2899C13.0264 11.3829 12.952 11.4935 12.9012 11.6154C12.8505 11.7372 12.8243 11.8679 12.8243 11.9999C12.8243 12.132 12.8505 12.2627 12.9012 12.3845C12.952 12.5064 13.0264 12.617 13.1201 12.7099L22.7101 22.2899C22.8039 22.3829 22.8782 22.4935 22.929 22.6154C22.9798 22.7372 23.0059 22.8679 23.0059 22.9999C23.0059 23.132 22.9798 23.2627 22.929 23.3845C22.8782 23.5064 22.8039 23.617 22.7101 23.7099C22.6167 23.8026 22.5059 23.8759 22.384 23.9257C22.2622 23.9755 22.1317 24.0007 22.0001 23.9999Z" fill="#374957"/>
</g>
<defs>
<clipPath id="clip0_806_5819">
<rect width="24" height="24" fill="white"/>
</clipPath>
</defs>
</svg>
