<svg width="24" height="24" viewBox="0 0 24 24" fill="none" xmlns="http://www.w3.org/2000/svg">
<g clip-path="url(#clip0_806_6148)">
<path d="M14.9997 3.84852C15.0029 4.04738 15.0641 4.24099 15.1759 4.40551C15.2876 4.57004 15.445 4.6983 15.6287 4.77452C17.271 5.4971 18.6597 6.69402 19.6168 8.21162C20.5738 9.72922 21.0554 11.4982 20.9997 13.2915C20.961 15.6785 19.9757 17.9523 18.2605 19.6127C16.5453 21.2732 14.2407 22.1842 11.8537 22.1455C9.46679 22.1068 7.19299 21.1214 5.53254 19.4062C3.87209 17.691 2.96101 15.3865 2.99974 12.9995C3.00205 11.2557 3.51088 9.55019 4.46439 8.0902C5.41789 6.6302 6.775 5.47864 8.37074 4.77552C8.55453 4.69884 8.71194 4.57019 8.82367 4.40535C8.93541 4.24051 8.9966 4.04663 8.99974 3.84752C8.99999 3.68373 8.96002 3.52238 8.88331 3.37766C8.80661 3.23294 8.69554 3.10927 8.55985 3.01753C8.42417 2.92579 8.26802 2.86878 8.10514 2.85152C7.94227 2.83425 7.77764 2.85726 7.62574 2.91852C5.30502 3.92466 3.40196 5.69986 2.2371 7.94511C1.07224 10.1904 0.716765 12.7685 1.23055 15.2452C1.74433 17.7219 3.09597 19.9458 5.05781 21.5425C7.01965 23.1391 9.4718 24.0108 12.0012 24.0108C14.5307 24.0108 16.9828 23.1391 18.9447 21.5425C20.9065 19.9458 22.2581 17.7219 22.7719 15.2452C23.2857 12.7685 22.9302 10.1904 21.7654 7.94511C20.6005 5.69986 18.6975 3.92466 16.3767 2.91852C16.2246 2.85659 16.0596 2.83309 15.8962 2.8501C15.7328 2.86711 15.5762 2.92409 15.44 3.01602C15.3039 3.10795 15.1925 3.232 15.1158 3.37719C15.039 3.52239 14.9991 3.68427 14.9997 3.84852Z" fill="#374957"/>
<path d="M13.0003 1C13.0003 0.447715 12.5525 0 12.0002 0C11.448 0 11.0002 0.447715 11.0002 1V7C11.0002 7.55228 11.448 8 12.0002 8C12.5525 8 13.0003 7.55228 13.0003 7V1Z" fill="#374957"/>
</g>
<defs>
<clipPath id="clip0_806_6148">
<rect width="24" height="24" fill="white"/>
</clipPath>
</defs>
</svg>
