<svg width="24" height="24" viewBox="0 0 24 24" fill="none" xmlns="http://www.w3.org/2000/svg">
<g clip-path="url(#clip0_806_5859)">
<path d="M20.8589 15.331L17.0869 21.486C16.6727 22.166 16.1088 22.7425 15.4382 23.1717C14.7676 23.601 14.0079 23.8716 13.2169 23.963C13.0085 23.9877 12.7988 24 12.5889 24C11.5144 23.9985 10.4666 23.6649 9.58894 23.045C8.68199 23.7244 7.56167 24.0566 6.43095 23.9812C5.30022 23.9058 4.2339 23.4279 3.42518 22.634C2.61647 21.8402 2.11885 20.7829 2.0225 19.6538C1.92614 18.5247 2.23742 17.3984 2.89994 16.479L1.58494 15.166C1.02343 14.6044 0.596253 13.9231 0.335389 13.1731C0.0745246 12.423 -0.0132627 11.6237 0.0786013 10.8349C0.170465 10.0461 0.4396 9.28836 0.865849 8.61834C1.2921 7.94833 1.86441 7.38343 2.53994 6.96596L8.30694 3.39996C9.86915 2.39874 11.7063 1.91331 13.5592 2.01217C15.4121 2.11103 17.1871 2.78919 18.6339 3.95096L20.2929 2.29196C20.3852 2.19645 20.4955 2.12027 20.6175 2.06786C20.7395 2.01545 20.8708 1.98786 21.0035 1.98671C21.1363 1.98556 21.268 2.01086 21.3909 2.06114C21.5138 2.11142 21.6254 2.18567 21.7193 2.27956C21.8132 2.37346 21.8875 2.48511 21.9378 2.60801C21.988 2.7309 22.0133 2.86258 22.0122 2.99536C22.011 3.12814 21.9834 3.25936 21.931 3.38136C21.8786 3.50337 21.8024 3.61371 21.7069 3.70596L20.0499 5.36396C21.1613 6.7562 21.8319 8.44838 21.976 10.224C22.1202 11.9995 21.7312 13.7777 20.8589 15.331ZM8.06494 21.647L4.34594 17.927C4.05531 18.4467 3.94322 19.0475 4.02686 19.6371C4.11049 20.2267 4.38523 20.7725 4.80894 21.191C5.23636 21.597 5.78001 21.8592 6.36383 21.941C6.94765 22.0227 7.54243 21.9199 8.06494 21.647ZM17.9859 6.04696C16.8755 4.9258 15.4137 4.21998 13.8451 4.0476C12.2766 3.87522 10.6964 4.24672 9.36894 5.09996L3.59194 8.66596C3.17298 8.92493 2.81804 9.27532 2.55369 9.69091C2.28935 10.1065 2.12246 10.5765 2.06551 11.0657C2.00857 11.555 2.06304 12.0507 2.22487 12.5159C2.38669 12.9811 2.65166 13.4037 2.99994 13.752L10.2899 21.043C10.6388 21.3922 11.0623 21.6578 11.5285 21.8198C11.9948 21.9817 12.4917 22.0359 12.982 21.9781C13.4722 21.9204 13.9429 21.7522 14.3588 21.4863C14.7746 21.2204 15.1248 20.8637 15.3829 20.443L19.1379 14.318C19.8714 13.0007 20.1556 11.4803 19.9478 9.98705C19.7399 8.49377 19.0512 7.10886 17.9859 6.04196V6.04696ZM19.2649 24C19.0537 24.0003 18.8479 23.9339 18.6768 23.81C18.5057 23.6862 18.3782 23.5114 18.3126 23.3107C18.247 23.1099 18.2466 22.8936 18.3115 22.6926C18.3764 22.4916 18.5033 22.3164 18.6739 22.192C20.4249 20.8755 21.61 18.9426 21.9889 16.785C22.0155 16.6551 22.0676 16.5318 22.1423 16.4222C22.217 16.3127 22.3127 16.219 22.4239 16.1468C22.535 16.0746 22.6595 16.0252 22.7899 16.0015C22.9203 15.9778 23.0542 15.9803 23.1837 16.0088C23.3131 16.0373 23.4357 16.0913 23.5441 16.1675C23.6525 16.2438 23.7447 16.3409 23.8153 16.4532C23.8858 16.5654 23.9333 16.6906 23.9551 16.8213C23.9768 16.9521 23.9724 17.0859 23.9419 17.215C23.4519 19.8466 21.9933 22.199 19.8539 23.808C19.6829 23.9327 19.4766 23.9999 19.2649 24ZM0.999937 5.73896C0.81524 5.73814 0.634379 5.68618 0.477408 5.58884C0.320437 5.49151 0.19349 5.3526 0.110642 5.18753C0.0277933 5.02245 -0.00771885 4.83766 0.00804285 4.65363C0.0238045 4.46961 0.0902242 4.29354 0.199937 4.14496C1.83092 1.96555 4.23176 0.490282 6.91294 0.0199598C7.17285 -0.0330835 7.44319 0.0192954 7.66448 0.165574C7.88577 0.311852 8.03989 0.540048 8.09294 0.79996C8.14598 1.05987 8.0936 1.33021 7.94732 1.5515C7.80104 1.7728 7.57285 1.92692 7.31294 1.97996C5.11091 2.34358 3.13517 3.54559 1.79994 5.33396C1.70731 5.45908 1.58676 5.56084 1.44788 5.63115C1.30899 5.70146 1.15561 5.73838 0.999937 5.73896Z" fill="#374957"/>
</g>
<defs>
<clipPath id="clip0_806_5859">
<rect width="24" height="24" fill="white"/>
</clipPath>
</defs>
</svg>
