<svg width="24" height="24" viewBox="0 0 24 24" fill="none" xmlns="http://www.w3.org/2000/svg">
<g clip-path="url(#clip0_806_6227)">
<path d="M23.8357 8.7942C23.6312 8.1431 23.2225 7.57511 22.6702 7.17423C22.1178 6.77335 21.4511 6.56087 20.7687 6.5682H16.3997L15.0727 2.4322C14.864 1.78116 14.454 1.21321 13.9017 0.810264C13.3494 0.407315 12.6834 0.190186 11.9997 0.190186C11.316 0.190186 10.65 0.407315 10.0977 0.810264C9.54544 1.21321 9.13538 1.78116 8.9267 2.4322L7.5997 6.5682H3.2307C2.55045 6.56917 1.8879 6.78508 1.33768 7.1851C0.787473 7.58512 0.377745 8.14879 0.167026 8.79559C-0.0436933 9.44238 -0.044626 10.1392 0.164361 10.7866C0.373348 11.4339 0.781565 11.9987 1.3307 12.4002L4.8867 15.0002L3.5347 19.1872C3.31622 19.8366 3.31345 20.5392 3.52681 21.1903C3.74018 21.8414 4.15825 22.4061 4.7187 22.8002C5.26956 23.207 5.9371 23.4249 6.62186 23.4215C7.30662 23.418 7.97195 23.1935 8.5187 22.7812L11.9997 20.2192L15.4817 22.7782C16.0316 23.1827 16.6955 23.4023 17.3781 23.4057C18.0606 23.409 18.7267 23.1958 19.2805 22.7967C19.8342 22.3976 20.2472 21.8332 20.46 21.1847C20.6728 20.5361 20.6744 19.8368 20.4647 19.1872L19.1127 15.0002L22.6727 12.4002C23.2281 12.0037 23.6411 11.439 23.8506 10.7895C24.06 10.1401 24.0548 9.44045 23.8357 8.7942ZM21.4927 10.7852L17.3487 13.8142C17.1785 13.9384 17.0518 14.1131 16.9868 14.3135C16.9218 14.5139 16.9218 14.7298 16.9867 14.9302L18.5617 19.8002C18.6414 20.0472 18.6407 20.3131 18.5598 20.5597C18.4788 20.8063 18.3217 21.0209 18.1111 21.1726C17.9005 21.3243 17.6473 21.4053 17.3877 21.404C17.1282 21.4026 16.8757 21.319 16.6667 21.1652L12.5917 18.1652C12.4201 18.0391 12.2127 17.9711 11.9997 17.9711C11.7867 17.9711 11.5793 18.0391 11.4077 18.1652L7.3327 21.1652C7.12379 21.3211 6.87064 21.4064 6.60997 21.4088C6.3493 21.4112 6.09465 21.3305 5.88293 21.1784C5.67122 21.0263 5.51345 20.8107 5.4325 20.5629C5.35155 20.3151 5.35162 20.048 5.4327 19.8002L7.0127 14.9302C7.07762 14.7298 7.07757 14.5139 7.01257 14.3135C6.94756 14.1131 6.82092 13.9384 6.6507 13.8142L2.5067 10.7852C2.29801 10.6324 2.14294 10.4175 2.06365 10.1713C1.98435 9.92514 1.98489 9.66018 2.06519 9.4143C2.14548 9.16842 2.30143 8.9542 2.51075 8.80225C2.72006 8.6503 2.97205 8.56838 3.2307 8.5682H8.3307C8.54242 8.56819 8.74867 8.50099 8.91975 8.37627C9.09084 8.25156 9.21792 8.07576 9.2827 7.8742L10.8327 3.0432C10.9123 2.79598 11.0682 2.58039 11.2781 2.42745C11.488 2.27451 11.741 2.1921 12.0007 2.1921C12.2604 2.1921 12.5134 2.27451 12.7233 2.42745C12.9332 2.58039 13.0891 2.79598 13.1687 3.0432L14.7187 7.8742C14.7835 8.07576 14.9106 8.25156 15.0817 8.37627C15.2527 8.50099 15.459 8.56819 15.6707 8.5682H20.7707C21.0294 8.56838 21.2813 8.6503 21.4907 8.80225C21.7 8.9542 21.8559 9.16842 21.9362 9.4143C22.0165 9.66018 22.0171 9.92514 21.9378 10.1713C21.8585 10.4175 21.7034 10.6324 21.4947 10.7852H21.4927Z" fill="#374957"/>
</g>
<defs>
<clipPath id="clip0_806_6227">
<rect width="24" height="24" fill="white"/>
</clipPath>
</defs>
</svg>
