<svg width="24" height="24" viewBox="0 0 24 24" fill="none" xmlns="http://www.w3.org/2000/svg">
<g clip-path="url(#clip0_806_6116)">
<path d="M19 1.00024H13C11.6744 1.00183 10.4036 1.52913 9.46622 2.46646C8.52888 3.4038 8.00159 4.67465 8 6.00024V14.0262C7.13961 13.3644 6.08547 13.0039 5 13.0002C4.0111 13.0002 3.0444 13.2935 2.22215 13.8429C1.39991 14.3923 0.759043 15.1732 0.380605 16.0868C0.00216642 17.0005 -0.0968503 18.0058 0.0960759 18.9757C0.289002 19.9456 0.765206 20.8365 1.46447 21.5358C2.16373 22.235 3.05465 22.7112 4.02455 22.9042C4.99446 23.0971 5.99979 22.9981 6.91342 22.6196C7.82705 22.2412 8.60794 21.6003 9.15735 20.7781C9.70676 19.9558 10 18.9892 10 18.0002V6.00024C10 5.20459 10.3161 4.44153 10.8787 3.87892C11.4413 3.31631 12.2044 3.00024 13 3.00024H19C19.7957 3.00024 20.5587 3.31631 21.1213 3.87892C21.6839 4.44153 22 5.20459 22 6.00024V14.0262C21.1396 13.3644 20.0855 13.0039 19 13.0002C18.0111 13.0002 17.0444 13.2935 16.2222 13.8429C15.3999 14.3923 14.759 15.1732 14.3806 16.0868C14.0022 17.0005 13.9032 18.0058 14.0961 18.9757C14.289 19.9456 14.7652 20.8365 15.4645 21.5358C16.1637 22.235 17.0546 22.7112 18.0246 22.9042C18.9945 23.0971 19.9998 22.9981 20.9134 22.6196C21.8271 22.2412 22.6079 21.6003 23.1574 20.7781C23.7068 19.9558 24 18.9892 24 18.0002V6.00024C23.9984 4.67465 23.4711 3.4038 22.5338 2.46646C21.5964 1.52913 20.3256 1.00183 19 1.00024ZM5 21.0002C4.40666 21.0002 3.82664 20.8243 3.33329 20.4947C2.83994 20.165 2.45543 19.6965 2.22836 19.1483C2.0013 18.6001 1.94189 17.9969 2.05765 17.415C2.1734 16.833 2.45912 16.2985 2.87868 15.8789C3.29824 15.4594 3.83279 15.1736 4.41473 15.0579C4.99668 14.9421 5.59987 15.0015 6.14805 15.2286C6.69623 15.4557 7.16477 15.8402 7.49441 16.3335C7.82406 16.8269 8 17.4069 8 18.0002C8 18.7959 7.68393 19.559 7.12132 20.1216C6.55871 20.6842 5.79565 21.0002 5 21.0002ZM19 21.0002C18.4067 21.0002 17.8266 20.8243 17.3333 20.4947C16.8399 20.165 16.4554 19.6965 16.2284 19.1483C16.0013 18.6001 15.9419 17.9969 16.0576 17.415C16.1734 16.833 16.4591 16.2985 16.8787 15.8789C17.2982 15.4594 17.8328 15.1736 18.4147 15.0579C18.9967 14.9421 19.5999 15.0015 20.1481 15.2286C20.6962 15.4557 21.1648 15.8402 21.4944 16.3335C21.8241 16.8269 22 17.4069 22 18.0002C22 18.7959 21.6839 19.559 21.1213 20.1216C20.5587 20.6842 19.7957 21.0002 19 21.0002Z" fill="#374957"/>
</g>
<defs>
<clipPath id="clip0_806_6116">
<rect width="24" height="24" fill="white"/>
</clipPath>
</defs>
</svg>
