<svg width="24" height="24" viewBox="0 0 24 24" fill="none" xmlns="http://www.w3.org/2000/svg">
<g clip-path="url(#clip0_806_6191)">
<path d="M18.581 2.14073L12.316 0.0517291C12.1109 -0.016592 11.8891 -0.016592 11.684 0.0517291L5.419 2.14073C4.42291 2.47161 3.55642 3.10799 2.94265 3.95944C2.32887 4.81089 1.99904 5.83412 2 6.88373V12.0007C2 19.5637 11.2 23.7407 11.594 23.9147C11.7218 23.9715 11.8601 24.0009 12 24.0009C12.1399 24.0009 12.2782 23.9715 12.406 23.9147C12.8 23.7407 22 19.5637 22 12.0007V6.88373C22.001 5.83412 21.6711 4.81089 21.0574 3.95944C20.4436 3.10799 19.5771 2.47161 18.581 2.14073ZM20 12.0007C20 17.4557 13.681 21.0337 12 21.8897C10.317 21.0367 4 17.4697 4 12.0007V6.88373C4.00006 6.25401 4.19828 5.64027 4.56657 5.12947C4.93486 4.61868 5.45455 4.23672 6.052 4.03773L12 2.05473L17.948 4.03773C18.5455 4.23672 19.0651 4.61868 19.4334 5.12947C19.8017 5.64027 19.9999 6.25401 20 6.88373V12.0007Z" fill="#374957"/>
<path d="M15.3 8.30032L11.112 12.5003L8.86804 10.1603C8.77798 10.0619 8.66913 9.98242 8.5479 9.92667C8.42666 9.87092 8.2955 9.84001 8.16213 9.83573C8.02877 9.83146 7.89589 9.85393 7.77134 9.9018C7.64679 9.94968 7.53308 10.022 7.43691 10.1145C7.34074 10.207 7.26405 10.3178 7.21137 10.4404C7.15869 10.563 7.13107 10.6949 7.13015 10.8283C7.12923 10.9618 7.15502 11.094 7.20601 11.2173C7.257 11.3407 7.33215 11.4525 7.42704 11.5463L9.73304 13.9463C9.90501 14.1321 10.1129 14.281 10.3441 14.3842C10.5752 14.4873 10.8249 14.5425 11.078 14.5463H11.111C11.3591 14.5472 11.6048 14.4987 11.834 14.4038C12.0632 14.3088 12.2712 14.1693 12.446 13.9933L16.718 9.72132C16.8113 9.62822 16.8854 9.51764 16.936 9.39592C16.9865 9.27419 17.0126 9.14369 17.0128 9.01188C17.0129 8.88007 16.9871 8.74952 16.9368 8.62769C16.8865 8.50585 16.8126 8.39512 16.7195 8.30182C16.6264 8.20852 16.5159 8.13446 16.3941 8.08389C16.2724 8.03332 16.1419 8.00722 16.0101 8.00708C15.8783 8.00694 15.7477 8.03277 15.6259 8.08308C15.5041 8.13339 15.3933 8.20721 15.3 8.30032Z" fill="#374957"/>
</g>
<defs>
<clipPath id="clip0_806_6191">
<rect width="24" height="24" fill="white"/>
</clipPath>
</defs>
</svg>
