<svg width="24" height="24" viewBox="0 0 24 24" fill="none" xmlns="http://www.w3.org/2000/svg">
<g clip-path="url(#clip0_806_6013)">
<path d="M12.0032 -0.00244141C5.36554 -0.00244141 -0.0153809 5.37848 -0.0153809 12.0161C-0.0153809 18.6538 5.36554 24.0346 12.0032 24.0346C18.6408 24.0346 24.0217 18.6538 24.0217 12.0161C24.0217 5.37848 18.6408 -0.00244141 12.0032 -0.00244141ZM19.4519 8.83776L20.2279 6.32878C21.2736 7.84448 21.8777 9.62081 21.9729 11.4598L19.8309 9.95076C19.4768 9.70106 19.3237 9.25171 19.4519 8.83776ZM14.5999 2.35275H14.5919L12.5919 3.80873C12.2413 4.06359 11.7665 4.06359 11.4159 3.80873L9.41587 2.35275C11.1119 1.88212 12.9039 1.88212 14.5999 2.35275ZM3.77188 6.32976L4.5479 8.83776C4.67606 9.25171 4.52301 9.70106 4.16892 9.95076L2.02692 11.4598C2.12212 9.62114 2.72624 7.84509 3.77188 6.32976ZM4.00692 17.9838L6.75393 17.9928C7.18757 17.9937 7.57124 18.2739 7.70395 18.6868L8.56795 21.3798C6.75187 20.7113 5.16787 19.532 4.00692 17.9838ZM15.4329 21.3798L16.2959 18.6868C16.4285 18.2743 16.8116 17.9941 17.2449 17.9928L19.9929 17.9838C18.8325 19.5322 17.2488 20.7116 15.4329 21.3798ZM21.1689 15.9798L17.2389 15.9928C15.9377 15.9944 14.7868 16.8369 14.3919 18.0768L13.1569 21.9268C12.3886 22.0241 11.6111 22.0241 10.8429 21.9268L9.60787 18.0757C9.21253 16.8359 8.06118 15.9939 6.75988 15.9928L2.83087 15.9808C2.52848 15.2831 2.30737 14.5529 2.17185 13.8048L5.32087 11.5858C6.38531 10.8387 6.84529 9.48951 6.45885 8.24775L5.32387 4.57575C5.89743 4.05454 6.52968 3.60182 7.20787 3.22673L10.2359 5.42671C11.2869 6.1935 12.7128 6.1935 13.7639 5.42671L16.7918 3.22673C17.4699 3.60206 18.1021 4.05473 18.6758 4.57575L17.5409 8.24775C17.1545 9.48946 17.6144 10.8386 18.6788 11.5858L21.8279 13.8048C21.6925 14.5527 21.4713 15.2825 21.1689 15.9798Z" fill="#374957"/>
<path d="M15.3857 9.22355L13.4687 7.83155C12.5936 7.19254 11.4057 7.19254 10.5307 7.83155L8.61368 9.22355C7.7335 9.8595 7.36624 10.9921 7.70566 12.0235L8.43766 14.2765C8.77221 15.3058 9.7324 16.0018 10.8147 15.9995H13.1847C14.268 15.9996 15.2281 15.3019 15.5627 14.2715L16.2937 12.0185C16.631 10.9885 16.2639 9.85861 15.3857 9.22355ZM14.3916 11.4005L13.6606 13.6535C13.5938 13.8599 13.4015 13.9996 13.1846 13.9995H10.8146C10.598 13.9992 10.4063 13.8595 10.3396 13.6535L9.60766 11.3995C9.5403 11.1931 9.61385 10.9669 9.78968 10.8395L11.7057 9.44953C11.881 9.32213 12.1184 9.32213 12.2937 9.44953L14.2107 10.8415C14.3856 10.969 14.4587 11.1946 14.3916 11.4005Z" fill="#374957"/>
</g>
<defs>
<clipPath id="clip0_806_6013">
<rect width="24" height="24" fill="white"/>
</clipPath>
</defs>
</svg>
