<svg width="24" height="24" viewBox="0 0 24 24" fill="none" xmlns="http://www.w3.org/2000/svg">
<g clip-path="url(#clip0_806_6204)">
<path d="M23.4211 16.582L20.1301 13.291C20.0384 13.1934 19.928 13.1151 19.8054 13.0609C19.6829 13.0068 19.5507 12.9778 19.4167 12.9757C19.2827 12.9736 19.1497 12.9985 19.0255 13.0488C18.9013 13.0992 18.7885 13.1739 18.6938 13.2687C18.5991 13.3635 18.5244 13.4764 18.4741 13.6006C18.4239 13.7248 18.3991 13.8578 18.4013 13.9918C18.4035 14.1258 18.4325 14.258 18.4868 14.3805C18.5411 14.503 18.6194 14.6134 18.7171 14.705L21.0071 16.999C19.7623 17.0019 18.5294 16.7556 17.3812 16.2747C16.2329 15.7939 15.1925 15.0881 14.3211 14.199C14.2244 14.1099 14.1107 14.0412 13.9868 13.9968C13.863 13.9525 13.7315 13.9335 13.6002 13.941C13.4689 13.9484 13.3404 13.9822 13.2224 14.0403C13.1043 14.0983 12.9992 14.1795 12.9131 14.279L12.9001 14.299C12.732 14.4946 12.6459 14.7476 12.6599 15.0051C12.6739 15.2626 12.7868 15.5048 12.9751 15.681C14.0249 16.7427 15.2768 17.5833 16.6568 18.1532C18.0369 18.7231 19.5171 19.0107 21.0101 18.999L18.7171 21.292C18.6126 21.3819 18.5279 21.4924 18.4681 21.6166C18.4083 21.7408 18.3749 21.876 18.3699 22.0137C18.3649 22.1514 18.3884 22.2887 18.4389 22.4169C18.4894 22.5452 18.566 22.6615 18.6636 22.7588C18.7613 22.856 18.878 22.932 19.0064 22.982C19.1348 23.032 19.2722 23.055 19.4099 23.0493C19.5476 23.0437 19.6827 23.0097 19.8066 22.9494C19.9306 22.8892 20.0407 22.8039 20.1301 22.699L23.4211 19.408C23.7954 19.0331 24.0057 18.5249 24.0057 17.995C24.0057 17.4652 23.7954 16.957 23.4211 16.582Z" fill="#374957"/>
<path d="M21.0071 6.99959L18.7171 9.28959C18.6976 9.31592 18.6796 9.34329 18.6631 9.37159C18.5017 9.56835 18.4221 9.81958 18.4408 10.0734C18.4594 10.3271 18.5749 10.5641 18.7633 10.7351C18.9516 10.9062 19.1986 10.9983 19.453 10.9924C19.7074 10.9866 19.9498 10.8832 20.1301 10.7036L21.8361 8.99959L23.4221 7.41459C23.6902 7.14435 23.8757 6.80319 23.9566 6.43119C24.0376 6.0592 24.0107 5.67183 23.8791 5.31459C23.7819 5.04114 23.6255 4.79254 23.4211 4.58659L20.1301 1.29959C20.0388 1.2004 19.9284 1.1207 19.8055 1.06526C19.6826 1.00983 19.5498 0.979814 19.415 0.977021C19.2802 0.974229 19.1463 0.998717 19.0212 1.04901C18.8961 1.09931 18.7825 1.17438 18.6872 1.2697C18.5919 1.36502 18.5168 1.47864 18.4665 1.60371C18.4162 1.72879 18.3917 1.86274 18.3945 1.99752C18.3973 2.1323 18.4273 2.26512 18.4827 2.38801C18.5382 2.51089 18.6179 2.6213 18.7171 2.71259L21.0101 5.00459C16.0771 5.01659 13.3731 7.67859 10.9211 10.4786C8.66909 7.93659 6.0001 5.39959 1.4871 5.04559L1.0061 4.99959C0.740886 4.99959 0.486533 5.10495 0.298996 5.29249C0.11146 5.48002 0.00610352 5.73438 0.00610352 5.99959C0.0112237 6.26321 0.118224 6.5146 0.304662 6.70104C0.4911 6.88747 0.742489 6.99447 1.0061 6.99959C1.0781 6.99959 1.2931 7.03259 1.2931 7.03259C5.1891 7.32759 7.4251 9.52159 9.60009 11.9996C7.4381 14.4656 5.2171 16.6996 1.3531 16.9596L0.953102 16.9806C0.689875 16.997 0.443961 17.1174 0.269459 17.3151C0.0949567 17.5129 0.00616009 17.7719 0.0226035 18.0351C0.0390469 18.2983 0.159383 18.5442 0.35714 18.7187C0.554897 18.8932 0.813875 18.982 1.0771 18.9656C1.2331 18.9586 1.4871 18.9526 1.6121 18.9426C6.6321 18.5556 9.35509 15.3426 11.7831 12.5336C14.2351 9.69959 16.5511 7.01759 21.0071 6.99959Z" fill="#374957"/>
</g>
<defs>
<clipPath id="clip0_806_6204">
<rect width="24" height="24" fill="white"/>
</clipPath>
</defs>
</svg>
