<svg width="24" height="24" viewBox="0 0 24 24" fill="none" xmlns="http://www.w3.org/2000/svg">
<g clip-path="url(#clip0_806_6256)">
<path d="M9 23.9994H1C0.734784 23.9994 0.48043 23.894 0.292893 23.7065C0.105357 23.5189 0 23.2646 0 22.9994C0 22.7342 0.105357 22.4798 0.292893 22.2923C0.48043 22.1047 0.734784 21.9994 1 21.9994H9C9.26522 21.9994 9.51957 22.1047 9.70711 22.2923C9.89464 22.4798 10 22.7342 10 22.9994C10 23.2646 9.89464 23.5189 9.70711 23.7065C9.51957 23.894 9.26522 23.9994 9 23.9994Z" fill="#374957"/>
<path d="M7 20H1C0.734784 20 0.48043 19.8947 0.292893 19.7071C0.105357 19.5196 0 19.2652 0 19C0 18.7348 0.105357 18.4804 0.292893 18.2929C0.48043 18.1054 0.734784 18 1 18H7C7.26522 18 7.51957 18.1054 7.70711 18.2929C7.89464 18.4804 8 18.7348 8 19C8 19.2652 7.89464 19.5196 7.70711 19.7071C7.51957 19.8947 7.26522 20 7 20Z" fill="#374957"/>
<path d="M5 16.0006H1C0.734784 16.0006 0.48043 15.8953 0.292893 15.7077C0.105357 15.5202 0 15.2658 0 15.0006C0 14.7354 0.105357 14.481 0.292893 14.2935C0.48043 14.106 0.734784 14.0006 1 14.0006H5C5.26522 14.0006 5.51957 14.106 5.70711 14.2935C5.89464 14.481 6 14.7354 6 15.0006C6 15.2658 5.89464 15.5202 5.70711 15.7077C5.51957 15.8953 5.26522 16.0006 5 16.0006Z" fill="#374957"/>
<path d="M13.0002 23.9546C12.735 23.9664 12.476 23.8724 12.2801 23.6932C12.0842 23.514 11.9675 23.2643 11.9557 22.9991C11.9439 22.7339 12.0379 22.4749 12.2171 22.279C12.3963 22.0831 12.646 21.9664 12.9112 21.9546C14.8037 21.7815 16.6076 21.0727 18.1117 19.9112C19.6159 18.7498 20.7579 17.1838 21.4041 15.3966C22.0503 13.6095 22.1739 11.6753 21.7604 9.82044C21.347 7.9656 20.4135 6.26698 19.0695 4.92353C17.7254 3.58008 16.0264 2.64742 14.1713 2.2348C12.3163 1.82217 10.3821 1.94666 8.59529 2.59369C6.80847 3.24071 5.243 4.38348 4.08225 5.88815C2.92149 7.39282 2.21351 9.19709 2.04122 11.0896C2.01735 11.3538 1.88953 11.5976 1.68586 11.7675C1.4822 11.9375 1.21938 12.0195 0.955226 11.9956C0.69107 11.9718 0.447216 11.8439 0.277309 11.6403C0.107401 11.4366 0.0253573 11.1738 0.0492268 10.9096C0.328115 7.83293 1.78283 4.98233 4.11055 2.95119C6.43827 0.920057 9.45966 -0.135109 12.5458 0.00533848C15.6319 0.145786 18.5449 1.47103 20.6785 3.70519C22.8121 5.93936 24.0019 8.91032 24.0002 11.9996C24.0155 14.998 22.9016 17.8922 20.8801 20.1066C18.8586 22.3211 16.0775 23.6934 13.0902 23.9506C13.0602 23.9536 13.0292 23.9546 13.0002 23.9546Z" fill="#374957"/>
<path d="M12.0002 6C11.735 6 11.4807 6.10536 11.2931 6.29289C11.1056 6.48043 11.0002 6.73478 11.0002 7V12C11.0003 12.2652 11.1057 12.5195 11.2932 12.707L14.2932 15.707C14.4818 15.8892 14.7344 15.99 14.9966 15.9877C15.2588 15.9854 15.5097 15.8802 15.6951 15.6948C15.8805 15.5094 15.9856 15.2586 15.9879 14.9964C15.9902 14.7342 15.8894 14.4816 15.7072 14.293L13.0002 11.586V7C13.0002 6.73478 12.8949 6.48043 12.7074 6.29289C12.5198 6.10536 12.2655 6 12.0002 6Z" fill="#374957"/>
</g>
<defs>
<clipPath id="clip0_806_6256">
<rect width="24" height="24" fill="white"/>
</clipPath>
</defs>
</svg>
