<svg width="24" height="24" viewBox="0 0 24 24" fill="none" xmlns="http://www.w3.org/2000/svg">
<g clip-path="url(#clip0_806_6283)">
<path d="M23.0001 23.9992C22.7349 23.9992 22.4806 23.8939 22.293 23.7063C22.1055 23.5188 22.0001 23.2645 22.0001 22.9992C21.9986 21.4084 21.3659 19.8832 20.241 18.7584C19.1162 17.6335 17.591 17.0008 16.0001 16.9993H10.1701V18.5852C10.1701 18.9808 10.0527 19.3673 9.83294 19.6962C9.61317 20.025 9.30085 20.2813 8.93545 20.4326C8.57005 20.5839 8.16798 20.6235 7.78008 20.5464C7.39217 20.4693 7.03584 20.2789 6.75614 19.9992L0.877139 14.1203C0.314725 13.5577 -0.0012207 12.7948 -0.0012207 11.9993C-0.0012207 11.2038 0.314725 10.4408 0.877139 9.87826L6.75614 3.99927C7.03584 3.71965 7.39217 3.52924 7.78008 3.4521C8.16798 3.37497 8.57005 3.41457 8.93545 3.56591C9.30085 3.71725 9.61317 3.97353 9.83294 4.30235C10.0527 4.63117 10.1701 5.01777 10.1701 5.41327V6.99927H15.0001C17.3863 7.00191 19.6739 7.95097 21.3612 9.63822C23.0484 11.3255 23.9975 13.6131 24.0001 15.9993V22.9992C24.0001 23.2645 23.8948 23.5188 23.7072 23.7063C23.5197 23.8939 23.2654 23.9992 23.0001 23.9992ZM8.17014 5.41327L2.29114 11.2923C2.10367 11.4798 1.99835 11.7341 1.99835 11.9993C1.99835 12.2644 2.10367 12.5187 2.29114 12.7063L8.17014 18.5852V15.9993C8.17014 15.734 8.2755 15.4797 8.46303 15.2921C8.65057 15.1046 8.90492 14.9993 9.17014 14.9993H16.0001C17.1357 14.9989 18.2583 15.2408 19.293 15.7088C20.3277 16.1768 21.2506 16.8602 22.0001 17.7133V15.9993C21.998 14.1434 21.2598 12.3641 19.9475 11.0519C18.6353 9.73956 16.856 9.00138 15.0001 8.99926H9.17014C8.90492 8.99926 8.65057 8.89391 8.46303 8.70637C8.2755 8.51883 8.17014 8.26448 8.17014 7.99926V5.41327Z" fill="#374957"/>
</g>
<defs>
<clipPath id="clip0_806_6283">
<rect width="24" height="24" fill="white"/>
</clipPath>
</defs>
</svg>
