<svg width="24" height="24" viewBox="0 0 24 24" fill="none" xmlns="http://www.w3.org/2000/svg">
<g clip-path="url(#clip0_806_6154)">
<path d="M8 3.99927H4C2.93913 3.99927 1.92172 4.42069 1.17157 5.17084C0.421427 5.92099 0 6.9384 0 7.99927L0 11.9993C0 12.5297 0.210714 13.0384 0.585786 13.4135C0.960859 13.7886 1.46957 13.9993 2 13.9993H7.91C7.67273 15.3958 6.94948 16.6635 5.86803 17.5785C4.78658 18.4934 3.41655 18.9966 2 18.9993C1.73478 18.9993 1.48043 19.1046 1.29289 19.2922C1.10536 19.4797 1 19.7341 1 19.9993C1 20.2645 1.10536 20.5188 1.29289 20.7064C1.48043 20.8939 1.73478 20.9993 2 20.9993C4.121 20.9969 6.15445 20.1533 7.65422 18.6535C9.154 17.1537 9.99762 15.1203 10 12.9993V5.99927C10 5.46883 9.78929 4.96013 9.41421 4.58505C9.03914 4.20998 8.53043 3.99927 8 3.99927Z" fill="#374957"/>
<path d="M22.0002 3.99927H18.0002C16.9394 3.99927 15.922 4.42069 15.1718 5.17084C14.4217 5.92099 14.0002 6.9384 14.0002 7.99927V11.9993C14.0002 12.5297 14.211 13.0384 14.586 13.4135C14.9611 13.7886 15.4698 13.9993 16.0002 13.9993H21.9102C21.673 15.3958 20.9497 16.6635 19.8683 17.5785C18.7868 18.4934 17.4168 18.9966 16.0002 18.9993C15.735 18.9993 15.4807 19.1046 15.2931 19.2922C15.1056 19.4797 15.0002 19.7341 15.0002 19.9993C15.0002 20.2645 15.1056 20.5188 15.2931 20.7064C15.4807 20.8939 15.735 20.9993 16.0002 20.9993C18.1212 20.9969 20.1547 20.1533 21.6545 18.6535C23.1542 17.1537 23.9979 15.1203 24.0002 12.9993V5.99927C24.0002 5.46883 23.7895 4.96013 23.4145 4.58505C23.0394 4.20998 22.5307 3.99927 22.0002 3.99927Z" fill="#374957"/>
</g>
<defs>
<clipPath id="clip0_806_6154">
<rect width="24" height="24" fill="white"/>
</clipPath>
</defs>
</svg>
