<svg width="24" height="24" viewBox="0 0 24 24" fill="none" xmlns="http://www.w3.org/2000/svg">
<g clip-path="url(#clip0_806_5908)">
<path d="M17 14C16.4696 14 15.9609 14.2107 15.5858 14.5858C15.2107 14.9609 15 15.4696 15 16C15 16.5304 15.2107 17.0391 15.5858 17.4142C15.9609 17.7893 16.4696 18 17 18C17.5304 18 18.0391 17.7893 18.4142 17.4142C18.7893 17.0391 19 16.5304 19 16C19 15.4696 18.7893 14.9609 18.4142 14.5858C18.0391 14.2107 17.5304 14 17 14Z" fill="#374957"/>
<path d="M7.99975 11C6.93888 11 5.92147 11.4214 5.17133 12.1716C4.42118 12.9217 3.99976 13.9391 3.99976 15C3.99976 16.0609 4.42118 17.0783 5.17133 17.8284C5.92147 18.5786 6.93888 19 7.99975 19C9.06061 19 10.078 18.5786 10.8282 17.8284C11.5783 17.0783 11.9997 16.0609 11.9997 15C11.9997 13.9391 11.5783 12.9217 10.8282 12.1716C10.078 11.4214 9.06061 11 7.99975 11ZM7.99975 17C7.46932 17 6.96061 16.7893 6.58554 16.4142C6.21047 16.0391 5.99975 15.5304 5.99975 15C5.99975 14.4696 6.21047 13.9609 6.58554 13.5858C6.96061 13.2107 7.46932 13 7.99975 13C8.53018 13 9.03889 13.2107 9.41396 13.5858C9.78903 13.9609 9.99975 14.4696 9.99975 15C9.99975 15.5304 9.78903 16.0391 9.41396 16.4142C9.03889 16.7893 8.53018 17 7.99975 17Z" fill="#374957"/>
<path d="M21.5892 6.69999L13.7512 0.848991C12.9043 0.2771 11.9014 -0.0191754 10.8796 0.000693668C9.85791 0.0205627 8.86726 0.355605 8.04322 0.959991C4.80583 3.38267 2.38386 6.73463 1.10022 10.569C1.08572 10.6201 1.07503 10.6723 1.06822 10.725C0.958049 10.941 0.863474 11.1645 0.785216 11.394C-0.265319 14.3751 -0.265319 17.6258 0.785216 20.607C1.12129 21.5972 1.75934 22.4571 2.60961 23.0657C3.45987 23.6743 4.47956 24.0011 5.52522 24H9.14922C9.5829 23.9931 10.0031 23.8482 10.3487 23.5861C10.6944 23.3241 10.9475 22.9587 11.0712 22.543C11.1725 22.2444 11.3648 21.985 11.6212 21.8013C11.8775 21.6176 12.1849 21.5188 12.5002 21.5188C12.8156 21.5188 13.123 21.6176 13.3793 21.8013C13.6356 21.985 13.8279 22.2444 13.9292 22.543C14.053 22.9587 14.3061 23.3241 14.6517 23.5861C14.9973 23.8482 15.4175 23.9931 15.8512 24H19.0002C20.3258 23.9984 21.5967 23.4711 22.534 22.5338C23.4713 21.5964 23.9986 20.3256 24.0002 19V11.507C23.998 10.5738 23.7791 9.65381 23.3607 8.81962C22.9423 7.98544 22.3359 7.25983 21.5892 6.69999ZM9.24022 2.56199C9.72494 2.20723 10.3067 2.00939 10.9072 1.99509C11.5077 1.98079 12.0982 2.15071 12.5992 2.48199L19.9892 7.99999H5.52622C5.13693 7.99961 4.74894 8.04492 4.37022 8.13499C5.59446 5.9632 7.2521 4.06627 9.24022 2.56199ZM22.0002 19C22.0002 19.7956 21.6841 20.5587 21.1215 21.1213C20.5589 21.6839 19.7959 22 19.0002 22L15.8342 21.934C15.5998 21.2285 15.1475 20.6157 14.5425 20.1837C13.9375 19.7517 13.211 19.5229 12.4677 19.5302C11.7243 19.5376 11.0024 19.7807 10.4061 20.2245C9.80973 20.6684 9.36964 21.29 9.14922 22H5.52522C4.89772 22.0003 4.28593 21.8038 3.77594 21.4382C3.26595 21.0726 2.88343 20.5563 2.68222 19.962C1.77471 17.399 1.77471 14.602 2.68222 12.039C2.8841 11.4448 3.26689 10.9287 3.77693 10.563C4.28696 10.1973 4.89865 10.0005 5.52622 9.99999H21.7002C21.8967 10.4782 21.9985 10.99 22.0002 11.507V19Z" fill="#374957"/>
</g>
<defs>
<clipPath id="clip0_806_5908">
<rect width="24" height="24" fill="white"/>
</clipPath>
</defs>
</svg>
