<svg width="24" height="24" viewBox="0 0 24 24" fill="none" xmlns="http://www.w3.org/2000/svg">
<g clip-path="url(#clip0_806_6063)">
<path d="M19 5.99976H13V2.99976C13 2.73454 12.8946 2.48019 12.7071 2.29265C12.5196 2.10511 12.2652 1.99976 12 1.99976C11.7348 1.99976 11.4804 2.10511 11.2929 2.29265C11.1054 2.48019 11 2.73454 11 2.99976V5.99976H5C3.67441 6.00134 2.40356 6.52864 1.46622 7.46598C0.528882 8.40331 0.00158786 9.67416 0 10.9998L0 14.9998C0.00158786 16.3254 0.528882 17.5962 1.46622 18.5335C2.40356 19.4709 3.67441 19.9982 5 19.9998H19C20.3256 19.9982 21.5964 19.4709 22.5338 18.5335C23.4711 17.5962 23.9984 16.3254 24 14.9998V10.9998C23.9984 9.67416 23.4711 8.40331 22.5338 7.46598C21.5964 6.52864 20.3256 6.00134 19 5.99976ZM22 14.9998C22 15.7954 21.6839 16.5585 21.1213 17.1211C20.5587 17.6837 19.7956 17.9998 19 17.9998H5C4.20435 17.9998 3.44129 17.6837 2.87868 17.1211C2.31607 16.5585 2 15.7954 2 14.9998V10.9998C2 10.2041 2.31607 9.44104 2.87868 8.87844C3.44129 8.31583 4.20435 7.99976 5 7.99976H19C19.7956 7.99976 20.5587 8.31583 21.1213 8.87844C21.6839 9.44104 22 10.2041 22 10.9998V14.9998Z" fill="#374957"/>
<path d="M15.0002 13.9998H9.00024C8.73503 13.9998 8.48067 14.1051 8.29314 14.2927C8.1056 14.4802 8.00024 14.7345 8.00024 14.9998C8.00024 15.265 8.1056 15.5193 8.29314 15.7069C8.48067 15.8944 8.73503 15.9998 9.00024 15.9998H15.0002C15.2654 15.9998 15.5198 15.8944 15.7073 15.7069C15.8949 15.5193 16.0002 15.265 16.0002 14.9998C16.0002 14.7345 15.8949 14.4802 15.7073 14.2927C15.5198 14.1051 15.2654 13.9998 15.0002 13.9998Z" fill="#374957"/>
<path d="M10 12.0002H11C11.2652 12.0002 11.5196 11.8949 11.7071 11.7073C11.8946 11.5198 12 11.2655 12 11.0002C12 10.735 11.8946 10.4807 11.7071 10.2931C11.5196 10.1056 11.2652 10.0002 11 10.0002H10C9.73478 10.0002 9.48043 10.1056 9.29289 10.2931C9.10536 10.4807 9 10.735 9 11.0002C9 11.2655 9.10536 11.5198 9.29289 11.7073C9.48043 11.8949 9.73478 12.0002 10 12.0002Z" fill="#374957"/>
<path d="M19.0002 10.0002H15.0002C14.735 10.0002 14.4807 10.1056 14.2931 10.2931C14.1056 10.4807 14.0002 10.735 14.0002 11.0002C14.0002 11.2655 14.1056 11.5198 14.2931 11.7073C14.4807 11.8949 14.735 12.0002 15.0002 12.0002H19.0002C19.2655 12.0002 19.5198 11.8949 19.7074 11.7073C19.8949 11.5198 20.0002 11.2655 20.0002 11.0002C20.0002 10.735 19.8949 10.4807 19.7074 10.2931C19.5198 10.1056 19.2655 10.0002 19.0002 10.0002Z" fill="#374957"/>
<path d="M6 10.0002H5C4.73478 10.0002 4.48043 10.1056 4.29289 10.2931C4.10536 10.4807 4 10.735 4 11.0002C4 11.2655 4.10536 11.5198 4.29289 11.7073C4.48043 11.8949 4.73478 12.0002 5 12.0002H6C6.26522 12.0002 6.51957 11.8949 6.70711 11.7073C6.89464 11.5198 7 11.2655 7 11.0002C7 10.735 6.89464 10.4807 6.70711 10.2931C6.51957 10.1056 6.26522 10.0002 6 10.0002Z" fill="#374957"/>
<path d="M5 15.9998C5.55228 15.9998 6 15.552 6 14.9998C6 14.4475 5.55228 13.9998 5 13.9998C4.44771 13.9998 4 14.4475 4 14.9998C4 15.552 4.44771 15.9998 5 15.9998Z" fill="#374957"/>
<path d="M19 15.9998C19.5523 15.9998 20 15.552 20 14.9998C20 14.4475 19.5523 13.9998 19 13.9998C18.4477 13.9998 18 14.4475 18 14.9998C18 15.552 18.4477 15.9998 19 15.9998Z" fill="#374957"/>
</g>
<defs>
<clipPath id="clip0_806_6063">
<rect width="24" height="24" fill="white"/>
</clipPath>
</defs>
</svg>
