<svg width="24" height="24" viewBox="0 0 24 24" fill="none" xmlns="http://www.w3.org/2000/svg">
<g clip-path="url(#clip0_806_6159)">
<path d="M12 0C9.62663 0 7.30655 0.703788 5.33316 2.02236C3.35977 3.34094 1.8217 5.21509 0.913451 7.4078C0.00519943 9.60051 -0.232441 12.0133 0.230582 14.3411C0.693605 16.6689 1.83649 18.8071 3.51472 20.4853C5.19295 22.1635 7.33115 23.3064 9.65892 23.7694C11.9867 24.2324 14.3995 23.9948 16.5922 23.0866C18.7849 22.1783 20.6591 20.6402 21.9776 18.6668C23.2962 16.6935 24 14.3734 24 12C23.9966 8.81846 22.7312 5.76821 20.4815 3.51852C18.2318 1.26883 15.1815 0.00344108 12 0V0ZM12 22C10.0222 22 8.08879 21.4135 6.4443 20.3147C4.79981 19.2159 3.51809 17.6541 2.76121 15.8268C2.00433 13.9996 1.8063 11.9889 2.19215 10.0491C2.578 8.10929 3.53041 6.32746 4.92894 4.92893C6.32746 3.53041 8.10929 2.578 10.0491 2.19215C11.9889 1.8063 13.9996 2.00433 15.8268 2.7612C17.6541 3.51808 19.2159 4.79981 20.3147 6.4443C21.4135 8.08879 22 10.0222 22 12C21.9971 14.6513 20.9426 17.1931 19.0679 19.0679C17.1931 20.9426 14.6513 21.9971 12 22Z" fill="#374957"/>
<path d="M11.9998 6.99927C11.0109 6.99927 10.0442 7.29251 9.22191 7.84192C8.39966 8.39133 7.7588 9.17222 7.38036 10.0859C7.00192 10.9995 6.90291 12.0048 7.09583 12.9747C7.28876 13.9446 7.76496 14.8355 8.46422 15.5348C9.16349 16.2341 10.0544 16.7103 11.0243 16.9032C11.9942 17.0961 12.9995 16.9971 13.9132 16.6187C14.8268 16.2402 15.6077 15.5994 16.1571 14.7771C16.7065 13.9549 16.9998 12.9882 16.9998 11.9993C16.9982 10.6737 16.4709 9.40283 15.5335 8.46549C14.5962 7.52815 13.3254 7.00086 11.9998 6.99927ZM11.9998 14.9993C11.4064 14.9993 10.8264 14.8233 10.333 14.4937C9.8397 14.164 9.45518 13.6955 9.22812 13.1473C9.00106 12.5991 8.94165 11.9959 9.0574 11.414C9.17316 10.8321 9.45888 10.2975 9.87844 9.87795C10.298 9.45839 10.8325 9.17267 11.4145 9.05691C11.9964 8.94116 12.5996 9.00057 13.1478 9.22763C13.696 9.45469 14.1645 9.83921 14.4942 10.3326C14.8238 10.8259 14.9998 11.4059 14.9998 11.9993C14.9998 12.7949 14.6837 13.558 14.1211 14.1206C13.5585 14.6832 12.7954 14.9993 11.9998 14.9993Z" fill="#374957"/>
<path d="M12.0002 13.0007C12.5525 13.0007 13.0003 12.553 13.0003 12.0007C13.0003 11.4485 12.5525 11.0007 12.0002 11.0007C11.448 11.0007 11.0002 11.4485 11.0002 12.0007C11.0002 12.553 11.448 13.0007 12.0002 13.0007Z" fill="#374957"/>
</g>
<defs>
<clipPath id="clip0_806_6159">
<rect width="24" height="24" fill="white"/>
</clipPath>
</defs>
</svg>
