<svg width="24" height="24" viewBox="0 0 24 24" fill="none" xmlns="http://www.w3.org/2000/svg">
<g clip-path="url(#clip0_806_6014)">
<path d="M10 9.99977C9.20435 9.99977 8.44129 10.3158 7.87868 10.8785C7.31607 11.4411 7 12.2041 7 12.9998C7 13.7954 7.31607 14.5585 7.87868 15.1211C8.44129 15.6837 9.20435 15.9998 10 15.9998H14C14.7956 15.9998 15.5587 15.6837 16.1213 15.1211C16.6839 14.5585 17 13.7954 17 12.9998C17 12.2041 16.6839 11.4411 16.1213 10.8785C15.5587 10.3158 14.7956 9.99977 14 9.99977H10ZM15 12.9998C15 13.265 14.8946 13.5193 14.7071 13.7069C14.5196 13.8944 14.2652 13.9998 14 13.9998H10C9.73478 13.9998 9.48043 13.8944 9.29289 13.7069C9.10536 13.5193 9 13.265 9 12.9998C9 12.7346 9.10536 12.4802 9.29289 12.2927C9.48043 12.1051 9.73478 11.9998 10 11.9998H14C14.2652 11.9998 14.5196 12.1051 14.7071 12.2927C14.8946 12.4802 15 12.7346 15 12.9998ZM17 18.9998C17 19.265 16.8946 19.5193 16.7071 19.7069C16.5196 19.8944 16.2652 19.9998 16 19.9998H8C7.73478 19.9998 7.48043 19.8944 7.29289 19.7069C7.10536 19.5193 7 19.265 7 18.9998C7 18.7346 7.10536 18.4802 7.29289 18.2927C7.48043 18.1051 7.73478 17.9998 8 17.9998H16C16.2652 17.9998 16.5196 18.1051 16.7071 18.2927C16.8946 18.4802 17 18.7346 17 18.9998ZM19.536 3.12077L17.878 1.46477C17.4149 0.999022 16.864 0.629733 16.2572 0.378269C15.6504 0.126805 14.9998 -0.00184212 14.343 -0.000229159H8C6.67441 0.0013587 5.40356 0.528653 4.46622 1.46599C3.52888 2.40333 3.00159 3.67418 3 4.99977V18.9998C3.00159 20.3254 3.52888 21.5962 4.46622 22.5336C5.40356 23.4709 6.67441 23.9982 8 23.9998H16C17.3256 23.9982 18.5964 23.4709 19.5338 22.5336C20.4711 21.5962 20.9984 20.3254 21 18.9998V6.65677C21.0019 5.99986 20.8735 5.34909 20.6222 4.74214C20.3709 4.13519 20.0017 3.5841 19.536 3.12077ZM18.122 4.53477C18.2627 4.6772 18.3893 4.83293 18.5 4.99977H16V2.49977C16.1671 2.6093 16.3226 2.73562 16.464 2.87677L18.122 4.53477ZM19 18.9998C19 19.7954 18.6839 20.5585 18.1213 21.1211C17.5587 21.6837 16.7956 21.9998 16 21.9998H8C7.20435 21.9998 6.44129 21.6837 5.87868 21.1211C5.31607 20.5585 5 19.7954 5 18.9998V4.99977C5 4.20412 5.31607 3.44106 5.87868 2.87845C6.44129 2.31584 7.20435 1.99977 8 1.99977H14V4.99977C14 5.5302 14.2107 6.03891 14.5858 6.41399C14.9609 6.78906 15.4696 6.99977 16 6.99977H19V18.9998Z" fill="#374957"/>
</g>
<defs>
<clipPath id="clip0_806_6014">
<rect width="24" height="24" fill="white"/>
</clipPath>
</defs>
</svg>
