<svg width="24" height="24" viewBox="0 0 24 24" fill="none" xmlns="http://www.w3.org/2000/svg">
<g clip-path="url(#clip0_806_6190)">
<path d="M19.3332 14.6675C18.5771 14.6681 17.8325 14.8527 17.1637 15.2053C16.4949 15.5579 15.9219 16.068 15.4942 16.6915L8.98518 13.7525C9.44749 12.6361 9.44929 11.3822 8.99018 10.2645L15.4902 7.31049C16.124 8.22725 17.0655 8.88645 18.1438 9.16854C19.222 9.45062 20.3657 9.3369 21.3673 8.84799C22.3689 8.35909 23.1621 7.52739 23.603 6.50376C24.0439 5.48013 24.1034 4.33236 23.7705 3.26867C23.4377 2.20497 22.7347 1.29579 21.7889 0.706047C20.8432 0.116306 19.7174 -0.114936 18.6157 0.0542677C17.5141 0.223471 16.5096 0.781913 15.7844 1.62829C15.0592 2.47468 14.6614 3.55294 14.6632 4.66749C14.6674 4.93129 14.6942 5.19425 14.7432 5.45349L7.83318 8.59349C7.16952 7.97171 6.33868 7.55733 5.44275 7.40125C4.54682 7.24518 3.6248 7.35421 2.78999 7.71495C1.95517 8.07569 1.2439 8.67243 0.743573 9.43185C0.243244 10.1913 -0.0243578 11.0803 -0.0263559 11.9897C-0.0283541 12.8992 0.235338 13.7894 0.732325 14.551C1.22931 15.3126 1.93795 15.9125 2.77117 16.2769C3.6044 16.6413 4.52592 16.7544 5.42253 16.6022C6.31915 16.4501 7.15179 16.0394 7.81818 15.4205L14.7462 18.5485C14.6981 18.8075 14.6716 19.0701 14.6672 19.3335C14.667 20.2566 14.9406 21.1591 15.4533 21.9267C15.966 22.6944 16.6949 23.2927 17.5477 23.646C18.4006 23.9994 19.339 24.0919 20.2444 23.9119C21.1498 23.7318 21.9815 23.2873 22.6342 22.6346C23.287 21.9818 23.7315 21.1501 23.9116 20.2447C24.0916 19.3393 23.9991 18.4009 23.6457 17.548C23.2924 16.6952 22.694 15.9663 21.9264 15.4536C21.1588 14.9409 20.2563 14.6673 19.3332 14.6675ZM19.3332 2.00049C19.8607 2.00029 20.3764 2.15654 20.8152 2.44948C21.2539 2.74241 21.5959 3.15887 21.7979 3.64618C21.9999 4.1335 22.0528 4.66977 21.9501 5.18718C21.8473 5.7046 21.5933 6.17991 21.2204 6.55299C20.8474 6.92608 20.3722 7.18019 19.8549 7.28317C19.3375 7.38616 18.8012 7.3334 18.3138 7.13157C17.8264 6.92975 17.4098 6.58791 17.1167 6.1493C16.8236 5.71069 16.6672 5.19502 16.6672 4.66749C16.6677 3.96049 16.9487 3.28259 17.4486 2.78258C17.9484 2.28256 18.6262 2.00129 19.3332 2.00049ZM4.66718 14.6675C4.13965 14.6677 3.62392 14.5114 3.1852 14.2185C2.74648 13.9256 2.40449 13.5091 2.20248 13.0218C2.00046 12.5345 1.94751 11.9982 2.0503 11.4808C2.15309 10.9634 2.40702 10.4881 2.77997 10.115C3.15292 9.74191 3.62813 9.4878 4.1455 9.38481C4.66288 9.28182 5.19917 9.33458 5.68656 9.53641C6.17395 9.73824 6.59054 10.0801 6.88364 10.5187C7.17673 10.9573 7.33318 11.473 7.33318 12.0005C7.33238 12.7074 7.05128 13.3852 6.55151 13.8851C6.05174 14.3851 5.37409 14.6664 4.66718 14.6675ZM19.3332 22.0005C18.8057 22.0005 18.2901 21.8441 17.8515 21.551C17.4129 21.258 17.071 20.8414 16.8692 20.3541C16.6673 19.8668 16.6145 19.3305 16.7174 18.8132C16.8203 18.2958 17.0743 17.8206 17.4473 17.4476C17.8203 17.0747 18.2955 16.8206 18.8129 16.7177C19.3302 16.6148 19.8665 16.6676 20.3538 16.8695C20.8411 17.0714 21.2577 17.4132 21.5507 17.8518C21.8438 18.2904 22.0002 18.806 22.0002 19.3335C21.9996 20.0407 21.7185 20.7187 21.2184 21.2188C20.7184 21.7188 20.0403 22 19.3332 22.0005Z" fill="#374957"/>
</g>
<defs>
<clipPath id="clip0_806_6190">
<rect width="24" height="24" fill="white"/>
</clipPath>
</defs>
</svg>
