<svg width="24" height="24" viewBox="0 0 24 24" fill="none" xmlns="http://www.w3.org/2000/svg">
<g clip-path="url(#clip0_806_5986)">
<path d="M23.112 5.16485C23.3931 4.88394 23.616 4.5504 23.7681 4.1833C23.9202 3.81619 23.9985 3.42272 23.9985 3.02535C23.9985 2.62798 23.9202 2.23451 23.7681 1.86741C23.616 1.5003 23.3931 1.16677 23.112 0.885852C22.5363 0.335474 21.7705 0.0283203 20.974 0.0283203C20.1776 0.0283203 19.4118 0.335474 18.836 0.885852L16.4 3.32385C15.388 4.33685 13.277 4.11285 11.821 3.31085C11.2697 3.01236 10.629 2.92317 10.0171 3.0597C9.40514 3.19623 8.86315 3.54929 8.49095 4.05384C8.11874 4.55838 7.9414 5.18044 7.99158 5.8054C8.04176 6.43037 8.31609 7.01616 8.76403 7.45485L10.18 8.87085L2.02503 17.0249C1.48975 17.5544 1.14213 18.2444 1.03509 18.9898C0.928043 19.7351 1.06743 20.495 1.43203 21.1539L0.293031 22.2929C0.10556 22.4804 0.000244141 22.7347 0.000244141 22.9999C0.000244141 23.265 0.10556 23.5193 0.293031 23.7069C0.480558 23.8943 0.734866 23.9996 1.00003 23.9996C1.26519 23.9996 1.5195 23.8943 1.70703 23.7069L2.84603 22.5679C3.50487 22.9325 4.26478 23.0718 5.01012 22.9648C5.75547 22.8577 6.44544 22.5101 6.97503 21.9749L15.129 13.8199L16.545 15.2359C16.9837 15.6838 17.5695 15.9581 18.1945 16.0083C18.8194 16.0585 19.4415 15.8811 19.946 15.5089C20.4506 15.1367 20.8037 14.5947 20.9402 13.9828C21.0767 13.3709 20.9875 12.7302 20.689 12.1789C19.889 10.7229 19.664 8.61085 20.676 7.59885L23.112 5.16485ZM5.56003 20.5609C5.2743 20.8336 4.89451 20.9857 4.49953 20.9857C4.10455 20.9857 3.72476 20.8336 3.43903 20.5609C3.15782 20.2796 2.99985 19.8981 2.99985 19.5004C2.99985 19.1026 3.15782 18.7211 3.43903 18.4399L11.594 10.2859L13.715 12.4069L5.56003 20.5609ZM19.26 6.18485C17.501 7.94385 17.76 11.0169 18.935 13.1429C18.9907 13.2538 19.0093 13.3797 18.9878 13.502C18.9664 13.6243 18.9062 13.7365 18.816 13.8219C18.7004 13.9325 18.5466 13.9943 18.3865 13.9943C18.2265 13.9943 18.0726 13.9325 17.957 13.8219L10.178 6.04085C10.094 5.95536 10.0369 5.84707 10.0139 5.72943C9.99081 5.61178 10.0028 5.48995 10.0484 5.37908C10.094 5.2682 10.1711 5.17315 10.2703 5.10573C10.3694 5.03832 10.4862 5.0015 10.606 4.99985C10.6937 4.99945 10.78 5.02112 10.857 5.06285C12.983 6.23285 16.057 6.49685 17.815 4.73785L20.254 2.29985C20.4486 2.11344 20.7076 2.00937 20.977 2.00937C21.2465 2.00937 21.5055 2.11344 21.7 2.29985C21.7952 2.39495 21.8708 2.50789 21.9223 2.63221C21.9739 2.75652 22.0004 2.88978 22.0004 3.02435C22.0004 3.15893 21.9739 3.29218 21.9223 3.4165C21.8708 3.54081 21.7952 3.65375 21.7 3.74885L19.26 6.18485Z" fill="#374957"/>
</g>
<defs>
<clipPath id="clip0_806_5986">
<rect width="24" height="24" fill="white"/>
</clipPath>
</defs>
</svg>
