<svg width="24" height="24" viewBox="0 0 24 24" fill="none" xmlns="http://www.w3.org/2000/svg">
<g clip-path="url(#clip0_806_5954)">
<path d="M20 0.000258033H18.243C17.7174 -0.00113153 17.1967 0.101737 16.7111 0.30291C16.2255 0.504083 15.7847 0.799566 15.414 1.17226L12.172 4.41426C11.4239 5.16559 11.0027 6.18196 11 7.24226V10.7053C7.73403 13.1203 3.41903 16.3383 2.87903 16.8793C2.44393 17.3173 2.15492 17.8791 2.05162 18.4878C1.94833 19.0965 2.03579 19.7222 2.30203 20.2793L0.293031 22.2933C0.10556 22.4808 0.000244141 22.7351 0.000244141 23.0003C0.000244141 23.2654 0.10556 23.5197 0.293031 23.7073C0.480558 23.8947 0.734866 24 1.00003 24C1.26519 24 1.5195 23.8947 1.70703 23.7073L3.71403 21.7003C4.27118 21.972 4.89948 22.0623 5.51061 21.9584C6.12173 21.8546 6.68494 21.5618 7.12103 21.1213C7.66203 20.5803 10.88 16.2663 13.3 13.0003H16.762C17.2876 13.0016 17.8083 12.8988 18.2939 12.6976C18.7795 12.4964 19.2204 12.201 19.591 11.8283L22.833 8.58626C23.5794 7.83412 23.9987 6.81784 24 5.75826V4.00026C24 2.93939 23.5786 1.92198 22.8285 1.17183C22.0783 0.421686 21.0609 0.000258033 20 0.000258033ZM5.70703 19.7073C5.5169 19.8897 5.26357 19.9916 5.00003 19.9916C4.73649 19.9916 4.48316 19.8897 4.29303 19.7073C4.10556 19.5197 4.00024 19.2654 4.00024 19.0003C4.00024 18.7351 4.10556 18.4808 4.29303 18.2933C4.63203 17.9573 7.29303 15.9503 10.241 13.7593C8.04903 16.7063 6.04203 19.3693 5.70703 19.7073ZM22 5.75826C21.9987 6.28841 21.7881 6.79659 21.414 7.17226L18.172 10.4143C17.9866 10.6006 17.766 10.7483 17.5232 10.8488C17.2803 10.9494 17.0199 11.0009 16.757 11.0003H14.771L15.762 9.65226L19.707 5.70726C19.8025 5.61501 19.8787 5.50467 19.9311 5.38266C19.9835 5.26066 20.0111 5.12944 20.0123 4.99666C20.0134 4.86388 19.9881 4.7322 19.9379 4.6093C19.8876 4.48641 19.8133 4.37476 19.7194 4.28086C19.6255 4.18697 19.5139 4.11272 19.391 4.06244C19.2681 4.01216 19.1364 3.98685 19.0036 3.98801C18.8708 3.98916 18.7396 4.01675 18.6176 4.06916C18.4956 4.12157 18.3853 4.19775 18.293 4.29326L14.349 8.23726L13 9.22926V7.24226C13.0013 6.71211 13.212 6.20392 13.586 5.82826L16.828 2.58626C17.0135 2.39996 17.234 2.25226 17.4769 2.15168C17.7198 2.0511 17.9802 1.99963 18.243 2.00026H20C20.5305 2.00026 21.0392 2.21097 21.4142 2.58604C21.7893 2.96112 22 3.46983 22 4.00026V5.75826Z" fill="#374957"/>
</g>
<defs>
<clipPath id="clip0_806_5954">
<rect width="24" height="24" fill="white"/>
</clipPath>
</defs>
</svg>
