<svg width="24" height="24" viewBox="0 0 24 24" fill="none" xmlns="http://www.w3.org/2000/svg">
<path d="M13.29 18.5902L7.70998 13.0002C7.52373 12.8128 7.41919 12.5593 7.41919 12.2952C7.41919 12.031 7.52373 11.7775 7.70998 11.5902L13.29 6.00016C13.4299 5.85913 13.6086 5.76295 13.8033 5.72388C13.998 5.68481 14.2 5.70462 14.3835 5.78079C14.5669 5.85696 14.7235 5.98603 14.8333 6.15155C14.9431 6.31707 15.0011 6.51154 15 6.71016V17.8802C15.0011 18.0788 14.9431 18.2733 14.8333 18.4388C14.7235 18.6043 14.5669 18.7334 14.3835 18.8095C14.2 18.8857 13.998 18.9055 13.8033 18.8664C13.6086 18.8274 13.4299 18.7312 13.29 18.5902Z" fill="#374957"/>
</svg>
