<svg width="24" height="24" viewBox="0 0 24 24" fill="none" xmlns="http://www.w3.org/2000/svg">
<g clip-path="url(#clip0_806_5916)">
<path d="M21.781 20.3669C23.0569 19.1049 23.8376 17.4268 23.981 15.6379C24.132 13.8235 23.6563 12.0121 22.6335 10.5059C21.6106 8.99968 20.1022 7.88965 18.36 7.36092C18.1886 7.30747 18.0331 7.2125 17.9073 7.08444C17.7816 6.95638 17.6894 6.79921 17.639 6.62692C17.244 5.33202 16.5252 4.15927 15.5507 3.21955C14.5761 2.27983 13.378 1.60419 12.0696 1.25652C10.7612 0.908843 9.38573 0.900622 8.07327 1.23263C6.7608 1.56464 5.55469 2.22591 4.56899 3.15392L1.70699 0.292919C1.51839 0.110761 1.26579 0.00996641 1.00359 0.0122448C0.741392 0.0145233 0.49058 0.119692 0.305172 0.3051C0.119763 0.490508 0.0145945 0.741321 0.0123161 1.00352C0.0100377 1.26571 0.110832 1.51832 0.29299 1.70692L22.293 23.7069C22.4816 23.8891 22.7342 23.9899 22.9964 23.9876C23.2586 23.9853 23.5094 23.8801 23.6948 23.6947C23.8802 23.5093 23.9854 23.2585 23.9877 22.9963C23.9899 22.7341 23.8892 22.4815 23.707 22.2929L21.781 20.3669ZM9.09999 3.06492C10.5187 2.8496 11.9675 3.15055 13.1831 3.91304C14.3987 4.67554 15.3003 5.84895 15.724 7.21992C15.8719 7.70251 16.1354 8.1417 16.4916 8.4993C16.8478 8.85691 17.286 9.12213 17.768 9.27192C19.0745 9.66923 20.2053 10.5023 20.9719 11.6324C21.7386 12.7624 22.0947 14.1211 21.981 15.4819C21.8778 16.7942 21.2993 18.0238 20.354 18.9399L5.98199 4.56792C6.84948 3.7691 7.93471 3.24597 9.09999 3.06492ZM16.993 21.8279C17.021 22.0914 16.9434 22.3552 16.7771 22.5614C16.6107 22.7677 16.3694 22.8995 16.106 22.9279C15.6672 22.9751 15.2263 22.9985 14.785 22.9979H5.68499C4.35161 22.9747 3.0663 22.496 2.04252 21.6414C1.01875 20.7868 0.318118 19.6077 0.0569901 18.2999C-0.112962 17.1752 0.0734934 16.0256 0.590191 15.0123C1.10689 13.999 1.92789 13.1729 2.93799 12.6499C2.13819 11.1896 1.83693 9.50809 2.07999 7.86092C2.11686 7.59822 2.25657 7.36093 2.46839 7.20124C2.68021 7.04155 2.94679 6.97255 3.20949 7.00942C3.47219 7.04628 3.70948 7.186 3.86917 7.39782C4.02885 7.60964 4.09786 7.87622 4.06099 8.13892C3.88336 9.36724 4.09309 10.6204 4.66099 11.7239C4.91129 12.1874 4.96862 12.731 4.82052 13.2365C4.67241 13.7421 4.33084 14.1687 3.86999 14.4239C3.22677 14.7573 2.70415 15.2839 2.37556 15.9296C2.04697 16.5753 1.92892 17.3077 2.03799 18.0239C2.22444 18.8565 2.68505 19.6025 3.34598 20.1421C4.00692 20.6817 4.8299 20.9838 5.68299 20.9999H14.783C15.1528 21.0002 15.5223 20.9805 15.89 20.9409C16.1537 20.9139 16.4174 20.9919 16.624 21.1579C16.8306 21.3239 16.9636 21.5646 16.994 21.8279H16.993Z" fill="#374957"/>
</g>
<defs>
<clipPath id="clip0_806_5916">
<rect width="24" height="24" fill="white"/>
</clipPath>
</defs>
</svg>
