<svg width="24" height="24" viewBox="0 0 24 24" fill="none" xmlns="http://www.w3.org/2000/svg">
<g clip-path="url(#clip0_806_5884)">
<path d="M17.7622 24C9.63124 24.275 -5.01674 9.74504 1.78425 1.86704L2.93425 0.867036C3.51637 0.304301 4.29666 -0.00658661 5.10627 0.00164798C5.91588 0.00988257 6.68969 0.336577 7.26024 0.911036C7.29108 0.94244 7.31981 0.975846 7.34624 1.01104L9.14624 3.35004C9.69326 3.92887 9.9972 4.69561 9.99534 5.49203C9.99348 6.28845 9.68596 7.05376 9.13624 7.63004L7.97824 9.08604C8.61936 10.6431 9.56166 12.0582 10.7511 13.2502C11.9405 14.4422 13.3536 15.3876 14.9092 16.032L16.3732 14.867C16.957 14.3309 17.7204 14.0329 18.5131 14.0318C19.3057 14.0307 20.07 14.3265 20.6552 14.861L22.9952 16.661C23.0302 16.6874 23.0636 16.7158 23.0952 16.746C23.6723 17.3284 23.9961 18.1152 23.9961 18.935C23.9961 19.7549 23.6723 20.5416 23.0952 21.124L22.1842 22.174C21.6064 22.7582 20.9174 23.2207 20.1579 23.5343C19.3985 23.848 18.5839 24.0063 17.7622 24ZM5.07125 2.00004C4.92754 1.99992 4.78522 2.02813 4.65241 2.08303C4.51961 2.13794 4.39892 2.21847 4.29725 2.32004L3.14625 3.32004C-2.49975 10.108 14.7772 26.423 20.7202 20.808L21.6322 19.757C21.7406 19.6606 21.8289 19.5436 21.8919 19.4128C21.9549 19.2821 21.9914 19.1402 21.9993 18.9952C22.0072 18.8503 21.9863 18.7053 21.9379 18.5684C21.8895 18.4316 21.8145 18.3057 21.7172 18.198L19.3902 16.411C19.3546 16.3848 19.3211 16.3557 19.2902 16.324C19.0816 16.1252 18.8044 16.0143 18.5162 16.0143C18.228 16.0143 17.9509 16.1252 17.7422 16.324C17.7157 16.3509 17.6876 16.3763 17.6582 16.4L15.7002 17.96C15.5643 18.0682 15.4025 18.1391 15.2309 18.1658C15.0592 18.1925 14.8836 18.1739 14.7212 18.112C12.7054 17.3611 10.8745 16.1856 9.35254 14.6652C7.83063 13.1449 6.65328 11.3151 5.90024 9.30004C5.83358 9.13541 5.81197 8.95599 5.83763 8.78024C5.86329 8.60448 5.93529 8.43874 6.04624 8.30004L7.60024 6.34404C7.62336 6.31441 7.64841 6.28635 7.67524 6.26004C7.87951 6.05402 7.99412 5.77565 7.99412 5.48554C7.99412 5.19542 7.87951 4.91705 7.67524 4.71104C7.64408 4.67994 7.61533 4.64651 7.58924 4.61104L5.80625 2.28704C5.60478 2.105 5.34277 2.00448 5.07125 2.00504V2.00004ZM22.5642 12.576C27.5542 5.23104 18.7642 -3.54996 11.4272 1.43904C11.3166 1.51291 11.2218 1.60812 11.1484 1.71908C11.075 1.83005 11.0245 1.95454 10.9999 2.08527C10.9752 2.21601 10.9768 2.35035 11.0047 2.48043C11.0326 2.61051 11.0862 2.73371 11.1623 2.84282C11.2385 2.95194 11.3356 3.04477 11.448 3.11588C11.5605 3.18698 11.686 3.23494 11.8172 3.25694C11.9484 3.27894 12.0826 3.27453 12.2121 3.24399C12.3416 3.21344 12.4637 3.15736 12.5712 3.07904C18.0452 -0.679964 24.6812 5.96304 20.9242 11.433C20.8442 11.5405 20.7866 11.6629 20.7548 11.7931C20.723 11.9232 20.7177 12.0584 20.7392 12.1906C20.7607 12.3229 20.8085 12.4494 20.8798 12.5628C20.9512 12.6762 21.0446 12.7741 21.1545 12.8507C21.2644 12.9273 21.3886 12.9811 21.5196 13.0087C21.6507 13.0364 21.786 13.0375 21.9175 13.0119C22.049 12.9862 22.174 12.9345 22.2851 12.8596C22.3962 12.7847 22.4911 12.6883 22.5642 12.576ZM18.7062 10.711C18.8937 10.5235 18.999 10.2692 18.999 10.004C18.999 9.73887 18.8937 9.48456 18.7062 9.29704L17.0002 7.59004V5.00004C17.0002 4.73482 16.8949 4.48047 16.7073 4.29293C16.5198 4.10539 16.2654 4.00004 16.0002 4.00004C15.735 4.00004 15.4807 4.10539 15.2931 4.29293C15.1056 4.48047 15.0002 4.73482 15.0002 5.00004V8.00004C15.0003 8.26523 15.1057 8.51954 15.2932 8.70704L17.2932 10.707C17.4808 10.8945 17.7351 10.9998 18.0002 10.9998C18.2654 10.9998 18.5197 10.8945 18.7072 10.707L18.7062 10.711Z" fill="#374957"/>
</g>
<defs>
<clipPath id="clip0_806_5884">
<rect width="24" height="24" fill="white"/>
</clipPath>
</defs>
</svg>
