<svg width="24" height="24" viewBox="0 0 24 24" fill="none" xmlns="http://www.w3.org/2000/svg">
<g clip-path="url(#clip0_806_6076)">
<path d="M17.0002 13.184V10C17.0002 9.73479 16.8949 9.48044 16.7074 9.2929C16.5198 9.10537 16.2655 9.00001 16.0002 9.00001V2.41401C16.0003 2.00272 15.8952 1.59825 15.6949 1.23903C15.4946 0.879807 15.2057 0.577775 14.8558 0.361631C14.5059 0.145487 14.1065 0.022412 13.6956 0.00410093C13.2847 -0.0142101 12.876 0.0728512 12.5082 0.257012L9.88624 1.56701C9.31845 1.84939 8.84093 2.28493 8.50766 2.82443C8.17438 3.36392 7.99862 3.98588 8.00024 4.62001V9.00001C7.73503 9.00001 7.48067 9.10537 7.29314 9.2929C7.1056 9.48044 7.00024 9.73479 7.00024 10V13.184C6.41734 13.3901 5.91234 13.7712 5.55433 14.2753C5.19633 14.7794 5.00281 15.3818 5.00024 16V19C5.00183 20.3256 5.52913 21.5965 6.46646 22.5338C7.4038 23.4711 8.67465 23.9984 10.0002 24H14.0002C15.3258 23.9984 16.5967 23.4711 17.534 22.5338C18.4714 21.5965 18.9987 20.3256 19.0002 19V16C18.9977 15.3818 18.8042 14.7794 18.4462 14.2753C18.0882 13.7712 17.5832 13.3901 17.0002 13.184ZM9.00024 13V11H15.0002V13H9.00024ZM10.0002 4.62001C9.99951 4.35743 10.0723 4.09989 10.2103 3.87651C10.3483 3.65314 10.5461 3.47284 10.7812 3.35601L13.4002 2.04601C13.4631 2.01345 13.5333 1.99768 13.6041 2.00024C13.6749 2.0028 13.7438 2.0236 13.8041 2.06062C13.8645 2.09764 13.9143 2.14963 13.9486 2.21155C13.983 2.27346 14.0008 2.3432 14.0002 2.41401V9.00001H10.0002V4.62001ZM17.0002 19C17.0002 19.7957 16.6842 20.5587 16.1216 21.1213C15.559 21.6839 14.7959 22 14.0002 22H10.0002C9.20459 22 8.44153 21.6839 7.87892 21.1213C7.31631 20.5587 7.00024 19.7957 7.00024 19V16C7.00024 15.7348 7.1056 15.4804 7.29314 15.2929C7.48067 15.1054 7.73503 15 8.00024 15H16.0002C16.2655 15 16.5198 15.1054 16.7074 15.2929C16.8949 15.4804 17.0002 15.7348 17.0002 16V19Z" fill="#374957"/>
</g>
<defs>
<clipPath id="clip0_806_6076">
<rect width="24" height="24" fill="white"/>
</clipPath>
</defs>
</svg>
