<svg width="24" height="24" viewBox="0 0 24 24" fill="none" xmlns="http://www.w3.org/2000/svg">
<g clip-path="url(#clip0_806_5958)">
<path d="M19 2.00002H9.95596C9.19418 1.99767 8.44207 2.1706 7.75782 2.50545C7.07357 2.84029 6.47553 3.32806 6.00996 3.93102L0.209962 11.386C0.0734069 11.5616 -0.000732422 11.7776 -0.000732422 12C-0.000732422 12.2224 0.0734069 12.4385 0.209962 12.614L6.00996 20.069C6.47553 20.672 7.07357 21.1598 7.75782 21.4946C8.44207 21.8294 9.19418 22.0024 9.95596 22H19C20.3256 21.9984 21.5964 21.4711 22.5337 20.5338C23.4711 19.5965 23.9984 18.3256 24 17V7.00002C23.9984 5.67443 23.4711 4.40358 22.5337 3.46624C21.5964 2.52891 20.3256 2.00161 19 2.00002ZM22 17C22 17.7957 21.6839 18.5587 21.1213 19.1213C20.5587 19.684 19.7956 20 19 20H9.95596C9.49887 20.0016 9.04754 19.898 8.63691 19.6972C8.22628 19.4964 7.86737 19.2038 7.58796 18.842L2.26696 12L7.58796 5.15802C7.86737 4.79627 8.22628 4.50366 8.63691 4.30286C9.04754 4.10205 9.49887 3.99843 9.95596 4.00002H19C19.7956 4.00002 20.5587 4.31609 21.1213 4.8787C21.6839 5.44131 22 6.20437 22 7.00002V17ZM17.207 10.207L15.414 12L17.207 13.793C17.3025 13.8853 17.3787 13.9956 17.4311 14.1176C17.4835 14.2396 17.5111 14.3708 17.5122 14.5036C17.5134 14.6364 17.4881 14.7681 17.4378 14.891C17.3875 15.0139 17.3132 15.1255 17.2194 15.2194C17.1255 15.3133 17.0138 15.3876 16.8909 15.4378C16.768 15.4881 16.6363 15.5134 16.5036 15.5123C16.3708 15.5111 16.2396 15.4835 16.1176 15.4311C15.9956 15.3787 15.8852 15.3025 15.793 15.207L14 13.414L12.207 15.207C12.0184 15.3892 11.7658 15.49 11.5036 15.4877C11.2414 15.4854 10.9906 15.3803 10.8051 15.1948C10.6197 15.0094 10.5146 14.7586 10.5123 14.4964C10.51 14.2342 10.6108 13.9816 10.793 13.793L12.586 12L10.793 10.207C10.6108 10.0184 10.51 9.76582 10.5123 9.50362C10.5146 9.24143 10.6197 8.99061 10.8051 8.80521C10.9906 8.6198 11.2414 8.51463 11.5036 8.51235C11.7658 8.51007 12.0184 8.61087 12.207 8.79302L14 10.586L15.793 8.79302C15.9816 8.61087 16.2342 8.51007 16.4964 8.51235C16.7586 8.51463 17.0094 8.6198 17.1948 8.80521C17.3802 8.99061 17.4854 9.24143 17.4876 9.50362C17.4899 9.76582 17.3891 10.0184 17.207 10.207Z" fill="#374957"/>
</g>
<defs>
<clipPath id="clip0_806_5958">
<rect width="24" height="24" fill="white"/>
</clipPath>
</defs>
</svg>
