<svg width="24" height="24" viewBox="0 0 24 24" fill="none" xmlns="http://www.w3.org/2000/svg">
<g clip-path="url(#clip0_806_6065)">
<path d="M20.4572 4.55504L12.4862 0.126041C12.3376 0.043381 12.1703 0 12.0002 0C11.8302 0 11.6629 0.043381 11.5142 0.126041L3.54324 4.55504C3.07565 4.81483 2.68602 5.19492 2.41472 5.65594C2.14342 6.11695 2.00032 6.64212 2.00024 7.17704V19C2.00183 20.3256 2.52913 21.5965 3.46646 22.5338C4.4038 23.4712 5.67465 23.9985 7.00024 24H17.0002C18.3258 23.9985 19.5967 23.4712 20.534 22.5338C21.4714 21.5965 21.9987 20.3256 22.0002 19V7.17704C22.0002 6.64212 21.8571 6.11695 21.5858 5.65594C21.3145 5.19492 20.9248 4.81483 20.4572 4.55504ZM20.0002 19C20.0002 19.7957 19.6842 20.5588 19.1216 21.1214C18.559 21.684 17.7959 22 17.0002 22H7.00024C6.20459 22 5.44153 21.684 4.87892 21.1214C4.31631 20.5588 4.00024 19.7957 4.00024 19V7.17704C3.9998 6.99816 4.04735 6.82243 4.13793 6.66818C4.22851 6.51393 4.35881 6.3868 4.51524 6.30004L12.0002 2.14404L19.4862 6.30004C19.6425 6.38693 19.7726 6.51412 19.863 6.66836C19.9534 6.8226 20.0008 6.99826 20.0002 7.17704V19Z" fill="#374957"/>
<path d="M12 8.50024C12.8284 8.50024 13.5 7.82867 13.5 7.00024C13.5 6.17182 12.8284 5.50024 12 5.50024C11.1716 5.50024 10.5 6.17182 10.5 7.00024C10.5 7.82867 11.1716 8.50024 12 8.50024Z" fill="#374957"/>
</g>
<defs>
<clipPath id="clip0_806_6065">
<rect width="24" height="24" fill="white"/>
</clipPath>
</defs>
</svg>
