<svg width="24" height="24" viewBox="0 0 24 24" fill="none" xmlns="http://www.w3.org/2000/svg">
<g clip-path="url(#clip0_806_6133)">
<path d="M19.9812 7.02276V1.02276C19.9812 0.75754 20.0865 0.503186 20.2741 0.31565C20.4616 0.128113 20.716 0.0227566 20.9812 0.0227566C21.2464 0.0227566 21.5008 0.128113 21.6883 0.31565C21.8758 0.503186 21.9812 0.75754 21.9812 1.02276V7.02276C21.9812 7.28797 21.8758 7.54233 21.6883 7.72986C21.5008 7.9174 21.2464 8.02276 20.9812 8.02276C20.716 8.02276 20.4616 7.9174 20.2741 7.72986C20.0865 7.54233 19.9812 7.28797 19.9812 7.02276ZM16.9812 8.02276C17.2464 8.02276 17.5008 7.9174 17.6883 7.72986C17.8758 7.54233 17.9812 7.28797 17.9812 7.02276V1.02276C17.9812 0.75754 17.8758 0.503186 17.6883 0.31565C17.5008 0.128113 17.2464 0.0227566 16.9812 0.0227566C16.716 0.0227566 16.4616 0.128113 16.2741 0.31565C16.0865 0.503186 15.9812 0.75754 15.9812 1.02276V7.02276C15.9812 7.28797 16.0865 7.54233 16.2741 7.72986C16.4616 7.9174 16.716 8.02276 16.9812 8.02276ZM23.0762 21.1388L22.1642 22.1888C13.9742 30.0288 -5.95581 10.1048 1.76419 1.88876L2.91419 0.888757C3.49601 0.325021 4.27651 0.0132161 5.0866 0.0208903C5.8967 0.0285645 6.67115 0.3551 7.24219 0.929757C7.27319 0.959757 9.12419 3.36676 9.12419 3.36676C9.67399 3.94408 9.98024 4.71102 9.97931 5.50826C9.97838 6.30549 9.67034 7.07172 9.11919 7.64776L7.95919 9.09976C8.60003 10.6573 9.54233 12.0728 10.732 13.265C11.9216 14.4572 13.3351 15.4026 14.8912 16.0468L16.3552 14.8818C16.931 14.33 17.6973 14.0215 18.4948 14.0202C19.2923 14.0189 20.0596 14.3249 20.6372 14.8748C20.6372 14.8748 23.0442 16.7278 23.0752 16.7588C23.6554 17.3398 23.9814 18.1274 23.9816 18.9486C23.9818 19.7697 23.6562 20.5574 23.0762 21.1388ZM21.7002 18.2158C21.7002 18.2158 19.3002 16.3738 19.2752 16.3438C19.0666 16.1444 18.7892 16.0332 18.5007 16.0332C18.2122 16.0332 17.9348 16.1444 17.7262 16.3438C17.7002 16.3708 15.6822 17.9788 15.6822 17.9788C15.5462 18.0868 15.3844 18.1575 15.2127 18.184C15.041 18.2105 14.8654 18.1918 14.7032 18.1298C12.6866 17.3797 10.8549 16.2045 9.3326 14.684C7.81024 13.1636 6.6328 11.3334 5.88019 9.31776C5.81447 9.15379 5.79337 8.97534 5.81901 8.80057C5.84466 8.6258 5.91614 8.46093 6.02619 8.32276C6.02619 8.32276 7.63319 6.30576 7.66119 6.27876C7.86576 6.0727 7.98056 5.79412 7.98056 5.50376C7.98056 5.2134 7.86576 4.93481 7.66119 4.72876C7.62919 4.69976 5.78819 2.30576 5.78819 2.30576C5.57921 2.11813 5.30639 2.01755 5.02563 2.02461C4.74488 2.03168 4.47746 2.14586 4.27819 2.34376L3.12719 3.34876C-2.51281 10.1278 14.7582 26.4418 20.7002 20.8258L21.6122 19.7758C21.8267 19.5782 21.9559 19.3048 21.9724 19.0136C21.9888 18.7224 21.8912 18.4362 21.7002 18.2158Z" fill="#374957"/>
</g>
<defs>
<clipPath id="clip0_806_6133">
<rect width="24" height="24" fill="white"/>
</clipPath>
</defs>
</svg>
