<svg width="24" height="24" viewBox="0 0 24 24" fill="none" xmlns="http://www.w3.org/2000/svg">
<g clip-path="url(#clip0_806_6108)">
<path d="M17.9999 18.9996C18.1977 18.9996 18.391 18.9409 18.5554 18.831C18.7198 18.7212 18.8479 18.565 18.9236 18.3823C18.9993 18.1996 19.0191 17.9986 18.9805 17.8046C18.9419 17.6107 18.8467 17.4325 18.7069 17.2926L12.5349 11.1216C11.5973 10.1843 10.3257 9.65771 8.99992 9.65771C7.6741 9.65771 6.40256 10.1843 5.46492 11.1216L3.29292 13.2926C3.11076 13.4812 3.00997 13.7339 3.01224 13.996C3.01452 14.2582 3.11969 14.5091 3.3051 14.6945C3.49051 14.8799 3.74132 14.985 4.00352 14.9873C4.26571 14.9896 4.51832 14.8888 4.70692 14.7066L6.87892 12.5356C7.45014 11.9898 8.20982 11.6852 8.99992 11.6852C9.79002 11.6852 10.5497 11.9898 11.1209 12.5356L17.2929 18.7066C17.4804 18.8942 17.7347 18.9996 17.9999 18.9996Z" fill="#374957"/>
<path d="M16.0002 10.4998C16.6925 10.4998 17.3692 10.2945 17.9447 9.9099C18.5203 9.52532 18.9689 8.97869 19.2338 8.33915C19.4987 7.69961 19.568 6.99588 19.433 6.31694C19.2979 5.63801 18.9646 5.01437 18.4751 4.52488C17.9856 4.0354 17.362 3.70206 16.6831 3.56701C16.0041 3.43196 15.3004 3.50127 14.6609 3.76618C14.0213 4.03109 13.4747 4.47969 13.0901 5.05526C12.7055 5.63083 12.5002 6.30752 12.5002 6.99976C12.5002 7.92802 12.869 8.81825 13.5254 9.47463C14.1817 10.131 15.072 10.4998 16.0002 10.4998ZM16.0002 5.49976C16.2969 5.49976 16.5869 5.58773 16.8336 5.75255C17.0803 5.91738 17.2725 6.15164 17.3861 6.42573C17.4996 6.69982 17.5293 7.00142 17.4714 7.29239C17.4135 7.58336 17.2707 7.85064 17.0609 8.06042C16.8511 8.2702 16.5839 8.41306 16.2929 8.47094C16.0019 8.52881 15.7003 8.49911 15.4262 8.38558C15.1521 8.27205 14.9179 8.07979 14.753 7.83311C14.5882 7.58644 14.5002 7.29643 14.5002 6.99976C14.5002 6.60193 14.6583 6.2204 14.9396 5.9391C15.2209 5.65779 15.6024 5.49976 16.0002 5.49976Z" fill="#374957"/>
<path d="M22.9997 16.0002C22.7345 16.0002 22.4802 16.1056 22.2926 16.2931C22.1051 16.4807 21.9997 16.735 21.9997 17.0002V19.0002C21.9997 19.7959 21.6837 20.5589 21.1211 21.1216C20.5585 21.6842 19.7954 22.0002 18.9998 22.0002H16.9998C16.7345 22.0002 16.4802 22.1056 16.2926 22.2931C16.1051 22.4807 15.9998 22.735 15.9998 23.0002C15.9998 23.2654 16.1051 23.5198 16.2926 23.7073C16.4802 23.8949 16.7345 24.0002 16.9998 24.0002H18.9998C20.3253 23.9986 21.5962 23.4713 22.5335 22.534C23.4709 21.5967 23.9982 20.3258 23.9997 19.0002V17.0002C23.9997 16.735 23.8944 16.4807 23.7068 16.2931C23.5193 16.1056 23.265 16.0002 22.9997 16.0002Z" fill="#374957"/>
<path d="M1 8C1.26522 8 1.51957 7.89464 1.70711 7.70711C1.89464 7.51957 2 7.26522 2 7V5C2 4.20435 2.31607 3.44129 2.87868 2.87868C3.44129 2.31607 4.20435 2 5 2H7C7.26522 2 7.51957 1.89464 7.70711 1.70711C7.89464 1.51957 8 1.26522 8 1C8 0.734784 7.89464 0.48043 7.70711 0.292893C7.51957 0.105357 7.26522 0 7 0L5 0C3.67441 0.00158786 2.40356 0.528882 1.46622 1.46622C0.528882 2.40356 0.00158786 3.67441 0 5L0 7C0 7.26522 0.105357 7.51957 0.292893 7.70711C0.48043 7.89464 0.734784 8 1 8Z" fill="#374957"/>
<path d="M7 22.0002H5C4.20435 22.0002 3.44129 21.6842 2.87868 21.1216C2.31607 20.5589 2 19.7959 2 19.0002V17.0002C2 16.735 1.89464 16.4807 1.70711 16.2931C1.51957 16.1056 1.26522 16.0002 1 16.0002C0.734784 16.0002 0.48043 16.1056 0.292893 16.2931C0.105357 16.4807 0 16.735 0 17.0002L0 19.0002C0.00158786 20.3258 0.528882 21.5967 1.46622 22.534C2.40356 23.4713 3.67441 23.9986 5 24.0002H7C7.26522 24.0002 7.51957 23.8949 7.70711 23.7073C7.89464 23.5198 8 23.2654 8 23.0002C8 22.735 7.89464 22.4807 7.70711 22.2931C7.51957 22.1056 7.26522 22.0002 7 22.0002Z" fill="#374957"/>
<path d="M18.9998 0H16.9998C16.7345 0 16.4802 0.105357 16.2926 0.292893C16.1051 0.48043 15.9998 0.734784 15.9998 1C15.9998 1.26522 16.1051 1.51957 16.2926 1.70711C16.4802 1.89464 16.7345 2 16.9998 2H18.9998C19.7954 2 20.5585 2.31607 21.1211 2.87868C21.6837 3.44129 21.9997 4.20435 21.9997 5V7C21.9997 7.26522 22.1051 7.51957 22.2926 7.70711C22.4802 7.89464 22.7345 8 22.9997 8C23.265 8 23.5193 7.89464 23.7068 7.70711C23.8944 7.51957 23.9997 7.26522 23.9997 7V5C23.9982 3.67441 23.4709 2.40356 22.5335 1.46622C21.5962 0.528882 20.3253 0.00158786 18.9998 0V0Z" fill="#374957"/>
</g>
<defs>
<clipPath id="clip0_806_6108">
<rect width="24" height="24" fill="white"/>
</clipPath>
</defs>
</svg>
