<svg width="24" height="24" viewBox="0 0 24 24" fill="none" xmlns="http://www.w3.org/2000/svg">
<g clip-path="url(#clip0_806_5919)">
<path d="M18.4003 7.37889C18.2194 7.32729 18.0543 7.23128 17.92 7.09959C17.7857 6.9679 17.6865 6.80472 17.6313 6.62489C17.3251 5.58693 16.8115 4.6219 16.1215 3.78818C15.4315 2.95447 14.5796 2.2694 13.6172 1.77445C12.6549 1.27949 11.6021 0.984934 10.5226 0.908599C9.4431 0.832265 8.35935 0.975741 7.33691 1.33034C6.31447 1.68495 5.3746 2.24331 4.57418 2.97163C3.77377 3.69996 3.12944 4.58311 2.68019 5.56764C2.23095 6.55218 1.98612 7.61762 1.96053 8.6995C1.93494 9.78139 2.12912 10.8572 2.53132 11.8619C2.62371 12.0733 2.64361 12.3094 2.5879 12.5333C2.53219 12.7572 2.40401 12.9564 2.22332 13.0999C1.42705 13.6909 0.805363 14.4862 0.424069 15.4015C0.0427744 16.3169 -0.0839466 17.3184 0.0573177 18.2999C0.277771 19.6268 0.966642 20.8306 1.9989 21.693C3.03116 22.5553 4.33838 23.019 5.68332 22.9999H11.0003C11.2655 22.9999 11.5199 22.8945 11.7074 22.707C11.895 22.5195 12.0003 22.2651 12.0003 21.9999C12.0003 21.7347 11.895 21.4803 11.7074 21.2928C11.5199 21.1052 11.2655 20.9999 11.0003 20.9999H5.68332C4.8196 21.0208 3.97695 20.7317 3.30808 20.1848C2.63921 19.6379 2.18839 18.8696 2.03732 18.0189C1.94151 17.3936 2.01916 16.7541 2.26179 16.1699C2.50442 15.5857 2.90273 15.0793 3.41332 14.7059C3.94964 14.3051 4.3376 13.7374 4.51625 13.0921C4.69491 12.4468 4.65413 11.7605 4.40032 11.1409C3.89847 9.81559 3.87267 8.35711 4.32732 7.01489C4.69052 5.96346 5.3409 5.03477 6.2048 4.334C7.0687 3.63323 8.11159 3.18839 9.21532 3.04989C9.47134 3.01693 9.72919 3.00023 9.98732 2.99989C11.2804 2.99562 12.54 3.41032 13.5777 4.18188C14.6153 4.95344 15.3751 6.04036 15.7433 7.27989C15.887 7.75226 16.146 8.18146 16.4969 8.52884C16.8478 8.87623 17.2795 9.13089 17.7533 9.26989C18.9128 9.61281 19.9399 10.3018 20.697 11.2445C21.4542 12.1873 21.9052 13.3388 21.9898 14.545C22.0745 15.7511 21.7886 16.9544 21.1705 17.9936C20.5524 19.0328 19.6316 19.8584 18.5313 20.3599C18.3685 20.4433 18.2324 20.5707 18.1385 20.7277C18.0446 20.8847 17.9967 21.065 18.0003 21.2479C17.9984 21.4134 18.038 21.5767 18.1156 21.7228C18.1932 21.869 18.3063 21.9933 18.4445 22.0844C18.5826 22.1755 18.7415 22.2304 18.9064 22.2441C19.0713 22.2578 19.237 22.2299 19.3883 22.1629C23.5223 20.1759 25.7683 14.9489 22.2683 9.89889C21.3046 8.64181 19.9396 7.75251 18.4003 7.37889Z" fill="#374957"/>
<path d="M18.7072 16.707C18.8946 16.5194 19 16.2651 19 16C19 15.7348 18.8946 15.4805 18.7072 15.293L17.1212 13.707C16.5586 13.1446 15.7957 12.8286 15.0002 12.8286C14.2047 12.8286 13.4417 13.1446 12.8792 13.707L11.2932 15.293C11.111 15.4816 11.0102 15.7342 11.0125 15.9964C11.0148 16.2586 11.1199 16.5094 11.3053 16.6948C11.4908 16.8802 11.7416 16.9854 12.0038 16.9876C12.266 16.9899 12.5186 16.8891 12.7072 16.707L14.0002 15.414V23C14.0002 23.2652 14.1055 23.5195 14.2931 23.7071C14.4806 23.8946 14.7349 24 15.0002 24C15.2654 24 15.5197 23.8946 15.7073 23.7071C15.8948 23.5195 16.0002 23.2652 16.0002 23V15.414L17.2932 16.707C17.4807 16.8944 17.735 16.9998 18.0002 16.9998C18.2653 16.9998 18.5196 16.8944 18.7072 16.707Z" fill="#374957"/>
</g>
<defs>
<clipPath id="clip0_806_5919">
<rect width="24" height="24" fill="white"/>
</clipPath>
</defs>
</svg>
