<svg width="24" height="24" viewBox="0 0 24 24" fill="none" xmlns="http://www.w3.org/2000/svg">
<g clip-path="url(#clip0_806_6236)">
<path d="M19.9999 0.0102925C16.1879 0.0102925 11.8749 2.04829 8.46089 5.46129C5.02759 8.86512 2.26672 12.8857 0.322888 17.3123C0.00505099 18.0476 -0.0837577 18.8616 0.0680517 19.6481C0.219861 20.4346 0.605237 21.1571 1.17389 21.7213L2.27989 22.8263C2.84299 23.3936 3.56384 23.7783 4.34861 23.9303C5.13337 24.0822 5.94571 23.9944 6.67989 23.6783C11.1092 21.7373 15.1313 18.9757 18.5339 15.5393C21.9519 12.1263 23.9899 7.81329 23.9899 4.00029C24.0461 3.4625 23.9816 2.91894 23.8009 2.40929C23.6203 1.89963 23.3281 1.43674 22.9458 1.05439C22.5634 0.672042 22.1005 0.37989 21.5909 0.199256C21.0812 0.0186213 20.5377 -0.045937 19.9999 0.0102925ZM17.1249 14.1253C13.9028 17.3813 10.0943 19.9989 5.89989 21.8403C5.56638 21.9769 5.20223 22.0211 4.84572 21.9683C4.4892 21.9155 4.1535 21.7677 3.87389 21.5403L16.7069 8.70729C16.8024 8.61505 16.8786 8.5047 16.931 8.3827C16.9834 8.26069 17.011 8.12947 17.0121 7.99669C17.0133 7.86391 16.988 7.73223 16.9377 7.60934C16.8874 7.48644 16.8132 7.37479 16.7193 7.2809C16.6254 7.187 16.5137 7.11275 16.3908 7.06247C16.2679 7.01219 16.1363 6.98689 16.0035 6.98804C15.8707 6.9892 15.7395 7.01678 15.6175 7.06919C15.4955 7.1216 15.3851 7.19778 15.2929 7.29329L2.45689 20.1293C2.22923 19.8494 2.08121 19.5134 2.02842 19.1565C1.97563 18.7996 2.02 18.4351 2.15689 18.1013C4.00098 13.9074 6.6194 10.0988 9.87489 6.87529C13.4629 3.28829 17.4579 2.01029 19.9999 2.01029C21.4509 2.01029 21.9899 2.54929 21.9899 4.00029C21.9899 6.54329 20.7119 10.5383 17.1249 14.1253Z" fill="#374957"/>
</g>
<defs>
<clipPath id="clip0_806_6236">
<rect width="24" height="24" fill="white"/>
</clipPath>
</defs>
</svg>
