<svg width="24" height="24" viewBox="0 0 24 24" fill="none" xmlns="http://www.w3.org/2000/svg">
<g clip-path="url(#clip0_806_6039)">
<path d="M19.7999 4.41934C18.6275 2.83074 17.0457 1.5904 15.2233 0.830769C13.401 0.0711395 11.4065 -0.17925 9.4529 0.10634C7.55274 0.376489 5.75634 1.1391 4.24215 2.31841C2.72795 3.49772 1.54867 5.05269 0.821445 6.82884C0.0942225 8.60499 -0.155627 10.5405 0.0967171 12.4431C0.349061 14.3457 1.09482 16.1492 2.2599 17.6743C2.75596 18.358 3.01574 19.1848 2.9999 20.0293V21.0003C2.9999 21.796 3.31597 22.5591 3.87858 23.1217C4.44119 23.6843 5.20425 24.0003 5.9999 24.0003H12.9999C13.7955 24.0003 14.5586 23.6843 15.1212 23.1217C15.6838 22.5591 15.9999 21.796 15.9999 21.0003H16.4939C17.7057 20.9974 18.8755 20.5557 19.7868 19.7569C20.698 18.9581 21.2892 17.8563 21.4509 16.6553L21.6699 15.0003H21.9999C22.2641 15.0059 22.5266 14.958 22.7718 14.8595C23.017 14.761 23.2397 14.6138 23.4266 14.427C23.6134 14.2402 23.7605 14.0174 23.859 13.7723C23.9576 13.5271 24.0055 13.2645 23.9999 13.0003C23.9999 11.5803 21.0679 5.98534 19.7999 4.41934ZM20.7929 13.0003C20.5504 13.0004 20.3163 13.0886 20.134 13.2485C19.9517 13.4083 19.8337 13.629 19.8019 13.8693L19.4679 16.3943C19.3708 17.1147 19.016 17.7756 18.4693 18.2547C17.9225 18.7338 17.2208 18.9986 16.4939 19.0003H14.9999C14.7347 19.0003 14.4803 19.1057 14.2928 19.2932C14.1053 19.4808 13.9999 19.7351 13.9999 20.0003V21.0003C13.9999 21.2656 13.8945 21.5199 13.707 21.7074C13.5195 21.895 13.2651 22.0003 12.9999 22.0003H5.9999C5.73468 22.0003 5.48033 21.895 5.29279 21.7074C5.10525 21.5199 4.9999 21.2656 4.9999 21.0003V20.0293C5.01501 18.7455 4.6109 17.4917 3.8489 16.4583C2.89676 15.2111 2.28725 13.7366 2.08083 12.1811C1.87441 10.6256 2.07826 9.04319 2.67216 7.59079C3.26606 6.1384 4.22936 4.86651 5.46651 3.9013C6.70366 2.93609 8.17166 2.31111 9.7249 2.08834C10.149 2.02946 10.5767 2.00006 11.0049 2.00034C12.41 1.99845 13.7959 2.32776 15.0499 2.96158C16.304 3.5954 17.3911 4.51587 18.2229 5.64834C19.8023 7.92073 21.0724 10.3931 21.9999 13.0003H20.7929ZM16.1999 8.01134C16.1345 7.89737 16.0472 7.7974 15.9432 7.71717C15.8391 7.63693 15.7202 7.57799 15.5934 7.54372C15.4665 7.50945 15.3341 7.50052 15.2038 7.51744C15.0735 7.53436 14.9478 7.57681 14.8339 7.64234L13.8519 8.20634C13.3426 7.69012 12.7024 7.3223 11.9999 7.14234V6.00034C11.9999 5.73512 11.8945 5.48077 11.707 5.29323C11.5195 5.1057 11.2651 5.00034 10.9999 5.00034C10.7347 5.00034 10.4803 5.1057 10.2928 5.29323C10.1053 5.48077 9.9999 5.73512 9.9999 6.00034V7.14234C9.29634 7.3218 8.65502 7.68965 8.1449 8.20634L7.1629 7.64234C7.04904 7.57668 6.92337 7.53409 6.79305 7.51699C6.66273 7.4999 6.53033 7.50865 6.40339 7.54272C6.27645 7.5768 6.15747 7.63555 6.05324 7.71561C5.949 7.79568 5.86156 7.89548 5.7959 8.00934C5.73024 8.1232 5.68764 8.24887 5.67055 8.37919C5.65346 8.5095 5.6622 8.64191 5.69628 8.76885C5.73036 8.89579 5.78911 9.01477 5.86917 9.119C5.94923 9.22324 6.04904 9.31068 6.1629 9.37634L7.1559 9.94734C7.05648 10.2897 7.004 10.6439 6.9999 11.0003C7.00497 11.3569 7.05846 11.7112 7.1589 12.0533L6.1659 12.6243C5.93595 12.7569 5.76811 12.9755 5.69928 13.2318C5.63046 13.4882 5.66629 13.7614 5.7989 13.9913C5.93151 14.2213 6.15003 14.3891 6.40639 14.458C6.66275 14.5268 6.93595 14.4909 7.1659 14.3583L8.1479 13.7943C8.65719 14.3106 9.29742 14.6784 9.9999 14.8583V16.0003C9.9999 16.2656 10.1053 16.5199 10.2928 16.7074C10.4803 16.895 10.7347 17.0003 10.9999 17.0003C11.2651 17.0003 11.5195 16.895 11.707 16.7074C11.8945 16.5199 11.9999 16.2656 11.9999 16.0003V14.8583C12.7034 14.6789 13.3448 14.311 13.8549 13.7943L14.8369 14.3583C14.9508 14.424 15.0764 14.4666 15.2067 14.4837C15.3371 14.5008 15.4695 14.492 15.5964 14.458C15.7233 14.4239 15.8423 14.3651 15.9466 14.2851C16.0508 14.205 16.1382 14.1052 16.2039 13.9913C16.2696 13.8775 16.3122 13.7518 16.3292 13.6215C16.3463 13.4912 16.3376 13.3588 16.3035 13.2318C16.2694 13.1049 16.2107 12.9859 16.1306 12.8817C16.0506 12.7774 15.9508 12.69 15.8369 12.6243L14.8439 12.0533C14.9433 11.711 14.9958 11.3568 14.9999 11.0003C14.9948 10.6438 14.9413 10.2895 14.8409 9.94734L15.8339 9.37634C16.0633 9.24373 16.2307 9.0255 16.2993 8.76956C16.3679 8.51363 16.3322 8.24093 16.1999 8.01134ZM10.9999 13.0003C10.6043 13.0003 10.2177 12.883 9.88876 12.6633C9.55986 12.4435 9.30351 12.1312 9.15214 11.7657C9.00076 11.4003 8.96116 10.9981 9.03833 10.6102C9.1155 10.2222 9.30598 9.86583 9.58568 9.58613C9.86539 9.30642 10.2218 9.11594 10.6097 9.03877C10.9977 8.9616 11.3998 9.00121 11.7653 9.15258C12.1307 9.30396 12.4431 9.5603 12.6628 9.8892C12.8826 10.2181 12.9999 10.6048 12.9999 11.0003C12.9999 11.5308 12.7892 12.0395 12.4141 12.4146C12.039 12.7896 11.5303 13.0003 10.9999 13.0003Z" fill="#374957"/>
</g>
<defs>
<clipPath id="clip0_806_6039">
<rect width="24" height="24" fill="white"/>
</clipPath>
</defs>
</svg>
