<svg width="24" height="24" viewBox="0 0 24 24" fill="none" xmlns="http://www.w3.org/2000/svg">
<g clip-path="url(#clip0_806_5998)">
<path d="M19.9492 5.53651L16.4652 2.05051C15.8166 1.39865 15.0451 0.881842 14.1955 0.529971C13.3458 0.178099 12.4349 -0.0018556 11.5152 0.00051133H7.00024C5.67465 0.00209919 4.4038 0.529393 3.46646 1.46673C2.52913 2.40407 2.00183 3.67492 2.00024 5.00051V19.0005C2.00183 20.3261 2.52913 21.597 3.46646 22.5343C4.4038 23.4716 5.67465 23.9989 7.00024 24.0005H17.0002C18.3258 23.9989 19.5967 23.4716 20.534 22.5343C21.4714 21.597 21.9987 20.3261 22.0002 19.0005V10.4855C22.0027 9.56593 21.8227 8.655 21.4707 7.80549C21.1186 6.95597 20.6015 6.18475 19.9492 5.53651ZM18.5352 6.95051C18.8406 7.26466 19.1032 7.6177 19.3162 8.00051H15.0002C14.735 8.00051 14.4807 7.89515 14.2931 7.70762C14.1056 7.52008 14.0002 7.26573 14.0002 7.00051V2.68451C14.3832 2.89744 14.7365 3.15967 15.0512 3.46451L18.5352 6.95051ZM20.0002 19.0005C20.0002 19.7962 19.6842 20.5592 19.1216 21.1218C18.559 21.6844 17.7959 22.0005 17.0002 22.0005H7.00024C6.20459 22.0005 5.44153 21.6844 4.87892 21.1218C4.31631 20.5592 4.00024 19.7962 4.00024 19.0005V5.00051C4.00024 4.20486 4.31631 3.4418 4.87892 2.87919C5.44153 2.31658 6.20459 2.00051 7.00024 2.00051H11.5152C11.6792 2.00051 11.8382 2.03251 12.0002 2.04751V7.00051C12.0002 7.79616 12.3163 8.55922 12.8789 9.12183C13.4415 9.68444 14.2046 10.0005 15.0002 10.0005H19.9532C19.9682 10.1625 20.0002 10.3205 20.0002 10.4855V19.0005Z" fill="#374957"/>
</g>
<defs>
<clipPath id="clip0_806_5998">
<rect width="24" height="24" fill="white"/>
</clipPath>
</defs>
</svg>
