<svg width="24" height="24" viewBox="0 0 24 24" fill="none" xmlns="http://www.w3.org/2000/svg">
<g clip-path="url(#clip0_806_5839)">
<path d="M0.880046 14.0899L4.75005 17.9999C4.84301 18.0936 4.95361 18.168 5.07547 18.2188C5.19733 18.2696 5.32803 18.2957 5.46005 18.2957C5.59206 18.2957 5.72276 18.2696 5.84462 18.2188C5.96648 18.168 6.07708 18.0936 6.17005 17.9999C6.26377 17.9069 6.33817 17.7963 6.38894 17.6745C6.43971 17.5526 6.46584 17.4219 6.46584 17.2899C6.46584 17.1579 6.43971 17.0272 6.38894 16.9053C6.33817 16.7835 6.26377 16.6729 6.17005 16.5799L2.61005 12.9999H23C23.2653 12.9999 23.5196 12.8945 23.7072 12.707C23.8947 12.5195 24 12.2651 24 11.9999C24 11.7347 23.8947 11.4803 23.7072 11.2928C23.5196 11.1053 23.2653 10.9999 23 10.9999H2.55005L6.17005 7.3799C6.34734 7.19392 6.44624 6.94684 6.44624 6.6899C6.44624 6.43296 6.34734 6.18588 6.17005 5.9999C6.07708 5.90617 5.96648 5.83178 5.84462 5.78101C5.72276 5.73024 5.59206 5.7041 5.46005 5.7041C5.32803 5.7041 5.19733 5.73024 5.07547 5.78101C4.95361 5.83178 4.84301 5.90617 4.75005 5.9999L0.880046 9.8499C0.318244 10.4124 0.00268555 11.1749 0.00268555 11.9699C0.00268555 12.7649 0.318244 13.5274 0.880046 14.0899Z" fill="#374957"/>
</g>
<defs>
<clipPath id="clip0_806_5839">
<rect width="24" height="24" fill="white"/>
</clipPath>
</defs>
</svg>
