<svg width="24" height="24" viewBox="0 0 24 24" fill="none" xmlns="http://www.w3.org/2000/svg">
<g clip-path="url(#clip0_806_6290)">
<path d="M16.9999 24C15.6154 24 14.2621 23.5895 13.1109 22.8203C11.9598 22.0511 11.0626 20.9579 10.5328 19.6788C10.0029 18.3997 9.86432 16.9922 10.1344 15.6344C10.4045 14.2765 11.0712 13.0292 12.0502 12.0503C13.0291 11.0713 14.2764 10.4046 15.6343 10.1345C16.9922 9.86441 18.3996 10.003 19.6787 10.5328C20.9578 11.0627 22.051 11.9599 22.8202 13.111C23.5894 14.2622 23.9999 15.6155 23.9999 17C23.9978 18.8559 23.2596 20.6351 21.9473 21.9474C20.635 23.2597 18.8558 23.9979 16.9999 24ZM16.9999 12C16.011 12 15.0443 12.2932 14.2221 12.8427C13.3998 13.3921 12.759 14.173 12.3805 15.0866C12.0021 16.0002 11.9031 17.0056 12.096 17.9755C12.2889 18.9454 12.7651 19.8363 13.4644 20.5355C14.1636 21.2348 15.0546 21.711 16.0245 21.9039C16.9944 22.0969 17.9997 21.9978 18.9133 21.6194C19.827 21.241 20.6079 20.6001 21.1573 19.7779C21.7067 18.9556 21.9999 17.9889 21.9999 17C21.9983 15.6744 21.471 14.4036 20.5337 13.4662C19.5964 12.5289 18.3255 12.0016 16.9999 12ZM18.7069 18.707C18.8944 18.5195 18.9997 18.2652 18.9997 18C18.9997 17.7348 18.8944 17.4805 18.7069 17.293L17.9999 16.586V15C17.9999 14.7348 17.8946 14.4804 17.707 14.2929C17.5195 14.1054 17.2651 14 16.9999 14C16.7347 14 16.4803 14.1054 16.2928 14.2929C16.1053 14.4804 15.9999 14.7348 15.9999 15V17C16 17.2652 16.1054 17.5195 16.2929 17.707L17.2929 18.707C17.4804 18.8945 17.7348 18.9998 17.9999 18.9998C18.2651 18.9998 18.5194 18.8945 18.7069 18.707ZM1.99992 23C2.00244 21.1626 2.61459 19.378 3.74041 17.9258C4.86623 16.4737 6.44207 15.4362 8.22092 14.976C8.34909 14.947 8.47029 14.893 8.57759 14.8171C8.6849 14.7413 8.77621 14.645 8.84632 14.5339C8.91643 14.4227 8.96396 14.2988 8.9862 14.1693C9.00843 14.0398 9.00494 13.9072 8.97592 13.779C8.94689 13.6508 8.89291 13.5296 8.81705 13.4223C8.74119 13.315 8.64493 13.2237 8.53378 13.1536C8.42263 13.0835 8.29876 13.036 8.16924 13.0137C8.03972 12.9915 7.90709 12.995 7.77892 13.024C5.54995 13.5709 3.57018 14.8527 2.15889 16.6626C0.747596 18.4725 -0.0129468 20.705 -8.36169e-05 23C-8.36169e-05 23.2652 0.105273 23.5196 0.29281 23.7071C0.480346 23.8946 0.7347 24 0.999916 24C1.26513 24 1.51949 23.8946 1.70702 23.7071C1.89456 23.5196 1.99992 23.2652 1.99992 23ZM8.47392 11C7.38612 11 6.32275 10.6774 5.41828 10.0731C4.51381 9.46874 3.80886 8.60976 3.39258 7.60476C2.9763 6.59977 2.86738 5.4939 3.0796 4.42701C3.29182 3.36011 3.81564 2.3801 4.58483 1.61092C5.35402 0.841726 6.33402 0.317902 7.40092 0.105683C8.46782 -0.106535 9.57368 0.00238308 10.5787 0.418665C11.5837 0.834947 12.4427 1.5399 13.047 2.44437C13.6513 3.34884 13.9739 4.41221 13.9739 5.5C13.9723 6.95821 13.3924 8.35623 12.3612 9.38734C11.3301 10.4184 9.93212 10.9984 8.47392 11ZM8.47392 2C7.78168 2 7.10499 2.20527 6.52942 2.58986C5.95385 2.97444 5.50525 3.52107 5.24034 4.16061C4.97543 4.80015 4.90612 5.50389 5.04117 6.18282C5.17622 6.86175 5.50956 7.48539 5.99904 7.97488C6.48853 8.46436 7.11217 8.7977 7.7911 8.93275C8.47003 9.0678 9.17377 8.99849 9.81331 8.73358C10.4528 8.46868 10.9995 8.02007 11.3841 7.4445C11.7686 6.86893 11.9739 6.19224 11.9739 5.5C11.9739 4.57175 11.6052 3.68151 10.9488 3.02513C10.2924 2.36875 9.40217 2 8.47392 2Z" fill="#374957"/>
</g>
<defs>
<clipPath id="clip0_806_6290">
<rect width="24" height="24" fill="white"/>
</clipPath>
</defs>
</svg>
