<svg width="24" height="24" viewBox="0 0 24 24" fill="none" xmlns="http://www.w3.org/2000/svg">
<g clip-path="url(#clip0_806_6258)">
<path d="M21 15C20.2044 15 19.4413 15.3161 18.8787 15.8787C18.3161 16.4413 18 17.2044 18 18V21C18 21.7956 18.3161 22.5587 18.8787 23.1213C19.4413 23.6839 20.2044 24 21 24C21.7956 24 22.5587 23.6839 23.1213 23.1213C23.6839 22.5587 24 21.7956 24 21V18C24 17.2044 23.6839 16.4413 23.1213 15.8787C22.5587 15.3161 21.7956 15 21 15ZM22 21C22 21.2652 21.8946 21.5196 21.7071 21.7071C21.5196 21.8946 21.2652 22 21 22C20.7348 22 20.4804 21.8946 20.2929 21.7071C20.1054 21.5196 20 21.2652 20 21V18C20 17.7348 20.1054 17.4804 20.2929 17.2929C20.4804 17.1054 20.7348 17 21 17C21.2652 17 21.5196 17.1054 21.7071 17.2929C21.8946 17.4804 22 17.7348 22 18V21Z" fill="#374957"/>
<path d="M12.9998 12V7C12.9998 6.73478 12.8944 6.48043 12.7069 6.29289C12.5193 6.10536 12.265 6 11.9998 6C11.7345 6 11.4802 6.10536 11.2926 6.29289C11.1051 6.48043 10.9998 6.73478 10.9998 7V11H7.99976C7.73454 11 7.48019 11.1054 7.29265 11.2929C7.10511 11.4804 6.99976 11.7348 6.99976 12C6.99976 12.2652 7.10511 12.5196 7.29265 12.7071C7.48019 12.8946 7.73454 13 7.99976 13H11.9998C12.265 13 12.5193 12.8946 12.7069 12.7071C12.8944 12.5196 12.9998 12.2652 12.9998 12Z" fill="#374957"/>
<path d="M23 2.00029C22.7348 2.00029 22.4805 2.10565 22.2929 2.29319C22.1054 2.48072 22 2.73508 22 3.00029V5.37429C20.9581 3.80187 19.5602 2.49721 17.9196 1.5662C16.2791 0.635177 14.4422 0.104017 12.558 0.0158131C10.6737 -0.072391 8.79521 0.284846 7.07488 1.05854C5.35454 1.83223 3.84083 3.00058 2.65656 4.4688C1.4723 5.93701 0.650831 7.66373 0.25882 9.50885C-0.133191 11.354 -0.0847046 13.2655 0.400345 15.0884C0.885395 16.9113 1.79334 18.5941 3.05052 20.0004C4.3077 21.4067 5.8787 22.4968 7.63605 23.1823C7.75218 23.2271 7.87557 23.2501 8.00005 23.2503C8.23341 23.2507 8.45954 23.1694 8.6393 23.0206C8.81905 22.8718 8.9411 22.6648 8.9843 22.4354C9.02751 22.2061 8.98915 21.9689 8.87588 21.7649C8.7626 21.5609 8.58154 21.4029 8.36405 21.3183C6.87207 20.7414 5.54027 19.815 4.48043 18.6168C3.42059 17.4187 2.66366 15.9837 2.27316 14.4325C1.88265 12.8813 1.86999 11.259 2.23622 9.70183C2.60245 8.14469 3.33689 6.69812 4.37789 5.48357C5.41889 4.26901 6.73607 3.32191 8.21886 2.72177C9.70164 2.12162 11.3068 1.88595 12.8995 2.03454C14.4922 2.18312 16.026 2.71163 17.3722 3.57569C18.7184 4.43974 19.8377 5.61414 20.636 7.00029H18C17.7348 7.00029 17.4805 7.10565 17.2929 7.29319C17.1054 7.48072 17 7.73508 17 8.00029C17 8.26551 17.1054 8.51986 17.2929 8.7074C17.4805 8.89494 17.7348 9.00029 18 9.00029H21C21.7957 9.00029 22.5588 8.68422 23.1214 8.12161C23.684 7.559 24 6.79594 24 6.00029V3.00029C24 2.73508 23.8947 2.48072 23.7072 2.29319C23.5196 2.10565 23.2653 2.00029 23 2.00029Z" fill="#374957"/>
<path d="M15.3832 15.0755C15.2004 14.9998 14.9993 14.98 14.8052 15.0186C14.6112 15.0573 14.433 15.1526 14.2932 15.2925L11.2932 18.2925C11.111 18.4811 11.0102 18.7337 11.0125 18.9959C11.0148 19.2581 11.1199 19.5089 11.3053 19.6943C11.4908 19.8797 11.7416 19.9849 12.0038 19.9872C12.266 19.9895 12.5186 19.8887 12.7072 19.7065L14.0002 18.4135V22.9995C14.0002 23.2647 14.1055 23.5191 14.2931 23.7066C14.4806 23.8942 14.7349 23.9995 15.0002 23.9995C15.2654 23.9995 15.5197 23.8942 15.7073 23.7066C15.8948 23.5191 16.0002 23.2647 16.0002 22.9995V15.9995C16.0002 15.8017 15.9416 15.6084 15.8318 15.4439C15.722 15.2795 15.5658 15.1513 15.3832 15.0755Z" fill="#374957"/>
</g>
<defs>
<clipPath id="clip0_806_6258">
<rect width="24" height="24" fill="white"/>
</clipPath>
</defs>
</svg>
