<svg width="24" height="24" viewBox="0 0 24 24" fill="none" xmlns="http://www.w3.org/2000/svg">
<g clip-path="url(#clip0_806_5915)">
<path d="M11.6919 22.9999C11.2978 23.0009 10.9074 22.9237 10.5434 22.7728C10.1793 22.6219 9.84877 22.4003 9.57092 22.1209L6.18392 18.6999C6.07722 18.6105 5.99037 18.4998 5.92892 18.3748C5.86747 18.2499 5.83277 18.1136 5.82705 17.9745C5.82133 17.8354 5.8447 17.6967 5.89569 17.5671C5.94667 17.4376 6.02414 17.3201 6.12313 17.2223C6.22211 17.1244 6.34045 17.0483 6.47055 16.9988C6.60065 16.9493 6.73965 16.9275 6.87866 16.9348C7.01767 16.9421 7.15363 16.9783 7.27783 17.0412C7.40202 17.104 7.51173 17.1922 7.59992 17.2999L10.9839 20.7139C11.1744 20.8946 11.4269 20.9953 11.6894 20.9953C11.9519 20.9953 12.2045 20.8946 12.3949 20.7139L17.8089 15.2999C17.9964 15.1122 18.2508 15.0067 18.5161 15.0067C18.7813 15.0066 19.0358 15.1118 19.2234 15.2994C19.4111 15.4869 19.5165 15.7412 19.5166 16.0065C19.5167 16.2718 19.4114 16.5262 19.2239 16.7139L13.8089 22.1279C13.5311 22.4058 13.201 22.6259 12.8376 22.7756C12.4743 22.9253 12.0849 23.0015 11.6919 22.9999ZM6.99992 21.9999C6.99992 21.7346 6.89456 21.4803 6.70702 21.2927C6.51949 21.1052 6.26513 20.9999 5.99992 20.9999H5.68292C4.82888 20.9835 4.00512 20.6806 3.34391 20.1398C2.6827 19.599 2.2224 18.8517 2.03692 18.0179C1.92826 17.3013 2.04683 16.5687 2.37596 15.923C2.70509 15.2773 3.22824 14.7509 3.87192 14.4179C4.33041 14.164 4.67055 13.7399 4.81876 13.2373C4.96698 12.7346 4.91135 12.1938 4.66392 11.7319C4.27563 10.9913 4.04641 10.1778 3.99097 9.34344C3.93554 8.50911 4.0551 7.6724 4.342 6.88699C4.6289 6.10158 5.0768 5.3848 5.65696 4.78265C6.23712 4.18049 6.93675 3.70625 7.71094 3.39034C8.48514 3.07443 9.31682 2.92383 10.1526 2.9482C10.9885 2.97257 11.81 3.17137 12.5644 3.53185C13.3189 3.89233 13.9897 4.40654 14.5338 5.04147C15.0779 5.67641 15.4833 6.41806 15.7239 7.21886C15.8717 7.70164 16.1351 8.14102 16.4913 8.49881C16.8476 8.8566 17.2858 9.12197 17.7679 9.27186C19.0746 9.6692 20.2055 10.5025 20.9722 11.6327C21.7389 12.763 22.0949 14.1219 21.9809 15.4829C21.8658 16.6649 21.3933 17.7838 20.6263 18.6906C19.8594 19.5974 18.8344 20.2491 17.6879 20.5589C17.439 20.6441 17.2338 20.8239 17.1165 21.0594C16.9993 21.2949 16.9796 21.5671 17.0617 21.817C17.1438 22.0669 17.321 22.2744 17.555 22.3946C17.7891 22.5147 18.061 22.5378 18.3119 22.4589C19.9506 21.9912 21.3929 21.0035 22.4213 19.6447C23.4498 18.2859 24.0086 16.6295 24.0136 14.9254C24.0185 13.2213 23.4694 11.5617 22.4489 10.1969C21.4284 8.83211 19.9919 7.83604 18.3559 7.35886C18.1843 7.30538 18.0286 7.21029 17.9026 7.08205C17.7766 6.95381 17.6843 6.7964 17.6339 6.62386C17.1048 4.92348 16.0234 3.44826 14.5611 2.43189C13.0988 1.41553 11.3392 0.916117 9.56103 1.01277C7.78284 1.10943 6.08774 1.79663 4.74423 2.96552C3.40073 4.1344 2.48564 5.71814 2.14392 7.46586C1.79247 9.23286 2.07577 11.0672 2.94392 12.6459C1.93168 13.1678 1.10866 13.9941 0.590751 15.0084C0.0728397 16.0227 -0.113869 17.1739 0.0569165 18.2999C0.317568 19.6077 1.01773 20.787 2.04113 21.6419C3.06454 22.4969 4.3496 22.9761 5.68292 22.9999H5.99992C6.26513 22.9999 6.51949 22.8945 6.70702 22.707C6.89456 22.5194 6.99992 22.2651 6.99992 21.9999Z" fill="#374957"/>
</g>
<defs>
<clipPath id="clip0_806_5915">
<rect width="24" height="24" fill="white"/>
</clipPath>
</defs>
</svg>
