<svg width="24" height="24" viewBox="0 0 24 24" fill="none" xmlns="http://www.w3.org/2000/svg">
<g clip-path="url(#clip0_806_6196)">
<path d="M19.989 12.0005H18.653C17.69 9.73358 16.2074 7.72486 14.325 6.13649C13.4278 5.40292 12.3049 5.00164 11.146 5.00049H8.818L8.11 2.31549C8.00593 1.92087 7.82515 1.55061 7.57798 1.22585C7.33082 0.901095 7.0221 0.628201 6.66947 0.422752C6.31684 0.217302 5.9272 0.0833199 5.52279 0.028455C5.11838 -0.0264099 4.70712 -0.00108297 4.3125 0.10299C3.91788 0.207062 3.54762 0.387842 3.22286 0.635008C2.89811 0.882174 2.62521 1.19089 2.41976 1.54352C2.21431 1.89615 2.08033 2.28579 2.02547 2.6902C1.9706 3.09461 1.99593 3.50587 2.1 3.90049L2.394 5.00049H1C0.734784 5.00049 0.48043 5.10585 0.292893 5.29338C0.105357 5.48092 0 5.73527 0 6.00049C0 6.26571 0.105357 6.52006 0.292893 6.7076C0.48043 6.89513 0.734784 7.00049 1 7.00049H11.146C11.8438 7.00231 12.5195 7.24498 13.059 7.68749C14.4732 8.87807 15.626 10.3482 16.445 12.0055H15.625C15.0239 12.001 14.4351 12.1751 13.933 12.5055L11.949 13.8275C11.7871 13.938 11.5961 13.9982 11.4 14.0005H1C0.734784 14.0005 0.48043 14.1058 0.292893 14.2934C0.105357 14.4809 0 14.7353 0 15.0005C0 15.2657 0.105357 15.5201 0.292893 15.7076C0.48043 15.8951 0.734784 16.0005 1 16.0005H11.4C11.9919 16.0021 12.571 15.8281 13.064 15.5005L15.047 14.1785C15.2152 14.062 15.4166 14.0031 15.621 14.0105H19.99C20.3294 14.0093 20.6636 14.0945 20.961 14.258C21.2584 14.4216 21.5093 14.6582 21.69 14.9455C21.8734 15.2266 21.9811 15.5504 22.0027 15.8853C22.0242 16.2203 21.9589 16.5552 21.813 16.8575C21.0792 18.3961 19.9249 19.6956 18.4836 20.6058C17.0422 21.5159 15.3727 21.9994 13.668 22.0005H1C0.734784 22.0005 0.48043 22.1058 0.292893 22.2934C0.105357 22.4809 0 22.7353 0 23.0005C0 23.2657 0.105357 23.5201 0.292893 23.7076C0.48043 23.8951 0.734784 24.0005 1 24.0005H13.668C15.7517 23.9962 17.7917 23.4023 19.552 22.2875C21.3124 21.1726 22.7214 19.5824 23.616 17.7005C23.9025 17.0904 24.0301 16.4178 23.9871 15.7452C23.9441 15.0726 23.7318 14.4217 23.3699 13.8531C23.0081 13.2845 22.5085 12.8165 21.9174 12.4926C21.3263 12.1687 20.663 11.9994 19.989 12.0005ZM4.037 3.38849C3.97168 3.10794 4.01828 2.81298 4.16691 2.56624C4.31555 2.3195 4.5545 2.14041 4.83304 2.067C5.11158 1.99359 5.40777 2.03164 5.6587 2.17308C5.90964 2.31451 6.09557 2.54819 6.177 2.82449L6.75 5.00049H4.462L4.037 3.38849ZM0 10.0005C0 9.73527 0.105357 9.48092 0.292893 9.29338C0.48043 9.10585 0.734784 9.00049 1 9.00049H10C10.2652 9.00049 10.5196 9.10585 10.7071 9.29338C10.8946 9.48092 11 9.73527 11 10.0005C11 10.2657 10.8946 10.5201 10.7071 10.7076C10.5196 10.8951 10.2652 11.0005 10 11.0005H1C0.734784 11.0005 0.48043 10.8951 0.292893 10.7076C0.105357 10.5201 0 10.2657 0 10.0005ZM4 20.0005C3.80222 20.0005 3.60888 19.9418 3.44443 19.832C3.27998 19.7221 3.15181 19.5659 3.07612 19.3832C3.00043 19.2004 2.98063 18.9994 3.01922 18.8054C3.0578 18.6114 3.15304 18.4332 3.29289 18.2934C3.43275 18.1535 3.61093 18.0583 3.80491 18.0197C3.99889 17.9811 4.19996 18.0009 4.38268 18.0766C4.56541 18.1523 4.72159 18.2805 4.83147 18.4449C4.94135 18.6094 5 18.8027 5 19.0005C5 19.2657 4.89464 19.5201 4.70711 19.7076C4.51957 19.8951 4.26522 20.0005 4 20.0005ZM8 20.0005C7.80222 20.0005 7.60888 19.9418 7.44443 19.832C7.27998 19.7221 7.15181 19.5659 7.07612 19.3832C7.00043 19.2004 6.98063 18.9994 7.01922 18.8054C7.0578 18.6114 7.15304 18.4332 7.29289 18.2934C7.43275 18.1535 7.61093 18.0583 7.80491 18.0197C7.99889 17.9811 8.19996 18.0009 8.38268 18.0766C8.56541 18.1523 8.72159 18.2805 8.83147 18.4449C8.94135 18.6094 9 18.8027 9 19.0005C9 19.2657 8.89464 19.5201 8.70711 19.7076C8.51957 19.8951 8.26522 20.0005 8 20.0005ZM12 20.0005C11.8022 20.0005 11.6089 19.9418 11.4444 19.832C11.28 19.7221 11.1518 19.5659 11.0761 19.3832C11.0004 19.2004 10.9806 18.9994 11.0192 18.8054C11.0578 18.6114 11.153 18.4332 11.2929 18.2934C11.4327 18.1535 11.6109 18.0583 11.8049 18.0197C11.9989 17.9811 12.2 18.0009 12.3827 18.0766C12.5654 18.1523 12.7216 18.2805 12.8315 18.4449C12.9414 18.6094 13 18.8027 13 19.0005C13 19.2657 12.8946 19.5201 12.7071 19.7076C12.5196 19.8951 12.2652 20.0005 12 20.0005Z" fill="#374957"/>
</g>
<defs>
<clipPath id="clip0_806_6196">
<rect width="24" height="24" fill="white"/>
</clipPath>
</defs>
</svg>
