<svg width="24" height="24" viewBox="0 0 24 24" fill="none" xmlns="http://www.w3.org/2000/svg">
<g clip-path="url(#clip0_806_5901)">
<path d="M23.4132 18.24L15.5932 2.27497C15.2641 1.60271 14.7529 1.0363 14.1178 0.640129C13.4827 0.24396 12.7492 0.0339355 12.0007 0.0339355C11.2522 0.0339355 10.5187 0.24396 9.88362 0.640129C9.24854 1.0363 8.73736 1.60271 8.40821 2.27497L0.587209 18.24C0.288405 18.8498 0.149781 19.5257 0.184401 20.2039C0.21902 20.8821 0.425743 21.5403 0.78509 22.1166C1.14444 22.6928 1.64458 23.1681 2.23838 23.4976C2.83219 23.8271 3.50011 24 4.17921 24H19.8202C20.4994 24.0001 21.1674 23.8274 21.7614 23.4979C22.3553 23.1685 22.8556 22.6933 23.2151 22.117C23.5745 21.5407 23.7813 20.8824 23.816 20.2041C23.8507 19.5258 23.7121 18.8499 23.4132 18.24ZM19.6002 15H4.40021L6.85021 9.99997H17.1502L19.6002 15ZM10.2002 3.15497C10.3648 2.81898 10.6204 2.5359 10.9379 2.33791C11.2554 2.13992 11.622 2.03497 11.9962 2.03497C12.3704 2.03497 12.737 2.13992 13.0545 2.33791C13.372 2.5359 13.6276 2.81898 13.7922 3.15497L16.1692 7.99997H7.83021L10.2002 3.15497ZM21.5142 21.055C21.3369 21.346 21.087 21.5858 20.7889 21.751C20.4908 21.9162 20.1549 22.0009 19.8142 21.997H4.17921C3.83932 21.9977 3.50487 21.9117 3.20742 21.7472C2.90997 21.5828 2.65935 21.3452 2.47921 21.057C2.29906 20.7688 2.19535 20.4394 2.17785 20.0999C2.16036 19.7605 2.22966 19.4222 2.37921 19.117L3.42121 17H20.5782L21.6162 19.12C21.7694 19.4238 21.8409 19.7622 21.8237 20.1019C21.8065 20.4417 21.7013 20.7712 21.5182 21.058L21.5142 21.055Z" fill="#374957"/>
</g>
<defs>
<clipPath id="clip0_806_5901">
<rect width="24" height="24" fill="white"/>
</clipPath>
</defs>
</svg>
