<svg width="24" height="24" viewBox="0 0 24 24" fill="none" xmlns="http://www.w3.org/2000/svg">
<g clip-path="url(#clip0_806_5860)">
<path d="M10.0003 8.00007C10.3958 8.00007 10.7825 8.11737 11.1114 8.33713C11.4403 8.5569 11.6966 8.86925 11.848 9.2347C11.9994 9.60016 12.039 10.0023 11.9618 10.3903C11.8847 10.7782 11.6942 11.1346 11.4145 11.4143C11.1348 11.694 10.7784 11.8845 10.3904 11.9616C10.0025 12.0388 9.60035 11.9992 9.23489 11.8478C8.86944 11.6965 8.55708 11.4401 8.33732 11.1112C8.11756 10.7823 8.00026 10.3956 8.00026 10.0001C8.00026 9.46964 8.21097 8.96093 8.58605 8.58586C8.96112 8.21079 9.46983 8.00007 10.0003 8.00007ZM24.0003 10.0001C23.9902 13.2937 22.8412 16.4825 20.7481 19.0254C18.6549 21.5684 15.7465 23.3091 12.5163 23.9521C12.0885 24.0302 11.6487 24.0128 11.2285 23.9012C10.8082 23.7895 10.4178 23.5863 10.0853 23.3061C9.74561 23.0232 9.47234 22.6692 9.28483 22.2689C9.09732 21.8687 9.00017 21.4321 9.00026 20.9901V19.9491C7.31744 19.7811 5.70472 19.189 4.31292 18.2283C2.92111 17.2676 1.7957 15.9696 1.04191 14.4557C0.288123 12.9418 -0.0694046 11.2614 0.0027626 9.57181C0.0749298 7.88217 0.574434 6.23843 1.45456 4.79432C2.33469 3.3502 3.56669 2.15289 5.03534 1.31435C6.50399 0.475806 8.16132 0.0234335 9.85234 -0.000466033C11.5433 -0.0243656 13.2128 0.380989 14.7046 1.17769C16.1963 1.97439 17.4617 3.13641 18.3823 4.55507C18.4539 4.66551 18.5031 4.78898 18.527 4.91843C18.5509 5.04788 18.5491 5.18077 18.5217 5.30952C18.4942 5.43827 18.4417 5.56035 18.3671 5.6688C18.2925 5.77725 18.1972 5.86994 18.0868 5.94157C17.9763 6.01321 17.8528 6.06239 17.7234 6.08631C17.594 6.11023 17.4611 6.10841 17.3323 6.08098C17.2036 6.05354 17.0815 6.00101 16.973 5.92638C16.8646 5.85176 16.7719 5.75651 16.7003 5.64607C15.7611 4.19847 14.3791 3.09331 12.7604 2.4955C11.1417 1.8977 9.37314 1.83929 7.71853 2.32899C6.06392 2.81869 4.612 3.83025 3.5794 5.21273C2.5468 6.59522 1.98887 8.27452 1.98887 10.0001C1.98887 11.7256 2.5468 13.4049 3.5794 14.7874C4.612 16.1699 6.06392 17.1815 7.71853 17.6712C9.37314 18.1609 11.1417 18.1024 12.7604 17.5046C14.3791 16.9068 15.7611 15.8017 16.7003 14.3541C16.7719 14.244 16.8645 14.149 16.9728 14.0747C17.0812 14.0004 17.2031 13.9481 17.3316 13.9209C17.4601 13.8937 17.5927 13.8921 17.7219 13.9161C17.851 13.9402 17.9741 13.9894 18.0843 14.0611C18.1944 14.1327 18.2893 14.2253 18.3636 14.3337C18.4379 14.442 18.4902 14.5639 18.5174 14.6924C18.5446 14.8209 18.5462 14.9535 18.5222 15.0827C18.4981 15.2118 18.4489 15.335 18.3773 15.4451C17.5637 16.6996 16.4781 17.7548 15.2011 18.5324C13.924 19.31 12.4882 19.7901 11.0003 19.9371V20.9901C11.0004 21.1392 11.0333 21.2865 11.0967 21.4215C11.1602 21.5564 11.2525 21.6758 11.3673 21.7711C11.4748 21.8635 11.6017 21.9306 11.7386 21.9674C11.8755 22.0043 12.0189 22.01 12.1583 21.9841C14.4347 21.5328 16.535 20.4413 18.2126 18.8376C19.8901 17.234 21.0751 15.1849 21.6283 12.9311C21.422 12.9764 21.2115 12.9996 21.0003 13.0001C20.4069 13.0001 19.8269 12.8241 19.3336 12.4945C18.8402 12.1648 18.4557 11.6963 18.2286 11.1481C18.0016 10.5999 17.9422 9.99674 18.0579 9.4148C18.1737 8.83286 18.4594 8.29831 18.8789 7.87875C19.2985 7.45919 19.833 7.17347 20.415 7.05772C20.9969 6.94196 21.6001 7.00137 22.1483 7.22843C22.6965 7.4555 23.165 7.84001 23.4947 8.33336C23.8243 8.82671 24.0003 9.40673 24.0003 10.0001ZM22.0003 10.0001C22.0003 9.80229 21.9416 9.60895 21.8317 9.4445C21.7219 9.28005 21.5657 9.15188 21.3829 9.07619C21.2002 9.0005 20.9992 8.9807 20.8052 9.01929C20.6112 9.05787 20.433 9.15311 20.2932 9.29296C20.1533 9.43282 20.0581 9.611 20.0195 9.80498C19.9809 9.99896 20.0007 10.2 20.0764 10.3828C20.1521 10.5655 20.2802 10.7217 20.4447 10.8315C20.6091 10.9414 20.8025 11.0001 21.0003 11.0001C21.2655 11.0001 21.5198 10.8947 21.7074 10.7072C21.8949 10.5196 22.0003 10.2653 22.0003 10.0001Z" fill="#374957"/>
</g>
<defs>
<clipPath id="clip0_806_5860">
<rect width="24" height="24" fill="white"/>
</clipPath>
</defs>
</svg>
