<svg width="24" height="24" viewBox="0 0 24 24" fill="none" xmlns="http://www.w3.org/2000/svg">
<g clip-path="url(#clip0_806_5902)">
<path d="M19.9126 8.57339C19.9126 8.54967 19.9126 8.52595 19.9126 8.5012C19.9126 4.13297 16.3714 0.591797 12.0032 0.591797C7.63495 0.591797 4.09378 4.13297 4.09378 8.5012C4.09378 8.52591 4.09378 8.54962 4.09378 8.57339C0.269765 10.6849 -1.11853 15.4965 0.992952 19.3206C3.10444 23.1446 7.91611 24.5329 11.7401 22.4214C11.8288 22.3725 11.9165 22.3218 12.0032 22.2695C15.7433 24.5263 20.6048 23.3238 22.8615 19.5837C25.1183 15.8436 23.9158 10.9821 20.1757 8.72536C20.0889 8.673 20.0012 8.62233 19.9126 8.57339ZM12.0032 19.8443C10.9395 18.894 10.2543 17.592 10.0733 16.1773C11.339 16.4943 12.6634 16.4943 13.9291 16.1773C13.748 17.5897 13.0643 18.8897 12.0032 19.8394V19.8443ZM12.0032 14.4333C11.379 14.4336 10.7587 14.3352 10.1652 14.1416C10.435 12.9296 11.0777 11.8325 12.0032 11.0046C12.9286 11.8325 13.5714 12.9296 13.8412 14.1416C13.2477 14.3352 12.6274 14.4336 12.0032 14.4333ZM8.3708 13.1875C7.27655 12.3401 6.51248 11.1372 6.21056 9.78652C7.54055 9.35339 8.98078 9.40416 10.277 9.92986C9.38827 10.8462 8.73427 11.9639 8.3708 13.1875ZM13.7294 9.92489C15.0256 9.39919 16.4658 9.34842 17.7958 9.78155C17.4949 11.134 16.7308 12.3389 15.6356 13.1875C15.2728 11.9621 14.6188 10.8427 13.7294 9.92489ZM12.0032 2.56917C14.9878 2.57302 17.5063 4.79063 17.8878 7.75083C15.8938 7.25011 13.7831 7.54552 12.0032 8.57438C10.2232 7.54547 8.11261 7.25011 6.11859 7.75083C6.50006 4.79067 9.01856 2.57302 12.0032 2.56917ZM2.11645 15.4219C2.11664 13.5882 2.96578 11.8578 4.41609 10.7356C4.99312 12.6811 6.29278 14.3321 8.04848 15.3497C8.04848 15.3735 8.04848 15.3972 8.04848 15.4219C8.04741 17.4745 8.84686 19.4466 10.277 20.919C7.24073 22.1497 3.78169 20.6861 2.55094 17.6499C2.26406 16.9421 2.1165 16.1857 2.11645 15.4219ZM15.9579 21.354C15.1939 21.3545 14.4371 21.2068 13.7294 20.919C15.1595 19.4466 15.959 17.4745 15.9579 15.422C15.9579 15.3973 15.9579 15.3735 15.9579 15.3498C17.714 14.3323 19.014 12.6813 19.5913 10.7356C22.1795 12.7443 22.6493 16.4707 20.6406 19.059C19.5177 20.5058 17.7894 21.3529 15.9579 21.354Z" fill="#374957"/>
</g>
<defs>
<clipPath id="clip0_806_5902">
<rect width="24" height="24" fill="white"/>
</clipPath>
</defs>
</svg>
