<svg width="24" height="24" viewBox="0 0 24 24" fill="none" xmlns="http://www.w3.org/2000/svg">
<g clip-path="url(#clip0_806_6242)">
<path d="M20.485 3.51584C18.8072 1.83957 16.67 0.698367 14.3437 0.236484C12.0174 -0.225399 9.60639 0.012776 7.41542 0.920903C5.22446 1.82903 3.35191 3.36634 2.03449 5.3385C0.717069 7.31066 0.013916 9.62913 0.013916 12.0008C0.013916 14.3726 0.717069 16.691 2.03449 18.6632C3.35191 20.6353 5.22446 22.1727 7.41542 23.0808C9.60639 23.9889 12.0174 24.2271 14.3437 23.7652C16.67 23.3033 18.8072 22.1621 20.485 20.4858C22.7321 18.2337 23.9941 15.1822 23.9941 12.0008C23.9941 8.81944 22.7321 5.76794 20.485 3.51584ZM21.934 10.9328C20.7348 11.0783 19.5183 10.9491 18.3764 10.5549C17.2346 10.1608 16.1973 9.51209 15.3432 8.65788C14.4891 7.80367 13.8405 6.76636 13.4465 5.62446C13.0525 4.48256 12.9234 3.266 13.069 2.06684C15.3387 2.30547 17.4577 3.31627 19.0714 4.93015C20.6851 6.54402 21.6956 8.66309 21.934 10.9328ZM2.06599 13.0688C3.26516 12.9234 4.48172 13.0526 5.62357 13.4467C6.76543 13.8409 7.80266 14.4896 8.65677 15.3438C9.51089 16.198 10.1595 17.2353 10.5535 18.3772C10.9475 19.5191 11.0766 20.7357 10.931 21.9348C8.66126 21.6962 6.54231 20.6854 4.92862 19.0715C3.31493 17.4577 2.30437 15.3386 2.06599 13.0688ZM19.071 19.0688C17.4281 20.7153 15.2601 21.734 12.944 21.9478C13.0875 20.4811 12.9041 19.0008 12.407 17.6135C11.9098 16.2261 11.1114 14.9662 10.069 13.9244C9.02663 12.8826 7.76628 12.0848 6.37866 11.5885C4.99103 11.0921 3.51064 10.9095 2.04399 11.0538C2.2615 8.73813 3.28108 6.57114 4.92657 4.9273C6.57205 3.28345 8.74006 2.26604 11.056 2.05084C10.9215 3.43739 11.0786 4.83675 11.5172 6.15896C11.9558 7.48116 12.6662 8.69698 13.6028 9.72825C14.5393 10.7595 15.6812 11.5834 16.9552 12.1471C18.2291 12.7107 19.6069 13.0015 21 13.0008C21.317 13.0008 21.635 12.9848 21.953 12.9548C21.7358 15.2677 20.7162 17.4318 19.071 19.0718V19.0688Z" fill="#374957"/>
</g>
<defs>
<clipPath id="clip0_806_6242">
<rect width="24" height="24" fill="white"/>
</clipPath>
</defs>
</svg>
