<svg width="24" height="24" viewBox="0 0 24 24" fill="none" xmlns="http://www.w3.org/2000/svg">
<g clip-path="url(#clip0_806_5923)">
<path d="M23 5C23 4.20435 22.6839 3.44129 22.1213 2.87868C21.5587 2.31607 20.7957 2 20 2H19.829C19.6214 1.41549 19.2381 0.909511 18.7316 0.551443C18.2251 0.193376 17.6203 0.000756748 17 0L7.00001 0C6.37974 0.000756748 5.77488 0.193376 5.2684 0.551443C4.76191 0.909511 4.37859 1.41549 4.17101 2H4.00001C3.39388 2.00399 2.80317 2.1915 2.30571 2.53783C1.80824 2.88415 1.42735 3.37305 1.21322 3.94011C0.999082 4.50717 0.961742 5.1258 1.10612 5.7145C1.25049 6.3032 1.56981 6.83435 2.02201 7.238L3.57001 19.62C3.72256 20.8286 4.31051 21.9402 5.22373 22.7464C6.13695 23.5527 7.3128 23.9984 8.53101 24H15.469C16.6872 23.9982 17.8629 23.5524 18.7761 22.7462C19.6892 21.94 20.2773 20.8285 20.43 19.62L21.978 7.238C22.2978 6.95918 22.5544 6.6153 22.7307 6.22935C22.9069 5.84341 22.9987 5.42428 23 5ZM19.117 14H15.917C15.025 8.713 8.97001 8.716 8.07901 14H4.87901L4.12901 8H19.867L19.117 14ZM14 15C13.895 18.954 10.105 18.953 10 15C10.105 11.046 13.9 11.047 14 15ZM4.00001 4H5.00001C5.26523 4 5.51958 3.89464 5.70712 3.70711C5.89465 3.51957 6.00001 3.26522 6.00001 3C6.00001 2.73478 6.10537 2.48043 6.2929 2.29289C6.48044 2.10536 6.73479 2 7.00001 2H17C17.2652 2 17.5196 2.10536 17.7071 2.29289C17.8947 2.48043 18 2.73478 18 3C18 3.26522 18.1054 3.51957 18.2929 3.70711C18.4804 3.89464 18.7348 4 19 4H20C20.2652 4 20.5196 4.10536 20.7071 4.29289C20.8947 4.48043 21 4.73478 21 5C21 5.26522 20.8947 5.51957 20.7071 5.70711C20.5196 5.89464 20.2652 6 20 6H4.00001C3.73479 6 3.48044 5.89464 3.2929 5.70711C3.10537 5.51957 3.00001 5.26522 3.00001 5C3.00001 4.73478 3.10537 4.48043 3.2929 4.29289C3.48044 4.10536 3.73479 4 4.00001 4ZM18.445 19.372C18.3544 20.0974 18.0019 20.7648 17.4539 21.2487C16.9059 21.7326 16.2001 21.9998 15.469 22H8.53101C7.79976 22 7.09367 21.733 6.54547 21.2491C5.99726 20.7651 5.64469 20.0976 5.55401 19.372L5.13301 16H8.08101C8.97301 21.287 15.029 21.284 15.919 16H18.867L18.445 19.372Z" fill="#374957"/>
</g>
<defs>
<clipPath id="clip0_806_5923">
<rect width="24" height="24" fill="white"/>
</clipPath>
</defs>
</svg>
