<svg width="24" height="24" viewBox="0 0 24 24" fill="none" xmlns="http://www.w3.org/2000/svg">
<g clip-path="url(#clip0_806_6177)">
<path d="M22.0999 1.90058C18.6639 -1.53042 9.37187 -0.0664153 4.65187 4.65259C-0.0681291 9.37159 -1.53113 18.6646 1.89987 22.1006C3.50646 23.45 5.57368 24.1239 7.66687 23.9806C12.0009 23.9423 16.1653 22.2909 19.3479 19.3486C24.0659 14.6296 25.5309 5.33659 22.0999 1.90058ZM16.3329 2.00058C17.8969 1.87524 19.4507 2.34447 20.6839 3.31458C21.6999 4.33158 22.1109 6.30059 21.9589 8.54559L15.4589 2.04558C15.7539 2.02658 16.0499 2.00058 16.3329 2.00058ZM3.31587 20.6846C2.29987 19.6696 1.88887 17.7006 2.04087 15.4556L8.54087 21.9556C6.29987 22.1106 4.33087 21.7006 3.31587 20.6846ZM17.9339 17.9346C15.998 19.7586 13.6031 21.0226 11.0049 21.5916L2.40487 12.9916C2.97517 10.3942 4.24059 8.00054 6.06587 6.06659C8.00489 4.24317 10.4042 2.98267 13.0059 2.42058L21.5919 11.0066C21.0229 13.6048 19.7585 15.9994 17.9339 17.9346ZM17.7069 11.7076C17.5193 11.8951 17.265 12.0004 16.9999 12.0004C16.7347 12.0004 16.4804 11.8951 16.2929 11.7076L14.9999 10.4146L13.4139 12.0006L14.7069 13.2936C14.8024 13.3858 14.8786 13.4962 14.931 13.6182C14.9834 13.7402 15.011 13.8714 15.0121 14.0042C15.0133 14.137 14.988 14.2686 14.9377 14.3915C14.8874 14.5144 14.8132 14.6261 14.7193 14.72C14.6254 14.8139 14.5137 14.8881 14.3908 14.9384C14.2679 14.9887 14.1362 15.014 14.0035 15.0128C13.8707 15.0117 13.7395 14.9841 13.6175 14.9317C13.4955 14.8793 13.3851 14.8031 13.2929 14.7076L11.9999 13.4146L10.4139 15.0006L11.7069 16.2936C11.8024 16.3858 11.8786 16.4962 11.931 16.6182C11.9834 16.7402 12.011 16.8714 12.0121 17.0042C12.0133 17.137 11.988 17.2686 11.9377 17.3915C11.8874 17.5144 11.8132 17.6261 11.7193 17.72C11.6254 17.8139 11.5137 17.8881 11.3908 17.9384C11.2679 17.9887 11.1362 18.014 11.0035 18.0128C10.8707 18.0117 10.7395 17.9841 10.6175 17.9317C10.4955 17.8793 10.3851 17.8031 10.2929 17.7076L6.29287 13.7076C6.11071 13.519 6.00992 13.2664 6.0122 13.0042C6.01447 12.742 6.11964 12.4912 6.30505 12.3058C6.49046 12.1204 6.74127 12.0152 7.00347 12.0129C7.26567 12.0106 7.51827 12.1114 7.70687 12.2936L8.99987 13.5866L10.5859 12.0006L9.29287 10.7076C9.11071 10.519 9.00992 10.2664 9.0122 10.0042C9.01447 9.74199 9.11964 9.49118 9.30505 9.30577C9.49046 9.12036 9.74127 9.01519 10.0035 9.01291C10.2657 9.01063 10.5183 9.11143 10.7069 9.29359L11.9999 10.5866L13.5859 9.00059L12.2929 7.70759C12.1107 7.51898 12.0099 7.26638 12.0122 7.00418C12.0145 6.74199 12.1196 6.49118 12.3051 6.30577C12.4905 6.12036 12.7413 6.01519 13.0035 6.01291C13.2657 6.01063 13.5183 6.11143 13.7069 6.29359L17.7069 10.2936C17.8943 10.4811 17.9997 10.7354 17.9997 11.0006C17.9997 11.2657 17.8943 11.5201 17.7069 11.7076Z" fill="#374957"/>
</g>
<defs>
<clipPath id="clip0_806_6177">
<rect width="24" height="24" fill="white"/>
</clipPath>
</defs>
</svg>
