<svg width="24" height="24" viewBox="0 0 24 24" fill="none" xmlns="http://www.w3.org/2000/svg">
<g clip-path="url(#clip0_806_5934)">
<path d="M4.99975 14C5.55204 14 5.99975 13.5523 5.99975 13C5.99975 12.4477 5.55204 12 4.99975 12C4.44747 12 3.99976 12.4477 3.99976 13C3.99976 13.5523 4.44747 14 4.99975 14Z" fill="#374957"/>
<path d="M1 10.0002C1.55228 10.0002 2 9.55253 2 9.00024C2 8.44796 1.55228 8.00024 1 8.00024C0.447715 8.00024 0 8.44796 0 9.00024C0 9.55253 0.447715 10.0002 1 10.0002Z" fill="#374957"/>
<path d="M4.99975 5.99975C5.55204 5.99975 5.99975 5.55204 5.99975 4.99975C5.99975 4.44747 5.55204 3.99976 4.99975 3.99976C4.44747 3.99976 3.99976 4.44747 3.99976 4.99975C3.99976 5.55204 4.44747 5.99975 4.99975 5.99975Z" fill="#374957"/>
<path d="M1 2C1.55228 2 2 1.55228 2 1C2 0.447715 1.55228 0 1 0C0.447715 0 0 0.447715 0 1C0 1.55228 0.447715 2 1 2Z" fill="#374957"/>
<path d="M22.9997 14C23.552 14 23.9997 13.5523 23.9997 13C23.9997 12.4477 23.552 12 22.9997 12C22.4475 12 21.9998 12.4477 21.9998 13C21.9998 13.5523 22.4475 14 22.9997 14Z" fill="#374957"/>
<path d="M19 10.0002C19.5523 10.0002 20 9.55253 20 9.00024C20 8.44796 19.5523 8.00024 19 8.00024C18.4477 8.00024 18 8.44796 18 9.00024C18 9.55253 18.4477 10.0002 19 10.0002Z" fill="#374957"/>
<path d="M22.9997 5.99975C23.552 5.99975 23.9997 5.55204 23.9997 4.99975C23.9997 4.44747 23.552 3.99976 22.9997 3.99976C22.4475 3.99976 21.9998 4.44747 21.9998 4.99975C21.9998 5.55204 22.4475 5.99975 22.9997 5.99975Z" fill="#374957"/>
<path d="M19 2C19.5523 2 20 1.55228 20 1C20 0.447715 19.5523 0 19 0C18.4477 0 18 0.447715 18 1C18 1.55228 18.4477 2 19 2Z" fill="#374957"/>
<path d="M13.9998 23.9997C14.552 23.9997 14.9998 23.552 14.9998 22.9997C14.9998 22.4475 14.552 21.9998 13.9998 21.9998C13.4475 21.9998 12.9998 22.4475 12.9998 22.9997C12.9998 23.552 13.4475 23.9997 13.9998 23.9997Z" fill="#374957"/>
<path d="M10 20C10.5523 20 11 19.5523 11 19C11 18.4477 10.5523 18 10 18C9.44771 18 9 18.4477 9 19C9 19.5523 9.44771 20 10 20Z" fill="#374957"/>
<path d="M13.9998 16.0003C14.552 16.0003 14.9998 15.5525 14.9998 15.0002C14.9998 14.448 14.552 14.0002 13.9998 14.0002C13.4475 14.0002 12.9998 14.448 12.9998 15.0002C12.9998 15.5525 13.4475 16.0003 13.9998 16.0003Z" fill="#374957"/>
<path d="M10 11.9998C10.5523 11.9998 11 11.552 11 10.9998C11 10.4475 10.5523 9.99976 10 9.99976C9.44771 9.99976 9 10.4475 9 10.9998C9 11.552 9.44771 11.9998 10 11.9998Z" fill="#374957"/>
<path d="M15.0002 3C14.4698 3 13.9611 2.78929 13.586 2.41421C13.2109 2.03914 13.0002 1.53043 13.0002 1C13.0002 0.734784 12.8949 0.48043 12.7073 0.292893C12.5198 0.105357 12.2655 0 12.0002 0C11.735 0 11.4807 0.105357 11.2931 0.292893C11.1056 0.48043 11.0002 0.734784 11.0002 1C11.0002 1.53043 10.7895 2.03914 10.4145 2.41421C10.0394 2.78929 9.53067 3 9.00024 3C8.73503 3 8.48067 3.10536 8.29314 3.29289C8.1056 3.48043 8.00024 3.73478 8.00024 4C8.00024 4.26522 8.1056 4.51957 8.29314 4.70711C8.48067 4.89464 8.73503 5 9.00024 5C9.53067 5 10.0394 5.21071 10.4145 5.58579C10.7895 5.96086 11.0002 6.46957 11.0002 7C11.0002 7.26522 11.1056 7.51957 11.2931 7.70711C11.4807 7.89464 11.735 8 12.0002 8C12.2655 8 12.5198 7.89464 12.7073 7.70711C12.8949 7.51957 13.0002 7.26522 13.0002 7C13.0002 6.46957 13.2109 5.96086 13.586 5.58579C13.9611 5.21071 14.4698 5 15.0002 5C15.2654 5 15.5198 4.89464 15.7073 4.70711C15.8949 4.51957 16.0002 4.26522 16.0002 4C16.0002 3.73478 15.8949 3.48043 15.7073 3.29289C15.5198 3.10536 15.2654 3 15.0002 3Z" fill="#374957"/>
<path d="M7 18.9998C6.46957 18.9998 5.96086 18.789 5.58579 18.414C5.21071 18.0389 5 17.5302 5 16.9998C5 16.7345 4.89464 16.4802 4.70711 16.2926C4.51957 16.1051 4.26522 15.9998 4 15.9998C3.73478 15.9998 3.48043 16.1051 3.29289 16.2926C3.10536 16.4802 3 16.7345 3 16.9998C3 17.5302 2.78929 18.0389 2.41421 18.414C2.03914 18.789 1.53043 18.9998 1 18.9998C0.734784 18.9998 0.48043 19.1051 0.292893 19.2926C0.105357 19.4802 0 19.7345 0 19.9997C0 20.265 0.105357 20.5193 0.292893 20.7069C0.48043 20.8944 0.734784 20.9997 1 20.9997C1.53043 20.9997 2.03914 21.2105 2.41421 21.5855C2.78929 21.9606 3 22.4693 3 22.9997C3 23.265 3.10536 23.5193 3.29289 23.7068C3.48043 23.8944 3.73478 23.9997 4 23.9997C4.26522 23.9997 4.51957 23.8944 4.70711 23.7068C4.89464 23.5193 5 23.265 5 22.9997C5 22.4693 5.21071 21.9606 5.58579 21.5855C5.96086 21.2105 6.46957 20.9997 7 20.9997C7.26522 20.9997 7.51957 20.8944 7.70711 20.7069C7.89464 20.5193 8 20.265 8 19.9997C8 19.7345 7.89464 19.4802 7.70711 19.2926C7.51957 19.1051 7.26522 18.9998 7 18.9998Z" fill="#374957"/>
<path d="M22.9997 18.9998C22.4693 18.9998 21.9606 18.789 21.5855 18.414C21.2105 18.0389 20.9997 17.5302 20.9997 16.9998C20.9997 16.7345 20.8944 16.4802 20.7069 16.2926C20.5193 16.1051 20.265 15.9998 19.9997 15.9998C19.7345 15.9998 19.4802 16.1051 19.2926 16.2926C19.1051 16.4802 18.9998 16.7345 18.9998 16.9998C18.9998 17.5302 18.789 18.0389 18.414 18.414C18.0389 18.789 17.5302 18.9998 16.9998 18.9998C16.7345 18.9998 16.4802 19.1051 16.2926 19.2926C16.1051 19.4802 15.9998 19.7345 15.9998 19.9997C15.9998 20.265 16.1051 20.5193 16.2926 20.7069C16.4802 20.8944 16.7345 20.9997 16.9998 20.9997C17.5302 20.9997 18.0389 21.2105 18.414 21.5855C18.789 21.9606 18.9998 22.4693 18.9998 22.9997C18.9998 23.265 19.1051 23.5193 19.2926 23.7068C19.4802 23.8944 19.7345 23.9997 19.9997 23.9997C20.265 23.9997 20.5193 23.8944 20.7069 23.7068C20.8944 23.5193 20.9997 23.265 20.9997 22.9997C20.9997 22.4693 21.2105 21.9606 21.5855 21.5855C21.9606 21.2105 22.4693 20.9997 22.9997 20.9997C23.265 20.9997 23.5193 20.8944 23.7068 20.7069C23.8944 20.5193 23.9997 20.265 23.9997 19.9997C23.9997 19.7345 23.8944 19.4802 23.7068 19.2926C23.5193 19.1051 23.265 18.9998 22.9997 18.9998Z" fill="#374957"/>
</g>
<defs>
<clipPath id="clip0_806_5934">
<rect width="24" height="24" fill="white"/>
</clipPath>
</defs>
</svg>
