<svg width="24" height="24" viewBox="0 0 24 24" fill="none" xmlns="http://www.w3.org/2000/svg">
<g clip-path="url(#clip0_806_6088)">
<path d="M8.17381 22.4537C10.2777 24.5119 13.6381 24.5203 15.7523 22.4727L19.7366 18.7907C24.0529 14.532 24.0994 7.58067 19.8407 3.26446C15.582 -1.05174 8.63065 -1.09833 4.31445 3.1604C4.27952 3.19485 4.24484 3.22954 4.21038 3.26446C-0.0768045 7.55235 -0.076242 14.5039 4.21165 18.7911C4.22055 18.8 4.22941 18.8088 4.23837 18.8176L8.17381 22.4537ZM5.6217 4.67573C9.12199 1.15973 14.8099 1.14698 18.3259 4.64728C21.8419 8.14757 21.8546 13.8354 18.3543 17.3514L14.3769 21.0264C13.0187 22.3046 10.8978 22.2967 9.54916 21.0084L5.6217 17.3794C2.11366 13.8714 2.11366 8.18381 5.6216 4.67578C5.62165 4.67578 5.62165 4.67578 5.6217 4.67573ZM6.98309 11.0276C6.98309 10.4763 7.42995 10.0295 7.9812 10.0295H15.9659C16.5171 10.0295 16.964 10.4763 16.964 11.0276C16.964 11.5788 16.5171 12.0257 15.9659 12.0257H7.9812C7.42995 12.0256 6.98309 11.5788 6.98309 11.0276Z" fill="#374957"/>
</g>
<defs>
<clipPath id="clip0_806_6088">
<rect width="24" height="24" fill="white"/>
</clipPath>
</defs>
</svg>
