<svg width="24" height="24" viewBox="0 0 24 24" fill="none" xmlns="http://www.w3.org/2000/svg">
<g clip-path="url(#clip0_806_5909)">
<path d="M20.0249 22.0261H19.0249V20.3711C19.0228 19.835 18.9133 19.3047 18.7029 18.8116C18.4925 18.3185 18.1854 17.8726 17.7999 17.5001C15.8759 15.6411 15.0909 13.5111 15.0339 10.0241H16.0219C16.2871 10.0241 16.5414 9.91873 16.729 9.7312C16.9165 9.54366 17.0219 9.28931 17.0219 9.02409C17.0219 8.75887 16.9165 8.50452 16.729 8.31698C16.5414 8.12945 16.2871 8.02409 16.0219 8.02409H15.4659C15.8263 7.41893 16.0182 6.72841 16.0219 6.02409C16.0219 4.64909 14.8599 2.30709 14.1289 1.15409C13.9028 0.800635 13.5914 0.509771 13.2233 0.308297C12.8553 0.106823 12.4425 0.0012207 12.0229 0.0012207C11.6033 0.0012207 11.1905 0.106823 10.8224 0.308297C10.4544 0.509771 10.143 0.800635 9.91688 1.15409C9.18488 2.30809 8.02288 4.65409 8.02288 6.02509C8.02702 6.72934 8.21896 7.41974 8.57888 8.02509H8.02588C7.76066 8.02509 7.50631 8.13045 7.31877 8.31798C7.13124 8.50552 7.02588 8.75987 7.02588 9.02509C7.02588 9.29031 7.13124 9.54466 7.31877 9.7322C7.50631 9.91973 7.76066 10.0251 8.02588 10.0251H9.01488C8.95688 13.5121 8.17088 15.6411 6.24888 17.5001C5.86402 17.8728 5.55757 18.3187 5.34754 18.8116C5.13751 19.3045 5.02815 19.8343 5.02588 20.3701V22.0251H4.02588C3.76066 22.0251 3.50631 22.1304 3.31877 22.318C3.13124 22.5055 3.02588 22.7599 3.02588 23.0251C3.02588 23.2903 3.13124 23.5447 3.31877 23.7322C3.50631 23.9197 3.76066 24.0251 4.02588 24.0251H20.0259C20.2911 24.0251 20.5455 23.9197 20.733 23.7322C20.9205 23.5447 21.0259 23.2903 21.0259 23.0251C21.0259 22.7599 20.9205 22.5055 20.733 22.318C20.5455 22.1304 20.2911 22.0251 20.0259 22.0251L20.0249 22.0261ZM11.6079 2.22609C11.6534 2.15698 11.7154 2.10026 11.7883 2.06101C11.8611 2.02176 11.9426 2.00121 12.0254 2.00121C12.1081 2.00121 12.1896 2.02176 12.2625 2.06101C12.3354 2.10026 12.3973 2.15698 12.4429 2.22609C13.21 3.37906 13.7472 4.66936 14.0249 6.02609C14.0249 6.55652 13.8142 7.06523 13.4391 7.4403C13.064 7.81538 12.5553 8.02609 12.0249 8.02609C11.4944 8.02609 10.9857 7.81538 10.6107 7.4403C10.2356 7.06523 10.0249 6.55652 10.0249 6.02609C10.3033 4.66972 10.8408 3.37981 11.6079 2.22709V2.22609ZM13.0379 10.0261C13.0919 13.5421 13.8379 15.9771 15.5599 18.0261H8.49088C10.2109 15.9771 10.9589 13.5411 11.0139 10.0261H13.0379ZM7.02588 20.3711C7.02736 20.2552 7.03941 20.1398 7.06188 20.0261H16.9899C17.0115 20.1399 17.0232 20.2553 17.0249 20.3711V22.0261H7.02488L7.02588 20.3711Z" fill="#374957"/>
</g>
<defs>
<clipPath id="clip0_806_5909">
<rect width="24" height="24" fill="white"/>
</clipPath>
</defs>
</svg>
