<svg width="24" height="24" viewBox="0 0 24 24" fill="none" xmlns="http://www.w3.org/2000/svg">
<g clip-path="url(#clip0_806_6152)">
<path d="M19 0.999268H5C3.67441 1.00086 2.40356 1.52815 1.46622 2.46549C0.528882 3.40283 0.00158786 4.67367 0 5.99927L0 13.9993C0.00158786 15.3249 0.528882 16.5957 1.46622 17.533C2.40356 18.4704 3.67441 18.9977 5 18.9993H11V20.9993H7C6.73478 20.9993 6.48043 21.1046 6.29289 21.2922C6.10536 21.4797 6 21.7341 6 21.9993C6 22.2645 6.10536 22.5188 6.29289 22.7064C6.48043 22.8939 6.73478 22.9993 7 22.9993H17C17.2652 22.9993 17.5196 22.8939 17.7071 22.7064C17.8946 22.5188 18 22.2645 18 21.9993C18 21.7341 17.8946 21.4797 17.7071 21.2922C17.5196 21.1046 17.2652 20.9993 17 20.9993H13V18.9993H19C20.3256 18.9977 21.5964 18.4704 22.5338 17.533C23.4711 16.5957 23.9984 15.3249 24 13.9993V5.99927C23.9984 4.67367 23.4711 3.40283 22.5338 2.46549C21.5964 1.52815 20.3256 1.00086 19 0.999268ZM22 13.9993C22 14.7949 21.6839 15.558 21.1213 16.1206C20.5587 16.6832 19.7956 16.9993 19 16.9993H5C4.20435 16.9993 3.44129 16.6832 2.87868 16.1206C2.31607 15.558 2 14.7949 2 13.9993V5.99927C2 5.20362 2.31607 4.44056 2.87868 3.87795C3.44129 3.31534 4.20435 2.99927 5 2.99927H19C19.7956 2.99927 20.5587 3.31534 21.1213 3.87795C21.6839 4.44056 22 5.20362 22 5.99927V13.9993ZM20 9.99927C20 10.2645 19.8946 10.5188 19.7071 10.7064C19.5196 10.8939 19.2652 10.9993 19 10.9993H16.035L14.335 13.5543C14.2434 13.6916 14.1192 13.8041 13.9735 13.8818C13.8278 13.9594 13.6651 13.9998 13.5 13.9993C13.479 13.9993 13.458 13.9993 13.438 13.9993C13.263 13.9885 13.094 13.9319 12.9478 13.8352C12.8016 13.7385 12.6834 13.6051 12.605 13.4483L10.376 8.98727L9.332 10.5543C9.24065 10.6912 9.11692 10.8034 8.97178 10.8811C8.82665 10.9587 8.66459 10.9993 8.5 10.9993H5C4.73478 10.9993 4.48043 10.8939 4.29289 10.7064C4.10536 10.5188 4 10.2645 4 9.99927C4 9.73405 4.10536 9.4797 4.29289 9.29216C4.48043 9.10462 4.73478 8.99927 5 8.99927H7.965L9.665 6.44427C9.76123 6.29683 9.89516 6.17782 10.0529 6.09957C10.2106 6.02133 10.3864 5.98669 10.562 5.99927C10.737 6.01004 10.906 6.06662 11.0522 6.16333C11.1984 6.26004 11.3166 6.39347 11.395 6.55027L13.624 11.0093L14.668 9.44227C14.7596 9.30572 14.8834 9.19386 15.0285 9.11659C15.1737 9.03932 15.3356 8.99902 15.5 8.99927H19C19.2652 8.99927 19.5196 9.10462 19.7071 9.29216C19.8946 9.4797 20 9.73405 20 9.99927Z" fill="#374957"/>
</g>
<defs>
<clipPath id="clip0_806_6152">
<rect width="24" height="24" fill="white"/>
</clipPath>
</defs>
</svg>
