<svg width="24" height="24" viewBox="0 0 24 24" fill="none" xmlns="http://www.w3.org/2000/svg">
<path d="M17.7921 7.21221C17.3477 5.30149 16.2168 3.62065 14.6142 2.48919C13.0117 1.35773 11.0493 0.854523 9.10002 1.07522C7.15076 1.29592 5.35054 2.22514 4.04154 3.68625C2.73254 5.14736 2.00602 7.0385 2.00008 9.00021C1.99922 10.2786 2.30802 11.5382 2.90008 12.6712C1.82121 13.2493 0.966483 14.1714 0.471702 15.291C-0.0230787 16.4106 -0.129532 17.6634 0.169254 18.8503C0.468041 20.0373 1.15493 21.0904 2.12079 21.8423C3.08664 22.5942 4.27607 23.0017 5.50008 23.0002H16.0001C17.9592 22.9911 19.8468 22.2635 21.3051 20.9552C22.7634 19.647 23.691 17.8491 23.9119 15.9025C24.1329 13.9559 23.6318 11.9959 22.5038 10.3941C21.3758 8.79234 19.6993 7.66014 17.7921 7.21221ZM16.0001 21.0002H5.50008C4.64851 21.0028 3.82537 20.6939 3.1856 20.1319C2.54583 19.5699 2.13357 18.7934 2.0264 17.9486C1.91923 17.1037 2.12455 16.2489 2.60372 15.5449C3.08288 14.8409 3.80284 14.3364 4.62808 14.1262C4.7868 14.0854 4.93303 14.0061 5.05393 13.8955C5.17483 13.7848 5.26667 13.6462 5.32139 13.4917C5.37611 13.3372 5.39203 13.1716 5.36774 13.0096C5.34344 12.8475 5.27969 12.6939 5.18208 12.5622C4.41323 11.5339 3.9985 10.2841 4.00008 9.00021C4.01149 7.48619 4.59487 6.03246 5.63322 4.93056C6.67158 3.82866 8.08813 3.16005 9.5988 3.05884C11.1095 2.95762 12.6026 3.43127 13.7786 4.3848C14.9547 5.33834 15.7268 6.70125 15.9401 8.20021C15.9689 8.41786 16.0685 8.62 16.2235 8.77542C16.3786 8.93085 16.5805 9.03093 16.7981 9.06021C18.2969 9.27344 19.6597 10.0454 20.6132 11.2212C21.5668 12.3971 22.0406 13.89 21.9396 15.4005C21.8387 16.911 21.1704 18.3276 20.0689 19.3661C18.9674 20.4046 17.5139 20.9883 16.0001 21.0002Z" fill="#374957"/>
</svg>
