<svg width="24" height="24" viewBox="0 0 24 24" fill="none" xmlns="http://www.w3.org/2000/svg">
<g clip-path="url(#clip0_806_6124)">
<path d="M17.1151 8.0503C16.8284 8.12647 16.5707 8.28595 16.3746 8.50856C16.1785 8.73117 16.0529 9.00692 16.0135 9.30095C15.9741 9.59498 16.0228 9.89408 16.1535 10.1604C16.2841 10.4268 16.4907 10.6484 16.7473 10.7973C17.0039 10.9462 17.2988 11.0157 17.5949 10.997C17.891 10.9783 18.1748 10.8722 18.4106 10.6922C18.6464 10.5121 18.8235 10.2662 18.9195 9.98555C19.0155 9.70487 19.0262 9.40202 18.9501 9.11529C18.8996 8.92486 18.812 8.74625 18.6924 8.58966C18.5729 8.43307 18.4236 8.30157 18.2532 8.20267C18.0828 8.10377 17.8946 8.03941 17.6993 8.01326C17.504 7.98712 17.3055 7.9997 17.1151 8.0503Z" fill="#374957"/>
<path d="M12.1148 5.0503C11.8281 5.12647 11.5704 5.28595 11.3744 5.50856C11.1783 5.73117 11.0526 6.00693 11.0133 6.30095C10.9739 6.59498 11.0226 6.89408 11.1532 7.16043C11.2838 7.42678 11.4905 7.64842 11.7471 7.79733C12.0036 7.94624 12.2986 8.01573 12.5946 7.99701C12.8907 7.97829 13.1746 7.87221 13.4103 7.69217C13.6461 7.51214 13.8232 7.26623 13.9192 6.98555C14.0153 6.70487 14.0259 6.40202 13.9498 6.1153C13.8993 5.92486 13.8117 5.74625 13.6922 5.58966C13.5726 5.43307 13.4234 5.30157 13.2529 5.20267C13.0825 5.10377 12.8943 5.03941 12.699 5.01327C12.5038 4.98712 12.3052 4.9997 12.1148 5.0503Z" fill="#374957"/>
<path d="M7.11531 8.0503C6.82861 8.12647 6.57093 8.28595 6.37486 8.50856C6.17878 8.73117 6.05312 9.00692 6.01375 9.30095C5.97439 9.59498 6.02309 9.89408 6.1537 10.1604C6.28432 10.4268 6.49097 10.6484 6.74754 10.7973C7.00411 10.9462 7.29907 11.0157 7.59513 10.997C7.89119 10.9783 8.17505 10.8722 8.41083 10.6922C8.6466 10.5121 8.82369 10.2662 8.91972 9.98555C9.01575 9.70487 9.02639 9.40202 8.95031 9.11529C8.89978 8.92486 8.81223 8.74625 8.69266 8.58966C8.57308 8.43307 8.42383 8.30157 8.25343 8.20267C8.08303 8.10377 7.89481 8.03941 7.69953 8.01326C7.50425 7.98712 7.30573 7.9997 7.11531 8.0503Z" fill="#374957"/>
<path d="M7.11531 14.0503C6.82861 14.1265 6.57093 14.2859 6.37486 14.5086C6.17878 14.7312 6.05312 15.0069 6.01375 15.301C5.97439 15.595 6.02309 15.8941 6.1537 16.1604C6.28432 16.4268 6.49097 16.6484 6.74754 16.7973C7.00411 16.9462 7.29907 17.0157 7.59513 16.997C7.89119 16.9783 8.17505 16.8722 8.41083 16.6922C8.6466 16.5121 8.82369 16.2662 8.91972 15.9856C9.01575 15.7049 9.02639 15.402 8.95031 15.1153C8.89978 14.9249 8.81223 14.7462 8.69266 14.5897C8.57308 14.4331 8.42383 14.3016 8.25343 14.2027C8.08303 14.1038 7.89481 14.0394 7.69953 14.0133C7.50425 13.9871 7.30573 13.9997 7.11531 14.0503Z" fill="#374957"/>
<path d="M12.5003 0.00651556C10.8902 -0.0494662 9.28544 0.219306 7.78152 0.796808C6.27761 1.37431 4.90537 2.24872 3.74662 3.3679C2.58787 4.48708 1.66633 5.82813 1.03695 7.31108C0.407562 8.79403 0.0832187 10.3885 0.083252 11.9995C0.0869572 15.181 1.35243 18.2311 3.60206 20.4807C5.8517 22.7303 8.90179 23.9958 12.0833 23.9995C12.4213 23.9995 12.7533 23.9775 13.0833 23.9495C13.3337 23.9284 13.5669 23.8138 13.7367 23.6285C13.9064 23.4432 14.0001 23.2008 13.9993 22.9495L13.9673 19.3615C13.9592 18.6525 14.1626 17.9571 14.5515 17.3642C14.9404 16.7714 15.4972 16.3078 16.1508 16.0329C16.8044 15.7579 17.5251 15.684 18.2209 15.8205C18.9167 15.9571 19.5561 16.2979 20.0573 16.7995L20.1573 16.8995C20.3843 17.1285 20.6655 17.2963 20.9748 17.3874C21.2841 17.4785 21.6114 17.4899 21.9263 17.4205C22.236 17.3555 22.5245 17.2136 22.7651 17.0079C23.0058 16.8023 23.1908 16.5394 23.3033 16.2435C23.8554 14.7938 24.1193 13.2503 24.0803 11.6995C23.9677 8.65353 22.7149 5.76099 20.5701 3.59525C18.4252 1.4295 15.545 0.148628 12.5003 0.00651556ZM21.4823 15.4065L21.4683 15.3925C20.6866 14.6122 19.6905 14.082 18.6066 13.8694C17.5228 13.6568 16.4002 13.7714 15.3816 14.1986C14.3631 14.6259 13.4947 15.3464 12.8869 16.2686C12.279 17.1909 11.9593 18.273 11.9683 19.3775L11.9923 21.9995C9.34009 21.9876 6.80129 20.9226 4.93436 19.0388C3.06744 17.155 2.02532 14.6067 2.03725 11.9545C2.04919 9.30235 3.1142 6.76355 4.998 4.89663C6.88181 3.0297 9.43009 1.98758 12.0823 1.99952C12.1993 1.99952 12.3173 1.99952 12.4353 2.00552C14.9716 2.12465 17.3707 3.19226 19.1571 4.99678C20.9435 6.8013 21.9868 9.21106 22.0803 11.7485C22.1133 12.9921 21.9114 14.2308 21.4853 15.3995L21.4823 15.4065Z" fill="#374957"/>
</g>
<defs>
<clipPath id="clip0_806_6124">
<rect width="24" height="24" fill="white"/>
</clipPath>
</defs>
</svg>
