<svg width="24" height="24" viewBox="0 0 24 24" fill="none" xmlns="http://www.w3.org/2000/svg">
<g clip-path="url(#clip0_806_6070)">
<path d="M2 11H13C13.5304 11 14.0391 10.7893 14.4142 10.4142C14.7893 10.0391 15 9.53043 15 9V2C15 1.46957 14.7893 0.960859 14.4142 0.585786C14.0391 0.210714 13.5304 0 13 0L2 0C1.46957 0 0.960859 0.210714 0.585786 0.585786C0.210714 0.960859 0 1.46957 0 2L0 9C0 9.53043 0.210714 10.0391 0.585786 10.4142C0.960859 10.7893 1.46957 11 2 11ZM2 2H13V9H2V2Z" fill="#374957"/>
<path d="M22.0002 0H19.0002C18.4698 0 17.9611 0.210714 17.586 0.585786C17.211 0.960859 17.0002 1.46957 17.0002 2V9C17.0002 9.53043 17.211 10.0391 17.586 10.4142C17.9611 10.7893 18.4698 11 19.0002 11H22.0002C22.5307 11 23.0394 10.7893 23.4145 10.4142C23.7895 10.0391 24.0002 9.53043 24.0002 9V2C24.0002 1.46957 23.7895 0.960859 23.4145 0.585786C23.0394 0.210714 22.5307 0 22.0002 0V0ZM22.0002 9H19.0002V2H22.0002V9Z" fill="#374957"/>
<path d="M5 13.0002H2C1.46957 13.0002 0.960859 13.211 0.585787 13.586C0.210714 13.9611 0 14.4698 0 15.0002L0 22.0002C0 22.5307 0.210714 23.0394 0.585787 23.4144C0.960859 23.7895 1.46957 24.0002 2 24.0002H5C5.53043 24.0002 6.03914 23.7895 6.41421 23.4144C6.78929 23.0394 7 22.5307 7 22.0002V15.0002C7 14.4698 6.78929 13.9611 6.41421 13.586C6.03914 13.211 5.53043 13.0002 5 13.0002ZM5 22.0002H2V15.0002H5V22.0002Z" fill="#374957"/>
<path d="M22 13.0002H11C10.4696 13.0002 9.96086 13.211 9.58579 13.586C9.21071 13.9611 9 14.4698 9 15.0002V22.0002C9 22.5307 9.21071 23.0394 9.58579 23.4144C9.96086 23.7895 10.4696 24.0002 11 24.0002H22C22.5304 24.0002 23.0391 23.7895 23.4142 23.4144C23.7893 23.0394 24 22.5307 24 22.0002V15.0002C24 14.4698 23.7893 13.9611 23.4142 13.586C23.0391 13.211 22.5304 13.0002 22 13.0002ZM22 22.0002H11V15.0002H22V22.0002Z" fill="#374957"/>
</g>
<defs>
<clipPath id="clip0_806_6070">
<rect width="24" height="24" fill="white"/>
</clipPath>
</defs>
</svg>
