<svg width="24" height="24" viewBox="0 0 24 24" fill="none" xmlns="http://www.w3.org/2000/svg">
<g clip-path="url(#clip0_806_6163)">
<path d="M10.3569 2.92031L8.94085 5.22031C8.79501 5.43052 8.57413 5.57684 8.32368 5.62915C8.07323 5.68146 7.81226 5.63579 7.59446 5.50152C7.37666 5.36726 7.21862 5.15462 7.15284 4.90736C7.08706 4.66011 7.11856 4.39705 7.24085 4.17231L8.65685 1.87231C9.01193 1.30532 9.50527 0.837864 10.0905 0.51382C10.6758 0.189777 11.3339 0.0197754 12.0029 0.0197754C12.6718 0.0197754 13.3299 0.189777 13.9152 0.51382C14.5004 0.837864 14.9938 1.30532 15.3489 1.87231L19.5489 8.70631L19.9899 6.34131C20.0384 6.08047 20.1886 5.84959 20.4073 5.69947C20.6261 5.54935 20.8955 5.49227 21.1564 5.54081C21.4172 5.58934 21.6481 5.73951 21.7982 5.95827C21.9483 6.17703 22.0054 6.44647 21.9569 6.70731L21.4569 9.37731C21.3289 10.0647 20.9649 10.6857 20.4278 11.1332C19.8906 11.5808 19.214 11.8266 18.5149 11.8283C18.3199 11.8283 15.2979 11.2523 15.2979 11.2523C15.042 11.1967 14.8182 11.043 14.6745 10.8242C14.5307 10.6054 14.4785 10.339 14.529 10.0821C14.5796 9.82521 14.7288 9.5984 14.9447 9.45036C15.1607 9.30232 15.426 9.24485 15.6839 9.29031L17.8169 9.71131L13.6429 2.92031C13.4693 2.64084 13.2273 2.41025 12.9398 2.25036C12.6524 2.09047 12.3288 2.00656 11.9999 2.00656C11.6709 2.00656 11.3474 2.09047 11.0599 2.25036C10.7724 2.41025 10.5304 2.64084 10.3569 2.92031ZM23.4089 14.9793L22.4409 13.4073C22.3759 13.288 22.2873 13.1831 22.1805 13.0991C22.0737 13.0151 21.9509 12.9538 21.8196 12.9189C21.6883 12.884 21.5512 12.8762 21.4168 12.8959C21.2824 12.9157 21.1534 12.9627 21.0377 13.034C20.922 13.1053 20.8221 13.1995 20.744 13.3107C20.666 13.4219 20.6114 13.5478 20.5836 13.6808C20.5558 13.8138 20.5554 13.9511 20.5825 14.0843C20.6095 14.2174 20.6634 14.3437 20.7409 14.4553L21.7089 16.0273C21.8935 16.323 21.9948 16.6631 22.002 17.0117C22.0092 17.3602 21.9221 17.7042 21.7499 18.0073C21.5842 18.3096 21.3398 18.5614 21.0426 18.736C20.7454 18.9107 20.4065 19.0017 20.0619 18.9993H12.6759L13.9469 17.7303C14.1293 17.542 14.2305 17.2895 14.2286 17.0273C14.2267 16.7651 14.1218 16.5141 13.9367 16.3284C13.7515 16.1428 13.5009 16.0372 13.2387 16.0346C12.9765 16.0319 12.7237 16.1324 12.5349 16.3143L10.8429 17.9993C10.3148 18.5244 10.0124 19.2347 9.99985 19.9793C9.99985 19.9793 9.99985 19.9893 9.99985 19.9933C9.99985 19.9973 9.99985 20.0063 9.99985 20.0133C9.997 20.3981 10.0712 20.7796 10.218 21.1352C10.3649 21.4909 10.5814 21.8136 10.8549 22.0843L12.5369 23.7363C12.6295 23.8329 12.7407 23.9099 12.8637 23.9628C12.9867 24.0156 13.119 24.0433 13.2529 24.044C13.3867 24.0448 13.5194 24.0186 13.643 23.9671C13.7666 23.9157 13.8786 23.8399 13.9723 23.7443C14.0661 23.6488 14.1397 23.5354 14.1888 23.4108C14.2379 23.2863 14.2615 23.1532 14.2582 23.0193C14.2549 22.8855 14.2247 22.7537 14.1695 22.6317C14.1143 22.5098 14.0352 22.4001 13.9369 22.3093L12.6089 20.9993H20.0619C20.7634 20.9969 21.4516 20.8076 22.0557 20.4509C22.6598 20.0942 23.1579 19.5829 23.4988 18.9698C23.8397 18.3566 24.0111 17.6637 23.9953 16.9623C23.9795 16.261 23.777 15.5765 23.4089 14.9793ZM6.77985 7.21231C6.45213 6.98913 6.08321 6.8335 5.69465 6.75452C5.3061 6.67554 4.9057 6.67479 4.51685 6.75231L1.88785 7.27031C1.75689 7.2934 1.63184 7.34238 1.52004 7.41438C1.40823 7.48638 1.31191 7.57996 1.23671 7.68964C1.16151 7.79932 1.10895 7.9229 1.08208 8.05314C1.05522 8.18338 1.05461 8.31767 1.08028 8.44816C1.10595 8.57864 1.15739 8.70269 1.23159 8.81305C1.30578 8.92341 1.40125 9.01787 1.51239 9.09089C1.62354 9.16391 1.74813 9.21402 1.87888 9.23831C2.00962 9.26259 2.1439 9.26055 2.27385 9.23231L4.38185 8.81731L0.590851 14.9793C0.222703 15.5764 0.0202856 16.2608 0.00442724 16.9621C-0.0114311 17.6634 0.159842 18.3562 0.500624 18.9693C0.841406 19.5825 1.33939 20.0937 1.94334 20.4505C2.54729 20.8073 3.23539 20.9967 3.93685 20.9993H7.07985C7.34507 20.9993 7.59942 20.894 7.78696 20.7064C7.97449 20.5189 8.07985 20.2645 8.07985 19.9993C8.07985 19.7341 7.97449 19.4797 7.78696 19.2922C7.59942 19.1047 7.34507 18.9993 7.07985 18.9993H3.93685C3.59284 19.0009 3.25477 18.9096 2.95836 18.735C2.66194 18.5604 2.41819 18.309 2.25285 18.0073C2.0806 17.7042 1.99347 17.3602 2.00069 17.0117C2.0079 16.6631 2.1092 16.323 2.29385 16.0273L6.13185 9.78931L6.57785 12.1833C6.62665 12.4441 6.77707 12.6749 6.99602 12.8249C7.21497 12.9748 7.48451 13.0316 7.74535 12.9828C8.00619 12.934 8.23696 12.7836 8.3869 12.5646C8.53683 12.3457 8.59365 12.0761 8.54485 11.8153L8.04485 9.14531C7.973 8.75522 7.82413 8.38337 7.60693 8.05147C7.38973 7.71958 7.10856 7.4343 6.77985 7.21231Z" fill="#374957"/>
</g>
<defs>
<clipPath id="clip0_806_6163">
<rect width="24" height="24" fill="white"/>
</clipPath>
</defs>
</svg>
